<svg width="206" height="206" viewBox="0 0 206 206" fill="none" xmlns="http://www.w3.org/2000/svg">
<path fill-rule="evenodd" clip-rule="evenodd" d="M21 154.224C21 159.072 24.9144 162.994 29.7525 162.994H176.247C181.086 162.994 185 159.072 185 154.224V73.6719H21V154.224V154.224Z" stroke="#29343F" stroke-miterlimit="10"/>
<path fill-rule="evenodd" clip-rule="evenodd" d="M176.247 44H29.7525C24.9144 44 21 47.9223 21 52.7702V73.6776H185V52.7702C185 47.9223 181.086 44 176.247 44Z" fill="#8E87FF" stroke="#29343F" stroke-linecap="round" stroke-linejoin="round"/>
<path d="M133.672 62.8925C135.981 62.8925 137.852 61.0173 137.852 58.7041C137.852 56.3909 135.981 54.5156 133.672 54.5156C131.364 54.5156 129.492 56.3909 129.492 58.7041C129.492 61.0173 131.364 62.8925 133.672 62.8925Z" fill="#EBEDEF" stroke="#29343F" stroke-miterlimit="10"/>
<path d="M150.391 62.8925C152.699 62.8925 154.571 61.0173 154.571 58.7041C154.571 56.3909 152.699 54.5156 150.391 54.5156C148.082 54.5156 146.211 56.3909 146.211 58.7041C146.211 61.0173 148.082 62.8925 150.391 62.8925Z" fill="#EBEDEF" stroke="#29343F" stroke-miterlimit="10"/>
<path d="M167.125 62.8925C169.434 62.8925 171.305 61.0173 171.305 58.7041C171.305 56.3909 169.434 54.5156 167.125 54.5156C164.817 54.5156 162.945 56.3909 162.945 58.7041C162.945 61.0173 164.817 62.8925 167.125 62.8925Z" fill="#EBEDEF" stroke="#29343F" stroke-miterlimit="10"/>
<path d="M107.111 107.831C107.215 107.993 107.434 108.051 107.607 108.051C107.769 108.109 108 108.051 108.104 107.947C109.478 107.009 111.81 105.343 114.455 103.735C116.337 105.899 117.561 108.548 118.046 111.371C120.043 108.49 125.736 101.028 120.817 97.2558C115.898 93.4954 107.827 103.457 106.926 107.171C106.868 107.276 106.868 107.391 106.926 107.495C106.995 107.6 107.042 107.727 107.099 107.831H107.111Z" fill="#29343F"/>
<path d="M110.544 112.749L110.255 113.027C110.198 113.131 110.151 113.246 110.094 113.362C110.094 113.524 110.094 113.686 110.198 113.86C110.302 114.022 110.486 114.137 110.648 114.184C112.253 114.681 115.07 115.514 117.888 116.509C117.391 119.332 116.121 121.936 114.181 124.041C117.668 123.822 127.068 123.66 126.906 117.516C126.744 112.251 114.02 111.152 110.544 112.76V112.749Z" fill="#29343F"/>
<path d="M108.384 119.128L108.06 119.023L107.726 119.128C107.564 119.185 107.448 119.347 107.402 119.509C107.345 119.671 107.345 119.903 107.402 120.065C108.014 121.604 109.065 124.265 110.058 127.192C107.564 128.523 104.7 129.124 101.883 128.962C104.192 131.566 110.173 138.82 114.989 134.886C119.792 130.964 111.836 120.771 108.407 119.116L108.384 119.128Z" fill="#29343F"/>
<path d="M102.139 121.331L101.977 121.053L101.688 120.833C101.527 120.764 101.307 120.764 101.146 120.833C100.984 120.891 100.811 120.995 100.753 121.157C99.9217 122.592 98.4436 125.08 96.8386 127.683C94.1828 126.584 91.9658 124.698 90.3608 122.314C89.7488 125.809 87.8205 134.995 93.848 136.268C98.9402 137.263 102.924 125.033 102.15 121.319L102.139 121.331Z" fill="#29343F"/>
<path d="M96.4332 117.839C96.5371 117.734 96.5949 117.619 96.5949 117.515C96.6642 117.41 96.6642 117.295 96.5949 117.191C96.5371 117.017 96.4332 116.855 96.3178 116.739C96.1561 116.635 95.9367 116.577 95.7635 116.635C94.0545 116.913 91.2371 117.353 88.2464 117.688C87.4728 114.923 87.4728 111.984 88.3504 109.219C85.1981 110.931 76.8382 115.201 79.621 120.673C81.9881 125.267 93.9853 120.777 96.4216 117.85L96.4332 117.839Z" fill="#29343F"/>
<path d="M95.6592 111.195C95.7632 111.253 95.9479 111.195 96.0518 111.137C96.1557 111.079 96.2135 110.975 96.2712 110.859C96.3751 110.697 96.4329 110.535 96.4329 110.362C96.3751 110.2 96.2712 110.038 96.1558 109.864C94.9433 108.765 92.8418 106.821 90.7402 104.658C92.403 102.344 94.7124 100.516 97.3682 99.5206C94.1119 98.0743 85.5441 94.152 83.0038 99.7982C80.9023 104.554 91.8488 111.149 95.6592 111.195Z" fill="#29343F"/>
<path d="M101.026 106.782C101.187 106.782 101.349 106.666 101.465 106.55C101.568 106.388 101.684 106.226 101.742 106.053C101.857 104.387 102.077 101.517 102.411 98.4742C105.298 98.3701 108.116 99.018 110.598 100.522C109.605 97.0858 107.388 88.0147 101.476 89.4494C96.3839 90.7337 98.0467 103.449 100.425 106.492C100.587 106.654 100.806 106.782 101.037 106.782H101.026Z" fill="#29343F"/>
</svg>
