<svg width="206" height="206" viewBox="0 0 206 206" fill="none" xmlns="http://www.w3.org/2000/svg">
<path fill-rule="evenodd" clip-rule="evenodd" d="M21 154.228C21 159.076 24.9144 162.998 29.7525 162.998H176.247C181.086 162.998 185 159.076 185 154.228V73.6758H21V154.228V154.228Z" stroke="url(#paint0_linear_15044_55819)" stroke-miterlimit="10"/>
<path fill-rule="evenodd" clip-rule="evenodd" d="M176.247 44H29.7525C24.9144 44 21 47.9223 21 52.7702V73.6776H185V52.7702C185 47.9223 181.086 44 176.247 44Z" fill="#8E87FF" stroke="url(#paint1_linear_15044_55819)" stroke-linecap="round" stroke-linejoin="round"/>
<path d="M133.675 62.8925C135.984 62.8925 137.855 61.0173 137.855 58.7041C137.855 56.3909 135.984 54.5156 133.675 54.5156C131.367 54.5156 129.495 56.3909 129.495 58.7041C129.495 61.0173 131.367 62.8925 133.675 62.8925Z" fill="#161B22" stroke="url(#paint2_linear_15044_55819)" stroke-miterlimit="10"/>
<path d="M150.396 62.8925C152.704 62.8925 154.576 61.0173 154.576 58.7041C154.576 56.3909 152.704 54.5156 150.396 54.5156C148.087 54.5156 146.216 56.3909 146.216 58.7041C146.216 61.0173 148.087 62.8925 150.396 62.8925Z" fill="#161B22" stroke="url(#paint3_linear_15044_55819)" stroke-miterlimit="10"/>
<path d="M167.126 62.8925C169.435 62.8925 171.306 61.0173 171.306 58.7041C171.306 56.3909 169.435 54.5156 167.126 54.5156C164.818 54.5156 162.946 56.3909 162.946 58.7041C162.946 61.0173 164.818 62.8925 167.126 62.8925Z" fill="#161B22" stroke="url(#paint4_linear_15044_55819)" stroke-miterlimit="10"/>
<path d="M107.115 107.831C107.219 107.993 107.438 108.051 107.611 108.051C107.773 108.109 108.004 108.051 108.108 107.947C109.482 107.009 111.814 105.343 114.459 103.735C116.341 105.899 117.565 108.548 118.05 111.371C120.047 108.49 125.74 101.028 120.821 97.2558C115.902 93.4954 107.831 103.457 106.93 107.171C106.872 107.276 106.872 107.391 106.93 107.495C106.999 107.6 107.045 107.727 107.103 107.831H107.115Z" fill="url(#paint5_linear_15044_55819)"/>
<path d="M110.546 112.749L110.257 113.027C110.2 113.131 110.153 113.246 110.096 113.362C110.096 113.524 110.096 113.686 110.2 113.86C110.304 114.022 110.488 114.137 110.65 114.184C112.255 114.681 115.072 115.514 117.89 116.509C117.393 119.332 116.123 121.936 114.183 124.041C117.67 123.822 127.07 123.66 126.908 117.516C126.746 112.251 114.022 111.152 110.546 112.76V112.749Z" fill="url(#paint6_linear_15044_55819)"/>
<path d="M108.386 119.124L108.062 119.02L107.727 119.124C107.566 119.182 107.45 119.343 107.404 119.505C107.346 119.667 107.346 119.899 107.404 120.061C108.016 121.6 109.067 124.261 110.06 127.188C107.566 128.519 104.702 129.12 101.885 128.958C104.194 131.562 110.175 138.816 114.99 134.882C119.794 130.96 111.838 120.767 108.409 119.112L108.386 119.124Z" fill="url(#paint7_linear_15044_55819)"/>
<path d="M102.139 121.331L101.977 121.053L101.688 120.833C101.527 120.764 101.307 120.764 101.146 120.833C100.984 120.891 100.811 120.995 100.753 121.157C99.9217 122.592 98.4436 125.08 96.8386 127.683C94.1828 126.584 91.9658 124.698 90.3608 122.314C89.7488 125.809 87.8205 134.995 93.848 136.268C98.9402 137.263 102.924 125.033 102.15 121.319L102.139 121.331Z" fill="url(#paint8_linear_15044_55819)"/>
<path d="M96.4352 117.839C96.5391 117.734 96.5968 117.619 96.5968 117.515C96.6661 117.41 96.6661 117.295 96.5968 117.191C96.5391 117.017 96.4352 116.855 96.3197 116.739C96.1581 116.635 95.9386 116.577 95.7654 116.635C94.0565 116.913 91.239 117.353 88.2484 117.688C87.4748 114.923 87.4748 111.984 88.3524 109.219C85.2001 110.931 76.8401 115.201 79.6229 120.673C81.99 125.267 93.9872 120.777 96.4236 117.85L96.4352 117.839Z" fill="url(#paint9_linear_15044_55819)"/>
<path d="M95.6612 111.195C95.7651 111.253 95.9498 111.195 96.0538 111.137C96.1577 111.079 96.2154 110.975 96.2731 110.859C96.3771 110.697 96.4348 110.535 96.4348 110.362C96.3771 110.2 96.2732 110.038 96.1577 109.864C94.9453 108.765 92.8437 106.821 90.7422 104.658C92.405 102.344 94.7143 100.516 97.3701 99.5206C94.1139 98.0743 85.5461 94.152 83.0058 99.7982C80.9042 104.554 91.8507 111.149 95.6612 111.195Z" fill="url(#paint10_linear_15044_55819)"/>
<path d="M101.029 106.778C101.19 106.778 101.352 106.662 101.467 106.546C101.571 106.384 101.687 106.222 101.745 106.049C101.86 104.383 102.079 101.513 102.414 98.4703C105.301 98.3662 108.119 99.0141 110.601 100.518C109.608 97.0819 107.391 88.0108 101.479 89.4455C96.3869 90.7298 98.0496 103.445 100.428 106.488C100.59 106.65 100.809 106.778 101.04 106.778H101.029Z" fill="url(#paint11_linear_15044_55819)"/>
<defs>
<linearGradient id="paint0_linear_15044_55819" x1="21" y1="111.142" x2="185" y2="111.142" gradientUnits="userSpaceOnUse">
<stop stop-color="#FFF0ED"/>
<stop offset="1" stop-color="#EDECFC"/>
</linearGradient>
<linearGradient id="paint1_linear_15044_55819" x1="21" y1="56.4484" x2="185" y2="56.4484" gradientUnits="userSpaceOnUse">
<stop stop-color="#FFF0ED"/>
<stop offset="1" stop-color="#EDECFC"/>
</linearGradient>
<linearGradient id="paint2_linear_15044_55819" x1="129.495" y1="58.0293" x2="137.855" y2="58.0293" gradientUnits="userSpaceOnUse">
<stop stop-color="#FFF0ED"/>
<stop offset="1" stop-color="#EDECFC"/>
</linearGradient>
<linearGradient id="paint3_linear_15044_55819" x1="146.216" y1="58.0293" x2="154.576" y2="58.0293" gradientUnits="userSpaceOnUse">
<stop stop-color="#FFF0ED"/>
<stop offset="1" stop-color="#EDECFC"/>
</linearGradient>
<linearGradient id="paint4_linear_15044_55819" x1="162.946" y1="58.0293" x2="171.306" y2="58.0293" gradientUnits="userSpaceOnUse">
<stop stop-color="#FFF0ED"/>
<stop offset="1" stop-color="#EDECFC"/>
</linearGradient>
<linearGradient id="paint5_linear_15044_55819" x1="106.887" y1="102.693" x2="122.772" y2="102.693" gradientUnits="userSpaceOnUse">
<stop stop-color="#FFF0ED"/>
<stop offset="1" stop-color="#EDECFC"/>
</linearGradient>
<linearGradient id="paint6_linear_15044_55819" x1="110.096" y1="117.096" x2="126.91" y2="117.096" gradientUnits="userSpaceOnUse">
<stop stop-color="#FFF0ED"/>
<stop offset="1" stop-color="#EDECFC"/>
</linearGradient>
<linearGradient id="paint7_linear_15044_55819" x1="101.885" y1="126.154" x2="116.492" y2="126.154" gradientUnits="userSpaceOnUse">
<stop stop-color="#FFF0ED"/>
<stop offset="1" stop-color="#EDECFC"/>
</linearGradient>
<linearGradient id="paint8_linear_15044_55819" x1="89.5781" y1="127.301" x2="102.247" y2="127.301" gradientUnits="userSpaceOnUse">
<stop stop-color="#FFF0ED"/>
<stop offset="1" stop-color="#EDECFC"/>
</linearGradient>
<linearGradient id="paint9_linear_15044_55819" x1="79.0645" y1="114.85" x2="96.6488" y2="114.85" gradientUnits="userSpaceOnUse">
<stop stop-color="#FFF0ED"/>
<stop offset="1" stop-color="#EDECFC"/>
</linearGradient>
<linearGradient id="paint10_linear_15044_55819" x1="82.7402" y1="102.873" x2="97.3701" y2="102.873" gradientUnits="userSpaceOnUse">
<stop stop-color="#FFF0ED"/>
<stop offset="1" stop-color="#EDECFC"/>
</linearGradient>
<linearGradient id="paint11_linear_15044_55819" x1="98.1475" y1="96.627" x2="110.601" y2="96.627" gradientUnits="userSpaceOnUse">
<stop stop-color="#FFF0ED"/>
<stop offset="1" stop-color="#EDECFC"/>
</linearGradient>
</defs>
</svg>
