<svg width="206" height="206" viewBox="0 0 206 206" fill="none" xmlns="http://www.w3.org/2000/svg">
<path opacity="0.3" d="M157.039 66.2656H74.2448C70.4 66.2656 67.2832 69.3831 67.2832 73.2286V156.039C67.2832 159.884 70.4 163.002 74.2448 163.002H157.039C160.883 163.002 164 159.884 164 156.039V73.2286C164 69.3831 160.883 66.2656 157.039 66.2656Z" fill="#8E87FF" stroke="url(#paint0_linear_15044_55923)" stroke-linecap="round" stroke-linejoin="round"/>
<path d="M145.14 53.9453H62.3463C58.5016 53.9453 55.3848 57.0627 55.3848 60.9083V143.718C55.3848 147.564 58.5016 150.681 62.3463 150.681H145.14C148.985 150.681 152.102 147.564 152.102 143.718V60.9083C152.102 57.0627 148.985 53.9453 145.14 53.9453Z" fill="#8E87FF" stroke="url(#paint1_linear_15044_55923)" stroke-linecap="round" stroke-linejoin="round"/>
<path d="M132.755 43H49.9615C46.1168 43 43 46.1174 43 49.9629V132.773C43 136.619 46.1168 139.736 49.9615 139.736H132.755C136.6 139.736 139.717 136.619 139.717 132.773V49.9629C139.717 46.1174 136.6 43 132.755 43Z" fill="#161B22" stroke="url(#paint2_linear_15044_55923)" stroke-linecap="round" stroke-linejoin="round"/>
<path d="M95.5239 86.3448C95.6287 86.5078 95.8499 86.566 96.0245 86.566C96.1875 86.6243 96.4203 86.5661 96.5367 86.4613C97.9221 85.5181 100.274 83.8414 102.94 82.223C104.837 84.4003 106.071 87.0667 106.56 89.9078C108.574 87.0085 114.313 79.4867 109.354 75.7025C104.383 71.9183 96.2457 81.9435 95.3493 85.6812C95.2911 85.7859 95.2911 85.9024 95.3493 86.0072C95.4192 86.112 95.4657 86.24 95.5239 86.3448Z" fill="url(#paint3_linear_15044_55923)"/>
<path d="M98.9686 91.3077L98.6776 91.5871C98.6194 91.6919 98.5729 91.8084 98.5146 91.9248C98.5146 92.0878 98.5146 92.2508 98.6194 92.4255C98.7242 92.5885 98.9104 92.7049 99.0734 92.7515C100.692 93.2638 103.532 94.0906 106.373 95.0919C105.872 97.933 104.591 100.553 102.636 102.672C106.151 102.451 115.628 102.288 115.465 96.0933C115.302 90.7954 102.473 89.6892 98.957 91.3077H98.9686Z" fill="url(#paint4_linear_15044_55923)"/>
<path d="M96.7914 97.7103L96.4655 97.6055L96.1279 97.7103C95.9649 97.7685 95.8485 97.9315 95.8019 98.0945C95.7437 98.2575 95.7437 98.4904 95.8019 98.6534C96.4189 100.202 97.4783 102.88 98.4795 105.838C95.9649 107.177 93.0778 107.782 90.2373 107.619C92.5772 110.239 98.5959 117.539 103.45 113.581C108.293 109.622 100.272 99.3753 96.8147 97.7103H96.7914Z" fill="url(#paint5_linear_15044_55923)"/>
<path d="M90.4943 99.9359L90.3314 99.6564L90.0403 99.4352C89.8774 99.3653 89.6562 99.3653 89.4932 99.4352C89.3302 99.4934 89.1556 99.5982 89.0973 99.7612C88.2592 101.205 86.7574 103.72 85.1393 106.34C82.4617 105.222 80.2266 103.336 78.6084 100.937C77.9914 104.454 76.0473 113.699 82.1241 114.98C87.258 115.981 91.2743 103.674 90.4943 99.9359Z" fill="url(#paint6_linear_15044_55923)"/>
<path d="M84.7548 96.4324C84.8595 96.3276 84.9177 96.2111 84.9177 96.1063C84.9876 96.0015 84.9876 95.8851 84.9177 95.7803C84.8595 95.6057 84.7548 95.4427 84.6383 95.3262C84.4754 95.2214 84.2542 95.1632 84.0795 95.2214C82.3566 95.5009 79.5045 95.9433 76.501 96.281C75.721 93.4981 75.721 90.5407 76.6058 87.7578C73.4277 89.4811 64.9993 93.7776 67.7932 99.2851C70.1797 103.908 82.2868 99.3899 84.7431 96.444L84.7548 96.4324Z" fill="url(#paint7_linear_15044_55923)"/>
<path d="M83.9608 89.7351C84.0655 89.7933 84.2518 89.7351 84.3566 89.6769C84.4613 89.6187 84.5196 89.5139 84.5778 89.3974C84.6825 89.2344 84.7407 89.0714 84.7407 88.8851C84.6825 88.7221 84.5778 88.5591 84.4613 88.3844C83.239 87.2666 81.1086 85.3221 79.0015 83.1448C80.6779 80.8044 83.0061 78.9764 85.6837 77.9634C82.4008 76.5079 73.7629 72.5607 71.1901 78.2428C69.0598 83.0283 80.1074 89.6653 83.9491 89.7235L83.9608 89.7351Z" fill="url(#paint8_linear_15044_55923)"/>
<path d="M89.3891 85.2872C89.5521 85.2872 89.7151 85.1708 89.8315 85.0543C89.9363 84.8913 90.0527 84.7283 90.1109 84.5537C90.2274 82.877 90.4485 79.9777 90.7861 76.927C93.6965 76.8222 96.537 77.4743 99.0399 78.988C98.0387 75.5298 95.8035 66.4011 89.8315 67.8449C84.6977 69.1374 86.374 81.9455 88.7721 85.0078C88.9351 85.1708 89.1563 85.2989 89.3891 85.2989V85.2872Z" fill="url(#paint9_linear_15044_55923)"/>
<defs>
<linearGradient id="paint0_linear_15044_55923" x1="67.2832" y1="106.842" x2="164" y2="106.842" gradientUnits="userSpaceOnUse">
<stop stop-color="#FFF0ED"/>
<stop offset="1" stop-color="#EDECFC"/>
</linearGradient>
<linearGradient id="paint1_linear_15044_55923" x1="55.3848" y1="94.5215" x2="152.102" y2="94.5215" gradientUnits="userSpaceOnUse">
<stop stop-color="#FFF0ED"/>
<stop offset="1" stop-color="#EDECFC"/>
</linearGradient>
<linearGradient id="paint2_linear_15044_55923" x1="43" y1="83.5762" x2="139.717" y2="83.5762" gradientUnits="userSpaceOnUse">
<stop stop-color="#FFF0ED"/>
<stop offset="1" stop-color="#EDECFC"/>
</linearGradient>
<linearGradient id="paint3_linear_15044_55923" x1="95.3057" y1="81.1737" x2="111.321" y2="81.1737" gradientUnits="userSpaceOnUse">
<stop stop-color="#FFF0ED"/>
<stop offset="1" stop-color="#EDECFC"/>
</linearGradient>
<linearGradient id="paint4_linear_15044_55923" x1="98.5146" y1="95.6759" x2="115.467" y2="95.6759" gradientUnits="userSpaceOnUse">
<stop stop-color="#FFF0ED"/>
<stop offset="1" stop-color="#EDECFC"/>
</linearGradient>
<linearGradient id="paint5_linear_15044_55923" x1="90.2373" y1="104.79" x2="104.964" y2="104.79" gradientUnits="userSpaceOnUse">
<stop stop-color="#FFF0ED"/>
<stop offset="1" stop-color="#EDECFC"/>
</linearGradient>
<linearGradient id="paint6_linear_15044_55923" x1="77.8193" y1="105.949" x2="90.5915" y2="105.949" gradientUnits="userSpaceOnUse">
<stop stop-color="#FFF0ED"/>
<stop offset="1" stop-color="#EDECFC"/>
</linearGradient>
<linearGradient id="paint7_linear_15044_55923" x1="67.2344" y1="93.4247" x2="84.9701" y2="93.4247" gradientUnits="userSpaceOnUse">
<stop stop-color="#FFF0ED"/>
<stop offset="1" stop-color="#EDECFC"/>
</linearGradient>
<linearGradient id="paint8_linear_15044_55923" x1="70.9199" y1="81.3473" x2="85.6837" y2="81.3473" gradientUnits="userSpaceOnUse">
<stop stop-color="#FFF0ED"/>
<stop offset="1" stop-color="#EDECFC"/>
</linearGradient>
<linearGradient id="paint9_linear_15044_55923" x1="86.4727" y1="75.0769" x2="99.0399" y2="75.0769" gradientUnits="userSpaceOnUse">
<stop stop-color="#FFF0ED"/>
<stop offset="1" stop-color="#EDECFC"/>
</linearGradient>
</defs>
</svg>
