<svg width="206" height="206" viewBox="0 0 206 206" fill="none" xmlns="http://www.w3.org/2000/svg">
<path opacity="0.3" d="M157.041 66.2656H74.2467C70.402 66.2656 67.2852 69.3831 67.2852 73.2286V156.039C67.2852 159.884 70.402 163.002 74.2467 163.002H157.041C160.885 163.002 164.002 159.884 164.002 156.039V73.2286C164.002 69.3831 160.885 66.2656 157.041 66.2656Z" fill="#8E87FF" stroke="#29343F" stroke-linecap="round" stroke-linejoin="round"/>
<path d="M145.138 53.9453H62.3444C58.4996 53.9453 55.3828 57.0627 55.3828 60.9083V143.718C55.3828 147.564 58.4996 150.681 62.3444 150.681H145.138C148.983 150.681 152.1 147.564 152.1 143.718V60.9083C152.1 57.0627 148.983 53.9453 145.138 53.9453Z" fill="#8E87FF" stroke="url(#paint0_linear_15069_72365)" stroke-linecap="round" stroke-linejoin="round"/>
<path d="M132.755 43H49.9615C46.1168 43 43 46.1174 43 49.9629V132.773C43 136.619 46.1168 139.736 49.9615 139.736H132.755C136.6 139.736 139.717 136.619 139.717 132.773V49.9629C139.717 46.1174 136.6 43 132.755 43Z" fill="#EBEDEF" stroke="#29343F" stroke-linecap="round" stroke-linejoin="round"/>
<path d="M95.523 86.3409C95.6277 86.5039 95.8489 86.5621 96.0235 86.5621C96.1865 86.6204 96.4193 86.5621 96.5358 86.4574C97.9211 85.5142 100.273 83.8375 102.939 82.2191C104.836 84.3964 106.07 87.0628 106.559 89.9039C108.573 87.0046 114.312 79.4828 109.353 75.6986C104.382 71.9144 96.2447 81.9396 95.3483 85.6772C95.2901 85.782 95.2901 85.8985 95.3483 86.0033C95.4182 86.1081 95.4648 86.2361 95.523 86.3409Z" fill="#29343F"/>
<path d="M98.9696 91.3038L98.6786 91.5832C98.6204 91.688 98.5738 91.8045 98.5156 91.9209C98.5156 92.0839 98.5156 92.2469 98.6204 92.4216C98.7252 92.5846 98.9114 92.701 99.0744 92.7476C100.693 93.2599 103.533 94.0866 106.374 95.088C105.873 97.9291 104.592 100.549 102.637 102.668C106.152 102.447 115.629 102.284 115.466 96.0894C115.303 90.7915 102.474 89.6853 98.958 91.3038H98.9696Z" fill="#29343F"/>
<path d="M96.7885 97.7064L96.4626 97.6016L96.1249 97.7064C95.962 97.7646 95.8455 97.9276 95.799 98.0906C95.7408 98.2536 95.7408 98.4865 95.799 98.6495C96.416 100.198 97.4754 102.876 98.4765 105.834C95.962 107.173 93.0749 107.778 90.2344 107.615C92.5743 110.235 98.5929 117.536 103.447 113.577C108.29 109.618 100.269 99.3714 96.8118 97.7064H96.7885Z" fill="#29343F"/>
<path d="M90.4953 99.9281L90.3323 99.6486L90.0413 99.4274C89.8783 99.3575 89.6571 99.3575 89.4942 99.4274C89.3312 99.4856 89.1565 99.5904 89.0983 99.7534C88.2601 101.197 86.7584 103.712 85.1402 106.332C82.4627 105.214 80.2276 103.328 78.6094 100.929C77.9924 104.446 76.0483 113.691 82.1251 114.972C87.259 115.973 91.2753 103.666 90.4953 99.9281Z" fill="#29343F"/>
<path d="M84.7548 96.4246C84.8595 96.3198 84.9177 96.2033 84.9177 96.0985C84.9876 95.9937 84.9876 95.8773 84.9177 95.7725C84.8595 95.5979 84.7548 95.4349 84.6383 95.3184C84.4754 95.2136 84.2542 95.1554 84.0795 95.2136C82.3566 95.493 79.5045 95.9355 76.501 96.2732C75.721 93.4903 75.721 90.5329 76.6058 87.75C73.4277 89.4733 64.9993 93.7698 67.7932 99.2773C70.1797 103.9 82.2868 99.3821 84.7431 96.4362L84.7548 96.4246Z" fill="#29343F"/>
<path d="M83.9588 89.7312C84.0636 89.7894 84.2498 89.7312 84.3546 89.673C84.4594 89.6148 84.5176 89.51 84.5758 89.3935C84.6806 89.2305 84.7388 89.0675 84.7388 88.8812C84.6806 88.7182 84.5758 88.5552 84.4594 88.3805C83.237 87.2627 81.1067 85.3182 78.9996 83.1409C80.6759 80.8005 83.0042 78.9724 85.6817 77.9594C82.3988 76.504 73.7609 72.5568 71.1882 78.2389C69.0578 83.0244 80.1055 89.6614 83.9472 89.7196L83.9588 89.7312Z" fill="#29343F"/>
<path d="M89.3891 85.2833C89.5521 85.2833 89.7151 85.1669 89.8315 85.0504C89.9363 84.8874 90.0527 84.7244 90.1109 84.5498C90.2274 82.8731 90.4485 79.9738 90.7861 76.9231C93.6965 76.8183 96.537 77.4704 99.0399 78.9841C98.0387 75.5259 95.8035 66.3972 89.8315 67.841C84.6977 69.1335 86.374 81.9416 88.7721 85.0039C88.9351 85.1669 89.1563 85.2949 89.3891 85.2949V85.2833Z" fill="#29343F"/>
<defs>
<linearGradient id="paint0_linear_15069_72365" x1="56.6729" y1="157.706" x2="169.7" y2="140.822" gradientUnits="userSpaceOnUse">
<stop stop-color="#E6CFCF"/>
<stop offset="1" stop-color="#CDE0EC"/>
</linearGradient>
</defs>
</svg>
