<svg width="206" height="206" viewBox="0 0 206 206" fill="none" xmlns="http://www.w3.org/2000/svg">
<path d="M149.058 22.3164H48.3879C43.8492 22.3164 40.1699 26.0058 40.1699 30.557V167.889C40.1699 172.44 43.8492 176.129 48.3879 176.129H149.058C153.597 176.129 157.276 172.44 157.276 167.889V30.557C157.276 26.0058 153.597 22.3164 149.058 22.3164Z" fill="#8E87FF" stroke="url(#paint0_linear_15044_55903)" stroke-linecap="round" stroke-linejoin="round"/>
<path d="M157.611 29.8711H56.9416C52.403 29.8711 48.7236 33.5605 48.7236 38.1117V175.443C48.7236 179.994 52.403 183.684 56.9416 183.684H157.611C162.15 183.684 165.83 179.994 165.83 175.443V38.1117C165.83 33.5605 162.15 29.8711 157.611 29.8711Z" fill="#161B22" stroke="url(#paint1_linear_15044_55903)" stroke-linecap="round" stroke-linejoin="round"/>
<path d="M109.035 53.6748C109.082 53.733 109.163 53.7679 109.233 53.7796C109.302 53.7796 109.384 53.7796 109.453 53.7214C110.034 53.3024 111.032 52.5924 112.123 51.9057C112.924 52.8368 113.458 53.9774 113.643 55.1996C114.502 53.9542 116.905 50.7301 114.839 49.1239C113.063 47.7737 109.337 51.8009 108.966 53.3955C108.954 53.442 108.954 53.5002 108.966 53.5468C108.977 53.5934 109.001 53.6399 109.035 53.6748Z" fill="url(#paint2_linear_15044_55903)"/>
<path d="M110.485 55.8015C110.427 55.8364 110.38 55.8714 110.345 55.9296C110.322 55.9877 110.299 56.046 110.299 56.1158C110.299 56.174 110.322 56.2438 110.368 56.2904C110.415 56.3369 110.461 56.3835 110.519 56.3951C111.216 56.6046 112.365 56.9655 113.584 57.3961C113.375 58.6182 112.829 59.7589 112.005 60.6667C113.502 60.562 117.472 60.4805 117.426 57.8268C117.344 55.5804 111.947 55.1032 110.485 55.7899V55.8015Z" fill="url(#paint3_linear_15044_55903)"/>
<path d="M109.569 58.5388C109.569 58.5388 109.476 58.5039 109.43 58.5039C109.383 58.5039 109.337 58.5155 109.291 58.5388C109.221 58.5737 109.163 58.6436 109.14 58.7134C109.116 58.7832 109.116 58.8647 109.14 58.9462C109.418 59.6213 109.871 60.7852 110.277 62.019C108.478 63.0083 106.795 62.7988 106.795 62.7988C107.793 63.9278 110.324 67.0471 112.332 65.3594C114.003 63.8929 111.02 59.2837 109.569 58.5505V58.5388Z" fill="url(#paint4_linear_15044_55903)"/>
<path d="M106.922 59.4935C106.922 59.4935 106.887 59.4004 106.852 59.3655C106.829 59.3306 106.782 59.2956 106.736 59.284C106.666 59.2491 106.585 59.2491 106.515 59.284C106.446 59.3189 106.388 59.3655 106.341 59.4353C105.993 60.0638 105.378 61.1463 104.693 62.252C103.567 61.7748 102.615 60.9717 101.93 59.9474C101.687 61.4489 100.874 65.4179 103.428 65.965C105.598 66.3956 107.258 61.1346 106.922 59.5168V59.4935Z" fill="url(#paint5_linear_15044_55903)"/>
<path d="M104.531 57.9785C104.531 57.9785 104.577 57.897 104.589 57.8388C104.6 57.7922 104.589 57.7457 104.589 57.6875C104.577 57.606 104.531 57.5362 104.461 57.5013C104.403 57.4547 104.322 57.4431 104.241 57.4547C103.533 57.5711 102.337 57.7573 101.06 57.897C100.735 56.6981 100.747 55.4411 101.107 54.2539C99.8066 54.9872 96.2548 56.8145 97.4271 59.1889C98.4486 61.1909 103.521 59.2472 104.554 57.9785H104.531Z" fill="url(#paint6_linear_15044_55903)"/>
<path d="M104.209 55.1156C104.209 55.1156 104.302 55.1156 104.348 55.0807C104.394 55.0574 104.429 55.0225 104.453 54.9876C104.499 54.9294 104.522 54.8479 104.511 54.7664C104.511 54.6849 104.464 54.6151 104.418 54.5569C103.872 54.0681 102.99 53.2184 102.096 52.2873C102.804 51.2863 103.779 50.5065 104.917 50.0526C103.536 49.4822 99.9257 47.7713 98.8346 50.1806C97.9409 52.2407 102.595 55.0807 104.209 55.104V55.1156Z" fill="url(#paint7_linear_15044_55903)"/>
<path d="M106.446 53.2076C106.527 53.2076 106.609 53.1726 106.655 53.1144C106.713 53.0563 106.748 52.9864 106.76 52.9049C106.806 52.1833 106.899 50.9379 107.05 49.6459C108.257 49.5878 109.464 49.8787 110.52 50.4956C110.114 49.0407 109.174 45.095 106.644 45.7235C104.508 46.2822 105.216 51.7643 106.202 53.0795C106.226 53.1144 106.272 53.1494 106.307 53.1726C106.353 53.1959 106.4 53.1959 106.446 53.1959V53.2076Z" fill="url(#paint8_linear_15044_55903)"/>
<path d="M58.3125 82.75H156.243" stroke="url(#paint9_linear_15044_55903)" stroke-linecap="round" stroke-linejoin="round"/>
<path d="M58.3125 95.1094H156.243" stroke="url(#paint10_linear_15044_55903)" stroke-linecap="round" stroke-linejoin="round"/>
<path d="M58.3125 107.469H156.243" stroke="url(#paint11_linear_15044_55903)" stroke-linecap="round" stroke-linejoin="round"/>
<path d="M58.3125 119.828H156.243" stroke="url(#paint12_linear_15044_55903)" stroke-linecap="round" stroke-linejoin="round"/>
<path d="M58.8008 132.191H112.484" stroke="url(#paint13_linear_15044_55903)" stroke-linecap="round" stroke-linejoin="round"/>
<path d="M113.956 158.788C113.585 158.788 113.283 159.103 113.283 159.487C113.283 159.871 113.597 160.174 113.98 160.162V158.788H113.956ZM118.332 158.719L118.611 159.347L118.332 158.719ZM120.375 157.217L120.874 157.683L120.375 157.217ZM124.136 152.678L124.693 153.074L124.136 152.678ZM125.982 148.441L126.655 148.523L125.982 148.441ZM121.397 147.044L121.861 147.545L121.397 147.044ZM120.352 149.081L119.69 148.918L120.352 149.081ZM121.246 155.611L121.873 155.343L121.246 155.611ZM123.474 158.591L123.811 157.997L123.474 158.591ZM128.094 159.533L128.129 160.22L128.094 159.533ZM134.118 155.902L133.596 155.46L134.118 155.902ZM135.546 154.435L135 154.843L135.546 154.435ZM137.937 158.032L137.496 158.556L137.937 158.032ZM144.367 157.31L144.704 156.717L144.367 157.31ZM146.55 158.335L146.341 158.986L146.55 158.335ZM153.247 158.102C153.584 157.939 153.734 157.531 153.584 157.194C153.421 156.845 153.015 156.705 152.678 156.856L153.259 158.102H153.247ZM125.587 147.126L125.03 147.533L125.587 147.126ZM113.956 160.174C115.523 160.162 117.044 160.057 118.611 159.347L118.054 158.09C116.754 158.672 115.477 158.777 113.945 158.788V160.162L113.956 160.174ZM118.623 159.347C119.516 158.94 120.236 158.393 120.886 157.694L119.888 156.752C119.342 157.345 118.773 157.776 118.054 158.09L118.611 159.347H118.623ZM120.886 157.694C122.232 156.251 123.544 154.715 124.705 153.085L123.579 152.294C122.476 153.865 121.199 155.343 119.876 156.763L120.874 157.706L120.886 157.694ZM124.705 153.085C125.633 151.758 126.457 150.304 126.666 148.534L125.308 148.371C125.134 149.803 124.473 151.025 123.579 152.282L124.705 153.074V153.085ZM126.666 148.534C126.736 147.894 126.516 147.231 126.156 146.73L125.041 147.533C125.25 147.813 125.332 148.15 125.308 148.371L126.666 148.534ZM122.755 145.52C122.348 145.566 121.977 145.764 121.698 145.95C121.408 146.148 121.141 146.369 120.944 146.556L121.884 147.557C122.047 147.405 122.244 147.231 122.453 147.103C122.674 146.963 122.836 146.893 122.929 146.882L122.766 145.52H122.755ZM120.932 146.556C120.259 147.196 119.876 148.174 119.702 148.93L121.025 149.244C121.188 148.593 121.478 147.917 121.873 147.557L120.932 146.556ZM119.702 148.93C119.145 151.293 119.772 153.853 120.631 155.89L121.896 155.355C121.083 153.423 120.573 151.188 121.037 149.244L119.714 148.93H119.702ZM120.631 155.89C121.118 157.054 121.826 158.439 123.161 159.196L123.834 158.009C122.94 157.497 122.372 156.507 121.884 155.367L120.619 155.902L120.631 155.89ZM123.161 159.196C124.74 160.104 126.457 160.325 128.152 160.22L128.082 158.847C126.55 158.928 125.134 158.73 123.846 157.997L123.173 159.184L123.161 159.196ZM128.152 160.22C130.88 160.069 133.108 158.218 134.664 156.344L133.619 155.46C132.145 157.229 130.23 158.719 128.082 158.835L128.152 160.208V160.22ZM134.664 156.344C134.664 156.344 134.675 156.321 134.687 156.321V156.309C134.687 156.309 134.687 156.309 134.699 156.298C134.699 156.286 134.722 156.263 134.745 156.239C134.78 156.193 134.826 156.123 134.884 156.053C135 155.902 135.151 155.704 135.302 155.518C135.465 155.32 135.604 155.169 135.708 155.087C135.766 155.041 135.755 155.052 135.697 155.087C135.674 155.099 135.569 155.134 135.43 155.122C135.267 155.099 135.116 155.006 135.024 154.878L136.126 154.063C135.999 153.888 135.813 153.784 135.616 153.76C135.441 153.737 135.291 153.784 135.209 153.819C135.047 153.888 134.908 153.993 134.826 154.063C134.641 154.226 134.432 154.459 134.269 154.657C134.095 154.866 133.933 155.087 133.805 155.25C133.747 155.332 133.7 155.401 133.666 155.448C133.642 155.471 133.631 155.495 133.619 155.506C133.596 155.541 133.619 155.506 133.631 155.495L134.675 156.379L134.664 156.344ZM135.024 154.843C135.407 155.378 135.697 155.96 136.068 156.647C136.428 157.299 136.858 157.997 137.508 158.556L138.401 157.508C137.937 157.112 137.612 156.6 137.264 155.972C136.939 155.378 136.579 154.645 136.115 154.016L135.012 154.831L135.024 154.843ZM137.519 158.556C138.111 159.056 138.75 159.242 139.4 159.219C140.015 159.196 140.595 158.986 141.117 158.754C141.373 158.637 141.64 158.509 141.895 158.393C142.15 158.276 142.383 158.16 142.626 158.055C143.102 157.857 143.497 157.741 143.857 157.741V156.368C143.23 156.368 142.626 156.565 142.092 156.787C141.825 156.903 141.559 157.031 141.303 157.147C141.048 157.275 140.816 157.38 140.572 157.485C140.096 157.694 139.69 157.822 139.341 157.834C139.028 157.846 138.726 157.764 138.413 157.497L137.519 158.544V158.556ZM143.845 157.741C143.845 157.741 143.799 157.741 143.787 157.741H143.81C143.81 157.741 143.868 157.788 143.915 157.822C143.95 157.846 144.008 157.881 144.066 157.916L144.739 156.717C144.739 156.717 144.692 156.693 144.646 156.659C144.6 156.635 144.542 156.589 144.472 156.554C144.356 156.484 144.124 156.368 143.845 156.368V157.741ZM144.066 157.904C144.774 158.3 145.528 158.719 146.376 158.986L146.782 157.671C146.085 157.45 145.435 157.101 144.727 156.705L144.054 157.904H144.066ZM146.376 158.986C147.176 159.242 148.058 159.382 148.906 159.382V158.009C148.209 158.009 147.467 157.892 146.793 157.671L146.387 158.986H146.376ZM148.906 159.382C150.6 159.382 151.982 158.684 153.282 158.09L152.701 156.845C151.32 157.485 150.241 158.02 148.906 158.02V159.394V159.382ZM126.167 146.707C125.366 145.601 123.857 145.368 122.766 145.496L122.929 146.858C123.823 146.754 124.682 146.998 125.053 147.51L126.167 146.707Z" fill="url(#paint14_linear_15044_55903)"/>
<defs>
<linearGradient id="paint0_linear_15044_55903" x1="40.1699" y1="86.8337" x2="157.276" y2="86.8337" gradientUnits="userSpaceOnUse">
<stop stop-color="#FFF0ED"/>
<stop offset="1" stop-color="#EDECFC"/>
</linearGradient>
<linearGradient id="paint1_linear_15044_55903" x1="48.7236" y1="94.3884" x2="165.83" y2="94.3884" gradientUnits="userSpaceOnUse">
<stop stop-color="#FFF0ED"/>
<stop offset="1" stop-color="#EDECFC"/>
</linearGradient>
<linearGradient id="paint2_linear_15044_55903" x1="108.957" y1="51.5143" x2="115.656" y2="51.5143" gradientUnits="userSpaceOnUse">
<stop stop-color="#FFF0ED"/>
<stop offset="1" stop-color="#EDECFC"/>
</linearGradient>
<linearGradient id="paint3_linear_15044_55903" x1="110.299" y1="57.6672" x2="117.426" y2="57.6672" gradientUnits="userSpaceOnUse">
<stop stop-color="#FFF0ED"/>
<stop offset="1" stop-color="#EDECFC"/>
</linearGradient>
<linearGradient id="paint4_linear_15044_55903" x1="106.795" y1="61.5852" x2="112.826" y2="61.5852" gradientUnits="userSpaceOnUse">
<stop stop-color="#FFF0ED"/>
<stop offset="1" stop-color="#EDECFC"/>
</linearGradient>
<linearGradient id="paint5_linear_15044_55903" x1="101.613" y1="62.0816" x2="106.965" y2="62.0816" gradientUnits="userSpaceOnUse">
<stop stop-color="#FFF0ED"/>
<stop offset="1" stop-color="#EDECFC"/>
</linearGradient>
<linearGradient id="paint6_linear_15044_55903" x1="97.1934" y1="56.6855" x2="104.594" y2="56.6855" gradientUnits="userSpaceOnUse">
<stop stop-color="#FFF0ED"/>
<stop offset="1" stop-color="#EDECFC"/>
</linearGradient>
<linearGradient id="paint7_linear_15044_55903" x1="98.7217" y1="51.5244" x2="104.917" y2="51.5244" gradientUnits="userSpaceOnUse">
<stop stop-color="#FFF0ED"/>
<stop offset="1" stop-color="#EDECFC"/>
</linearGradient>
<linearGradient id="paint8_linear_15044_55903" x1="105.25" y1="48.8237" x2="110.52" y2="48.8237" gradientUnits="userSpaceOnUse">
<stop stop-color="#FFF0ED"/>
<stop offset="1" stop-color="#EDECFC"/>
</linearGradient>
<linearGradient id="paint9_linear_15044_55903" x1="58.3125" y1="83.1695" x2="156.243" y2="83.1695" gradientUnits="userSpaceOnUse">
<stop stop-color="#FFF0ED"/>
<stop offset="1" stop-color="#EDECFC"/>
</linearGradient>
<linearGradient id="paint10_linear_15044_55903" x1="58.3125" y1="95.5288" x2="156.243" y2="95.5289" gradientUnits="userSpaceOnUse">
<stop stop-color="#FFF0ED"/>
<stop offset="1" stop-color="#EDECFC"/>
</linearGradient>
<linearGradient id="paint11_linear_15044_55903" x1="58.3125" y1="107.888" x2="156.243" y2="107.888" gradientUnits="userSpaceOnUse">
<stop stop-color="#FFF0ED"/>
<stop offset="1" stop-color="#EDECFC"/>
</linearGradient>
<linearGradient id="paint12_linear_15044_55903" x1="58.3125" y1="120.248" x2="156.243" y2="120.248" gradientUnits="userSpaceOnUse">
<stop stop-color="#FFF0ED"/>
<stop offset="1" stop-color="#EDECFC"/>
</linearGradient>
<linearGradient id="paint13_linear_15044_55903" x1="58.8008" y1="132.611" x2="112.484" y2="132.611" gradientUnits="userSpaceOnUse">
<stop stop-color="#FFF0ED"/>
<stop offset="1" stop-color="#EDECFC"/>
</linearGradient>
<linearGradient id="paint14_linear_15044_55903" x1="113.283" y1="151.664" x2="153.642" y2="151.664" gradientUnits="userSpaceOnUse">
<stop stop-color="#FFF0ED"/>
<stop offset="1" stop-color="#EDECFC"/>
</linearGradient>
</defs>
</svg>
