<svg width="206" height="206" viewBox="0 0 206 206" fill="none" xmlns="http://www.w3.org/2000/svg">
<path d="M149.06 22.3125H48.3899C43.8512 22.3125 40.1719 26.0019 40.1719 30.5531V167.885C40.1719 172.436 43.8512 176.125 48.3899 176.125H149.06C153.598 176.125 157.278 172.436 157.278 167.885V30.5531C157.278 26.0019 153.598 22.3125 149.06 22.3125Z" fill="#8E87FF" stroke="#29343F" stroke-linecap="round" stroke-linejoin="round"/>
<path d="M157.614 29.8672H56.9445C52.4059 29.8672 48.7266 33.5566 48.7266 38.1078V175.439C48.7266 179.991 52.4059 183.68 56.9445 183.68H157.614C162.153 183.68 165.832 179.991 165.832 175.439V38.1078C165.832 33.5566 162.153 29.8672 157.614 29.8672Z" fill="#EBEDEF" stroke="#29343F" stroke-linecap="round" stroke-linejoin="round"/>
<path d="M109.039 53.667C109.086 53.7252 109.167 53.7601 109.237 53.7718C109.306 53.7718 109.387 53.7718 109.457 53.7136C110.037 53.2945 111.036 52.5846 112.127 51.8978C112.928 52.829 113.462 53.9696 113.647 55.1918C114.506 53.9464 116.909 50.7223 114.843 49.1161C113.067 47.7659 109.341 51.7931 108.97 53.3877C108.958 53.4342 108.958 53.4924 108.97 53.539C108.981 53.5855 109.004 53.6321 109.039 53.667Z" fill="#29343F"/>
<path d="M110.487 55.8015C110.429 55.8364 110.382 55.8714 110.347 55.9296C110.324 55.9877 110.301 56.046 110.301 56.1158C110.301 56.174 110.324 56.2438 110.37 56.2904C110.417 56.3369 110.463 56.3835 110.521 56.3951C111.218 56.6046 112.367 56.9655 113.586 57.3961C113.377 58.6182 112.831 59.7589 112.007 60.6667C113.504 60.562 117.474 60.4805 117.428 57.8268C117.346 55.5804 111.949 55.1032 110.487 55.7899V55.8015Z" fill="#29343F"/>
<path d="M109.571 58.5349C109.571 58.5349 109.478 58.5 109.432 58.5C109.385 58.5 109.339 58.5116 109.292 58.5349C109.223 58.5698 109.165 58.6397 109.142 58.7095C109.118 58.7793 109.118 58.8608 109.142 58.9423C109.42 59.6174 109.873 60.7813 110.279 62.0151C108.48 63.0044 106.797 62.7949 106.797 62.7949C107.795 63.9239 110.325 67.0432 112.334 65.3555C114.005 63.889 111.022 59.2798 109.571 58.5465V58.5349Z" fill="#29343F"/>
<path d="M106.926 59.4857C106.926 59.4857 106.891 59.3926 106.856 59.3577C106.833 59.3228 106.786 59.2878 106.74 59.2762C106.67 59.2413 106.589 59.2413 106.519 59.2762C106.45 59.3111 106.392 59.3577 106.345 59.4275C105.997 60.056 105.382 61.1385 104.697 62.2442C103.571 61.767 102.619 60.9639 101.934 59.9396C101.691 61.4411 100.878 65.4101 103.432 65.9572C105.602 66.3878 107.262 61.1268 106.926 59.509V59.4857Z" fill="#29343F"/>
<path d="M104.533 57.9746C104.533 57.9746 104.579 57.8931 104.591 57.8349C104.602 57.7883 104.591 57.7418 104.591 57.6836C104.579 57.6021 104.533 57.5323 104.463 57.4973C104.405 57.4508 104.324 57.4392 104.243 57.4508C103.535 57.5672 102.339 57.7534 101.062 57.8931C100.737 56.6942 100.749 55.4372 101.109 54.25C99.8086 54.9833 96.2568 56.8106 97.4291 59.185C98.4505 61.187 103.523 59.2432 104.556 57.9746H104.533Z" fill="#29343F"/>
<path d="M104.214 55.1078C104.214 55.1078 104.307 55.1078 104.353 55.0729C104.399 55.0496 104.434 55.0147 104.457 54.9798C104.504 54.9216 104.527 54.8401 104.515 54.7586C104.515 54.6771 104.469 54.6073 104.423 54.5491C103.877 54.0603 102.995 53.2106 102.101 52.2795C102.809 51.2785 103.784 50.4987 104.922 50.0447C103.54 49.4744 99.9306 47.7635 98.8395 50.1728C97.9458 52.2329 102.6 55.0729 104.214 55.0962V55.1078Z" fill="#29343F"/>
<path d="M106.446 53.2076C106.527 53.2076 106.609 53.1726 106.655 53.1144C106.713 53.0563 106.748 52.9864 106.76 52.9049C106.806 52.1833 106.899 50.9379 107.05 49.6459C108.257 49.5878 109.464 49.8787 110.52 50.4956C110.114 49.0407 109.174 45.095 106.644 45.7235C104.508 46.2822 105.216 51.7643 106.202 53.0795C106.226 53.1144 106.272 53.1494 106.307 53.1726C106.353 53.1959 106.4 53.1959 106.446 53.1959V53.2076Z" fill="#29343F"/>
<path d="M58.3125 82.75H156.243" stroke="#29343F" stroke-linecap="round" stroke-linejoin="round"/>
<path d="M58.3125 95.1094H156.243" stroke="#29343F" stroke-linecap="round" stroke-linejoin="round"/>
<path d="M58.3125 107.469H156.243" stroke="#29343F" stroke-linecap="round" stroke-linejoin="round"/>
<path d="M58.3125 119.828H156.243" stroke="#29343F" stroke-linecap="round" stroke-linejoin="round"/>
<path d="M58.8047 132.188H112.488" stroke="#29343F" stroke-linecap="round" stroke-linejoin="round"/>
<path d="M113.958 158.785C113.587 158.785 113.285 159.099 113.285 159.483C113.285 159.867 113.599 160.17 113.982 160.158V158.785H113.958ZM118.334 158.715L118.613 159.343L118.334 158.715ZM120.377 157.213L120.876 157.679L120.377 157.213ZM124.138 152.674L124.695 153.07L124.138 152.674ZM125.984 148.437L126.657 148.519L125.984 148.437ZM121.399 147.041L121.863 147.541L121.399 147.041ZM120.354 149.077L119.692 148.915L120.354 149.077ZM121.248 155.607L121.875 155.339L121.248 155.607ZM123.476 158.587L123.813 157.993L123.476 158.587ZM128.096 159.53L128.131 160.216L128.096 159.53ZM134.12 155.898L133.598 155.456L134.12 155.898ZM135.548 154.432L135.002 154.839L135.548 154.432ZM137.939 158.028L137.498 158.552L137.939 158.028ZM144.369 157.306L144.706 156.713L144.369 157.306ZM146.552 158.331L146.343 158.982L146.552 158.331ZM153.249 158.098C153.586 157.935 153.736 157.528 153.586 157.19C153.423 156.841 153.017 156.701 152.68 156.852L153.26 158.098H153.249ZM125.589 147.122L125.032 147.529L125.589 147.122ZM113.958 160.17C115.525 160.158 117.046 160.053 118.613 159.343L118.056 158.086C116.756 158.668 115.479 158.773 113.947 158.785V160.158L113.958 160.17ZM118.624 159.343C119.518 158.936 120.238 158.389 120.888 157.69L119.89 156.748C119.344 157.341 118.775 157.772 118.056 158.086L118.613 159.343H118.624ZM120.888 157.69C122.234 156.247 123.546 154.711 124.707 153.081L123.581 152.29C122.478 153.861 121.201 155.339 119.878 156.759L120.876 157.702L120.888 157.69ZM124.707 153.081C125.635 151.754 126.459 150.3 126.668 148.53L125.31 148.367C125.136 149.799 124.475 151.021 123.581 152.278L124.707 153.07V153.081ZM126.668 148.53C126.738 147.89 126.517 147.227 126.158 146.726L125.043 147.529C125.252 147.809 125.333 148.146 125.31 148.367L126.668 148.53ZM122.757 145.516C122.35 145.562 121.979 145.76 121.7 145.947C121.41 146.144 121.143 146.366 120.946 146.552L121.886 147.553C122.049 147.401 122.246 147.227 122.455 147.099C122.675 146.959 122.838 146.889 122.931 146.878L122.768 145.516H122.757ZM120.934 146.552C120.261 147.192 119.878 148.17 119.704 148.926L121.027 149.24C121.19 148.589 121.48 147.914 121.875 147.553L120.934 146.552ZM119.704 148.926C119.147 151.289 119.774 153.85 120.633 155.886L121.898 155.351C121.085 153.419 120.575 151.184 121.039 149.24L119.716 148.926H119.704ZM120.633 155.886C121.12 157.05 121.828 158.435 123.163 159.192L123.836 158.005C122.942 157.493 122.374 156.503 121.886 155.363L120.621 155.898L120.633 155.886ZM123.163 159.192C124.742 160.1 126.459 160.321 128.154 160.216L128.084 158.843C126.552 158.924 125.136 158.726 123.848 157.993L123.175 159.18L123.163 159.192ZM128.154 160.216C130.882 160.065 133.11 158.214 134.666 156.34L133.621 155.456C132.147 157.225 130.232 158.715 128.084 158.831L128.154 160.205V160.216ZM134.666 156.34C134.666 156.34 134.677 156.317 134.689 156.317V156.305C134.689 156.305 134.689 156.305 134.701 156.294C134.701 156.282 134.724 156.259 134.747 156.236C134.782 156.189 134.828 156.119 134.886 156.049C135.002 155.898 135.153 155.7 135.304 155.514C135.467 155.316 135.606 155.165 135.71 155.083C135.768 155.037 135.757 155.048 135.699 155.083C135.676 155.095 135.571 155.13 135.432 155.118C135.269 155.095 135.118 155.002 135.026 154.874L136.128 154.059C136.001 153.884 135.815 153.78 135.618 153.756C135.443 153.733 135.293 153.78 135.211 153.815C135.049 153.884 134.91 153.989 134.828 154.059C134.643 154.222 134.434 154.455 134.271 154.653C134.097 154.862 133.934 155.083 133.807 155.246C133.749 155.328 133.702 155.398 133.668 155.444C133.644 155.467 133.633 155.491 133.621 155.502C133.598 155.537 133.621 155.502 133.633 155.491L134.677 156.375L134.666 156.34ZM135.026 154.839C135.409 155.374 135.699 155.956 136.07 156.643C136.43 157.295 136.859 157.993 137.51 158.552L138.403 157.504C137.939 157.109 137.614 156.596 137.266 155.968C136.941 155.374 136.581 154.641 136.117 154.013L135.014 154.827L135.026 154.839ZM137.521 158.552C138.113 159.052 138.751 159.239 139.401 159.215C140.017 159.192 140.597 158.982 141.119 158.75C141.375 158.633 141.642 158.505 141.897 158.389C142.152 158.272 142.385 158.156 142.628 158.051C143.104 157.853 143.499 157.737 143.859 157.737V156.364C143.232 156.364 142.628 156.561 142.094 156.783C141.827 156.899 141.56 157.027 141.305 157.143C141.05 157.271 140.818 157.376 140.574 157.481C140.098 157.691 139.692 157.819 139.343 157.83C139.03 157.842 138.728 157.76 138.415 157.493L137.521 158.54V158.552ZM143.847 157.737C143.847 157.737 143.801 157.737 143.789 157.737H143.812C143.812 157.737 143.87 157.784 143.917 157.819C143.952 157.842 144.01 157.877 144.068 157.912L144.741 156.713C144.741 156.713 144.694 156.69 144.648 156.655C144.602 156.631 144.544 156.585 144.474 156.55C144.358 156.48 144.126 156.364 143.847 156.364V157.737ZM144.068 157.9C144.776 158.296 145.53 158.715 146.377 158.982L146.784 157.667C146.087 157.446 145.437 157.097 144.729 156.701L144.056 157.9H144.068ZM146.377 158.982C147.178 159.239 148.06 159.378 148.908 159.378V158.005C148.211 158.005 147.469 157.888 146.795 157.667L146.389 158.982H146.377ZM148.908 159.378C150.602 159.378 151.984 158.68 153.284 158.086L152.703 156.841C151.322 157.481 150.243 158.016 148.908 158.016V159.39V159.378ZM126.169 146.703C125.368 145.597 123.859 145.365 122.768 145.493L122.931 146.854C123.825 146.75 124.684 146.994 125.055 147.506L126.169 146.703Z" fill="#29343F"/>
</svg>
