<svg width="207" height="207" viewBox="0 0 207 207" fill="none" xmlns="http://www.w3.org/2000/svg">
<path d="M103.5 183C147.404 183 183 147.404 183 103.5C183 59.5963 147.404 24 103.5 24C59.5963 24 24 59.5963 24 103.5C24 147.404 59.5963 183 103.5 183Z" fill="#EBEDEF" stroke="#29343F"/>
<path d="M138.589 116.292C151.958 99.244 146.791 70.9942 129.813 57.6837C112.835 44.3732 90.0567 47.1032 76.6876 64.1632C63.3184 81.2115 65.0408 108.711 82.0305 122.022C99.0085 135.332 125.231 133.352 138.6 116.292H138.589Z" fill="#8E87FF" stroke="#29343F" stroke-linecap="round" stroke-linejoin="round"/>
<path d="M118.067 58.5088C126.128 64.836 127.686 76.2601 121.593 84.0285C115.501 91.7969 104.041 93.0154 95.9682 86.6882C87.9069 80.3611 86.3486 68.937 92.4414 61.1686C98.5343 53.4002 109.994 52.1816 118.067 58.5088Z" fill="#EBEDEF" stroke="#29343F" stroke-linecap="round" stroke-linejoin="round"/>
<path d="M101.973 100.144C102.359 98.0939 101.129 96.2543 99.3833 95.9262C97.6374 95.5981 95.833 96.8753 95.4464 98.9258C95.0597 100.976 96.29 102.816 98.0358 103.144C99.7817 103.472 101.586 102.195 101.973 100.144Z" fill="#EBEDEF" stroke="#29343F" stroke-linecap="round" stroke-linejoin="round"/>
<path d="M121.624 97.0497C120.64 95.2101 118.531 94.5305 116.961 95.3742C115.391 96.2178 114.781 98.3386 115.766 100.178C116.75 102.018 118.859 102.697 120.429 101.854C121.999 101.01 122.608 98.8893 121.624 97.0497Z" fill="#EBEDEF" stroke="#29343F" stroke-linecap="round" stroke-linejoin="round"/>
</svg>
