<svg width="206" height="206" viewBox="0 0 206 206" fill="none" xmlns="http://www.w3.org/2000/svg">
<path fill-rule="evenodd" clip-rule="evenodd" d="M177.003 44H28.9858C24.575 44 21 47.5762 21 51.9883V75.1057H184.989V51.9883C184.989 47.5762 181.414 44 177.003 44Z" fill="#8E87FF" stroke="url(#paint0_linear_15044_55938)" stroke-linecap="round" stroke-linejoin="round"/>
<path d="M148.064 132.1C148.122 132.181 148.227 132.204 148.296 132.204C148.378 132.228 148.482 132.204 148.54 132.146C149.202 131.693 150.328 130.892 151.604 130.114C152.51 131.159 153.102 132.437 153.334 133.795C154.297 132.413 157.048 128.802 154.669 126.991C152.289 125.18 148.401 129.987 147.96 131.763C147.937 131.821 147.937 131.868 147.96 131.926C147.995 131.984 148.018 132.042 148.041 132.088L148.064 132.1Z" fill="url(#paint1_linear_15044_55938)"/>
<path d="M149.714 134.475L149.574 134.603C149.574 134.603 149.516 134.707 149.493 134.765C149.493 134.846 149.493 134.928 149.551 134.997C149.609 135.079 149.691 135.125 149.772 135.16C150.549 135.404 151.907 135.799 153.266 136.286C153.033 137.645 152.407 138.899 151.478 139.909C153.161 139.804 157.7 139.723 157.618 136.762C157.537 134.231 151.397 133.697 149.714 134.463V134.475Z" fill="url(#paint2_linear_15044_55938)"/>
<path d="M148.668 137.539L148.505 137.48L148.343 137.539C148.262 137.562 148.215 137.643 148.18 137.724C148.157 137.806 148.157 137.91 148.18 137.991C148.471 138.734 148.981 140.012 149.457 141.428C148.25 142.067 146.869 142.357 145.511 142.287C146.625 143.541 149.515 147.036 151.837 145.144C154.158 143.251 150.316 138.34 148.656 137.55L148.668 137.539Z" fill="url(#paint3_linear_15044_55938)"/>
<path d="M145.663 138.606L145.582 138.478L145.443 138.374C145.361 138.339 145.257 138.339 145.176 138.374C145.094 138.397 145.013 138.455 144.99 138.536C144.584 139.221 143.876 140.429 143.098 141.683C141.821 141.149 140.742 140.243 139.976 139.094C139.685 140.777 138.745 145.201 141.659 145.816C144.119 146.292 146.035 140.406 145.663 138.618V138.606Z" fill="url(#paint4_linear_15044_55938)"/>
<path d="M142.912 136.918C142.912 136.918 142.993 136.814 142.993 136.756C143.028 136.698 143.028 136.651 142.993 136.593C142.97 136.512 142.912 136.431 142.865 136.373C142.784 136.314 142.679 136.291 142.598 136.314C141.774 136.442 140.416 136.663 138.977 136.825C138.605 135.49 138.605 134.074 139.035 132.738C137.514 133.563 133.475 135.618 134.821 138.265C135.97 140.483 141.762 138.323 142.935 136.907L142.912 136.918Z" fill="url(#paint5_linear_15044_55938)"/>
<path d="M142.529 133.717C142.529 133.717 142.668 133.717 142.715 133.693C142.761 133.67 142.796 133.612 142.819 133.566C142.877 133.484 142.9 133.403 142.9 133.322C142.877 133.241 142.819 133.159 142.773 133.09C142.192 132.556 141.171 131.627 140.161 130.582C140.962 129.467 142.076 128.585 143.365 128.109C141.798 127.412 137.654 125.519 136.424 128.236C135.402 130.535 140.695 133.705 142.529 133.728V133.717Z" fill="url(#paint6_linear_15044_55938)"/>
<path d="M145.127 131.592C145.208 131.592 145.289 131.534 145.336 131.476C145.394 131.395 145.44 131.314 145.463 131.244C145.522 130.443 145.626 129.061 145.788 127.587C147.181 127.529 148.539 127.854 149.747 128.574C149.271 126.913 148.191 122.547 145.336 123.232C142.875 123.848 143.676 129.978 144.825 131.453C144.906 131.534 145.011 131.592 145.115 131.592H145.127Z" fill="url(#paint7_linear_15044_55938)"/>
<path d="M36.5192 63.7461C38.8398 63.7461 40.721 61.8643 40.721 59.543C40.721 57.2216 38.8398 55.3398 36.5192 55.3398C34.1986 55.3398 32.3174 57.2216 32.3174 59.543C32.3174 61.8643 34.1986 63.7461 36.5192 63.7461Z" fill="#161B22" stroke="url(#paint8_linear_15044_55938)" stroke-miterlimit="10"/>
<path d="M53.3152 63.7461C55.6358 63.7461 57.517 61.8643 57.517 59.543C57.517 57.2216 55.6358 55.3398 53.3152 55.3398C50.9945 55.3398 49.1133 57.2216 49.1133 59.543C49.1133 61.8643 50.9945 63.7461 53.3152 63.7461Z" fill="#161B22" stroke="url(#paint9_linear_15044_55938)" stroke-miterlimit="10"/>
<path d="M70.1237 63.7461C72.4444 63.7461 74.3257 61.8643 74.3257 59.543C74.3257 57.2216 72.4444 55.3398 70.1237 55.3398C67.8031 55.3398 65.9219 57.2216 65.9219 59.543C65.9219 61.8643 67.8031 63.7461 70.1237 63.7461Z" fill="#161B22" stroke="url(#paint10_linear_15044_55938)" stroke-miterlimit="10"/>
<path d="M71.898 84.3008L81.2071 93.6128C83.0991 95.5053 83.0991 98.559 81.2071 100.452L71.5498 110.112" stroke="url(#paint11_linear_15044_55938)" stroke-linecap="round" stroke-linejoin="round"/>
<path d="M48.2437 110.1L38.9346 100.788C37.0426 98.8956 37.0426 95.8419 38.9346 93.9494L48.592 84.2891" stroke="url(#paint12_linear_15044_55938)" stroke-linecap="round" stroke-linejoin="round"/>
<path d="M157.235 121.598L166.544 130.91C168.436 132.802 168.436 135.856 166.544 137.748L156.887 147.409" stroke="url(#paint13_linear_15044_55938)" stroke-linecap="round" stroke-linejoin="round"/>
<path d="M133.58 147.409L124.271 138.097C122.379 136.204 122.379 133.151 124.271 131.258L133.928 121.598" stroke="url(#paint14_linear_15044_55938)" stroke-linecap="round" stroke-linejoin="round"/>
<path d="M37.5176 127.426H98.085" stroke="url(#paint15_linear_15044_55938)" stroke-linecap="round" stroke-linejoin="round"/>
<path d="M37.5176 141.566H106.895" stroke="url(#paint16_linear_15044_55938)" stroke-linecap="round" stroke-linejoin="round"/>
<path d="M108.056 85.0117H168.635" stroke="url(#paint17_linear_15044_55938)" stroke-linecap="round" stroke-linejoin="round"/>
<path d="M99.2568 97.7344H168.634" stroke="url(#paint18_linear_15044_55938)" stroke-linecap="round" stroke-linejoin="round"/>
<path fill-rule="evenodd" clip-rule="evenodd" d="M21.0107 155.012C21.0107 159.424 24.5858 163 28.9966 163H177.014C181.425 163 185 159.424 185 155.012V75.1055H21.0107V155.012Z" stroke="url(#paint19_linear_15044_55938)" stroke-linecap="round" stroke-linejoin="round"/>
<path d="M63.4112 86.082L57.5146 109.269" stroke="url(#paint20_linear_15044_55938)" stroke-linecap="round" stroke-linejoin="round"/>
<defs>
<linearGradient id="paint0_linear_15044_55938" x1="21" y1="57.0474" x2="184.989" y2="57.0474" gradientUnits="userSpaceOnUse">
<stop stop-color="#FFF0ED"/>
<stop offset="1" stop-color="#EDECFC"/>
</linearGradient>
<linearGradient id="paint1_linear_15044_55938" x1="147.942" y1="129.612" x2="155.613" y2="129.612" gradientUnits="userSpaceOnUse">
<stop stop-color="#FFF0ED"/>
<stop offset="1" stop-color="#EDECFC"/>
</linearGradient>
<linearGradient id="paint2_linear_15044_55938" x1="149.493" y1="136.56" x2="157.619" y2="136.56" gradientUnits="userSpaceOnUse">
<stop stop-color="#FFF0ED"/>
<stop offset="1" stop-color="#EDECFC"/>
</linearGradient>
<linearGradient id="paint3_linear_15044_55938" x1="145.511" y1="140.926" x2="152.563" y2="140.926" gradientUnits="userSpaceOnUse">
<stop stop-color="#FFF0ED"/>
<stop offset="1" stop-color="#EDECFC"/>
</linearGradient>
<linearGradient id="paint4_linear_15044_55938" x1="139.599" y1="141.492" x2="145.709" y2="141.492" gradientUnits="userSpaceOnUse">
<stop stop-color="#FFF0ED"/>
<stop offset="1" stop-color="#EDECFC"/>
</linearGradient>
<linearGradient id="paint5_linear_15044_55938" x1="134.551" y1="135.456" x2="143.019" y2="135.456" gradientUnits="userSpaceOnUse">
<stop stop-color="#FFF0ED"/>
<stop offset="1" stop-color="#EDECFC"/>
</linearGradient>
<linearGradient id="paint6_linear_15044_55938" x1="136.294" y1="129.716" x2="143.365" y2="129.716" gradientUnits="userSpaceOnUse">
<stop stop-color="#FFF0ED"/>
<stop offset="1" stop-color="#EDECFC"/>
</linearGradient>
<linearGradient id="paint7_linear_15044_55938" x1="143.725" y1="126.697" x2="149.747" y2="126.697" gradientUnits="userSpaceOnUse">
<stop stop-color="#FFF0ED"/>
<stop offset="1" stop-color="#EDECFC"/>
</linearGradient>
<linearGradient id="paint8_linear_15044_55938" x1="32.3174" y1="58.8659" x2="40.721" y2="58.8659" gradientUnits="userSpaceOnUse">
<stop stop-color="#FFF0ED"/>
<stop offset="1" stop-color="#EDECFC"/>
</linearGradient>
<linearGradient id="paint9_linear_15044_55938" x1="49.1133" y1="58.8659" x2="57.517" y2="58.8659" gradientUnits="userSpaceOnUse">
<stop stop-color="#FFF0ED"/>
<stop offset="1" stop-color="#EDECFC"/>
</linearGradient>
<linearGradient id="paint10_linear_15044_55938" x1="65.9219" y1="58.8659" x2="74.3257" y2="58.8659" gradientUnits="userSpaceOnUse">
<stop stop-color="#FFF0ED"/>
<stop offset="1" stop-color="#EDECFC"/>
</linearGradient>
<linearGradient id="paint11_linear_15044_55938" x1="71.5498" y1="95.1274" x2="82.6261" y2="95.1274" gradientUnits="userSpaceOnUse">
<stop stop-color="#FFF0ED"/>
<stop offset="1" stop-color="#EDECFC"/>
</linearGradient>
<linearGradient id="paint12_linear_15044_55938" x1="37.5156" y1="95.1156" x2="48.592" y2="95.1156" gradientUnits="userSpaceOnUse">
<stop stop-color="#FFF0ED"/>
<stop offset="1" stop-color="#EDECFC"/>
</linearGradient>
<linearGradient id="paint13_linear_15044_55938" x1="156.887" y1="132.424" x2="167.963" y2="132.424" gradientUnits="userSpaceOnUse">
<stop stop-color="#FFF0ED"/>
<stop offset="1" stop-color="#EDECFC"/>
</linearGradient>
<linearGradient id="paint14_linear_15044_55938" x1="122.852" y1="132.424" x2="133.928" y2="132.424" gradientUnits="userSpaceOnUse">
<stop stop-color="#FFF0ED"/>
<stop offset="1" stop-color="#EDECFC"/>
</linearGradient>
<linearGradient id="paint15_linear_15044_55938" x1="37.5176" y1="127.845" x2="98.085" y2="127.845" gradientUnits="userSpaceOnUse">
<stop stop-color="#FFF0ED"/>
<stop offset="1" stop-color="#EDECFC"/>
</linearGradient>
<linearGradient id="paint16_linear_15044_55938" x1="37.5176" y1="141.986" x2="106.895" y2="141.986" gradientUnits="userSpaceOnUse">
<stop stop-color="#FFF0ED"/>
<stop offset="1" stop-color="#EDECFC"/>
</linearGradient>
<linearGradient id="paint17_linear_15044_55938" x1="108.056" y1="85.4312" x2="168.635" y2="85.4312" gradientUnits="userSpaceOnUse">
<stop stop-color="#FFF0ED"/>
<stop offset="1" stop-color="#EDECFC"/>
</linearGradient>
<linearGradient id="paint18_linear_15044_55938" x1="99.2568" y1="98.1538" x2="168.634" y2="98.1538" gradientUnits="userSpaceOnUse">
<stop stop-color="#FFF0ED"/>
<stop offset="1" stop-color="#EDECFC"/>
</linearGradient>
<linearGradient id="paint19_linear_15044_55938" x1="21.0107" y1="111.973" x2="185" y2="111.973" gradientUnits="userSpaceOnUse">
<stop stop-color="#FFF0ED"/>
<stop offset="1" stop-color="#EDECFC"/>
</linearGradient>
<linearGradient id="paint20_linear_15044_55938" x1="57.5146" y1="95.8079" x2="63.4112" y2="95.8079" gradientUnits="userSpaceOnUse">
<stop stop-color="#FFF0ED"/>
<stop offset="1" stop-color="#EDECFC"/>
</linearGradient>
</defs>
</svg>
