<svg width="206" height="206" viewBox="0 0 206 206" fill="none" xmlns="http://www.w3.org/2000/svg">
<path fill-rule="evenodd" clip-rule="evenodd" d="M177.003 44H28.9858C24.575 44 21 47.5762 21 51.9883V75.1057H184.989V51.9883C184.989 47.5762 181.414 44 177.003 44Z" fill="#8E87FF" stroke="#29343F" stroke-linecap="round" stroke-linejoin="round"/>
<path d="M148.067 132.096C148.125 132.177 148.23 132.2 148.299 132.2C148.381 132.224 148.485 132.2 148.543 132.142C149.205 131.69 150.331 130.888 151.607 130.11C152.513 131.155 153.105 132.433 153.337 133.791C154.3 132.409 157.051 128.798 154.672 126.987C152.292 125.176 148.404 129.983 147.963 131.759C147.94 131.817 147.94 131.864 147.963 131.922C147.998 131.98 148.021 132.038 148.044 132.084L148.067 132.096Z" fill="#29343F"/>
<path d="M149.713 134.475L149.573 134.603C149.573 134.603 149.515 134.707 149.492 134.765C149.492 134.846 149.492 134.928 149.55 134.997C149.608 135.079 149.69 135.125 149.771 135.16C150.549 135.404 151.907 135.799 153.265 136.286C153.032 137.645 152.406 138.899 151.477 139.909C153.16 139.804 157.699 139.723 157.617 136.762C157.536 134.231 151.396 133.697 149.713 134.463V134.475Z" fill="#29343F"/>
<path d="M148.665 137.535L148.503 137.477L148.34 137.535C148.259 137.558 148.212 137.639 148.177 137.72C148.154 137.802 148.154 137.906 148.177 137.987C148.468 138.731 148.978 140.008 149.454 141.424C148.247 142.063 146.866 142.353 145.508 142.283C146.622 143.537 149.512 147.032 151.834 145.14C154.155 143.247 150.313 138.336 148.653 137.546L148.665 137.535Z" fill="#29343F"/>
<path d="M145.662 138.602L145.581 138.474L145.442 138.37C145.36 138.335 145.256 138.335 145.175 138.37C145.094 138.393 145.012 138.451 144.989 138.532C144.583 139.217 143.875 140.425 143.097 141.679C141.82 141.145 140.741 140.239 139.975 139.09C139.684 140.773 138.744 145.197 141.658 145.813C144.118 146.289 146.034 140.402 145.662 138.614V138.602Z" fill="#29343F"/>
<path d="M142.912 136.914C142.912 136.914 142.993 136.81 142.993 136.752C143.028 136.694 143.028 136.647 142.993 136.589C142.97 136.508 142.912 136.427 142.865 136.369C142.784 136.311 142.679 136.287 142.598 136.311C141.774 136.438 140.416 136.659 138.977 136.821C138.605 135.486 138.605 134.07 139.035 132.734C137.514 133.559 133.475 135.614 134.821 138.261C135.97 140.479 141.762 138.319 142.935 136.903L142.912 136.914Z" fill="#29343F"/>
<path d="M142.532 133.713C142.532 133.713 142.671 133.713 142.718 133.69C142.764 133.666 142.799 133.608 142.822 133.562C142.88 133.481 142.903 133.399 142.903 133.318C142.88 133.237 142.822 133.155 142.776 133.086C142.195 132.552 141.174 131.623 140.164 130.578C140.965 129.463 142.079 128.581 143.368 128.105C141.801 127.408 137.657 125.515 136.427 128.232C135.405 130.531 140.698 133.701 142.532 133.724V133.713Z" fill="#29343F"/>
<path d="M145.129 131.588C145.21 131.588 145.291 131.53 145.338 131.472C145.396 131.391 145.442 131.31 145.465 131.24C145.523 130.439 145.628 129.057 145.79 127.583C147.183 127.525 148.541 127.85 149.749 128.57C149.273 126.909 148.193 122.544 145.338 123.229C142.877 123.844 143.678 129.975 144.827 131.449C144.908 131.53 145.013 131.588 145.117 131.588H145.129Z" fill="#29343F"/>
<path d="M36.5182 63.7501C38.8388 63.7501 40.7201 61.8682 40.7201 59.5469C40.7201 57.2256 38.8388 55.3438 36.5182 55.3438C34.1976 55.3438 32.3164 57.2256 32.3164 59.5469C32.3164 61.8682 34.1976 63.7501 36.5182 63.7501Z" fill="#EBEDEF" stroke="#29343F" stroke-miterlimit="10"/>
<path d="M53.3112 63.7501C55.6319 63.7501 57.5131 61.8682 57.5131 59.5469C57.5131 57.2256 55.6319 55.3438 53.3112 55.3438C50.9906 55.3438 49.1094 57.2256 49.1094 59.5469C49.1094 61.8682 50.9906 63.7501 53.3112 63.7501Z" fill="#EBEDEF" stroke="#29343F" stroke-miterlimit="10"/>
<path d="M70.1237 63.7501C72.4444 63.7501 74.3257 61.8682 74.3257 59.5469C74.3257 57.2256 72.4444 55.3438 70.1237 55.3438C67.8031 55.3438 65.9219 57.2256 65.9219 59.5469C65.9219 61.8682 67.8031 63.7501 70.1237 63.7501Z" fill="#EBEDEF" stroke="#29343F" stroke-miterlimit="10"/>
<path d="M71.899 84.2969L81.2081 93.6088C83.1001 95.5014 83.1001 98.5551 81.2081 100.448L71.5508 110.108" stroke="#29343F" stroke-linecap="round" stroke-linejoin="round"/>
<path d="M48.2437 110.1L38.9346 100.788C37.0426 98.8956 37.0426 95.8419 38.9346 93.9494L48.592 84.2891" stroke="#29343F" stroke-linecap="round" stroke-linejoin="round"/>
<path d="M157.235 121.594L166.544 130.906C168.436 132.798 168.436 135.852 166.544 137.745L156.887 147.405" stroke="#29343F" stroke-linecap="round" stroke-linejoin="round"/>
<path d="M133.58 147.405L124.271 138.093C122.379 136.2 122.379 133.147 124.271 131.254L133.928 121.594" stroke="#29343F" stroke-linecap="round" stroke-linejoin="round"/>
<path d="M37.5156 127.422H98.0831" stroke="#29343F" stroke-linecap="round" stroke-linejoin="round"/>
<path d="M37.5156 141.562H106.893" stroke="#29343F" stroke-linecap="round" stroke-linejoin="round"/>
<path d="M108.055 85.0156H168.634" stroke="#29343F" stroke-linecap="round" stroke-linejoin="round"/>
<path d="M99.2578 97.7344H168.635" stroke="#29343F" stroke-linecap="round" stroke-linejoin="round"/>
<path fill-rule="evenodd" clip-rule="evenodd" d="M21.0117 155.016C21.0117 159.428 24.5868 163.004 28.9976 163.004H177.015C181.426 163.004 185.001 159.428 185.001 155.016V75.1094H21.0117V155.016Z" stroke="#29343F" stroke-linecap="round" stroke-linejoin="round"/>
<path d="M63.4122 86.0781L57.5156 109.265" stroke="#29343F" stroke-linecap="round" stroke-linejoin="round"/>
</svg>
