<svg width="206" height="206" viewBox="0 0 206 206" fill="none" xmlns="http://www.w3.org/2000/svg">
<path d="M139.345 17.0039H67.6552C60.1136 17.0039 54 23.1402 54 30.7098V175.295C54 182.865 60.1136 189.001 67.6552 189.001H139.345C146.886 189.001 153 182.865 153 175.295V30.7098C153 23.1402 146.886 17.0039 139.345 17.0039Z" stroke="url(#paint0_linear_15044_55803)" stroke-miterlimit="10"/>
<path d="M138.004 25.5039H68.9871C64.6347 25.5039 61.1064 29.0453 61.1064 33.4138V172.61C61.1064 176.978 64.6347 180.52 68.9871 180.52H138.004C142.356 180.52 145.884 176.978 145.884 172.61V33.4138C145.884 29.0453 142.356 25.5039 138.004 25.5039Z" fill="#161B22" stroke="url(#paint1_linear_15044_55803)" stroke-miterlimit="10"/>
<path d="M80.627 17H126.372L122.541 25.2003C121.754 26.8845 120.065 27.9647 118.213 27.9647H88.7854C86.9338 27.9647 85.2442 26.8845 84.4573 25.2003L80.627 17Z" fill="#8E87FF" stroke="url(#paint2_linear_15044_55803)" stroke-linecap="round" stroke-linejoin="round"/>
<path d="M75.8479 169.312H132.517C133.269 169.312 133.882 169.928 133.882 170.683C133.882 171.438 133.269 172.054 132.517 172.054H75.8479C75.0957 172.054 74.4824 171.438 74.4824 170.683C74.4824 169.928 75.0957 169.312 75.8479 169.312Z" fill="url(#paint3_linear_15044_55803)"/>
<path d="M78.1276 128.046L76.1719 120.357H77.711L79.2964 127.047L78.8913 126.803H79.9444L79.4815 127.047L80.7313 120.647H82.0159L80.4652 128.046H78.1392H78.1276ZM82.7102 128.046L81.0206 120.647H82.3514L83.7864 127.047L83.3351 126.803H84.365L83.9716 127.047L85.3718 120.357H86.8299L85.0825 128.046H82.7102ZM90.2668 128.243C89.7577 128.243 89.3179 128.162 88.936 127.999C88.5541 127.837 88.2301 127.616 87.9639 127.349C87.6978 127.07 87.5011 126.757 87.3506 126.397C87.2117 126.048 87.1539 125.676 87.1539 125.305V125.084C87.1539 124.689 87.2233 124.317 87.3622 123.969C87.5126 123.609 87.7209 123.295 87.9871 123.017C88.2648 122.738 88.5888 122.517 88.9707 122.366C89.3526 122.203 89.7923 122.122 90.2784 122.122C90.7644 122.122 91.1926 122.203 91.5745 122.366C91.9563 122.517 92.2804 122.738 92.5465 123.017C92.8243 123.295 93.021 123.609 93.1714 123.969C93.3103 124.317 93.3797 124.689 93.3797 125.084V125.305C93.3797 125.688 93.3103 126.048 93.1714 126.397C93.0441 126.745 92.8358 127.059 92.5697 127.349C92.3035 127.628 91.9795 127.837 91.5976 127.999C91.2157 128.162 90.776 128.243 90.2784 128.243H90.2668ZM90.2668 126.989C90.6256 126.989 90.9264 126.908 91.1695 126.757C91.4125 126.594 91.5976 126.385 91.7249 126.118C91.8522 125.839 91.9101 125.537 91.9101 125.189C91.9101 124.84 91.8406 124.527 91.7134 124.259C91.5861 123.981 91.4009 123.772 91.1463 123.621C90.9033 123.458 90.6024 123.377 90.2668 123.377C89.9312 123.377 89.6303 123.458 89.3757 123.621C89.1327 123.772 88.936 123.992 88.8087 124.259C88.6699 124.527 88.612 124.84 88.612 125.189C88.612 125.537 88.6698 125.839 88.7971 126.118C88.936 126.385 89.1212 126.594 89.3642 126.757C89.6072 126.908 89.9081 126.989 90.2668 126.989ZM94.5485 128.046V122.32H95.7057V124.747H95.671C95.671 123.923 95.8446 123.307 96.1918 122.877C96.5389 122.459 97.0597 122.25 97.7309 122.25H97.9392V123.528H97.5457C97.0597 123.528 96.6778 123.667 96.4001 123.923C96.1339 124.178 95.995 124.561 95.995 125.061V128.046H94.5369H94.5485ZM98.8997 128.046V120.357H100.358V128.046H98.8997ZM98.1822 121.449V120.357H100.358V121.449H98.1822ZM104.281 128.232C103.887 128.232 103.517 128.162 103.181 128.011C102.846 127.86 102.556 127.651 102.313 127.384C102.07 127.117 101.874 126.803 101.746 126.455C101.619 126.095 101.55 125.711 101.55 125.293V125.072C101.55 124.666 101.608 124.283 101.735 123.923C101.874 123.562 102.047 123.249 102.279 122.982C102.522 122.715 102.8 122.506 103.135 122.355C103.471 122.204 103.841 122.122 104.246 122.122C104.697 122.122 105.091 122.215 105.426 122.413C105.774 122.598 106.04 122.889 106.248 123.272C106.456 123.655 106.56 124.143 106.584 124.724L106.155 124.213V120.31H107.614V127.999H106.456V125.56H106.711C106.688 126.141 106.572 126.629 106.352 127.024C106.132 127.407 105.843 127.697 105.496 127.895C105.149 128.081 104.744 128.174 104.304 128.174L104.281 128.232ZM104.605 127.001C104.894 127.001 105.149 126.942 105.392 126.815C105.635 126.675 105.82 126.489 105.959 126.246C106.109 125.99 106.179 125.7 106.179 125.363V124.945C106.179 124.608 106.109 124.329 105.959 124.097C105.808 123.864 105.623 123.69 105.38 123.574C105.137 123.446 104.882 123.388 104.605 123.388C104.292 123.388 104.015 123.47 103.76 123.621C103.517 123.772 103.332 123.981 103.193 124.248C103.066 124.527 102.996 124.84 102.996 125.212C102.996 125.584 103.066 125.897 103.205 126.176C103.343 126.443 103.529 126.652 103.772 126.803C104.015 126.954 104.292 127.024 104.605 127.024V127.001ZM111.687 128.243C111.189 128.243 110.761 128.162 110.391 127.988C110.032 127.814 109.731 127.593 109.488 127.314C109.245 127.035 109.072 126.722 108.956 126.362C108.84 126.013 108.782 125.653 108.782 125.282V125.084C108.782 124.701 108.84 124.329 108.956 123.981C109.083 123.621 109.268 123.307 109.511 123.028C109.754 122.749 110.055 122.529 110.414 122.366C110.773 122.192 111.201 122.111 111.675 122.111C112.15 122.111 112.613 122.203 113.006 122.401C113.4 122.587 113.712 122.854 113.944 123.202C114.187 123.551 114.314 123.946 114.349 124.399H112.937C112.902 124.108 112.775 123.853 112.555 123.667C112.347 123.47 112.057 123.377 111.687 123.377C111.363 123.377 111.097 123.458 110.877 123.609C110.669 123.76 110.507 123.981 110.402 124.248C110.298 124.515 110.24 124.829 110.24 125.177C110.24 125.525 110.287 125.816 110.391 126.095C110.495 126.373 110.657 126.582 110.865 126.733C111.085 126.884 111.363 126.966 111.699 126.966C111.953 126.966 112.173 126.919 112.347 126.826C112.532 126.733 112.671 126.606 112.775 126.443C112.89 126.28 112.96 126.095 112.983 125.897H114.395C114.372 126.362 114.233 126.768 113.99 127.117C113.747 127.465 113.434 127.732 113.029 127.93C112.636 128.127 112.185 128.22 111.687 128.22V128.243ZM118.202 128.243C117.693 128.243 117.253 128.162 116.871 127.999C116.489 127.837 116.165 127.616 115.899 127.349C115.633 127.07 115.425 126.757 115.286 126.397C115.159 126.048 115.089 125.676 115.089 125.305V125.084C115.089 124.689 115.159 124.317 115.297 123.969C115.448 123.609 115.645 123.295 115.922 123.017C116.2 122.738 116.524 122.517 116.906 122.366C117.288 122.203 117.728 122.122 118.214 122.122C118.7 122.122 119.128 122.203 119.51 122.366C119.892 122.517 120.216 122.738 120.482 123.017C120.76 123.295 120.956 123.609 121.107 123.969C121.246 124.317 121.315 124.689 121.315 125.084V125.305C121.315 125.688 121.246 126.048 121.107 126.397C120.968 126.745 120.771 127.059 120.505 127.349C120.239 127.628 119.915 127.837 119.533 127.999C119.151 128.162 118.711 128.243 118.214 128.243H118.202ZM118.202 126.989C118.561 126.989 118.862 126.908 119.105 126.757C119.348 126.594 119.533 126.385 119.66 126.118C119.787 125.839 119.845 125.537 119.845 125.189C119.845 124.84 119.776 124.527 119.649 124.259C119.521 123.981 119.336 123.772 119.082 123.621C118.839 123.458 118.538 123.377 118.202 123.377C117.866 123.377 117.566 123.458 117.311 123.621C117.068 123.772 116.871 123.992 116.744 124.259C116.605 124.527 116.547 124.84 116.547 125.189C116.547 125.537 116.605 125.839 116.732 126.118C116.871 126.385 117.056 126.594 117.299 126.757C117.542 126.908 117.843 126.989 118.202 126.989ZM122.75 128.046V122.32H124.208V128.046H122.75ZM121.951 123.423V122.331H124.208V123.423H121.951ZM123.282 121.646C122.993 121.646 122.785 121.576 122.646 121.425C122.518 121.274 122.449 121.077 122.449 120.856C122.449 120.612 122.518 120.426 122.646 120.275C122.785 120.124 123.005 120.055 123.282 120.055C123.56 120.055 123.78 120.124 123.907 120.275C124.034 120.426 124.104 120.612 124.104 120.856C124.104 121.077 124.034 121.274 123.907 121.425C123.768 121.576 123.56 121.646 123.282 121.646ZM125.782 128.058V122.331H126.939V124.782H126.835C126.835 124.201 126.916 123.713 127.066 123.33C127.217 122.935 127.448 122.645 127.749 122.447C128.062 122.25 128.443 122.157 128.895 122.157H128.953C129.635 122.157 130.145 122.378 130.492 122.819C130.839 123.249 131.012 123.911 131.012 124.782V128.058H129.554V124.654C129.554 124.306 129.45 124.015 129.253 123.806C129.057 123.586 128.779 123.481 128.432 123.481C128.085 123.481 127.784 123.597 127.564 123.818C127.344 124.039 127.24 124.329 127.24 124.701V128.058H125.782Z" fill="url(#paint4_linear_15044_55803)"/>
<path d="M106.236 86.3331C106.305 86.4144 106.398 86.4725 106.514 86.4841C106.618 86.4957 106.722 86.4725 106.815 86.4028C107.625 85.822 109.002 84.8463 110.506 83.8823C111.617 85.1599 112.358 86.7396 112.612 88.4354C113.793 86.7048 117.125 82.2445 114.255 80.026C111.802 78.1676 106.653 83.7313 106.143 85.9382C106.132 86.0078 106.132 86.0775 106.143 86.1472C106.155 86.2169 106.19 86.275 106.236 86.3331Z" fill="url(#paint5_linear_15044_55803)"/>
<path d="M108.238 89.2804C108.157 89.3152 108.099 89.3849 108.053 89.4662C108.007 89.5475 107.995 89.6288 107.995 89.7218C107.995 89.8147 108.03 89.896 108.088 89.9657C108.146 90.0354 108.215 90.0935 108.296 90.1167C109.245 90.4071 110.853 90.9065 112.52 91.4989C112.231 93.1947 111.478 94.7628 110.344 96.0288C112.404 95.8778 117.901 95.7733 117.831 92.0913C117.727 88.9784 110.263 88.3163 108.238 89.2804Z" fill="url(#paint6_linear_15044_55803)"/>
<path d="M106.977 93.0582C106.919 93.0233 106.849 93.0117 106.78 93.0117C106.711 93.0117 106.641 93.0233 106.583 93.0582C106.491 93.1047 106.421 93.1976 106.375 93.3021C106.34 93.4066 106.34 93.5228 106.375 93.6157C106.757 94.5565 107.37 96.1594 107.949 97.8669C105.461 99.2375 103.135 98.9355 103.135 98.9355C104.512 100.492 108.018 104.813 110.796 102.478C113.11 100.445 108.967 94.0687 106.965 93.0582H106.977Z" fill="url(#paint7_linear_15044_55803)"/>
<path d="M103.308 94.397C103.297 94.3274 103.262 94.2693 103.216 94.2112C103.17 94.1531 103.112 94.1183 103.054 94.0951C102.961 94.0486 102.846 94.0486 102.741 94.0834C102.637 94.1183 102.556 94.188 102.51 94.2925C102.024 95.1636 101.191 96.6504 100.23 98.1836C98.6796 97.5215 97.3488 96.4065 96.3999 94.9894C96.0643 97.0685 94.9418 102.563 98.4597 103.318C101.457 103.91 103.76 96.6388 103.297 94.397H103.308Z" fill="url(#paint8_linear_15044_55803)"/>
<path d="M100.013 92.2937C100.013 92.2937 100.082 92.1776 100.094 92.1079C100.105 92.0382 100.094 91.9685 100.094 91.8988C100.071 91.7943 100.001 91.7014 99.9087 91.6317C99.8161 91.562 99.712 91.5504 99.5963 91.562C98.6242 91.7246 96.9578 91.9801 95.1988 92.166C94.7475 90.5166 94.7707 88.7627 95.2567 87.125C93.4515 88.1471 88.5448 90.6676 90.1649 93.9547C91.5767 96.7191 98.5895 94.036 100.001 92.2705L100.013 92.2937Z" fill="url(#paint9_linear_15044_55803)"/>
<path d="M99.5589 88.3423C99.6284 88.3423 99.6978 88.3307 99.7557 88.2958C99.8135 88.261 99.8714 88.2145 99.9061 88.1565C99.9755 88.0751 100.01 87.959 99.9987 87.8545C99.9987 87.7499 99.9408 87.6454 99.8598 87.5757C99.1192 86.8904 97.8925 85.7289 96.6543 84.4396C97.6379 83.0458 98.9919 81.9772 100.554 81.35C98.6447 80.5601 93.6571 78.1906 92.1412 81.5358C90.9029 84.3815 97.3371 88.3191 99.5589 88.3539V88.3423Z" fill="url(#paint10_linear_15044_55803)"/>
<path d="M102.649 85.6832C102.753 85.6832 102.858 85.6368 102.939 85.5555C103.02 85.4742 103.066 85.3696 103.077 85.2651C103.135 84.2662 103.274 82.5472 103.482 80.7584C105.16 80.6771 106.815 81.0836 108.273 81.9432C107.706 79.9221 106.399 74.463 102.915 75.3458C99.9645 76.124 100.937 83.7087 102.302 85.5206C102.337 85.5787 102.395 85.6135 102.453 85.6484C102.51 85.6716 102.58 85.6832 102.649 85.6832Z" fill="url(#paint11_linear_15044_55803)"/>
<defs>
<linearGradient id="paint0_linear_15044_55803" x1="54" y1="89.1487" x2="153" y2="89.1487" gradientUnits="userSpaceOnUse">
<stop stop-color="#FFF0ED"/>
<stop offset="1" stop-color="#EDECFC"/>
</linearGradient>
<linearGradient id="paint1_linear_15044_55803" x1="61.1064" y1="90.5258" x2="145.884" y2="90.5258" gradientUnits="userSpaceOnUse">
<stop stop-color="#FFF0ED"/>
<stop offset="1" stop-color="#EDECFC"/>
</linearGradient>
<linearGradient id="paint2_linear_15044_55803" x1="80.627" y1="21.5992" x2="126.372" y2="21.5992" gradientUnits="userSpaceOnUse">
<stop stop-color="#FFF0ED"/>
<stop offset="1" stop-color="#EDECFC"/>
</linearGradient>
<linearGradient id="paint3_linear_15044_55803" x1="74.4824" y1="170.462" x2="133.882" y2="170.462" gradientUnits="userSpaceOnUse">
<stop stop-color="#FFF0ED"/>
<stop offset="1" stop-color="#EDECFC"/>
</linearGradient>
<linearGradient id="paint4_linear_15044_55803" x1="76.1719" y1="123.489" x2="131.012" y2="123.489" gradientUnits="userSpaceOnUse">
<stop stop-color="#FFF0ED"/>
<stop offset="1" stop-color="#EDECFC"/>
</linearGradient>
<linearGradient id="paint5_linear_15044_55803" x1="106.135" y1="83.3364" x2="115.391" y2="83.3364" gradientUnits="userSpaceOnUse">
<stop stop-color="#FFF0ED"/>
<stop offset="1" stop-color="#EDECFC"/>
</linearGradient>
<linearGradient id="paint6_linear_15044_55803" x1="107.995" y1="91.8734" x2="117.832" y2="91.8734" gradientUnits="userSpaceOnUse">
<stop stop-color="#FFF0ED"/>
<stop offset="1" stop-color="#EDECFC"/>
</linearGradient>
<linearGradient id="paint7_linear_15044_55803" x1="103.135" y1="97.2668" x2="111.479" y2="97.2668" gradientUnits="userSpaceOnUse">
<stop stop-color="#FFF0ED"/>
<stop offset="1" stop-color="#EDECFC"/>
</linearGradient>
<linearGradient id="paint8_linear_15044_55803" x1="95.9619" y1="97.9566" x2="103.356" y2="97.9566" gradientUnits="userSpaceOnUse">
<stop stop-color="#FFF0ED"/>
<stop offset="1" stop-color="#EDECFC"/>
</linearGradient>
<linearGradient id="paint9_linear_15044_55803" x1="89.8418" y1="90.4889" x2="100.099" y2="90.4889" gradientUnits="userSpaceOnUse">
<stop stop-color="#FFF0ED"/>
<stop offset="1" stop-color="#EDECFC"/>
</linearGradient>
<linearGradient id="paint10_linear_15044_55803" x1="91.9844" y1="83.3862" x2="100.554" y2="83.3862" gradientUnits="userSpaceOnUse">
<stop stop-color="#FFF0ED"/>
<stop offset="1" stop-color="#EDECFC"/>
</linearGradient>
<linearGradient id="paint11_linear_15044_55803" x1="100.987" y1="79.6263" x2="108.273" y2="79.6263" gradientUnits="userSpaceOnUse">
<stop stop-color="#FFF0ED"/>
<stop offset="1" stop-color="#EDECFC"/>
</linearGradient>
</defs>
</svg>
