<svg width="68" height="72" viewBox="0 0 68 72" fill="none" xmlns="http://www.w3.org/2000/svg">
    <mask id="mask0_20252_65723" style="mask-type:alpha" maskUnits="userSpaceOnUse" x="12" y="14" width="44" height="45">
        <rect x="12.6875" y="14.9077" width="43.309" height="43.3091" rx="21.6545" fill="black"/>
    </mask>
    <g mask="url(#mask0_20252_65723)">
        <g clip-path="url(#clip0_20252_65723)">
            <g filter="url(#filter0_dd_20252_65723)">
                <circle cx="34.3406" cy="36.5603" r="21.6531" fill="#F8F8F8"/>
            </g>
            <g opacity="0.8" filter="url(#filter1_f_20252_65723)">
                <ellipse cx="21.4001" cy="21.1344" rx="21.4001" ry="21.1344" transform="matrix(-0.288205 -0.957569 0.936518 -0.35062 20.1836 51.5762)" fill="#3502FF"/>
            </g>
            <g opacity="0.8" filter="url(#filter2_f_20252_65723)">
                <ellipse cx="18.1589" cy="17.5898" rx="18.1589" ry="17.5898" transform="matrix(-0.482888 -0.875682 0.798496 -0.602 17.8086 54.9834)" fill="#77BEFF"/>
            </g>
            <g opacity="0.8" filter="url(#filter3_f_20252_65723)">
                <path d="M55.3577 5.87436C64.9826 13.7461 57.6524 53.3812 53.9303 50.7766C51.6597 49.1877 48.9753 35.7467 41.8474 29.9867C37.2908 26.3045 29.133 28.9913 23.9371 29.3713C10.6134 30.3457 45.6525 -2.063 55.3577 5.87436Z" fill="#3D39FF"/>
            </g>
        </g>
        <g filter="url(#filter4_i_20252_65723)">
            <rect x="12.6875" y="14.9077" width="43.309" height="43.3091" rx="21.6545" fill="black" fill-opacity="0.01"/>
        </g>
        <rect x="13.0484" y="15.2686" width="42.5872" height="42.5873" rx="21.2936" stroke="url(#paint0_linear_20252_65723)" stroke-width="0.721818"/>
    </g>
    <path d="M0.296682 49.0134C0.230868 48.8511 0.266467 48.7058 0.40348 48.5775L5.57083 44.0289L5.66625 43.9684C5.7162 43.9482 5.76749 43.9492 5.82014 43.9715C5.87532 44 5.91304 44.0392 5.93329 44.0892L6.11554 44.5387C6.14339 44.6074 6.14618 44.668 6.1239 44.7207C6.11041 44.777 6.08434 44.8203 6.0457 44.8505L1.44074 48.8767L7.55311 48.5684C7.60188 48.5632 7.64946 48.573 7.69587 48.5978C7.75105 48.6263 7.79256 48.6749 7.8204 48.7436L8.00266 49.1931C8.02291 49.243 8.0219 49.2943 7.99963 49.347C7.97735 49.3996 7.94125 49.4361 7.8913 49.4563C7.8476 49.474 7.81199 49.4848 7.78449 49.4887L0.908482 49.8231C0.720842 49.8265 0.594115 49.747 0.5283 49.5847L0.296682 49.0134Z" fill="#007FD3"/>
    <path d="M0.296682 49.0134C0.230868 48.8511 0.266467 48.7058 0.40348 48.5775L5.57083 44.0289L5.66625 43.9684C5.7162 43.9482 5.76749 43.9492 5.82014 43.9715C5.87532 44 5.91304 44.0392 5.93329 44.0892L6.11554 44.5387C6.14339 44.6074 6.14618 44.668 6.1239 44.7207C6.11041 44.777 6.08434 44.8203 6.0457 44.8505L1.44074 48.8767L7.55311 48.5684C7.60188 48.5632 7.64946 48.573 7.69587 48.5978C7.75105 48.6263 7.79256 48.6749 7.8204 48.7436L8.00266 49.1931C8.02291 49.243 8.0219 49.2943 7.99963 49.347C7.97735 49.3996 7.94125 49.4361 7.8913 49.4563C7.8476 49.474 7.81199 49.4848 7.78449 49.4887L0.908482 49.8231C0.720842 49.8265 0.594115 49.747 0.5283 49.5847L0.296682 49.0134Z" fill="url(#paint1_radial_20252_65723)"/>
    <path d="M0.296682 49.0134C0.230868 48.8511 0.266467 48.7058 0.40348 48.5775L5.57083 44.0289L5.66625 43.9684C5.7162 43.9482 5.76749 43.9492 5.82014 43.9715C5.87532 44 5.91304 44.0392 5.93329 44.0892L6.11554 44.5387C6.14339 44.6074 6.14618 44.668 6.1239 44.7207C6.11041 44.777 6.08434 44.8203 6.0457 44.8505L1.44074 48.8767L7.55311 48.5684C7.60188 48.5632 7.64946 48.573 7.69587 48.5978C7.75105 48.6263 7.79256 48.6749 7.8204 48.7436L8.00266 49.1931C8.02291 49.243 8.0219 49.2943 7.99963 49.347C7.97735 49.3996 7.94125 49.4361 7.8913 49.4563C7.8476 49.474 7.81199 49.4848 7.78449 49.4887L0.908482 49.8231C0.720842 49.8265 0.594115 49.747 0.5283 49.5847L0.296682 49.0134Z" fill="url(#paint2_radial_20252_65723)"/>
    <path d="M2.86796 54.445C2.83056 54.389 2.81744 54.333 2.82862 54.2769C2.84539 54.2171 2.8818 54.1685 2.93783 54.1311L8.426 50.4671C8.48764 50.4259 8.54648 50.411 8.60254 50.4221C8.66421 50.4296 8.71375 50.4613 8.75115 50.5173L11.0573 53.9716C11.0984 54.0332 11.1106 54.094 11.0938 54.1538C11.0864 54.2154 11.0519 54.2668 10.9902 54.308L10.6877 54.51C10.6316 54.5474 10.5737 54.5577 10.5139 54.5409C10.4579 54.5297 10.4093 54.4933 10.3681 54.4317L8.45475 51.5658L6.58053 52.817L8.37045 55.4981C8.41159 55.5597 8.42378 55.6204 8.407 55.6802C8.39957 55.7419 8.36504 55.7933 8.3034 55.8344L8.01765 56.0252C7.96162 56.0626 7.9009 56.0748 7.83549 56.0618C7.77943 56.0506 7.73083 56.0142 7.68968 55.9526L5.89977 53.2715L3.95831 54.5676L5.91656 57.5008C5.9577 57.5625 5.96989 57.6232 5.95311 57.683C5.94568 57.7447 5.91114 57.7961 5.84951 57.8372L5.54695 58.0392C5.49092 58.0766 5.4302 58.0888 5.36479 58.0758C5.30499 58.059 5.25639 58.0226 5.21898 57.9666L2.86796 54.445Z" fill="#007FD3"/>
    <path d="M2.86796 54.445C2.83056 54.389 2.81744 54.333 2.82862 54.2769C2.84539 54.2171 2.8818 54.1685 2.93783 54.1311L8.426 50.4671C8.48764 50.4259 8.54648 50.411 8.60254 50.4221C8.66421 50.4296 8.71375 50.4613 8.75115 50.5173L11.0573 53.9716C11.0984 54.0332 11.1106 54.094 11.0938 54.1538C11.0864 54.2154 11.0519 54.2668 10.9902 54.308L10.6877 54.51C10.6316 54.5474 10.5737 54.5577 10.5139 54.5409C10.4579 54.5297 10.4093 54.4933 10.3681 54.4317L8.45475 51.5658L6.58053 52.817L8.37045 55.4981C8.41159 55.5597 8.42378 55.6204 8.407 55.6802C8.39957 55.7419 8.36504 55.7933 8.3034 55.8344L8.01765 56.0252C7.96162 56.0626 7.9009 56.0748 7.83549 56.0618C7.77943 56.0506 7.73083 56.0142 7.68968 55.9526L5.89977 53.2715L3.95831 54.5676L5.91656 57.5008C5.9577 57.5625 5.96989 57.6232 5.95311 57.683C5.94568 57.7447 5.91114 57.7961 5.84951 57.8372L5.54695 58.0392C5.49092 58.0766 5.4302 58.0888 5.36479 58.0758C5.30499 58.059 5.25639 58.0226 5.21898 57.9666L2.86796 54.445Z" fill="url(#paint3_radial_20252_65723)"/>
    <path d="M2.86796 54.445C2.83056 54.389 2.81744 54.333 2.82862 54.2769C2.84539 54.2171 2.8818 54.1685 2.93783 54.1311L8.426 50.4671C8.48764 50.4259 8.54648 50.411 8.60254 50.4221C8.66421 50.4296 8.71375 50.4613 8.75115 50.5173L11.0573 53.9716C11.0984 54.0332 11.1106 54.094 11.0938 54.1538C11.0864 54.2154 11.0519 54.2668 10.9902 54.308L10.6877 54.51C10.6316 54.5474 10.5737 54.5577 10.5139 54.5409C10.4579 54.5297 10.4093 54.4933 10.3681 54.4317L8.45475 51.5658L6.58053 52.817L8.37045 55.4981C8.41159 55.5597 8.42378 55.6204 8.407 55.6802C8.39957 55.7419 8.36504 55.7933 8.3034 55.8344L8.01765 56.0252C7.96162 56.0626 7.9009 56.0748 7.83549 56.0618C7.77943 56.0506 7.73083 56.0142 7.68968 55.9526L5.89977 53.2715L3.95831 54.5676L5.91656 57.5008C5.9577 57.5625 5.96989 57.6232 5.95311 57.683C5.94568 57.7447 5.91114 57.7961 5.84951 57.8372L5.54695 58.0392C5.49092 58.0766 5.4302 58.0888 5.36479 58.0758C5.30499 58.059 5.25639 58.0226 5.21898 57.9666L2.86796 54.445Z" fill="url(#paint4_radial_20252_65723)"/>
    <path d="M7.08728 60.2138C7.03913 60.1667 7.01474 60.1145 7.01411 60.0574C7.0182 59.9954 7.0438 59.9403 7.09092 59.8922L11.7059 55.1755C11.7577 55.1225 11.8122 55.0957 11.8694 55.0951C11.9312 55.0897 11.9862 55.1105 12.0344 55.1576L13.7968 56.882C14.3458 57.4192 14.6472 57.9685 14.7009 58.5301C14.7642 59.0915 14.5556 59.6179 14.075 60.109C13.7169 60.475 13.3309 60.6864 12.9171 60.7434C12.5032 60.8003 12.0878 60.7143 11.6709 60.4854L10.8962 63.5023C10.8824 63.5454 10.8637 63.5789 10.8402 63.603C10.8025 63.6415 10.755 63.6611 10.6979 63.6617C10.6407 63.6623 10.5929 63.6438 10.5544 63.6061L10.2365 63.2951C10.1643 63.2245 10.123 63.1511 10.1127 63.075C10.1071 63.0036 10.1181 62.9201 10.1457 62.8245L10.8931 59.9365L9.60739 58.6785L7.76989 60.5565C7.72277 60.6046 7.66587 60.6291 7.59918 60.6298C7.53721 60.6257 7.48214 60.6001 7.43399 60.553L7.08728 60.2138ZM11.4004 59.2735C12.1275 59.985 12.7903 60.0349 13.3886 59.4233C13.987 58.8118 13.9226 58.1503 13.1955 57.4388L11.982 56.2515L10.1869 58.0862L11.4004 59.2735Z" fill="#007FD3"/>
    <path d="M7.08728 60.2138C7.03913 60.1667 7.01474 60.1145 7.01411 60.0574C7.0182 59.9954 7.0438 59.9403 7.09092 59.8922L11.7059 55.1755C11.7577 55.1225 11.8122 55.0957 11.8694 55.0951C11.9312 55.0897 11.9862 55.1105 12.0344 55.1576L13.7968 56.882C14.3458 57.4192 14.6472 57.9685 14.7009 58.5301C14.7642 59.0915 14.5556 59.6179 14.075 60.109C13.7169 60.475 13.3309 60.6864 12.9171 60.7434C12.5032 60.8003 12.0878 60.7143 11.6709 60.4854L10.8962 63.5023C10.8824 63.5454 10.8637 63.5789 10.8402 63.603C10.8025 63.6415 10.755 63.6611 10.6979 63.6617C10.6407 63.6623 10.5929 63.6438 10.5544 63.6061L10.2365 63.2951C10.1643 63.2245 10.123 63.1511 10.1127 63.075C10.1071 63.0036 10.1181 62.9201 10.1457 62.8245L10.8931 59.9365L9.60739 58.6785L7.76989 60.5565C7.72277 60.6046 7.66587 60.6291 7.59918 60.6298C7.53721 60.6257 7.48214 60.6001 7.43399 60.553L7.08728 60.2138ZM11.4004 59.2735C12.1275 59.985 12.7903 60.0349 13.3886 59.4233C13.987 58.8118 13.9226 58.1503 13.1955 57.4388L11.982 56.2515L10.1869 58.0862L11.4004 59.2735Z" fill="url(#paint5_radial_20252_65723)"/>
    <path d="M7.08728 60.2138C7.03913 60.1667 7.01474 60.1145 7.01411 60.0574C7.0182 59.9954 7.0438 59.9403 7.09092 59.8922L11.7059 55.1755C11.7577 55.1225 11.8122 55.0957 11.8694 55.0951C11.9312 55.0897 11.9862 55.1105 12.0344 55.1576L13.7968 56.882C14.3458 57.4192 14.6472 57.9685 14.7009 58.5301C14.7642 59.0915 14.5556 59.6179 14.075 60.109C13.7169 60.475 13.3309 60.6864 12.9171 60.7434C12.5032 60.8003 12.0878 60.7143 11.6709 60.4854L10.8962 63.5023C10.8824 63.5454 10.8637 63.5789 10.8402 63.603C10.8025 63.6415 10.755 63.6611 10.6979 63.6617C10.6407 63.6623 10.5929 63.6438 10.5544 63.6061L10.2365 63.2951C10.1643 63.2245 10.123 63.1511 10.1127 63.075C10.1071 63.0036 10.1181 62.9201 10.1457 62.8245L10.8931 59.9365L9.60739 58.6785L7.76989 60.5565C7.72277 60.6046 7.66587 60.6291 7.59918 60.6298C7.53721 60.6257 7.48214 60.6001 7.43399 60.553L7.08728 60.2138ZM11.4004 59.2735C12.1275 59.985 12.7903 60.0349 13.3886 59.4233C13.987 58.8118 13.9226 58.1503 13.1955 57.4388L11.982 56.2515L10.1869 58.0862L11.4004 59.2735Z" fill="url(#paint6_radial_20252_65723)"/>
    <path d="M12.7765 65.2287C12.7216 65.1897 12.6894 65.142 12.6798 65.0856C12.6742 65.0238 12.6909 64.9654 12.73 64.9105L16.5589 59.5237C16.5979 59.4687 16.6456 59.4365 16.702 59.427C16.7622 59.412 16.8198 59.424 16.8747 59.463L17.2866 59.7557C17.347 59.7987 17.3819 59.8483 17.3915 59.9047C17.401 59.9611 17.3843 60.0194 17.3413 60.0798L13.5124 65.4667C13.4734 65.5216 13.421 65.5546 13.3553 65.5657C13.2989 65.5752 13.2433 65.5605 13.1883 65.5215L12.7765 65.2287Z" fill="#007FD3"/>
    <path d="M12.7765 65.2287C12.7216 65.1897 12.6894 65.142 12.6798 65.0856C12.6742 65.0238 12.6909 64.9654 12.73 64.9105L16.5589 59.5237C16.5979 59.4687 16.6456 59.4365 16.702 59.427C16.7622 59.412 16.8198 59.424 16.8747 59.463L17.2866 59.7557C17.347 59.7987 17.3819 59.8483 17.3915 59.9047C17.401 59.9611 17.3843 60.0194 17.3413 60.0798L13.5124 65.4667C13.4734 65.5216 13.421 65.5546 13.3553 65.5657C13.2989 65.5752 13.2433 65.5605 13.1883 65.5215L12.7765 65.2287Z" fill="url(#paint7_radial_20252_65723)"/>
    <path d="M12.7765 65.2287C12.7216 65.1897 12.6894 65.142 12.6798 65.0856C12.6742 65.0238 12.6909 64.9654 12.73 64.9105L16.5589 59.5237C16.5979 59.4687 16.6456 59.4365 16.702 59.427C16.7622 59.412 16.8198 59.424 16.8747 59.463L17.2866 59.7557C17.347 59.7987 17.3819 59.8483 17.3915 59.9047C17.401 59.9611 17.3843 60.0194 17.3413 60.0798L13.5124 65.4667C13.4734 65.5216 13.421 65.5546 13.3553 65.5657C13.2989 65.5752 13.2433 65.5605 13.1883 65.5215L12.7765 65.2287Z" fill="url(#paint8_radial_20252_65723)"/>
    <path d="M15.6799 67.1568C15.6204 67.1253 15.5821 67.0823 15.5653 67.0277C15.5515 66.9671 15.5604 66.907 15.5918 66.8475L18.6719 61.0115C18.7065 60.946 18.7511 60.9048 18.8057 60.8879C18.8634 60.865 18.9221 60.8694 18.9817 60.9008L22.6102 62.8158C22.6757 62.8504 22.7153 62.898 22.7291 62.9586C22.7519 63.0163 22.746 63.078 22.7115 63.1435L22.5369 63.4742C22.5055 63.5338 22.4579 63.5734 22.3942 63.5931C22.3396 63.61 22.2795 63.6011 22.214 63.5665L19.22 61.9864L18.1021 64.1045L20.9173 65.5903C20.9829 65.6249 21.0225 65.6725 21.0362 65.733C21.0591 65.7908 21.0548 65.8495 21.0233 65.909L20.8441 66.2487C20.8127 66.3082 20.7651 66.3479 20.7014 66.3676C20.6408 66.3813 20.5807 66.3725 20.5211 66.341L17.7059 64.8552L16.423 67.2861C16.3915 67.3457 16.3439 67.3853 16.2802 67.405C16.2197 67.4188 16.1596 67.4099 16.1 67.3785L15.6799 67.1568Z" fill="#007FD3"/>
    <path d="M15.6799 67.1568C15.6204 67.1253 15.5821 67.0823 15.5653 67.0277C15.5515 66.9671 15.5604 66.907 15.5918 66.8475L18.6719 61.0115C18.7065 60.946 18.7511 60.9048 18.8057 60.8879C18.8634 60.865 18.9221 60.8694 18.9817 60.9008L22.6102 62.8158C22.6757 62.8504 22.7153 62.898 22.7291 62.9586C22.7519 63.0163 22.746 63.078 22.7115 63.1435L22.5369 63.4742C22.5055 63.5338 22.4579 63.5734 22.3942 63.5931C22.3396 63.61 22.2795 63.6011 22.214 63.5665L19.22 61.9864L18.1021 64.1045L20.9173 65.5903C20.9829 65.6249 21.0225 65.6725 21.0362 65.733C21.0591 65.7908 21.0548 65.8495 21.0233 65.909L20.8441 66.2487C20.8127 66.3082 20.7651 66.3479 20.7014 66.3676C20.6408 66.3813 20.5807 66.3725 20.5211 66.341L17.7059 64.8552L16.423 67.2861C16.3915 67.3457 16.3439 67.3853 16.2802 67.405C16.2197 67.4188 16.1596 67.4099 16.1 67.3785L15.6799 67.1568Z" fill="url(#paint9_radial_20252_65723)"/>
    <path d="M15.6799 67.1568C15.6204 67.1253 15.5821 67.0823 15.5653 67.0277C15.5515 66.9671 15.5604 66.907 15.5918 66.8475L18.6719 61.0115C18.7065 60.946 18.7511 60.9048 18.8057 60.8879C18.8634 60.865 18.9221 60.8694 18.9817 60.9008L22.6102 62.8158C22.6757 62.8504 22.7153 62.898 22.7291 62.9586C22.7519 63.0163 22.746 63.078 22.7115 63.1435L22.5369 63.4742C22.5055 63.5338 22.4579 63.5734 22.3942 63.5931C22.3396 63.61 22.2795 63.6011 22.214 63.5665L19.22 61.9864L18.1021 64.1045L20.9173 65.5903C20.9829 65.6249 21.0225 65.6725 21.0362 65.733C21.0591 65.7908 21.0548 65.8495 21.0233 65.909L20.8441 66.2487C20.8127 66.3082 20.7651 66.3479 20.7014 66.3676C20.6408 66.3813 20.5807 66.3725 20.5211 66.341L17.7059 64.8552L16.423 67.2861C16.3915 67.3457 16.3439 67.3853 16.2802 67.405C16.2197 67.4188 16.1596 67.4099 16.1 67.3785L15.6799 67.1568Z" fill="url(#paint10_radial_20252_65723)"/>
    <path d="M21.0904 69.6994C21.0271 69.6762 20.9835 69.6387 20.9594 69.5868C20.9377 69.5286 20.9385 69.4679 20.9617 69.4046L23.2369 63.1997C23.2601 63.1364 23.2976 63.0928 23.3495 63.0687C23.4037 63.0384 23.4624 63.0348 23.5257 63.058L24 63.2319C24.0696 63.2574 24.1164 63.2961 24.1405 63.348C24.1645 63.3999 24.1638 63.4606 24.1382 63.5302L21.863 69.7351C21.8398 69.7984 21.7979 69.844 21.7374 69.8721C21.6856 69.8961 21.628 69.8965 21.5648 69.8733L21.0904 69.6994Z" fill="#007FD3"/>
    <path d="M21.0904 69.6994C21.0271 69.6762 20.9835 69.6387 20.9594 69.5868C20.9377 69.5286 20.9385 69.4679 20.9617 69.4046L23.2369 63.1997C23.2601 63.1364 23.2976 63.0928 23.3495 63.0687C23.4037 63.0384 23.4624 63.0348 23.5257 63.058L24 63.2319C24.0696 63.2574 24.1164 63.2961 24.1405 63.348C24.1645 63.3999 24.1638 63.4606 24.1382 63.5302L21.863 69.7351C21.8398 69.7984 21.7979 69.844 21.7374 69.8721C21.6856 69.8961 21.628 69.8965 21.5648 69.8733L21.0904 69.6994Z" fill="url(#paint11_radial_20252_65723)"/>
    <path d="M21.0904 69.6994C21.0271 69.6762 20.9835 69.6387 20.9594 69.5868C20.9377 69.5286 20.9385 69.4679 20.9617 69.4046L23.2369 63.1997C23.2601 63.1364 23.2976 63.0928 23.3495 63.0687C23.4037 63.0384 23.4624 63.0348 23.5257 63.058L24 63.2319C24.0696 63.2574 24.1164 63.2961 24.1405 63.348C24.1645 63.3999 24.1638 63.4606 24.1382 63.5302L21.863 69.7351C21.8398 69.7984 21.7979 69.844 21.7374 69.8721C21.6856 69.8961 21.628 69.8965 21.5648 69.8733L21.0904 69.6994Z" fill="url(#paint12_radial_20252_65723)"/>
    <path d="M24.278 70.7914C24.212 70.7775 24.1635 70.7467 24.1322 70.6988C24.1024 70.6443 24.0944 70.5841 24.1083 70.5182L25.4682 64.0609C25.4835 63.9884 25.5151 63.9366 25.5629 63.9053C25.6122 63.8675 25.6698 63.8555 25.7357 63.8694L29.7999 64.7254C29.8724 64.7406 29.9236 64.7755 29.9534 64.83C29.9913 64.8793 30.0025 64.9401 29.9873 65.0127L29.9123 65.3687C29.8984 65.4346 29.8642 65.4825 29.8097 65.5123C29.7619 65.5435 29.7017 65.5515 29.6292 65.5362L26.2572 64.8261L25.7928 67.0312L28.9472 67.6956C29.0197 67.7108 29.0709 67.7457 29.1007 67.8002C29.1385 67.8494 29.1498 67.9103 29.1345 67.9829L29.0637 68.3191C29.0499 68.385 29.015 68.4362 28.9591 68.4726C28.9112 68.5038 28.851 68.5118 28.7785 68.4965L25.6241 67.8322L25.143 70.1164L28.5941 70.8433C28.6666 70.8585 28.7178 70.8934 28.7476 70.9479C28.7854 70.9972 28.7967 71.058 28.7814 71.1306L28.7065 71.4865C28.6926 71.5525 28.6577 71.6036 28.6019 71.6401C28.5474 71.6699 28.4872 71.6779 28.4212 71.664L24.278 70.7914Z" fill="#007FD3"/>
    <path d="M24.278 70.7914C24.212 70.7775 24.1635 70.7467 24.1322 70.6988C24.1024 70.6443 24.0944 70.5841 24.1083 70.5182L25.4682 64.0609C25.4835 63.9884 25.5151 63.9366 25.5629 63.9053C25.6122 63.8675 25.6698 63.8555 25.7357 63.8694L29.7999 64.7254C29.8724 64.7406 29.9236 64.7755 29.9534 64.83C29.9913 64.8793 30.0025 64.9401 29.9873 65.0127L29.9123 65.3687C29.8984 65.4346 29.8642 65.4825 29.8097 65.5123C29.7619 65.5435 29.7017 65.5515 29.6292 65.5362L26.2572 64.8261L25.7928 67.0312L28.9472 67.6956C29.0197 67.7108 29.0709 67.7457 29.1007 67.8002C29.1385 67.8494 29.1498 67.9103 29.1345 67.9829L29.0637 68.3191C29.0499 68.385 29.015 68.4362 28.9591 68.4726C28.9112 68.5038 28.851 68.5118 28.7785 68.4965L25.6241 67.8322L25.143 70.1164L28.5941 70.8433C28.6666 70.8585 28.7178 70.8934 28.7476 70.9479C28.7854 70.9972 28.7967 71.058 28.7814 71.1306L28.7065 71.4865C28.6926 71.5525 28.6577 71.6036 28.6019 71.6401C28.5474 71.6699 28.4872 71.6779 28.4212 71.664L24.278 70.7914Z" fill="url(#paint13_radial_20252_65723)"/>
    <path d="M24.278 70.7914C24.212 70.7775 24.1635 70.7467 24.1322 70.6988C24.1024 70.6443 24.0944 70.5841 24.1083 70.5182L25.4682 64.0609C25.4835 63.9884 25.5151 63.9366 25.5629 63.9053C25.6122 63.8675 25.6698 63.8555 25.7357 63.8694L29.7999 64.7254C29.8724 64.7406 29.9236 64.7755 29.9534 64.83C29.9913 64.8793 30.0025 64.9401 29.9873 65.0127L29.9123 65.3687C29.8984 65.4346 29.8642 65.4825 29.8097 65.5123C29.7619 65.5435 29.7017 65.5515 29.6292 65.5362L26.2572 64.8261L25.7928 67.0312L28.9472 67.6956C29.0197 67.7108 29.0709 67.7457 29.1007 67.8002C29.1385 67.8494 29.1498 67.9103 29.1345 67.9829L29.0637 68.3191C29.0499 68.385 29.015 68.4362 28.9591 68.4726C28.9112 68.5038 28.851 68.5118 28.7785 68.4965L25.6241 67.8322L25.143 70.1164L28.5941 70.8433C28.6666 70.8585 28.7178 70.8934 28.7476 70.9479C28.7854 70.9972 28.7967 71.058 28.7814 71.1306L28.7065 71.4865C28.6926 71.5525 28.6577 71.6036 28.6019 71.6401C28.5474 71.6699 28.4872 71.6779 28.4212 71.664L24.278 70.7914Z" fill="url(#paint14_radial_20252_65723)"/>
    <path d="M31.5361 72C31.4687 72.0005 31.4147 71.9807 31.3739 71.9406C31.3332 71.8938 31.3125 71.8367 31.312 71.7693L31.261 65.1706C31.2605 65.0965 31.2802 65.0391 31.3204 64.9984C31.3604 64.9509 31.4141 64.9269 31.4815 64.9264L33.7653 64.9087C34.7825 64.9009 35.5186 65.1243 35.9735 65.5789C36.4283 66.0268 36.666 66.7088 36.6866 67.6249C36.6948 67.8202 36.7002 68.0829 36.7028 68.413C36.7053 68.7431 36.704 69.0092 36.6988 69.2114C36.6903 69.8515 36.5899 70.3744 36.3977 70.7801C36.2121 71.179 35.9146 71.4777 35.5052 71.6763C35.0957 71.8748 34.5508 71.9767 33.8704 71.982L31.5361 72ZM33.8134 71.1436C34.285 71.14 34.6584 71.0731 34.9336 70.943C35.2155 70.8061 35.416 70.599 35.5351 70.3219C35.6609 70.0379 35.7287 69.6568 35.7385 69.1784C35.7489 68.774 35.7537 68.5214 35.7529 68.4203C35.752 68.3125 35.7434 68.0633 35.7269 67.6727C35.7082 66.9991 35.5427 66.5086 35.2305 66.2011C34.9249 65.8868 34.4217 65.7323 33.7211 65.7378L32.2155 65.7494L32.2572 71.1556L33.8134 71.1436Z" fill="#007FD3"/>
    <path d="M31.5361 72C31.4687 72.0005 31.4147 71.9807 31.3739 71.9406C31.3332 71.8938 31.3125 71.8367 31.312 71.7693L31.261 65.1706C31.2605 65.0965 31.2802 65.0391 31.3204 64.9984C31.3604 64.9509 31.4141 64.9269 31.4815 64.9264L33.7653 64.9087C34.7825 64.9009 35.5186 65.1243 35.9735 65.5789C36.4283 66.0268 36.666 66.7088 36.6866 67.6249C36.6948 67.8202 36.7002 68.0829 36.7028 68.413C36.7053 68.7431 36.704 69.0092 36.6988 69.2114C36.6903 69.8515 36.5899 70.3744 36.3977 70.7801C36.2121 71.179 35.9146 71.4777 35.5052 71.6763C35.0957 71.8748 34.5508 71.9767 33.8704 71.982L31.5361 72ZM33.8134 71.1436C34.285 71.14 34.6584 71.0731 34.9336 70.943C35.2155 70.8061 35.416 70.599 35.5351 70.3219C35.6609 70.0379 35.7287 69.6568 35.7385 69.1784C35.7489 68.774 35.7537 68.5214 35.7529 68.4203C35.752 68.3125 35.7434 68.0633 35.7269 67.6727C35.7082 66.9991 35.5427 66.5086 35.2305 66.2011C34.9249 65.8868 34.4217 65.7323 33.7211 65.7378L32.2155 65.7494L32.2572 71.1556L33.8134 71.1436Z" fill="url(#paint15_radial_20252_65723)"/>
    <path d="M31.5361 72C31.4687 72.0005 31.4147 71.9807 31.3739 71.9406C31.3332 71.8938 31.3125 71.8367 31.312 71.7693L31.261 65.1706C31.2605 65.0965 31.2802 65.0391 31.3204 64.9984C31.3604 64.9509 31.4141 64.9269 31.4815 64.9264L33.7653 64.9087C34.7825 64.9009 35.5186 65.1243 35.9735 65.5789C36.4283 66.0268 36.666 66.7088 36.6866 67.6249C36.6948 67.8202 36.7002 68.0829 36.7028 68.413C36.7053 68.7431 36.704 69.0092 36.6988 69.2114C36.6903 69.8515 36.5899 70.3744 36.3977 70.7801C36.2121 71.179 35.9146 71.4777 35.5052 71.6763C35.0957 71.8748 34.5508 71.9767 33.8704 71.982L31.5361 72ZM33.8134 71.1436C34.285 71.14 34.6584 71.0731 34.9336 70.943C35.2155 70.8061 35.416 70.599 35.5351 70.3219C35.6609 70.0379 35.7287 69.6568 35.7385 69.1784C35.7489 68.774 35.7537 68.5214 35.7529 68.4203C35.752 68.3125 35.7434 68.0633 35.7269 67.6727C35.7082 66.9991 35.5427 66.5086 35.2305 66.2011C34.9249 65.8868 34.4217 65.7323 33.7211 65.7378L32.2155 65.7494L32.2572 71.1556L33.8134 71.1436Z" fill="url(#paint16_radial_20252_65723)"/>
    <path d="M41.1963 71.361C41.1449 71.3773 41.0938 71.3722 41.0431 71.3459C40.9924 71.3195 40.9589 71.2806 40.9427 71.2293L40.9284 71.1172L41.3466 64.1276C41.3533 63.97 41.4338 63.8669 41.5879 63.8181L42.2046 63.6231C42.3588 63.5744 42.4839 63.6125 42.58 63.7376L46.9408 69.216L46.9936 69.3158C47.0098 69.3672 47.0015 69.4193 46.9688 69.4721C46.9424 69.5228 46.9035 69.5563 46.8521 69.5725L46.3993 69.7157C46.3351 69.7361 46.2754 69.7373 46.2203 69.7194C46.1695 69.693 46.1317 69.6626 46.1066 69.6281L45.1283 68.4113L41.9391 69.4198L41.8479 70.9748C41.831 71.1003 41.768 71.1802 41.6588 71.2148L41.1963 71.361ZM41.9656 68.5317L44.6056 67.6969L42.1918 64.6552L41.9656 68.5317Z" fill="#007FD3"/>
    <path d="M41.1963 71.361C41.1449 71.3773 41.0938 71.3722 41.0431 71.3459C40.9924 71.3195 40.9589 71.2806 40.9427 71.2293L40.9284 71.1172L41.3466 64.1276C41.3533 63.97 41.4338 63.8669 41.5879 63.8181L42.2046 63.6231C42.3588 63.5744 42.4839 63.6125 42.58 63.7376L46.9408 69.216L46.9936 69.3158C47.0098 69.3672 47.0015 69.4193 46.9688 69.4721C46.9424 69.5228 46.9035 69.5563 46.8521 69.5725L46.3993 69.7157C46.3351 69.7361 46.2754 69.7373 46.2203 69.7194C46.1695 69.693 46.1317 69.6626 46.1066 69.6281L45.1283 68.4113L41.9391 69.4198L41.8479 70.9748C41.831 71.1003 41.768 71.1802 41.6588 71.2148L41.1963 71.361ZM41.9656 68.5317L44.6056 67.6969L42.1918 64.6552L41.9656 68.5317Z" fill="url(#paint17_radial_20252_65723)"/>
    <path d="M41.1963 71.361C41.1449 71.3773 41.0938 71.3722 41.0431 71.3459C40.9924 71.3195 40.9589 71.2806 40.9427 71.2293L40.9284 71.1172L41.3466 64.1276C41.3533 63.97 41.4338 63.8669 41.5879 63.8181L42.2046 63.6231C42.3588 63.5744 42.4839 63.6125 42.58 63.7376L46.9408 69.216L46.9936 69.3158C47.0098 69.3672 47.0015 69.4193 46.9688 69.4721C46.9424 69.5228 46.9035 69.5563 46.8521 69.5725L46.3993 69.7157C46.3351 69.7361 46.2754 69.7373 46.2203 69.7194C46.1695 69.693 46.1317 69.6626 46.1066 69.6281L45.1283 68.4113L41.9391 69.4198L41.8479 70.9748C41.831 71.1003 41.768 71.1802 41.6588 71.2148L41.1963 71.361ZM41.9656 68.5317L44.6056 67.6969L42.1918 64.6552L41.9656 68.5317Z" fill="url(#paint18_radial_20252_65723)"/>
    <path d="M50.7186 67.6693C50.6594 67.7014 50.5994 67.7109 50.5387 67.6979C50.4807 67.6757 50.4357 67.635 50.4036 67.5757L47.5575 62.3251L45.8429 63.2545C45.7836 63.2866 45.7237 63.2962 45.6629 63.2831C45.6049 63.2609 45.5599 63.2202 45.5278 63.161L45.34 62.8145C45.3047 62.7493 45.2951 62.6893 45.3114 62.6345C45.3304 62.5706 45.3695 62.5226 45.4287 62.4905L49.6932 60.179C49.7583 60.1437 49.8199 60.1371 49.8779 60.1593C49.9327 60.1756 49.9778 60.2163 50.0131 60.2815L50.2009 60.6279C50.233 60.6872 50.2396 60.7488 50.2206 60.8127C50.2043 60.8675 50.1665 60.9109 50.1073 60.943L48.4015 61.8676L51.2476 67.1182C51.2797 67.1775 51.2862 67.2391 51.2672 67.303C51.245 67.361 51.2043 67.4061 51.1451 67.4382L50.7186 67.6693Z" fill="#007FD3"/>
    <path d="M50.7186 67.6693C50.6594 67.7014 50.5994 67.7109 50.5387 67.6979C50.4807 67.6757 50.4357 67.635 50.4036 67.5757L47.5575 62.3251L45.8429 63.2545C45.7836 63.2866 45.7237 63.2962 45.6629 63.2831C45.6049 63.2609 45.5599 63.2202 45.5278 63.161L45.34 62.8145C45.3047 62.7493 45.2951 62.6893 45.3114 62.6345C45.3304 62.5706 45.3695 62.5226 45.4287 62.4905L49.6932 60.179C49.7583 60.1437 49.8199 60.1371 49.8779 60.1593C49.9327 60.1756 49.9778 60.2163 50.0131 60.2815L50.2009 60.6279C50.233 60.6872 50.2396 60.7488 50.2206 60.8127C50.2043 60.8675 50.1665 60.9109 50.1073 60.943L48.4015 61.8676L51.2476 67.1182C51.2797 67.1775 51.2862 67.2391 51.2672 67.303C51.245 67.361 51.2043 67.4061 51.1451 67.4382L50.7186 67.6693Z" fill="url(#paint19_radial_20252_65723)"/>
    <path d="M50.7186 67.6693C50.6594 67.7014 50.5994 67.7109 50.5387 67.6979C50.4807 67.6757 50.4357 67.635 50.4036 67.5757L47.5575 62.3251L45.8429 63.2545C45.7836 63.2866 45.7237 63.2962 45.6629 63.2831C45.6049 63.2609 45.5599 63.2202 45.5278 63.161L45.34 62.8145C45.3047 62.7493 45.2951 62.6893 45.3114 62.6345C45.3304 62.5706 45.3695 62.5226 45.4287 62.4905L49.6932 60.179C49.7583 60.1437 49.8199 60.1371 49.8779 60.1593C49.9327 60.1756 49.9778 60.2163 50.0131 60.2815L50.2009 60.6279C50.233 60.6872 50.2396 60.7488 50.2206 60.8127C50.2043 60.8675 50.1665 60.9109 50.1073 60.943L48.4015 61.8676L51.2476 67.1182C51.2797 67.1775 51.2862 67.2391 51.2672 67.303C51.245 67.361 51.2043 67.4061 51.1451 67.4382L50.7186 67.6693Z" fill="url(#paint20_radial_20252_65723)"/>
    <path d="M58.9928 61.6196C58.3736 62.2389 57.7328 62.5556 57.0707 62.5699C56.4037 62.5795 55.7321 62.2651 55.0556 61.6267C54.9079 61.4886 54.7031 61.2885 54.4411 61.0265C54.1791 60.7645 53.9814 60.562 53.848 60.4191C53.2192 59.7522 52.9119 59.0781 52.9262 58.3969C52.9453 57.7109 53.2525 57.0702 53.848 56.4747C54.4435 55.8792 55.0818 55.5744 55.763 55.5601C56.4442 55.5458 57.1183 55.853 57.7852 56.4819C58.0711 56.7486 58.2759 56.9439 58.3998 57.0678C58.5188 57.1869 58.7165 57.3941 58.9928 57.6895C59.6312 58.3659 59.9456 59.0376 59.9361 59.7045C59.9265 60.3619 59.6121 61.0003 58.9928 61.6196ZM58.3998 61.0265C58.7809 60.6454 58.9714 60.2262 58.9714 59.7688C58.9666 59.3068 58.7356 58.828 58.2783 58.3326C58.002 58.0372 57.8162 57.8419 57.7209 57.7466C57.6161 57.6418 57.4208 57.456 57.135 57.1893C56.6396 56.7319 56.1608 56.5009 55.6987 56.4961C55.2366 56.4914 54.815 56.6795 54.4339 57.0606C54.0528 57.4417 53.8623 57.8657 53.8623 58.3326C53.867 58.7947 54.1005 59.271 54.5626 59.7617C54.6959 59.9046 54.8841 60.0975 55.1271 60.3405C55.3652 60.5787 55.5582 60.7669 55.7059 60.905C56.1965 61.3671 56.6729 61.6005 57.135 61.6053C57.5923 61.6053 58.0139 61.4123 58.3998 61.0265Z" fill="#007FD3"/>
    <path d="M58.9928 61.6196C58.3736 62.2389 57.7328 62.5556 57.0707 62.5699C56.4037 62.5795 55.7321 62.2651 55.0556 61.6267C54.9079 61.4886 54.7031 61.2885 54.4411 61.0265C54.1791 60.7645 53.9814 60.562 53.848 60.4191C53.2192 59.7522 52.9119 59.0781 52.9262 58.3969C52.9453 57.7109 53.2525 57.0702 53.848 56.4747C54.4435 55.8792 55.0818 55.5744 55.763 55.5601C56.4442 55.5458 57.1183 55.853 57.7852 56.4819C58.0711 56.7486 58.2759 56.9439 58.3998 57.0678C58.5188 57.1869 58.7165 57.3941 58.9928 57.6895C59.6312 58.3659 59.9456 59.0376 59.9361 59.7045C59.9265 60.3619 59.6121 61.0003 58.9928 61.6196ZM58.3998 61.0265C58.7809 60.6454 58.9714 60.2262 58.9714 59.7688C58.9666 59.3068 58.7356 58.828 58.2783 58.3326C58.002 58.0372 57.8162 57.8419 57.7209 57.7466C57.6161 57.6418 57.4208 57.456 57.135 57.1893C56.6396 56.7319 56.1608 56.5009 55.6987 56.4961C55.2366 56.4914 54.815 56.6795 54.4339 57.0606C54.0528 57.4417 53.8623 57.8657 53.8623 58.3326C53.867 58.7947 54.1005 59.271 54.5626 59.7617C54.6959 59.9046 54.8841 60.0975 55.1271 60.3405C55.3652 60.5787 55.5582 60.7669 55.7059 60.905C56.1965 61.3671 56.6729 61.6005 57.135 61.6053C57.5923 61.6053 58.0139 61.4123 58.3998 61.0265Z" fill="url(#paint21_radial_20252_65723)"/>
    <path d="M58.9928 61.6196C58.3736 62.2389 57.7328 62.5556 57.0707 62.5699C56.4037 62.5795 55.7321 62.2651 55.0556 61.6267C54.9079 61.4886 54.7031 61.2885 54.4411 61.0265C54.1791 60.7645 53.9814 60.562 53.848 60.4191C53.2192 59.7522 52.9119 59.0781 52.9262 58.3969C52.9453 57.7109 53.2525 57.0702 53.848 56.4747C54.4435 55.8792 55.0818 55.5744 55.763 55.5601C56.4442 55.5458 57.1183 55.853 57.7852 56.4819C58.0711 56.7486 58.2759 56.9439 58.3998 57.0678C58.5188 57.1869 58.7165 57.3941 58.9928 57.6895C59.6312 58.3659 59.9456 59.0376 59.9361 59.7045C59.9265 60.3619 59.6121 61.0003 58.9928 61.6196ZM58.3998 61.0265C58.7809 60.6454 58.9714 60.2262 58.9714 59.7688C58.9666 59.3068 58.7356 58.828 58.2783 58.3326C58.002 58.0372 57.8162 57.8419 57.7209 57.7466C57.6161 57.6418 57.4208 57.456 57.135 57.1893C56.6396 56.7319 56.1608 56.5009 55.6987 56.4961C55.2366 56.4914 54.815 56.6795 54.4339 57.0606C54.0528 57.4417 53.8623 57.8657 53.8623 58.3326C53.867 58.7947 54.1005 59.271 54.5626 59.7617C54.6959 59.9046 54.8841 60.0975 55.1271 60.3405C55.3652 60.5787 55.5582 60.7669 55.7059 60.905C56.1965 61.3671 56.6729 61.6005 57.135 61.6053C57.5923 61.6053 58.0139 61.4123 58.3998 61.0265Z" fill="url(#paint22_radial_20252_65723)"/>
    <path d="M62.7422 57.1693C62.7062 57.2263 62.6604 57.2611 62.6046 57.2737C62.5432 57.2827 62.484 57.2692 62.427 57.2333L56.8466 53.7113C56.7839 53.6718 56.7463 53.6241 56.7337 53.5684C56.7154 53.509 56.7242 53.4509 56.7601 53.3939L58.0761 51.3087C58.486 50.6592 58.9599 50.2493 59.4976 50.0788C60.0333 49.8991 60.5917 49.9926 61.1728 50.3593C61.6058 50.6326 61.8936 50.9656 62.0361 51.3582C62.1786 51.7509 62.1818 52.1751 62.0455 52.6309L65.1578 52.7549C65.2028 52.7593 65.2395 52.7706 65.268 52.7885C65.3136 52.8173 65.3427 52.8596 65.3553 52.9153C65.3679 52.9711 65.3598 53.0218 65.331 53.0673L65.0937 53.4433C65.0398 53.5288 64.9767 53.5846 64.9045 53.6107C64.8358 53.6311 64.7519 53.6379 64.6527 53.631L61.6721 53.5065L60.7121 55.0277L62.934 56.43C62.9909 56.4659 63.0268 56.5164 63.0415 56.5815C63.0505 56.6429 63.037 56.7021 63.0011 56.7591L62.7422 57.1693ZM60.9174 53.1497C61.4604 52.2894 61.37 51.631 60.6465 51.1743C59.923 50.7177 59.2897 50.9195 58.7468 51.7798L57.8407 53.2155L60.0113 54.5854L60.9174 53.1497Z" fill="#007FD3"/>
    <path d="M62.7422 57.1693C62.7062 57.2263 62.6604 57.2611 62.6046 57.2737C62.5432 57.2827 62.484 57.2692 62.427 57.2333L56.8466 53.7113C56.7839 53.6718 56.7463 53.6241 56.7337 53.5684C56.7154 53.509 56.7242 53.4509 56.7601 53.3939L58.0761 51.3087C58.486 50.6592 58.9599 50.2493 59.4976 50.0788C60.0333 49.8991 60.5917 49.9926 61.1728 50.3593C61.6058 50.6326 61.8936 50.9656 62.0361 51.3582C62.1786 51.7509 62.1818 52.1751 62.0455 52.6309L65.1578 52.7549C65.2028 52.7593 65.2395 52.7706 65.268 52.7885C65.3136 52.8173 65.3427 52.8596 65.3553 52.9153C65.3679 52.9711 65.3598 53.0218 65.331 53.0673L65.0937 53.4433C65.0398 53.5288 64.9767 53.5846 64.9045 53.6107C64.8358 53.6311 64.7519 53.6379 64.6527 53.631L61.6721 53.5065L60.7121 55.0277L62.934 56.43C62.9909 56.4659 63.0268 56.5164 63.0415 56.5815C63.0505 56.6429 63.037 56.7021 63.0011 56.7591L62.7422 57.1693ZM60.9174 53.1497C61.4604 52.2894 61.37 51.631 60.6465 51.1743C59.923 50.7177 59.2897 50.9195 58.7468 51.7798L57.8407 53.2155L60.0113 54.5854L60.9174 53.1497Z" fill="url(#paint23_radial_20252_65723)"/>
    <path d="M62.7422 57.1693C62.7062 57.2263 62.6604 57.2611 62.6046 57.2737C62.5432 57.2827 62.484 57.2692 62.427 57.2333L56.8466 53.7113C56.7839 53.6718 56.7463 53.6241 56.7337 53.5684C56.7154 53.509 56.7242 53.4509 56.7601 53.3939L58.0761 51.3087C58.486 50.6592 58.9599 50.2493 59.4976 50.0788C60.0333 49.8991 60.5917 49.9926 61.1728 50.3593C61.6058 50.6326 61.8936 50.9656 62.0361 51.3582C62.1786 51.7509 62.1818 52.1751 62.0455 52.6309L65.1578 52.7549C65.2028 52.7593 65.2395 52.7706 65.268 52.7885C65.3136 52.8173 65.3427 52.8596 65.3553 52.9153C65.3679 52.9711 65.3598 53.0218 65.331 53.0673L65.0937 53.4433C65.0398 53.5288 64.9767 53.5846 64.9045 53.6107C64.8358 53.6311 64.7519 53.6379 64.6527 53.631L61.6721 53.5065L60.7121 55.0277L62.934 56.43C62.9909 56.4659 63.0268 56.5164 63.0415 56.5815C63.0505 56.6429 63.037 56.7021 63.0011 56.7591L62.7422 57.1693ZM60.9174 53.1497C61.4604 52.2894 61.37 51.631 60.6465 51.1743C59.923 50.7177 59.2897 50.9195 58.7468 51.7798L57.8407 53.2155L60.0113 54.5854L60.9174 53.1497Z" fill="url(#paint24_radial_20252_65723)"/>
    <path d="M66.6198 50.3197C66.5973 50.3832 66.5603 50.4273 66.5087 50.4519C66.4507 50.4743 66.39 50.4742 66.3265 50.4517L60.1058 48.25C60.0359 48.2252 59.9887 48.1871 59.9641 48.1355C59.9331 48.0816 59.9289 48.023 59.9513 47.9595L60.8718 45.3588C61.1101 44.6856 61.4519 44.2348 61.8972 44.0065C62.3424 43.7782 62.8255 43.7562 63.3462 43.9405C63.7019 44.0664 63.9712 44.2546 64.154 44.5052C64.3306 44.7535 64.4335 45.0079 64.4628 45.2683C64.6928 45.0425 64.9801 44.8869 65.3248 44.8016C65.6694 44.7163 66.0227 44.7378 66.3847 44.8659C66.7404 44.9918 67.035 45.189 67.2687 45.4575C67.5047 45.7197 67.6522 46.0399 67.7113 46.4181C67.7704 46.7964 67.7223 47.2046 67.5672 47.6428L66.6198 50.3197ZM63.6506 46.5031C63.7967 46.0903 63.8159 45.7433 63.7081 45.4622C63.594 45.1788 63.3687 44.9776 63.0321 44.8584C62.7018 44.7415 62.4128 44.7607 62.1648 44.916C61.9192 45.0648 61.7222 45.3489 61.5738 45.768L60.9467 47.5399L63.0234 48.275L63.6506 46.5031ZM66.7708 47.5003C66.9147 47.0938 66.9191 46.7381 66.7841 46.433C66.645 46.1193 66.404 45.9018 66.061 45.7804C65.7117 45.6568 65.3875 45.6743 65.0884 45.8328C64.7916 45.985 64.5712 46.2644 64.4273 46.6708L63.7665 48.538L66.11 49.3674L66.7708 47.5003Z" fill="#007FD3"/>
    <path d="M66.6198 50.3197C66.5973 50.3832 66.5603 50.4273 66.5087 50.4519C66.4507 50.4743 66.39 50.4742 66.3265 50.4517L60.1058 48.25C60.0359 48.2252 59.9887 48.1871 59.9641 48.1355C59.9331 48.0816 59.9289 48.023 59.9513 47.9595L60.8718 45.3588C61.1101 44.6856 61.4519 44.2348 61.8972 44.0065C62.3424 43.7782 62.8255 43.7562 63.3462 43.9405C63.7019 44.0664 63.9712 44.2546 64.154 44.5052C64.3306 44.7535 64.4335 45.0079 64.4628 45.2683C64.6928 45.0425 64.9801 44.8869 65.3248 44.8016C65.6694 44.7163 66.0227 44.7378 66.3847 44.8659C66.7404 44.9918 67.035 45.189 67.2687 45.4575C67.5047 45.7197 67.6522 46.0399 67.7113 46.4181C67.7704 46.7964 67.7223 47.2046 67.5672 47.6428L66.6198 50.3197ZM63.6506 46.5031C63.7967 46.0903 63.8159 45.7433 63.7081 45.4622C63.594 45.1788 63.3687 44.9776 63.0321 44.8584C62.7018 44.7415 62.4128 44.7607 62.1648 44.916C61.9192 45.0648 61.7222 45.3489 61.5738 45.768L60.9467 47.5399L63.0234 48.275L63.6506 46.5031ZM66.7708 47.5003C66.9147 47.0938 66.9191 46.7381 66.7841 46.433C66.645 46.1193 66.404 45.9018 66.061 45.7804C65.7117 45.6568 65.3875 45.6743 65.0884 45.8328C64.7916 45.985 64.5712 46.2644 64.4273 46.6708L63.7665 48.538L66.11 49.3674L66.7708 47.5003Z" fill="url(#paint25_radial_20252_65723)"/>
    <path d="M66.6198 50.3197C66.5973 50.3832 66.5603 50.4273 66.5087 50.4519C66.4507 50.4743 66.39 50.4742 66.3265 50.4517L60.1058 48.25C60.0359 48.2252 59.9887 48.1871 59.9641 48.1355C59.9331 48.0816 59.9289 48.023 59.9513 47.9595L60.8718 45.3588C61.1101 44.6856 61.4519 44.2348 61.8972 44.0065C62.3424 43.7782 62.8255 43.7562 63.3462 43.9405C63.7019 44.0664 63.9712 44.2546 64.154 44.5052C64.3306 44.7535 64.4335 45.0079 64.4628 45.2683C64.6928 45.0425 64.9801 44.8869 65.3248 44.8016C65.6694 44.7163 66.0227 44.7378 66.3847 44.8659C66.7404 44.9918 67.035 45.189 67.2687 45.4575C67.5047 45.7197 67.6522 46.0399 67.7113 46.4181C67.7704 46.7964 67.7223 47.2046 67.5672 47.6428L66.6198 50.3197ZM63.6506 46.5031C63.7967 46.0903 63.8159 45.7433 63.7081 45.4622C63.594 45.1788 63.3687 44.9776 63.0321 44.8584C62.7018 44.7415 62.4128 44.7607 62.1648 44.916C61.9192 45.0648 61.7222 45.3489 61.5738 45.768L60.9467 47.5399L63.0234 48.275L63.6506 46.5031ZM66.7708 47.5003C66.9147 47.0938 66.9191 46.7381 66.7841 46.433C66.645 46.1193 66.404 45.9018 66.061 45.7804C65.7117 45.6568 65.3875 45.6743 65.0884 45.8328C64.7916 45.985 64.5712 46.2644 64.4273 46.6708L63.7665 48.538L66.11 49.3674L66.7708 47.5003Z" fill="url(#paint26_radial_20252_65723)"/>
    <path d="M1.88049 34.2682C2.52571 34.2682 3.04876 33.7452 3.04876 33.1C3.04876 32.4548 2.52571 31.9317 1.88049 31.9317C1.23528 31.9317 0.712223 32.4548 0.712223 33.1C0.712223 33.7452 1.23528 34.2682 1.88049 34.2682Z" fill="#007FD3"/>
    <path d="M1.88049 34.2682C2.52571 34.2682 3.04876 33.7452 3.04876 33.1C3.04876 32.4548 2.52571 31.9317 1.88049 31.9317C1.23528 31.9317 0.712223 32.4548 0.712223 33.1C0.712223 33.7452 1.23528 34.2682 1.88049 34.2682Z" fill="url(#paint27_radial_20252_65723)"/>
    <path d="M1.88049 34.2682C2.52571 34.2682 3.04876 33.7452 3.04876 33.1C3.04876 32.4548 2.52571 31.9317 1.88049 31.9317C1.23528 31.9317 0.712223 32.4548 0.712223 33.1C0.712223 33.7452 1.23528 34.2682 1.88049 34.2682Z" fill="url(#paint28_radial_20252_65723)"/>
    <path d="M66.2542 31.9275C65.6079 31.9275 65.0859 32.4495 65.0859 33.0958C65.0859 33.7421 65.6079 34.2641 66.2542 34.2641C66.9005 34.2641 67.4225 33.7421 67.4225 33.0958C67.4225 32.4495 66.9005 31.9275 66.2542 31.9275Z" fill="#007FD3"/>
    <path d="M66.2542 31.9275C65.6079 31.9275 65.0859 32.4495 65.0859 33.0958C65.0859 33.7421 65.6079 34.2641 66.2542 34.2641C66.9005 34.2641 67.4225 33.7421 67.4225 33.0958C67.4225 32.4495 66.9005 31.9275 66.2542 31.9275Z" fill="url(#paint29_radial_20252_65723)"/>
    <path d="M66.2542 31.9275C65.6079 31.9275 65.0859 32.4495 65.0859 33.0958C65.0859 33.7421 65.6079 34.2641 66.2542 34.2641C66.9005 34.2641 67.4225 33.7421 67.4225 33.0958C67.4225 32.4495 66.9005 31.9275 66.2542 31.9275Z" fill="url(#paint30_radial_20252_65723)"/>
    <path d="M8.29526 21.9785C8.20174 22.1186 8.07092 22.1568 7.9028 22.0932L1.77485 19.5695L1.67117 19.5246C1.62635 19.4947 1.59835 19.4517 1.58718 19.3956C1.576 19.3395 1.58538 19.2891 1.6153 19.2443L1.89024 18.8325C1.9688 18.7148 2.06131 18.6793 2.16778 18.7261L7.1329 20.7894L4.73008 17.8365C4.61805 17.7131 4.60879 17.5814 4.70231 17.4413L4.8987 17.1472C4.98847 17.0127 5.11556 16.9679 5.27996 17.0129L8.92281 18.1084L5.11357 14.3137C5.02954 14.2333 5.02867 14.1315 5.11096 14.0082L5.38029 13.6048C5.41022 13.56 5.45321 13.532 5.50927 13.5208C5.56534 13.5096 5.61578 13.519 5.6606 13.5489C5.69422 13.5714 5.72317 13.5948 5.74744 13.6191L10.4221 18.3195C10.5491 18.4448 10.564 18.5803 10.4667 18.726L10.2647 19.0285C10.1712 19.1686 10.0394 19.2143 9.86944 19.1656L5.93792 18.0475L8.4723 21.2584C8.58619 21.3911 8.59638 21.5275 8.50286 21.6676L8.29526 21.9785Z" fill="#007FD3"/>
    <path d="M8.29526 21.9785C8.20174 22.1186 8.07092 22.1568 7.9028 22.0932L1.77485 19.5695L1.67117 19.5246C1.62635 19.4947 1.59835 19.4517 1.58718 19.3956C1.576 19.3395 1.58538 19.2891 1.6153 19.2443L1.89024 18.8325C1.9688 18.7148 2.06131 18.6793 2.16778 18.7261L7.1329 20.7894L4.73008 17.8365C4.61805 17.7131 4.60879 17.5814 4.70231 17.4413L4.8987 17.1472C4.98847 17.0127 5.11556 16.9679 5.27996 17.0129L8.92281 18.1084L5.11357 14.3137C5.02954 14.2333 5.02867 14.1315 5.11096 14.0082L5.38029 13.6048C5.41022 13.56 5.45321 13.532 5.50927 13.5208C5.56534 13.5096 5.61578 13.519 5.6606 13.5489C5.69422 13.5714 5.72317 13.5948 5.74744 13.6191L10.4221 18.3195C10.5491 18.4448 10.564 18.5803 10.4667 18.726L10.2647 19.0285C10.1712 19.1686 10.0394 19.2143 9.86944 19.1656L5.93792 18.0475L8.4723 21.2584C8.58619 21.3911 8.59638 21.5275 8.50286 21.6676L8.29526 21.9785Z" fill="url(#paint31_radial_20252_65723)"/>
    <path d="M8.29526 21.9785C8.20174 22.1186 8.07092 22.1568 7.9028 22.0932L1.77485 19.5695L1.67117 19.5246C1.62635 19.4947 1.59835 19.4517 1.58718 19.3956C1.576 19.3395 1.58538 19.2891 1.6153 19.2443L1.89024 18.8325C1.9688 18.7148 2.06131 18.6793 2.16778 18.7261L7.1329 20.7894L4.73008 17.8365C4.61805 17.7131 4.60879 17.5814 4.70231 17.4413L4.8987 17.1472C4.98847 17.0127 5.11556 16.9679 5.27996 17.0129L8.92281 18.1084L5.11357 14.3137C5.02954 14.2333 5.02867 14.1315 5.11096 14.0082L5.38029 13.6048C5.41022 13.56 5.45321 13.532 5.50927 13.5208C5.56534 13.5096 5.61578 13.519 5.6606 13.5489C5.69422 13.5714 5.72317 13.5948 5.74744 13.6191L10.4221 18.3195C10.5491 18.4448 10.564 18.5803 10.4667 18.726L10.2647 19.0285C10.1712 19.1686 10.0394 19.2143 9.86944 19.1656L5.93792 18.0475L8.4723 21.2584C8.58619 21.3911 8.59638 21.5275 8.50286 21.6676L8.29526 21.9785Z" fill="url(#paint32_radial_20252_65723)"/>
    <path d="M13.9578 15.0351C13.3186 15.6338 12.6678 15.9295 12.0056 15.9221C11.3387 15.9098 10.6776 15.5736 10.0224 14.9135C9.87933 14.7706 9.68114 14.564 9.42784 14.2935C9.17454 14.0231 8.98357 13.8143 8.85493 13.6671C8.24825 12.9799 7.9632 12.2962 7.99975 11.6158C8.04123 10.9308 8.36927 10.3005 8.98389 9.72479C9.59851 9.14911 10.2465 8.86526 10.9278 8.87325C11.6091 8.88124 12.2728 9.21038 12.9188 9.86066C13.1957 10.1366 13.3941 10.3385 13.5138 10.4664C13.629 10.5893 13.8198 10.8029 14.0863 11.1071C14.7022 11.8041 14.9944 12.4857 14.9631 13.1519C14.9321 13.8087 14.597 14.4364 13.9578 15.0351ZM13.3844 14.423C13.7778 14.0545 13.9819 13.6418 13.9969 13.1847C14.0072 12.7227 13.7919 12.2366 13.3511 11.7265C13.0846 11.4223 12.9053 11.221 12.8132 11.1227C12.7118 11.0145 12.5227 10.8224 12.2458 10.5464C11.7655 10.0732 11.2946 9.8266 10.8329 9.80673C10.3712 9.78686 9.94372 9.96114 9.55036 10.3296C9.15701 10.698 8.95269 11.1155 8.93743 11.5821C8.92708 12.0441 9.14481 12.5279 9.5906 13.0334C9.71924 13.1806 9.901 13.3796 10.1359 13.6303C10.3662 13.8762 10.5528 14.0706 10.6959 14.2135C11.1712 14.6913 11.6397 14.9402 12.1014 14.9601C12.5585 14.975 12.9861 14.796 13.3844 14.423Z" fill="#007FD3"/>
    <path d="M13.9578 15.0351C13.3186 15.6338 12.6678 15.9295 12.0056 15.9221C11.3387 15.9098 10.6776 15.5736 10.0224 14.9135C9.87933 14.7706 9.68114 14.564 9.42784 14.2935C9.17454 14.0231 8.98357 13.8143 8.85493 13.6671C8.24825 12.9799 7.9632 12.2962 7.99975 11.6158C8.04123 10.9308 8.36927 10.3005 8.98389 9.72479C9.59851 9.14911 10.2465 8.86526 10.9278 8.87325C11.6091 8.88124 12.2728 9.21038 12.9188 9.86066C13.1957 10.1366 13.3941 10.3385 13.5138 10.4664C13.629 10.5893 13.8198 10.8029 14.0863 11.1071C14.7022 11.8041 14.9944 12.4857 14.9631 13.1519C14.9321 13.8087 14.597 14.4364 13.9578 15.0351ZM13.3844 14.423C13.7778 14.0545 13.9819 13.6418 13.9969 13.1847C14.0072 12.7227 13.7919 12.2366 13.3511 11.7265C13.0846 11.4223 12.9053 11.221 12.8132 11.1227C12.7118 11.0145 12.5227 10.8224 12.2458 10.5464C11.7655 10.0732 11.2946 9.8266 10.8329 9.80673C10.3712 9.78686 9.94372 9.96114 9.55036 10.3296C9.15701 10.698 8.95269 11.1155 8.93743 11.5821C8.92708 12.0441 9.14481 12.5279 9.5906 13.0334C9.71924 13.1806 9.901 13.3796 10.1359 13.6303C10.3662 13.8762 10.5528 14.0706 10.6959 14.2135C11.1712 14.6913 11.6397 14.9402 12.1014 14.9601C12.5585 14.975 12.9861 14.796 13.3844 14.423Z" fill="url(#paint33_radial_20252_65723)"/>
    <path d="M13.9578 15.0351C13.3186 15.6338 12.6678 15.9295 12.0056 15.9221C11.3387 15.9098 10.6776 15.5736 10.0224 14.9135C9.87933 14.7706 9.68114 14.564 9.42784 14.2935C9.17454 14.0231 8.98357 13.8143 8.85493 13.6671C8.24825 12.9799 7.9632 12.2962 7.99975 11.6158C8.04123 10.9308 8.36927 10.3005 8.98389 9.72479C9.59851 9.14911 10.2465 8.86526 10.9278 8.87325C11.6091 8.88124 12.2728 9.21038 12.9188 9.86066C13.1957 10.1366 13.3941 10.3385 13.5138 10.4664C13.629 10.5893 13.8198 10.8029 14.0863 11.1071C14.7022 11.8041 14.9944 12.4857 14.9631 13.1519C14.9321 13.8087 14.597 14.4364 13.9578 15.0351ZM13.3844 14.423C13.7778 14.0545 13.9819 13.6418 13.9969 13.1847C14.0072 12.7227 13.7919 12.2366 13.3511 11.7265C13.0846 11.4223 12.9053 11.221 12.8132 11.1227C12.7118 11.0145 12.5227 10.8224 12.2458 10.5464C11.7655 10.0732 11.2946 9.8266 10.8329 9.80673C10.3712 9.78686 9.94372 9.96114 9.55036 10.3296C9.15701 10.698 8.95269 11.1155 8.93743 11.5821C8.92708 12.0441 9.14481 12.5279 9.5906 13.0334C9.71924 13.1806 9.901 13.3796 10.1359 13.6303C10.3662 13.8762 10.5528 14.0706 10.6959 14.2135C11.1712 14.6913 11.6397 14.9402 12.1014 14.9601C12.5585 14.975 12.9861 14.796 13.3844 14.423Z" fill="url(#paint34_radial_20252_65723)"/>
    <path d="M17.2295 12.1461C17.1714 12.1801 17.1147 12.1899 17.0594 12.1755C17.0006 12.1552 16.9543 12.116 16.9202 12.0579L13.5848 6.36402C13.5474 6.30008 13.5359 6.24045 13.5503 6.18514C13.5613 6.12402 13.5959 6.07643 13.6541 6.04238L15.7816 4.79608C16.4443 4.40788 17.0536 4.26177 17.6095 4.35775C18.1678 4.4445 18.6207 4.78434 18.968 5.37727C19.2268 5.81906 19.3292 6.24708 19.2751 6.66131C19.2211 7.07555 19.0288 7.45367 18.6982 7.79567L21.4048 9.33719C21.4427 9.36185 21.4701 9.38872 21.4871 9.41778C21.5144 9.46429 21.5208 9.51519 21.5063 9.5705C21.4919 9.62581 21.4614 9.66709 21.4149 9.69433L21.0312 9.91907C20.944 9.97015 20.8624 9.99067 20.7862 9.98062C20.7159 9.96717 20.6382 9.93458 20.5533 9.88285L17.9639 8.40149L16.4118 9.31068L17.7398 11.5778C17.7739 11.6359 17.7825 11.6972 17.7656 11.7618C17.7454 11.8205 17.7062 11.8668 17.648 11.9009L17.2295 12.1461ZM17.4579 7.73756C18.3356 7.22338 18.5583 6.59716 18.1258 5.8589C17.6934 5.12064 17.0382 5.00861 16.1605 5.52279L14.6956 6.3809L15.993 8.59567L17.4579 7.73756Z" fill="#007FD3"/>
    <path d="M17.2295 12.1461C17.1714 12.1801 17.1147 12.1899 17.0594 12.1755C17.0006 12.1552 16.9543 12.116 16.9202 12.0579L13.5848 6.36402C13.5474 6.30008 13.5359 6.24045 13.5503 6.18514C13.5613 6.12402 13.5959 6.07643 13.6541 6.04238L15.7816 4.79608C16.4443 4.40788 17.0536 4.26177 17.6095 4.35775C18.1678 4.4445 18.6207 4.78434 18.968 5.37727C19.2268 5.81906 19.3292 6.24708 19.2751 6.66131C19.2211 7.07555 19.0288 7.45367 18.6982 7.79567L21.4048 9.33719C21.4427 9.36185 21.4701 9.38872 21.4871 9.41778C21.5144 9.46429 21.5208 9.51519 21.5063 9.5705C21.4919 9.62581 21.4614 9.66709 21.4149 9.69433L21.0312 9.91907C20.944 9.97015 20.8624 9.99067 20.7862 9.98062C20.7159 9.96717 20.6382 9.93458 20.5533 9.88285L17.9639 8.40149L16.4118 9.31068L17.7398 11.5778C17.7739 11.6359 17.7825 11.6972 17.7656 11.7618C17.7454 11.8205 17.7062 11.8668 17.648 11.9009L17.2295 12.1461ZM17.4579 7.73756C18.3356 7.22338 18.5583 6.59716 18.1258 5.8589C17.6934 5.12064 17.0382 5.00861 16.1605 5.52279L14.6956 6.3809L15.993 8.59567L17.4579 7.73756Z" fill="url(#paint35_radial_20252_65723)"/>
    <path d="M17.2295 12.1461C17.1714 12.1801 17.1147 12.1899 17.0594 12.1755C17.0006 12.1552 16.9543 12.116 16.9202 12.0579L13.5848 6.36402C13.5474 6.30008 13.5359 6.24045 13.5503 6.18514C13.5613 6.12402 13.5959 6.07643 13.6541 6.04238L15.7816 4.79608C16.4443 4.40788 17.0536 4.26177 17.6095 4.35775C18.1678 4.4445 18.6207 4.78434 18.968 5.37727C19.2268 5.81906 19.3292 6.24708 19.2751 6.66131C19.2211 7.07555 19.0288 7.45367 18.6982 7.79567L21.4048 9.33719C21.4427 9.36185 21.4701 9.38872 21.4871 9.41778C21.5144 9.46429 21.5208 9.51519 21.5063 9.5705C21.4919 9.62581 21.4614 9.66709 21.4149 9.69433L21.0312 9.91907C20.944 9.97015 20.8624 9.99067 20.7862 9.98062C20.7159 9.96717 20.6382 9.93458 20.5533 9.88285L17.9639 8.40149L16.4118 9.31068L17.7398 11.5778C17.7739 11.6359 17.7825 11.6972 17.7656 11.7618C17.7454 11.8205 17.7062 11.8668 17.648 11.9009L17.2295 12.1461ZM17.4579 7.73756C18.3356 7.22338 18.5583 6.59716 18.1258 5.8589C17.6934 5.12064 17.0382 5.00861 16.1605 5.52279L14.6956 6.3809L15.993 8.59567L17.4579 7.73756Z" fill="url(#paint36_radial_20252_65723)"/>
    <path d="M22.7919 9.15603C22.7282 9.17779 22.6706 9.17607 22.6193 9.15088C22.5658 9.1193 22.5282 9.07163 22.5064 9.00787L20.3718 2.75314C20.35 2.68938 20.3517 2.63184 20.3769 2.58053C20.4 2.52285 20.4433 2.48312 20.5071 2.46136L20.9853 2.29816C21.0491 2.2764 21.1077 2.28131 21.1612 2.31288C21.2125 2.33808 21.249 2.38256 21.2708 2.44632L23.2063 8.11766L26.4006 7.02748C26.4708 7.00355 26.5326 7.00737 26.5861 7.03894C26.6438 7.06196 26.6835 7.10536 26.7052 7.16911L26.8293 7.53254C26.851 7.5963 26.8472 7.65811 26.8178 7.71797C26.7862 7.77146 26.7386 7.80908 26.6748 7.83084L22.7919 9.15603Z" fill="#007FD3"/>
    <path d="M22.7919 9.15603C22.7282 9.17779 22.6706 9.17607 22.6193 9.15088C22.5658 9.1193 22.5282 9.07163 22.5064 9.00787L20.3718 2.75314C20.35 2.68938 20.3517 2.63184 20.3769 2.58053C20.4 2.52285 20.4433 2.48312 20.5071 2.46136L20.9853 2.29816C21.0491 2.2764 21.1077 2.28131 21.1612 2.31288C21.2125 2.33808 21.249 2.38256 21.2708 2.44632L23.2063 8.11766L26.4006 7.02748C26.4708 7.00355 26.5326 7.00737 26.5861 7.03894C26.6438 7.06196 26.6835 7.10536 26.7052 7.16911L26.8293 7.53254C26.851 7.5963 26.8472 7.65811 26.8178 7.71797C26.7862 7.77146 26.7386 7.80908 26.6748 7.83084L22.7919 9.15603Z" fill="url(#paint37_radial_20252_65723)"/>
    <path d="M22.7919 9.15603C22.7282 9.17779 22.6706 9.17607 22.6193 9.15088C22.5658 9.1193 22.5282 9.07163 22.5064 9.00787L20.3718 2.75314C20.35 2.68938 20.3517 2.63184 20.3769 2.58053C20.4 2.52285 20.4433 2.48312 20.5071 2.46136L20.9853 2.29816C21.0491 2.2764 21.1077 2.28131 21.1612 2.31288C21.2125 2.33808 21.249 2.38256 21.2708 2.44632L23.2063 8.11766L26.4006 7.02748C26.4708 7.00355 26.5326 7.00737 26.5861 7.03894C26.6438 7.06196 26.6835 7.10536 26.7052 7.16911L26.8293 7.53254C26.851 7.5963 26.8472 7.65811 26.8178 7.71797C26.7862 7.77146 26.7386 7.80908 26.6748 7.83084L22.7919 9.15603Z" fill="url(#paint38_radial_20252_65723)"/>
    <path d="M27.7864 7.5666C27.7195 7.57514 27.6635 7.56193 27.6183 7.52696C27.5722 7.4853 27.5449 7.43106 27.5364 7.36424L26.6995 0.818649C26.6901 0.74514 26.7029 0.685776 26.7379 0.640554C26.772 0.58865 26.8225 0.558426 26.8893 0.549882L29.1547 0.260256C30.1638 0.131248 30.9212 0.265331 31.427 0.662505C31.932 1.053 32.2493 1.7018 32.3788 2.60893C32.4103 2.80187 32.4469 3.06206 32.4888 3.38951C32.5307 3.71695 32.5611 3.98134 32.58 4.18267C32.6478 4.81923 32.6105 5.35037 32.4679 5.7761C32.3312 6.1943 32.0714 6.52635 31.6886 6.77226C31.3057 7.01817 30.7768 7.18427 30.1019 7.27056L27.7864 7.5666ZM29.9454 6.44499C30.4132 6.38518 30.7759 6.27428 31.0337 6.11228C31.2973 5.94275 31.4717 5.7133 31.5569 5.42393C31.648 5.12703 31.6699 4.7405 31.6226 4.26432C31.5847 3.86166 31.5594 3.61021 31.5466 3.50997C31.5329 3.40305 31.4946 3.15665 31.4317 2.77077C31.3329 2.10422 31.1101 1.63689 30.7634 1.36879C30.4226 1.09316 29.9046 0.999768 29.2097 1.08862L27.7161 1.27957L28.4017 6.64234L29.9454 6.44499Z" fill="#007FD3"/>
    <path d="M27.7864 7.5666C27.7195 7.57514 27.6635 7.56193 27.6183 7.52696C27.5722 7.4853 27.5449 7.43106 27.5364 7.36424L26.6995 0.818649C26.6901 0.74514 26.7029 0.685776 26.7379 0.640554C26.772 0.58865 26.8225 0.558426 26.8893 0.549882L29.1547 0.260256C30.1638 0.131248 30.9212 0.265331 31.427 0.662505C31.932 1.053 32.2493 1.7018 32.3788 2.60893C32.4103 2.80187 32.4469 3.06206 32.4888 3.38951C32.5307 3.71695 32.5611 3.98134 32.58 4.18267C32.6478 4.81923 32.6105 5.35037 32.4679 5.7761C32.3312 6.1943 32.0714 6.52635 31.6886 6.77226C31.3057 7.01817 30.7768 7.18427 30.1019 7.27056L27.7864 7.5666ZM29.9454 6.44499C30.4132 6.38518 30.7759 6.27428 31.0337 6.11228C31.2973 5.94275 31.4717 5.7133 31.5569 5.42393C31.648 5.12703 31.6699 4.7405 31.6226 4.26432C31.5847 3.86166 31.5594 3.61021 31.5466 3.50997C31.5329 3.40305 31.4946 3.15665 31.4317 2.77077C31.3329 2.10422 31.1101 1.63689 30.7634 1.36879C30.4226 1.09316 29.9046 0.999768 29.2097 1.08862L27.7161 1.27957L28.4017 6.64234L29.9454 6.44499Z" fill="url(#paint39_radial_20252_65723)"/>
    <path d="M27.7864 7.5666C27.7195 7.57514 27.6635 7.56193 27.6183 7.52696C27.5722 7.4853 27.5449 7.43106 27.5364 7.36424L26.6995 0.818649C26.6901 0.74514 26.7029 0.685776 26.7379 0.640554C26.772 0.58865 26.8225 0.558426 26.8893 0.549882L29.1547 0.260256C30.1638 0.131248 30.9212 0.265331 31.427 0.662505C31.932 1.053 32.2493 1.7018 32.3788 2.60893C32.4103 2.80187 32.4469 3.06206 32.4888 3.38951C32.5307 3.71695 32.5611 3.98134 32.58 4.18267C32.6478 4.81923 32.6105 5.35037 32.4679 5.7761C32.3312 6.1943 32.0714 6.52635 31.6886 6.77226C31.3057 7.01817 30.7768 7.18427 30.1019 7.27056L27.7864 7.5666ZM29.9454 6.44499C30.4132 6.38518 30.7759 6.27428 31.0337 6.11228C31.2973 5.94275 31.4717 5.7133 31.5569 5.42393C31.648 5.12703 31.6699 4.7405 31.6226 4.26432C31.5847 3.86166 31.5594 3.61021 31.5466 3.50997C31.5329 3.40305 31.4946 3.15665 31.4317 2.77077C31.3329 2.10422 31.1101 1.63689 30.7634 1.36879C30.4226 1.09316 29.9046 0.999768 29.2097 1.08862L27.7161 1.27957L28.4017 6.64234L29.9454 6.44499Z" fill="url(#paint40_radial_20252_65723)"/>
    <path d="M36.7752 7.26319C35.8833 7.17695 35.2261 6.86973 34.8033 6.34153C34.388 5.80727 34.2044 5.11606 34.2526 4.2679C34.2634 4.0862 34.2886 3.79082 34.3281 3.38178C34.3683 2.96602 34.4008 2.66459 34.4257 2.47748C34.5409 1.6358 34.8532 0.995931 35.3626 0.557862C35.8793 0.113736 36.5836 -0.0652061 37.4755 0.021035C38.0723 0.0787452 38.5682 0.234993 38.9632 0.489778C39.3589 0.737857 39.6441 1.04294 39.8189 1.40503C40.0004 1.76777 40.0824 2.14458 40.0649 2.53546C40.0591 2.59581 40.0308 2.64383 39.9799 2.67953C39.9365 2.70917 39.8845 2.72107 39.8242 2.71523L39.3213 2.6666C39.2542 2.66012 39.2022 2.63816 39.1652 2.60074C39.1282 2.56333 39.1035 2.50341 39.0912 2.421C39.0271 1.89363 38.8543 1.51142 38.5726 1.27437C38.2977 1.03796 37.9054 0.895117 37.3957 0.845836C36.229 0.733009 35.5592 1.32478 35.3865 2.62115C35.3622 2.80155 35.332 3.07951 35.2957 3.45503C35.2594 3.83055 35.2352 4.11587 35.2231 4.31098C35.1448 5.60972 35.6891 6.3155 36.8559 6.42833C37.3589 6.47696 37.7712 6.41193 38.0931 6.23323C38.415 6.05453 38.6575 5.71588 38.8208 5.21727C38.8487 5.13875 38.8844 5.08467 38.9279 5.05503C38.9713 5.02539 39.0266 5.01381 39.0937 5.0203L39.5966 5.06893C39.6569 5.07477 39.7053 5.09975 39.7416 5.14387C39.7853 5.18194 39.8043 5.23115 39.7984 5.2915C39.7407 5.67849 39.588 6.0326 39.3404 6.35384C39.0994 6.67573 38.7607 6.92386 38.3242 7.09824C37.8883 7.26592 37.372 7.3209 36.7752 7.26319Z" fill="#007FD3"/>
    <path d="M36.7752 7.26319C35.8833 7.17695 35.2261 6.86973 34.8033 6.34153C34.388 5.80727 34.2044 5.11606 34.2526 4.2679C34.2634 4.0862 34.2886 3.79082 34.3281 3.38178C34.3683 2.96602 34.4008 2.66459 34.4257 2.47748C34.5409 1.6358 34.8532 0.995931 35.3626 0.557862C35.8793 0.113736 36.5836 -0.0652061 37.4755 0.021035C38.0723 0.0787452 38.5682 0.234993 38.9632 0.489778C39.3589 0.737857 39.6441 1.04294 39.8189 1.40503C40.0004 1.76777 40.0824 2.14458 40.0649 2.53546C40.0591 2.59581 40.0308 2.64383 39.9799 2.67953C39.9365 2.70917 39.8845 2.72107 39.8242 2.71523L39.3213 2.6666C39.2542 2.66012 39.2022 2.63816 39.1652 2.60074C39.1282 2.56333 39.1035 2.50341 39.0912 2.421C39.0271 1.89363 38.8543 1.51142 38.5726 1.27437C38.2977 1.03796 37.9054 0.895117 37.3957 0.845836C36.229 0.733009 35.5592 1.32478 35.3865 2.62115C35.3622 2.80155 35.332 3.07951 35.2957 3.45503C35.2594 3.83055 35.2352 4.11587 35.2231 4.31098C35.1448 5.60972 35.6891 6.3155 36.8559 6.42833C37.3589 6.47696 37.7712 6.41193 38.0931 6.23323C38.415 6.05453 38.6575 5.71588 38.8208 5.21727C38.8487 5.13875 38.8844 5.08467 38.9279 5.05503C38.9713 5.02539 39.0266 5.01381 39.0937 5.0203L39.5966 5.06893C39.6569 5.07477 39.7053 5.09975 39.7416 5.14387C39.7853 5.18194 39.8043 5.23115 39.7984 5.2915C39.7407 5.67849 39.588 6.0326 39.3404 6.35384C39.0994 6.67573 38.7607 6.92386 38.3242 7.09824C37.8883 7.26592 37.372 7.3209 36.7752 7.26319Z" fill="url(#paint41_radial_20252_65723)"/>
    <path d="M36.7752 7.26319C35.8833 7.17695 35.2261 6.86973 34.8033 6.34153C34.388 5.80727 34.2044 5.11606 34.2526 4.2679C34.2634 4.0862 34.2886 3.79082 34.3281 3.38178C34.3683 2.96602 34.4008 2.66459 34.4257 2.47748C34.5409 1.6358 34.8532 0.995931 35.3626 0.557862C35.8793 0.113736 36.5836 -0.0652061 37.4755 0.021035C38.0723 0.0787452 38.5682 0.234993 38.9632 0.489778C39.3589 0.737857 39.6441 1.04294 39.8189 1.40503C40.0004 1.76777 40.0824 2.14458 40.0649 2.53546C40.0591 2.59581 40.0308 2.64383 39.9799 2.67953C39.9365 2.70917 39.8845 2.72107 39.8242 2.71523L39.3213 2.6666C39.2542 2.66012 39.2022 2.63816 39.1652 2.60074C39.1282 2.56333 39.1035 2.50341 39.0912 2.421C39.0271 1.89363 38.8543 1.51142 38.5726 1.27437C38.2977 1.03796 37.9054 0.895117 37.3957 0.845836C36.229 0.733009 35.5592 1.32478 35.3865 2.62115C35.3622 2.80155 35.332 3.07951 35.2957 3.45503C35.2594 3.83055 35.2352 4.11587 35.2231 4.31098C35.1448 5.60972 35.6891 6.3155 36.8559 6.42833C37.3589 6.47696 37.7712 6.41193 38.0931 6.23323C38.415 6.05453 38.6575 5.71588 38.8208 5.21727C38.8487 5.13875 38.8844 5.08467 38.9279 5.05503C38.9713 5.02539 39.0266 5.01381 39.0937 5.0203L39.5966 5.06893C39.6569 5.07477 39.7053 5.09975 39.7416 5.14387C39.7853 5.18194 39.8043 5.23115 39.7984 5.2915C39.7407 5.67849 39.588 6.0326 39.3404 6.35384C39.0994 6.67573 38.7607 6.92386 38.3242 7.09824C37.8883 7.26592 37.372 7.3209 36.7752 7.26319Z" fill="url(#paint42_radial_20252_65723)"/>
    <path d="M42.9335 8.54664C42.1014 8.27315 41.5298 7.84411 41.2184 7.25954C40.9092 6.66857 40.8869 5.92727 41.1516 5.03564C41.2084 4.84154 41.2946 4.56848 41.4103 4.21648C41.526 3.86447 41.6175 3.59672 41.685 3.41322C41.9967 2.55123 42.4598 1.97302 43.0742 1.67859C43.6951 1.38627 44.4055 1.37159 45.2055 1.63457C46.0056 1.89754 46.5655 2.32982 46.8855 2.9314C47.2054 3.53298 47.2351 4.27319 46.9746 5.15201C46.8654 5.52742 46.7834 5.79833 46.7287 5.96473C46.6761 6.12473 46.5803 6.39463 46.4413 6.77443C46.1254 7.64922 45.6676 8.23274 45.0681 8.52497C44.477 8.81291 43.7655 8.82014 42.9335 8.54664ZM43.1954 7.74983C43.7074 7.91814 44.1675 7.89918 44.5757 7.69296C44.9859 7.48034 45.3091 7.05823 45.5451 6.42664C45.6841 6.04684 45.7746 5.79294 45.8167 5.66494C45.863 5.52414 45.9408 5.26603 46.05 4.89062C46.2347 4.2422 46.2251 3.71069 46.021 3.29611C45.8168 2.88152 45.4588 2.59008 44.9468 2.42178C44.4348 2.25347 43.9704 2.27458 43.5537 2.4851C43.1435 2.69772 42.8235 3.12088 42.5939 3.75457C42.5265 3.93807 42.4392 4.19302 42.3319 4.51942C42.2267 4.83943 42.1457 5.09648 42.089 5.29059C41.8979 5.93691 41.9043 6.46736 42.1084 6.88194C42.3147 7.29013 42.677 7.57943 43.1954 7.74983Z" fill="#007FD3"/>
    <path d="M42.9335 8.54664C42.1014 8.27315 41.5298 7.84411 41.2184 7.25954C40.9092 6.66857 40.8869 5.92727 41.1516 5.03564C41.2084 4.84154 41.2946 4.56848 41.4103 4.21648C41.526 3.86447 41.6175 3.59672 41.685 3.41322C41.9967 2.55123 42.4598 1.97302 43.0742 1.67859C43.6951 1.38627 44.4055 1.37159 45.2055 1.63457C46.0056 1.89754 46.5655 2.32982 46.8855 2.9314C47.2054 3.53298 47.2351 4.27319 46.9746 5.15201C46.8654 5.52742 46.7834 5.79833 46.7287 5.96473C46.6761 6.12473 46.5803 6.39463 46.4413 6.77443C46.1254 7.64922 45.6676 8.23274 45.0681 8.52497C44.477 8.81291 43.7655 8.82014 42.9335 8.54664ZM43.1954 7.74983C43.7074 7.91814 44.1675 7.89918 44.5757 7.69296C44.9859 7.48034 45.3091 7.05823 45.5451 6.42664C45.6841 6.04684 45.7746 5.79294 45.8167 5.66494C45.863 5.52414 45.9408 5.26603 46.05 4.89062C46.2347 4.2422 46.2251 3.71069 46.021 3.29611C45.8168 2.88152 45.4588 2.59008 44.9468 2.42178C44.4348 2.25347 43.9704 2.27458 43.5537 2.4851C43.1435 2.69772 42.8235 3.12088 42.5939 3.75457C42.5265 3.93807 42.4392 4.19302 42.3319 4.51942C42.2267 4.83943 42.1457 5.09648 42.089 5.29059C41.8979 5.93691 41.9043 6.46736 42.1084 6.88194C42.3147 7.29013 42.677 7.57943 43.1954 7.74983Z" fill="url(#paint43_radial_20252_65723)"/>
    <path d="M42.9335 8.54664C42.1014 8.27315 41.5298 7.84411 41.2184 7.25954C40.9092 6.66857 40.8869 5.92727 41.1516 5.03564C41.2084 4.84154 41.2946 4.56848 41.4103 4.21648C41.526 3.86447 41.6175 3.59672 41.685 3.41322C41.9967 2.55123 42.4598 1.97302 43.0742 1.67859C43.6951 1.38627 44.4055 1.37159 45.2055 1.63457C46.0056 1.89754 46.5655 2.32982 46.8855 2.9314C47.2054 3.53298 47.2351 4.27319 46.9746 5.15201C46.8654 5.52742 46.7834 5.79833 46.7287 5.96473C46.6761 6.12473 46.5803 6.39463 46.4413 6.77443C46.1254 7.64922 45.6676 8.23274 45.0681 8.52497C44.477 8.81291 43.7655 8.82014 42.9335 8.54664ZM43.1954 7.74983C43.7074 7.91814 44.1675 7.89918 44.5757 7.69296C44.9859 7.48034 45.3091 7.05823 45.5451 6.42664C45.6841 6.04684 45.7746 5.79294 45.8167 5.66494C45.863 5.52414 45.9408 5.26603 46.05 4.89062C46.2347 4.2422 46.2251 3.71069 46.021 3.29611C45.8168 2.88152 45.4588 2.59008 44.9468 2.42178C44.4348 2.25347 43.9704 2.27458 43.5537 2.4851C43.1435 2.69772 42.8235 3.12088 42.5939 3.75457C42.5265 3.93807 42.4392 4.19302 42.3319 4.51942C42.2267 4.83943 42.1457 5.09648 42.089 5.29059C41.8979 5.93691 41.9043 6.46736 42.1084 6.88194C42.3147 7.29013 42.677 7.57943 43.1954 7.74983Z" fill="url(#paint44_radial_20252_65723)"/>
    <path d="M46.9498 10.08C46.8899 10.0493 46.8511 10.0067 46.8337 9.95223C46.8192 9.89181 46.8274 9.83164 46.8582 9.77171L49.8779 3.89294C49.9087 3.83301 49.9513 3.79431 50.0057 3.77682C50.0632 3.75334 50.1219 3.75699 50.1819 3.78777L50.6313 4.01864C50.6972 4.0525 50.7389 4.09664 50.7564 4.15106C50.7739 4.20549 50.7657 4.26566 50.7319 4.33158L47.7122 10.2104C47.6814 10.2703 47.6342 10.3104 47.5708 10.3308C47.5163 10.3483 47.4592 10.3417 47.3992 10.3109L46.9498 10.08Z" fill="#007FD3"/>
    <path d="M46.9498 10.08C46.8899 10.0493 46.8511 10.0067 46.8337 9.95223C46.8192 9.89181 46.8274 9.83164 46.8582 9.77171L49.8779 3.89294C49.9087 3.83301 49.9513 3.79431 50.0057 3.77682C50.0632 3.75334 50.1219 3.75699 50.1819 3.78777L50.6313 4.01864C50.6972 4.0525 50.7389 4.09664 50.7564 4.15106C50.7739 4.20549 50.7657 4.26566 50.7319 4.33158L47.7122 10.2104C47.6814 10.2703 47.6342 10.3104 47.5708 10.3308C47.5163 10.3483 47.4592 10.3417 47.3992 10.3109L46.9498 10.08Z" fill="url(#paint45_radial_20252_65723)"/>
    <path d="M46.9498 10.08C46.8899 10.0493 46.8511 10.0067 46.8337 9.95223C46.8192 9.89181 46.8274 9.83164 46.8582 9.77171L49.8779 3.89294C49.9087 3.83301 49.9513 3.79431 50.0057 3.77682C50.0632 3.75334 50.1219 3.75699 50.1819 3.78777L50.6313 4.01864C50.6972 4.0525 50.7389 4.09664 50.7564 4.15106C50.7739 4.20549 50.7657 4.26566 50.7319 4.33158L47.7122 10.2104C47.6814 10.2703 47.6342 10.3104 47.5708 10.3308C47.5163 10.3483 47.4592 10.3417 47.3992 10.3109L46.9498 10.08Z" fill="url(#paint46_radial_20252_65723)"/>
    <path d="M49.2441 11.2446C49.1898 11.2048 49.1582 11.1566 49.1495 11.1001C49.1448 11.0382 49.1624 10.9801 49.2022 10.9257L53.1034 5.60356C53.1472 5.54379 53.1974 5.50956 53.2539 5.50085C53.3144 5.48671 53.3718 5.49956 53.4261 5.53939L53.7847 5.80226C53.8391 5.84209 53.8718 5.88283 53.8831 5.92448C53.8943 5.96613 53.9016 6.01321 53.9048 6.06572L53.5524 12.2727L56.5755 8.14863C56.6193 8.08886 56.6694 8.05462 56.7259 8.04592C56.7918 8.03577 56.852 8.0506 56.9063 8.09043L57.2731 8.35928C57.3328 8.40309 57.3651 8.45596 57.3698 8.51789C57.3839 8.57837 57.3691 8.6385 57.3253 8.69827L53.43 14.0123C53.3902 14.0666 53.3373 14.0989 53.2714 14.109C53.2109 14.1231 53.1535 14.1103 53.0992 14.0705L52.7324 13.8016C52.64 13.7339 52.6027 13.6481 52.6204 13.5441L52.943 7.37792L49.9439 11.4694C49.904 11.5237 49.8512 11.556 49.7853 11.5661C49.7288 11.5748 49.6733 11.5593 49.619 11.5194L49.2441 11.2446Z" fill="#007FD3"/>
    <path d="M49.2441 11.2446C49.1898 11.2048 49.1582 11.1566 49.1495 11.1001C49.1448 11.0382 49.1624 10.9801 49.2022 10.9257L53.1034 5.60356C53.1472 5.54379 53.1974 5.50956 53.2539 5.50085C53.3144 5.48671 53.3718 5.49956 53.4261 5.53939L53.7847 5.80226C53.8391 5.84209 53.8718 5.88283 53.8831 5.92448C53.8943 5.96613 53.9016 6.01321 53.9048 6.06572L53.5524 12.2727L56.5755 8.14863C56.6193 8.08886 56.6694 8.05462 56.7259 8.04592C56.7918 8.03577 56.852 8.0506 56.9063 8.09043L57.2731 8.35928C57.3328 8.40309 57.3651 8.45596 57.3698 8.51789C57.3839 8.57837 57.3691 8.6385 57.3253 8.69827L53.43 14.0123C53.3902 14.0666 53.3373 14.0989 53.2714 14.109C53.2109 14.1231 53.1535 14.1103 53.0992 14.0705L52.7324 13.8016C52.64 13.7339 52.6027 13.6481 52.6204 13.5441L52.943 7.37792L49.9439 11.4694C49.904 11.5237 49.8512 11.556 49.7853 11.5661C49.7288 11.5748 49.6733 11.5593 49.619 11.5194L49.2441 11.2446Z" fill="url(#paint47_radial_20252_65723)"/>
    <path d="M49.2441 11.2446C49.1898 11.2048 49.1582 11.1566 49.1495 11.1001C49.1448 11.0382 49.1624 10.9801 49.2022 10.9257L53.1034 5.60356C53.1472 5.54379 53.1974 5.50956 53.2539 5.50085C53.3144 5.48671 53.3718 5.49956 53.4261 5.53939L53.7847 5.80226C53.8391 5.84209 53.8718 5.88283 53.8831 5.92448C53.8943 5.96613 53.9016 6.01321 53.9048 6.06572L53.5524 12.2727L56.5755 8.14863C56.6193 8.08886 56.6694 8.05462 56.7259 8.04592C56.7918 8.03577 56.852 8.0506 56.9063 8.09043L57.2731 8.35928C57.3328 8.40309 57.3651 8.45596 57.3698 8.51789C57.3839 8.57837 57.3691 8.6385 57.3253 8.69827L53.43 14.0123C53.3902 14.0666 53.3373 14.0989 53.2714 14.109C53.2109 14.1231 53.1535 14.1103 53.0992 14.0705L52.7324 13.8016C52.64 13.7339 52.6027 13.6481 52.6204 13.5441L52.943 7.37792L49.9439 11.4694C49.904 11.5237 49.8512 11.556 49.7853 11.5661C49.7288 11.5748 49.6733 11.5593 49.619 11.5194L49.2441 11.2446Z" fill="url(#paint48_radial_20252_65723)"/>
    <path d="M56.1099 17.2269C56.0666 17.1753 56.0474 17.121 56.0524 17.0641C56.0625 17.0028 56.0934 16.9505 56.145 16.9072L61.2077 12.6589C61.2593 12.6156 61.3136 12.5964 61.3705 12.6014C61.4326 12.6021 61.4854 12.6282 61.5287 12.6798L61.8535 13.0669C61.9011 13.1236 61.9224 13.1805 61.9174 13.2374C61.9124 13.2944 61.8816 13.3467 61.8248 13.3943L56.7621 17.6426C56.7105 17.6859 56.6515 17.7046 56.5851 17.6988C56.5281 17.6938 56.478 17.6655 56.4347 17.6139L56.1099 17.2269Z" fill="#007FD3"/>
    <path d="M56.1099 17.2269C56.0666 17.1753 56.0474 17.121 56.0524 17.0641C56.0625 17.0028 56.0934 16.9505 56.145 16.9072L61.2077 12.6589C61.2593 12.6156 61.3136 12.5964 61.3705 12.6014C61.4326 12.6021 61.4854 12.6282 61.5287 12.6798L61.8535 13.0669C61.9011 13.1236 61.9224 13.1805 61.9174 13.2374C61.9124 13.2944 61.8816 13.3467 61.8248 13.3943L56.7621 17.6426C56.7105 17.6859 56.6515 17.7046 56.5851 17.6988C56.5281 17.6938 56.478 17.6655 56.4347 17.6139L56.1099 17.2269Z" fill="url(#paint49_radial_20252_65723)"/>
    <path d="M56.1099 17.2269C56.0666 17.1753 56.0474 17.121 56.0524 17.0641C56.0625 17.0028 56.0934 16.9505 56.145 16.9072L61.2077 12.6589C61.2593 12.6156 61.3136 12.5964 61.3705 12.6014C61.4326 12.6021 61.4854 12.6282 61.5287 12.6798L61.8535 13.0669C61.9011 13.1236 61.9224 13.1805 61.9174 13.2374C61.9124 13.2944 61.8816 13.3467 61.8248 13.3943L56.7621 17.6426C56.7105 17.6859 56.6515 17.7046 56.5851 17.6988C56.5281 17.6938 56.478 17.6655 56.4347 17.6139L56.1099 17.2269Z" fill="url(#paint50_radial_20252_65723)"/>
    <path d="M57.7665 19.1817C57.7318 19.124 57.7214 19.0674 57.7352 19.0119C57.7548 18.953 57.7935 18.9061 57.8512 18.8715L63.5079 15.4734C63.5715 15.4352 63.6309 15.4231 63.6864 15.4369C63.7477 15.4473 63.7956 15.4813 63.8303 15.5391L65.0064 17.4968C65.5302 18.3689 65.712 19.1163 65.5517 19.7392C65.3972 20.3585 64.9307 20.9099 64.1523 21.3932C63.9883 21.4996 63.7648 21.6378 63.4818 21.8078C63.1988 21.9778 62.969 22.1119 62.7922 22.2102C62.2367 22.5283 61.7353 22.7076 61.2882 22.7483C60.8503 22.7913 60.4419 22.6869 60.0628 22.4352C59.6837 22.1836 59.3189 21.7661 58.9685 21.1828L57.7665 19.1817ZM59.6615 20.7076C59.9044 21.1118 60.1518 21.3994 60.4037 21.5702C60.6649 21.7434 60.9451 21.8109 61.2444 21.7726C61.5528 21.7366 61.9156 21.6012 62.3325 21.3665C62.686 21.1699 62.906 21.0455 62.9926 20.9935C63.085 20.938 63.2952 20.8039 63.6233 20.5911C64.1938 20.2326 64.5322 19.8408 64.6382 19.4156C64.7535 18.9926 64.6308 18.4809 64.27 17.8802L63.4946 16.5895L58.8601 19.3735L59.6615 20.7076Z" fill="#007FD3"/>
    <path d="M57.7665 19.1817C57.7318 19.124 57.7214 19.0674 57.7352 19.0119C57.7548 18.953 57.7935 18.9061 57.8512 18.8715L63.5079 15.4734C63.5715 15.4352 63.6309 15.4231 63.6864 15.4369C63.7477 15.4473 63.7956 15.4813 63.8303 15.5391L65.0064 17.4968C65.5302 18.3689 65.712 19.1163 65.5517 19.7392C65.3972 20.3585 64.9307 20.9099 64.1523 21.3932C63.9883 21.4996 63.7648 21.6378 63.4818 21.8078C63.1988 21.9778 62.969 22.1119 62.7922 22.2102C62.2367 22.5283 61.7353 22.7076 61.2882 22.7483C60.8503 22.7913 60.4419 22.6869 60.0628 22.4352C59.6837 22.1836 59.3189 21.7661 58.9685 21.1828L57.7665 19.1817ZM59.6615 20.7076C59.9044 21.1118 60.1518 21.3994 60.4037 21.5702C60.6649 21.7434 60.9451 21.8109 61.2444 21.7726C61.5528 21.7366 61.9156 21.6012 62.3325 21.3665C62.686 21.1699 62.906 21.0455 62.9926 20.9935C63.085 20.938 63.2952 20.8039 63.6233 20.5911C64.1938 20.2326 64.5322 19.8408 64.6382 19.4156C64.7535 18.9926 64.6308 18.4809 64.27 17.8802L63.4946 16.5895L58.8601 19.3735L59.6615 20.7076Z" fill="url(#paint51_radial_20252_65723)"/>
    <path d="M57.7665 19.1817C57.7318 19.124 57.7214 19.0674 57.7352 19.0119C57.7548 18.953 57.7935 18.9061 57.8512 18.8715L63.5079 15.4734C63.5715 15.4352 63.6309 15.4231 63.6864 15.4369C63.7477 15.4473 63.7956 15.4813 63.8303 15.5391L65.0064 17.4968C65.5302 18.3689 65.712 19.1163 65.5517 19.7392C65.3972 20.3585 64.9307 20.9099 64.1523 21.3932C63.9883 21.4996 63.7648 21.6378 63.4818 21.8078C63.1988 21.9778 62.969 22.1119 62.7922 22.2102C62.2367 22.5283 61.7353 22.7076 61.2882 22.7483C60.8503 22.7913 60.4419 22.6869 60.0628 22.4352C59.6837 22.1836 59.3189 21.7661 58.9685 21.1828L57.7665 19.1817ZM59.6615 20.7076C59.9044 21.1118 60.1518 21.3994 60.4037 21.5702C60.6649 21.7434 60.9451 21.8109 61.2444 21.7726C61.5528 21.7366 61.9156 21.6012 62.3325 21.3665C62.686 21.1699 62.906 21.0455 62.9926 20.9935C63.085 20.938 63.2952 20.8039 63.6233 20.5911C64.1938 20.2326 64.5322 19.8408 64.6382 19.4156C64.7535 18.9926 64.6308 18.4809 64.27 17.8802L63.4946 16.5895L58.8601 19.3735L59.6615 20.7076Z" fill="url(#paint52_radial_20252_65723)"/>
    <defs>
        <filter id="filter0_dd_20252_65723" x="7.49077" y="10.5766" width="53.6991" height="53.6996" filterUnits="userSpaceOnUse" color-interpolation-filters="sRGB">
            <feFlood flood-opacity="0" result="BackgroundImageFix"/>
            <feColorMatrix in="SourceAlpha" type="matrix" values="0 0 0 0 0 0 0 0 0 0 0 0 0 0 0 0 0 0 127 0" result="hardAlpha"/>
            <feOffset dy="0.866123"/>
            <feGaussianBlur stdDeviation="2.59837"/>
            <feComposite in2="hardAlpha" operator="out"/>
            <feColorMatrix type="matrix" values="0 0 0 0 0.6875 0 0 0 0 0.744318 0 0 0 0 1 0 0 0 0.06 0"/>
            <feBlend mode="normal" in2="BackgroundImageFix" result="effect1_dropShadow_20252_65723"/>
            <feColorMatrix in="SourceAlpha" type="matrix" values="0 0 0 0 0 0 0 0 0 0 0 0 0 0 0 0 0 0 127 0" result="hardAlpha"/>
            <feOffset dy="0.433061"/>
            <feGaussianBlur stdDeviation="0.433061"/>
            <feComposite in2="hardAlpha" operator="out"/>
            <feColorMatrix type="matrix" values="0 0 0 0 0.549757 0 0 0 0 0.610463 0 0 0 0 0.929167 0 0 0 0.05 0"/>
            <feBlend mode="normal" in2="effect1_dropShadow_20252_65723" result="effect2_dropShadow_20252_65723"/>
            <feBlend mode="normal" in="SourceGraphic" in2="effect2_dropShadow_20252_65723" result="shape"/>
        </filter>
        <filter id="filter1_f_20252_65723" x="2.67782" y="-8.51603" width="62.2615" height="64.3802" filterUnits="userSpaceOnUse" color-interpolation-filters="sRGB">
            <feFlood flood-opacity="0" result="BackgroundImageFix"/>
            <feBlend mode="normal" in="SourceGraphic" in2="BackgroundImageFix" result="shape"/>
            <feGaussianBlur stdDeviation="5.19673" result="effect1_foregroundBlur_20252_65723"/>
        </filter>
        <filter id="filter2_f_20252_65723" x="-3.86808" y="-1.00724" width="53.9071" height="59.0003" filterUnits="userSpaceOnUse" color-interpolation-filters="sRGB">
            <feFlood flood-opacity="0" result="BackgroundImageFix"/>
            <feBlend mode="normal" in="SourceGraphic" in2="BackgroundImageFix" result="shape"/>
            <feGaussianBlur stdDeviation="5.19673" result="effect1_foregroundBlur_20252_65723"/>
        </filter>
        <filter id="filter3_f_20252_65723" x="10.5597" y="-5.77189" width="59.9539" height="67.0648" filterUnits="userSpaceOnUse" color-interpolation-filters="sRGB">
            <feFlood flood-opacity="0" result="BackgroundImageFix"/>
            <feBlend mode="normal" in="SourceGraphic" in2="BackgroundImageFix" result="shape"/>
            <feGaussianBlur stdDeviation="5.19673" result="effect1_foregroundBlur_20252_65723"/>
        </filter>
        <filter id="filter4_i_20252_65723" x="12.6875" y="14.9077" width="43.3086" height="46.1964" filterUnits="userSpaceOnUse" color-interpolation-filters="sRGB">
            <feFlood flood-opacity="0" result="BackgroundImageFix"/>
            <feBlend mode="normal" in="SourceGraphic" in2="BackgroundImageFix" result="shape"/>
            <feColorMatrix in="SourceAlpha" type="matrix" values="0 0 0 0 0 0 0 0 0 0 0 0 0 0 0 0 0 0 127 0" result="hardAlpha"/>
            <feOffset dy="2.88727"/>
            <feGaussianBlur stdDeviation="1.44364"/>
            <feComposite in2="hardAlpha" operator="arithmetic" k2="-1" k3="1"/>
            <feColorMatrix type="matrix" values="0 0 0 0 0 0 0 0 0 0 0 0 0 0 0 0 0 0 0.5 0"/>
            <feBlend mode="normal" in2="shape" result="effect1_innerShadow_20252_65723"/>
        </filter>
        <linearGradient id="paint0_linear_20252_65723" x1="34.342" y1="14.9077" x2="34.342" y2="58.2168" gradientUnits="userSpaceOnUse">
            <stop offset="0.421875" stop-color="white" stop-opacity="0"/>
            <stop offset="1" stop-color="white" stop-opacity="0.35"/>
        </linearGradient>
        <radialGradient id="paint1_radial_20252_65723" cx="0" cy="0" r="1" gradientUnits="userSpaceOnUse" gradientTransform="translate(64.6407 57.4097) rotate(169.727) scale(48.0202 47.0104)">
            <stop stop-color="#0AA5DE"/>
            <stop offset="1" stop-color="#0AA5DE" stop-opacity="0"/>
        </radialGradient>
        <radialGradient id="paint2_radial_20252_65723" cx="0" cy="0" r="1" gradientUnits="userSpaceOnUse" gradientTransform="translate(5.21665 6.81939) rotate(72.1762) scale(43.479 40.2712)">
            <stop stop-color="#0B62DF"/>
            <stop offset="0.963542" stop-color="#0B62DF" stop-opacity="0"/>
        </radialGradient>
        <radialGradient id="paint3_radial_20252_65723" cx="0" cy="0" r="1" gradientUnits="userSpaceOnUse" gradientTransform="translate(64.6407 57.4097) rotate(169.727) scale(48.0202 47.0104)">
            <stop stop-color="#0AA5DE"/>
            <stop offset="1" stop-color="#0AA5DE" stop-opacity="0"/>
        </radialGradient>
        <radialGradient id="paint4_radial_20252_65723" cx="0" cy="0" r="1" gradientUnits="userSpaceOnUse" gradientTransform="translate(5.21665 6.81939) rotate(72.1762) scale(43.479 40.2712)">
            <stop stop-color="#0B62DF"/>
            <stop offset="0.963542" stop-color="#0B62DF" stop-opacity="0"/>
        </radialGradient>
        <radialGradient id="paint5_radial_20252_65723" cx="0" cy="0" r="1" gradientUnits="userSpaceOnUse" gradientTransform="translate(64.6407 57.4097) rotate(169.727) scale(48.0202 47.0104)">
            <stop stop-color="#0AA5DE"/>
            <stop offset="1" stop-color="#0AA5DE" stop-opacity="0"/>
        </radialGradient>
        <radialGradient id="paint6_radial_20252_65723" cx="0" cy="0" r="1" gradientUnits="userSpaceOnUse" gradientTransform="translate(5.21665 6.81939) rotate(72.1762) scale(43.479 40.2712)">
            <stop stop-color="#0B62DF"/>
            <stop offset="0.963542" stop-color="#0B62DF" stop-opacity="0"/>
        </radialGradient>
        <radialGradient id="paint7_radial_20252_65723" cx="0" cy="0" r="1" gradientUnits="userSpaceOnUse" gradientTransform="translate(64.6407 57.4097) rotate(169.727) scale(48.0202 47.0104)">
            <stop stop-color="#0AA5DE"/>
            <stop offset="1" stop-color="#0AA5DE" stop-opacity="0"/>
        </radialGradient>
        <radialGradient id="paint8_radial_20252_65723" cx="0" cy="0" r="1" gradientUnits="userSpaceOnUse" gradientTransform="translate(5.21665 6.81939) rotate(72.1762) scale(43.479 40.2712)">
            <stop stop-color="#0B62DF"/>
            <stop offset="0.963542" stop-color="#0B62DF" stop-opacity="0"/>
        </radialGradient>
        <radialGradient id="paint9_radial_20252_65723" cx="0" cy="0" r="1" gradientUnits="userSpaceOnUse" gradientTransform="translate(64.6407 57.4097) rotate(169.727) scale(48.0202 47.0104)">
            <stop stop-color="#0AA5DE"/>
            <stop offset="1" stop-color="#0AA5DE" stop-opacity="0"/>
        </radialGradient>
        <radialGradient id="paint10_radial_20252_65723" cx="0" cy="0" r="1" gradientUnits="userSpaceOnUse" gradientTransform="translate(5.21665 6.81939) rotate(72.1762) scale(43.479 40.2712)">
            <stop stop-color="#0B62DF"/>
            <stop offset="0.963542" stop-color="#0B62DF" stop-opacity="0"/>
        </radialGradient>
        <radialGradient id="paint11_radial_20252_65723" cx="0" cy="0" r="1" gradientUnits="userSpaceOnUse" gradientTransform="translate(64.6407 57.4097) rotate(169.727) scale(48.0202 47.0104)">
            <stop stop-color="#0AA5DE"/>
            <stop offset="1" stop-color="#0AA5DE" stop-opacity="0"/>
        </radialGradient>
        <radialGradient id="paint12_radial_20252_65723" cx="0" cy="0" r="1" gradientUnits="userSpaceOnUse" gradientTransform="translate(5.21665 6.81939) rotate(72.1762) scale(43.479 40.2712)">
            <stop stop-color="#0B62DF"/>
            <stop offset="0.963542" stop-color="#0B62DF" stop-opacity="0"/>
        </radialGradient>
        <radialGradient id="paint13_radial_20252_65723" cx="0" cy="0" r="1" gradientUnits="userSpaceOnUse" gradientTransform="translate(64.6407 57.4097) rotate(169.727) scale(48.0202 47.0104)">
            <stop stop-color="#0AA5DE"/>
            <stop offset="1" stop-color="#0AA5DE" stop-opacity="0"/>
        </radialGradient>
        <radialGradient id="paint14_radial_20252_65723" cx="0" cy="0" r="1" gradientUnits="userSpaceOnUse" gradientTransform="translate(5.21665 6.81939) rotate(72.1762) scale(43.479 40.2712)">
            <stop stop-color="#0B62DF"/>
            <stop offset="0.963542" stop-color="#0B62DF" stop-opacity="0"/>
        </radialGradient>
        <radialGradient id="paint15_radial_20252_65723" cx="0" cy="0" r="1" gradientUnits="userSpaceOnUse" gradientTransform="translate(64.6407 57.4097) rotate(169.727) scale(48.0202 47.0104)">
            <stop stop-color="#0AA5DE"/>
            <stop offset="1" stop-color="#0AA5DE" stop-opacity="0"/>
        </radialGradient>
        <radialGradient id="paint16_radial_20252_65723" cx="0" cy="0" r="1" gradientUnits="userSpaceOnUse" gradientTransform="translate(5.21665 6.81939) rotate(72.1762) scale(43.479 40.2712)">
            <stop stop-color="#0B62DF"/>
            <stop offset="0.963542" stop-color="#0B62DF" stop-opacity="0"/>
        </radialGradient>
        <radialGradient id="paint17_radial_20252_65723" cx="0" cy="0" r="1" gradientUnits="userSpaceOnUse" gradientTransform="translate(64.6407 57.4097) rotate(169.727) scale(48.0202 47.0104)">
            <stop stop-color="#0AA5DE"/>
            <stop offset="1" stop-color="#0AA5DE" stop-opacity="0"/>
        </radialGradient>
        <radialGradient id="paint18_radial_20252_65723" cx="0" cy="0" r="1" gradientUnits="userSpaceOnUse" gradientTransform="translate(5.21665 6.81939) rotate(72.1762) scale(43.479 40.2712)">
            <stop stop-color="#0B62DF"/>
            <stop offset="0.963542" stop-color="#0B62DF" stop-opacity="0"/>
        </radialGradient>
        <radialGradient id="paint19_radial_20252_65723" cx="0" cy="0" r="1" gradientUnits="userSpaceOnUse" gradientTransform="translate(64.6407 57.4097) rotate(169.727) scale(48.0202 47.0104)">
            <stop stop-color="#0AA5DE"/>
            <stop offset="1" stop-color="#0AA5DE" stop-opacity="0"/>
        </radialGradient>
        <radialGradient id="paint20_radial_20252_65723" cx="0" cy="0" r="1" gradientUnits="userSpaceOnUse" gradientTransform="translate(5.21665 6.81939) rotate(72.1762) scale(43.479 40.2712)">
            <stop stop-color="#0B62DF"/>
            <stop offset="0.963542" stop-color="#0B62DF" stop-opacity="0"/>
        </radialGradient>
        <radialGradient id="paint21_radial_20252_65723" cx="0" cy="0" r="1" gradientUnits="userSpaceOnUse" gradientTransform="translate(64.6407 57.4097) rotate(169.727) scale(48.0202 47.0104)">
            <stop stop-color="#0AA5DE"/>
            <stop offset="1" stop-color="#0AA5DE" stop-opacity="0"/>
        </radialGradient>
        <radialGradient id="paint22_radial_20252_65723" cx="0" cy="0" r="1" gradientUnits="userSpaceOnUse" gradientTransform="translate(5.21665 6.81939) rotate(72.1762) scale(43.479 40.2712)">
            <stop stop-color="#0B62DF"/>
            <stop offset="0.963542" stop-color="#0B62DF" stop-opacity="0"/>
        </radialGradient>
        <radialGradient id="paint23_radial_20252_65723" cx="0" cy="0" r="1" gradientUnits="userSpaceOnUse" gradientTransform="translate(64.6407 57.4097) rotate(169.727) scale(48.0202 47.0104)">
            <stop stop-color="#0AA5DE"/>
            <stop offset="1" stop-color="#0AA5DE" stop-opacity="0"/>
        </radialGradient>
        <radialGradient id="paint24_radial_20252_65723" cx="0" cy="0" r="1" gradientUnits="userSpaceOnUse" gradientTransform="translate(5.21665 6.81939) rotate(72.1762) scale(43.479 40.2712)">
            <stop stop-color="#0B62DF"/>
            <stop offset="0.963542" stop-color="#0B62DF" stop-opacity="0"/>
        </radialGradient>
        <radialGradient id="paint25_radial_20252_65723" cx="0" cy="0" r="1" gradientUnits="userSpaceOnUse" gradientTransform="translate(64.6407 57.4097) rotate(169.727) scale(48.0202 47.0104)">
            <stop stop-color="#0AA5DE"/>
            <stop offset="1" stop-color="#0AA5DE" stop-opacity="0"/>
        </radialGradient>
        <radialGradient id="paint26_radial_20252_65723" cx="0" cy="0" r="1" gradientUnits="userSpaceOnUse" gradientTransform="translate(5.21665 6.81939) rotate(72.1762) scale(43.479 40.2712)">
            <stop stop-color="#0B62DF"/>
            <stop offset="0.963542" stop-color="#0B62DF" stop-opacity="0"/>
        </radialGradient>
        <radialGradient id="paint27_radial_20252_65723" cx="0" cy="0" r="1" gradientUnits="userSpaceOnUse" gradientTransform="translate(64.6407 57.4097) rotate(169.727) scale(48.0202 47.0104)">
            <stop stop-color="#0AA5DE"/>
            <stop offset="1" stop-color="#0AA5DE" stop-opacity="0"/>
        </radialGradient>
        <radialGradient id="paint28_radial_20252_65723" cx="0" cy="0" r="1" gradientUnits="userSpaceOnUse" gradientTransform="translate(5.21665 6.81939) rotate(72.1762) scale(43.479 40.2712)">
            <stop stop-color="#0B62DF"/>
            <stop offset="0.963542" stop-color="#0B62DF" stop-opacity="0"/>
        </radialGradient>
        <radialGradient id="paint29_radial_20252_65723" cx="0" cy="0" r="1" gradientUnits="userSpaceOnUse" gradientTransform="translate(64.6407 57.4097) rotate(169.727) scale(48.0202 47.0104)">
            <stop stop-color="#0AA5DE"/>
            <stop offset="1" stop-color="#0AA5DE" stop-opacity="0"/>
        </radialGradient>
        <radialGradient id="paint30_radial_20252_65723" cx="0" cy="0" r="1" gradientUnits="userSpaceOnUse" gradientTransform="translate(5.21665 6.81939) rotate(72.1762) scale(43.479 40.2712)">
            <stop stop-color="#0B62DF"/>
            <stop offset="0.963542" stop-color="#0B62DF" stop-opacity="0"/>
        </radialGradient>
        <radialGradient id="paint31_radial_20252_65723" cx="0" cy="0" r="1" gradientUnits="userSpaceOnUse" gradientTransform="translate(64.6407 57.4097) rotate(169.727) scale(48.0202 47.0104)">
            <stop stop-color="#0AA5DE"/>
            <stop offset="1" stop-color="#0AA5DE" stop-opacity="0"/>
        </radialGradient>
        <radialGradient id="paint32_radial_20252_65723" cx="0" cy="0" r="1" gradientUnits="userSpaceOnUse" gradientTransform="translate(5.21665 6.81939) rotate(72.1762) scale(43.479 40.2712)">
            <stop stop-color="#0B62DF"/>
            <stop offset="0.963542" stop-color="#0B62DF" stop-opacity="0"/>
        </radialGradient>
        <radialGradient id="paint33_radial_20252_65723" cx="0" cy="0" r="1" gradientUnits="userSpaceOnUse" gradientTransform="translate(64.6407 57.4097) rotate(169.727) scale(48.0202 47.0104)">
            <stop stop-color="#0AA5DE"/>
            <stop offset="1" stop-color="#0AA5DE" stop-opacity="0"/>
        </radialGradient>
        <radialGradient id="paint34_radial_20252_65723" cx="0" cy="0" r="1" gradientUnits="userSpaceOnUse" gradientTransform="translate(5.21665 6.81939) rotate(72.1762) scale(43.479 40.2712)">
            <stop stop-color="#0B62DF"/>
            <stop offset="0.963542" stop-color="#0B62DF" stop-opacity="0"/>
        </radialGradient>
        <radialGradient id="paint35_radial_20252_65723" cx="0" cy="0" r="1" gradientUnits="userSpaceOnUse" gradientTransform="translate(64.6407 57.4097) rotate(169.727) scale(48.0202 47.0104)">
            <stop stop-color="#0AA5DE"/>
            <stop offset="1" stop-color="#0AA5DE" stop-opacity="0"/>
        </radialGradient>
        <radialGradient id="paint36_radial_20252_65723" cx="0" cy="0" r="1" gradientUnits="userSpaceOnUse" gradientTransform="translate(5.21665 6.81939) rotate(72.1762) scale(43.479 40.2712)">
            <stop stop-color="#0B62DF"/>
            <stop offset="0.963542" stop-color="#0B62DF" stop-opacity="0"/>
        </radialGradient>
        <radialGradient id="paint37_radial_20252_65723" cx="0" cy="0" r="1" gradientUnits="userSpaceOnUse" gradientTransform="translate(64.6407 57.4097) rotate(169.727) scale(48.0202 47.0104)">
            <stop stop-color="#0AA5DE"/>
            <stop offset="1" stop-color="#0AA5DE" stop-opacity="0"/>
        </radialGradient>
        <radialGradient id="paint38_radial_20252_65723" cx="0" cy="0" r="1" gradientUnits="userSpaceOnUse" gradientTransform="translate(5.21665 6.81939) rotate(72.1762) scale(43.479 40.2712)">
            <stop stop-color="#0B62DF"/>
            <stop offset="0.963542" stop-color="#0B62DF" stop-opacity="0"/>
        </radialGradient>
        <radialGradient id="paint39_radial_20252_65723" cx="0" cy="0" r="1" gradientUnits="userSpaceOnUse" gradientTransform="translate(64.6407 57.4097) rotate(169.727) scale(48.0202 47.0104)">
            <stop stop-color="#0AA5DE"/>
            <stop offset="1" stop-color="#0AA5DE" stop-opacity="0"/>
        </radialGradient>
        <radialGradient id="paint40_radial_20252_65723" cx="0" cy="0" r="1" gradientUnits="userSpaceOnUse" gradientTransform="translate(5.21665 6.81939) rotate(72.1762) scale(43.479 40.2712)">
            <stop stop-color="#0B62DF"/>
            <stop offset="0.963542" stop-color="#0B62DF" stop-opacity="0"/>
        </radialGradient>
        <radialGradient id="paint41_radial_20252_65723" cx="0" cy="0" r="1" gradientUnits="userSpaceOnUse" gradientTransform="translate(64.6407 57.4097) rotate(169.727) scale(48.0202 47.0104)">
            <stop stop-color="#0AA5DE"/>
            <stop offset="1" stop-color="#0AA5DE" stop-opacity="0"/>
        </radialGradient>
        <radialGradient id="paint42_radial_20252_65723" cx="0" cy="0" r="1" gradientUnits="userSpaceOnUse" gradientTransform="translate(5.21665 6.81939) rotate(72.1762) scale(43.479 40.2712)">
            <stop stop-color="#0B62DF"/>
            <stop offset="0.963542" stop-color="#0B62DF" stop-opacity="0"/>
        </radialGradient>
        <radialGradient id="paint43_radial_20252_65723" cx="0" cy="0" r="1" gradientUnits="userSpaceOnUse" gradientTransform="translate(64.6407 57.4097) rotate(169.727) scale(48.0202 47.0104)">
            <stop stop-color="#0AA5DE"/>
            <stop offset="1" stop-color="#0AA5DE" stop-opacity="0"/>
        </radialGradient>
        <radialGradient id="paint44_radial_20252_65723" cx="0" cy="0" r="1" gradientUnits="userSpaceOnUse" gradientTransform="translate(5.21665 6.81939) rotate(72.1762) scale(43.479 40.2712)">
            <stop stop-color="#0B62DF"/>
            <stop offset="0.963542" stop-color="#0B62DF" stop-opacity="0"/>
        </radialGradient>
        <radialGradient id="paint45_radial_20252_65723" cx="0" cy="0" r="1" gradientUnits="userSpaceOnUse" gradientTransform="translate(64.6407 57.4097) rotate(169.727) scale(48.0202 47.0104)">
            <stop stop-color="#0AA5DE"/>
            <stop offset="1" stop-color="#0AA5DE" stop-opacity="0"/>
        </radialGradient>
        <radialGradient id="paint46_radial_20252_65723" cx="0" cy="0" r="1" gradientUnits="userSpaceOnUse" gradientTransform="translate(5.21665 6.81939) rotate(72.1762) scale(43.479 40.2712)">
            <stop stop-color="#0B62DF"/>
            <stop offset="0.963542" stop-color="#0B62DF" stop-opacity="0"/>
        </radialGradient>
        <radialGradient id="paint47_radial_20252_65723" cx="0" cy="0" r="1" gradientUnits="userSpaceOnUse" gradientTransform="translate(64.6407 57.4097) rotate(169.727) scale(48.0202 47.0104)">
            <stop stop-color="#0AA5DE"/>
            <stop offset="1" stop-color="#0AA5DE" stop-opacity="0"/>
        </radialGradient>
        <radialGradient id="paint48_radial_20252_65723" cx="0" cy="0" r="1" gradientUnits="userSpaceOnUse" gradientTransform="translate(5.21665 6.81939) rotate(72.1762) scale(43.479 40.2712)">
            <stop stop-color="#0B62DF"/>
            <stop offset="0.963542" stop-color="#0B62DF" stop-opacity="0"/>
        </radialGradient>
        <radialGradient id="paint49_radial_20252_65723" cx="0" cy="0" r="1" gradientUnits="userSpaceOnUse" gradientTransform="translate(64.6407 57.4097) rotate(169.727) scale(48.0202 47.0104)">
            <stop stop-color="#0AA5DE"/>
            <stop offset="1" stop-color="#0AA5DE" stop-opacity="0"/>
        </radialGradient>
        <radialGradient id="paint50_radial_20252_65723" cx="0" cy="0" r="1" gradientUnits="userSpaceOnUse" gradientTransform="translate(5.21665 6.81939) rotate(72.1762) scale(43.479 40.2712)">
            <stop stop-color="#0B62DF"/>
            <stop offset="0.963542" stop-color="#0B62DF" stop-opacity="0"/>
        </radialGradient>
        <radialGradient id="paint51_radial_20252_65723" cx="0" cy="0" r="1" gradientUnits="userSpaceOnUse" gradientTransform="translate(64.6407 57.4097) rotate(169.727) scale(48.0202 47.0104)">
            <stop stop-color="#0AA5DE"/>
            <stop offset="1" stop-color="#0AA5DE" stop-opacity="0"/>
        </radialGradient>
        <radialGradient id="paint52_radial_20252_65723" cx="0" cy="0" r="1" gradientUnits="userSpaceOnUse" gradientTransform="translate(5.21665 6.81939) rotate(72.1762) scale(43.479 40.2712)">
            <stop stop-color="#0B62DF"/>
            <stop offset="0.963542" stop-color="#0B62DF" stop-opacity="0"/>
        </radialGradient>
        <clipPath id="clip0_20252_65723">
            <rect x="12.6875" y="14.9072" width="43.3061" height="43.3061" rx="21.6531" fill="white"/>
        </clipPath>
    </defs>
</svg>
