<svg width="139" height="24" viewBox="0 0 139 24" fill="none" xmlns="http://www.w3.org/2000/svg">
<path d="M46.0278 5.31127L42.5902 18.6866H40.3594L37.4491 9.47901L34.5287 18.6866H32.2979L28.8603 5.31127H31.1723L33.5958 14.9244L36.2526 5.31127H38.6355L41.2923 14.9244L43.7158 5.31127H46.0278Z" fill="white"/>
<path d="M47.0824 12.004C47.0824 7.70445 48.9685 5.02736 52.7001 5.02736C56.4317 5.02736 58.2975 7.70445 58.2975 12.004C58.2975 16.3036 56.4013 18.9807 52.7001 18.9807C48.9989 18.9807 47.0824 16.3036 47.0824 12.004ZM55.9855 12.004C55.9855 10.3207 55.6205 7.167 52.7001 7.167C49.7797 7.167 49.3943 10.3207 49.3943 12.004C49.3943 13.6873 49.7695 16.841 52.7001 16.841C55.6306 16.841 55.9855 13.6873 55.9855 12.004Z" fill="white"/>
<path d="M67.7076 18.6866L65.1117 13.2208H62.82V18.6866H60.508V5.31127H65.2131C68.458 5.31127 70.2528 6.32532 70.2528 9.19508C70.2528 11.3347 69.3199 12.4806 67.5758 12.9572L70.2731 18.6866H67.7076ZM62.82 11.0711H65.1117C67.0789 11.0711 67.9814 10.5742 67.9814 9.26606C67.9814 7.95794 67.0282 7.47119 65.1117 7.47119H62.82V11.0711Z" fill="white"/>
<path d="M72.6966 5.31127H75.0086V16.4962H81.62V18.6866H72.6966V5.31127Z" fill="white"/>
<path d="M83.8002 5.31127H87.6028C91.6082 5.31127 94.1939 7.93766 94.1939 12.0446C94.1939 16.1514 91.6082 18.6866 87.6028 18.6866H83.8002V5.31127ZM87.765 16.4962C90.3102 16.4962 91.882 14.6608 91.882 12.0446C91.882 9.42831 90.2392 7.51176 87.765 7.51176H86.1122V16.4962H87.765Z" fill="white"/>
<path d="M96.1206 11.9634C96.1206 7.81595 98.4325 5.08816 102.022 5.08816C104.578 5.08816 106.758 6.47741 107.447 9.10379L105.287 9.76292C104.851 8.50551 104.212 7.28865 102.022 7.28865C99.8319 7.28865 98.4325 9.2559 98.4325 11.9634C98.4325 14.6709 99.7508 16.7193 102.022 16.7193C104.294 16.7193 105.024 15.3605 105.308 14.1842L107.447 14.8534C106.819 17.4291 104.75 18.9198 102.022 18.9198C98.4325 18.9198 96.1206 16.1717 96.1206 11.9634Z" fill="white"/>
<path d="M109.303 12.004C109.303 7.70445 111.189 5.02736 114.91 5.02736C118.632 5.02736 120.508 7.70445 120.508 12.004C120.508 16.3036 118.622 18.9807 114.91 18.9807C111.199 18.9807 109.303 16.3036 109.303 12.004ZM118.196 12.004C118.196 10.3207 117.841 7.167 114.91 7.167C111.98 7.167 111.605 10.3207 111.605 12.004C111.605 13.6873 111.99 16.841 114.91 16.841C117.831 16.841 118.196 13.6873 118.196 12.004Z" fill="white"/>
<path d="M123.215 5.31127H125.527V18.6866H123.215V5.31127Z" fill="white"/>
<path d="M138.132 5.31127V18.6866H135.82L130.618 9.97589V18.6866H128.316V5.31127H130.618L135.82 14.3363V5.31127H138.132Z" fill="white"/>
<path d="M13.9542 9.22549C14.0133 9.29427 14.0959 9.33859 14.1858 9.34984C14.2758 9.36109 14.3668 9.33844 14.441 9.28633C15.1305 8.79958 16.3068 7.98835 17.5844 7.18725C18.5326 8.2541 19.1554 9.57015 19.3792 10.9798C20.3831 9.53984 23.2224 5.82842 20.7786 3.97272C18.6897 2.42122 14.3091 7.05542 13.8731 8.90099C13.8589 8.95758 13.8589 9.01679 13.873 9.07339C13.8872 9.12999 13.9151 9.18223 13.9542 9.22549Z" fill="white"/>
<path d="M15.6578 11.6897C15.5921 11.7233 15.5377 11.7755 15.5015 11.8398C15.4654 11.9041 15.4489 11.9777 15.4544 12.0513C15.4598 12.1249 15.4868 12.1953 15.532 12.2536C15.5772 12.3119 15.6386 12.3556 15.7085 12.3793C16.5197 12.6226 17.8886 13.0384 19.3083 13.5353C19.0661 14.9452 18.4217 16.2552 17.4526 17.3075C19.2069 17.1858 23.8815 17.0946 23.8207 14.0322C23.7294 11.4362 17.3816 10.8886 15.6578 11.6897Z" fill="white"/>
<path d="M14.5829 14.8332C14.5307 14.8081 14.4735 14.795 14.4156 14.795C14.3576 14.795 14.3004 14.8081 14.2483 14.8332C14.1675 14.8765 14.1054 14.9479 14.0737 15.0338C14.0419 15.1197 14.0427 15.2143 14.0759 15.2997C14.4004 16.0805 14.9277 17.419 15.4144 18.8387C13.2951 19.9846 11.3177 19.7311 11.3177 19.7311C12.494 21.029 15.4752 24.6289 17.8379 22.682C19.8051 20.9885 16.2864 15.6749 14.5829 14.8332Z" fill="white"/>
<path d="M11.4597 15.9386C11.4475 15.8822 11.4217 15.8296 11.3846 15.7855C11.3475 15.7413 11.3002 15.7068 11.2468 15.685C11.1628 15.6487 11.0683 15.6453 10.982 15.6753C10.8956 15.7054 10.8236 15.7667 10.7803 15.8473C10.3646 16.5774 9.65477 17.8145 8.84355 19.0922C7.52532 18.5386 6.39502 17.6161 5.58854 16.4354C5.30461 18.1695 4.35143 22.7428 7.3428 23.3715C9.89814 23.8684 11.8552 17.8044 11.4597 15.9386Z" fill="white"/>
<path d="M8.65086 14.1943C8.68507 14.1484 8.70834 14.0954 8.71889 14.0391C8.72943 13.9829 8.72697 13.925 8.7117 13.8698C8.6899 13.78 8.63488 13.7019 8.55773 13.6511C8.48058 13.6003 8.38703 13.5806 8.29595 13.596C7.46445 13.7279 6.05496 13.9408 4.5542 14.103C4.17018 12.7275 4.18778 11.2708 4.6049 9.90489C3.07373 10.7567 -1.10405 12.8558 0.275022 15.5937C1.47157 17.8956 7.44417 15.6647 8.65086 14.1943Z" fill="white"/>
<path d="M8.26552 10.8987C8.32336 10.9 8.38061 10.8868 8.432 10.8602C8.48339 10.8336 8.52726 10.7946 8.55958 10.7466C8.61641 10.6757 8.64389 10.5857 8.63634 10.4951C8.6288 10.4046 8.58681 10.3203 8.51902 10.2598C7.89033 9.69196 6.84588 8.71847 5.7913 7.64358C6.62567 6.48379 7.77703 5.58944 9.10716 5.0679C7.48472 4.40877 3.23596 2.44152 1.94815 5.22001C0.893562 7.59288 6.36929 10.8683 8.26552 10.8987Z" fill="white"/>
<path d="M10.902 8.68803C10.9947 8.68582 11.0833 8.64938 11.1507 8.58571C11.2181 8.52204 11.2595 8.43567 11.267 8.34325C11.3177 7.51173 11.4293 6.08192 11.6118 4.59127C13.0369 4.51995 14.4524 4.8615 15.6882 5.5749C15.2015 3.89158 14.0962 -0.651354 11.1251 0.0787606C8.6103 0.727751 9.4418 7.04527 10.6079 8.5562C10.6419 8.60115 10.6866 8.6368 10.738 8.65985C10.7895 8.68289 10.8458 8.69258 10.902 8.68803Z" fill="white"/>
</svg>
