<svg width="707" height="141" viewBox="0 0 707 141" fill="none" xmlns="http://www.w3.org/2000/svg">
<g clip-path="url(#clip0_348_96)">
<path d="M277.33 32.0153L256.609 112.634H243.181L225.61 57.0635L208.039 112.634H194.611L173.891 32.0153H187.815L202.403 89.9082L218.316 32.0153H232.904L248.818 89.9082L263.405 32.0153H277.33ZM283.629 72.4906C283.629 46.4471 295.067 30.3565 317.611 30.3565C340.156 30.3565 351.096 46.4471 351.096 72.4906C351.096 98.5341 339.824 114.459 317.611 114.459C295.398 114.459 283.629 98.2023 283.629 72.4906ZM337.338 72.4906C337.338 62.2059 335.017 43.2953 317.611 43.2953C300.206 43.2953 297.553 62.2059 297.553 72.4906C297.553 82.7753 299.874 101.354 317.611 101.354C335.348 101.354 337.338 82.4435 337.338 72.4906ZM407.955 112.634L392.207 79.7894H378.448V112.634H364.524V32.0153H392.87C412.431 32.0153 423.205 38.1529 423.205 55.4047C423.205 68.1776 417.569 75.3106 407.126 78.1306L423.371 112.634H407.955ZM378.448 66.6847H392.207C404.142 66.6847 409.612 63.6988 409.612 55.9024C409.612 48.1059 403.811 45.12 392.207 45.12H378.448V66.6847ZM438.124 32.0153H451.883V99.3635H491.668V112.634H438.124V32.0153ZM504.763 32.0153H527.805C551.841 32.0153 567.423 47.7741 567.423 72.6565C567.423 97.5388 551.841 112.634 527.805 112.634H504.763V32.0153ZM528.799 99.3635C544.05 99.3635 553.499 88.4153 553.499 72.6565C553.499 56.8976 543.553 45.2859 528.799 45.2859H518.853V99.3635H528.799ZM644.505 32.0153H667.547C691.584 32.0153 707.166 47.7741 707.166 72.6565C707.166 97.5388 691.584 112.634 667.547 112.634H644.505V32.0153ZM668.376 99.3635C683.627 99.3635 693.076 88.4153 693.076 72.6565C693.076 56.8976 683.129 45.2859 668.376 45.2859H658.43V99.3635H668.376ZM612.512 32.0153H626.603V112.634H612.512V32.0153ZM84.0443 55.5706C84.3758 56.0682 85.0389 56.2341 85.5362 56.2341C86.0335 56.4 86.6966 56.2341 87.0281 55.9024C91.1723 53.0824 98.1346 48.1059 106.091 43.2953C111.728 49.7647 115.374 57.7271 116.866 66.1871C122.834 57.5612 139.908 35.1671 125.155 23.8871C110.401 12.6071 86.1993 42.4659 83.547 53.58C83.3812 53.9118 83.3812 54.2435 83.547 54.5753C83.7128 54.9071 83.8785 55.2388 84.0443 55.5706ZM94.3219 70.3341L93.4931 71.1635C93.3273 71.4953 93.1615 71.8271 92.9958 72.1588C92.9958 72.6565 92.9958 73.1541 93.3273 73.6518C93.6588 74.1494 94.1561 74.4812 94.6535 74.6471C99.4607 76.14 107.915 78.6282 116.369 81.6141C114.877 90.0741 111.064 97.8706 105.263 104.174C115.706 103.511 143.887 103.013 143.389 84.6C142.892 68.8412 104.765 65.5235 94.3219 70.3341ZM87.857 89.4106L86.8624 89.0788L85.8678 89.4106C85.3704 89.5765 85.0389 90.0741 84.8731 90.5718C84.7074 91.0694 84.7074 91.7329 84.8731 92.2306C86.6966 96.8753 89.8462 104.838 92.83 113.629C85.3705 117.611 76.7505 119.435 68.2964 118.938C75.2586 126.734 93.1615 148.465 107.583 136.687C122.005 124.909 98.1346 94.3871 87.857 89.4106ZM69.1252 96.0459L68.6279 95.2165L67.7991 94.5529C67.3018 94.3871 66.6387 94.3871 66.1414 94.5529C65.6441 94.7188 65.1468 95.0506 64.981 95.5482C62.4945 99.8612 58.0187 107.326 53.2115 115.122C45.2546 111.805 38.6239 106.165 33.8166 99.0318C31.9932 109.482 26.1913 137.019 44.26 140.834C59.5107 143.82 71.4459 107.16 69.1252 96.0459ZM52.0511 85.5953C52.3826 85.2635 52.5484 84.9318 52.5484 84.6C52.7142 84.2682 52.7142 83.9365 52.5484 83.6047C52.3826 83.1071 52.0511 82.6094 51.7196 82.2776C51.2223 81.9459 50.5592 81.78 50.0619 81.9459C44.9231 82.7753 36.4689 84.1023 27.5175 85.0976C25.1967 76.8035 25.1967 68.0118 27.849 59.7176C18.4002 64.86 -6.63072 77.6329 1.65767 94.0553C8.78569 107.824 44.7573 94.3871 52.0511 85.5953ZM49.7304 65.6894C50.0619 65.8553 50.5592 65.6894 50.8907 65.5235C51.2223 65.3576 51.388 65.0259 51.5538 64.6941C51.8853 64.1965 52.0511 63.6988 52.0511 63.2012C51.8853 62.7035 51.5538 62.2059 51.2223 61.7082C47.5754 58.3906 41.2762 52.5847 34.977 46.1153C39.9501 39.1482 46.9123 33.6741 54.8692 30.6882C45.0889 26.3753 19.3948 14.5976 11.7695 31.5176C5.47033 45.7835 38.2924 65.5235 49.7304 65.6894ZM65.8098 52.4188C66.3071 52.4188 66.8044 52.0871 67.136 51.7553C67.4675 51.2576 67.7991 50.76 67.9648 50.2624C68.2964 45.2859 68.9594 36.66 69.954 27.5365C78.574 27.2047 87.0281 29.1953 94.4877 33.6741C91.5039 23.3894 84.8731 -3.81529 67.136 0.497646C51.8853 4.31294 56.8584 42.4659 63.9864 51.5894C64.4837 52.0871 65.1468 52.4188 65.8098 52.4188Z" fill="black"/>
</g>
<defs>
<clipPath id="clip0_348_96">
<rect width="707" height="141" fill="white"/>
</clipPath>
</defs>
</svg>
