<svg width="32" height="32" viewBox="0 0 32 32" fill="none" xmlns="http://www.w3.org/2000/svg">
<rect width="32" height="32" fill="white"/>
<path d="M13.2677 6.645C13.268 6.64474 13.2683 6.64447 13.2686 6.6442L17.6415 2.7086L17.6534 2.69793L17.6645 2.68653C17.8371 2.51003 18.207 2.43213 18.5198 2.57021C18.8105 2.701 19 2.99219 19 3.31252V5.50002V6.00002H19.5H20.375C23.9653 6.00002 26.875 8.90976 26.875 12.5V21.6164V21.9443L27.1757 22.075C28.5465 22.6708 29.5 24.0366 29.5 25.625C29.5 27.7661 27.766 29.5 25.625 29.5C23.484 29.5 21.75 27.7661 21.75 25.625C21.75 24.0366 22.7035 22.6708 24.0743 22.075L24.375 21.9443V21.6164V12.5C24.375 10.2934 22.5816 8.50002 20.375 8.50002H19.5H19V9.00002V11.1875C19 11.5103 18.8094 11.8005 18.5214 11.9278L18.5189 11.9289C18.2072 12.0687 17.8386 11.9911 17.6662 11.8131L17.6542 11.8008L17.6415 11.7893L13.2665 7.85181C13.0988 7.70091 13 7.48071 13 7.25002C13 7.02044 13.0981 6.79979 13.2677 6.645ZM7.625 21.6164V21.9443L7.9257 22.075C9.29653 22.6708 10.25 24.0366 10.25 25.625C10.25 27.7661 8.51605 29.5 6.375 29.5C4.23497 29.5 2.5 27.766 2.5 25.625C2.5 24.037 3.45586 22.6708 4.8246 22.0749L5.125 21.9441V21.6164V10.3836V10.0654L4.83666 9.93063C3.44878 9.28213 2.5 7.95459 2.5 6.37502C2.5 4.23507 4.23505 2.50004 6.375 2.50004C8.51597 2.50004 10.25 4.23499 10.25 6.37502C10.25 7.95498 9.3036 9.28217 7.91364 9.93048L7.625 10.0651V10.3836V21.6164ZM25.625 27.4375C26.6285 27.4375 27.4375 26.6285 27.4375 25.625C27.4375 24.6215 26.6285 23.8125 25.625 23.8125C24.6215 23.8125 23.8125 24.6215 23.8125 25.625C23.8125 26.6285 24.6215 27.4375 25.625 27.4375ZM6.375 4.56252C5.37425 4.56252 4.5625 5.37427 4.5625 6.37502C4.5625 7.37577 5.37425 8.18752 6.375 8.18752C7.37575 8.18752 8.1875 7.37577 8.1875 6.37502C8.1875 5.37427 7.37575 4.56252 6.375 4.56252ZM6.375 23.8125C5.37493 23.8125 4.5625 24.6209 4.5625 25.625C4.5625 26.6292 5.37493 27.4375 6.375 27.4375C7.37507 27.4375 8.1875 26.6292 8.1875 25.625C8.1875 24.6209 7.37507 23.8125 6.375 23.8125Z" fill="#5E54FF" stroke="#183C4A"/>
</svg>
