<svg width="96" height="96" viewBox="0 0 96 96" fill="none" xmlns="http://www.w3.org/2000/svg">
<path d="M57.2641 38.5043C56.9312 38.5043 56.4872 38.3936 56.2653 38.0615L55.9323 37.3972C55.8214 37.1758 55.8214 36.9544 55.9323 36.733C57.708 29.3156 73.9109 9.38831 83.788 16.9164C93.6651 24.4445 82.2343 39.39 78.2391 45.1468C77.2402 39.5007 74.7987 34.1867 71.0254 29.8692C65.6985 33.0797 61.0374 36.4009 58.2629 38.2829C58.0409 38.5043 57.597 38.615 57.2641 38.5043Z" fill="white"/>
<path d="M62.5911 48.468L63.146 47.9144C70.1376 44.7039 95.6627 46.9181 95.9957 57.4353C96.3286 69.7238 77.4622 70.0559 70.4706 70.4987C74.3548 66.2918 76.9073 61.0886 77.9061 55.4425C72.2462 53.4498 66.5863 51.7892 63.3679 50.7928C63.035 50.6821 62.702 50.4607 62.4801 50.1286C62.2581 49.7965 62.2581 49.4643 62.2581 49.1322L62.5911 48.468Z" fill="white"/>
<path d="M58.1519 60.4244L58.8178 60.6458C65.6985 63.967 81.6794 84.3371 72.0243 92.1973C62.3691 100.058 50.3834 85.5549 45.7223 80.3517C51.3822 80.6838 57.1531 79.466 62.1472 76.809C60.1495 70.9415 58.0409 65.6276 56.8202 62.5278C56.7092 62.1957 56.7092 61.7528 56.8202 61.4207C56.9312 61.0886 57.1531 60.7565 57.486 60.6458L58.1519 60.4244Z" fill="white"/>
<path d="M45.9443 64.5205L46.2772 65.0741C47.8309 72.4914 39.8404 96.9577 29.6304 94.965C17.5337 92.4187 21.418 74.0413 22.6387 67.0668C25.8571 71.8272 30.2963 75.5912 35.6232 77.8054C38.8416 72.6021 41.8381 67.6203 43.5027 64.7419C43.6137 64.4098 43.9467 64.1884 44.2796 64.0777C44.6125 63.967 45.0564 63.967 45.3894 64.0777L45.9443 64.5205Z" fill="white"/>
<path d="M35.1793 57.4353C35.1793 57.6567 35.0684 57.8781 34.8464 58.0995C29.9633 63.967 5.88096 72.9343 1.10888 63.7456C-4.44005 52.7856 12.3177 44.2611 18.6435 40.8292C16.8679 46.3645 16.8679 52.232 18.4216 57.7674C24.4144 57.1031 30.0743 56.2175 33.5147 55.6639C33.8476 55.5532 34.2915 55.6639 34.6244 55.8854C34.8464 56.1068 35.0684 56.4389 35.1793 56.771C35.2903 56.9924 35.2903 57.2138 35.1793 57.4353Z" fill="white"/>
<path d="M34.0695 44.7039C33.8476 44.8146 33.5147 44.9253 33.2927 44.8146C25.6352 44.7039 3.66139 31.5298 7.87858 22.0089C12.9836 10.7168 30.1853 18.577 36.733 21.4554C31.4061 23.4481 26.745 27.1015 23.4156 31.7512C27.6328 36.0688 31.85 39.9435 34.2915 42.1577C34.5135 42.4898 34.7354 42.8219 34.8464 43.154C34.8464 43.4861 34.7354 43.8183 34.5135 44.1504C34.4025 44.3718 34.2915 44.5932 34.0695 44.7039Z" fill="white"/>
<path d="M44.9455 35.5152C44.7235 35.7366 44.3906 35.9581 44.0576 35.9581C43.6137 35.9581 43.1698 35.7366 42.8369 35.4045C38.0648 29.3156 34.7354 3.85295 44.9455 1.30668C56.8202 -1.57171 61.2593 16.5843 63.2569 23.4481C58.2629 20.459 52.603 19.1306 46.8321 19.352C46.1662 25.4409 45.7223 31.1976 45.5004 34.5189C45.3894 34.851 45.1674 35.1831 44.9455 35.5152Z" fill="white"/>
</svg>
