<svg width="256" height="58" viewBox="0 0 256 58" fill="none" xmlns="http://www.w3.org/2000/svg">
<path d="M1 29C1 13.536 13.536 1 29 1H227C242.464 1 255 13.536 255 29V29C255 44.464 242.464 57 227 57H29C13.536 57 1 44.464 1 29V29Z" fill="white"/>
<rect x="17" y="19" width="20" height="20" rx="10" stroke="#183C4A"/>
<path d="M50.05 33H51.198V23.368H50.05V33ZM53.0519 26.686H53.6959L54.2839 24.67V23.34H52.9539V24.95H53.5419L53.0519 26.686ZM55.825 33H56.917V29.136C56.917 27.876 57.645 26.882 58.737 26.882C59.675 26.882 60.011 27.386 60.151 28.072C60.207 28.338 60.207 28.744 60.207 29.052V33H61.299V29.136C61.299 27.876 62.027 26.882 63.119 26.882C64.057 26.882 64.393 27.386 64.533 28.072C64.589 28.338 64.589 28.744 64.589 29.052V33H65.681V28.478C65.681 27.008 64.967 25.916 63.329 25.916C62.069 25.916 61.369 26.798 61.117 27.288C60.823 26.518 60.179 25.916 59.031 25.916C57.981 25.916 57.225 26.546 56.931 27.106H56.917V26.084H55.825V33ZM75.4086 23.368V27.246C75.0586 26.63 74.3166 25.916 73.0146 25.916C71.1666 25.916 69.8786 27.372 69.8786 29.542C69.8786 31.712 71.1666 33.168 73.0146 33.168C74.3166 33.168 75.0586 32.454 75.4086 31.838V33H76.5006V23.368H75.4086ZM73.2246 32.23C71.7406 32.23 71.0266 31.012 71.0266 29.542C71.0266 28.072 71.7406 26.854 73.2246 26.854C74.6946 26.854 75.4506 28.114 75.4506 29.542C75.4506 30.97 74.6946 32.23 73.2246 32.23ZM81.3151 33.168C83.4851 33.168 84.6611 31.488 84.6611 29.542C84.6611 27.61 83.4851 25.916 81.3151 25.916C79.1451 25.916 77.9691 27.61 77.9691 29.542C77.9691 31.488 79.1451 33.168 81.3151 33.168ZM81.3151 32.23C79.8171 32.23 79.1171 30.998 79.1171 29.542C79.1171 28.1 79.8171 26.854 81.3151 26.854C82.8131 26.854 83.5131 28.114 83.5131 29.542C83.5131 30.984 82.8131 32.23 81.3151 32.23ZM86.1361 24.908H87.2281V23.368H86.1361V24.908ZM86.1361 33H87.2281V26.084H86.1361V33ZM89.0449 33H90.1369V29.094C90.1369 27.918 90.8929 26.882 92.1669 26.882C93.1469 26.882 93.5529 27.414 93.6929 28.1C93.7489 28.366 93.7629 28.772 93.7629 29.08V33H94.8549V28.464C94.8549 26.868 93.9869 25.916 92.4049 25.916C91.3269 25.916 90.5429 26.462 90.1509 27.12H90.1369V26.084H89.0449V33ZM99.4442 35.758C101.082 35.758 102.44 34.932 102.44 32.986V26.084H101.348V27.134C101.012 26.588 100.368 25.916 99.1922 25.916C97.4842 25.916 96.2522 27.204 96.2522 29.304C96.2522 31.404 97.4842 32.692 99.1922 32.692C100.368 32.692 101.012 32.02 101.348 31.474V32.888C101.348 34.246 100.578 34.862 99.4862 34.862C98.4222 34.862 97.8062 34.316 97.6942 33.294L96.5462 33.476C96.6722 34.834 97.8202 35.758 99.4442 35.758ZM99.3742 31.754C98.1282 31.754 97.4002 30.746 97.4002 29.304C97.4002 27.862 98.1282 26.854 99.3742 26.854C100.662 26.854 101.376 28.03 101.376 29.304C101.376 30.578 100.662 31.754 99.3742 31.754ZM108.937 33.056C109.329 33.056 109.567 33.028 109.903 32.972V32.048C109.679 32.09 109.511 32.104 109.245 32.104C108.685 32.104 108.419 31.894 108.419 31.292V27.036H109.833V26.084H108.419V23.76H107.327V26.084H106.081V27.036H107.327V31.432C107.327 31.642 107.355 31.824 107.383 31.992C107.565 32.72 108.125 33.056 108.937 33.056ZM111.235 33H112.327V29.094C112.327 27.918 113.083 26.882 114.357 26.882C115.309 26.882 115.743 27.414 115.883 28.1C115.939 28.366 115.953 28.772 115.953 29.08V33H117.045V28.464C117.045 26.868 116.177 25.916 114.595 25.916C113.517 25.916 112.775 26.406 112.341 27.12H112.327V23.368H111.235V33ZM118.792 24.908H119.884V23.368H118.792V24.908ZM118.792 33H119.884V26.084H118.792V33ZM124.361 33.168C125.831 33.168 127.231 32.37 127.231 30.942C127.231 29.654 126.251 29.248 125.089 28.996L124.053 28.772C123.185 28.59 122.723 28.408 122.723 27.848C122.723 27.274 123.353 26.826 124.207 26.826C125.089 26.826 125.691 27.274 125.817 28.142L126.965 27.932C126.825 26.602 125.761 25.916 124.249 25.916C122.821 25.916 121.575 26.742 121.575 27.932C121.575 28.968 122.289 29.472 123.409 29.71L124.445 29.934C125.509 30.158 126.083 30.354 126.083 31.082C126.083 31.81 125.355 32.258 124.403 32.258C123.381 32.258 122.667 31.796 122.513 30.578L121.351 30.76C121.547 32.412 122.751 33.168 124.361 33.168ZM134.507 33.168C136.677 33.168 137.853 31.488 137.853 29.542C137.853 27.61 136.677 25.916 134.507 25.916C132.337 25.916 131.161 27.61 131.161 29.542C131.161 31.488 132.337 33.168 134.507 33.168ZM134.507 32.23C133.009 32.23 132.309 30.998 132.309 29.542C132.309 28.1 133.009 26.854 134.507 26.854C136.005 26.854 136.705 28.114 136.705 29.542C136.705 30.984 136.005 32.23 134.507 32.23ZM139.328 33H140.42V29.094C140.42 27.918 141.176 26.882 142.45 26.882C143.43 26.882 143.836 27.414 143.976 28.1C144.032 28.366 144.046 28.772 144.046 29.08V33H145.138V28.464C145.138 26.868 144.27 25.916 142.688 25.916C141.61 25.916 140.826 26.462 140.434 27.12H140.42V26.084H139.328V33ZM149.867 33.168C151.645 33.168 152.569 32.132 152.975 30.872L151.841 30.564C151.589 31.6 150.931 32.23 149.881 32.23C148.607 32.23 147.683 31.278 147.683 29.528C147.683 27.792 148.621 26.854 149.839 26.854C150.959 26.854 151.561 27.61 151.771 28.52L152.919 28.212C152.541 26.91 151.533 25.916 149.867 25.916C147.823 25.916 146.535 27.414 146.535 29.528C146.535 31.67 147.837 33.168 149.867 33.168ZM160.406 29.36C160.406 27.218 159.104 25.916 157.326 25.916C155.59 25.916 154.092 27.218 154.092 29.556C154.092 31.908 155.506 33.168 157.284 33.168C159.02 33.168 160.07 32.104 160.364 30.984L159.202 30.802C158.936 31.74 158.25 32.23 157.34 32.23C156.248 32.23 155.352 31.404 155.268 29.794H160.406V29.36ZM155.282 28.842C155.45 27.582 156.248 26.826 157.326 26.826C158.446 26.826 159.104 27.736 159.174 28.842H155.282Z" fill="#183C4A"/>
<path d="M218.973 21.1327C219.419 19.2371 223.835 14.493 225.942 16.076C228.395 17.9765 225.534 21.7923 224.526 23.2678C224.526 23.2678 224.324 21.2255 222.717 19.3739C221.435 20.1995 220.25 21.0301 219.554 21.5284C219.491 21.5702 219.418 21.5923 219.344 21.592C219.269 21.5917 219.196 21.5691 219.134 21.5268C219.072 21.4846 219.024 21.4246 218.995 21.3545C218.966 21.2844 218.959 21.2073 218.973 21.1327ZM220.773 23.9957C220.72 24.0209 220.673 24.059 220.638 24.1067C220.603 24.1545 220.58 24.2103 220.571 24.2693C220.554 24.3609 220.572 24.4556 220.619 24.5351C220.667 24.6145 220.742 24.673 220.83 24.6993C221.646 24.9436 223.024 25.3735 224.454 25.8816C224.032 28.3147 222.592 29.7462 222.592 29.7462C224.353 29.6289 229.062 29.5361 228.999 26.3946C228.908 23.7319 222.51 23.17 220.773 23.9957ZM219.693 27.2105C219.625 27.1766 219.549 27.1645 219.474 27.1759C219.4 27.1873 219.331 27.2216 219.276 27.2742C219.221 27.3268 219.183 27.3953 219.168 27.4703C219.152 27.5454 219.16 27.6235 219.189 27.6942C219.506 28.4955 220.038 29.8586 220.538 31.3194C218.402 32.4969 216.405 32.2379 216.405 32.2379C217.591 33.5668 220.595 37.2604 222.966 35.2573C224.958 33.5277 221.411 28.0802 219.693 27.2105ZM216.549 28.3538C216.537 28.2952 216.511 28.2405 216.473 28.1945C216.436 28.1485 216.387 28.1126 216.333 28.09C216.249 28.0515 216.154 28.0467 216.067 28.0766C215.979 28.1065 215.907 28.1689 215.863 28.2512C215.445 29.0036 214.725 30.2739 213.914 31.5783C211.682 30.611 210.636 28.857 210.636 28.857C210.353 30.6305 209.383 35.3257 212.402 35.9706C214.97 36.4787 216.952 30.2592 216.549 28.3538ZM213.717 26.5558C213.752 26.5093 213.777 26.4552 213.789 26.3976C213.8 26.3401 213.799 26.2805 213.784 26.2236C213.762 26.1325 213.706 26.0533 213.629 26.0018C213.551 25.9502 213.458 25.93 213.367 25.9451C212.527 26.0819 211.101 26.3018 209.594 26.4679C208.946 24.0837 209.642 22.1636 209.642 22.1636C208.102 23.0381 203.892 25.1927 205.275 27.9922C206.484 30.3569 212.498 28.0606 213.717 26.5558ZM213.328 23.1798C213.387 23.1816 213.445 23.1687 213.498 23.1423C213.551 23.1159 213.596 23.0768 213.631 23.0284C213.686 22.9526 213.712 22.8588 213.703 22.7649C213.694 22.6711 213.651 22.5839 213.583 22.5202C212.954 21.9388 211.898 20.9422 210.833 19.8429C212.263 17.8446 214.173 17.2046 214.173 17.2046C212.541 16.5206 208.265 14.5028 206.974 17.3561C205.908 19.7891 211.413 23.1505 213.328 23.1798ZM215.992 20.9177C216.084 20.9144 216.172 20.8767 216.238 20.8118C216.305 20.7469 216.345 20.6594 216.352 20.566C216.405 19.7012 216.52 18.2404 216.698 16.7063C219.126 16.5988 220.806 17.7225 220.806 17.7225C220.317 15.9978 219.203 11.3369 216.208 12.0795C213.674 12.7488 214.519 19.2273 215.685 20.776C215.722 20.8225 215.769 20.8595 215.822 20.8841C215.875 20.9087 215.934 20.9202 215.992 20.9177Z" fill="url(#paint0_linear_7429_162466)"/>
<path d="M204.441 41.496L203.473 45.64L202.305 41.496H201.353L200.209 45.64L199.217 41.496H198.145L199.729 47H200.649L201.833 42.784L203.033 47H203.953L205.513 41.496H204.441ZM208.455 47.096C210.103 47.096 211.151 45.808 211.151 44.248C211.151 42.68 210.119 41.4 208.455 41.4C206.791 41.4 205.759 42.68 205.759 44.248C205.759 45.808 206.791 47.096 208.455 47.096ZM208.455 46.296C207.375 46.296 206.767 45.416 206.767 44.248C206.767 43.08 207.375 42.2 208.455 42.2C209.519 42.2 210.143 43.08 210.143 44.248C210.143 45.416 209.535 46.296 208.455 46.296ZM215.197 47H216.341L214.781 44.68C215.397 44.512 216.013 44.08 216.013 43.096C216.013 42.064 215.277 41.496 214.157 41.496H211.989V47H212.973V44.744H213.709L215.197 47ZM212.973 42.36H214.181C214.765 42.36 215.053 42.656 215.053 43.12C215.053 43.584 214.749 43.88 214.181 43.88H212.973V42.36ZM216.979 47H220.667V46.152H217.963V41.496H216.979V47ZM221.469 47H223.573C225.205 47 226.205 45.832 226.205 44.232C226.205 42.576 225.229 41.496 223.469 41.496H221.469V47ZM222.461 46.136V42.36H223.173C224.509 42.36 225.197 42.864 225.197 44.232C225.197 45.32 224.653 46.136 223.525 46.136H222.461ZM228.809 47H229.801V41.496H228.809V47ZM230.839 47H232.943C234.575 47 235.575 45.832 235.575 44.232C235.575 42.576 234.599 41.496 232.839 41.496H230.839V47ZM231.831 46.136V42.36H232.543C233.879 42.36 234.567 42.864 234.567 44.232C234.567 45.32 234.023 46.136 232.895 46.136H231.831Z" fill="url(#paint1_linear_7429_162466)"/>
<path d="M235 11.2005L235 11.5505L235 11.2005ZM236 12.1423L235.65 12.1423L236 12.1423ZM233.65 12.1423C233.65 12.3356 233.807 12.4923 234 12.4923C234.193 12.4923 234.35 12.3356 234.35 12.1423L233.65 12.1423ZM235.722 12.7943L235.476 12.5445V12.5445L235.722 12.7943ZM234.65 13.8672C234.65 14.0605 234.807 14.2172 235 14.2172C235.193 14.2172 235.35 14.0605 235.35 13.8672L234.65 13.8672ZM235.067 13.082L235.088 13.4314L235.067 13.082ZM235 13.1508L234.65 13.1508L235 13.1508ZM235 11.5505C235.379 11.5505 235.65 11.835 235.65 12.1423L236.35 12.1423C236.35 11.4094 235.726 10.8505 235 10.8505L235 11.5505ZM235 10.8505C234.826 10.8505 234.652 10.8829 234.49 10.9461L234.745 11.5983C234.825 11.5669 234.912 11.5505 235 11.5505L235 10.8505ZM234.49 10.9461C234.328 11.0094 234.179 11.1027 234.053 11.2216L234.533 11.7312C234.592 11.6751 234.664 11.6296 234.745 11.5983L234.49 10.9461ZM234.053 11.2216C233.927 11.3405 233.825 11.4828 233.756 11.641L234.397 11.9228C234.427 11.8525 234.473 11.7871 234.533 11.7312L234.053 11.2216ZM233.756 11.641C233.686 11.7992 233.65 11.9697 233.65 12.1423L234.35 12.1423C234.35 12.0676 234.366 11.9931 234.397 11.9228L233.756 11.641ZM235.65 12.1423C235.65 12.2946 235.587 12.4362 235.476 12.5445L235.967 13.0441C236.201 12.814 236.35 12.4961 236.35 12.1423L235.65 12.1423ZM235.476 12.5445C235.369 12.6503 235.218 12.722 235.045 12.7327L235.088 13.4314C235.43 13.4102 235.739 13.2673 235.967 13.0441L235.476 12.5445ZM235.35 13.8672L235.35 13.1508L234.65 13.1508L234.65 13.8672L235.35 13.8672ZM235.045 12.7327C234.838 12.7455 234.65 12.9153 234.65 13.1508L235.35 13.1508C235.35 13.3125 235.222 13.4231 235.088 13.4314L235.045 12.7327Z" fill="#4940E0"/>
<path fill-rule="evenodd" clip-rule="evenodd" d="M234.997 14.5969C235.19 14.5969 235.348 14.7533 235.348 14.9469C235.348 15.1404 235.193 15.2969 235 15.2969L234.997 15.2969C234.804 15.2969 234.648 15.1404 234.648 14.9469C234.648 14.7533 234.804 14.5969 234.997 14.5969Z" fill="#4940E0"/>
<circle cx="234.999" cy="13.0026" r="3.66667" stroke="#4940E0" stroke-width="0.7"/>
<path d="M29 1.5H227V0.5H29V1.5ZM227 56.5H29V57.5H227V56.5ZM29 56.5C13.8122 56.5 1.5 44.1878 1.5 29H0.5C0.5 44.7401 13.2599 57.5 29 57.5V56.5ZM254.5 29C254.5 44.1878 242.188 56.5 227 56.5V57.5C242.74 57.5 255.5 44.7401 255.5 29H254.5ZM227 1.5C242.188 1.5 254.5 13.8122 254.5 29H255.5C255.5 13.2599 242.74 0.5 227 0.5V1.5ZM29 0.5C13.2599 0.5 0.5 13.2599 0.5 29H1.5C1.5 13.8122 13.8122 1.5 29 1.5V0.5Z" fill="url(#paint2_linear_7429_162466)"/>
<defs>
<linearGradient id="paint0_linear_7429_162466" x1="205" y1="23.9999" x2="229" y2="23.9999" gradientUnits="userSpaceOnUse">
<stop stop-color="#FF6848"/>
<stop offset="1" stop-color="#4940E0"/>
</linearGradient>
<linearGradient id="paint1_linear_7429_162466" x1="198" y1="45" x2="236" y2="45" gradientUnits="userSpaceOnUse">
<stop stop-color="#FF6848"/>
<stop offset="1" stop-color="#4940E0"/>
</linearGradient>
<linearGradient id="paint2_linear_7429_162466" x1="1" y1="28.9998" x2="255" y2="28.9998" gradientUnits="userSpaceOnUse">
<stop stop-color="#FF6848"/>
<stop offset="1" stop-color="#4940E0"/>
</linearGradient>
</defs>
</svg>
