<svg width="322" height="181" fill="none" xmlns="http://www.w3.org/2000/svg"><mask id="b" style="mask-type:alpha" maskUnits="userSpaceOnUse" x="0" y="0" width="322" height="181"><path fill="url(#a)" d="M0 0h322v181H0z"/></mask><g mask="url(#b)"><mask id="c" style="mask-type:alpha" maskUnits="userSpaceOnUse" x="10" y="1" width="311" height="141"><path fill-rule="evenodd" clip-rule="evenodd" d="m320.982 48.396.018.104-.5-30.5v-1c0-8.837-7.163-16-16-16h-84.653a23.999 23.999 0 0 0-17.876 7.986L195.688 16H50c-18.856 0-28.284 0-34.142 5.858C10 27.716 10 37.144 10 56v45.5c0 18.856 0 28.284 5.858 34.142C21.716 141.5 31.144 141.5 50 141.5h231c18.856 0 28.284 0 34.142-5.858C321 129.784 321 120.356 321 101.5V56c0-2.726 0-5.255-.018-7.604ZM193 19h88c9.513 0 16.346.006 21.546.706 5.113.687 8.196 1.995 10.475 4.273 2.278 2.279 3.586 5.362 4.274 10.475.699 5.2.705 12.033.705 21.546v45.5c0 9.513-.006 16.346-.705 21.546-.688 5.113-1.996 8.196-4.274 10.475-2.279 2.278-5.362 3.586-10.475 4.274-5.2.699-12.033.705-21.546.705H50c-9.513 0-16.346-.006-21.546-.705-5.113-.688-8.196-1.996-10.475-4.274-2.278-2.279-3.586-5.362-4.273-10.475-.7-5.2-.706-12.033-.706-21.546V56c0-9.513.006-16.346.706-21.546.687-5.113 1.995-8.196 4.273-10.475 2.279-2.278 5.362-3.586 10.475-4.273C33.654 19.006 40.487 19 50 19h143Z" fill="#000"/></mask><g mask="url(#c)"><rect x="-49" y="598" width="719" height="429" rx="22.241" transform="rotate(-90 -49 598)" fill="#000"/></g></g><defs><radialGradient id="a" cx="0" cy="0" r="1" gradientUnits="userSpaceOnUse" gradientTransform="rotate(98.326 142.678 132.053) scale(103.592 257.608)"><stop stop-color="#fff"/><stop offset=".396" stop-color="#fff" stop-opacity=".792"/><stop offset="1" stop-color="#fff" stop-opacity="0"/></radialGradient></defs></svg>