<svg width="1338" height="942" fill="none" xmlns="http://www.w3.org/2000/svg"><path opacity=".2" fill-rule="evenodd" clip-rule="evenodd" d="m1379.4-650.109 93.86 162.562a27.454 27.454 0 0 1 0 27.443l-93.86 162.562a27.435 27.435 0 0 1-23.76 13.721h-187.71c-9.81 0-18.87-5.23-23.77-13.721l-93.85-162.562a27.405 27.405 0 0 1 0-27.443l93.85-162.562a27.44 27.44 0 0 1 23.77-13.722h187.71c9.8 0 18.86 5.231 23.76 13.722Zm-23.76-15.551a29.27 29.27 0 0 1 25.35 14.636l93.85 162.562a29.269 29.269 0 0 1 0 29.273l-93.85 162.561a29.27 29.27 0 0 1-25.35 14.637h-187.71a29.27 29.27 0 0 1-25.35-14.637l-93.86-162.561a29.269 29.269 0 0 1 0-29.273l93.86-162.562a29.27 29.27 0 0 1 25.35-14.636h187.71ZM686.749-232.754l93.855 162.562a27.445 27.445 0 0 1 0 27.444l-93.855 162.561a27.446 27.446 0 0 1-23.767 13.722h-187.71a27.443 27.443 0 0 1-23.767-13.722L357.65-42.748a27.445 27.445 0 0 1 0-27.444l93.855-162.562a27.442 27.442 0 0 1 23.767-13.721h187.71c9.804 0 18.864 5.23 23.767 13.721Zm-23.767-15.551a29.274 29.274 0 0 1 25.351 14.637l93.855 162.561a29.274 29.274 0 0 1 0 29.273l-93.855 162.562a29.273 29.273 0 0 1-25.351 14.636h-187.71a29.273 29.273 0 0 1-25.351-14.636L356.066-41.834a29.271 29.271 0 0 1 0-29.273l93.855-162.561a29.274 29.274 0 0 1 25.351-14.637h187.71Zm367.978 214.29 93.86 162.561a27.456 27.456 0 0 1 0 27.444l-93.86 162.561a27.436 27.436 0 0 1-23.76 13.722H819.487a27.443 27.443 0 0 1-23.767-13.722L701.865 155.99a27.446 27.446 0 0 1 0-27.444L795.72-34.015a27.443 27.443 0 0 1 23.767-13.722H1007.2c9.8 0 18.86 5.23 23.76 13.722Zm-23.76-15.552c10.45 0 20.12 5.58 25.35 14.637l93.85 162.562a29.269 29.269 0 0 1 0 29.273l-93.85 162.561a29.283 29.283 0 0 1-25.35 14.637H819.487a29.275 29.275 0 0 1-25.352-14.637L700.28 156.905a29.274 29.274 0 0 1 0-29.273L794.135-34.93a29.274 29.274 0 0 1 25.352-14.637H1007.2Zm461.84 376.844-93.86-162.562a27.436 27.436 0 0 0-23.76-13.722h-187.71a27.44 27.44 0 0 0-23.77 13.722l-93.86 162.562a27.454 27.454 0 0 0 0 27.443l93.86 162.562a27.44 27.44 0 0 0 23.77 13.722h187.71c9.8 0 18.86-5.231 23.76-13.722l93.86-162.562a27.454 27.454 0 0 0 0-27.443ZM1376.77 163.8a29.282 29.282 0 0 0-25.35-14.636h-187.71a29.286 29.286 0 0 0-25.36 14.636l-93.85 162.562a29.269 29.269 0 0 0 0 29.273l93.85 162.562a29.286 29.286 0 0 0 25.36 14.636h187.71c10.45 0 20.12-5.579 25.35-14.636l93.85-162.562a29.269 29.269 0 0 0 0-29.273L1376.77 163.8Zm-.56-403.018 93.85 162.561a27.455 27.455 0 0 1 0 27.444l-93.85 162.561a27.464 27.464 0 0 1-23.77 13.722h-187.71a27.44 27.44 0 0 1-23.77-13.722l-93.85-162.561a27.406 27.406 0 0 1 0-27.444l93.85-162.561a27.44 27.44 0 0 1 23.77-13.722h187.71c9.8 0 18.86 5.231 23.77 13.722Zm-23.77-15.552a29.27 29.27 0 0 1 25.35 14.637l93.85 162.561a29.293 29.293 0 0 1 .01 29.274l-93.86 162.561a29.27 29.27 0 0 1-25.35 14.637h-187.71a29.27 29.27 0 0 1-25.35-14.637l-93.86-162.561a29.269 29.269 0 0 1 0-29.274l93.86-162.561a29.27 29.27 0 0 1 25.35-14.637h187.71Zm-320.45-183.179 93.86 162.562a27.454 27.454 0 0 1 0 27.443l-93.86 162.562a27.439 27.439 0 0 1-23.77 13.722H820.514a27.444 27.444 0 0 1-23.767-13.722l-93.855-162.562a27.444 27.444 0 0 1 0-27.443l93.855-162.562a27.445 27.445 0 0 1 23.767-13.722h187.706a27.44 27.44 0 0 1 23.77 13.722Zm-23.77-15.551c10.46 0 20.13 5.579 25.36 14.636l93.85 162.562a29.269 29.269 0 0 1 0 29.273l-93.85 162.561a29.286 29.286 0 0 1-25.36 14.637H820.514a29.273 29.273 0 0 1-25.351-14.636L701.308-247.03a29.274 29.274 0 0 1 0-29.273l93.855-162.562a29.273 29.273 0 0 1 25.351-14.636h187.706ZM429.107 139.601 335.253-22.961a27.445 27.445 0 0 0-23.767-13.721h-187.71a27.443 27.443 0 0 0-23.767 13.721L6.154 139.601a27.442 27.442 0 0 0 0 27.443l93.855 162.562a27.443 27.443 0 0 0 23.767 13.722h187.71a27.446 27.446 0 0 0 23.767-13.722l93.855-162.562a27.442 27.442 0 0 0-.001-27.443Zm-92.27-163.476a29.273 29.273 0 0 0-25.351-14.637h-187.71a29.273 29.273 0 0 0-25.352 14.637L4.57 138.686a29.273 29.273 0 0 0 0 29.273l93.855 162.562a29.273 29.273 0 0 0 25.351 14.636h187.71a29.273 29.273 0 0 0 25.351-14.636l93.855-162.562a29.274 29.274 0 0 0 0-29.273L336.837-23.875Zm436.485 362.214-93.855-162.561a27.443 27.443 0 0 0-23.766-13.722h-187.71a27.443 27.443 0 0 0-23.767 13.722l-93.855 162.561a27.444 27.444 0 0 0 0 27.444l93.855 162.561a27.443 27.443 0 0 0 23.767 13.722h187.71a27.443 27.443 0 0 0 23.766-13.722l93.855-162.561a27.441 27.441 0 0 0 0-27.444Zm-92.27-163.476a29.274 29.274 0 0 0-25.351-14.637h-187.71a29.274 29.274 0 0 0-25.352 14.637l-93.855 162.561a29.274 29.274 0 0 0 0 29.273l93.855 162.562a29.274 29.274 0 0 0 25.352 14.637h187.71a29.274 29.274 0 0 0 25.351-14.637l93.855-162.561a29.275 29.275 0 0 0 0-29.274l-93.855-162.561Zm342.638 199.645 93.85 162.562a27.454 27.454 0 0 1 0 27.443l-93.85 162.562a27.464 27.464 0 0 1-23.771 13.722l-187.71-.001a27.442 27.442 0 0 1-23.766-13.721l-93.856-162.562a27.442 27.442 0 0 1 .001-27.443l93.854-162.562a27.446 27.446 0 0 1 23.767-13.722h187.71a27.464 27.464 0 0 1 23.771 13.722Zm-23.771-15.551a29.27 29.27 0 0 1 25.351 14.636l93.86 162.562a29.317 29.317 0 0 1 0 29.273l-93.86 162.562a29.27 29.27 0 0 1-25.351 14.636h-187.71a29.271 29.271 0 0 1-25.351-14.637l-93.855-162.561a29.274 29.274 0 0 1 0-29.273l93.855-162.562a29.273 29.273 0 0 1 25.351-14.636h187.71Zm461.821 376.847-93.85-162.561a27.464 27.464 0 0 0-23.77-13.722h-187.71c-9.81 0-18.87 5.23-23.77 13.722l-93.85 162.561a27.407 27.407 0 0 0 0 27.444l93.85 162.561a27.44 27.44 0 0 0 23.77 13.722h187.71c9.8 0 18.86-5.231 23.77-13.722l93.85-162.561a27.456 27.456 0 0 0 0-27.444Zm-92.27-163.476a29.27 29.27 0 0 0-25.35-14.637h-187.71a29.27 29.27 0 0 0-25.35 14.637l-93.86 162.561a29.269 29.269 0 0 0 0 29.273l93.86 162.562a29.27 29.27 0 0 0 25.35 14.637h187.71a29.27 29.27 0 0 0 25.35-14.637l93.85-162.561a29.27 29.27 0 0 0 0-29.274l-93.85-162.561Z" fill="url(#a)"/><defs><radialGradient id="a" cx="0" cy="0" r="1" gradientUnits="userSpaceOnUse" gradientTransform="matrix(-235.00076 437.99919 -460.46046 -247.05196 974.499 223)"><stop stop-color="#A24561"/><stop offset="1" stop-color="#493E81" stop-opacity="0"/></radialGradient></defs></svg>