<svg width="528" height="594" viewBox="0 0 528 594" fill="none" xmlns="http://www.w3.org/2000/svg">
<path d="M267.848 286.483V46.0366L523.75 193.746V434.192L267.848 286.483Z" fill="white"/>
<path d="M271.831 52.8887L519.766 195.977V427.181L271.831 284.093V52.8887ZM263.864 39.1853V288.873L527.733 441.203V191.516L263.864 39.1853Z" fill="black"/>
<path d="M4.93457 193.746L260.837 46.0366V286.483L4.93457 434.192V193.746Z" fill="white"/>
<path d="M256.853 52.8887V284.093L8.91817 427.181V195.977L256.853 52.8887ZM264.82 39.1853L0.951111 191.516V441.203L264.82 288.873V39.1853Z" fill="black"/>
<path d="M109.143 394.995C86.9947 394.995 69.1484 376.989 69.1484 355V44.6033C69.1484 22.4549 87.154 4.60864 109.143 4.60864H419.54C441.688 4.60864 459.535 22.6142 459.535 44.6033V355C459.535 377.149 441.529 394.995 419.54 394.995H109.143Z" fill="white"/>
<path d="M419.54 8.59231C439.458 8.59231 455.551 24.6858 455.551 44.6034V355C455.551 374.918 439.458 391.011 419.54 391.011H109.143C89.2258 391.011 73.1323 374.918 73.1323 355V44.6034C73.1323 24.6858 89.2258 8.59231 109.143 8.59231H419.54ZM419.54 0.625244H109.143C84.7642 0.625244 65.1652 20.3836 65.1652 44.6034V355C65.1652 379.379 84.9236 398.978 109.143 398.978H419.54C443.919 398.978 463.518 379.22 463.518 355V44.6034C463.518 20.3836 443.76 0.625244 419.54 0.625244Z" fill="black"/>
<path d="M4.93457 438.814V198.368L260.837 346.077V586.524L4.93457 438.814Z" fill="white"/>
<path d="M8.91817 205.219L256.853 348.308V579.512L8.91817 436.423V205.219ZM0.951111 191.356V441.044L264.82 593.375V343.687L0.951111 191.356Z" fill="black"/>
<path d="M267.848 346.077L523.75 198.368V438.814L267.848 586.523V346.077Z" fill="black"/>
<path d="M519.766 205.219V436.423L271.831 579.512V348.307L519.766 205.219ZM527.733 191.356L263.864 343.686V593.374L527.733 441.044V191.356Z" fill="black"/>
<path d="M157.743 212.232C158.062 218.446 160.133 223.226 164.117 226.572C168.1 229.918 173.199 231.512 179.732 231.512C185.309 231.512 189.77 230.237 193.276 227.688C196.781 225.138 198.534 221.473 198.534 216.534C198.534 215.1 198.375 213.825 198.056 212.71C197.737 211.594 197.259 210.479 196.781 209.682C196.303 208.885 195.507 208.089 194.551 207.292C193.595 206.495 192.639 205.858 191.842 205.38C191.045 204.902 189.77 204.424 188.336 203.786C186.902 203.149 185.628 202.83 184.512 202.512C183.397 202.193 181.963 201.715 180.21 201.237C179.254 200.918 178.617 200.759 178.139 200.6C170.171 198.21 164.435 196.138 161.089 194.385C154.078 190.72 149.776 185.781 148.342 179.567C147.864 177.814 147.704 175.902 147.545 173.99C147.545 169.687 148.342 166.023 149.935 162.517C151.688 159.171 153.919 156.462 156.787 154.231C159.655 152.16 163.001 150.566 166.825 149.451C170.49 148.336 174.474 147.858 178.776 147.858C188.177 147.858 195.666 150.248 201.243 154.869C206.82 159.49 210.166 166.501 210.963 175.583H197.1C196.303 170.006 194.391 165.863 191.364 163.314C188.496 160.605 184.194 159.33 178.617 159.33C173.358 159.33 169.215 160.446 166.029 162.836C162.842 165.226 161.248 168.731 161.248 173.512C161.248 175.264 161.567 176.698 162.204 178.133C162.842 179.567 163.798 180.682 164.913 181.797C166.029 182.753 167.463 183.709 169.375 184.666C171.287 185.622 173.04 186.418 174.952 187.056C176.704 187.693 178.935 188.33 181.644 189.127C189.292 191.358 194.391 193.111 196.941 194.226C203.633 197.094 208.254 201.078 210.485 206.177C211.76 209.045 212.397 212.55 212.397 216.534C212.397 220.995 211.441 224.979 209.688 228.484C207.935 231.99 205.386 234.858 202.358 236.929C199.331 239.001 195.825 240.594 192.001 241.71C188.177 242.825 184.194 243.303 179.891 243.303C174.792 243.303 170.171 242.666 166.029 241.391C161.886 240.116 158.062 238.364 154.875 235.814C151.688 233.424 149.138 230.078 147.226 226.254C145.314 222.27 144.358 217.808 144.199 212.55H157.743V212.232Z" fill="black"/>
<path d="M254.941 149.929C269.919 149.929 281.551 153.913 289.837 161.72C298.123 169.528 302.266 180.363 302.266 193.907C302.266 202.99 300.513 210.957 296.848 218.127C293.183 225.138 287.925 230.715 280.755 234.699C273.584 238.682 265.299 240.754 255.579 240.754H227.375V149.929H254.941ZM241.079 229.281H255.738C260.359 229.281 264.661 228.484 268.645 227.05C272.628 225.616 275.974 223.386 279.002 220.517C281.87 217.649 284.26 213.984 285.854 209.364C287.606 204.902 288.403 199.644 288.403 194.067C288.403 188.649 287.606 183.869 285.854 179.726C284.101 175.583 281.87 172.078 278.843 169.528C275.815 166.979 272.31 164.907 268.485 163.633C264.502 162.358 260.2 161.72 255.419 161.72H241.079V229.281Z" fill="black"/>
<path d="M329.991 240.754H316.288V149.929H329.991V194.226L370.145 149.929H387.354L351.662 188.012L388.151 240.913H371.898L342.898 197.732L329.832 211.276V240.754H329.991Z" fill="black"/>
<path d="M264.342 101.966C257.65 101.966 251.436 99.4169 246.656 94.6367C242.672 90.6532 240.123 85.3949 239.485 79.8179H248.09C248.727 83.3235 250.32 86.5103 252.87 89.0597C256.216 92.4059 260.359 94.1587 264.98 94.1587H282.189C282.029 94.318 281.87 94.4773 281.711 94.6367C277.249 99.4169 271.035 101.966 264.342 101.966ZM246.656 59.2629C251.436 54.4827 257.65 51.9332 264.342 51.9332C271.035 51.9332 277.249 54.4827 282.029 59.2629C282.189 59.4223 282.348 59.5816 282.507 59.7409H265.299C260.678 59.7409 256.375 61.4937 253.189 64.8399C250.639 67.3893 248.886 70.7355 248.408 74.0817H239.804C240.282 68.5047 242.672 63.2465 246.656 59.2629ZM289.04 79.8179C288.722 82.8454 287.766 85.7136 286.491 88.4224H265.139C259.881 88.4224 255.419 84.7575 254.145 79.8179H289.04ZM254.145 74.0817C255.419 69.1421 259.881 65.4772 265.139 65.4772H286.491C287.925 68.186 288.722 71.0542 289.04 74.0817H254.145ZM292.546 64.9992C290.952 61.3344 288.722 57.9882 286.013 55.12C283.145 52.2519 279.958 50.0211 276.293 48.4277C272.469 46.8343 268.485 46.0376 264.342 46.0376C260.2 46.0376 256.216 46.8343 252.392 48.4277C248.727 50.0211 245.54 52.2519 242.672 55.12C239.804 57.9882 237.573 61.3344 236.139 64.9992C234.546 68.8234 233.749 72.8069 233.749 76.9498C233.749 81.0927 234.546 85.0762 236.139 88.9004C237.732 92.5653 239.963 95.9114 242.672 98.7796C245.54 101.648 248.727 103.878 252.392 105.313C256.216 106.906 260.2 107.703 264.342 107.703C268.485 107.703 272.469 106.906 276.293 105.313C279.958 103.719 283.145 101.488 286.013 98.6202C288.881 95.7521 291.112 92.4059 292.546 88.7411C294.139 84.9169 294.936 80.9333 294.936 76.7905C295.095 72.8069 294.139 68.6641 292.546 64.9992Z" fill="black"/>
</svg>
