<svg width="48" height="48" viewBox="0 0 48 48" fill="none" xmlns="http://www.w3.org/2000/svg">
    <path fill-rule="evenodd" clip-rule="evenodd" d="M37.0338 11.6481H39.8053C41.9345 11.6481 43.6614 13.3749 43.6614 15.5042V17.4309C43.6614 19.5601 41.9372 21.287 39.8053 21.287H8.9616C6.83233 21.287 5.10547 19.5601 5.10547 17.4309V15.5042C5.10547 13.3749 6.82967 11.6481 8.9616 11.6481H11.7331C11.4986 11.0512 11.3733 10.4009 11.3733 9.72133C11.3733 6.79262 13.7451 4.4209 16.6738 4.4209C19.9117 4.4209 22.7552 6.10246 24.3861 8.63677C26.0144 6.0998 28.8605 4.4209 32.0984 4.4209C35.0271 4.4209 37.3989 6.79529 37.3989 9.72133C37.3989 10.4009 37.2709 11.0512 37.0391 11.6481H37.0338ZM15.2241 11.6481H22.6326C21.8198 9.13245 19.4587 7.30966 16.6712 7.30966C15.3414 7.30966 14.2621 8.38889 14.2621 9.71867C14.2621 10.5075 14.6405 11.2057 15.2268 11.6454L15.2241 11.6481ZM33.5374 11.6481C34.1237 11.2084 34.5021 10.5075 34.5021 9.72133C34.5021 8.39155 33.4228 7.31233 32.093 7.31233C29.3055 7.31233 26.9444 9.13239 26.1316 11.6507H33.5401L33.5374 11.6481ZM39.8026 24.1784H8.95893V40.5647C8.95893 42.694 10.6831 44.4209 12.8151 44.4209H35.9491C38.0784 44.4209 39.8053 42.694 39.8053 40.5647V24.1784H39.8026Z" fill="white"/>
</svg>
