<svg width="48" height="49" viewBox="0 0 48 49" fill="none" xmlns="http://www.w3.org/2000/svg">
    <path fill-rule="evenodd" clip-rule="evenodd" d="M25.4509 4.41187H22.7503C20.8894 4.41187 19.3809 5.92036 19.3809 7.7812V10.4818C19.3809 11.0358 19.5146 11.5586 19.7515 12.0196L11.737 20.0341C11.2759 19.7971 10.753 19.6633 10.1988 19.6633H7.49826C5.63742 19.6633 4.12891 21.1719 4.12891 23.0327V25.7333C4.12891 27.5941 5.63742 29.1026 7.49826 29.1026H10.1988C10.773 29.1026 11.3136 28.959 11.7867 28.7058L19.8346 36.7537C19.5813 37.2268 19.4377 37.7675 19.4377 38.3417V41.0423C19.4377 42.9031 20.9462 44.4116 22.807 44.4116H25.5076C27.3685 44.4116 28.877 42.9031 28.877 41.0423V38.3417C28.877 37.7709 28.735 37.2332 28.4845 36.7621L36.4791 28.7675C36.9503 29.0181 37.488 29.1601 38.059 29.1601H40.7595C42.6204 29.1601 44.1289 27.6516 44.1289 25.7908V23.0902C44.1289 21.2294 42.6204 19.7209 40.7595 19.7209H38.059C37.4891 19.7209 36.9523 19.8623 36.4817 20.1121L28.4289 12.0593C28.6787 11.5886 28.8202 11.0517 28.8202 10.4818V7.7812C28.8202 5.92036 27.3117 4.41187 25.4509 4.41187ZM21.1513 13.4483C21.627 13.7053 22.1716 13.8511 22.7503 13.8511H25.4509C26.0136 13.8511 26.5441 13.7132 27.0104 13.4692L35.0716 21.5304C34.8276 21.9968 34.6896 22.5274 34.6896 23.0902V25.7908C34.6896 26.3525 34.8271 26.8822 35.0702 27.3479L27.065 35.3531C26.5992 35.1099 26.0695 34.9723 25.5076 34.9723H22.807C22.2485 34.9723 21.7218 35.1082 21.2581 35.3487L13.1917 27.2824C13.4323 26.8186 13.5682 26.2918 13.5682 25.7333V23.0327C13.5682 22.4542 13.4224 21.9097 13.1655 21.434L21.1513 13.4483Z" fill="white"/>
</svg>
