<svg width="48" height="48" viewBox="0 0 48 48" fill="none" xmlns="http://www.w3.org/2000/svg">
    <path fill-rule="evenodd" clip-rule="evenodd" d="M16.2053 4.41895C17.0047 4.41895 17.6523 5.06645 17.6523 5.86586V8.7571H30.1817V5.86586C30.1817 5.06645 30.8292 4.41895 31.6286 4.41895C32.428 4.41895 33.0756 5.06645 33.0756 5.86586V8.7571H33.5579C37.8161 8.7571 41.2695 12.2106 41.2695 16.4688V17.9157H6.57246V16.4688C6.57246 12.2106 10.0259 8.7571 14.2841 8.7571H14.7664V5.86586C14.7664 5.06645 15.4139 4.41895 16.2133 4.41895H16.2053ZM6.56712 20.8042H41.2642V36.7072C41.2642 40.9654 37.8107 44.4189 33.5525 44.4189H14.2761C10.0179 44.4189 6.56445 40.9654 6.56445 36.7072V20.8042H6.56712Z" fill="white"/>
</svg>
