<svg width="48" height="48" viewBox="0 0 48 48" fill="none" xmlns="http://www.w3.org/2000/svg">
    <path fill-rule="evenodd" clip-rule="evenodd" d="M14.1073 4.4209H33.1839C36.8168 4.4209 40.0847 6.90915 41.4366 10.7079L42.9517 14.9711C43.4106 16.2623 43.7286 17.6418 43.3941 18.9717C42.6033 22.1179 40.0294 24.4209 36.9799 24.4209C33.2973 24.4209 30.3114 21.0645 30.3114 16.9202C30.3114 21.0618 27.3283 24.4209 23.6456 24.4209C19.963 24.4209 16.9799 21.0645 16.9799 16.9202C16.9799 21.0618 13.994 24.4209 10.3114 24.4209C7.26189 24.4209 4.69068 22.1179 3.8972 18.9717C3.56267 17.6446 3.87787 16.2623 4.33958 14.9711L5.85465 10.7079C7.20383 6.91191 10.4717 4.4209 14.1073 4.4209ZM7.64618 27.0225V36.4198C7.64618 40.8378 11.2292 44.4209 15.6473 44.4209H17.6462V40.4204C17.6462 37.1054 20.3307 34.4209 23.6456 34.4209C26.9606 34.4209 29.6451 37.1082 29.6451 40.4204V44.4209H31.644C36.062 44.4209 39.6451 40.8406 39.6451 36.4198V27.0225C38.8074 27.2824 37.9144 27.4206 36.9799 27.4206C34.3064 27.4206 32.0006 26.2954 30.3114 24.5315C28.6249 26.2954 26.3191 27.4206 23.6456 27.4206C20.9722 27.4206 18.6664 26.2954 16.9799 24.5315C15.2906 26.2954 12.9849 27.4206 10.3114 27.4206C9.37414 27.4206 8.48389 27.2796 7.64618 27.0225Z" fill="white"/>
</svg>
