<svg width="48" height="48" viewBox="0 0 48 48" fill="none" xmlns="http://www.w3.org/2000/svg">
    <path fill-rule="evenodd" clip-rule="evenodd" d="M29.6846 6H18.3153C15.231 6 12.3824 7.64532 10.8403 10.3148L5.1566 20.1594C3.61447 22.8289 3.61447 26.1196 5.1566 28.789L6.74379 31.5382C9.03732 29.9887 11.2746 28.3241 13.4752 26.5992L13.5282 26.5577L13.5846 26.5209C17.0422 24.2633 19.5968 23.9158 21.8327 24.5946C22.863 24.9074 23.7366 25.4158 24.4436 25.8321L24.5106 25.8716C25.2313 26.2961 25.7709 26.6139 26.3498 26.8136C26.8928 27.001 27.4599 27.076 28.1714 26.9312C28.9138 26.7802 29.8966 26.3722 31.2182 25.4491C33.4275 23.9059 36.3869 21.0654 40.5112 16.1198L37.1597 10.3148C35.6175 7.64532 32.7689 6 29.6846 6ZM10.8403 38.6336L8.30528 34.2428C10.7279 32.6145 13.0679 30.8753 15.3431 29.0935C18.2601 27.2023 19.8451 27.247 20.9277 27.5757C21.56 27.7676 22.1422 28.0923 22.8628 28.5167L23.0079 28.6023C23.6556 28.985 24.4477 29.453 25.3338 29.7587C26.3407 30.1061 27.4743 30.2523 28.7926 29.9841C30.0802 29.7221 31.4566 29.0827 33.0021 28.0031C35.3832 26.34 38.3295 23.5141 42.1682 18.99L42.8434 20.1594C44.3855 22.8289 44.3855 26.1196 42.8434 28.789L37.1597 38.6336C35.6175 41.3031 32.7689 42.9485 29.6846 42.9485H18.3153C15.231 42.9485 12.3824 41.3031 10.8403 38.6336ZM22.097 14.6588C22.097 16.8224 20.343 18.5764 18.1793 18.5764C16.0157 18.5764 14.2617 16.8224 14.2617 14.6588C14.2617 12.4952 16.0157 10.7412 18.1793 10.7412C20.343 10.7412 22.097 12.4952 22.097 14.6588Z" fill="white"/>
</svg>
