<svg width="48" height="48" viewBox="0 0 48 48" fill="none" xmlns="http://www.w3.org/2000/svg">
    <path fill-rule="evenodd" clip-rule="evenodd" d="M30.1872 21.9111H32.6758C38.8646 21.9111 43.8806 26.9271 43.8806 33.1159V39.341C43.8806 42.0913 41.6512 44.3206 38.9009 44.3206H30.1872C23.9984 44.3206 18.9824 39.3047 18.9824 33.1159C18.9824 26.9271 23.9984 21.9111 30.1872 21.9111ZM28.6764 29.6701C28.6764 31.1919 29.9097 32.4253 31.4315 32.4253C32.9532 32.4253 34.1867 31.1919 34.1867 29.6701C34.1867 28.1484 32.9532 26.915 31.4315 26.915C29.9097 26.915 28.6764 28.1484 28.6764 29.6701ZM26.6094 36.5592C26.6094 38.081 28.7684 39.3144 31.4315 39.3144C34.0945 39.3144 36.2536 38.081 36.2536 36.5592C36.2536 35.0375 34.0945 33.8041 31.4315 33.8041C28.7684 33.8041 26.6094 35.0375 26.6094 36.5592Z" fill="white"/>
    <path fill-rule="evenodd" clip-rule="evenodd" d="M28.3089 18.4315C28.6263 17.3774 28.7911 16.2555 28.779 15.0948C28.7184 8.91567 23.5401 4.00391 17.361 4.00391H15.0857C8.89689 4.00391 3.88086 9.01987 3.88086 15.2087V21.4338C3.88086 24.1841 6.11019 26.4134 8.8605 26.4134H16.5347C16.8934 26.4134 17.2205 26.1977 17.361 25.8682C19.9199 19.8369 25.6047 19.1366 27.4802 19.0736C27.8631 19.0615 28.1974 18.8022 28.3089 18.4339V18.4315ZM16.3314 9.00775L16.3312 9.00776C16.2807 9.00776 16.2305 9.00911 16.1807 9.0118C14.7289 9.08993 13.576 10.2916 13.576 11.7629C13.576 13.2847 14.8094 14.518 16.3312 14.518L16.349 14.518C16.4088 14.5176 16.4682 14.5153 16.5271 14.5112C17.9574 14.4108 19.0865 13.2187 19.0865 11.7629C19.0865 10.2413 17.853 9.00775 16.3314 9.00775ZM21.0922 19.0941C21.1328 18.9502 21.154 18.8025 21.154 18.652C21.154 17.1303 18.995 15.8968 16.3319 15.8968C13.9358 15.8968 11.948 16.8953 11.5733 18.2037C11.531 18.3504 11.5091 18.5009 11.5091 18.6544C11.5091 20.1762 13.6681 21.4095 16.3312 21.4095C18.7323 21.4095 20.7237 20.4068 21.0922 19.0941Z" fill="white"/>
</svg>
