<svg width="48" height="48" viewBox="0 0 48 48" fill="none" xmlns="http://www.w3.org/2000/svg">
    <path d="M29.5613 22.8989H17.7331C13.8948 22.8989 10.7832 26.0105 10.7832 29.8488V37.2019C10.7832 41.0402 13.8948 44.1518 17.7331 44.1518H29.5613C33.3997 44.1518 36.5112 41.0402 36.5112 37.2019V29.8488C36.5112 26.0105 33.3997 22.8989 29.5613 22.8989Z" fill="white"/>
    <path d="M16.9933 15.2798C19.2155 15.2798 21.2543 15.8719 22.8611 16.8615C23.2971 17.1296 23.8507 17.1296 24.2866 16.8615C25.8915 15.8719 27.9323 15.2798 30.1544 15.2798C32.1219 15.2798 33.9486 15.7447 35.4551 16.5374C36.5141 17.0949 37.7274 16.1497 37.4438 14.9866C35.9277 8.76774 30.3203 4.15186 23.6346 4.15186C16.949 4.15186 11.3937 8.72725 9.84859 14.9017C9.55925 16.0591 10.7552 17.012 11.8199 16.4719C13.3014 15.7196 15.0798 15.2798 16.9933 15.2798Z" fill="white"/>
    <path d="M23.6465 24.7819V14.2847" stroke="white" stroke-width="1.56243" stroke-miterlimit="10"/>
    <path d="M33.0703 24.8183L36.6928 15.3994" stroke="white" stroke-width="1.58365" stroke-miterlimit="10"/>
    <path d="M14.2553 24.872L10.6328 15.4531" stroke="white" stroke-width="1.58365" stroke-miterlimit="10"/>
    <path d="M20.0762 27.5342H27.219" stroke="white" stroke-width="1.56243" stroke-linecap="round" stroke-linejoin="round"/>
</svg>
