<svg width="48" height="48" viewBox="0 0 48 48" fill="none" xmlns="http://www.w3.org/2000/svg">
    <path d="M6.06586 17.5L41.9341 17.5C43.9744 17.5 44.7755 14.7972 43.078 13.6412L26.2876 2.2075C24.9024 1.26417 23.0976 1.26417 21.7124 2.2075L4.92203 13.6412C3.22447 14.7972 4.02564 17.5 6.06586 17.5Z" fill="white"/>
    <path d="M11 20.5H17V30.5H11V20.5Z" fill="white"/>
    <path d="M37 20.5H31V30.5H37V20.5Z" fill="white"/>
    <path d="M21 20.5H27V30.5H21V20.5Z" fill="white"/>
    <path d="M40.5528 34.6056C40.214 33.928 39.5215 33.5 38.7639 33.5L9.23607 33.5C8.47852 33.5 7.786 33.928 7.44721 34.6056L5.44721 38.6056C4.78231 39.9354 5.74931 41.5 7.23607 41.5H40.7639C42.2507 41.5 43.2177 39.9354 42.5528 38.6056L40.5528 34.6056Z" fill="white"/>
</svg>
