<svg width="48" height="48" viewBox="0 0 48 48" fill="none" xmlns="http://www.w3.org/2000/svg">
    <path fill-rule="evenodd" clip-rule="evenodd" d="M20.696 44.1504H28.2595C35.9881 44.1504 40.9594 35.946 37.3787 29.0952L33.4264 21.5318C29.5001 14.0162 18.6775 14.2118 15.0229 21.8643L11.4117 29.4277C8.15037 36.2567 13.1282 44.1504 20.696 44.1504ZM27.8594 30.0795C27.8594 31.9467 26.3457 33.4603 24.4785 33.4603C22.6113 33.4603 21.0977 31.9467 21.0977 30.0795C21.0977 28.2123 22.6113 26.6987 24.4785 26.6987C26.3457 26.6987 27.8594 28.2123 27.8594 30.0795Z" fill="white"/>
    <path fill-rule="evenodd" clip-rule="evenodd" d="M19.277 14.8463C22.3754 13.1276 26.2386 13.1168 29.3457 14.8463C30.2213 13.6426 31.0752 12.4084 31.5902 11.0157C32.1595 9.47521 32.2746 7.68919 31.5185 6.23127C30.7624 4.77334 28.9937 3.79342 27.4228 4.2736C25.765 4.77986 24.6699 6.68102 22.9403 6.75924C21.9322 6.80486 20.9935 6.19433 19.9854 6.17477C18.6926 6.15087 17.5258 7.16337 17.1129 8.39099C16.7001 9.6186 16.9391 10.9875 17.4867 12.1608C17.9429 13.1385 18.597 14.0054 19.277 14.8441V14.8463Z" fill="white"/>
</svg>
