<svg width="24" height="25" viewBox="0 0 24 25" fill="none" xmlns="http://www.w3.org/2000/svg">
<path d="M4.00021 11.5014C3.65424 11.5014 3.37377 11.7819 3.37377 12.1278C3.37377 12.4738 3.65424 12.7543 4.00021 12.7543L4.00021 11.5014ZM19.8259 12.7543C20.1719 12.7543 20.4524 12.4738 20.4524 12.1278C20.4524 11.7819 20.1719 11.5014 19.8259 11.5014L19.8259 12.7543ZM14.9907 16.688C14.758 16.9439 14.7768 17.3401 15.0328 17.5729C15.2888 17.8056 15.685 17.7868 15.9177 17.5308L14.9907 16.688ZM20.0002 12.1094L20.4637 12.5308C20.681 12.2919 20.681 11.9269 20.4637 11.688L20.0002 12.1094ZM15.9177 6.68796C15.685 6.43197 15.2888 6.41313 15.0328 6.64587C14.7768 6.87861 14.758 7.27481 14.9907 7.53079L15.9177 6.68796ZM17.7272 14.6094L18.1907 15.0308L17.7272 14.6094ZM4.00021 12.7543L19.8259 12.7543L19.8259 11.5014L4.00021 11.5014L4.00021 12.7543ZM14.9907 7.53079L19.5367 12.5308L20.4637 11.688L15.9177 6.68796L14.9907 7.53079ZM15.9177 17.5308L18.1907 15.0308L17.2637 14.188L14.9907 16.688L15.9177 17.5308ZM18.1907 15.0308L20.4637 12.5308L19.5367 11.688L17.2637 14.188L18.1907 15.0308Z" fill="currentColor"/>
</svg>
