<svg width="24" height="24" fill="none" xmlns="http://www.w3.org/2000/svg"><g clip-path="url(#a)"><path d="M12 19.404a7.403 7.403 0 1 0 0-14.806 7.403 7.403 0 0 0 0 14.806Z" stroke="url(#b)" stroke-linecap="round" stroke-linejoin="round"/><path fill-rule="evenodd" clip-rule="evenodd" d="M14.019 13.218c0 .418-.143.812-.394 1.134a1.89 1.89 0 0 1-1.015.657v.645c0 .095-.036.18-.108.25a.344.344 0 0 1-.25.108h-.562a.344.344 0 0 1-.25-.107.343.343 0 0 1-.108-.251v-.573a2.816 2.816 0 0 1-1.218-.43.357.357 0 0 1-.131-.406l.215-.597a.369.369 0 0 1 .537-.18c.323.216.705.323 1.087.323.43 0 .704-.203.704-.525 0-.143 0-.418-.788-.729a3.768 3.768 0 0 1-1.182-.68 1.52 1.52 0 0 1-.501-1.182c0-.824.513-1.469 1.337-1.708v-.62c0-.096.036-.18.107-.251a.344.344 0 0 1 .251-.108h.55c.095 0 .178.036.25.108a.343.343 0 0 1 .108.25v.538c.346.048.68.155.979.334a.358.358 0 0 1 .155.43l-.227.585a.331.331 0 0 1-.215.203.374.374 0 0 1-.298-.024 1.748 1.748 0 0 0-.944-.25c-.37 0-.585.155-.585.417 0 .191.06.347.884.693.442.155.836.418 1.158.752.287.334.442.764.43 1.206l.024-.012Z" fill="#ECD7C2"/><path fill-rule="evenodd" clip-rule="evenodd" d="M14.019 13.218c0 .418-.143.812-.394 1.134a1.89 1.89 0 0 1-1.015.657v.645c0 .095-.036.18-.108.25a.344.344 0 0 1-.25.108h-.562a.344.344 0 0 1-.25-.107.343.343 0 0 1-.108-.251v-.573a2.816 2.816 0 0 1-1.218-.43.357.357 0 0 1-.131-.406l.215-.597a.369.369 0 0 1 .537-.18c.323.216.705.323 1.087.323.43 0 .704-.203.704-.525 0-.143 0-.418-.788-.729a3.768 3.768 0 0 1-1.182-.68 1.52 1.52 0 0 1-.501-1.182c0-.824.513-1.469 1.337-1.708v-.62c0-.096.036-.18.107-.251a.344.344 0 0 1 .251-.108h.55c.095 0 .178.036.25.108a.343.343 0 0 1 .108.25v.538c.346.048.68.155.979.334a.358.358 0 0 1 .155.43l-.227.585a.331.331 0 0 1-.215.203.374.374 0 0 1-.298-.024 1.748 1.748 0 0 0-.944-.25c-.37 0-.585.155-.585.417 0 .191.06.347.884.693.442.155.836.418 1.158.752.287.334.442.764.43 1.206l.024-.012Z" fill="url(#c)"/></g><defs><linearGradient id="b" x1="4.598" y1="10.808" x2="19.404" y2="10.808" gradientUnits="userSpaceOnUse"><stop stop-color="#FFF0ED"/><stop offset="1" stop-color="#EDECFC"/></linearGradient><linearGradient id="c" x1="9.965" y1="11.354" x2="14.019" y2="11.354" gradientUnits="userSpaceOnUse"><stop stop-color="#FFF0ED"/><stop offset="1" stop-color="#EDECFC"/></linearGradient><clipPath id="a"><path fill="#fff" transform="translate(4 4)" d="M0 0h16v16H0z"/></clipPath></defs></svg>