<svg width="24" height="24" fill="none" xmlns="http://www.w3.org/2000/svg"><path fill-rule="evenodd" clip-rule="evenodd" d="M9.484 3.5a.5.5 0 0 1 .5.5v3.063h1.52V4a.5.5 0 0 1 1 0v3.063h1.52V4a.5.5 0 0 1 1 0v3.063h1.926v1.96H20a.5.5 0 0 1 0 1h-3.05v1.52H20a.5.5 0 1 1 0 1h-3.05v1.527H20a.5.5 0 0 1 0 1h-3.05v1.88h-1.927V20a.5.5 0 1 1-1 0v-3.05h-1.52V20a.5.5 0 0 1-1 0v-3.05H9.985V20a.5.5 0 0 1-1 0v-3.05H7.063v-1.88H4a.5.5 0 1 1 0-1h3.063v-1.527H4a.5.5 0 0 1 0-1h3.063v-1.52H4a.5.5 0 1 1 0-1h3.063v-1.96h1.921V4a.5.5 0 0 1 .5-.5Z" fill="url(#a)"/><defs><linearGradient id="a" x1="3.5" y1="10.631" x2="20.5" y2="10.631" gradientUnits="userSpaceOnUse"><stop stop-color="#FFF0ED"/><stop offset="1" stop-color="#EDECFC"/></linearGradient></defs></svg>