<svg width="24" height="34" viewBox="0 0 24 34" fill="none" xmlns="http://www.w3.org/2000/svg">
<mask id="path-1-inside-1_6327_62034" fill="white">
<rect y="0.0515137" width="24" height="33.8969" rx="0.989691"/>
</mask>
<rect y="0.0515137" width="24" height="33.8969" rx="0.989691" stroke="#8397FD" stroke-width="3" mask="url(#path-1-inside-1_6327_62034)"/>
<g clip-path="url(#clip0_6327_62034)">
<path d="M6.43286 13.6803C6.43286 16.7549 8.9253 19.2473 11.9999 19.2473C15.0744 19.2473 17.5669 16.7549 17.5669 13.6803C17.5669 10.6057 15.0744 8.11328 11.9999 8.11328C8.9253 8.11328 6.43286 10.6057 6.43286 13.6803Z" stroke="#8397FD" stroke-linecap="round" stroke-linejoin="round"/>
<path d="M12.5566 8.14087C12.5566 8.14087 14.2267 10.3402 14.2267 13.6804C14.2267 17.0206 12.5566 19.2199 12.5566 19.2199" stroke="#8397FD" stroke-linecap="round" stroke-linejoin="round"/>
<path d="M11.4433 19.2199C11.4433 19.2199 9.77319 17.0206 9.77319 13.6804C9.77319 10.3402 11.4433 8.14087 11.4433 8.14087" stroke="#8397FD" stroke-linecap="round" stroke-linejoin="round"/>
<path d="M6.78369 15.6289H17.2167" stroke="#8397FD" stroke-linecap="round" stroke-linejoin="round"/>
<path d="M6.78369 11.7319H17.2167" stroke="#8397FD" stroke-linecap="round" stroke-linejoin="round"/>
</g>
<path d="M14.6885 28.9607H9.3125V25.6453H14.6885V28.9607ZM12.001 26.4929C11.5535 26.4929 11.1904 26.8559 11.1904 27.3035C11.1907 27.7508 11.5536 28.113 12.001 28.113C12.4481 28.1128 12.8103 27.7506 12.8105 27.3035C12.8105 26.8561 12.4483 26.4932 12.001 26.4929Z" fill="#8397FD"/>
<defs>
<clipPath id="clip0_6327_62034">
<rect width="13.3608" height="13.3608" fill="white" transform="translate(5.31958 7)"/>
</clipPath>
</defs>
</svg>
