<svg xmlns="http://www.w3.org/2000/svg" width="20" height="20" fill="none"><path fill="#FF5A76" d="M19.404 8.948c.37.653.37 1.451 0 2.104l-1.87 3.298-1.921 3.268a2.133 2.133 0 0 1-1.822 1.052L10 18.7l-3.79-.03a2.133 2.133 0 0 1-1.823-1.052L2.466 14.35l-1.87-3.298a2.133 2.133 0 0 1 0-2.104l1.87-3.298 1.921-3.268A2.133 2.133 0 0 1 6.21 1.33L10 1.3l3.79.03c.75.006 1.443.406 1.823 1.052l1.921 3.268 1.87 3.298Z"/><ellipse cx="10.19" cy="13.547" fill="#B71B35" rx=".858" ry=".853"/><rect width="1.717" height="5.973" x="9.332" y="5.867" fill="#B71B35" rx=".858"/></svg>