<svg width="24" height="24" fill="none" xmlns="http://www.w3.org/2000/svg"><path d="M11.273 19.998a5.279 5.279 0 0 1-3.053-.864 5.242 5.242 0 0 1-2.034-4.287A141.575 141.575 0 0 1 6 9.299v0c0-.384.16-.743.429-1.005.268-.262.627-.41 1.004-.403.18 0 .352.032.519.096L7.92 6.63v-.013a1.532 1.532 0 0 1 1.548-1.516c.416 0 .813.16 1.1.454v-.013c0-.416.174-.812.468-1.1A1.562 1.562 0 0 1 12.149 4c.455.007.884.192 1.19.525.212.237.34.531.365.845.263-.173.57-.27.877-.263h.134c.416.032.8.23 1.063.55.256.308.384.698.345 1.095l-.608 6.706.787-.87a2.958 2.958 0 0 1 2.208-1.242 1.54 1.54 0 0 1 .838.205c.256.147.467.358.608.614a1.447 1.447 0 0 1-.179 1.523l-2.86 3.795c-1.882 2.502-3.302 2.502-4.812 2.502h-.845l.013.013Z" stroke="url(#a)" stroke-linecap="round" stroke-linejoin="round"/><path d="M8.006 10.957 7.93 6.785" stroke="url(#b)" stroke-linecap="round" stroke-linejoin="round"/><path d="m10.54 10.668.057-5.395" stroke="url(#c)" stroke-linecap="round" stroke-linejoin="round"/><path d="m13.383 10.666.326-5.26" stroke="url(#d)" stroke-linecap="round" stroke-linejoin="round"/><defs><linearGradient id="a" x1="6" y1="10.711" x2="20.094" y2="10.711" gradientUnits="userSpaceOnUse"><stop stop-color="#FFF0ED"/><stop offset="1" stop-color="#EDECFC"/></linearGradient><linearGradient id="b" x1="7.93" y1="8.535" x2="8.006" y2="8.535" gradientUnits="userSpaceOnUse"><stop stop-color="#FFF0ED"/><stop offset="1" stop-color="#EDECFC"/></linearGradient><linearGradient id="c" x1="10.539" y1="7.536" x2="10.597" y2="7.536" gradientUnits="userSpaceOnUse"><stop stop-color="#FFF0ED"/><stop offset="1" stop-color="#EDECFC"/></linearGradient><linearGradient id="d" x1="13.383" y1="7.613" x2="13.709" y2="7.613" gradientUnits="userSpaceOnUse"><stop stop-color="#FFF0ED"/><stop offset="1" stop-color="#EDECFC"/></linearGradient></defs></svg>