<svg width="24" height="24" viewBox="0 0 24 24" fill="none" xmlns="http://www.w3.org/2000/svg">
	<g clip-path="url(#clip0_1_5)">
		<path d="M13.4723 10.0967C13.5167 10.1496 13.5786 10.1837 13.6461 10.1924C13.7137 10.201 13.7819 10.1836 13.8376 10.1435C14.6098 9.58405 15.3964 9.04566 16.1965 8.5289C16.908 9.34956 17.3754 10.3619 17.5434 11.4462C18.2968 10.3384 20.4278 7.48355 18.5935 6.05615C17.0262 4.86275 13.7384 8.42765 13.4113 9.84695C13.4006 9.89051 13.4006 9.9361 13.4112 9.97967C13.4219 10.0232 13.4429 10.0634 13.4723 10.0967V10.0967ZM14.7508 11.9921C14.7013 12.0178 14.6604 12.058 14.6332 12.1075C14.6059 12.1569 14.5935 12.2136 14.5976 12.2702C14.6016 12.3269 14.6219 12.3811 14.6558 12.426C14.6898 12.4709 14.736 12.5045 14.7885 12.5226C15.3974 12.7098 16.4248 13.0298 17.4903 13.4118C17.3086 14.4964 16.825 15.504 16.0977 16.3134C17.4143 16.2198 20.9226 16.1497 20.8765 13.7939C20.808 11.7973 16.0441 11.3761 14.7508 11.9921V11.9921ZM13.9438 14.41C13.9047 14.3906 13.8617 14.3806 13.8183 14.3806C13.7748 14.3806 13.7319 14.3906 13.6927 14.41C13.6321 14.4433 13.5854 14.4982 13.5616 14.5644C13.5377 14.6305 13.5383 14.7033 13.5632 14.7691C13.9246 15.6661 14.2597 16.574 14.5681 17.4916C12.9775 18.3727 11.4936 18.1778 11.4936 18.1778C12.3761 19.1759 14.6138 21.9452 16.3866 20.4476C17.863 19.1449 15.2223 15.0575 13.9438 14.4104V14.41ZM11.6003 15.2605C11.5911 15.2171 11.5717 15.1766 11.5438 15.1427C11.5158 15.1087 11.4802 15.0822 11.4401 15.0656C11.3771 15.0377 11.3062 15.035 11.2415 15.0581C11.1767 15.0812 11.1227 15.1283 11.0902 15.1903C10.6252 16.034 10.1406 16.8663 9.637 17.6864C8.64753 17.2606 7.79914 16.5508 7.19383 15.6425C6.98091 16.9763 6.2653 20.4944 8.51047 20.9782C10.4281 21.3607 11.8967 16.6955 11.5999 15.2605H11.6003ZM9.49212 13.9186C9.5178 13.8833 9.53526 13.8425 9.54317 13.7993C9.55109 13.7561 9.54924 13.7116 9.53778 13.6693C9.52143 13.6003 9.48018 13.5402 9.42235 13.5011C9.36451 13.462 9.29438 13.4469 9.22608 13.4586C8.60178 13.5599 7.54373 13.7242 6.41764 13.8484C6.1295 12.7903 6.14275 11.6698 6.45583 10.6192C5.30647 11.2744 2.17096 12.889 3.20617 14.995C4.10442 16.7657 8.58642 15.0499 9.49212 13.9186V13.9186ZM9.20325 11.3837C9.2466 11.3847 9.2895 11.3745 9.328 11.354C9.36651 11.3336 9.39939 11.3036 9.42364 11.2667C9.46622 11.2121 9.48676 11.1429 9.48105 11.0732C9.47533 11.0036 9.44379 10.9388 9.39291 10.8923C8.92139 10.4558 8.1373 9.70655 7.34617 8.8799C7.97233 7.98775 8.83636 7.29978 9.83456 6.89855C8.61671 6.3914 5.42852 4.87805 4.46178 7.01555C3.67022 8.84075 7.77993 11.3603 9.20325 11.3837V11.3837ZM11.1815 9.68315C11.2511 9.68138 11.3176 9.65328 11.3681 9.60426C11.4187 9.55524 11.4498 9.48877 11.4554 9.41765C11.4936 8.77865 11.5771 7.6784 11.7145 6.5318C12.784 6.47701 13.8462 6.73983 14.7736 7.2887C14.4083 5.9936 13.5786 2.49935 11.3492 3.06095C9.46139 3.56 10.0857 8.41955 10.9607 9.58145C10.9861 9.6161 11.0197 9.6436 11.0583 9.66138C11.0969 9.67916 11.1393 9.68665 11.1815 9.68315V9.68315Z" fill="currentColor" />
	</g>
	<defs>
		<clipPath id="clip0_1_5">
			<rect width="18" height="18" fill="white" transform="translate(3 3)" />
		</clipPath>
	</defs>
</svg>
