<svg width="41" height="40" fill="none" xmlns="http://www.w3.org/2000/svg"><path d="M23.854 15.77a.624.624 0 0 0 .832.104 121.998 121.998 0 0 1 5.373-3.588 12.775 12.775 0 0 1 3.068 6.483c1.716-2.462 6.57-8.806 2.392-11.978-3.57-2.652-11.059 5.27-11.804 8.424a.606.606 0 0 0 .139.555ZM26.766 19.982a.641.641 0 0 0 .086 1.179c1.387.416 3.727 1.127 6.154 1.976a12.688 12.688 0 0 1-3.172 6.448c2.999-.208 10.99-.364 10.885-5.599-.156-4.437-11.007-5.373-13.953-4.004ZM24.928 25.355a.659.659 0 0 0-.572 0 .642.642 0 0 0-.295.798 108.012 108.012 0 0 1 2.289 6.05c-3.623 1.958-7.003 1.525-7.003 1.525 2.01 2.218 7.107 8.372 11.145 5.044 3.363-2.895-2.652-11.978-5.564-13.416ZM19.59 27.245a.606.606 0 0 0-.365-.433.624.624 0 0 0-.797.277 135.705 135.705 0 0 1-3.31 5.547 12.688 12.688 0 0 1-5.565-4.542c-.485 2.964-2.115 10.782 2.999 11.857 4.368.85 7.713-9.517 7.037-12.706ZM14.788 24.263a.64.64 0 0 0 .104-.554.624.624 0 0 0-.71-.468c-1.422.225-3.832.59-6.397.866a12.792 12.792 0 0 1 .087-7.176c-2.618 1.456-9.76 5.044-7.402 9.724 2.046 3.935 12.255.122 14.318-2.392ZM14.13 18.63a.59.59 0 0 0 .502-.26.607.607 0 0 0-.07-.832c-1.074-.97-2.86-2.635-4.662-4.472a12.689 12.689 0 0 1 5.668-4.403c-2.774-1.127-10.036-4.49-12.238.26-1.803 4.056 7.558 9.655 10.8 9.707ZM18.636 14.851a.642.642 0 0 0 .624-.59c.087-1.42.277-3.865.59-6.413a12.67 12.67 0 0 1 6.968 1.682c-.832-2.878-2.722-10.643-7.8-9.395-4.3 1.109-2.878 11.908-.885 14.49a.572.572 0 0 0 .503.226Z" fill="currentColor"/></svg>