<svg width="256" height="256" viewBox="0 0 256 256" fill="none" xmlns="http://www.w3.org/2000/svg">
<g clip-path="url(#clip0_1593_453)">
<rect width="256" height="256" fill="white"/>
<g clip-path="url(#clip1_1593_453)">
<path d="M128 256C198.692 256 256 198.692 256 128C256 57.3076 198.692 0 128 0C57.3076 0 0 57.3076 0 128C0 198.692 57.3076 256 128 256Z" fill="#FF0420"/>
<path d="M90.6752 161.996C83.0464 161.996 76.8 160.204 71.936 156.62C67.1232 152.985 64.7168 147.763 64.7168 141.056C64.7168 139.622 64.8704 137.932 65.1776 135.884C65.9968 131.276 67.1744 125.747 68.7104 119.244C73.0624 101.632 84.3264 92.8252 102.451 92.8252C107.366 92.8252 111.821 93.6444 115.712 95.334C119.603 96.9212 122.675 99.3788 124.928 102.656C127.181 105.881 128.307 109.721 128.307 114.176C128.307 115.507 128.154 117.196 127.846 119.244C126.874 124.928 125.747 130.508 124.365 135.884C122.112 144.64 118.272 151.244 112.742 155.596C107.264 159.897 99.8912 161.996 90.6752 161.996ZM92.0576 148.172C95.6416 148.172 98.6624 147.097 101.171 144.998C103.731 142.899 105.574 139.673 106.65 135.27C108.134 129.228 109.261 124.006 110.029 119.5C110.285 118.169 110.438 116.787 110.438 115.353C110.438 109.516 107.418 106.598 101.325 106.598C97.7408 106.598 94.6688 107.673 92.1088 109.772C89.6 111.872 87.808 115.097 86.7328 119.5C85.5552 123.801 84.4288 129.024 83.2512 135.27C82.9952 136.55 82.8416 137.881 82.8416 139.315C82.7904 145.254 85.9136 148.172 92.0576 148.172Z" fill="white"/>
<path d="M132.761 161.076C132.045 161.076 131.533 160.871 131.123 160.41C130.816 159.898 130.713 159.335 130.816 158.669L144.077 96.2052C144.179 95.4884 144.537 94.9252 145.152 94.4644C145.715 94.0036 146.329 93.7988 146.995 93.7988H172.544C179.661 93.7988 185.344 95.2836 189.645 98.202C193.997 101.172 196.198 105.421 196.198 111.002C196.198 112.589 195.993 114.279 195.635 116.02C194.048 123.392 190.822 128.82 185.907 132.352C181.094 135.885 174.489 137.626 166.093 137.626H153.139L148.736 158.669C148.582 159.386 148.275 159.949 147.661 160.41C147.097 160.871 146.483 161.076 145.817 161.076H132.761ZM166.758 124.365C169.472 124.365 171.776 123.648 173.773 122.164C175.821 120.679 177.152 118.58 177.817 115.815C178.022 114.74 178.125 113.767 178.125 112.948C178.125 111.104 177.561 109.671 176.486 108.698C175.411 107.674 173.517 107.162 170.905 107.162H159.385L155.75 124.365H166.758Z" fill="white"/>
</g>
</g>
<defs>
<clipPath id="clip0_1593_453">
<rect width="256" height="256" fill="white"/>
</clipPath>
<clipPath id="clip1_1593_453">
<rect width="256" height="256" fill="white"/>
</clipPath>
</defs>
</svg>
