<svg width="256" height="256" viewBox="0 0 256 256" fill="none" xmlns="http://www.w3.org/2000/svg">
<g clip-path="url(#clip0_1593_445)">
<path d="M193.333 83.9997C188.667 81.333 182.667 81.333 177.333 83.9997L140 106L114.667 120L78 142C73.3333 144.666 67.3333 144.666 62 142L33.3333 124.666C28.6667 122 25.3333 116.666 25.3333 110.666V77.333C25.3333 71.9997 28 66.6663 33.3333 63.333L62 46.6663C66.6667 43.9997 72.6667 43.9997 78 46.6663L106.667 63.9997C111.333 66.6663 114.667 71.9997 114.667 77.9997V99.9997L140 85.333V62.6663C140 57.333 137.333 51.9997 132 48.6663L78.6667 17.333C74 14.6663 68 14.6663 62.6667 17.333L8 49.333C2.66667 51.9997 0 57.333 0 62.6663V125.333C0 130.666 2.66667 136 8 139.333L62 170.666C66.6667 173.333 72.6667 173.333 78 170.666L114.667 149.333L140 134.666L176.667 113.333C181.333 110.666 187.333 110.666 192.667 113.333L221.333 130C226 132.666 229.333 138 229.333 144V177.333C229.333 182.666 226.667 188 221.333 191.333L193.333 208C188.667 210.666 182.667 210.666 177.333 208L148.667 191.333C144 188.666 140.667 183.333 140.667 177.333V156L115.333 170.666V192.666C115.333 198 118 203.333 123.333 206.666L177.333 238C182 240.666 188 240.666 193.333 238L247.333 206.666C252 204 255.333 198.666 255.333 192.666V129.333C255.333 124 252.667 118.666 247.333 115.333L193.333 83.9997Z" fill="#8247E5"/>
</g>
<defs>
<clipPath id="clip0_1593_445">
<rect width="256" height="223.333" fill="white" transform="translate(0 16)"/>
</clipPath>
</defs>
</svg>
