<svg width="24" height="24" fill="none" xmlns="http://www.w3.org/2000/svg"><path fill-rule="evenodd" clip-rule="evenodd" d="M20.017 2.74a.75.75 0 0 1 .53.92l-.366 1.365a.75.75 0 1 1-1.45-.388l.367-1.366a.75.75 0 0 1 .919-.53ZM15.87 4.438a2 2 0 0 0-3.198-.362l-6.448 6.94c.225.205.422.446.582.724l2.5 4.33a3 3 0 0 1 .335.866l9.235-2.115a2 2 0 0 0 1.286-2.95L15.87 4.438Zm-8.02 12.29-2.5-4.33a1.5 1.5 0 1 0-2.599 1.5l2.5 4.33a1.5 1.5 0 1 0 2.598-1.5Zm5.86 4.42-1.903-3.297 3.06-.7 1.441 2.497a1.5 1.5 0 0 1-2.598 1.5Zm7.94-13.577a.75.75 0 1 0-.389 1.449l1.366.366a.75.75 0 1 0 .389-1.45l-1.366-.365Z" fill="currentColor"/></svg>