<svg xmlns="http://www.w3.org/2000/svg" width="18" height="18" fill="none"><path fill="#00C313" fill-rule="evenodd" d="M13.41.975C12.731-.16 11.112-.338 10.19.623L3.7 7.39c.226.198.425.434.586.705l2.517 4.222c.16.27.272.555.337.844l9.296-2.062c1.32-.293 1.971-1.74 1.294-2.875L13.41.975ZM5.335 12.96 2.818 8.737c-.417-.7-1.34-.939-2.063-.535A1.438 1.438 0 0 0 .203 10.2l2.516 4.222c.417.7 1.34.939 2.063.535.722-.404.97-1.298.553-1.998Zm5.902 4.31L9.32 14.054l3.08-.683 1.451 2.435c.417.7.17 1.594-.553 1.998-.722.404-1.645.164-2.062-.535Z" clip-rule="evenodd"/></svg>