<svg width="30" height="30" viewBox="0 0 30 30" fill="none" xmlns="http://www.w3.org/2000/svg">
<path d="M30 15C30 23.2843 23.2843 30 15 30C6.71573 30 0 23.2843 0 15C0 6.71573 6.71573 0 15 0C23.2843 0 30 6.71573 30 15Z" fill="white"/>
<circle cx="15" cy="15" r="10.5" fill="#DADADA"/>
<path d="M15 10.5002L15 11.0002L15 10.5002ZM17.5 12.8592L17 12.8592L17.5 12.8592ZM12 12.8592C12 13.1354 12.2239 13.3592 12.5 13.3592C12.7761 13.3592 13 13.1354 13 12.8592L12 12.8592ZM16.804 14.4924L16.4535 14.1358L16.4535 14.1358L16.804 14.4924ZM14.5 17.1797C14.5 17.4558 14.7239 17.6797 15 17.6797C15.2761 17.6797 15.5 17.4558 15.5 17.1797L14.5 17.1797ZM15 11.0002C16.1323 11.0002 17 11.8595 17 12.8592L18 12.8592C18 11.2533 16.6291 10.0002 15 10.0002L15 11.0002ZM15 10.0002C14.6099 10.0002 14.2231 10.0727 13.8613 10.2141L14.2253 11.1455C14.4701 11.0498 14.7335 11.0002 15 11.0002L15 10.0002ZM13.8613 10.2141C13.4994 10.3555 13.1689 10.5635 12.8891 10.8275L13.5754 11.5548C13.7599 11.3807 13.9805 11.2412 14.2253 11.1455L13.8613 10.2141ZM12.8891 10.8275C12.6093 11.0916 12.3856 11.4066 12.2325 11.7555L13.1481 12.1575C13.2463 11.9339 13.3909 11.7289 13.5754 11.5548L12.8891 10.8275ZM12.2325 11.7555C12.0793 12.1045 12 12.4796 12 12.8592L13 12.8592C13 12.6193 13.05 12.3809 13.1481 12.1575L12.2325 11.7555ZM17 12.8592C17 13.3494 16.796 13.799 16.4535 14.1358L17.1546 14.8489C17.6742 14.338 18 13.6367 18 12.8592L17 12.8592ZM16.4535 14.1358C16.1198 14.4639 15.6571 14.6816 15.1356 14.714L15.1976 15.7121C15.9607 15.6647 16.6501 15.3449 17.1546 14.8489L16.4535 14.1358ZM15.5 17.1797L15.5 15.3849L14.5 15.3849L14.5 17.1797L15.5 17.1797ZM15.1356 14.714C14.8002 14.7348 14.5 15.0091 14.5 15.3849L15.5 15.3849C15.5 15.5765 15.3493 15.7027 15.1976 15.7121L15.1356 14.714Z" fill="white"/>
<path fill-rule="evenodd" clip-rule="evenodd" d="M14.9478 18.3C15.2788 18.3 15.5493 18.5682 15.5493 18.9C15.5493 19.2318 15.2842 19.5 14.9538 19.5L14.9478 19.5C14.6168 19.5 14.3493 19.2318 14.3493 18.9C14.3493 18.5682 14.6168 18.3 14.9478 18.3" fill="white"/>
</svg>
