<svg width="272" height="46" viewBox="0 0 272 46" fill="none" xmlns="http://www.w3.org/2000/svg">
<path d="M90.635 10.4408L83.866 36.7337H79.4731L73.7425 18.6337L67.9918 36.7337H63.599L56.83 10.4408H61.3826L66.1548 29.3382L71.3863 10.4408H76.0787L81.3101 29.3382L86.0824 10.4408H90.635Z" fill="#183C4A"/>
<path d="M92.7116 23.5973C92.7116 15.1453 96.4256 9.88269 103.774 9.88269C111.122 9.88269 114.796 15.1453 114.796 23.5973C114.796 32.0493 111.062 37.3118 103.774 37.3118C96.4855 37.3118 92.7116 32.0493 92.7116 23.5973ZM110.243 23.5973C110.243 20.2882 109.524 14.0888 103.774 14.0888C98.023 14.0888 97.2642 20.2882 97.2642 23.5973C97.2642 26.9063 98.003 33.1058 103.774 33.1058C109.544 33.1058 110.243 26.9063 110.243 23.5973Z" fill="#183C4A"/>
<path d="M133.326 36.7337L128.214 25.9893H123.701V36.7337H119.149V10.4408H128.414C134.803 10.4408 138.337 12.4342 138.337 18.0755C138.337 22.2816 136.5 24.5341 133.066 25.471L138.377 36.7337H133.326ZM123.701 21.7633H128.214C132.088 21.7633 133.865 20.7865 133.865 18.215C133.865 15.6436 131.988 14.6867 128.214 14.6867H123.701V21.7633Z" fill="#183C4A"/>
<path d="M143.15 10.4408H147.702V32.428H160.721V36.7337H143.15V10.4408Z" fill="#183C4A"/>
<path d="M165.014 10.4408H172.502C180.389 10.4408 185.481 15.6037 185.481 23.677C185.481 31.7502 180.389 36.7337 172.502 36.7337H165.014V10.4408ZM172.821 32.428C177.833 32.428 180.928 28.8199 180.928 23.677C180.928 18.534 177.693 14.7665 172.821 14.7665H169.567V32.428H172.821Z" fill="#183C4A"/>
<path d="M189.275 23.5174C189.275 15.3645 193.827 10.0022 200.896 10.0022C205.927 10.0022 210.22 12.7332 211.578 17.8961L207.325 19.1918C206.467 16.72 205.209 14.3279 200.896 14.3279C196.583 14.3279 193.827 18.1951 193.827 23.5174C193.827 28.8398 196.423 32.8665 200.896 32.8665C205.368 32.8665 206.806 30.1953 207.365 27.883L211.578 29.1986C210.34 34.2619 206.267 37.1921 200.896 37.1921C193.827 37.1921 189.275 31.79 189.275 23.5174Z" fill="#183C4A"/>
<path d="M215.232 23.5973C215.232 15.1453 218.946 9.88269 226.274 9.88269C233.602 9.88269 237.296 15.1453 237.296 23.5973C237.296 32.0493 233.582 37.3118 226.274 37.3118C218.966 37.3118 215.232 32.0493 215.232 23.5973ZM232.744 23.5973C232.744 20.2882 232.045 14.0888 226.274 14.0888C220.504 14.0888 219.765 20.2882 219.765 23.5973C219.765 26.9063 220.524 33.1058 226.274 33.1058C232.025 33.1058 232.744 26.9063 232.744 23.5973Z" fill="#183C4A"/>
<path d="M242.628 10.4408H247.18V36.7337H242.628V10.4408Z" fill="#183C4A"/>
<path d="M272 10.4408V36.7337H267.447L257.204 19.6104V36.7337H252.671V10.4408H257.204L267.447 28.182V10.4408H272Z" fill="#183C4A"/>
<path d="M27.4778 18.1353C27.5941 18.2705 27.7567 18.3576 27.9339 18.3797C28.111 18.4018 28.2901 18.3573 28.4362 18.2549C29.794 17.2981 32.1102 15.7033 34.6261 14.1286C36.4932 16.2258 37.7196 18.8128 38.1604 21.5839C40.1372 18.7532 45.7281 11.4574 40.9159 7.80949C36.8026 4.75959 28.1766 13.8694 27.318 17.4974C27.2901 17.6086 27.2901 17.725 27.3179 17.8363C27.3458 17.9476 27.4007 18.0503 27.4778 18.1353Z" fill="#183C4A"/>
<path d="M30.8323 22.9794C30.7029 23.0454 30.5959 23.1481 30.5246 23.2745C30.4534 23.4009 30.4211 23.5456 30.4317 23.6902C30.4424 23.8349 30.4955 23.9732 30.5846 24.0879C30.6736 24.2026 30.7945 24.2885 30.9321 24.3349C32.5295 24.8133 35.2251 25.6306 38.0206 26.6074C37.5438 29.3791 36.2749 31.9542 34.3665 34.0228C37.8209 33.7836 47.0259 33.6042 46.9061 27.5841C46.7264 22.4811 34.2268 21.4046 30.8323 22.9794Z" fill="#183C4A"/>
<path d="M28.7157 29.1589C28.6129 29.1094 28.5003 29.0837 28.3862 29.0837C28.2722 29.0837 28.1595 29.1094 28.0568 29.1589C27.8978 29.244 27.7755 29.3842 27.713 29.5531C27.6505 29.722 27.652 29.908 27.7173 30.0758C28.3563 31.6107 29.3946 34.242 30.353 37.0328C26.1798 39.2853 22.2862 38.787 22.2862 38.787C24.6024 41.3385 30.4728 48.4151 35.1253 44.5877C38.999 41.2588 32.0702 30.8134 28.7157 29.1589Z" fill="#183C4A"/>
<path d="M22.5658 31.3317C22.5417 31.2209 22.491 31.1176 22.4179 31.0307C22.3448 30.9439 22.2517 30.8762 22.1465 30.8334C21.9812 30.762 21.7951 30.7552 21.625 30.8142C21.4549 30.8733 21.3132 30.994 21.228 31.1523C20.4093 32.5876 19.0116 35.0195 17.4142 37.5312C14.8184 36.4429 12.5927 34.6293 11.0046 32.3085C10.4455 35.7172 8.56855 44.7074 14.459 45.9433C19.4908 46.9201 23.3445 34.9996 22.5658 31.3317Z" fill="#183C4A"/>
<path d="M17.0347 27.9029C17.1021 27.8128 17.1479 27.7084 17.1687 27.5978C17.1894 27.4873 17.1846 27.3734 17.1545 27.265C17.1116 27.0886 17.0033 26.9349 16.8513 26.835C16.6994 26.7351 16.5152 26.6965 16.3359 26.7268C14.6985 26.986 11.923 27.4046 8.96784 27.7235C8.21166 25.0195 8.24631 22.1559 9.06768 19.4708C6.05259 21.1453 -2.17403 25.2716 0.541556 30.6538C2.89772 35.1788 14.6586 30.7933 17.0347 27.9029Z" fill="#183C4A"/>
<path d="M16.2759 21.4244C16.3898 21.4271 16.5026 21.4011 16.6038 21.3488C16.705 21.2966 16.7914 21.2197 16.855 21.1254C16.9669 20.986 17.021 20.8091 17.0061 20.6311C16.9913 20.4531 16.9086 20.2875 16.7751 20.1686C15.5371 19.0523 13.4805 17.1386 11.4039 15.0256C13.0469 12.7457 15.314 10.9876 17.9332 9.96239C14.7384 8.66668 6.37204 4.79949 3.83617 10.2614C1.75955 14.9259 12.542 21.3646 16.2759 21.4244Z" fill="#183C4A"/>
<path d="M21.4675 17.0788C21.65 17.0744 21.8245 17.0028 21.9572 16.8776C22.09 16.7525 22.1716 16.5827 22.1863 16.401C22.2862 14.7664 22.5058 11.9557 22.8652 9.02544C25.6715 8.88523 28.4587 9.55664 30.8922 10.959C29.9337 7.65 27.7573 -1.28042 21.9068 0.154826C16.9549 1.4306 18.5922 13.8495 20.8885 16.8196C20.9553 16.908 21.0435 16.9781 21.1447 17.0234C21.2459 17.0687 21.3569 17.0877 21.4675 17.0788Z" fill="#183C4A"/>
</svg>
