<svg width="200" height="300" viewBox="0 0 200 300" fill="none" xmlns="http://www.w3.org/2000/svg">
<rect width="200" height="300" fill="white"/>
<path d="M179.618 81.8029H39.2417C38.1439 81.8029 37.254 82.6928 37.254 83.7905V222.798C37.254 223.896 38.1439 224.786 39.2417 224.786H179.618C180.716 224.786 181.606 223.896 181.606 222.798V83.7905C181.606 82.6928 180.716 81.8029 179.618 81.8029Z" fill="black" stroke="black" stroke-width="1.32512" stroke-linejoin="round"/>
<path d="M175.976 77.4819H35.5997C34.5019 77.4819 33.612 78.3718 33.612 79.4696V218.477C33.612 219.575 34.5019 220.465 35.5997 220.465H175.976C177.074 220.465 177.964 219.575 177.964 218.477V79.4696C177.964 78.3718 177.074 77.4819 175.976 77.4819Z" fill="white" stroke="#183C4A" stroke-width="1.32512" stroke-linejoin="round"/>
<path d="M175.976 77.4819H35.5997C34.5019 77.4819 33.612 78.3718 33.612 79.4696V219.233C33.612 220.331 34.5019 221.221 35.5997 221.221H175.976C177.074 221.221 177.964 220.331 177.964 219.233V79.4696C177.964 78.3718 177.074 77.4819 175.976 77.4819Z" fill="white" stroke="#183C4A" stroke-width="1.32512" stroke-linejoin="round"/>
<path d="M54.714 101.318C57.274 101.318 58.586 98.9819 58.586 95.8299C58.586 92.6779 57.274 90.3419 54.714 90.3419C52.154 90.3419 50.842 92.6779 50.842 95.8299C50.842 98.8219 52.154 101.318 54.714 101.318ZM54.714 100.246C52.922 100.246 52.154 98.3579 52.154 95.8299C52.154 93.3019 52.922 91.4139 54.714 91.4139C56.506 91.4139 57.274 93.3019 57.274 95.8299C57.274 98.3579 56.506 100.246 54.714 100.246ZM59.149 101.126H60.717L63.933 96.4219L67.149 101.126H68.717L64.749 95.4139L68.413 90.1179H66.845L63.933 94.4059L61.021 90.1179H59.453L63.117 95.4139L59.149 101.126ZM73.231 93.9579C72.191 93.9579 71.391 94.4059 70.895 94.9499H70.879L71.103 91.7019H75.839V90.5179H70.015L69.599 96.3099L70.895 96.5339C71.151 95.8619 71.935 95.0299 73.087 95.0299C74.527 95.0299 75.311 96.1339 75.311 97.6059C75.311 99.1899 74.351 100.246 72.911 100.246C71.567 100.246 70.815 99.3339 70.591 98.1819L69.279 98.4379C69.615 100.134 70.863 101.318 72.879 101.318C75.119 101.318 76.623 99.5899 76.623 97.5739C76.623 95.5899 75.423 93.9579 73.231 93.9579ZM78.54 101.126H83.036C85.58 101.126 86.54 99.5739 86.54 97.9739C86.54 96.3259 85.58 95.5739 84.684 95.3339V95.3179C85.596 94.9659 86.204 93.9899 86.204 92.8699C86.204 91.0139 84.828 90.1179 82.844 90.1179H78.54V101.126ZM79.852 94.8219V91.2699H82.892C84.092 91.2699 84.876 91.7979 84.876 92.9499C84.876 94.1979 84.188 94.8219 82.796 94.8219H79.852ZM79.852 99.9739V95.9739H82.908C84.572 95.9739 85.212 96.7899 85.212 97.9579C85.212 99.0459 84.62 99.9739 83.02 99.9739H79.852ZM91.422 90.3259C89.198 90.3259 87.822 91.9099 87.822 93.8299C87.822 95.7659 89.07 97.2859 91.262 97.2859C92.686 97.2859 93.63 96.4059 93.998 95.6219L94.014 95.6379C94.014 98.7099 93.006 100.246 91.31 100.246C90.094 100.246 89.438 99.4619 89.262 98.3899L87.966 98.6779C88.238 100.07 89.23 101.318 91.23 101.318C93.79 101.318 95.294 99.2699 95.294 95.5579C95.294 91.7019 93.47 90.3259 91.422 90.3259ZM91.374 91.3979C92.67 91.3979 93.71 92.3899 93.71 93.8299C93.71 95.1419 92.718 96.1819 91.358 96.1819C90.19 96.1819 89.118 95.4619 89.118 93.8139C89.118 92.2619 90.126 91.3979 91.374 91.3979ZM102.108 101.318C104.108 101.318 105.292 100.358 105.82 99.4779H105.836V101.126H107.148V95.2539H101.948V96.4219H105.852C105.852 97.4779 105.564 98.2779 105.116 98.8699C104.524 99.6539 103.596 100.166 102.156 100.166C99.788 100.166 98.188 98.3099 98.188 95.6219C98.188 92.8699 99.788 91.0779 102.204 91.0779C104.108 91.0779 105.212 92.2459 105.628 93.5259L106.988 93.0939C106.428 91.5739 105.004 89.9259 102.204 89.9259C98.828 89.9259 96.812 92.4379 96.812 95.6059C96.812 98.8219 98.828 101.318 102.108 101.318ZM109.556 101.126H113.188C116.58 101.126 118.516 99.0299 118.516 95.6059C118.516 92.1979 116.58 90.1179 113.188 90.1179H109.556V101.126ZM110.868 99.9579V91.2859H113.236C115.94 91.2859 117.14 93.0139 117.14 95.6059C117.14 98.1979 115.94 99.9579 113.236 99.9579H110.868ZM122.541 101.126H123.789V90.5179H122.717V90.6139C122.717 92.3579 121.789 92.7419 120.077 92.8059H119.949V93.7179H122.541V101.126ZM128.463 101.126H129.711V90.5179H128.639V90.6139C128.639 92.3579 127.711 92.7419 125.999 92.8059H125.871V93.7179H128.463V101.126ZM136.465 101.318C138.753 101.318 140.785 100.15 140.785 97.9099C140.785 95.9419 139.249 95.3819 137.409 94.9659L135.825 94.6139C134.289 94.2779 133.665 93.9259 133.665 92.9339C133.665 91.8619 134.641 90.9979 136.241 90.9979C137.777 90.9979 138.817 91.7819 139.041 93.2699L140.433 93.0459C140.177 91.0459 138.625 89.9259 136.289 89.9259C133.985 89.9259 132.289 91.2219 132.289 92.9979C132.289 94.7419 133.569 95.4619 135.489 95.8939L137.073 96.2459C138.625 96.5979 139.409 96.9499 139.409 98.1019C139.409 99.4459 138.177 100.246 136.481 100.246C134.673 100.246 133.457 99.3659 133.233 97.4139L131.841 97.6379C132.161 100.118 133.953 101.318 136.465 101.318ZM145.878 101.318C148.038 101.318 149.51 100.118 149.51 98.1659C149.51 96.6139 148.454 95.7659 147.542 95.4619V95.4459C148.246 95.2059 149.206 94.4059 149.206 93.1099C149.206 91.4299 147.782 90.3259 145.878 90.3259C143.974 90.3259 142.534 91.4299 142.534 93.1099C142.534 94.4059 143.494 95.2059 144.198 95.4459V95.4619C143.286 95.7819 142.23 96.6139 142.23 98.1659C142.23 100.118 143.702 101.318 145.878 101.318ZM145.878 95.0299C144.726 95.0299 143.846 94.2459 143.846 93.2219C143.846 92.1659 144.646 91.3979 145.878 91.3979C147.11 91.3979 147.894 92.1659 147.894 93.2219C147.894 94.2459 147.03 95.0299 145.878 95.0299ZM145.878 100.246C144.438 100.246 143.542 99.3659 143.542 98.1339C143.542 96.9019 144.55 96.0699 145.878 96.0699C147.206 96.0699 148.198 96.9019 148.198 98.1339C148.198 99.3659 147.318 100.246 145.878 100.246ZM151.353 101.126H152.665V90.1179H151.353V101.126ZM158.032 90.3259C155.808 90.3259 154.432 91.9099 154.432 93.8299C154.432 95.7659 155.68 97.2859 157.872 97.2859C159.296 97.2859 160.24 96.4059 160.608 95.6219L160.624 95.6379C160.624 98.7099 159.616 100.246 157.92 100.246C156.704 100.246 156.048 99.4619 155.872 98.3899L154.576 98.6779C154.848 100.07 155.84 101.318 157.84 101.318C160.4 101.318 161.904 99.2699 161.904 95.5579C161.904 91.7019 160.08 90.3259 158.032 90.3259ZM157.984 91.3979C159.28 91.3979 160.32 92.3899 160.32 93.8299C160.32 95.1419 159.328 96.1819 157.968 96.1819C156.8 96.1819 155.728 95.4619 155.728 93.8139C155.728 92.2619 156.736 91.3979 157.984 91.3979Z" fill="#183C4A"/>
<path d="M56.432 57.008H57.68V46.4H56.608V46.496C56.608 48.24 55.68 48.624 53.968 48.688H53.84V49.6H56.432V57.008ZM67.074 46L63.986 51.408L60.914 46H59.362L63.346 52.688V57.008H64.658V52.688L68.642 46H67.074ZM69.375 57.008H76.175V55.92H71.167V55.904L71.887 55.424C74.095 53.952 76.191 52.08 76.191 49.36C76.191 47.392 75.007 46.224 72.927 46.208C70.927 46.192 69.455 47.344 69.455 49.344C69.455 49.68 69.503 50 69.503 50L70.799 50.176C70.767 49.984 70.735 49.728 70.735 49.44C70.735 48.016 71.583 47.28 72.895 47.28C74.143 47.28 74.879 48.112 74.879 49.408C74.879 51.888 72.927 53.584 70.239 55.328L69.375 55.888V57.008ZM81.957 46H78.197V57.008H79.509V52.544H81.877C84.149 52.544 85.717 51.648 85.717 49.216C85.717 46.992 84.261 46 81.957 46ZM81.941 51.376H79.509V47.168H81.829C83.557 47.168 84.357 47.824 84.357 49.248C84.357 50.624 83.637 51.376 81.941 51.376ZM90.948 57.2C93.508 57.2 94.82 54.864 94.82 51.712C94.82 48.56 93.508 46.224 90.948 46.224C88.388 46.224 87.076 48.56 87.076 51.712C87.076 54.704 88.388 57.2 90.948 57.2ZM90.948 56.128C89.156 56.128 88.388 54.24 88.388 51.712C88.388 49.184 89.156 47.296 90.948 47.296C92.74 47.296 93.508 49.184 93.508 51.712C93.508 54.24 92.74 56.128 90.948 56.128ZM96.743 57.008H98.055V46H96.743V57.008ZM103.038 57.2C105.118 57.2 106.142 56.016 106.142 53.824V46H104.83V53.696C104.83 55.104 104.446 56.048 103.118 56.048C101.87 56.048 101.31 55.232 101.294 53.92L99.982 54.064C100.03 55.984 101.118 57.2 103.038 57.2ZM111.63 57.2C113.87 57.2 115.246 55.936 115.246 53.968C115.246 52.464 114.366 51.712 113.262 51.424V51.408C114.046 51.12 114.974 50.4 114.974 49.008C114.974 47.216 113.582 46.208 111.678 46.208C109.774 46.208 108.286 47.2 108.126 49.088L109.406 49.296C109.534 48 110.334 47.28 111.646 47.28C112.99 47.28 113.662 48.08 113.662 49.056C113.662 50.128 112.926 50.928 111.63 50.928C111.118 50.928 110.75 50.88 110.51 50.816V52.112C110.798 52.048 111.118 52 111.694 52C113.214 52 113.934 52.864 113.934 54.032C113.934 55.264 113.102 56.128 111.694 56.128C110.334 56.128 109.342 55.408 109.182 53.776L107.902 53.984C108.062 56.032 109.486 57.2 111.63 57.2ZM116.687 57.008H123.487V55.92H118.479V55.904L119.199 55.424C121.407 53.952 123.503 52.08 123.503 49.36C123.503 47.392 122.319 46.224 120.239 46.208C118.239 46.192 116.767 47.344 116.767 49.344C116.767 49.68 116.815 50 116.815 50L118.111 50.176C118.079 49.984 118.047 49.728 118.047 49.44C118.047 48.016 118.895 47.28 120.207 47.28C121.455 47.28 122.191 48.112 122.191 49.408C122.191 51.888 120.239 53.584 117.551 55.328L116.687 55.888V57.008ZM126.821 55.84V51.824H132.101V50.656H126.821V47.168H132.437V46H125.509V57.008H132.613V55.84H126.821ZM137.535 57.2C139.695 57.2 141.167 56 141.167 54.048C141.167 52.496 140.111 51.648 139.199 51.344V51.328C139.903 51.088 140.863 50.288 140.863 48.992C140.863 47.312 139.439 46.208 137.535 46.208C135.631 46.208 134.191 47.312 134.191 48.992C134.191 50.288 135.151 51.088 135.855 51.328V51.344C134.943 51.664 133.887 52.496 133.887 54.048C133.887 56 135.359 57.2 137.535 57.2ZM137.535 50.912C136.383 50.912 135.503 50.128 135.503 49.104C135.503 48.048 136.303 47.28 137.535 47.28C138.767 47.28 139.551 48.048 139.551 49.104C139.551 50.128 138.687 50.912 137.535 50.912ZM137.535 56.128C136.095 56.128 135.199 55.248 135.199 54.016C135.199 52.784 136.207 51.952 137.535 51.952C138.863 51.952 139.855 52.784 139.855 54.016C139.855 55.248 138.975 56.128 137.535 56.128ZM144.321 55.84V51.824H149.601V50.656H144.321V47.168H149.937V46H143.009V57.008H150.113V55.84H144.321ZM151.547 46.4V48.848H152.795V47.536H157.579C155.947 50.4 154.411 53.776 153.611 57.008H155.003C155.707 53.744 157.243 50.304 158.907 47.408V46.4H151.547Z" fill="#FF6848"/>
<path d="M52.625 126.178C50.401 126.178 49.025 127.762 49.025 129.682C49.025 131.618 50.273 133.138 52.465 133.138C53.889 133.138 54.833 132.258 55.201 131.474L55.217 131.49C55.217 134.562 54.209 136.098 52.513 136.098C51.297 136.098 50.641 135.314 50.465 134.242L49.169 134.53C49.441 135.922 50.433 137.17 52.433 137.17C54.993 137.17 56.497 135.122 56.497 131.41C56.497 127.554 54.673 126.178 52.625 126.178ZM52.577 127.25C53.873 127.25 54.913 128.242 54.913 129.682C54.913 130.994 53.921 132.034 52.561 132.034C51.393 132.034 50.321 131.314 50.321 129.666C50.321 128.114 51.329 127.25 52.577 127.25ZM58.415 136.978H65.439V135.81H59.727V125.97H58.415V136.978ZM66.156 126.37V128.818H67.404V127.506H72.188C70.556 130.37 69.02 133.746 68.22 136.978H69.612C70.316 133.714 71.852 130.274 73.516 127.378V126.37H66.156ZM82.553 125.97L79.161 135.202L75.833 125.97H74.393L78.489 136.978H79.897L83.993 125.986L82.553 125.97ZM84.843 136.978H91.643V135.89H86.635V135.874L87.355 135.394C89.563 133.922 91.659 132.05 91.659 129.33C91.659 127.362 90.475 126.194 88.395 126.178C86.395 126.162 84.923 127.314 84.923 129.314C84.923 129.65 84.971 129.97 84.971 129.97L86.267 130.146C86.235 129.954 86.203 129.698 86.203 129.41C86.203 127.986 87.051 127.25 88.363 127.25C89.611 127.25 90.347 128.082 90.347 129.378C90.347 131.858 88.395 133.554 85.707 135.298L84.843 135.858V136.978ZM96.241 137.17C98.321 137.17 99.345 135.986 99.345 133.794V125.97H98.033V133.666C98.033 135.074 97.649 136.018 96.321 136.018C95.073 136.018 94.513 135.202 94.497 133.89L93.185 134.034C93.233 135.954 94.321 137.17 96.241 137.17ZM108.865 125.97L105.473 135.202L102.145 125.97H100.705L104.801 136.978H106.209L110.305 125.986L108.865 125.97ZM114.901 137.17C117.125 137.17 118.501 135.586 118.501 133.666C118.501 131.73 117.253 130.21 115.061 130.21C113.637 130.21 112.693 131.09 112.325 131.874L112.309 131.858C112.309 128.786 113.317 127.25 115.013 127.25C116.229 127.25 116.885 128.034 117.061 129.106L118.357 128.818C118.085 127.426 117.093 126.178 115.093 126.178C112.533 126.178 111.029 128.226 111.029 131.938C111.029 135.794 112.853 137.17 114.901 137.17ZM114.949 136.098C113.653 136.098 112.613 135.106 112.613 133.666C112.613 132.354 113.605 131.314 114.965 131.314C116.133 131.314 117.205 132.034 117.205 133.682C117.205 135.234 116.197 136.098 114.949 136.098ZM127.555 133.49H125.763V126.37H123.843L119.459 133.378V134.578H124.515V136.978H125.763V134.578H127.555V133.49ZM120.675 133.49L124.515 127.33V133.49H120.675ZM131.366 137.17C133.446 137.17 134.47 135.986 134.47 133.794V125.97H133.158V133.666C133.158 135.074 132.774 136.018 131.446 136.018C130.198 136.018 129.638 135.202 129.622 133.89L128.31 134.034C128.358 135.954 129.446 137.17 131.366 137.17ZM140.262 129.81C139.222 129.81 138.422 130.258 137.926 130.802H137.91L138.134 127.554H142.87V126.37H137.046L136.63 132.162L137.926 132.386C138.182 131.714 138.966 130.882 140.118 130.882C141.558 130.882 142.342 131.986 142.342 133.458C142.342 135.042 141.382 136.098 139.942 136.098C138.598 136.098 137.846 135.186 137.622 134.034L136.31 134.29C136.646 135.986 137.894 137.17 139.91 137.17C142.15 137.17 143.654 135.442 143.654 133.426C143.654 131.442 142.454 129.81 140.262 129.81ZM153.348 125.97V135.618L147.636 125.97H145.572V136.978H146.884V127.298L152.612 136.978H154.66V125.97H153.348ZM156.656 136.978H163.456V135.89H158.448V135.874L159.168 135.394C161.376 133.922 163.472 132.05 163.472 129.33C163.472 127.362 162.288 126.194 160.208 126.178C158.208 126.162 156.736 127.314 156.736 129.314C156.736 129.65 156.784 129.97 156.784 129.97L158.08 130.146C158.048 129.954 158.016 129.698 158.016 129.41C158.016 127.986 158.864 127.25 160.176 127.25C161.424 127.25 162.16 128.082 162.16 129.378C162.16 131.858 160.208 133.554 157.52 135.298L156.656 135.858V136.978Z" fill="#183C4A"/>
<path d="M177.42 150.305H34.307V184.758H177.42V150.305Z" fill="#FF6848" fill-opacity="0.1"/>
<path d="M56.432 172.829H57.68V162.221H56.608V162.317C56.608 164.061 55.68 164.445 53.968 164.509H53.84V165.421H56.432V172.829ZM67.074 161.821L63.986 167.229L60.914 161.821H59.362L63.346 168.509V172.829H64.658V168.509L68.642 161.821H67.074ZM69.375 172.829H76.175V171.741H71.167V171.725L71.887 171.245C74.095 169.773 76.191 167.901 76.191 165.181C76.191 163.213 75.007 162.045 72.927 162.029C70.927 162.013 69.455 163.165 69.455 165.165C69.455 165.501 69.503 165.821 69.503 165.821L70.799 165.997C70.767 165.805 70.735 165.549 70.735 165.261C70.735 163.837 71.583 163.101 72.895 163.101C74.143 163.101 74.879 163.933 74.879 165.229C74.879 167.709 72.927 169.405 70.239 171.149L69.375 171.709V172.829ZM81.957 161.821H78.197V172.829H79.509V168.365H81.877C84.149 168.365 85.717 167.469 85.717 165.037C85.717 162.813 84.261 161.821 81.957 161.821ZM81.941 167.197H79.509V162.989H81.829C83.557 162.989 84.357 163.645 84.357 165.069C84.357 166.445 83.637 167.197 81.941 167.197ZM90.948 173.021C93.508 173.021 94.82 170.685 94.82 167.533C94.82 164.381 93.508 162.045 90.948 162.045C88.388 162.045 87.076 164.381 87.076 167.533C87.076 170.525 88.388 173.021 90.948 173.021ZM90.948 171.949C89.156 171.949 88.388 170.061 88.388 167.533C88.388 165.005 89.156 163.117 90.948 163.117C92.74 163.117 93.508 165.005 93.508 167.533C93.508 170.061 92.74 171.949 90.948 171.949ZM96.743 172.829H98.055V161.821H96.743V172.829ZM103.038 173.021C105.118 173.021 106.142 171.837 106.142 169.645V161.821H104.83V169.517C104.83 170.925 104.446 171.869 103.118 171.869C101.87 171.869 101.31 171.053 101.294 169.741L99.982 169.885C100.03 171.805 101.118 173.021 103.038 173.021ZM111.63 173.021C113.87 173.021 115.246 171.757 115.246 169.789C115.246 168.285 114.366 167.533 113.262 167.245V167.229C114.046 166.941 114.974 166.221 114.974 164.829C114.974 163.037 113.582 162.029 111.678 162.029C109.774 162.029 108.286 163.021 108.126 164.909L109.406 165.117C109.534 163.821 110.334 163.101 111.646 163.101C112.99 163.101 113.662 163.901 113.662 164.877C113.662 165.949 112.926 166.749 111.63 166.749C111.118 166.749 110.75 166.701 110.51 166.637V167.933C110.798 167.869 111.118 167.821 111.694 167.821C113.214 167.821 113.934 168.685 113.934 169.853C113.934 171.085 113.102 171.949 111.694 171.949C110.334 171.949 109.342 171.229 109.182 169.597L107.902 169.805C108.062 171.853 109.486 173.021 111.63 173.021ZM116.687 172.829H123.487V171.741H118.479V171.725L119.199 171.245C121.407 169.773 123.503 167.901 123.503 165.181C123.503 163.213 122.319 162.045 120.239 162.029C118.239 162.013 116.767 163.165 116.767 165.165C116.767 165.501 116.815 165.821 116.815 165.821L118.111 165.997C118.079 165.805 118.047 165.549 118.047 165.261C118.047 163.837 118.895 163.101 120.207 163.101C121.455 163.101 122.191 163.933 122.191 165.229C122.191 167.709 120.239 169.405 117.551 171.149L116.687 171.709V172.829ZM126.821 171.661V167.645H132.101V166.477H126.821V162.989H132.437V161.821H125.509V172.829H132.613V171.661H126.821ZM137.535 173.021C139.695 173.021 141.167 171.821 141.167 169.869C141.167 168.317 140.111 167.469 139.199 167.165V167.149C139.903 166.909 140.863 166.109 140.863 164.813C140.863 163.133 139.439 162.029 137.535 162.029C135.631 162.029 134.191 163.133 134.191 164.813C134.191 166.109 135.151 166.909 135.855 167.149V167.165C134.943 167.485 133.887 168.317 133.887 169.869C133.887 171.821 135.359 173.021 137.535 173.021ZM137.535 166.733C136.383 166.733 135.503 165.949 135.503 164.925C135.503 163.869 136.303 163.101 137.535 163.101C138.767 163.101 139.551 163.869 139.551 164.925C139.551 165.949 138.687 166.733 137.535 166.733ZM137.535 171.949C136.095 171.949 135.199 171.069 135.199 169.837C135.199 168.605 136.207 167.773 137.535 167.773C138.863 167.773 139.855 168.605 139.855 169.837C139.855 171.069 138.975 171.949 137.535 171.949ZM144.321 171.661V167.645H149.601V166.477H144.321V162.989H149.937V161.821H143.009V172.829H150.113V171.661H144.321ZM151.547 162.221V164.669H152.795V163.357H157.579C155.947 166.221 154.411 169.597 153.611 172.829H155.003C155.707 169.565 157.243 166.125 158.907 163.229V162.221H151.547Z" fill="#FF6848"/>
<path d="M46.304 198.074V200.522H47.552V199.21H52.336C50.704 202.074 49.168 205.45 48.368 208.682H49.76C50.464 205.418 52 201.978 53.664 199.082V198.074H46.304ZM56.813 207.514V203.498H62.093V202.33H56.813V198.842H62.429V197.674H55.501V208.682H62.605V207.514H56.813ZM64.039 208.682H70.839V207.594H65.831V207.578L66.551 207.098C68.759 205.626 70.855 203.754 70.855 201.034C70.855 199.066 69.671 197.898 67.591 197.882C65.591 197.866 64.119 199.018 64.119 201.018C64.119 201.354 64.167 201.674 64.167 201.674L65.463 201.85C65.431 201.658 65.399 201.402 65.399 201.114C65.399 199.69 66.247 198.954 67.559 198.954C68.807 198.954 69.543 199.786 69.543 201.082C69.543 203.562 67.591 205.258 64.903 207.002L64.039 207.562V208.682ZM81.741 208.682L75.853 202.666L81.005 197.674H79.277L74.173 202.698V197.674H72.861V208.682H74.173V202.794L79.949 208.682H81.741ZM89.875 205.194H88.083V198.074H86.163L81.779 205.082V206.282H86.835V208.682H88.083V206.282H89.875V205.194ZM82.995 205.194L86.835 199.034V205.194H82.995ZM93.687 208.874C95.767 208.874 96.791 207.69 96.791 205.498V197.674H95.479V205.37C95.479 206.778 95.095 207.722 93.767 207.722C92.519 207.722 91.959 206.906 91.943 205.594L90.631 205.738C90.679 207.658 91.767 208.874 93.687 208.874ZM110.951 197.674L108.487 206.858L105.959 197.674H104.535L102.007 206.858L99.543 197.674H98.151L101.223 208.682H102.695L105.255 199.418L107.799 208.682H109.271L112.343 197.674H110.951ZM116.779 208.874C119.019 208.874 120.395 207.61 120.395 205.642C120.395 204.138 119.515 203.386 118.411 203.098V203.082C119.195 202.794 120.123 202.074 120.123 200.682C120.123 198.89 118.731 197.882 116.827 197.882C114.923 197.882 113.435 198.874 113.275 200.762L114.555 200.97C114.683 199.674 115.483 198.954 116.795 198.954C118.139 198.954 118.811 199.754 118.811 200.73C118.811 201.802 118.075 202.602 116.779 202.602C116.267 202.602 115.899 202.554 115.659 202.49V203.786C115.947 203.722 116.267 203.674 116.843 203.674C118.363 203.674 119.083 204.538 119.083 205.706C119.083 206.938 118.251 207.802 116.843 207.802C115.483 207.802 114.491 207.082 114.331 205.45L113.051 205.658C113.211 207.706 114.635 208.874 116.779 208.874ZM121.836 198.074V200.522H123.084V199.21H127.868C126.236 202.074 124.7 205.45 123.9 208.682H125.292C125.996 205.418 127.532 201.978 129.196 199.082V198.074H121.836ZM131.032 208.682H134.664C138.056 208.682 139.992 206.586 139.992 203.162C139.992 199.754 138.056 197.674 134.664 197.674H131.032V208.682ZM132.344 207.514V198.842H134.712C137.416 198.842 138.616 200.57 138.616 203.162C138.616 205.754 137.416 207.514 134.712 207.514H132.344ZM145.074 208.874C147.234 208.874 148.706 207.674 148.706 205.722C148.706 204.17 147.65 203.322 146.738 203.018V203.002C147.442 202.762 148.402 201.962 148.402 200.666C148.402 198.986 146.978 197.882 145.074 197.882C143.17 197.882 141.73 198.986 141.73 200.666C141.73 201.962 142.69 202.762 143.394 203.002V203.018C142.482 203.338 141.426 204.17 141.426 205.722C141.426 207.674 142.898 208.874 145.074 208.874ZM145.074 202.586C143.922 202.586 143.042 201.802 143.042 200.778C143.042 199.722 143.842 198.954 145.074 198.954C146.306 198.954 147.09 199.722 147.09 200.778C147.09 201.802 146.226 202.586 145.074 202.586ZM145.074 207.802C143.634 207.802 142.738 206.922 142.738 205.69C142.738 204.458 143.746 203.626 145.074 203.626C146.402 203.626 147.394 204.458 147.394 205.69C147.394 206.922 146.514 207.802 145.074 207.802ZM157.412 198.842V197.674H150.548V208.682H151.86V203.466H157.172V202.298H151.86V198.842H157.412ZM162.643 208.874C165.203 208.874 166.515 206.538 166.515 203.386C166.515 200.234 165.203 197.898 162.643 197.898C160.083 197.898 158.771 200.234 158.771 203.386C158.771 206.378 160.083 208.874 162.643 208.874ZM162.643 207.802C160.851 207.802 160.083 205.914 160.083 203.386C160.083 200.858 160.851 198.97 162.643 198.97C164.435 198.97 165.203 200.858 165.203 203.386C165.203 205.914 164.435 207.802 162.643 207.802Z" fill="#183C4A"/>
<path d="M32.949 113.666H177.364" stroke="#183C4A" stroke-width="1.32512"/>
<path d="M32.949 149.517H177.364" stroke="#183C4A" stroke-width="1.32512"/>
<path d="M32.949 185.369H177.364" stroke="#183C4A" stroke-width="1.32512"/>
<path d="M165.107 241.703H52.7805C42.1747 241.703 33.577 250.301 33.577 260.906V260.906C33.577 271.512 42.1747 280.11 52.7805 280.11H165.107C175.712 280.11 184.31 271.512 184.31 260.906C184.31 250.301 175.712 241.703 165.107 241.703Z" fill="white"/>
<path d="M52.7805 241.703H165.107C175.712 241.703 184.31 250.301 184.31 260.906V260.906C184.31 271.512 175.712 280.11 165.107 280.11H52.7805C42.1747 280.11 33.577 271.512 33.577 260.906V260.906C33.577 250.301 42.1747 241.703 52.7805 241.703Z" stroke="#FF6848" stroke-width="1.18928"/>
<path d="M28.608 168.394C28.901 168.101 28.901 167.626 28.608 167.333L23.835 162.56C23.543 162.267 23.068 162.267 22.775 162.56C22.482 162.853 22.482 163.328 22.775 163.621L27.017 167.864L22.775 172.106C22.482 172.399 22.482 172.874 22.774 173.167C23.067 173.46 23.542 173.46 23.835 173.167L28.608 168.394ZM16.75 52.381V51.631H16V52.381H16.75ZM16.75 167.863H16V168.613H16.75V167.863ZM48.839 51.6311L16.75 51.631V53.131L48.839 53.1311V51.6311ZM16 52.381V167.863H17.5V52.381H16ZM16.75 168.613L28.078 168.614V167.114L16.75 167.113V168.613Z" fill="#010101"/>
<path d="M54.127 269.45C58.8521 269.45 62.6825 265.62 62.6825 260.895C62.6825 256.17 58.8521 252.339 54.127 252.339C49.4019 252.339 45.5715 256.17 45.5715 260.895C45.5715 265.62 49.4019 269.45 54.127 269.45Z" fill="#FF6848"/>
<path d="M60.5443 259H47.711V263.278H60.5443V259Z" fill="white"/>
<path d="M41.55 27.168C43.454 27.168 45.176 26.146 45.176 24.298C45.176 22.73 44.042 22.156 42.32 21.764L40.948 21.456C39.506 21.148 38.82 20.77 38.82 19.748C38.82 18.74 39.758 17.872 41.312 17.872C42.796 17.872 43.79 18.628 44 20.07L44.854 19.93C44.616 18.166 43.286 17.2 41.34 17.2C39.366 17.2 37.966 18.32 37.966 19.79C37.966 21.26 39.058 21.876 40.752 22.254L42.11 22.548C43.664 22.898 44.322 23.318 44.322 24.41C44.322 25.698 43.118 26.496 41.55 26.496C39.87 26.496 38.638 25.698 38.414 23.808L37.56 23.962C37.84 26.146 39.436 27.168 41.55 27.168Z" fill="black"/>
<path d="M52.7884 23.346C52.7884 21.274 51.5004 19.916 49.7924 19.916C48.0844 19.916 46.5864 21.232 46.5864 23.528C46.5864 25.908 47.9864 27.168 49.7504 27.168C51.4304 27.168 52.4524 26.16 52.7604 24.942L51.9484 24.816C51.6404 25.894 50.8984 26.496 49.7924 26.496C48.4904 26.496 47.4404 25.53 47.4124 23.612H52.7884V23.346ZM47.4264 22.94C47.5664 21.554 48.5184 20.56 49.7924 20.56C51.0664 20.56 51.8644 21.666 51.9344 22.94H47.4264Z" fill="black"/>
<path d="M54.5106 27H55.2806V22.912C55.2806 21.666 56.1206 20.602 57.3106 20.602C58.3326 20.602 58.7946 21.204 58.9346 21.974C58.9906 22.24 58.9906 22.576 58.9906 22.926V27H59.7606V22.828C59.7606 21.582 60.5586 20.602 61.8046 20.602C62.8126 20.602 63.2746 21.204 63.4146 21.974C63.4706 22.24 63.4706 22.576 63.4706 22.926V27H64.2406V22.436C64.2406 20.938 63.4426 19.916 61.9306 19.916C60.5446 19.916 59.8306 20.854 59.6066 21.372C59.3266 20.588 58.6686 19.916 57.5066 19.916C56.4566 19.916 55.6306 20.546 55.2946 21.26H55.2806V20.084H54.5106V27Z" fill="black"/>
<path d="M68.3691 27.168C69.5031 27.168 70.2731 26.622 70.6091 25.964H70.6231C70.6231 26.286 70.6511 26.678 70.6651 27H71.4351C71.4071 26.468 71.3931 26.076 71.3931 25.544V22.184C71.3931 20.728 70.4131 19.916 68.9151 19.916C67.3891 19.916 66.2551 20.756 66.1991 22.198L67.0391 22.282C67.1091 21.162 67.8511 20.56 68.9151 20.56C69.9931 20.56 70.5811 21.134 70.5811 22.002C70.5811 22.618 70.3011 22.744 69.6291 22.87L68.3271 23.122C66.8571 23.388 66.0451 24.018 66.0451 25.166C66.0451 26.412 67.1511 27.168 68.3691 27.168ZM68.5231 26.524C67.5711 26.524 66.8711 25.95 66.8711 25.18C66.8711 24.704 67.0531 24.368 67.5011 24.088C68.0191 23.78 68.8171 23.64 70.6231 23.318V24.354C70.6231 25.698 69.7411 26.524 68.5231 26.524Z" fill="black"/>
<path d="M76.7225 19.916C75.3785 19.916 74.5525 20.742 74.2025 21.512V20.084H73.4325V29.59H74.2025V25.572C74.5525 26.342 75.3785 27.168 76.7225 27.168C78.5705 27.168 79.8165 25.656 79.8165 23.542C79.8165 21.428 78.5705 19.916 76.7225 19.916ZM76.5965 26.496C75.1125 26.496 74.1605 25.236 74.1605 23.542C74.1605 21.848 75.1125 20.588 76.5965 20.588C78.1505 20.588 79.0045 21.904 79.0045 23.542C79.0045 25.18 78.1505 26.496 76.5965 26.496Z" fill="black"/>
<path d="M81.5399 27H82.3099V22.884C82.3099 21.736 83.1079 20.602 84.5219 20.602C85.5439 20.602 86.0759 21.176 86.2299 21.988C86.2859 22.254 86.2999 22.604 86.2999 22.94V27H87.0699V22.422C87.0699 20.84 86.1879 19.916 84.6759 19.916C83.4859 19.916 82.7439 20.49 82.3239 21.26H82.3099V17.368H81.5399V27Z" fill="black"/>
<path d="M91.9991 27.168C94.1271 27.168 95.2751 25.432 95.2751 23.542C95.2751 21.652 94.1271 19.916 91.9991 19.916C89.8571 19.916 88.7231 21.652 88.7231 23.542C88.7231 25.432 89.8571 27.168 91.9991 27.168ZM91.9991 26.496C90.3611 26.496 89.5351 25.138 89.5351 23.542C89.5351 21.96 90.3611 20.588 91.9991 20.588C93.6231 20.588 94.4631 21.974 94.4631 23.542C94.4631 25.124 93.6231 26.51 91.9991 26.496Z" fill="black"/>
<path d="M97.0028 27H97.7728V23.234C97.7728 21.638 98.6408 20.742 99.8588 20.742C100.041 20.742 100.195 20.756 100.307 20.77V20.014C100.223 20 100.055 19.986 99.9288 19.986C98.7808 19.986 98.0528 20.658 97.7728 21.414H97.7588V20.084H97.0028V27Z" fill="black"/>
<path d="M107.462 23.346C107.462 21.274 106.174 19.916 104.466 19.916C102.758 19.916 101.26 21.232 101.26 23.528C101.26 25.908 102.66 27.168 104.424 27.168C106.104 27.168 107.126 26.16 107.434 24.942L106.622 24.816C106.314 25.894 105.572 26.496 104.466 26.496C103.164 26.496 102.114 25.53 102.086 23.612H107.462V23.346ZM102.1 22.94C102.24 21.554 103.192 20.56 104.466 20.56C105.74 20.56 106.538 21.666 106.608 22.94H102.1Z" fill="black"/>
<path d="M112.069 18.81H112.839V17.368H112.069V18.81ZM112.069 27H112.839V20.084H112.069V27Z" fill="black"/>
<path d="M114.913 27H115.683V22.884C115.683 21.736 116.481 20.602 117.895 20.602C118.931 20.602 119.449 21.176 119.603 21.988C119.659 22.254 119.673 22.604 119.673 22.94V27H120.443V22.422C120.443 20.84 119.561 19.916 118.049 19.916C116.859 19.916 116.089 20.532 115.697 21.26H115.683V20.084H114.913V27Z" fill="black"/>
<path d="M125.064 27.168C126.464 27.168 127.808 26.384 127.808 25.04C127.808 23.864 126.968 23.416 125.764 23.15L124.616 22.898C123.734 22.716 123.16 22.478 123.16 21.792C123.16 21.092 123.916 20.56 124.896 20.56C125.862 20.56 126.576 21.078 126.73 22.058L127.528 21.904C127.36 20.602 126.324 19.916 124.91 19.916C123.524 19.916 122.348 20.714 122.348 21.848C122.348 22.856 123.076 23.318 124.182 23.556L125.33 23.808C126.436 24.046 127.01 24.34 126.996 25.138C126.982 25.978 126.142 26.524 125.092 26.524C123.972 26.524 123.118 25.978 122.936 24.662L122.124 24.802C122.334 26.426 123.524 27.168 125.064 27.168Z" fill="black"/>
<path d="M131.46 27.056C131.81 27.056 132.034 27.028 132.3 26.986V26.328C132.076 26.37 131.922 26.384 131.656 26.384C131.054 26.384 130.788 26.16 130.788 25.516V20.756H132.23V20.084H130.788V17.76H130.018V20.084H128.744V20.756H130.018V25.558C130.018 25.81 130.032 26.02 130.102 26.23C130.27 26.79 130.774 27.056 131.46 27.056Z" fill="black"/>
<path d="M135.894 27.168C137.028 27.168 137.798 26.622 138.134 25.964H138.148C138.148 26.286 138.176 26.678 138.19 27H138.96C138.932 26.468 138.918 26.076 138.918 25.544V22.184C138.918 20.728 137.938 19.916 136.44 19.916C134.914 19.916 133.78 20.756 133.724 22.198L134.564 22.282C134.634 21.162 135.376 20.56 136.44 20.56C137.518 20.56 138.106 21.134 138.106 22.002C138.106 22.618 137.826 22.744 137.154 22.87L135.852 23.122C134.382 23.388 133.57 24.018 133.57 25.166C133.57 26.412 134.676 27.168 135.894 27.168ZM136.048 26.524C135.096 26.524 134.396 25.95 134.396 25.18C134.396 24.704 134.578 24.368 135.026 24.088C135.544 23.78 136.342 23.64 138.148 23.318V24.354C138.148 25.698 137.266 26.524 136.048 26.524Z" fill="black"/>
<path d="M140.958 27H141.728V22.884C141.728 21.736 142.526 20.602 143.94 20.602C144.976 20.602 145.494 21.176 145.648 21.988C145.704 22.254 145.718 22.604 145.718 22.94V27H146.488V22.422C146.488 20.84 145.606 19.916 144.094 19.916C142.904 19.916 142.134 20.532 141.742 21.26H141.728V20.084H140.958V27Z" fill="black"/>
<path d="M151.431 27.168C153.139 27.168 154.077 26.146 154.469 24.914L153.657 24.676C153.377 25.796 152.635 26.496 151.431 26.496C150.017 26.496 148.953 25.404 148.953 23.528C148.953 21.652 150.017 20.588 151.417 20.588C152.649 20.588 153.349 21.372 153.601 22.394L154.413 22.17C154.035 20.896 153.055 19.916 151.431 19.916C149.471 19.916 148.141 21.358 148.141 23.528C148.141 25.698 149.471 27.168 151.431 27.168Z" fill="black"/>
<path d="M162.04 23.346C162.04 21.274 160.752 19.916 159.044 19.916C157.336 19.916 155.838 21.232 155.838 23.528C155.838 25.908 157.238 27.168 159.002 27.168C160.682 27.168 161.704 26.16 162.012 24.942L161.2 24.816C160.892 25.894 160.15 26.496 159.044 26.496C157.742 26.496 156.692 25.53 156.664 23.612H162.04V23.346ZM156.678 22.94C156.818 21.554 157.77 20.56 159.044 20.56C160.318 20.56 161.116 21.666 161.186 22.94H156.678Z" fill="black"/>
<path d="M74.164 265.144C76.42 265.144 77.692 263.908 77.692 261.808V256.744H75.772V261.628C75.772 262.84 75.34 263.584 74.164 263.584C72.976 263.584 72.544 262.84 72.544 261.628V256.744H70.624V261.808C70.624 263.908 71.896 265.144 74.164 265.144Z" fill="#FF6848"/>
<path d="M78.7911 265H80.6511V261.808C80.6511 260.944 81.0351 260.38 81.7431 260.38C82.1151 260.38 82.3191 260.524 82.4511 260.728C82.5951 260.968 82.6191 261.34 82.6191 261.784V265H84.4791V261.28C84.4791 259.636 83.5671 258.928 82.3311 258.928C81.4071 258.928 80.8191 259.396 80.5671 259.804H80.5551V259.072H78.7911V265Z" fill="#FF6848"/>
<path d="M85.5997 258.424H87.4597V256.744H85.5997V258.424ZM85.5997 265H87.4597V259.072H85.5997V265Z" fill="#FF6848"/>
<path d="M92.8349 259.072V259.792C92.4989 259.336 91.9349 258.928 91.0229 258.928C89.4629 258.928 88.3829 260.176 88.3829 262.036C88.3829 263.896 89.4629 265.144 91.0229 265.144C91.9109 265.144 92.4509 264.748 92.7509 264.376V267.232H94.5869V259.072H92.8349ZM91.5269 263.788C90.7109 263.788 90.2669 263.08 90.2669 262.036C90.2669 260.992 90.7109 260.284 91.5269 260.284C92.3309 260.284 92.8349 260.956 92.8349 262.036C92.8349 263.116 92.3309 263.788 91.5269 263.788Z" fill="#FF6848"/>
<path d="M97.8839 265.144C98.6279 265.144 99.2639 264.7 99.5279 264.28H99.5399V265H101.292V259.072H99.4439V262.36C99.4439 263.2 99.0599 263.692 98.4239 263.692C98.0399 263.692 97.8359 263.536 97.7159 263.344C97.5839 263.116 97.5599 262.78 97.5599 262.384V259.072H95.6999V262.792C95.6999 264.352 96.5519 265.144 97.8839 265.144Z" fill="#FF6848"/>
<path d="M108.055 262.048C108.055 260.248 106.975 258.928 105.187 258.928C103.423 258.928 102.211 260.152 102.211 262.048C102.211 263.956 103.363 265.144 105.127 265.144C106.747 265.144 107.731 264.256 108.031 263.2L106.327 263.008C106.183 263.524 105.823 263.836 105.187 263.836C104.479 263.836 103.987 263.296 103.951 262.408H108.055V262.048ZM103.975 261.304C104.071 260.68 104.491 260.2 105.163 260.2C105.823 260.2 106.231 260.692 106.303 261.304H103.975Z" fill="#FF6848"/>
<path d="M108.979 265H110.839V261.808C110.839 260.944 111.223 260.38 111.931 260.38C112.303 260.38 112.507 260.524 112.639 260.728C112.783 260.968 112.807 261.34 112.807 261.784V265H114.667V261.28C114.667 259.636 113.755 258.928 112.519 258.928C111.595 258.928 111.007 259.396 110.755 259.804H110.743V259.072H108.979V265Z" fill="#FF6848"/>
<path d="M121.379 262.048C121.379 260.248 120.299 258.928 118.511 258.928C116.747 258.928 115.535 260.152 115.535 262.048C115.535 263.956 116.687 265.144 118.451 265.144C120.071 265.144 121.055 264.256 121.355 263.2L119.651 263.008C119.507 263.524 119.147 263.836 118.511 263.836C117.803 263.836 117.311 263.296 117.275 262.408H121.379V262.048ZM117.299 261.304C117.395 260.68 117.815 260.2 118.487 260.2C119.147 260.2 119.555 260.692 119.627 261.304H117.299Z" fill="#FF6848"/>
<path d="M124.823 265.144C126.323 265.144 127.583 264.4 127.583 263.164C127.583 262.192 126.923 261.736 125.735 261.472L124.847 261.268C124.247 261.136 123.911 261.016 123.911 260.68C123.911 260.332 124.259 260.116 124.727 260.116C125.303 260.116 125.651 260.416 125.699 260.932L127.379 260.788C127.295 259.54 126.203 258.928 124.763 258.928C123.299 258.928 122.171 259.684 122.171 260.764C122.171 261.868 123.059 262.264 124.007 262.48L124.883 262.684C125.531 262.828 125.831 262.936 125.831 263.296C125.831 263.704 125.483 263.956 124.895 263.956C124.235 263.956 123.791 263.62 123.695 262.96L122.015 263.116C122.183 264.448 123.275 265.144 124.823 265.144Z" fill="#FF6848"/>
<path d="M130.975 265.144C132.475 265.144 133.735 264.4 133.735 263.164C133.735 262.192 133.075 261.736 131.887 261.472L130.999 261.268C130.399 261.136 130.063 261.016 130.063 260.68C130.063 260.332 130.411 260.116 130.879 260.116C131.455 260.116 131.803 260.416 131.851 260.932L133.531 260.788C133.447 259.54 132.355 258.928 130.915 258.928C129.451 258.928 128.323 259.684 128.323 260.764C128.323 261.868 129.211 262.264 130.159 262.48L131.035 262.684C131.683 262.828 131.983 262.936 131.983 263.296C131.983 263.704 131.635 263.956 131.047 263.956C130.387 263.956 129.943 263.62 129.847 262.96L128.167 263.116C128.335 264.448 129.427 265.144 130.975 265.144Z" fill="#FF6848"/>
<path d="M137.774 265H139.634V260.416H140.87V259.072H139.634V258.628C139.634 258.196 139.91 258.028 140.342 258.028C140.522 258.028 140.63 258.04 140.786 258.064V256.66C140.522 256.624 140.198 256.6 139.826 256.6C138.362 256.6 137.774 257.344 137.774 258.52V259.072H136.73V260.416H137.774V265Z" fill="#FF6848"/>
<path d="M143.56 265.144C144.34 265.144 144.928 264.856 145.24 264.46H145.252C145.252 264.568 145.264 264.832 145.276 265H146.992C146.956 264.712 146.944 264.484 146.944 264.04V261.136C146.944 259.624 145.996 258.928 144.364 258.928C142.732 258.928 141.64 259.756 141.616 261.052L143.332 261.184C143.356 260.536 143.74 260.164 144.34 260.164C144.88 260.164 145.168 260.404 145.168 260.776C145.168 261.172 144.94 261.316 144.484 261.388L143.524 261.568C142.192 261.808 141.472 262.348 141.472 263.392C141.472 264.532 142.444 265.144 143.56 265.144ZM144.088 263.968C143.632 263.968 143.248 263.752 143.248 263.332C143.248 263.044 143.44 262.84 143.716 262.72C143.98 262.6 144.364 262.504 145.204 262.36V262.948C145.204 263.584 144.7 263.968 144.088 263.968Z" fill="#FF6848"/>
<path d="M148.108 258.424H149.968V256.744H148.108V258.424ZM148.108 265H149.968V259.072H148.108V265Z" fill="#FF6848"/>
<path d="M151.143 265H153.003V256.744H151.143V265Z" fill="#FF6848"/>
<path d="M159.77 262.048C159.77 260.248 158.69 258.928 156.902 258.928C155.138 258.928 153.926 260.152 153.926 262.048C153.926 263.956 155.078 265.144 156.842 265.144C158.462 265.144 159.446 264.256 159.746 263.2L158.042 263.008C157.898 263.524 157.538 263.836 156.902 263.836C156.194 263.836 155.702 263.296 155.666 262.408H159.77V262.048ZM155.69 261.304C155.786 260.68 156.206 260.2 156.878 260.2C157.538 260.2 157.946 260.692 158.018 261.304H155.69Z" fill="#FF6848"/>
<path d="M164.809 256.744V259.696C164.509 259.324 163.969 258.928 163.081 258.928C161.521 258.928 160.441 260.176 160.441 262.036C160.441 263.896 161.521 265.144 163.081 265.144C163.993 265.144 164.557 264.736 164.893 264.28V265H166.645V256.744H164.809ZM163.585 263.788C162.769 263.788 162.325 263.08 162.325 262.036C162.325 260.992 162.769 260.284 163.585 260.284C164.389 260.284 164.893 260.956 164.893 262.036C164.893 263.116 164.389 263.788 163.585 263.788Z" fill="#FF6848"/>
</svg>
