<svg xmlns="http://www.w3.org/2000/svg" fill="none" viewBox="0 0 812 256">
  <rect width="191" height="255" y=".158" fill="#EDECFC" fill-opacity=".4" rx="12"/>
  <g filter="url(#a)">
    <path fill="#4940E0" fill-rule="evenodd" d="M115.5 100.658c0 11.046-8.954 20-20 20s-20-8.954-20-20 8.954-20 20-20 20 8.954 20 20Zm-9.992-3.332c0 5.523-4.477 10-10 10s-10-4.477-10-10 4.477-10 10-10 10 4.477 10 10Zm-9.456 1.667a3.333 3.333 0 1 0 0-6.667 3.333 3.333 0 0 0 0 6.667Z" clip-rule="evenodd"/>
  </g>
  <path fill="#191C20" d="M19.6 171.69c0 2.56 1.664 4.24 4.576 4.24s4.576-1.68 4.576-4.24v-7.392h-2.064v7.28c0 1.6-.912 2.608-2.512 2.608s-2.512-1.008-2.512-2.608v-7.28H19.6v7.392Zm14.6 4.16c2.096 0 3.28-1.024 3.28-2.528 0-1.264-.656-2.032-2.208-2.304l-1.568-.288c-.704-.128-1.056-.368-1.056-.912 0-.624.496-.96 1.392-.96 1.056 0 1.76.448 2.144 1.168l1.344-.72c-.384-1.152-1.68-1.84-3.376-1.84-2.032 0-3.264 1.024-3.264 2.464 0 1.28.784 2.064 2.288 2.336l1.424.256c.784.128 1.136.352 1.136.928 0 .576-.512.992-1.488.992-1.136 0-1.936-.512-2.304-1.408l-1.424.64c.496 1.408 1.856 2.176 3.68 2.176Zm12.028-4.592c0-2.448-1.328-3.792-3.648-3.792-2.384 0-3.824 1.632-3.824 4.272 0 2.624 1.472 4.112 3.92 4.112 1.632 0 2.896-.768 3.488-2.16l-1.472-.672c-.368.864-1.04 1.328-1.952 1.328-1.264 0-2.112-.864-2.128-2.208h5.616v-.88Zm-5.616-.384c.032-1.328.72-2.128 1.936-2.128 1.136 0 1.792.688 1.792 2v.128h-3.728Zm9.374-3.216h-1.792v8h1.92v-3.344c0-.896.08-1.808.72-2.432.368-.352.896-.56 1.664-.56h.256v-1.84c-.08-.016-.144-.016-.224-.016-1.296 0-2.144.864-2.544 2.128v-1.936Zm12.203 8 2.848-8h-2.016l-1.568 5.072a9.73 9.73 0 0 0-.288 1.184h-.048a9.73 9.73 0 0 0-.288-1.184l-1.552-5.072h-2.016l2.848 8h2.08Zm10.899-4.4c0-2.448-1.328-3.792-3.648-3.792-2.384 0-3.824 1.632-3.824 4.272 0 2.624 1.472 4.112 3.92 4.112 1.632 0 2.896-.768 3.488-2.16l-1.472-.672c-.368.864-1.04 1.328-1.952 1.328-1.264 0-2.112-.864-2.128-2.208h5.616v-.88Zm-5.616-.384c.032-1.328.72-2.128 1.936-2.128 1.136 0 1.792.688 1.792 2v.128h-3.728Zm9.373-3.216h-1.792v8h1.92v-3.344c0-.896.08-1.808.72-2.432.368-.352.896-.56 1.664-.56h.256v-1.84c-.08-.016-.144-.016-.224-.016-1.296 0-2.144.864-2.544 2.128v-1.936Zm6.35-1.328v-2h-2.08v2h2.08Zm-.08 9.328v-8h-1.92v8h1.92Zm4.868-8v-.896c0-.848.352-1.264 1.12-1.264.24 0 .528.032.816.08v-1.488a5.145 5.145 0 0 0-1.136-.128c-1.712 0-2.72 1.008-2.72 2.672v1.024h-1.376v1.392h1.376v6.608h1.92v-6.608h1.936v-1.392h-1.936Zm5.568-1.328v-2h-2.08v2h2.08Zm-.08 9.328v-8h-1.92v8h1.92Zm9.351-4.4c0-2.448-1.328-3.792-3.648-3.792-2.384 0-3.824 1.632-3.824 4.272 0 2.624 1.472 4.112 3.92 4.112 1.632 0 2.896-.768 3.488-2.16l-1.472-.672c-.368.864-1.04 1.328-1.952 1.328-1.264 0-2.112-.864-2.128-2.208h5.616v-.88Zm-5.616-.384c.032-1.328.72-2.128 1.936-2.128 1.136 0 1.792.688 1.792 2v.128h-3.728Zm10.479 4.976c2.096 0 3.28-1.024 3.28-2.528 0-1.264-.656-2.032-2.208-2.304l-1.568-.288c-.704-.128-1.056-.368-1.056-.912 0-.624.496-.96 1.392-.96 1.056 0 1.76.448 2.144 1.168l1.344-.72c-.384-1.152-1.68-1.84-3.376-1.84-2.032 0-3.264 1.024-3.264 2.464 0 1.28.784 2.064 2.288 2.336l1.424.256c.784.128 1.136.352 1.136.928 0 .576-.512.992-1.488.992-1.136 0-1.936-.512-2.304-1.408l-1.424.64c.496 1.408 1.856 2.176 3.68 2.176Zm11.243-9.52v-2h-2.08v2h2.08Zm-.08 9.328v-8h-1.92v8h1.92Zm5.125.192c1.2 0 2.112-.608 2.56-1.632v1.44h1.808v-11.6h-1.92v4.736c-.464-.896-1.248-1.328-2.304-1.328-2 0-3.376 1.712-3.376 4.208 0 2.496 1.296 4.176 3.232 4.176Zm.656-1.472c-1.168 0-1.888-1.024-1.888-2.736 0-1.712.704-2.704 1.872-2.704 1.152 0 1.856.912 1.856 2.48v.512c0 1.504-.72 2.448-1.84 2.448Zm13.068-3.12c0-2.448-1.328-3.792-3.648-3.792-2.384 0-3.824 1.632-3.824 4.272 0 2.624 1.472 4.112 3.92 4.112 1.632 0 2.896-.768 3.488-2.16l-1.472-.672c-.368.864-1.04 1.328-1.952 1.328-1.264 0-2.112-.864-2.128-2.208h5.616v-.88Zm-5.616-.384c.032-1.328.72-2.128 1.936-2.128 1.136 0 1.792.688 1.792 2v.128h-3.728Zm9.502 4.784v-4.24c0-1.52.672-2.416 1.792-2.416 1.008 0 1.488.624 1.488 1.888v4.768h1.936v-4.96c0-2.144-.912-3.232-2.656-3.232-1.232 0-2.112.576-2.656 1.744v-1.552h-1.824v8h1.92Zm7.744-6.608v4.128c0 1.616.64 2.624 2.56 2.624.496 0 .848-.048 1.312-.144v-1.616c-.256.048-.464.096-.784.096-.8 0-1.168-.416-1.168-1.264v-3.824h1.952v-1.392h-1.952v-2.784l-1.92.768v2.016h-1.44v1.392h1.44Zm7.633-2.72v-2h-2.08v2h2.08Zm-.08 9.328v-8h-1.92v8h1.92Zm2.884-6.608v4.128c0 1.616.64 2.624 2.56 2.624.496 0 .848-.048 1.312-.144v-1.616c-.256.048-.464.096-.784.096-.8 0-1.168-.416-1.168-1.264v-3.824h1.952v-1.392h-1.952v-2.784l-1.92.768v2.016h-1.44v1.392h1.44Zm6.234 9.808c1.712 0 2.8-.72 3.52-2.752l2.992-8.448h-1.984l-1.6 5.232c-.112.416-.192.704-.24.944h-.032a4.383 4.383 0 0 0-.224-.944l-1.744-5.232h-2.112l3.12 7.92-.16.48c-.304.88-.8 1.264-1.744 1.264-.192 0-.384 0-.672-.064v1.52c.336.048.64.08.88.08ZM37.39 194.85c1.28 0 2.288-.592 2.672-1.568.016.496.064.976.128 1.376h1.92c-.16-.56-.24-1.392-.24-2.48v-2.384c0-2.32-1.056-3.328-3.424-3.328-2.064 0-3.408 1.056-3.536 2.768h1.968c.064-.912.624-1.408 1.568-1.408 1.024 0 1.488.512 1.488 1.712v.208l-1.696.208c-1.264.176-2.032.384-2.608.72-.64.4-.976 1.04-.976 1.808 0 1.424 1.088 2.368 2.736 2.368Zm.608-1.36c-.848 0-1.36-.432-1.36-1.104 0-.688.48-1.072 1.536-1.248l1.808-.272v.512c0 1.264-.8 2.112-1.984 2.112Zm6.493-5.44v4.128c0 1.616.64 2.624 2.56 2.624.496 0 .848-.048 1.312-.144v-1.616c-.256.048-.464.096-.784.096-.8 0-1.168-.416-1.168-1.264v-3.824h1.952v-1.392h-1.952v-2.784l-1.92.768v2.016h-1.44v1.392h1.44Zm15.775-1.712c.048-.24.08-.432.096-.672h.064c.016.24.048.432.096.672l1.904 8.32h2.4l2.704-11.36h-2.096l-1.728 8.32c-.064.336-.08.544-.096.768h-.048a4.466 4.466 0 0 0-.128-.768l-2-8.32h-2.08l-2 8.32c-.08.336-.112.544-.128.768h-.048a5.849 5.849 0 0 0-.096-.768l-1.728-8.32h-2.096l2.704 11.36h2.4l1.904-8.32Zm11.59 8.512c2.304 0 3.92-1.52 3.92-4.208 0-2.672-1.616-4.176-3.92-4.176s-3.92 1.504-3.92 4.176c0 2.688 1.616 4.208 3.92 4.208Zm0-1.456c-1.232 0-1.968-.928-1.968-2.752 0-1.824.736-2.72 1.968-2.72s1.952.896 1.952 2.72c0 1.824-.72 2.752-1.952 2.752Zm7.607-6.736H77.67v8h1.92v-3.344c0-.896.08-1.808.72-2.432.368-.352.896-.56 1.664-.56h.256v-1.84c-.08-.016-.144-.016-.224-.016-1.296 0-2.144.864-2.544 2.128v-1.936Zm4.348-3.6v11.6h1.92v-11.6h-1.92Zm7.045 11.792c1.2 0 2.112-.608 2.56-1.632v1.44h1.808v-11.6h-1.92v4.736c-.464-.896-1.248-1.328-2.304-1.328-2 0-3.376 1.712-3.376 4.208 0 2.496 1.296 4.176 3.232 4.176Zm.656-1.472c-1.168 0-1.888-1.024-1.888-2.736 0-1.712.704-2.704 1.872-2.704 1.152 0 1.856.912 1.856 2.48v.512c0 1.504-.72 2.448-1.84 2.448Zm9.516 1.472c1.904 0 3.248-1.088 3.536-2.864l-1.808-.368c-.176 1.12-.768 1.712-1.728 1.712-1.232 0-1.952-.992-1.952-2.72 0-1.648.736-2.64 1.92-2.64.944 0 1.568.592 1.696 1.68l1.872-.304c-.24-1.824-1.536-2.88-3.52-2.88-2.432 0-3.936 1.584-3.936 4.192 0 2.544 1.536 4.192 3.92 4.192Zm8.641 0c2.304 0 3.92-1.52 3.92-4.208 0-2.672-1.616-4.176-3.92-4.176s-3.92 1.504-3.92 4.176c0 2.688 1.616 4.208 3.92 4.208Zm0-1.456c-1.232 0-1.968-.928-1.968-2.752 0-1.824.736-2.72 1.968-2.72s1.952.896 1.952 2.72c0 1.824-.72 2.752-1.952 2.752Zm7.814-8.064v-2h-2.08v2h2.08Zm-.08 9.328v-8h-1.92v8h1.92Zm4.469 0v-4.24c0-1.52.672-2.416 1.792-2.416 1.008 0 1.488.624 1.488 1.888v4.768h1.936v-4.96c0-2.144-.912-3.232-2.656-3.232-1.232 0-2.112.576-2.656 1.744v-1.552h-1.824v8h1.92Zm14.875.192c2.304 0 3.92-1.52 3.92-4.208 0-2.672-1.616-4.176-3.92-4.176s-3.92 1.504-3.92 4.176c0 2.688 1.616 4.208 3.92 4.208Zm0-1.456c-1.232 0-1.968-.928-1.968-2.752 0-1.824.736-2.72 1.968-2.72s1.952.896 1.952 2.72c0 1.824-.72 2.752-1.952 2.752Zm7.606-6.736h-1.792v8h1.92v-3.344c0-.896.08-1.808.72-2.432.368-.352.896-.56 1.664-.56h.256v-1.84c-.08-.016-.144-.016-.224-.016-1.296 0-2.144.864-2.544 2.128v-1.936Zm8.653 8.192c2 0 3.296-1.68 3.296-4.192 0-2.48-1.264-4.192-3.216-4.192-1.184 0-2.048.608-2.464 1.44v-4.848h-1.92v11.6h1.616l.192-1.296c.416.896 1.312 1.488 2.496 1.488Zm-.608-1.472c-1.152 0-1.824-.944-1.824-2.432v-.544c0-1.52.688-2.464 1.824-2.464 1.232 0 1.904 1.056 1.904 2.72 0 1.696-.704 2.72-1.904 2.72Z"/>
  <path fill="#000" d="M25.348 28.158v-8.34h-.912c-.204.876-.888 1.356-1.692 1.356h-.264v.972h.432c.456 0 1.104-.18 1.356-.528v6.54h1.08Zm2.285-1.416v1.416h1.404v-1.416h-1.404Z"/>
  <rect width="191" height="255" x="207" y=".158" fill="#EDECFC" fill-opacity=".4" rx="12"/>
  <g filter="url(#b)">
    <path fill="#4940E0" d="M284.722 93.992h8.889a2.22 2.22 0 0 0 2.222-2.223V82.88a2.221 2.221 0 0 0-2.222-2.222h-8.889a2.222 2.222 0 0 0-2.222 2.222v8.89a2.221 2.221 0 0 0 2.222 2.222Zm2.222-8.89h4.445v4.445h-4.445v-4.444Zm-3.333 17.778h2.222a1.112 1.112 0 0 0 1.111-1.111v-2.222a1.112 1.112 0 0 0-1.111-1.111h-2.222a1.112 1.112 0 0 0-1.111 1.111v2.222a1.112 1.112 0 0 0 1.111 1.111Zm10 4.445h-8.889a2.222 2.222 0 0 0-2.222 2.222v8.889a2.22 2.22 0 0 0 2.222 2.222h8.889a2.22 2.22 0 0 0 2.222-2.222v-8.889a2.22 2.22 0 0 0-2.222-2.222Zm-2.222 8.889h-4.445v-4.445h4.445v4.445Zm23.333 4.444h6.667a1.114 1.114 0 0 0 1.111-1.111v-6.667a1.111 1.111 0 0 0-1.111-1.111h-2.222a1.109 1.109 0 0 0-1.111 1.111v3.334h-4.445v3.333a1.11 1.11 0 0 0 1.111 1.111Zm5.556-40h-8.889a2.22 2.22 0 0 0-2.222 2.222v8.89a2.221 2.221 0 0 0 2.222 2.222h8.889a2.223 2.223 0 0 0 2.222-2.223V82.88a2.221 2.221 0 0 0-2.222-2.222Zm-2.222 8.89h-4.445v-4.445h4.445v4.444ZM292.5 98.435a1.112 1.112 0 0 0-1.111 1.111v2.222a1.112 1.112 0 0 0 1.111 1.111h7.778v-4.444H292.5Zm7.778 7.778a1.111 1.111 0 0 0 1.111 1.111h3.333v3.333a1.109 1.109 0 0 0 1.111 1.111h3.334v-8.889h-8.889v3.334Zm0 11.111v2.222a1.114 1.114 0 0 0 1.111 1.111h6.667a1.111 1.111 0 0 0 1.111-1.111v-3.333h-7.778a1.114 1.114 0 0 0-1.111 1.111Zm21.111-18.889h-11.111a1.11 1.11 0 0 0-1.111 1.111v3.333h4.444v3.334c0 .294.117.577.326.785.208.209.491.326.785.326h2.222a1.112 1.112 0 0 0 1.112-1.111v-3.334h3.333a1.114 1.114 0 0 0 1.111-1.111v-2.222a1.112 1.112 0 0 0-1.111-1.111Zm-7.778 17.778v-4.445h-4.444v4.445h4.444Zm-12.222-26.667h2.222a1.113 1.113 0 0 0 1.111-1.111v-6.667a1.112 1.112 0 0 0-1.111-1.11h-2.222a1.113 1.113 0 0 0-1.111 1.11v6.667a1.112 1.112 0 0 0 1.111 1.111Zm3.333 7.778v-2.222a1.112 1.112 0 0 0-1.111-1.111h-2.222a1.112 1.112 0 0 0-1.111 1.11v3.334h3.333a1.112 1.112 0 0 0 1.111-1.111Z"/>
  </g>
  <path fill="#191C20" d="M240.892 164.298v11.36h2.064v-4.4h2.416c2.448 0 3.984-1.36 3.984-3.504 0-2.096-1.552-3.456-3.968-3.456h-4.496Zm2.064 5.392v-3.808h2.048c1.344 0 2.176.736 2.176 1.904 0 1.184-.832 1.904-2.176 1.904h-2.048Zm9.85-2.032h-1.792v8h1.92v-3.344c0-.896.08-1.808.72-2.432.368-.352.896-.56 1.664-.56h.256v-1.84c-.08-.016-.144-.016-.224-.016-1.296 0-2.144.864-2.544 2.128v-1.936Zm7.519 8.192c2.304 0 3.92-1.52 3.92-4.208 0-2.672-1.616-4.176-3.92-4.176s-3.92 1.504-3.92 4.176c0 2.688 1.616 4.208 3.92 4.208Zm0-1.456c-1.232 0-1.968-.928-1.968-2.752 0-1.824.736-2.72 1.968-2.72s1.952.896 1.952 2.72c0 1.824-.72 2.752-1.952 2.752Zm7.83-8.064v-2h-2.08v2h2.08Zm-2.592 12.56c1.952 0 2.512-1.152 2.512-2.736v-8.496h-1.92v8.352c0 1.056-.272 1.344-.944 1.344-.144 0-.352-.016-.736-.032v1.472c.24.064.752.096 1.088.096Zm11.861-7.632c0-2.448-1.328-3.792-3.648-3.792-2.384 0-3.824 1.632-3.824 4.272 0 2.624 1.472 4.112 3.92 4.112 1.632 0 2.896-.768 3.488-2.16l-1.472-.672c-.368.864-1.04 1.328-1.952 1.328-1.264 0-2.112-.864-2.128-2.208h5.616v-.88Zm-5.616-.384c.032-1.328.72-2.128 1.936-2.128 1.136 0 1.792.688 1.792 2v.128h-3.728Zm10.829 4.976c1.904 0 3.248-1.088 3.536-2.864l-1.808-.368c-.176 1.12-.768 1.712-1.728 1.712-1.232 0-1.952-.992-1.952-2.72 0-1.648.736-2.64 1.92-2.64.944 0 1.568.592 1.696 1.68l1.872-.304c-.24-1.824-1.536-2.88-3.52-2.88-2.432 0-3.936 1.584-3.936 4.192 0 2.544 1.536 4.192 3.92 4.192Zm5.698-6.8v4.128c0 1.616.64 2.624 2.56 2.624.496 0 .848-.048 1.312-.144v-1.616c-.256.048-.464.096-.784.096-.8 0-1.168-.416-1.168-1.264v-3.824h1.952v-1.392h-1.952v-2.784l-1.92.768v2.016h-1.44v1.392h1.44Zm11.487-1.392h-1.792v8h1.92v-3.344c0-.896.08-1.808.72-2.432.368-.352.896-.56 1.664-.56h.256v-1.84c-.08-.016-.144-.016-.224-.016-1.296 0-2.144.864-2.544 2.128v-1.936Zm11.07 3.6c0-2.448-1.327-3.792-3.647-3.792-2.384 0-3.824 1.632-3.824 4.272 0 2.624 1.472 4.112 3.92 4.112 1.632 0 2.896-.768 3.488-2.16l-1.472-.672c-.368.864-1.04 1.328-1.952 1.328-1.264 0-2.112-.864-2.128-2.208h5.615v-.88Zm-5.615-.384c.032-1.328.72-2.128 1.936-2.128 1.136 0 1.792.688 1.792 2v.128h-3.728Zm14.525 7.904v-11.12h-1.568l-.256 1.232c-.464-.96-1.248-1.424-2.384-1.424-1.984 0-3.392 1.632-3.392 4.208 0 2.528 1.312 4.176 3.232 4.176 1.152 0 2.016-.592 2.448-1.504v4.432h1.92Zm-3.728-4.4c-1.184 0-1.872-1.024-1.872-2.736 0-1.728.704-2.704 1.856-2.704 1.152 0 1.872.944 1.872 2.432v.592c0 1.504-.736 2.416-1.856 2.416Zm8.796 1.472c1.152 0 2.112-.688 2.496-1.68v1.488h1.824v-8h-1.936v4.432c0 1.344-.704 2.224-1.76 2.224-.928 0-1.408-.64-1.408-1.808v-4.848h-1.92v5.136c0 1.872.752 3.056 2.704 3.056Zm13.663-4.592c0-2.448-1.328-3.792-3.648-3.792-2.384 0-3.824 1.632-3.824 4.272 0 2.624 1.472 4.112 3.92 4.112 1.632 0 2.896-.768 3.488-2.16l-1.472-.672c-.368.864-1.04 1.328-1.952 1.328-1.264 0-2.112-.864-2.128-2.208h5.616v-.88Zm-5.616-.384c.032-1.328.72-2.128 1.936-2.128 1.136 0 1.792.688 1.792 2v.128h-3.728Zm10.479 4.976c2.096 0 3.28-1.024 3.28-2.528 0-1.264-.656-2.032-2.208-2.304l-1.568-.288c-.704-.128-1.056-.368-1.056-.912 0-.624.496-.96 1.392-.96 1.056 0 1.76.448 2.144 1.168l1.344-.72c-.384-1.152-1.68-1.84-3.376-1.84-2.032 0-3.264 1.024-3.264 2.464 0 1.28.784 2.064 2.288 2.336l1.424.256c.784.128 1.136.352 1.136.928 0 .576-.512.992-1.488.992-1.136 0-1.936-.512-2.304-1.408l-1.425.64c.497 1.408 1.857 2.176 3.681 2.176Zm5.611-6.8v4.128c0 1.616.64 2.624 2.56 2.624.496 0 .848-.048 1.312-.144v-1.616c-.256.048-.464.096-.784.096-.8 0-1.168-.416-1.168-1.264v-3.824h1.952v-1.392h-1.952v-2.784l-1.92.768v2.016h-1.44v1.392h1.44Zm8.545 6.8c2.096 0 3.28-1.024 3.28-2.528 0-1.264-.656-2.032-2.208-2.304l-1.568-.288c-.704-.128-1.056-.368-1.056-.912 0-.624.496-.96 1.392-.96 1.056 0 1.76.448 2.144 1.168l1.344-.72c-.384-1.152-1.68-1.84-3.376-1.84-2.032 0-3.264 1.024-3.264 2.464 0 1.28.784 2.064 2.288 2.336l1.424.256c.784.128 1.136.352 1.136.928 0 .576-.512.992-1.488.992-1.136 0-1.936-.512-2.304-1.408l-1.424.64c.496 1.408 1.856 2.176 3.68 2.176Zm-123.825 10.488c.048-.24.08-.432.096-.672h.064c.016.24.048.432.096.672l1.904 8.32h2.4l2.704-11.36h-2.096l-1.728 8.32c-.064.336-.08.544-.096.768h-.048a4.466 4.466 0 0 0-.128-.768l-2-8.32h-2.08l-2 8.32c-.08.336-.112.544-.128.768h-.048a5.849 5.849 0 0 0-.096-.768l-1.728-8.32h-2.096l2.704 11.36h2.4l1.904-8.32Zm11.59 8.512c2.304 0 3.92-1.52 3.92-4.208 0-2.672-1.616-4.176-3.92-4.176s-3.92 1.504-3.92 4.176c0 2.688 1.616 4.208 3.92 4.208Zm0-1.456c-1.232 0-1.968-.928-1.968-2.752 0-1.824.736-2.72 1.968-2.72s1.952.896 1.952 2.72c0 1.824-.72 2.752-1.952 2.752Zm7.607-6.736h-1.792v8h1.92v-3.344c0-.896.08-1.808.72-2.432.368-.352.896-.56 1.664-.56h.256v-1.84c-.08-.016-.144-.016-.224-.016-1.296 0-2.144.864-2.544 2.128v-1.936Zm4.348-3.6v11.6h1.92v-11.6h-1.92Zm7.045 11.792c1.2 0 2.112-.608 2.56-1.632v1.44h1.808v-11.6h-1.92v4.736c-.464-.896-1.248-1.328-2.304-1.328-2 0-3.376 1.712-3.376 4.208 0 2.496 1.296 4.176 3.232 4.176Zm.656-1.472c-1.168 0-1.888-1.024-1.888-2.736 0-1.712.704-2.704 1.872-2.704 1.152 0 1.856.912 1.856 2.48v.512c0 1.504-.72 2.448-1.84 2.448Zm12.522 1.28v-11.36h-2.064v11.36h2.064Zm6.875 0c3.376 0 5.536-2.368 5.536-5.728s-2.176-5.632-5.504-5.632h-4.096v11.36h4.064Zm-2-9.744h1.968c2.224 0 3.408 1.712 3.408 4.016 0 2.256-1.232 4.112-3.44 4.112h-1.936v-8.128Zm17.257 9.744 2.848-8h-2.016l-1.568 5.072a9.73 9.73 0 0 0-.288 1.184h-.048a9.73 9.73 0 0 0-.288-1.184l-1.552-5.072h-2.016l2.848 8h2.08Zm10.898-4.4c0-2.448-1.328-3.792-3.648-3.792-2.384 0-3.824 1.632-3.824 4.272 0 2.624 1.472 4.112 3.92 4.112 1.632 0 2.896-.768 3.488-2.16l-1.472-.672c-.368.864-1.04 1.328-1.952 1.328-1.264 0-2.112-.864-2.128-2.208h5.616v-.88Zm-5.616-.384c.032-1.328.72-2.128 1.936-2.128 1.136 0 1.792.688 1.792 2v.128h-3.728Zm9.374-3.216h-1.792v8h1.92v-3.344c0-.896.08-1.808.72-2.432.368-.352.896-.56 1.664-.56h.256v-1.84c-.08-.016-.144-.016-.224-.016-1.296 0-2.144.864-2.544 2.128v-1.936Zm6.349-1.328v-2h-2.08v2h2.08Zm-.08 9.328v-8h-1.92v8h1.92Zm4.868-8v-.896c0-.848.352-1.264 1.12-1.264.24 0 .528.032.816.08v-1.488a5.145 5.145 0 0 0-1.136-.128c-1.712 0-2.72 1.008-2.72 2.672v1.024h-1.376v1.392h1.376v6.608h1.92v-6.608h1.936v-1.392h-1.936Zm5.568-1.328v-2h-2.08v2h2.08Zm-.08 9.328v-8h-1.92v8h1.92Zm5.8.192c1.904 0 3.248-1.088 3.536-2.864l-1.808-.368c-.176 1.12-.768 1.712-1.728 1.712-1.232 0-1.952-.992-1.952-2.72 0-1.648.736-2.64 1.92-2.64.944 0 1.568.592 1.696 1.68l1.872-.304c-.24-1.824-1.536-2.88-3.52-2.88-2.432 0-3.936 1.584-3.936 4.192 0 2.544 1.536 4.192 3.92 4.192Zm7.456 0c1.28 0 2.288-.592 2.672-1.568.016.496.064.976.128 1.376h1.92c-.16-.56-.24-1.392-.24-2.48v-2.384c0-2.32-1.056-3.328-3.424-3.328-2.064 0-3.408 1.056-3.536 2.768h1.968c.064-.912.624-1.408 1.568-1.408 1.024 0 1.488.512 1.488 1.712v.208l-1.696.208c-1.264.176-2.032.384-2.608.72-.64.4-.976 1.04-.976 1.808 0 1.424 1.088 2.368 2.736 2.368Zm.608-1.36c-.848 0-1.36-.432-1.36-1.104 0-.688.48-1.072 1.536-1.248l1.808-.272v.512c0 1.264-.8 2.112-1.984 2.112Zm6.492-5.44v4.128c0 1.616.64 2.624 2.56 2.624.496 0 .848-.048 1.312-.144v-1.616c-.256.048-.464.096-.784.096-.8 0-1.168-.416-1.168-1.264v-3.824h1.952v-1.392h-1.952v-2.784l-1.92.768v2.016h-1.44v1.392h1.44Zm7.633-2.72v-2h-2.08v2h2.08Zm-.08 9.328v-8h-1.92v8h1.92Zm5.797.192c2.304 0 3.92-1.52 3.92-4.208 0-2.672-1.616-4.176-3.92-4.176s-3.92 1.504-3.92 4.176c0 2.688 1.616 4.208 3.92 4.208Zm0-1.456c-1.232 0-1.968-.928-1.968-2.752 0-1.824.736-2.72 1.968-2.72s1.952.896 1.952 2.72c0 1.824-.72 2.752-1.952 2.752Zm7.734 1.264v-4.24c0-1.52.672-2.416 1.792-2.416 1.008 0 1.488.624 1.488 1.888v4.768h1.936v-4.96c0-2.144-.912-3.232-2.656-3.232-1.232 0-2.112.576-2.656 1.744v-1.552h-1.824v8h1.92Z"/>
  <path fill="#000" d="M234.892 28.158v-.972h-4.02a17.317 17.317 0 0 0 2.052-1.644c1.284-1.188 1.872-2.208 1.872-3.384 0-1.62-.972-2.52-2.592-2.52-1.68 0-2.688.948-2.688 2.424 0 .216.024.432.084.672l1.08.108c-.06-.3-.096-.552-.096-.768 0-.912.588-1.5 1.56-1.5.96 0 1.524.576 1.524 1.596 0 .996-.36 1.692-1.416 2.712a30.659 30.659 0 0 1-2.832 2.388v.888h5.472Zm1.44-1.416v1.416h1.404v-1.416h-1.404Z"/>
  <rect width="191" height="255" x="414" y=".158" fill="#EDECFC" fill-opacity=".4" rx="12"/>
  <g filter="url(#c)">
    <path fill="#4940E0" fill-rule="evenodd" d="M519.427 80.658h-16.811a3.195 3.195 0 0 0-3.202 3.188v33.625a3.195 3.195 0 0 0 3.202 3.187h16.811a3.195 3.195 0 0 0 3.202-3.187V83.845a3.195 3.195 0 0 0-3.202-3.187ZM504 115.158a1 1 0 0 1 1-1h12a1 1 0 0 1 0 2h-12a1 1 0 0 1-1-1Zm15-15.5a7.5 7.5 0 1 1-15 0 7.5 7.5 0 0 1 15 0Z" clip-rule="evenodd"/>
    <path stroke="#4940E0" stroke-linecap="round" stroke-linejoin="round" stroke-width="1.5" d="m509.609 99.975 1.505 1.5 2.995-3"/>
  </g>
  <path fill="#191C20" d="M455.545 171.69c0 2.56 1.664 4.24 4.576 4.24s4.576-1.68 4.576-4.24v-7.392h-2.064v7.28c0 1.6-.912 2.608-2.512 2.608s-2.512-1.008-2.512-2.608v-7.28h-2.064v7.392Zm14.601 4.16c2.096 0 3.28-1.024 3.28-2.528 0-1.264-.656-2.032-2.208-2.304l-1.568-.288c-.704-.128-1.056-.368-1.056-.912 0-.624.496-.96 1.392-.96 1.056 0 1.76.448 2.144 1.168l1.344-.72c-.384-1.152-1.68-1.84-3.376-1.84-2.032 0-3.264 1.024-3.264 2.464 0 1.28.784 2.064 2.288 2.336l1.424.256c.784.128 1.136.352 1.136.928 0 .576-.512.992-1.488.992-1.136 0-1.936-.512-2.304-1.408l-1.425.64c.497 1.408 1.857 2.176 3.681 2.176Zm12.028-4.592c0-2.448-1.328-3.792-3.648-3.792-2.384 0-3.824 1.632-3.824 4.272 0 2.624 1.472 4.112 3.92 4.112 1.632 0 2.896-.768 3.488-2.16l-1.472-.672c-.368.864-1.04 1.328-1.952 1.328-1.264 0-2.112-.864-2.128-2.208h5.616v-.88Zm-5.616-.384c.032-1.328.72-2.128 1.936-2.128 1.136 0 1.792.688 1.792 2v.128h-3.728Zm9.373-3.216h-1.792v8h1.92v-3.344c0-.896.08-1.808.72-2.432.368-.352.896-.56 1.664-.56h.256v-1.84c-.08-.016-.144-.016-.224-.016-1.296 0-2.144.864-2.544 2.128v-1.936Zm10.444 8.192c1.28 0 2.288-.592 2.672-1.568.016.496.064.976.128 1.376h1.92c-.16-.56-.24-1.392-.24-2.48v-2.384c0-2.32-1.056-3.328-3.424-3.328-2.064 0-3.408 1.056-3.536 2.768h1.968c.064-.912.624-1.408 1.568-1.408 1.024 0 1.488.512 1.488 1.712v.208l-1.696.208c-1.264.176-2.032.384-2.608.72-.64.4-.976 1.04-.976 1.808 0 1.424 1.088 2.368 2.736 2.368Zm.608-1.36c-.848 0-1.36-.432-1.36-1.104 0-.688.48-1.072 1.536-1.248l1.808-.272v.512c0 1.264-.8 2.112-1.984 2.112Zm8.155 4.288v-4.272c.432.784 1.232 1.344 2.368 1.344 1.968 0 3.312-1.632 3.312-4.208 0-2.528-1.296-4.176-3.216-4.176-1.136 0-2.064.544-2.56 1.584v-1.392h-1.824v11.12h1.92Zm1.808-4.4c-1.136 0-1.856-.976-1.856-2.512v-.4c0-1.616.72-2.528 1.872-2.528 1.168 0 1.856.992 1.856 2.704 0 1.712-.72 2.736-1.872 2.736Zm7.692 4.4v-4.272c.432.784 1.232 1.344 2.368 1.344 1.968 0 3.312-1.632 3.312-4.208 0-2.528-1.296-4.176-3.216-4.176-1.136 0-2.064.544-2.56 1.584v-1.392h-1.824v11.12h1.92Zm1.808-4.4c-1.136 0-1.856-.976-1.856-2.512v-.4c0-1.616.72-2.528 1.872-2.528 1.168 0 1.856.992 1.856 2.704 0 1.712-.72 2.736-1.872 2.736Zm7.564-6.72h-1.792v8h1.92v-3.344c0-.896.08-1.808.72-2.432.368-.352.896-.56 1.664-.56h.256v-1.84c-.08-.016-.144-.016-.224-.016-1.296 0-2.144.864-2.544 2.128v-1.936Zm7.518 8.192c2.304 0 3.92-1.52 3.92-4.208 0-2.672-1.616-4.176-3.92-4.176s-3.92 1.504-3.92 4.176c0 2.688 1.616 4.208 3.92 4.208Zm0-1.456c-1.232 0-1.968-.928-1.968-2.752 0-1.824.736-2.72 1.968-2.72s1.952.896 1.952 2.72c0 1.824-.72 2.752-1.952 2.752Zm9.45 1.264 2.848-8h-2.016l-1.568 5.072a9.73 9.73 0 0 0-.288 1.184h-.048a9.73 9.73 0 0 0-.288-1.184l-1.552-5.072h-2.016l2.848 8h2.08Zm10.899-4.4c0-2.448-1.328-3.792-3.648-3.792-2.384 0-3.824 1.632-3.824 4.272 0 2.624 1.472 4.112 3.92 4.112 1.632 0 2.896-.768 3.488-2.16l-1.472-.672c-.368.864-1.04 1.328-1.952 1.328-1.264 0-2.112-.864-2.128-2.208h5.616v-.88Zm-5.616-.384c.032-1.328.72-2.128 1.936-2.128 1.136 0 1.792.688 1.792 2v.128h-3.728Zm10.478 4.976c2.096 0 3.28-1.024 3.28-2.528 0-1.264-.656-2.032-2.208-2.304l-1.568-.288c-.704-.128-1.056-.368-1.056-.912 0-.624.496-.96 1.392-.96 1.056 0 1.76.448 2.144 1.168l1.344-.72c-.384-1.152-1.68-1.84-3.376-1.84-2.032 0-3.264 1.024-3.264 2.464 0 1.28.784 2.064 2.288 2.336l1.424.256c.784.128 1.136.352 1.136.928 0 .576-.512.992-1.488.992-1.136 0-1.936-.512-2.304-1.408l-1.424.64c.496 1.408 1.856 2.176 3.68 2.176Zm-114.542 18.808 2.848-8h-2.016l-1.568 5.072a9.73 9.73 0 0 0-.288 1.184h-.048a9.73 9.73 0 0 0-.288-1.184l-1.552-5.072h-2.016l2.848 8h2.08Zm10.899-4.4c0-2.448-1.328-3.792-3.648-3.792-2.384 0-3.824 1.632-3.824 4.272 0 2.624 1.472 4.112 3.92 4.112 1.632 0 2.896-.768 3.488-2.16l-1.472-.672c-.368.864-1.04 1.328-1.952 1.328-1.264 0-2.112-.864-2.128-2.208h5.616v-.88Zm-5.616-.384c.032-1.328.72-2.128 1.936-2.128 1.136 0 1.792.688 1.792 2v.128h-3.728Zm9.373-3.216h-1.792v8h1.92v-3.344c0-.896.08-1.808.72-2.432.368-.352.896-.56 1.664-.56h.256v-1.84c-.08-.016-.144-.016-.224-.016-1.296 0-2.144.864-2.544 2.128v-1.936Zm6.349-1.328v-2h-2.08v2h2.08Zm-.08 9.328v-8h-1.92v8h1.92Zm4.869-8v-.896c0-.848.352-1.264 1.12-1.264.24 0 .528.032.816.08v-1.488a5.145 5.145 0 0 0-1.136-.128c-1.712 0-2.72 1.008-2.72 2.672v1.024h-1.376v1.392h1.376v6.608h1.92v-6.608h1.936v-1.392h-1.936Zm5.568-1.328v-2h-2.08v2h2.08Zm-.08 9.328v-8h-1.92v8h1.92Zm5.799.192c1.904 0 3.248-1.088 3.536-2.864l-1.808-.368c-.176 1.12-.768 1.712-1.728 1.712-1.232 0-1.952-.992-1.952-2.72 0-1.648.736-2.64 1.92-2.64.944 0 1.568.592 1.696 1.68l1.872-.304c-.24-1.824-1.536-2.88-3.52-2.88-2.432 0-3.936 1.584-3.936 4.192 0 2.544 1.536 4.192 3.92 4.192Zm7.456 0c1.28 0 2.288-.592 2.672-1.568.016.496.064.976.128 1.376h1.92c-.16-.56-.24-1.392-.24-2.48v-2.384c0-2.32-1.056-3.328-3.424-3.328-2.064 0-3.408 1.056-3.536 2.768h1.968c.064-.912.624-1.408 1.568-1.408 1.024 0 1.488.512 1.488 1.712v.208l-1.696.208c-1.264.176-2.032.384-2.608.72-.64.4-.976 1.04-.976 1.808 0 1.424 1.088 2.368 2.736 2.368Zm.608-1.36c-.848 0-1.36-.432-1.36-1.104 0-.688.48-1.072 1.536-1.248l1.808-.272v.512c0 1.264-.8 2.112-1.984 2.112Zm6.493-5.44v4.128c0 1.616.64 2.624 2.56 2.624.496 0 .848-.048 1.312-.144v-1.616c-.256.048-.464.096-.784.096-.8 0-1.168-.416-1.168-1.264v-3.824h1.952v-1.392h-1.952v-2.784l-1.92.768v2.016h-1.44v1.392h1.44Zm7.633-2.72v-2h-2.08v2h2.08Zm-.08 9.328v-8h-1.92v8h1.92Zm5.796.192c2.304 0 3.92-1.52 3.92-4.208 0-2.672-1.616-4.176-3.92-4.176s-3.92 1.504-3.92 4.176c0 2.688 1.616 4.208 3.92 4.208Zm0-1.456c-1.232 0-1.968-.928-1.968-2.752 0-1.824.736-2.72 1.968-2.72s1.952.896 1.952 2.72c0 1.824-.72 2.752-1.952 2.752Zm7.735 1.264v-4.24c0-1.52.672-2.416 1.792-2.416 1.008 0 1.488.624 1.488 1.888v4.768h1.936v-4.96c0-2.144-.912-3.232-2.656-3.232-1.232 0-2.112.576-2.656 1.744v-1.552h-1.824v8h1.92Zm13.419-8h-1.792v8h1.92v-3.344c0-.896.08-1.808.72-2.432.368-.352.896-.56 1.664-.56h.256v-1.84c-.08-.016-.144-.016-.224-.016-1.296 0-2.144.864-2.544 2.128v-1.936Zm11.07 3.6c0-2.448-1.328-3.792-3.648-3.792-2.384 0-3.824 1.632-3.824 4.272 0 2.624 1.472 4.112 3.92 4.112 1.632 0 2.896-.768 3.488-2.16l-1.472-.672c-.368.864-1.04 1.328-1.952 1.328-1.264 0-2.112-.864-2.128-2.208h5.616v-.88Zm-5.616-.384c.032-1.328.72-2.128 1.936-2.128 1.136 0 1.792.688 1.792 2v.128h-3.728Zm14.526 7.904v-11.12h-1.568l-.256 1.232c-.464-.96-1.248-1.424-2.384-1.424-1.984 0-3.392 1.632-3.392 4.208 0 2.528 1.312 4.176 3.232 4.176 1.152 0 2.016-.592 2.448-1.504v4.432h1.92Zm-3.728-4.4c-1.184 0-1.872-1.024-1.872-2.736 0-1.728.704-2.704 1.856-2.704 1.152 0 1.872.944 1.872 2.432v.592c0 1.504-.736 2.416-1.856 2.416Zm8.796 1.472c1.152 0 2.112-.688 2.496-1.68v1.488h1.824v-8h-1.936v4.432c0 1.344-.704 2.224-1.76 2.224-.928 0-1.408-.64-1.408-1.808v-4.848h-1.92v5.136c0 1.872.752 3.056 2.704 3.056Zm13.663-4.592c0-2.448-1.328-3.792-3.648-3.792-2.384 0-3.824 1.632-3.824 4.272 0 2.624 1.472 4.112 3.92 4.112 1.632 0 2.896-.768 3.488-2.16l-1.472-.672c-.368.864-1.04 1.328-1.952 1.328-1.264 0-2.112-.864-2.128-2.208h5.616v-.88Zm-5.616-.384c.032-1.328.72-2.128 1.936-2.128 1.136 0 1.792.688 1.792 2v.128h-3.728Zm10.478 4.976c2.096 0 3.28-1.024 3.28-2.528 0-1.264-.656-2.032-2.208-2.304l-1.568-.288c-.704-.128-1.056-.368-1.056-.912 0-.624.496-.96 1.392-.96 1.056 0 1.76.448 2.144 1.168l1.344-.72c-.384-1.152-1.68-1.84-3.376-1.84-2.032 0-3.264 1.024-3.264 2.464 0 1.28.784 2.064 2.288 2.336l1.424.256c.784.128 1.136.352 1.136.928 0 .576-.512.992-1.488.992-1.136 0-1.936-.512-2.304-1.408l-1.424.64c.496 1.408 1.856 2.176 3.68 2.176Zm5.611-6.8v4.128c0 1.616.64 2.624 2.56 2.624.496 0 .848-.048 1.312-.144v-1.616c-.256.048-.464.096-.784.096-.8 0-1.168-.416-1.168-1.264v-3.824h1.952v-1.392h-1.952v-2.784l-1.92.768v2.016h-1.44v1.392h1.44Z"/>
  <path fill="#000" d="M439.372 28.338c1.74 0 2.832-.948 2.832-2.544 0-1.188-.636-1.848-1.8-2.052.936-.228 1.512-.96 1.512-1.92 0-1.356-.948-2.184-2.58-2.184-1.704 0-2.76.984-2.76 2.592l1.008.216c0-1.236.612-1.908 1.692-1.908.984 0 1.56.516 1.56 1.404 0 .888-.516 1.44-1.632 1.44h-.42v.888h.468c1.248 0 1.872.552 1.872 1.548 0 1.056-.588 1.62-1.716 1.62-1.152 0-1.884-.66-1.932-1.788l-1.056.132c.048 1.56 1.212 2.556 2.952 2.556Zm4.042-1.596v1.416h1.404v-1.416h-1.404Z"/>
  <rect width="191" height="255" x="621" y=".158" fill="#EDECFC" fill-opacity=".4" rx="12"/>
  <g filter="url(#d)">
    <path stroke="#4940E0" stroke-linecap="round" stroke-linejoin="round" d="M716.664 89.76v17.332"/>
    <mask id="e" fill="#fff">
      <path d="m709.5 89.76 4.17 17.32h5.902L724 89.76"/>
    </mask>
    <path fill="#4940E0" d="M710.472 89.526a1 1 0 1 0-1.944.468l1.944-.468Zm3.198 17.554-.972.234a1 1 0 0 0 .972.766v-1Zm5.902 0v1a1 1 0 0 0 .969-.753l-.969-.247Zm5.397-17.073a1 1 0 1 0-1.938-.495l1.938.495Zm-16.441-.013 4.17 17.32 1.944-.468-4.17-17.32-1.944.468Zm5.142 18.086h5.902v-2h-5.902v2Zm6.871-.753 4.428-17.32-1.938-.495-4.428 17.32 1.938.495Z" mask="url(#e)"/>
    <path stroke="#4940E0" stroke-linecap="round" stroke-linejoin="round" d="M729.002 89.26c.5 1.5.334 4.438-.688 6.05l-7.462 11.785M704.551 88.76c-1 2.5-.521 4.938.501 6.55l7.462 11.785"/>
    <path fill="#4940E0" fill-rule="evenodd" d="M707.344 103.662h18.632c.686 0 1.243.561 1.243 1.254v14.488c0 .692-.557 1.253-1.243 1.253h-18.632a1.248 1.248 0 0 1-1.242-1.253v-14.488c0-.693.556-1.254 1.242-1.254Zm9.069 4.746-3.161 3.157-.003.003a.857.857 0 0 0 0 1.208l3.113 3.131a.862.862 0 0 0 1.216 0l3.172-3.168a.859.859 0 0 0 0-1.211l-3.124-3.12a.861.861 0 0 0-1.213 0Z" clip-rule="evenodd"/>
    <path fill="#4940E0" d="M716.733 79.158c6.315 0 11.555 4.393 12.85 10.373a3.82 3.82 0 0 0-2.628-1.05c-1.473 0-2.756.843-3.407 2.083-.649-1.237-1.935-2.083-3.408-2.083-1.473 0-2.755.843-3.407 2.083-.649-1.237-1.935-2.083-3.408-2.083-1.473 0-2.755.843-3.407 2.083-.649-1.237-1.934-2.083-3.407-2.083a3.818 3.818 0 0 0-2.628 1.05c1.294-5.98 6.535-10.373 12.85-10.373Z"/>
  </g>
  <path fill="#191C20" d="M689.275 164.298v11.36h2.064v-4.4h2.416c2.448 0 3.984-1.36 3.984-3.504 0-2.096-1.552-3.456-3.968-3.456h-4.496Zm2.064 5.392v-3.808h2.048c1.344 0 2.176.736 2.176 1.904 0 1.184-.832 1.904-2.176 1.904h-2.048Zm9.85-2.032h-1.792v8h1.92v-3.344c0-.896.08-1.808.72-2.432.368-.352.896-.56 1.664-.56h.256v-1.84c-.08-.016-.144-.016-.224-.016-1.296 0-2.144.864-2.544 2.128v-1.936Zm7.519 8.192c2.304 0 3.92-1.52 3.92-4.208 0-2.672-1.616-4.176-3.92-4.176s-3.92 1.504-3.92 4.176c0 2.688 1.616 4.208 3.92 4.208Zm0-1.456c-1.232 0-1.968-.928-1.968-2.752 0-1.824.736-2.72 1.968-2.72s1.952.896 1.952 2.72c0 1.824-.72 2.752-1.952 2.752Zm7.83-8.064v-2h-2.08v2h2.08Zm-2.592 12.56c1.952 0 2.512-1.152 2.512-2.736v-8.496h-1.92v8.352c0 1.056-.272 1.344-.944 1.344-.144 0-.352-.016-.736-.032v1.472c.24.064.752.096 1.088.096Zm11.861-7.632c0-2.448-1.328-3.792-3.648-3.792-2.384 0-3.824 1.632-3.824 4.272 0 2.624 1.472 4.112 3.92 4.112 1.632 0 2.896-.768 3.488-2.16l-1.472-.672c-.368.864-1.04 1.328-1.952 1.328-1.264 0-2.112-.864-2.128-2.208h5.616v-.88Zm-5.616-.384c.032-1.328.72-2.128 1.936-2.128 1.136 0 1.792.688 1.792 2v.128h-3.728Zm10.829 4.976c1.904 0 3.248-1.088 3.536-2.864l-1.808-.368c-.176 1.12-.768 1.712-1.728 1.712-1.232 0-1.952-.992-1.952-2.72 0-1.648.736-2.64 1.92-2.64.944 0 1.568.592 1.696 1.68l1.872-.304c-.24-1.824-1.536-2.88-3.52-2.88-2.432 0-3.936 1.584-3.936 4.192 0 2.544 1.536 4.192 3.92 4.192Zm5.698-6.8v4.128c0 1.616.64 2.624 2.56 2.624.496 0 .848-.048 1.312-.144v-1.616c-.256.048-.464.096-.784.096-.8 0-1.168-.416-1.168-1.264v-3.824h1.952v-1.392h-1.952v-2.784l-1.92.768v2.016h-1.44v1.392h1.44Zm-70.357 21.208c0-2.448-1.328-3.792-3.648-3.792-2.384 0-3.824 1.632-3.824 4.272 0 2.624 1.472 4.112 3.92 4.112 1.632 0 2.896-.768 3.488-2.16l-1.472-.672c-.368.864-1.04 1.328-1.952 1.328-1.264 0-2.112-.864-2.128-2.208h5.616v-.88Zm-5.616-.384c.032-1.328.72-2.128 1.936-2.128 1.136 0 1.792.688 1.792 2v.128h-3.728Zm8.215 4.784 1.424-2.16c.256-.384.4-.672.448-.832h.032c.032.16.192.48.432.832l1.424 2.16h2.192l-2.896-4.112 2.656-3.888h-2.144l-1.184 1.952c-.208.336-.352.608-.416.816h-.016c-.064-.192-.208-.448-.432-.816l-1.232-1.952h-2.192l2.704 3.856-2.896 4.144h2.096Zm13.854-4.4c0-2.448-1.328-3.792-3.648-3.792-2.384 0-3.824 1.632-3.824 4.272 0 2.624 1.472 4.112 3.92 4.112 1.632 0 2.896-.768 3.488-2.16l-1.472-.672c-.368.864-1.04 1.328-1.952 1.328-1.264 0-2.112-.864-2.128-2.208h5.616v-.88Zm-5.616-.384c.032-1.328.72-2.128 1.936-2.128 1.136 0 1.792.688 1.792 2v.128h-3.728Zm10.83 4.976c1.904 0 3.248-1.088 3.536-2.864l-1.808-.368c-.176 1.12-.768 1.712-1.728 1.712-1.232 0-1.952-.992-1.952-2.72 0-1.648.736-2.64 1.92-2.64.944 0 1.568.592 1.696 1.68l1.872-.304c-.24-1.824-1.536-2.88-3.52-2.88-2.432 0-3.936 1.584-3.936 4.192 0 2.544 1.536 4.192 3.92 4.192Zm7.905 0c1.152 0 2.112-.688 2.496-1.68v1.488h1.824v-8h-1.936v4.432c0 1.344-.704 2.224-1.76 2.224-.928 0-1.408-.64-1.408-1.808v-4.848h-1.92v5.136c0 1.872.752 3.056 2.704 3.056Zm7.199-6.8v4.128c0 1.616.64 2.624 2.56 2.624.496 0 .848-.048 1.312-.144v-1.616c-.256.048-.464.096-.784.096-.8 0-1.168-.416-1.168-1.264v-3.824h1.952v-1.392h-1.952v-2.784l-1.92.768v2.016h-1.44v1.392h1.44Zm12.354 2.208c0-2.448-1.328-3.792-3.648-3.792-2.384 0-3.824 1.632-3.824 4.272 0 2.624 1.472 4.112 3.92 4.112 1.632 0 2.896-.768 3.488-2.16l-1.472-.672c-.368.864-1.04 1.328-1.952 1.328-1.264 0-2.112-.864-2.128-2.208h5.616v-.88Zm-5.616-.384c.032-1.328.72-2.128 1.936-2.128 1.136 0 1.792.688 1.792 2v.128h-3.728Zm10.479 4.976c2.096 0 3.28-1.024 3.28-2.528 0-1.264-.656-2.032-2.208-2.304l-1.568-.288c-.704-.128-1.056-.368-1.056-.912 0-.624.496-.96 1.392-.96 1.056 0 1.76.448 2.144 1.168l1.344-.72c-.384-1.152-1.68-1.84-3.376-1.84-2.032 0-3.264 1.024-3.264 2.464 0 1.28.784 2.064 2.288 2.336l1.424.256c.784.128 1.136.352 1.136.928 0 .576-.512.992-1.488.992-1.136 0-1.936-.512-2.304-1.408l-1.424.64c.496 1.408 1.856 2.176 3.68 2.176Zm11.276 0c1.28 0 2.288-.592 2.672-1.568.016.496.064.976.128 1.376h1.92c-.16-.56-.24-1.392-.24-2.48v-2.384c0-2.32-1.056-3.328-3.424-3.328-2.064 0-3.408 1.056-3.536 2.768h1.968c.064-.912.624-1.408 1.568-1.408 1.024 0 1.488.512 1.488 1.712v.208l-1.696.208c-1.264.176-2.032.384-2.608.72-.64.4-.976 1.04-.976 1.808 0 1.424 1.088 2.368 2.736 2.368Zm.608-1.36c-.848 0-1.36-.432-1.36-1.104 0-.688.48-1.072 1.536-1.248l1.808-.272v.512c0 1.264-.8 2.112-1.984 2.112Zm9.42 1.36c1.904 0 3.248-1.088 3.536-2.864l-1.808-.368c-.176 1.12-.768 1.712-1.728 1.712-1.232 0-1.952-.992-1.952-2.72 0-1.648.736-2.64 1.92-2.64.944 0 1.568.592 1.696 1.68l1.872-.304c-.24-1.824-1.536-2.88-3.52-2.88-2.432 0-3.936 1.584-3.936 4.192 0 2.544 1.536 4.192 3.92 4.192Zm5.697-6.8v4.128c0 1.616.64 2.624 2.56 2.624.496 0 .848-.048 1.312-.144v-1.616c-.256.048-.464.096-.784.096-.8 0-1.168-.416-1.168-1.264v-3.824h1.952v-1.392h-1.952v-2.784l-1.92.768v2.016h-1.44v1.392h1.44Zm7.633-2.72v-2h-2.08v2h2.08Zm-.08 9.328v-8h-1.92v8h1.92Zm5.797.192c2.304 0 3.92-1.52 3.92-4.208 0-2.672-1.616-4.176-3.92-4.176s-3.92 1.504-3.92 4.176c0 2.688 1.616 4.208 3.92 4.208Zm0-1.456c-1.232 0-1.968-.928-1.968-2.752 0-1.824.736-2.72 1.968-2.72s1.952.896 1.952 2.72c0 1.824-.72 2.752-1.952 2.752Zm7.734 1.264v-4.24c0-1.52.672-2.416 1.792-2.416 1.008 0 1.488.624 1.488 1.888v4.768h1.936v-4.96c0-2.144-.912-3.232-2.656-3.232-1.232 0-2.112.576-2.656 1.744v-1.552h-1.824v8h1.92Z"/>
  <path fill="#000" d="M649.6 25.206h-1.368v-5.388h-1.2l-3.732 5.496v.732h3.912v2.112h1.02v-2.112h1.368v-.84Zm-2.388 0h-2.82c.264-.312.468-.6.792-1.092l1.428-2.148c.288-.432.444-.696.6-1.092h.024c-.024.432-.024.6-.024 1.272v3.06Zm3.53 1.536v1.416h1.404v-1.416h-1.404Z"/>
  <defs>
    <filter id="a" width="148" height="148" x="21.5" y="36.658" color-interpolation-filters="sRGB" filterUnits="userSpaceOnUse">
      <feFlood flood-opacity="0" result="BackgroundImageFix"/>
      <feColorMatrix in="SourceAlpha" result="hardAlpha" values="0 0 0 0 0 0 0 0 0 0 0 0 0 0 0 0 0 0 127 0"/>
      <feOffset dy="10"/>
      <feGaussianBlur stdDeviation="15"/>
      <feColorMatrix values="0 0 0 0 0.286275 0 0 0 0 0.25098 0 0 0 0 0.878431 0 0 0 0.4 0"/>
      <feBlend in2="BackgroundImageFix" result="effect1_dropShadow_18285_89690"/>
      <feBlend in="SourceGraphic" in2="effect1_dropShadow_18285_89690" result="shape"/>
    </filter>
    <filter id="b" width="148" height="148" x="228.5" y="36.658" color-interpolation-filters="sRGB" filterUnits="userSpaceOnUse">
      <feFlood flood-opacity="0" result="BackgroundImageFix"/>
      <feColorMatrix in="SourceAlpha" result="hardAlpha" values="0 0 0 0 0 0 0 0 0 0 0 0 0 0 0 0 0 0 127 0"/>
      <feOffset dy="10"/>
      <feGaussianBlur stdDeviation="15"/>
      <feColorMatrix values="0 0 0 0 0.286275 0 0 0 0 0.25098 0 0 0 0 0.878431 0 0 0 0.4 0"/>
      <feBlend in2="BackgroundImageFix" result="effect1_dropShadow_18285_89690"/>
      <feBlend in="SourceGraphic" in2="effect1_dropShadow_18285_89690" result="shape"/>
    </filter>
    <filter id="c" width="148" height="148" x="435.5" y="36.658" color-interpolation-filters="sRGB" filterUnits="userSpaceOnUse">
      <feFlood flood-opacity="0" result="BackgroundImageFix"/>
      <feColorMatrix in="SourceAlpha" result="hardAlpha" values="0 0 0 0 0 0 0 0 0 0 0 0 0 0 0 0 0 0 127 0"/>
      <feOffset dy="10"/>
      <feGaussianBlur stdDeviation="15"/>
      <feColorMatrix values="0 0 0 0 0.286275 0 0 0 0 0.25098 0 0 0 0 0.878431 0 0 0 0.4 0"/>
      <feBlend in2="BackgroundImageFix" result="effect1_dropShadow_18285_89690"/>
      <feBlend in="SourceGraphic" in2="effect1_dropShadow_18285_89690" result="shape"/>
    </filter>
    <filter id="d" width="148" height="148" x="642.5" y="36.658" color-interpolation-filters="sRGB" filterUnits="userSpaceOnUse">
      <feFlood flood-opacity="0" result="BackgroundImageFix"/>
      <feColorMatrix in="SourceAlpha" result="hardAlpha" values="0 0 0 0 0 0 0 0 0 0 0 0 0 0 0 0 0 0 127 0"/>
      <feOffset dy="10"/>
      <feGaussianBlur stdDeviation="15"/>
      <feColorMatrix values="0 0 0 0 0.286275 0 0 0 0 0.25098 0 0 0 0 0.878431 0 0 0 0.4 0"/>
      <feBlend in2="BackgroundImageFix" result="effect1_dropShadow_18285_89690"/>
      <feBlend in="SourceGraphic" in2="effect1_dropShadow_18285_89690" result="shape"/>
    </filter>
  </defs>
</svg>
