<svg width="256" height="58" viewBox="0 0 256 58" fill="none" xmlns="http://www.w3.org/2000/svg">
<rect x="1" y="1" width="254" height="56" rx="12" fill="#191C20"/>
<rect x="17" y="19" width="20" height="20" rx="10" stroke="white"/>
<path d="M46.288 34V23.78H48.276V34H46.288ZM50.0144 28.386V27.294H50.3504C50.6211 27.294 50.8357 27.252 50.9944 27.168C51.1531 27.084 51.2697 26.944 51.3444 26.748C51.4191 26.5427 51.4564 26.272 51.4564 25.936V24.9L51.8624 25.684C51.7971 25.7307 51.7037 25.7727 51.5824 25.81C51.4611 25.838 51.3351 25.852 51.2044 25.852C50.8964 25.852 50.6397 25.7587 50.4344 25.572C50.2291 25.376 50.1264 25.11 50.1264 24.774C50.1264 24.4567 50.2244 24.1907 50.4204 23.976C50.6164 23.752 50.8964 23.64 51.2604 23.64C51.4937 23.64 51.7084 23.696 51.9044 23.808C52.1097 23.9107 52.2731 24.0973 52.3944 24.368C52.5157 24.6293 52.5764 24.9933 52.5764 25.46V25.698C52.5764 26.3607 52.4831 26.888 52.2964 27.28C52.1191 27.672 51.8577 27.9567 51.5124 28.134C51.1671 28.302 50.7471 28.386 50.2524 28.386H50.0144ZM54.0428 34V26.398H55.5828V29.66H55.4428C55.4428 28.8947 55.5408 28.2553 55.7368 27.742C55.9328 27.2193 56.2221 26.8273 56.6048 26.566C56.9968 26.2953 57.4821 26.16 58.0608 26.16H58.1448C58.7328 26.16 59.2181 26.2953 59.6008 26.566C59.9928 26.8273 60.2821 27.2193 60.4688 27.742C60.6648 28.2553 60.7628 28.8947 60.7628 29.66H60.2728C60.2728 28.8947 60.3708 28.2553 60.5668 27.742C60.7721 27.2193 61.0661 26.8273 61.4488 26.566C61.8408 26.2953 62.3261 26.16 62.9048 26.16H62.9888C63.5768 26.16 64.0668 26.2953 64.4588 26.566C64.8508 26.8273 65.1448 27.2193 65.3408 27.742C65.5461 28.2553 65.6488 28.8947 65.6488 29.66V34H63.7028V29.478C63.7028 29.002 63.5815 28.624 63.3388 28.344C63.0961 28.0547 62.7508 27.91 62.3028 27.91C61.8548 27.91 61.4955 28.0593 61.2248 28.358C60.9541 28.6473 60.8188 29.0393 60.8188 29.534V34H58.8728V29.478C58.8728 29.002 58.7515 28.624 58.5088 28.344C58.2661 28.0547 57.9208 27.91 57.4728 27.91C57.0248 27.91 56.6655 28.0593 56.3948 28.358C56.1241 28.6473 55.9888 29.0393 55.9888 29.534V34H54.0428ZM75.0758 34V31.746H74.7538V29.24C74.7538 28.8013 74.6465 28.4747 74.4318 28.26C74.2172 28.0453 73.8858 27.938 73.4378 27.938C73.2045 27.938 72.9245 27.9427 72.5978 27.952C72.2712 27.9613 71.9398 27.9753 71.6038 27.994C71.2772 28.0033 70.9832 28.0173 70.7218 28.036V26.384C70.9365 26.3653 71.1792 26.3467 71.4498 26.328C71.7205 26.3093 71.9958 26.3 72.2758 26.3C72.5652 26.2907 72.8358 26.286 73.0878 26.286C73.8718 26.286 74.5205 26.3887 75.0338 26.594C75.5565 26.7993 75.9485 27.1213 76.2098 27.56C76.4805 27.9987 76.6158 28.5727 76.6158 29.282V34H75.0758ZM72.6258 34.196C72.0752 34.196 71.5898 34.098 71.1698 33.902C70.7592 33.706 70.4372 33.426 70.2038 33.062C69.9798 32.698 69.8678 32.2593 69.8678 31.746C69.8678 31.186 70.0032 30.7287 70.2738 30.374C70.5538 30.0193 70.9412 29.7533 71.4358 29.576C71.9398 29.3987 72.5278 29.31 73.1998 29.31H74.9638V30.472H73.1718C72.7238 30.472 72.3785 30.584 72.1358 30.808C71.9025 31.0227 71.7858 31.3027 71.7858 31.648C71.7858 31.9933 71.9025 32.2733 72.1358 32.488C72.3785 32.7027 72.7238 32.81 73.1718 32.81C73.4425 32.81 73.6898 32.7633 73.9138 32.67C74.1472 32.5673 74.3385 32.3993 74.4878 32.166C74.6465 31.9233 74.7352 31.5967 74.7538 31.186L75.2298 31.732C75.1832 32.264 75.0525 32.712 74.8378 33.076C74.6325 33.44 74.3432 33.72 73.9698 33.916C73.6058 34.1027 73.1578 34.196 72.6258 34.196ZM84.0318 34.238C83.1544 34.238 82.4731 33.9487 81.9878 33.37C81.5118 32.7913 81.2738 31.9327 81.2738 30.794V26.384H83.2198V30.962C83.2198 31.4287 83.3504 31.802 83.6118 32.082C83.8731 32.3527 84.2278 32.488 84.6758 32.488C85.1238 32.488 85.4878 32.3433 85.7678 32.054C86.0571 31.7647 86.2018 31.3727 86.2018 30.878V26.384H88.1478V34H86.6078V30.766H86.7618C86.7618 31.5313 86.6638 32.1707 86.4678 32.684C86.2718 33.1973 85.9778 33.5847 85.5858 33.846C85.1938 34.1073 84.7038 34.238 84.1158 34.238H84.0318ZM90.2432 34V26.398H91.7832V29.66H91.6432C91.6432 28.8853 91.7459 28.2413 91.9512 27.728C92.1565 27.2053 92.4599 26.8133 92.8612 26.552C93.2719 26.2907 93.7805 26.16 94.3872 26.16H94.4712C95.3765 26.16 96.0625 26.454 96.5292 27.042C96.9959 27.6207 97.2292 28.4887 97.2292 29.646V34H95.2832V29.478C95.2832 29.0113 95.1479 28.6333 94.8772 28.344C94.6159 28.0547 94.2519 27.91 93.7852 27.91C93.3092 27.91 92.9219 28.0593 92.6232 28.358C92.3339 28.6473 92.1892 29.0393 92.1892 29.534V34H90.2432ZM99.5453 34V26.398H101.491V34H99.5453ZM98.4813 27.854V26.398H101.491V27.854H98.4813ZM100.259 25.488C99.8766 25.488 99.592 25.39 99.4053 25.194C99.228 24.9887 99.1393 24.732 99.1393 24.424C99.1393 24.116 99.228 23.864 99.4053 23.668C99.592 23.472 99.8766 23.374 100.259 23.374C100.642 23.374 100.922 23.472 101.099 23.668C101.277 23.864 101.365 24.116 101.365 24.424C101.365 24.732 101.277 24.9887 101.099 25.194C100.922 25.39 100.642 25.488 100.259 25.488ZM109.222 36.8V31.746L109.796 30.85C109.768 31.578 109.619 32.1987 109.348 32.712C109.077 33.216 108.713 33.5987 108.256 33.86C107.799 34.1213 107.271 34.252 106.674 34.252C106.133 34.252 105.643 34.154 105.204 33.958C104.765 33.7527 104.387 33.4727 104.07 33.118C103.762 32.754 103.519 32.3387 103.342 31.872C103.174 31.396 103.09 30.8827 103.09 30.332V30.038C103.09 29.4967 103.179 28.9927 103.356 28.526C103.533 28.05 103.781 27.6393 104.098 27.294C104.425 26.9393 104.807 26.664 105.246 26.468C105.694 26.2627 106.193 26.16 106.744 26.16C107.379 26.16 107.929 26.2953 108.396 26.566C108.863 26.8367 109.227 27.2333 109.488 27.756C109.759 28.2693 109.908 28.8993 109.936 29.646H109.628V26.398H111.168V36.8H109.222ZM107.178 32.586C107.561 32.586 107.911 32.502 108.228 32.334C108.545 32.1567 108.797 31.9047 108.984 31.578C109.18 31.242 109.278 30.85 109.278 30.402V29.842C109.278 29.394 109.18 29.0207 108.984 28.722C108.788 28.414 108.531 28.1807 108.214 28.022C107.897 27.854 107.551 27.77 107.178 27.77C106.758 27.77 106.385 27.8727 106.058 28.078C105.741 28.274 105.489 28.5587 105.302 28.932C105.125 29.296 105.036 29.716 105.036 30.192C105.036 30.668 105.129 31.088 105.316 31.452C105.503 31.8067 105.755 32.0867 106.072 32.292C106.399 32.488 106.767 32.586 107.178 32.586ZM115.833 34.238C114.956 34.238 114.274 33.9487 113.789 33.37C113.313 32.7913 113.075 31.9327 113.075 30.794V26.384H115.021V30.962C115.021 31.4287 115.152 31.802 115.413 32.082C115.674 32.3527 116.029 32.488 116.477 32.488C116.925 32.488 117.289 32.3433 117.569 32.054C117.858 31.7647 118.003 31.3727 118.003 30.878V26.384H119.949V34H118.409V30.766H118.563C118.563 31.5313 118.465 32.1707 118.269 32.684C118.073 33.1973 117.779 33.5847 117.387 33.846C116.995 34.1073 116.505 34.238 115.917 34.238H115.833ZM125.447 34.266C124.793 34.266 124.219 34.154 123.725 33.93C123.239 33.706 122.833 33.4073 122.507 33.034C122.189 32.6513 121.947 32.2267 121.779 31.76C121.62 31.2933 121.541 30.8173 121.541 30.332V30.066C121.541 29.562 121.62 29.0767 121.779 28.61C121.947 28.134 122.189 27.714 122.507 27.35C122.833 26.9767 123.235 26.6827 123.711 26.468C124.187 26.244 124.737 26.132 125.363 26.132C126.184 26.132 126.87 26.314 127.421 26.678C127.981 27.0327 128.401 27.504 128.681 28.092C128.961 28.6707 129.101 29.296 129.101 29.968V30.668H122.367V29.478H127.883L127.281 30.066C127.281 29.5807 127.211 29.1653 127.071 28.82C126.931 28.4747 126.716 28.2087 126.427 28.022C126.147 27.8353 125.792 27.742 125.363 27.742C124.933 27.742 124.569 27.84 124.271 28.036C123.972 28.232 123.743 28.5167 123.585 28.89C123.435 29.254 123.361 29.6927 123.361 30.206C123.361 30.682 123.435 31.1067 123.585 31.48C123.734 31.844 123.963 32.1333 124.271 32.348C124.579 32.5533 124.971 32.656 125.447 32.656C125.923 32.656 126.31 32.5627 126.609 32.376C126.907 32.18 127.099 31.942 127.183 31.662H128.975C128.863 32.1847 128.648 32.642 128.331 33.034C128.013 33.426 127.607 33.7293 127.113 33.944C126.627 34.1587 126.072 34.266 125.447 34.266ZM133.468 36.8V26.398H135.008V29.674L134.77 29.66C134.807 28.8853 134.966 28.2367 135.246 27.714C135.535 27.1913 135.918 26.804 136.394 26.552C136.87 26.2907 137.402 26.16 137.99 26.16C138.531 26.16 139.016 26.258 139.446 26.454C139.884 26.65 140.258 26.9253 140.566 27.28C140.883 27.6347 141.126 28.05 141.294 28.526C141.462 28.9927 141.546 29.4967 141.546 30.038V30.332C141.546 30.8827 141.462 31.396 141.294 31.872C141.135 32.3387 140.897 32.754 140.58 33.118C140.272 33.4727 139.898 33.7527 139.46 33.958C139.021 34.154 138.531 34.252 137.99 34.252C137.42 34.252 136.898 34.1353 136.422 33.902C135.955 33.6593 135.577 33.2907 135.288 32.796C134.998 32.292 134.835 31.6433 134.798 30.85L135.414 31.788V36.8H133.468ZM137.5 32.614C137.92 32.614 138.284 32.5113 138.592 32.306C138.909 32.1007 139.156 31.816 139.334 31.452C139.511 31.0787 139.6 30.6587 139.6 30.192C139.6 29.7067 139.511 29.2867 139.334 28.932C139.156 28.5773 138.909 28.302 138.592 28.106C138.284 27.9007 137.92 27.798 137.5 27.798C137.117 27.798 136.762 27.882 136.436 28.05C136.118 28.218 135.857 28.4653 135.652 28.792C135.456 29.1187 135.358 29.5107 135.358 29.968V30.528C135.358 30.9667 135.46 31.34 135.666 31.648C135.871 31.956 136.137 32.194 136.464 32.362C136.79 32.53 137.136 32.614 137.5 32.614ZM146.519 34.266C145.865 34.266 145.291 34.154 144.797 33.93C144.311 33.706 143.905 33.4073 143.579 33.034C143.261 32.6513 143.019 32.2267 142.851 31.76C142.692 31.2933 142.613 30.8173 142.613 30.332V30.066C142.613 29.562 142.692 29.0767 142.851 28.61C143.019 28.134 143.261 27.714 143.579 27.35C143.905 26.9767 144.307 26.6827 144.783 26.468C145.259 26.244 145.809 26.132 146.435 26.132C147.256 26.132 147.942 26.314 148.493 26.678C149.053 27.0327 149.473 27.504 149.753 28.092C150.033 28.6707 150.173 29.296 150.173 29.968V30.668H143.439V29.478H148.955L148.353 30.066C148.353 29.5807 148.283 29.1653 148.143 28.82C148.003 28.4747 147.788 28.2087 147.499 28.022C147.219 27.8353 146.864 27.742 146.435 27.742C146.005 27.742 145.641 27.84 145.343 28.036C145.044 28.232 144.815 28.5167 144.657 28.89C144.507 29.254 144.433 29.6927 144.433 30.206C144.433 30.682 144.507 31.1067 144.657 31.48C144.806 31.844 145.035 32.1333 145.343 32.348C145.651 32.5533 146.043 32.656 146.519 32.656C146.995 32.656 147.382 32.5627 147.681 32.376C147.979 32.18 148.171 31.942 148.255 31.662H150.047C149.935 32.1847 149.72 32.642 149.403 33.034C149.085 33.426 148.679 33.7293 148.185 33.944C147.699 34.1587 147.144 34.266 146.519 34.266ZM151.658 34V26.398H153.198V29.618H153.156C153.156 28.526 153.39 27.7 153.856 27.14C154.323 26.58 155.009 26.3 155.914 26.3H156.194V27.994H155.662C155.009 27.994 154.5 28.1713 154.136 28.526C153.782 28.8713 153.604 29.3753 153.604 30.038V34H151.658ZM160.114 34.238C159.069 34.238 158.248 34.0187 157.65 33.58C157.062 33.132 156.754 32.516 156.726 31.732H158.476C158.504 31.9933 158.649 32.2313 158.91 32.446C159.172 32.6607 159.582 32.768 160.142 32.768C160.609 32.768 160.978 32.684 161.248 32.516C161.528 32.348 161.668 32.1193 161.668 31.83C161.668 31.578 161.561 31.3773 161.346 31.228C161.141 31.0787 160.786 30.9807 160.282 30.934L159.61 30.864C158.761 30.7707 158.108 30.528 157.65 30.136C157.193 29.744 156.964 29.2213 156.964 28.568C156.964 28.0453 157.095 27.6067 157.356 27.252C157.618 26.8973 157.977 26.6313 158.434 26.454C158.901 26.2673 159.433 26.174 160.03 26.174C160.964 26.174 161.72 26.3793 162.298 26.79C162.877 27.2007 163.18 27.8027 163.208 28.596H161.458C161.44 28.3347 161.309 28.1107 161.066 27.924C160.824 27.7373 160.474 27.644 160.016 27.644C159.606 27.644 159.288 27.7233 159.064 27.882C158.84 28.0407 158.728 28.246 158.728 28.498C158.728 28.7407 158.817 28.9273 158.994 29.058C159.181 29.1887 159.48 29.2773 159.89 29.324L160.562 29.394C161.458 29.4873 162.158 29.7347 162.662 30.136C163.176 30.5373 163.432 31.0787 163.432 31.76C163.432 32.264 163.292 32.7027 163.012 33.076C162.742 33.44 162.359 33.7247 161.864 33.93C161.37 34.1353 160.786 34.238 160.114 34.238ZM168.554 34.266C167.882 34.266 167.289 34.1587 166.776 33.944C166.262 33.7293 165.828 33.44 165.474 33.076C165.119 32.7027 164.848 32.2827 164.662 31.816C164.484 31.3493 164.396 30.864 164.396 30.36V30.066C164.396 29.5433 164.489 29.0487 164.676 28.582C164.872 28.106 165.147 27.686 165.502 27.322C165.866 26.9487 166.304 26.6593 166.818 26.454C167.331 26.2393 167.91 26.132 168.554 26.132C169.198 26.132 169.776 26.2393 170.29 26.454C170.803 26.6593 171.237 26.9487 171.592 27.322C171.956 27.686 172.231 28.106 172.418 28.582C172.604 29.0487 172.698 29.5433 172.698 30.066V30.36C172.698 30.864 172.604 31.3493 172.418 31.816C172.24 32.2827 171.974 32.7027 171.62 33.076C171.265 33.44 170.831 33.7293 170.318 33.944C169.804 34.1587 169.216 34.266 168.554 34.266ZM168.554 32.6C169.03 32.6 169.431 32.4973 169.758 32.292C170.084 32.0773 170.332 31.7927 170.5 31.438C170.668 31.074 170.752 30.6633 170.752 30.206C170.752 29.7393 170.663 29.3287 170.486 28.974C170.318 28.61 170.066 28.3253 169.73 28.12C169.403 27.9053 169.011 27.798 168.554 27.798C168.096 27.798 167.7 27.9053 167.364 28.12C167.037 28.3253 166.785 28.61 166.608 28.974C166.43 29.3287 166.342 29.7393 166.342 30.206C166.342 30.6633 166.426 31.074 166.594 31.438C166.771 31.7927 167.023 32.0773 167.35 32.292C167.676 32.4973 168.078 32.6 168.554 32.6ZM174.262 34V26.398H175.802V29.66H175.662C175.662 28.8853 175.764 28.2413 175.97 27.728C176.175 27.2053 176.478 26.8133 176.88 26.552C177.29 26.2907 177.799 26.16 178.406 26.16H178.49C179.395 26.16 180.081 26.454 180.548 27.042C181.014 27.6207 181.248 28.4887 181.248 29.646V34H179.302V29.478C179.302 29.0113 179.166 28.6333 178.896 28.344C178.634 28.0547 178.27 27.91 177.804 27.91C177.328 27.91 176.94 28.0593 176.642 28.358C176.352 28.6473 176.208 29.0393 176.208 29.534V34H174.262Z" fill="white"/>
<g clip-path="url(#clip0_9520_29146)">
<path d="M218.973 21.1327C219.419 19.2371 223.835 14.493 225.942 16.076C228.395 17.9765 225.534 21.7923 224.526 23.2678C224.526 23.2678 224.324 21.2255 222.717 19.3739C221.435 20.1995 220.25 21.0301 219.554 21.5284C219.491 21.5702 219.418 21.5923 219.344 21.592C219.269 21.5917 219.196 21.5691 219.134 21.5268C219.072 21.4846 219.024 21.4246 218.995 21.3545C218.966 21.2844 218.959 21.2073 218.973 21.1327ZM220.773 23.9957C220.72 24.0209 220.673 24.059 220.638 24.1067C220.603 24.1545 220.58 24.2103 220.571 24.2693C220.554 24.3609 220.572 24.4556 220.619 24.5351C220.667 24.6145 220.742 24.673 220.83 24.6993C221.646 24.9436 223.024 25.3735 224.454 25.8816C224.032 28.3147 222.592 29.7462 222.592 29.7462C224.353 29.6289 229.062 29.5361 228.999 26.3946C228.908 23.7319 222.51 23.17 220.773 23.9957ZM219.693 27.2105C219.625 27.1766 219.549 27.1645 219.474 27.1759C219.4 27.1873 219.331 27.2216 219.276 27.2742C219.221 27.3268 219.183 27.3953 219.168 27.4703C219.152 27.5454 219.16 27.6235 219.189 27.6942C219.506 28.4955 220.038 29.8586 220.538 31.3194C218.402 32.4969 216.405 32.2379 216.405 32.2379C217.591 33.5668 220.595 37.2604 222.966 35.2573C224.958 33.5277 221.411 28.0802 219.693 27.2105ZM216.549 28.3538C216.537 28.2952 216.511 28.2405 216.473 28.1945C216.436 28.1485 216.387 28.1126 216.333 28.09C216.249 28.0515 216.154 28.0467 216.067 28.0766C215.979 28.1065 215.907 28.1689 215.863 28.2512C215.445 29.0036 214.725 30.2739 213.914 31.5783C211.682 30.611 210.636 28.857 210.636 28.857C210.353 30.6305 209.383 35.3257 212.402 35.9706C214.97 36.4787 216.952 30.2592 216.549 28.3538ZM213.717 26.5558C213.752 26.5093 213.777 26.4552 213.789 26.3976C213.8 26.3401 213.799 26.2805 213.784 26.2236C213.762 26.1325 213.706 26.0533 213.629 26.0018C213.551 25.9502 213.458 25.93 213.367 25.9451C212.527 26.0819 211.101 26.3018 209.594 26.4679C208.946 24.0837 209.642 22.1636 209.642 22.1636C208.102 23.0381 203.892 25.1927 205.275 27.9922C206.484 30.3569 212.498 28.0606 213.717 26.5558ZM213.328 23.1798C213.387 23.1816 213.445 23.1687 213.498 23.1423C213.551 23.1159 213.596 23.0768 213.631 23.0284C213.686 22.9526 213.712 22.8588 213.703 22.7649C213.694 22.6711 213.651 22.5839 213.583 22.5202C212.954 21.9388 211.898 20.9422 210.833 19.8429C212.263 17.8446 214.173 17.2046 214.173 17.2046C212.541 16.5206 208.265 14.5028 206.974 17.3561C205.908 19.7891 211.413 23.1505 213.328 23.1798ZM215.992 20.9177C216.084 20.9144 216.172 20.8767 216.238 20.8118C216.305 20.7469 216.345 20.6594 216.352 20.566C216.405 19.7012 216.52 18.2404 216.698 16.7063C219.126 16.5988 220.806 17.7225 220.806 17.7225C220.317 15.9978 219.203 11.3369 216.208 12.0795C213.674 12.7488 214.519 19.2273 215.685 20.776C215.722 20.8225 215.769 20.8595 215.822 20.8841C215.875 20.9087 215.934 20.9202 215.992 20.9177Z" fill="url(#paint0_linear_9520_29146)"/>
</g>
<path d="M199.856 48L198.214 42.1818H199.347L200.395 46.4574H200.449L201.569 42.1818H202.6L203.722 46.4602H203.773L204.822 42.1818H205.955L204.313 48H203.273L202.108 43.9176H202.063L200.895 48H199.856ZM211.492 45.0909C211.492 45.7178 211.375 46.2547 211.14 46.7017C210.907 47.1468 210.589 47.4877 210.185 47.7244C209.784 47.9612 209.328 48.0795 208.819 48.0795C208.309 48.0795 207.853 47.9612 207.45 47.7244C207.048 47.4858 206.73 47.1439 206.495 46.6989C206.262 46.2519 206.146 45.7159 206.146 45.0909C206.146 44.464 206.262 43.928 206.495 43.483C206.73 43.036 207.048 42.6941 207.45 42.4574C207.853 42.2206 208.309 42.1023 208.819 42.1023C209.328 42.1023 209.784 42.2206 210.185 42.4574C210.589 42.6941 210.907 43.036 211.14 43.483C211.375 43.928 211.492 44.464 211.492 45.0909ZM210.433 45.0909C210.433 44.6496 210.363 44.2775 210.225 43.9744C210.089 43.6695 209.899 43.4394 209.657 43.2841C209.415 43.1269 209.135 43.0483 208.819 43.0483C208.503 43.0483 208.223 43.1269 207.981 43.2841C207.738 43.4394 207.548 43.6695 207.41 43.9744C207.274 44.2775 207.205 44.6496 207.205 45.0909C207.205 45.5322 207.274 45.9053 207.41 46.2102C207.548 46.5133 207.738 46.7434 207.981 46.9006C208.223 47.0559 208.503 47.1335 208.819 47.1335C209.135 47.1335 209.415 47.0559 209.657 46.9006C209.899 46.7434 210.089 46.5133 210.225 46.2102C210.363 45.9053 210.433 45.5322 210.433 45.0909ZM212.409 48V42.1818H214.591C215.037 42.1818 215.412 42.2595 215.716 42.4148C216.02 42.5701 216.251 42.7879 216.406 43.0682C216.563 43.3466 216.642 43.6714 216.642 44.0426C216.642 44.4157 216.562 44.7396 216.403 45.0142C216.246 45.2869 216.014 45.4981 215.707 45.6477C215.4 45.7955 215.023 45.8693 214.576 45.8693H213.022V44.9943H214.434C214.696 44.9943 214.91 44.9583 215.076 44.8864C215.243 44.8125 215.366 44.7055 215.446 44.5653C215.527 44.4233 215.568 44.2491 215.568 44.0426C215.568 43.8362 215.527 43.66 215.446 43.5142C215.364 43.3665 215.24 43.2547 215.073 43.179C214.907 43.1013 214.692 43.0625 214.429 43.0625H213.463V48H212.409ZM215.414 45.3636L216.855 48H215.679L214.264 45.3636H215.414ZM217.532 48V42.1818H218.586V47.1165H221.148V48H217.532ZM223.955 48H221.983V42.1818H223.994C224.572 42.1818 225.068 42.2983 225.483 42.5312C225.9 42.7623 226.22 43.0947 226.443 43.5284C226.667 43.9621 226.779 44.4811 226.779 45.0852C226.779 45.6913 226.666 46.2121 226.44 46.6477C226.217 47.0833 225.894 47.4176 225.472 47.6506C225.051 47.8835 224.546 48 223.955 48ZM223.037 47.0881H223.904C224.309 47.0881 224.647 47.0142 224.918 46.8665C225.189 46.7169 225.392 46.4943 225.529 46.1989C225.665 45.9015 225.733 45.5303 225.733 45.0852C225.733 44.6402 225.665 44.2708 225.529 43.9773C225.392 43.6818 225.19 43.4612 224.923 43.3153C224.658 43.1676 224.329 43.0938 223.935 43.0938H223.037V47.0881ZM230.658 42.1818V48H229.604V42.1818H230.658ZM233.691 48H231.72V42.1818H233.731C234.309 42.1818 234.805 42.2983 235.22 42.5312C235.636 42.7623 235.956 43.0947 236.18 43.5284C236.403 43.9621 236.515 44.4811 236.515 45.0852C236.515 45.6913 236.402 46.2121 236.177 46.6477C235.954 47.0833 235.631 47.4176 235.208 47.6506C234.788 47.8835 234.282 48 233.691 48ZM232.774 47.0881H233.64C234.045 47.0881 234.383 47.0142 234.654 46.8665C234.925 46.7169 235.129 46.4943 235.265 46.1989C235.401 45.9015 235.47 45.5303 235.47 45.0852C235.47 44.6402 235.401 44.2708 235.265 43.9773C235.129 43.6818 234.927 43.4612 234.66 43.3153C234.395 43.1676 234.065 43.0938 233.671 43.0938H232.774V47.0881Z" fill="url(#paint1_linear_9520_29146)"/>
<path d="M235 11.2005L235 11.5505L235 11.2005ZM236 12.1423L235.65 12.1423L236 12.1423ZM233.65 12.1423C233.65 12.3356 233.807 12.4923 234 12.4923C234.193 12.4923 234.35 12.3356 234.35 12.1423L233.65 12.1423ZM235.722 12.7943L235.476 12.5445V12.5445L235.722 12.7943ZM234.65 13.8672C234.65 14.0605 234.807 14.2172 235 14.2172C235.193 14.2172 235.35 14.0605 235.35 13.8672L234.65 13.8672ZM235.067 13.082L235.088 13.4314L235.067 13.082ZM235 13.1508L234.65 13.1508L235 13.1508ZM235 11.5505C235.379 11.5505 235.65 11.835 235.65 12.1423L236.35 12.1423C236.35 11.4094 235.726 10.8505 235 10.8505L235 11.5505ZM235 10.8505C234.826 10.8505 234.652 10.8829 234.49 10.9461L234.745 11.5983C234.825 11.5669 234.912 11.5505 235 11.5505L235 10.8505ZM234.49 10.9461C234.328 11.0094 234.179 11.1027 234.053 11.2216L234.533 11.7312C234.592 11.6751 234.664 11.6296 234.745 11.5983L234.49 10.9461ZM234.053 11.2216C233.927 11.3405 233.825 11.4828 233.756 11.641L234.397 11.9228C234.427 11.8525 234.473 11.7871 234.533 11.7312L234.053 11.2216ZM233.756 11.641C233.686 11.7992 233.65 11.9697 233.65 12.1423L234.35 12.1423C234.35 12.0676 234.366 11.9931 234.397 11.9228L233.756 11.641ZM235.65 12.1423C235.65 12.2946 235.587 12.4362 235.476 12.5445L235.967 13.0441C236.201 12.814 236.35 12.4961 236.35 12.1423L235.65 12.1423ZM235.476 12.5445C235.369 12.6503 235.218 12.722 235.045 12.7327L235.088 13.4314C235.43 13.4102 235.739 13.2673 235.967 13.0441L235.476 12.5445ZM235.35 13.8672L235.35 13.1508L234.65 13.1508L234.65 13.8672L235.35 13.8672ZM235.045 12.7327C234.838 12.7455 234.65 12.9153 234.65 13.1508L235.35 13.1508C235.35 13.3125 235.222 13.4231 235.088 13.4314L235.045 12.7327Z" fill="#5F57EC"/>
<path fill-rule="evenodd" clip-rule="evenodd" d="M234.997 14.5969C235.19 14.5969 235.348 14.7533 235.348 14.9469C235.348 15.1404 235.193 15.2969 235 15.2969L234.997 15.2969C234.804 15.2969 234.648 15.1404 234.648 14.9469C234.648 14.7533 234.804 14.5969 234.997 14.5969Z" fill="#5F57EC"/>
<circle cx="234.999" cy="13.0026" r="3.66667" stroke="#5F57EC" stroke-width="0.7"/>
<rect x="1" y="1" width="254" height="56" rx="12" stroke="url(#paint2_linear_9520_29146)" stroke-width="2"/>
<defs>
<linearGradient id="paint0_linear_9520_29146" x1="217" y1="12" x2="217" y2="36" gradientUnits="userSpaceOnUse">
<stop stop-color="#4940E0"/>
<stop offset="1" stop-color="#7C74FB"/>
</linearGradient>
<linearGradient id="paint1_linear_9520_29146" x1="217.5" y1="40" x2="217.5" y2="50" gradientUnits="userSpaceOnUse">
<stop stop-color="#4940E0"/>
<stop offset="1" stop-color="#7C74FB"/>
</linearGradient>
<linearGradient id="paint2_linear_9520_29146" x1="0.999999" y1="24.4894" x2="255" y2="24.4894" gradientUnits="userSpaceOnUse">
<stop stop-color="#FF6848"/>
<stop offset="1" stop-color="#4940E0"/>
</linearGradient>
<clipPath id="clip0_9520_29146">
<rect width="24" height="24" fill="white" transform="translate(205 12)"/>
</clipPath>
</defs>
</svg>
