<svg width="100" height="101" viewBox="0 0 100 101" fill="none" xmlns="http://www.w3.org/2000/svg">
<path d="M40.9 5.54256C46.8405 2.11281 54.1595 2.11281 60.1 5.54256L82.4692 18.4574C88.4097 21.8872 92.0692 28.2256 92.0692 35.0851V60.9149C92.0692 67.7744 88.4097 74.1128 82.4692 77.5426L60.1 90.4574C54.1595 93.8872 46.8405 93.8872 40.9 90.4574L18.5308 77.5426C12.5903 74.1128 8.93078 67.7744 8.93078 60.9149V35.0851C8.93078 28.2256 12.5903 21.8872 18.5308 18.4574L40.9 5.54256Z" fill="url(#paint0_linear_15150_60121)"/>
<path d="M25.9574 58L20.3774 36.1H24.7874L29.3174 55.15L28.1474 54.46H31.1474L29.8274 55.15L33.3974 36.94H37.0574L32.6174 58H25.9574ZM39.0374 58L34.2074 36.94H38.0174L42.1274 55.15L40.8374 54.46H43.7774L42.6374 55.15L46.6274 36.1H50.7974L45.8174 58H39.0374ZM53.9631 58V36.1H58.2231V58H53.9631ZM66.9583 58.15V54.73H72.4483C73.4483 54.73 74.2083 54.46 74.7283 53.92C75.2483 53.36 75.5083 52.6 75.5083 51.64C75.5083 50.68 75.2483 49.94 74.7283 49.42C74.2083 48.88 73.4483 48.61 72.4483 48.61H66.9583V46H72.1483C73.6083 46 74.9083 46.18 76.0483 46.54C77.2083 46.88 78.1083 47.46 78.7483 48.28C79.4083 49.1 79.7383 50.2 79.7383 51.58V52C79.7383 53.3 79.4483 54.41 78.8683 55.33C78.3083 56.23 77.4583 56.93 76.3183 57.43C75.1983 57.91 73.8083 58.15 72.1483 58.15H66.9583ZM63.3883 58.15V35.95H67.5583V58.15H63.3883ZM66.9583 47.92V45.31H71.6383C72.6583 45.31 73.4083 45.04 73.8883 44.5C74.3683 43.96 74.6083 43.24 74.6083 42.34C74.6083 41.44 74.3683 40.72 73.8883 40.18C73.4083 39.64 72.6583 39.37 71.6383 39.37H66.9583V35.95H71.2483C73.7283 35.95 75.6083 36.47 76.8883 37.51C78.1883 38.55 78.8383 40.04 78.8383 41.98V42.4C78.8383 43.76 78.5083 44.85 77.8483 45.67C77.2083 46.47 76.3183 47.05 75.1783 47.41C74.0383 47.75 72.7283 47.92 71.2483 47.92H66.9583Z" fill="url(#paint1_linear_15150_60121)"/>
<path d="M48.5 81.1547C49.7376 80.4402 51.2624 80.4402 52.5 81.1547L57.1603 83.8453C58.3979 84.5598 59.1603 85.8803 59.1603 87.3094V92.6906C59.1603 94.1197 58.3979 95.4402 57.1603 96.1547L52.5 98.8453C51.2624 99.5598 49.7376 99.5598 48.5 98.8453L43.8397 96.1547C42.6021 95.4402 41.8397 94.1197 41.8397 92.6906V87.3094C41.8397 85.8803 42.6021 84.5598 43.8397 83.8453L48.5 81.1547Z" fill="white"/>
<path d="M49.4693 91.744C49.4053 91.744 49.3493 91.724 49.3013 91.684C49.2533 91.636 49.2293 91.576 49.2293 91.504C49.2293 91.44 49.2293 91.376 49.2293 91.312C49.2293 91.248 49.2293 91.184 49.2293 91.12C49.2613 90.808 49.3453 90.532 49.4813 90.292C49.6253 90.044 49.7893 89.82 49.9733 89.62C50.1653 89.412 50.3533 89.216 50.5373 89.032C50.7293 88.848 50.8893 88.668 51.0173 88.492C51.1533 88.308 51.2333 88.12 51.2573 87.928C51.2813 87.696 51.2333 87.5 51.1133 87.34C51.0013 87.18 50.8453 87.06 50.6453 86.98C50.4533 86.892 50.2493 86.848 50.0333 86.848C49.6573 86.848 49.3493 86.94 49.1093 87.124C48.8693 87.308 48.7053 87.604 48.6173 88.012C48.5933 88.108 48.5533 88.18 48.4973 88.228C48.4413 88.268 48.3653 88.288 48.2693 88.288H47.2493C47.1773 88.288 47.1133 88.264 47.0573 88.216C47.0093 88.16 46.9853 88.088 46.9853 88C46.9933 87.68 47.0653 87.372 47.2013 87.076C47.3453 86.772 47.5493 86.5 47.8133 86.26C48.0853 86.02 48.4133 85.832 48.7973 85.696C49.1813 85.552 49.6213 85.48 50.1173 85.48C50.6613 85.48 51.1173 85.552 51.4853 85.696C51.8613 85.832 52.1573 86.012 52.3733 86.236C52.5973 86.46 52.7573 86.704 52.8533 86.968C52.9493 87.224 52.9933 87.476 52.9853 87.724C52.9693 88.028 52.9013 88.3 52.7813 88.54C52.6613 88.78 52.5133 89.004 52.3373 89.212C52.1613 89.412 51.9813 89.612 51.7973 89.812C51.6133 90.004 51.4493 90.2 51.3053 90.4C51.1693 90.6 51.0773 90.812 51.0293 91.036C51.0133 91.108 51.0013 91.18 50.9933 91.252C50.9853 91.316 50.9773 91.38 50.9693 91.444C50.9373 91.54 50.8973 91.616 50.8493 91.672C50.8013 91.72 50.7333 91.744 50.6453 91.744H49.4693ZM49.4333 94C49.3533 94 49.2853 93.972 49.2293 93.916C49.1733 93.86 49.1453 93.792 49.1453 93.712V92.668C49.1453 92.58 49.1733 92.508 49.2293 92.452C49.2853 92.396 49.3533 92.368 49.4333 92.368H50.5973C50.6853 92.368 50.7573 92.396 50.8133 92.452C50.8693 92.508 50.8973 92.58 50.8973 92.668V93.712C50.8973 93.792 50.8693 93.86 50.8133 93.916C50.7573 93.972 50.6853 94 50.5973 94H49.4333Z" fill="#858494"/>
<defs>
<linearGradient id="paint0_linear_15150_60121" x1="2.5" y1="40.2675" x2="98.5" y2="40.2675" gradientUnits="userSpaceOnUse">
<stop stop-color="#FFF0ED"/>
<stop offset="1" stop-color="#EDECFC"/>
</linearGradient>
<linearGradient id="paint1_linear_15150_60121" x1="19.5" y1="45.1003" x2="81.5" y2="45.1003" gradientUnits="userSpaceOnUse">
<stop stop-color="#FF6848"/>
<stop offset="1" stop-color="#4940E0"/>
</linearGradient>
</defs>
</svg>
