<svg width="100" height="108" viewBox="0 0 100 108" fill="none" xmlns="http://www.w3.org/2000/svg">
<path d="M59.6 5.40859L81.9692 18.3235C87.6003 21.5746 91.0692 27.5829 91.0692 34.0851V59.9149C91.0692 66.4171 87.6003 72.4254 81.9692 75.6765L59.6 88.5914C53.9689 91.8425 47.0311 91.8425 41.4 88.5914L19.0308 75.6765C13.3997 72.4254 9.93078 66.4171 9.93078 59.9149V34.0851C9.93078 27.5829 13.3997 21.5746 19.0308 18.3235L41.4 5.40859C47.0311 2.15747 53.9689 2.15747 59.6 5.40859Z" fill="#191C20" stroke="#3C4040" stroke-width="2"/>
<path fill-rule="evenodd" clip-rule="evenodd" d="M44.3415 34.1142C46.1639 33.7565 47.9055 33.4147 49.0198 33.1958C49.8346 33.0358 50.6705 33.0358 51.4836 33.1958L55.8576 34.0542C55.8139 33.861 55.7654 33.6679 55.7118 33.4758C55.3303 32.1085 54.7432 30.985 53.9311 30.2215C53.186 29.5209 52.052 28.9296 50.1133 28.9296C48.1745 28.9296 47.0379 29.521 46.2897 30.2232C45.4746 30.9882 44.885 32.1131 44.5008 33.4808C44.4418 33.6911 44.3888 33.9026 44.3415 34.1142ZM38.1442 35.3302C38.2495 34.2701 38.4416 33.0848 38.7799 31.8803C39.3389 29.8901 40.3511 27.6571 42.2194 25.9037C44.1545 24.0875 46.7827 23 50.1133 23C53.4438 23 56.0716 24.0876 58.0051 25.9054C59.8716 27.6603 60.8801 29.8947 61.4355 31.8852C61.7648 33.0656 61.9538 34.2274 62.0584 35.2711L63.6962 35.5925C64.5093 35.843 65.0637 36.5926 65.0637 37.4396V39.9667H65.5848C66.4346 39.9667 67.1253 40.652 67.1253 41.499V42.8991H68.5365C69.0681 42.8991 69.5 43.3287 69.5 43.8574V51.7205C69.5 52.2492 69.0681 52.6788 68.5365 52.6788H67.1236V54.0789C67.1236 54.9242 66.4346 55.6112 65.583 55.6112H65.0444C64.616 64.4552 55.8273 69.059 52.003 70.6504C50.8803 71.1165 49.6213 71.1165 48.4987 70.6504C44.6744 69.0607 35.8856 64.4552 35.4572 55.6112H35.4187C34.5689 55.6112 33.8782 54.9259 33.8782 54.0789H33.2032C32.2624 54.0789 31.5 53.3206 31.5 52.3849V43.193C31.5 42.2573 32.2624 41.499 33.2032 41.499H33.8782C33.8782 40.6537 34.5671 39.9667 35.4187 39.9667H35.4397V37.4396C35.4397 36.5926 35.994 35.8447 36.8072 35.5925C36.8072 35.5925 37.3195 35.492 38.1442 35.3302ZM43.139 55.7973C44.1725 55.7973 45.0101 54.9642 45.0101 53.9363V51.4231C45.0101 50.3952 44.1725 49.5621 43.139 49.5621H42.6442C41.6107 49.5621 40.7731 50.3952 40.7731 51.4231V53.9363C40.7731 54.9642 41.6107 55.7973 42.6442 55.7973H43.139ZM57.3608 55.7973H57.8557C58.8892 55.7973 59.7268 54.9642 59.7268 53.9363V51.4231C59.7268 50.3952 58.8892 49.5621 57.8557 49.5621H57.3608C56.3274 49.5621 55.4898 50.3952 55.4898 51.4231V53.9363C55.4898 54.9642 56.3274 55.7973 57.3608 55.7973Z" fill="url(#paint0_linear_15150_60090)"/>
<rect x="7" y="83.5" width="87" height="24" rx="7.5" fill="#191C20"/>
<g clip-path="url(#clip0_15150_60090)">
<path d="M29.1439 96.8216L30.5 95.5L29.1439 94.1784L29.891 92.4385L28.1324 91.7365L28.1568 89.8432L26.2635 89.8676L25.5615 88.109L23.8216 88.8561L22.5 87.5L21.1784 88.8561L19.4385 88.109L18.7365 89.8676L16.8432 89.8432L16.8676 91.7365L15.109 92.4385L15.8561 94.1784L14.5 95.5L15.8561 96.8216L15.109 98.5615L16.8676 99.2635L16.8432 101.157L18.7365 101.132L19.4385 102.891L21.1784 102.144L22.5 103.5L23.8216 102.144L25.5615 102.891L26.2635 101.132L28.1568 101.157L28.1324 99.2635L29.891 98.5615L29.1439 96.8216ZM20.7251 96.6698H20.298L19.2398 95.356V96.6698H18.7091V94.3723H19.1233L20.1944 95.7217V94.3723H20.7251V96.6698V96.6698ZM22.9417 96.6698H21.327V94.3723H22.9126V94.8382H21.8577V95.2848H22.7637V95.7152H21.8577V96.2038H22.9417V96.6698ZM25.7214 96.6698H25.2781L24.9124 95.7702L24.55 96.6698H24.1034L23.1876 94.3723H23.7637L24.3429 96.0614L24.5694 95.4434L24.1908 94.3755H24.6795L24.9124 95.1101L25.1454 94.3755H25.6373L25.2522 95.4434L25.4852 96.0614L26.0612 94.3723H26.6404L25.7214 96.6698Z" fill="#4940E0"/>
<rect x="17.7344" y="93.2891" width="9.95955" height="4.71011" fill="#4940E0"/>
<g clip-path="url(#clip1_15150_60090)">
<path d="M27.2625 90.875H17.7344V100.403H27.2625V90.875Z" fill="white" fill-opacity="0.01"/>
<path d="M19.7197 95.6413L21.7047 97.6263L25.6748 93.6562" stroke="white" stroke-width="1.98502" stroke-linecap="round" stroke-linejoin="round"/>
</g>
</g>
<path d="M38.6492 100C38.4998 100 38.3832 99.9627 38.2992 99.888C38.2152 99.8133 38.1545 99.72 38.1172 99.608L35.1212 90.62C35.1025 90.5733 35.0932 90.5313 35.0932 90.494C35.0932 90.41 35.1212 90.34 35.1772 90.284C35.2332 90.228 35.3032 90.2 35.3872 90.2H36.6192C36.7498 90.2 36.8478 90.2373 36.9132 90.312C36.9878 90.3773 37.0345 90.4427 37.0532 90.508L39.4192 97.718L41.7712 90.508C41.7992 90.4427 41.8458 90.3773 41.9112 90.312C41.9858 90.2373 42.0885 90.2 42.2192 90.2H43.4512C43.5258 90.2 43.5912 90.228 43.6472 90.284C43.7125 90.34 43.7452 90.41 43.7452 90.494C43.7452 90.5313 43.7358 90.5733 43.7172 90.62L40.7212 99.608C40.6838 99.72 40.6232 99.8133 40.5392 99.888C40.4552 99.9627 40.3385 100 40.1892 100H38.6492ZM47.4565 100.14C46.4205 100.14 45.5992 99.8413 44.9925 99.244C44.3858 98.6467 44.0592 97.7973 44.0125 96.696C44.0032 96.6027 43.9985 96.486 43.9985 96.346C43.9985 96.1967 44.0032 96.08 44.0125 95.996C44.0498 95.296 44.2085 94.6893 44.4885 94.176C44.7778 93.6627 45.1745 93.2707 45.6785 93C46.1825 92.72 46.7752 92.58 47.4565 92.58C48.2125 92.58 48.8472 92.7387 49.3605 93.056C49.8738 93.364 50.2612 93.798 50.5225 94.358C50.7838 94.9087 50.9145 95.548 50.9145 96.276V96.57C50.9145 96.6633 50.8818 96.7427 50.8165 96.808C50.7512 96.8733 50.6672 96.906 50.5645 96.906H45.9165C45.9165 96.906 45.9165 96.92 45.9165 96.948C45.9165 96.976 45.9165 96.9993 45.9165 97.018C45.9258 97.3447 45.9865 97.648 46.0985 97.928C46.2198 98.1987 46.3925 98.418 46.6165 98.586C46.8498 98.754 47.1252 98.838 47.4425 98.838C47.7038 98.838 47.9232 98.8007 48.1005 98.726C48.2778 98.642 48.4225 98.5487 48.5345 98.446C48.6465 98.3433 48.7258 98.2593 48.7725 98.194C48.8565 98.082 48.9218 98.0167 48.9685 97.998C49.0245 97.97 49.1038 97.956 49.2065 97.956H50.4105C50.5038 97.956 50.5785 97.984 50.6345 98.04C50.6998 98.096 50.7278 98.166 50.7185 98.25C50.7092 98.3993 50.6298 98.5813 50.4805 98.796C50.3405 99.0107 50.1352 99.2207 49.8645 99.426C49.5938 99.6313 49.2532 99.804 48.8425 99.944C48.4412 100.075 47.9792 100.14 47.4565 100.14ZM45.9165 95.73H49.0105V95.688C49.0105 95.324 48.9498 95.0067 48.8285 94.736C48.7072 94.4653 48.5298 94.2507 48.2965 94.092C48.0632 93.9333 47.7832 93.854 47.4565 93.854C47.1298 93.854 46.8498 93.9333 46.6165 94.092C46.3832 94.2507 46.2058 94.4653 46.0845 94.736C45.9725 95.0067 45.9165 95.324 45.9165 95.688V95.73ZM52.7366 100C52.6432 100 52.5639 99.9673 52.4986 99.902C52.4332 99.8367 52.4006 99.7573 52.4006 99.664V93.07C52.4006 92.9673 52.4332 92.8833 52.4986 92.818C52.5639 92.7527 52.6432 92.72 52.7366 92.72H53.8706C53.9639 92.72 54.0432 92.7527 54.1086 92.818C54.1832 92.8833 54.2206 92.9673 54.2206 93.07V93.644C54.4352 93.3453 54.7106 93.1167 55.0466 92.958C55.3919 92.7993 55.7886 92.72 56.2366 92.72H56.8106C56.9132 92.72 56.9926 92.7527 57.0486 92.818C57.1139 92.8833 57.1466 92.9627 57.1466 93.056V94.064C57.1466 94.1573 57.1139 94.2367 57.0486 94.302C56.9926 94.3673 56.9132 94.4 56.8106 94.4H55.7186C55.2706 94.4 54.9206 94.526 54.6686 94.778C54.4259 95.03 54.3046 95.3753 54.3046 95.814V99.664C54.3046 99.7573 54.2719 99.8367 54.2066 99.902C54.1412 99.9673 54.0572 100 53.9546 100H52.7366ZM58.5745 100C58.4811 100 58.4018 99.9673 58.3365 99.902C58.2711 99.8367 58.2385 99.7573 58.2385 99.664V93.056C58.2385 92.9627 58.2711 92.8833 58.3365 92.818C58.4018 92.7527 58.4811 92.72 58.5745 92.72H59.7365C59.8391 92.72 59.9185 92.7527 59.9745 92.818C60.0398 92.8833 60.0725 92.9627 60.0725 93.056V99.664C60.0725 99.7573 60.0398 99.8367 59.9745 99.902C59.9185 99.9673 59.8391 100 59.7365 100H58.5745ZM58.5185 91.516C58.4158 91.516 58.3318 91.488 58.2665 91.432C58.2105 91.3667 58.1825 91.2827 58.1825 91.18V90.172C58.1825 90.0787 58.2105 89.9993 58.2665 89.934C58.3318 89.8687 58.4158 89.836 58.5185 89.836H59.7925C59.8951 89.836 59.9791 89.8687 60.0445 89.934C60.1098 89.9993 60.1425 90.0787 60.1425 90.172V91.18C60.1425 91.2827 60.1098 91.3667 60.0445 91.432C59.9791 91.488 59.8951 91.516 59.7925 91.516H58.5185ZM63.0499 100C62.9565 100 62.8772 99.9673 62.8119 99.902C62.7465 99.8367 62.7139 99.7573 62.7139 99.664V94.204H61.5799C61.4865 94.204 61.4072 94.1713 61.3419 94.106C61.2765 94.0407 61.2439 93.9613 61.2439 93.868V93.056C61.2439 92.9627 61.2765 92.8833 61.3419 92.818C61.4072 92.7527 61.4865 92.72 61.5799 92.72H62.7139V92.146C62.7139 91.586 62.8165 91.124 63.0219 90.76C63.2272 90.3867 63.5305 90.1067 63.9319 89.92C64.3332 89.7333 64.8419 89.64 65.4579 89.64H68.3139C68.4165 89.64 68.4959 89.6727 68.5519 89.738C68.6172 89.8033 68.6499 89.8827 68.6499 89.976V90.788C68.6499 90.8813 68.6172 90.9607 68.5519 91.026C68.4959 91.0913 68.4165 91.124 68.3139 91.124H65.5139C65.1405 91.124 64.8839 91.2173 64.7439 91.404C64.6039 91.5907 64.5339 91.8613 64.5339 92.216V92.72H68.3139C68.4165 92.72 68.4959 92.7527 68.5519 92.818C68.6172 92.8833 68.6499 92.9627 68.6499 93.056V99.664C68.6499 99.7573 68.6172 99.8367 68.5519 99.902C68.4959 99.9673 68.4165 100 68.3139 100H67.1799C67.0865 100 67.0072 99.9673 66.9419 99.902C66.8765 99.8367 66.8439 99.7573 66.8439 99.664V94.204H64.5339V99.664C64.5339 99.7573 64.5012 99.8367 64.4359 99.902C64.3705 99.9673 64.2912 100 64.1979 100H63.0499ZM73.6928 100.14C72.6568 100.14 71.8355 99.8413 71.2288 99.244C70.6221 98.6467 70.2955 97.7973 70.2488 96.696C70.2395 96.6027 70.2348 96.486 70.2348 96.346C70.2348 96.1967 70.2395 96.08 70.2488 95.996C70.2861 95.296 70.4448 94.6893 70.7248 94.176C71.0141 93.6627 71.4108 93.2707 71.9148 93C72.4188 92.72 73.0115 92.58 73.6928 92.58C74.4488 92.58 75.0835 92.7387 75.5968 93.056C76.1101 93.364 76.4975 93.798 76.7588 94.358C77.0201 94.9087 77.1508 95.548 77.1508 96.276V96.57C77.1508 96.6633 77.1181 96.7427 77.0528 96.808C76.9875 96.8733 76.9035 96.906 76.8008 96.906H72.1528C72.1528 96.906 72.1528 96.92 72.1528 96.948C72.1528 96.976 72.1528 96.9993 72.1528 97.018C72.1621 97.3447 72.2228 97.648 72.3348 97.928C72.4561 98.1987 72.6288 98.418 72.8528 98.586C73.0861 98.754 73.3615 98.838 73.6788 98.838C73.9401 98.838 74.1595 98.8007 74.3368 98.726C74.5141 98.642 74.6588 98.5487 74.7708 98.446C74.8828 98.3433 74.9621 98.2593 75.0088 98.194C75.0928 98.082 75.1581 98.0167 75.2048 97.998C75.2608 97.97 75.3401 97.956 75.4428 97.956H76.6468C76.7401 97.956 76.8148 97.984 76.8708 98.04C76.9361 98.096 76.9641 98.166 76.9548 98.25C76.9455 98.3993 76.8661 98.5813 76.7168 98.796C76.5768 99.0107 76.3715 99.2207 76.1008 99.426C75.8301 99.6313 75.4895 99.804 75.0788 99.944C74.6775 100.075 74.2155 100.14 73.6928 100.14ZM72.1528 95.73H75.2468V95.688C75.2468 95.324 75.1861 95.0067 75.0648 94.736C74.9435 94.4653 74.7661 94.2507 74.5328 94.092C74.2995 93.9333 74.0195 93.854 73.6928 93.854C73.3661 93.854 73.0861 93.9333 72.8528 94.092C72.6195 94.2507 72.4421 94.4653 72.3208 94.736C72.2088 95.0067 72.1528 95.324 72.1528 95.688V95.73ZM81.3389 100.14C80.8536 100.14 80.4242 100.061 80.0509 99.902C79.6869 99.734 79.3836 99.5007 79.1409 99.202C78.8982 98.9033 78.7116 98.5533 78.5809 98.152C78.4502 97.7413 78.3756 97.2933 78.3569 96.808C78.3476 96.64 78.3429 96.4907 78.3429 96.36C78.3429 96.22 78.3476 96.066 78.3569 95.898C78.3756 95.4313 78.4456 94.9973 78.5669 94.596C78.6976 94.1947 78.8842 93.8447 79.1269 93.546C79.3789 93.238 79.6869 93 80.0509 92.832C80.4242 92.664 80.8536 92.58 81.3389 92.58C81.8429 92.58 82.2676 92.6687 82.6129 92.846C82.9676 93.014 83.2616 93.2333 83.4949 93.504V90.396C83.4949 90.3027 83.5229 90.2233 83.5789 90.158C83.6442 90.0927 83.7282 90.06 83.8309 90.06H85.0209C85.1142 90.06 85.1936 90.0927 85.2589 90.158C85.3242 90.2233 85.3569 90.3027 85.3569 90.396V99.664C85.3569 99.7573 85.3242 99.8367 85.2589 99.902C85.1936 99.9673 85.1142 100 85.0209 100H83.9149C83.8122 100 83.7282 99.9673 83.6629 99.902C83.6069 99.8367 83.5789 99.7573 83.5789 99.664V99.146C83.3456 99.4353 83.0469 99.6733 82.6829 99.86C82.3282 100.047 81.8802 100.14 81.3389 100.14ZM81.8569 98.642C82.2489 98.642 82.5616 98.5533 82.7949 98.376C83.0282 98.1987 83.2009 97.9747 83.3129 97.704C83.4249 97.424 83.4856 97.1393 83.4949 96.85C83.5042 96.682 83.5089 96.5047 83.5089 96.318C83.5089 96.122 83.5042 95.94 83.4949 95.772C83.4856 95.492 83.4202 95.226 83.2989 94.974C83.1776 94.7127 83.0002 94.498 82.7669 94.33C82.5336 94.162 82.2302 94.078 81.8569 94.078C81.4649 94.078 81.1522 94.1667 80.9189 94.344C80.6949 94.512 80.5316 94.736 80.4289 95.016C80.3262 95.296 80.2656 95.604 80.2469 95.94C80.2376 96.22 80.2376 96.5 80.2469 96.78C80.2656 97.116 80.3262 97.424 80.4289 97.704C80.5316 97.984 80.6949 98.2127 80.9189 98.39C81.1522 98.558 81.4649 98.642 81.8569 98.642Z" fill="white"/>
<rect x="7" y="83.5" width="87" height="24" rx="7.5" stroke="#3C4040"/>
<defs>
<linearGradient id="paint0_linear_15150_60090" x1="32.0069" y1="74.4855" x2="76.7795" y2="69.1897" gradientUnits="userSpaceOnUse">
<stop stop-color="#4940E0"/>
<stop offset="1" stop-color="#A39DFF"/>
</linearGradient>
<clipPath id="clip0_15150_60090">
<rect width="16" height="16" fill="white" transform="translate(14.5 87.5)"/>
</clipPath>
<clipPath id="clip1_15150_60090">
<rect width="9.52809" height="9.52809" fill="white" transform="translate(17.7344 90.875)"/>
</clipPath>
</defs>
</svg>
