<svg width="716" height="423" viewBox="0 0 716 423" fill="none" xmlns="http://www.w3.org/2000/svg">
<path d="M16.6638 2.64L12.5358 14H15.2398L16.1198 11.344H20.2958L21.1758 14H23.8798L19.7518 2.64H16.6638ZM17.7678 6.272C17.9278 5.776 18.0878 5.248 18.1838 4.672H18.2158C18.3278 5.248 18.4878 5.776 18.6318 6.272L19.6718 9.44H16.7438L17.7678 6.272ZM27.7261 14V9.68C27.7261 8.448 28.2221 7.76 29.1181 7.76C29.9341 7.76 30.3181 8.288 30.3181 9.392V14H32.8781V9.04C32.8781 6.912 31.9981 5.808 30.2701 5.808C29.0541 5.808 28.1741 6.368 27.6141 7.536V6H25.1501V14H27.7261ZM38.4361 14.192C40.8041 14.192 42.5961 12.736 42.5961 9.984C42.5961 7.232 40.8041 5.808 38.4361 5.808C36.0841 5.808 34.2921 7.232 34.2921 9.984C34.2921 12.736 36.0841 14.192 38.4361 14.192ZM38.4361 12.416C37.4441 12.416 36.8521 11.616 36.8521 9.984C36.8521 8.336 37.4441 7.584 38.4361 7.584C39.4441 7.584 40.0361 8.336 40.0361 9.984C40.0361 11.616 39.4441 12.416 38.4361 12.416ZM46.7105 14V9.68C46.7105 8.448 47.2065 7.76 48.1025 7.76C48.9185 7.76 49.3025 8.288 49.3025 9.392V14H51.8625V9.04C51.8625 6.912 50.9825 5.808 49.2545 5.808C48.0385 5.808 47.1585 6.368 46.5985 7.536V6H44.1345V14H46.7105ZM54.2429 17.2C56.3549 17.2 57.5709 16.416 58.2909 14.352L61.1389 6H58.5629L57.2669 10.864C57.1549 11.264 57.1069 11.52 57.0749 11.792H57.0269C57.0109 11.456 56.9469 11.2 56.8509 10.864L55.4589 6H52.6589L55.7149 13.952L55.6029 14.288C55.3789 15.008 54.8829 15.312 53.9549 15.312C53.7629 15.312 53.5709 15.296 53.1869 15.232V17.104C53.5869 17.168 53.9869 17.2 54.2429 17.2ZM62.322 14H64.898V9.424C64.898 8.352 65.33 7.76 66.098 7.76C66.802 7.76 67.154 8.256 67.154 9.296V14H69.714V9.408C69.714 8.336 70.146 7.76 70.914 7.76C71.65 7.76 71.986 8.24 71.986 9.312V14H74.546V8.768C74.546 6.896 73.634 5.808 72.082 5.808C70.93 5.808 70.098 6.336 69.522 7.456C69.122 6.32 68.386 5.808 67.25 5.808C66.066 5.808 65.298 6.336 64.786 7.44V6H62.322V14ZM80.0924 14.192C82.4604 14.192 84.2524 12.736 84.2524 9.984C84.2524 7.232 82.4604 5.808 80.0924 5.808C77.7404 5.808 75.9484 7.232 75.9484 9.984C75.9484 12.736 77.7404 14.192 80.0924 14.192ZM80.0924 12.416C79.1004 12.416 78.5084 11.616 78.5084 9.984C78.5084 8.336 79.1004 7.584 80.0924 7.584C81.1004 7.584 81.6924 8.336 81.6924 9.984C81.6924 11.616 81.1004 12.416 80.0924 12.416ZM88.3508 14.192C89.5188 14.192 90.4628 13.552 90.8468 12.544V14H93.2948V6H90.7188V10.576C90.7188 11.584 90.2068 12.24 89.3748 12.24C88.6228 12.24 88.2228 11.728 88.2228 10.736V6H85.6628V11.184C85.6628 13.056 86.4628 14.192 88.3508 14.192ZM98.6154 14.192C100.871 14.192 102.167 13.152 102.167 11.552C102.167 10.208 101.463 9.392 99.8154 9.12L98.2314 8.848C97.6074 8.736 97.3674 8.576 97.3674 8.192C97.3674 7.744 97.7194 7.52 98.4714 7.52C99.4954 7.52 100.295 7.856 100.903 8.48L102.231 7.296C101.591 6.352 100.231 5.808 98.6154 5.808C96.4234 5.808 95.1114 6.816 95.1114 8.336C95.1114 9.696 95.9274 10.512 97.5754 10.784L98.8234 11.008C99.7034 11.136 99.9594 11.296 99.9594 11.728C99.9594 12.16 99.5434 12.448 98.6634 12.448C97.5594 12.448 96.7114 12.032 96.1514 11.248L94.6634 12.336C95.4314 13.552 96.8714 14.192 98.6154 14.192ZM107.54 10.032C107.54 12.624 109.332 14.272 112.356 14.272C115.38 14.272 117.172 12.624 117.172 10.032V2.64H114.468V9.92C114.468 11.248 113.684 12.08 112.356 12.08C111.012 12.08 110.244 11.248 110.244 9.92V2.64H107.54V10.032ZM122.459 14.192C124.715 14.192 126.011 13.152 126.011 11.552C126.011 10.208 125.307 9.392 123.659 9.12L122.075 8.848C121.451 8.736 121.211 8.576 121.211 8.192C121.211 7.744 121.563 7.52 122.315 7.52C123.339 7.52 124.139 7.856 124.747 8.48L126.075 7.296C125.435 6.352 124.075 5.808 122.459 5.808C120.267 5.808 118.955 6.816 118.955 8.336C118.955 9.696 119.771 10.512 121.419 10.784L122.667 11.008C123.547 11.136 123.803 11.296 123.803 11.728C123.803 12.16 123.387 12.448 122.507 12.448C121.403 12.448 120.555 12.032 119.995 11.248L118.507 12.336C119.275 13.552 120.715 14.192 122.459 14.192ZM134.948 9.808C134.948 7.264 133.54 5.808 131.028 5.808C128.532 5.808 126.964 7.456 126.964 10.08C126.964 12.672 128.564 14.192 131.204 14.192C132.868 14.192 134.228 13.408 134.868 12.096L132.98 11.232C132.612 11.968 132.02 12.352 131.236 12.352C130.148 12.352 129.428 11.664 129.396 10.576H134.948V9.808ZM129.412 9.136C129.428 8 129.988 7.328 130.98 7.328C131.94 7.328 132.468 7.936 132.468 9.072V9.136H129.412ZM138.972 6H136.556V14H139.132V10.736C139.132 9.92 139.26 9.2 139.772 8.72C140.124 8.416 140.636 8.24 141.324 8.24C141.516 8.24 141.644 8.24 141.804 8.256V5.808H141.644C140.268 5.808 139.388 6.624 138.972 8.064V6ZM153.167 14L156.991 2.64H154.111L151.999 9.968C151.791 10.64 151.695 11.088 151.631 11.536H151.567C151.519 11.088 151.407 10.64 151.215 9.968L149.103 2.64H146.223L150.047 14H153.167ZM161.061 14.192C163.429 14.192 165.221 12.736 165.221 9.984C165.221 7.232 163.429 5.808 161.061 5.808C158.709 5.808 156.917 7.232 156.917 9.984C156.917 12.736 158.709 14.192 161.061 14.192ZM161.061 12.416C160.069 12.416 159.477 11.616 159.477 9.984C159.477 8.336 160.069 7.584 161.061 7.584C162.069 7.584 162.661 8.336 162.661 9.984C162.661 11.616 162.069 12.416 161.061 12.416ZM167.113 7.712V11.424C167.113 13.184 167.993 14.144 170.121 14.144C170.585 14.144 170.985 14.096 171.577 13.984V11.952C171.337 12 171.145 12.032 170.841 12.032C170.073 12.032 169.673 11.616 169.673 10.816V7.712H171.577V6H169.673V3.088L167.113 4.08V6H165.721V7.712H167.113ZM175.68 4.848V2.512H173.008V4.848H175.68ZM175.632 14V6H173.056V14H175.632ZM180.351 14V9.68C180.351 8.448 180.847 7.76 181.743 7.76C182.559 7.76 182.943 8.288 182.943 9.392V14H185.503V9.04C185.503 6.912 184.623 5.808 182.895 5.808C181.679 5.808 180.799 6.368 180.239 7.536V6H177.775V14H180.351ZM195.429 4.656C195.317 4.64 195.221 4.64 195.109 4.64C193.845 4.64 193.061 5.184 192.773 6.096C192.261 5.904 191.637 5.808 190.933 5.808C188.677 5.808 187.285 6.864 187.285 8.48C187.285 9.392 187.733 10.144 188.517 10.624C187.605 10.96 187.077 11.584 187.077 12.448C187.077 13.136 187.445 13.664 188.181 13.936C187.269 14.24 186.805 14.752 186.805 15.392C186.805 16.528 188.069 17.312 190.741 17.312C193.749 17.312 195.349 16.208 195.349 14.384C195.349 12.864 194.341 12.048 192.389 12.048H190.149C189.397 12.048 189.061 11.792 189.061 11.392C189.061 11.216 189.141 11.072 189.285 10.976C189.765 11.12 190.325 11.2 190.933 11.2C193.205 11.2 194.597 10.112 194.597 8.48C194.597 7.696 194.261 7.04 193.669 6.576C193.925 6.384 194.277 6.288 194.709 6.288C194.949 6.288 195.173 6.32 195.429 6.368V4.656ZM190.933 9.888C190.197 9.888 189.701 9.296 189.701 8.48C189.701 7.664 190.197 7.12 190.933 7.12C191.685 7.12 192.181 7.664 192.181 8.48C192.181 9.312 191.685 9.888 190.933 9.888ZM192.117 14.192C192.853 14.192 193.205 14.448 193.205 14.96C193.205 15.536 192.501 15.904 190.853 15.904C189.525 15.904 188.709 15.6 188.709 14.896C188.709 14.608 188.805 14.352 189.029 14.144C189.205 14.16 189.397 14.176 189.605 14.176L192.117 14.192Z" fill="#191C20"/>
<path d="M54.9989 154.998C85.374 154.998 109.998 130.374 109.998 99.9989C109.998 69.6238 85.374 45 54.9989 45C24.6238 45 0 69.6238 0 99.9989C0 130.374 24.6238 154.998 54.9989 154.998Z" fill="#F3F4F5"/>
<path d="M33.3853 89.72C33.4273 89.51 33.4553 89.342 33.4693 89.132H33.5253C33.5393 89.342 33.5673 89.51 33.6093 89.72L35.2753 97H37.3753L39.7413 87.06H37.9073L36.3953 94.34C36.3393 94.634 36.3253 94.816 36.3113 95.012H36.2693C36.2553 94.816 36.2273 94.634 36.1573 94.34L34.4073 87.06H32.5873L30.8373 94.34C30.7673 94.634 30.7393 94.816 30.7253 95.012H30.6833C30.6693 94.816 30.6553 94.634 30.5993 94.34L29.0873 87.06H27.2533L29.6193 97H31.7193L33.3853 89.72ZM43.5265 97.168C45.5425 97.168 46.9565 95.838 46.9565 93.486C46.9565 91.148 45.5425 89.832 43.5265 89.832C41.5105 89.832 40.0965 91.148 40.0965 93.486C40.0965 95.838 41.5105 97.168 43.5265 97.168ZM43.5265 95.894C42.4485 95.894 41.8045 95.082 41.8045 93.486C41.8045 91.89 42.4485 91.106 43.5265 91.106C44.6045 91.106 45.2345 91.89 45.2345 93.486C45.2345 95.082 44.6045 95.894 43.5265 95.894ZM50.1821 90H48.6141V97H50.2941V94.074C50.2941 93.29 50.3641 92.492 50.9241 91.946C51.2461 91.638 51.7081 91.456 52.3801 91.456H52.6041V89.846C52.5341 89.832 52.4781 89.832 52.4081 89.832C51.2741 89.832 50.5321 90.588 50.1821 91.694V90ZM53.9872 86.85V97H55.6672V86.85H53.9872ZM60.1513 97.168C61.2013 97.168 61.9993 96.636 62.3913 95.74V97H63.9733V86.85H62.2933V90.994C61.8873 90.21 61.2013 89.832 60.2773 89.832C58.5273 89.832 57.3233 91.33 57.3233 93.514C57.3233 95.698 58.4573 97.168 60.1513 97.168ZM60.7253 95.88C59.7033 95.88 59.0733 94.984 59.0733 93.486C59.0733 91.988 59.6893 91.12 60.7113 91.12C61.7193 91.12 62.3353 91.918 62.3353 93.29V93.738C62.3353 95.054 61.7053 95.88 60.7253 95.88ZM71.6825 97V87.06H69.8765V97H71.6825ZM77.6982 97C80.6522 97 82.5422 94.928 82.5422 91.988C82.5422 89.048 80.6382 87.06 77.7262 87.06H74.1422V97H77.6982ZM75.9482 88.474H77.6702C79.6162 88.474 80.6522 89.972 80.6522 91.988C80.6522 93.962 79.5742 95.586 77.6422 95.586H75.9482V88.474ZM40.6358 104.06V108.218H36.1698V104.06H34.3638V114H36.1698V109.66H40.6358V114H42.4418V104.06H40.6358ZM47.6349 114.168C49.6509 114.168 51.0649 112.838 51.0649 110.486C51.0649 108.148 49.6509 106.832 47.6349 106.832C45.6189 106.832 44.2049 108.148 44.2049 110.486C44.2049 112.838 45.6189 114.168 47.6349 114.168ZM47.6349 112.894C46.5569 112.894 45.9129 112.082 45.9129 110.486C45.9129 108.89 46.5569 108.106 47.6349 108.106C48.7129 108.106 49.3429 108.89 49.3429 110.486C49.3429 112.082 48.7129 112.894 47.6349 112.894ZM52.7225 103.85V114H54.4025V103.85H52.7225ZM58.8867 114.168C59.9367 114.168 60.7347 113.636 61.1267 112.74V114H62.7087V103.85H61.0287V107.994C60.6227 107.21 59.9367 106.832 59.0127 106.832C57.2627 106.832 56.0587 108.33 56.0587 110.514C56.0587 112.698 57.1927 114.168 58.8867 114.168ZM59.4607 112.88C58.4387 112.88 57.8087 111.984 57.8087 110.486C57.8087 108.988 58.4247 108.12 59.4467 108.12C60.4547 108.12 61.0707 108.918 61.0707 110.29V110.738C61.0707 112.054 60.4407 112.88 59.4607 112.88ZM70.8952 110.15C70.8952 108.008 69.7332 106.832 67.7032 106.832C65.6172 106.832 64.3572 108.26 64.3572 110.57C64.3572 112.866 65.6452 114.168 67.7872 114.168C69.2152 114.168 70.3212 113.496 70.8392 112.278L69.5512 111.69C69.2292 112.446 68.6412 112.852 67.8432 112.852C66.7372 112.852 65.9952 112.096 65.9812 110.92H70.8952V110.15ZM65.9812 109.814C66.0092 108.652 66.6112 107.952 67.6752 107.952C68.6692 107.952 69.2432 108.554 69.2432 109.702V109.814H65.9812ZM74.1831 107H72.6151V114H74.2951V111.074C74.2951 110.29 74.3651 109.492 74.9251 108.946C75.2471 108.638 75.7091 108.456 76.3811 108.456H76.6051V106.846C76.5351 106.832 76.4791 106.832 76.4091 106.832C75.2751 106.832 74.5331 107.588 74.1831 108.694V107Z" fill="#191C20"/>
<path d="M305.019 248.492L352.977 275.997V220.979L305 193.502L305.019 248.492Z" fill="#F3F4F5"/>
<path d="M352.977 275.999L401 248.366V193.412L352.977 220.981V275.999Z" fill="#D6D9DD"/>
<path d="M305 193.505L353.135 166L401 193.412L352.977 220.981L305 193.505Z" fill="#191C20"/>
<path d="M333.745 296.06L330.063 306H331.897L332.793 303.382H336.671L337.567 306H339.415L335.719 296.06H333.745ZM334.417 298.65C334.529 298.328 334.627 297.978 334.725 297.586H334.753C334.837 297.978 334.935 298.328 335.047 298.65L336.195 302.01H333.269L334.417 298.65ZM343.427 306.168C345.093 306.168 346.269 305.216 346.521 303.662L344.939 303.34C344.785 304.32 344.267 304.838 343.427 304.838C342.349 304.838 341.719 303.97 341.719 302.458C341.719 301.016 342.363 300.148 343.399 300.148C344.225 300.148 344.771 300.666 344.883 301.618L346.521 301.352C346.311 299.756 345.177 298.832 343.441 298.832C341.313 298.832 339.997 300.218 339.997 302.5C339.997 304.726 341.341 306.168 343.427 306.168ZM348.412 300.218V303.83C348.412 305.244 348.972 306.126 350.652 306.126C351.086 306.126 351.394 306.084 351.8 306V304.586C351.576 304.628 351.394 304.67 351.114 304.67C350.414 304.67 350.092 304.306 350.092 303.564V300.218H351.8V299H350.092V296.564L348.412 297.236V299H347.152V300.218H348.412ZM355.091 297.838V296.088H353.271V297.838H355.091ZM355.021 306V299H353.341V306H355.021ZM360.093 306.168C362.109 306.168 363.523 304.838 363.523 302.486C363.523 300.148 362.109 298.832 360.093 298.832C358.077 298.832 356.663 300.148 356.663 302.486C356.663 304.838 358.077 306.168 360.093 306.168ZM360.093 304.894C359.015 304.894 358.371 304.082 358.371 302.486C358.371 300.89 359.015 300.106 360.093 300.106C361.171 300.106 361.801 300.89 361.801 302.486C361.801 304.082 361.171 304.894 360.093 304.894ZM366.861 306V302.29C366.861 300.96 367.449 300.176 368.429 300.176C369.311 300.176 369.731 300.722 369.731 301.828V306H371.425V301.66C371.425 299.784 370.627 298.832 369.101 298.832C368.023 298.832 367.253 299.336 366.777 300.358V299H365.181V306H366.861ZM373.255 299.42V301.366H375.243V299.42H373.255ZM373.255 304.054V306H375.243V304.054H373.255Z" fill="#191C20"/>
<rect x="292.5" y="317.5" width="121" height="21" rx="7.5" fill="#F8FAFC"/>
<path d="M299.766 325.776H300.886V326.952H300.942C301.408 326.056 302.15 325.608 303.168 325.608C304.054 325.608 304.745 325.939 305.24 326.602C305.744 327.265 305.996 328.193 305.996 329.388C305.996 330.583 305.744 331.511 305.24 332.174C304.745 332.837 304.054 333.168 303.168 333.168C302.15 333.168 301.408 332.72 300.942 331.824H300.886V335.8H299.766V325.776ZM302.734 332.174C303.387 332.174 303.891 331.978 304.246 331.586C304.61 331.185 304.792 330.657 304.792 330.004V328.772C304.792 328.119 304.61 327.596 304.246 327.204C303.891 326.803 303.387 326.602 302.734 326.602C302.482 326.602 302.244 326.635 302.02 326.7C301.796 326.765 301.6 326.863 301.432 326.994C301.264 327.115 301.128 327.269 301.026 327.456C300.932 327.633 300.886 327.843 300.886 328.086V330.69C300.886 330.933 300.932 331.147 301.026 331.334C301.128 331.511 301.264 331.665 301.432 331.796C301.6 331.917 301.796 332.011 302.02 332.076C302.244 332.141 302.482 332.174 302.734 332.174ZM311.03 333.168C310.526 333.168 310.069 333.079 309.658 332.902C309.257 332.725 308.911 332.473 308.622 332.146C308.342 331.81 308.127 331.413 307.978 330.956C307.829 330.489 307.754 329.967 307.754 329.388C307.754 328.819 307.829 328.301 307.978 327.834C308.127 327.367 308.342 326.971 308.622 326.644C308.911 326.308 309.257 326.051 309.658 325.874C310.069 325.697 310.526 325.608 311.03 325.608C311.534 325.608 311.987 325.697 312.388 325.874C312.799 326.051 313.144 326.308 313.424 326.644C313.713 326.971 313.933 327.367 314.082 327.834C314.231 328.301 314.306 328.819 314.306 329.388C314.306 329.967 314.231 330.489 314.082 330.956C313.933 331.413 313.713 331.81 313.424 332.146C313.144 332.473 312.799 332.725 312.388 332.902C311.987 333.079 311.534 333.168 311.03 333.168ZM311.03 332.202C311.655 332.202 312.159 332.015 312.542 331.642C312.925 331.269 313.116 330.69 313.116 329.906V328.87C313.116 328.086 312.925 327.507 312.542 327.134C312.159 326.761 311.655 326.574 311.03 326.574C310.405 326.574 309.901 326.761 309.518 327.134C309.135 327.507 308.944 328.086 308.944 328.87V329.906C308.944 330.69 309.135 331.269 309.518 331.642C309.901 332.015 310.405 332.202 311.03 332.202ZM316.345 332.048H318.865V323.592H316.345V322.64H319.985V332.048H322.505V333H316.345V332.048ZM324.739 332.048H327.259V323.592H324.739V322.64H328.379V332.048H330.899V333H324.739V332.048ZM332.854 335.366V334.33H339.574V335.366H332.854ZM341.598 333V331.978H344.398V324.096H344.3L341.836 326.392L341.15 325.65L343.74 323.228H345.574V331.978H348.15V333H341.598ZM349.643 335.366V334.33H356.363V335.366H349.643ZM360.683 333L358.093 325.776H359.227L360.263 328.8L361.383 332.062H361.439L362.559 328.8L363.595 325.776H364.701L362.111 333H360.683ZM369.792 333.168C369.288 333.168 368.83 333.079 368.42 332.902C368.018 332.725 367.673 332.473 367.384 332.146C367.104 331.81 366.889 331.413 366.74 330.956C366.59 330.489 366.516 329.967 366.516 329.388C366.516 328.819 366.59 328.301 366.74 327.834C366.889 327.367 367.104 326.971 367.384 326.644C367.673 326.308 368.018 326.051 368.42 325.874C368.83 325.697 369.288 325.608 369.792 325.608C370.296 325.608 370.748 325.697 371.15 325.874C371.56 326.051 371.906 326.308 372.186 326.644C372.475 326.971 372.694 327.367 372.844 327.834C372.993 328.301 373.068 328.819 373.068 329.388C373.068 329.967 372.993 330.489 372.844 330.956C372.694 331.413 372.475 331.81 372.186 332.146C371.906 332.473 371.56 332.725 371.15 332.902C370.748 333.079 370.296 333.168 369.792 333.168ZM369.792 332.202C370.417 332.202 370.921 332.015 371.304 331.642C371.686 331.269 371.878 330.69 371.878 329.906V328.87C371.878 328.086 371.686 327.507 371.304 327.134C370.921 326.761 370.417 326.574 369.792 326.574C369.166 326.574 368.662 326.761 368.28 327.134C367.897 327.507 367.706 328.086 367.706 328.87V329.906C367.706 330.69 367.897 331.269 368.28 331.642C368.662 332.015 369.166 332.202 369.792 332.202ZM378.536 333C377.986 333 377.58 332.846 377.318 332.538C377.066 332.23 376.94 331.833 376.94 331.348V326.728H374.532V325.776H376.324C376.567 325.776 376.735 325.729 376.828 325.636C376.931 325.533 376.982 325.361 376.982 325.118V323.228H378.06V325.776H381.35V326.728H378.06V332.048H381.35V333H378.536ZM386.707 333.168C386.184 333.168 385.713 333.079 385.293 332.902C384.882 332.725 384.528 332.473 384.229 332.146C383.94 331.81 383.716 331.413 383.557 330.956C383.398 330.489 383.319 329.971 383.319 329.402C383.319 328.823 383.398 328.301 383.557 327.834C383.725 327.367 383.954 326.971 384.243 326.644C384.532 326.308 384.878 326.051 385.279 325.874C385.69 325.697 386.142 325.608 386.637 325.608C387.122 325.608 387.561 325.697 387.953 325.874C388.354 326.051 388.695 326.299 388.975 326.616C389.255 326.924 389.47 327.293 389.619 327.722C389.768 328.151 389.843 328.623 389.843 329.136V329.668H384.495V330.004C384.495 330.321 384.546 330.615 384.649 330.886C384.752 331.157 384.896 331.39 385.083 331.586C385.279 331.782 385.512 331.936 385.783 332.048C386.063 332.151 386.371 332.202 386.707 332.202C387.192 332.202 387.612 332.09 387.967 331.866C388.322 331.642 388.592 331.334 388.779 330.942L389.605 331.502C389.39 331.987 389.031 332.389 388.527 332.706C388.032 333.014 387.426 333.168 386.707 333.168ZM386.637 326.532C386.329 326.532 386.044 326.588 385.783 326.7C385.522 326.812 385.293 326.966 385.097 327.162C384.91 327.358 384.761 327.591 384.649 327.862C384.546 328.123 384.495 328.413 384.495 328.73V328.828H388.639V328.674C388.639 328.357 388.588 328.067 388.485 327.806C388.392 327.545 388.256 327.321 388.079 327.134C387.911 326.938 387.701 326.789 387.449 326.686C387.206 326.583 386.936 326.532 386.637 326.532ZM391.615 335.366V334.33H398.335V335.366H391.615ZM406.1 333C405.661 333 405.349 332.888 405.162 332.664C404.975 332.44 404.859 332.16 404.812 331.824H404.742C404.583 332.244 404.327 332.575 403.972 332.818C403.627 333.051 403.16 333.168 402.572 333.168C401.816 333.168 401.214 332.972 400.766 332.58C400.318 332.188 400.094 331.651 400.094 330.97C400.094 330.298 400.337 329.78 400.822 329.416C401.317 329.052 402.11 328.87 403.202 328.87H404.742V328.156C404.742 327.624 404.593 327.227 404.294 326.966C403.995 326.695 403.571 326.56 403.02 326.56C402.535 326.56 402.138 326.658 401.83 326.854C401.522 327.041 401.275 327.297 401.088 327.624L400.332 327.064C400.425 326.877 400.551 326.695 400.71 326.518C400.869 326.341 401.065 326.187 401.298 326.056C401.531 325.916 401.797 325.809 402.096 325.734C402.395 325.65 402.726 325.608 403.09 325.608C403.939 325.608 404.611 325.823 405.106 326.252C405.61 326.681 405.862 327.279 405.862 328.044V332.02H406.87V333H406.1ZM402.768 332.23C403.057 332.23 403.319 332.197 403.552 332.132C403.795 332.057 404.005 331.964 404.182 331.852C404.359 331.731 404.495 331.591 404.588 331.432C404.691 331.264 404.742 331.087 404.742 330.9V329.71H403.202C402.53 329.71 402.04 329.803 401.732 329.99C401.424 330.177 401.27 330.447 401.27 330.802V331.096C401.27 331.469 401.401 331.754 401.662 331.95C401.933 332.137 402.301 332.23 402.768 332.23Z" fill="#191C20"/>
<rect x="292.5" y="317.5" width="121" height="21" rx="7.5" stroke="#D6D9DD"/>
<rect x="290" y="355" width="126" height="68" rx="8" fill="#F3F4F5"/>
<path d="M307.796 381L311.198 371.06H309.266L307.138 377.948C306.956 378.536 306.858 378.928 306.802 379.306H306.746C306.676 378.928 306.578 378.536 306.396 377.948L304.268 371.06H302.35L305.738 381H307.796ZM314.894 381.168C316.91 381.168 318.324 379.838 318.324 377.486C318.324 375.148 316.91 373.832 314.894 373.832C312.878 373.832 311.464 375.148 311.464 377.486C311.464 379.838 312.878 381.168 314.894 381.168ZM314.894 379.894C313.816 379.894 313.172 379.082 313.172 377.486C313.172 375.89 313.816 375.106 314.894 375.106C315.972 375.106 316.602 375.89 316.602 377.486C316.602 379.082 315.972 379.894 314.894 379.894ZM320.248 375.218V378.83C320.248 380.244 320.808 381.126 322.488 381.126C322.922 381.126 323.23 381.084 323.636 381V379.586C323.412 379.628 323.23 379.67 322.95 379.67C322.25 379.67 321.928 379.306 321.928 378.564V375.218H323.636V374H321.928V371.564L320.248 372.236V374H318.988V375.218H320.248ZM331.058 377.15C331.058 375.008 329.896 373.832 327.866 373.832C325.78 373.832 324.52 375.26 324.52 377.57C324.52 379.866 325.808 381.168 327.95 381.168C329.378 381.168 330.484 380.496 331.002 379.278L329.714 378.69C329.392 379.446 328.804 379.852 328.006 379.852C326.9 379.852 326.158 379.096 326.144 377.92H331.058V377.15ZM326.144 376.814C326.172 375.652 326.774 374.952 327.838 374.952C328.832 374.952 329.406 375.554 329.406 376.702V376.814H326.144ZM334.346 374H332.778V381H334.458V378.074C334.458 377.29 334.528 376.492 335.088 375.946C335.41 375.638 335.872 375.456 336.544 375.456H336.768V373.846C336.698 373.832 336.642 373.832 336.572 373.832C335.438 373.832 334.696 374.588 334.346 375.694V374ZM340.659 381.168C342.493 381.168 343.529 380.272 343.529 378.956C343.529 377.85 342.955 377.178 341.597 376.94L340.225 376.688C339.609 376.576 339.301 376.366 339.301 375.89C339.301 375.344 339.735 375.05 340.519 375.05C341.443 375.05 342.059 375.442 342.395 376.072L343.571 375.442C343.235 374.434 342.101 373.832 340.617 373.832C338.839 373.832 337.761 374.728 337.761 375.988C337.761 377.108 338.447 377.794 339.763 378.032L341.009 378.256C341.695 378.368 342.003 378.564 342.003 379.068C342.003 379.572 341.555 379.936 340.701 379.936C339.707 379.936 339.007 379.488 338.685 378.704L337.439 379.264C337.873 380.496 339.063 381.168 340.659 381.168ZM344.968 374.42V376.366H346.956V374.42H344.968ZM344.968 379.054V381H346.956V379.054H344.968Z" fill="#191C20"/>
<path d="M306.452 408.21C308.916 408.21 310.204 406.25 310.204 403.142C310.204 400.02 308.916 398.06 306.452 398.06C303.988 398.06 302.7 400.02 302.7 403.142C302.7 406.25 303.988 408.21 306.452 408.21ZM306.452 407.16C304.772 407.16 303.96 405.606 303.96 403.142C303.96 400.664 304.772 399.11 306.452 399.11C308.132 399.11 308.944 400.664 308.944 403.142C308.944 405.606 308.132 407.16 306.452 407.16ZM312.524 408L313.952 405.844C314.204 405.466 314.33 405.228 314.358 405.13H314.372C314.4 405.242 314.54 405.508 314.764 405.844L316.206 408H317.62L315.128 404.472L317.438 401H315.982L314.778 402.974C314.568 403.324 314.442 403.562 314.386 403.702H314.372C314.33 403.576 314.204 403.352 313.966 402.974L312.692 401H311.292L313.644 404.388L311.11 408H312.524ZM326.753 408L322.987 398.06H321.671L317.905 408H319.277L320.299 405.13H324.359L325.381 408H326.753ZM322.077 400.132C322.161 399.908 322.231 399.67 322.315 399.376H322.343C322.427 399.67 322.497 399.908 322.581 400.132L323.967 404.01H320.691L322.077 400.132ZM333.686 404.01C333.686 401.91 332.594 400.832 330.704 400.832C328.702 400.832 327.526 402.246 327.526 404.584C327.526 406.894 328.716 408.168 330.718 408.168C332.132 408.168 333.154 407.496 333.644 406.222L332.664 405.788C332.356 406.642 331.698 407.118 330.802 407.118C329.556 407.118 328.73 406.222 328.716 404.85H333.686V404.01ZM328.716 403.884C328.744 402.568 329.444 401.77 330.676 401.77C331.824 401.77 332.482 402.442 332.482 403.73V403.884H328.716ZM339.877 402.778C340.969 402.428 341.557 401.658 341.557 400.538C341.557 399.026 340.339 398.06 338.449 398.06C336.573 398.06 335.313 399.068 335.313 400.566C335.313 401.672 335.803 402.386 336.923 402.89C335.635 403.282 334.949 404.15 334.949 405.48C334.949 407.132 336.349 408.21 338.477 408.21C340.563 408.21 341.921 407.09 341.921 405.396C341.921 404.094 341.319 403.31 339.877 402.778ZM338.407 399.012C339.597 399.012 340.297 399.6 340.297 400.594C340.297 401.476 339.891 401.966 338.715 402.414L338.225 402.26C337.063 401.91 336.573 401.406 336.573 400.566C336.573 399.6 337.273 399.012 338.407 399.012ZM338.477 407.202C337.119 407.202 336.223 406.446 336.223 405.298C336.223 404.304 336.727 403.716 338.015 403.268L338.939 403.562C340.143 403.954 340.661 404.5 340.661 405.396C340.661 406.53 339.849 407.202 338.477 407.202ZM346.388 408.21C348.446 408.21 349.762 406.81 349.762 404.766C349.762 402.666 348.642 401.364 346.794 401.364C345.744 401.364 344.96 401.812 344.498 402.666L344.862 399.362H349.286V398.27H343.91L343.336 403.912L344.54 404.038C344.806 403.016 345.45 402.414 346.486 402.414C347.83 402.414 348.502 403.38 348.502 404.836C348.502 406.264 347.746 407.132 346.458 407.132C345.324 407.132 344.68 406.432 344.484 405.466L343.182 405.62C343.434 407.202 344.666 408.21 346.388 408.21ZM351.105 406.348V408H352.743V406.348H351.105ZM354.701 406.348V408H356.339V406.348H354.701ZM358.296 406.348V408H359.934V406.348H358.296Z" fill="#657080"/>
<path d="M455.019 248.492L502.977 275.997V220.979L455 193.502L455.019 248.492Z" fill="#F3F4F5"/>
<path d="M502.977 275.999L551 248.366V193.412L502.977 220.981V275.999Z" fill="#D6D9DD"/>
<path d="M455 193.505L503.135 166L551 193.412L502.977 220.981L455 193.505Z" fill="#191C20"/>
<path d="M483.745 296.06L480.063 306H481.897L482.793 303.382H486.671L487.567 306H489.415L485.719 296.06H483.745ZM484.417 298.65C484.529 298.328 484.627 297.978 484.725 297.586H484.753C484.837 297.978 484.935 298.328 485.047 298.65L486.195 302.01H483.269L484.417 298.65ZM493.427 306.168C495.093 306.168 496.269 305.216 496.521 303.662L494.939 303.34C494.785 304.32 494.267 304.838 493.427 304.838C492.349 304.838 491.719 303.97 491.719 302.458C491.719 301.016 492.363 300.148 493.399 300.148C494.225 300.148 494.771 300.666 494.883 301.618L496.521 301.352C496.311 299.756 495.177 298.832 493.441 298.832C491.313 298.832 489.997 300.218 489.997 302.5C489.997 304.726 491.341 306.168 493.427 306.168ZM498.412 300.218V303.83C498.412 305.244 498.972 306.126 500.652 306.126C501.086 306.126 501.394 306.084 501.8 306V304.586C501.576 304.628 501.394 304.67 501.114 304.67C500.414 304.67 500.092 304.306 500.092 303.564V300.218H501.8V299H500.092V296.564L498.412 297.236V299H497.152V300.218H498.412ZM505.091 297.838V296.088H503.271V297.838H505.091ZM505.021 306V299H503.341V306H505.021ZM510.093 306.168C512.109 306.168 513.523 304.838 513.523 302.486C513.523 300.148 512.109 298.832 510.093 298.832C508.077 298.832 506.663 300.148 506.663 302.486C506.663 304.838 508.077 306.168 510.093 306.168ZM510.093 304.894C509.015 304.894 508.371 304.082 508.371 302.486C508.371 300.89 509.015 300.106 510.093 300.106C511.171 300.106 511.801 300.89 511.801 302.486C511.801 304.082 511.171 304.894 510.093 304.894ZM516.861 306V302.29C516.861 300.96 517.449 300.176 518.429 300.176C519.311 300.176 519.731 300.722 519.731 301.828V306H521.425V301.66C521.425 299.784 520.627 298.832 519.101 298.832C518.023 298.832 517.253 299.336 516.777 300.358V299H515.181V306H516.861ZM523.255 299.42V301.366H525.243V299.42H523.255ZM523.255 304.054V306H525.243V304.054H523.255Z" fill="#191C20"/>
<rect x="442.5" y="317.5" width="121" height="21" rx="7.5" fill="#F8FAFC"/>
<path d="M449.766 325.776H450.886V326.952H450.942C451.408 326.056 452.15 325.608 453.168 325.608C454.054 325.608 454.745 325.939 455.24 326.602C455.744 327.265 455.996 328.193 455.996 329.388C455.996 330.583 455.744 331.511 455.24 332.174C454.745 332.837 454.054 333.168 453.168 333.168C452.15 333.168 451.408 332.72 450.942 331.824H450.886V335.8H449.766V325.776ZM452.734 332.174C453.387 332.174 453.891 331.978 454.246 331.586C454.61 331.185 454.792 330.657 454.792 330.004V328.772C454.792 328.119 454.61 327.596 454.246 327.204C453.891 326.803 453.387 326.602 452.734 326.602C452.482 326.602 452.244 326.635 452.02 326.7C451.796 326.765 451.6 326.863 451.432 326.994C451.264 327.115 451.128 327.269 451.026 327.456C450.932 327.633 450.886 327.843 450.886 328.086V330.69C450.886 330.933 450.932 331.147 451.026 331.334C451.128 331.511 451.264 331.665 451.432 331.796C451.6 331.917 451.796 332.011 452.02 332.076C452.244 332.141 452.482 332.174 452.734 332.174ZM461.03 333.168C460.526 333.168 460.069 333.079 459.658 332.902C459.257 332.725 458.911 332.473 458.622 332.146C458.342 331.81 458.127 331.413 457.978 330.956C457.829 330.489 457.754 329.967 457.754 329.388C457.754 328.819 457.829 328.301 457.978 327.834C458.127 327.367 458.342 326.971 458.622 326.644C458.911 326.308 459.257 326.051 459.658 325.874C460.069 325.697 460.526 325.608 461.03 325.608C461.534 325.608 461.987 325.697 462.388 325.874C462.799 326.051 463.144 326.308 463.424 326.644C463.713 326.971 463.933 327.367 464.082 327.834C464.231 328.301 464.306 328.819 464.306 329.388C464.306 329.967 464.231 330.489 464.082 330.956C463.933 331.413 463.713 331.81 463.424 332.146C463.144 332.473 462.799 332.725 462.388 332.902C461.987 333.079 461.534 333.168 461.03 333.168ZM461.03 332.202C461.655 332.202 462.159 332.015 462.542 331.642C462.925 331.269 463.116 330.69 463.116 329.906V328.87C463.116 328.086 462.925 327.507 462.542 327.134C462.159 326.761 461.655 326.574 461.03 326.574C460.405 326.574 459.901 326.761 459.518 327.134C459.135 327.507 458.944 328.086 458.944 328.87V329.906C458.944 330.69 459.135 331.269 459.518 331.642C459.901 332.015 460.405 332.202 461.03 332.202ZM466.345 332.048H468.865V323.592H466.345V322.64H469.985V332.048H472.505V333H466.345V332.048ZM474.739 332.048H477.259V323.592H474.739V322.64H478.379V332.048H480.899V333H474.739V332.048ZM482.854 335.366V334.33H489.574V335.366H482.854ZM497.926 333H491.402V331.796L494.664 328.856C495.14 328.427 495.532 327.988 495.84 327.54C496.148 327.083 496.302 326.602 496.302 326.098V325.93C496.302 325.342 496.148 324.889 495.84 324.572C495.532 324.245 495.075 324.082 494.468 324.082C493.871 324.082 493.409 324.236 493.082 324.544C492.765 324.843 492.527 325.244 492.368 325.748L491.318 325.356C491.412 325.067 491.538 324.787 491.696 324.516C491.864 324.236 492.074 323.989 492.326 323.774C492.578 323.559 492.882 323.387 493.236 323.256C493.6 323.125 494.02 323.06 494.496 323.06C494.982 323.06 495.411 323.13 495.784 323.27C496.167 323.41 496.484 323.606 496.736 323.858C496.998 324.11 497.194 324.409 497.324 324.754C497.464 325.099 497.534 325.477 497.534 325.888C497.534 326.261 497.478 326.611 497.366 326.938C497.264 327.265 497.114 327.577 496.918 327.876C496.732 328.175 496.503 328.469 496.232 328.758C495.971 329.038 495.677 329.318 495.35 329.598L492.62 331.978H497.926V333ZM499.643 335.366V334.33H506.363V335.366H499.643ZM510.683 333L508.093 325.776H509.227L510.263 328.8L511.383 332.062H511.439L512.559 328.8L513.595 325.776H514.701L512.111 333H510.683ZM519.792 333.168C519.288 333.168 518.83 333.079 518.42 332.902C518.018 332.725 517.673 332.473 517.384 332.146C517.104 331.81 516.889 331.413 516.74 330.956C516.59 330.489 516.516 329.967 516.516 329.388C516.516 328.819 516.59 328.301 516.74 327.834C516.889 327.367 517.104 326.971 517.384 326.644C517.673 326.308 518.018 326.051 518.42 325.874C518.83 325.697 519.288 325.608 519.792 325.608C520.296 325.608 520.748 325.697 521.15 325.874C521.56 326.051 521.906 326.308 522.186 326.644C522.475 326.971 522.694 327.367 522.844 327.834C522.993 328.301 523.068 328.819 523.068 329.388C523.068 329.967 522.993 330.489 522.844 330.956C522.694 331.413 522.475 331.81 522.186 332.146C521.906 332.473 521.56 332.725 521.15 332.902C520.748 333.079 520.296 333.168 519.792 333.168ZM519.792 332.202C520.417 332.202 520.921 332.015 521.304 331.642C521.686 331.269 521.878 330.69 521.878 329.906V328.87C521.878 328.086 521.686 327.507 521.304 327.134C520.921 326.761 520.417 326.574 519.792 326.574C519.166 326.574 518.662 326.761 518.28 327.134C517.897 327.507 517.706 328.086 517.706 328.87V329.906C517.706 330.69 517.897 331.269 518.28 331.642C518.662 332.015 519.166 332.202 519.792 332.202ZM528.536 333C527.986 333 527.58 332.846 527.318 332.538C527.066 332.23 526.94 331.833 526.94 331.348V326.728H524.532V325.776H526.324C526.567 325.776 526.735 325.729 526.828 325.636C526.931 325.533 526.982 325.361 526.982 325.118V323.228H528.06V325.776H531.35V326.728H528.06V332.048H531.35V333H528.536ZM536.707 333.168C536.184 333.168 535.713 333.079 535.293 332.902C534.882 332.725 534.528 332.473 534.229 332.146C533.94 331.81 533.716 331.413 533.557 330.956C533.398 330.489 533.319 329.971 533.319 329.402C533.319 328.823 533.398 328.301 533.557 327.834C533.725 327.367 533.954 326.971 534.243 326.644C534.532 326.308 534.878 326.051 535.279 325.874C535.69 325.697 536.142 325.608 536.637 325.608C537.122 325.608 537.561 325.697 537.953 325.874C538.354 326.051 538.695 326.299 538.975 326.616C539.255 326.924 539.47 327.293 539.619 327.722C539.768 328.151 539.843 328.623 539.843 329.136V329.668H534.495V330.004C534.495 330.321 534.546 330.615 534.649 330.886C534.752 331.157 534.896 331.39 535.083 331.586C535.279 331.782 535.512 331.936 535.783 332.048C536.063 332.151 536.371 332.202 536.707 332.202C537.192 332.202 537.612 332.09 537.967 331.866C538.322 331.642 538.592 331.334 538.779 330.942L539.605 331.502C539.39 331.987 539.031 332.389 538.527 332.706C538.032 333.014 537.426 333.168 536.707 333.168ZM536.637 326.532C536.329 326.532 536.044 326.588 535.783 326.7C535.522 326.812 535.293 326.966 535.097 327.162C534.91 327.358 534.761 327.591 534.649 327.862C534.546 328.123 534.495 328.413 534.495 328.73V328.828H538.639V328.674C538.639 328.357 538.588 328.067 538.485 327.806C538.392 327.545 538.256 327.321 538.079 327.134C537.911 326.938 537.701 326.789 537.449 326.686C537.206 326.583 536.936 326.532 536.637 326.532ZM541.615 335.366V334.33H548.335V335.366H541.615ZM553.622 333.168C553.099 333.168 552.633 333.079 552.222 332.902C551.821 332.715 551.48 332.459 551.2 332.132C550.92 331.805 550.705 331.409 550.556 330.942C550.416 330.475 550.346 329.957 550.346 329.388C550.346 328.819 550.421 328.301 550.57 327.834C550.719 327.367 550.934 326.971 551.214 326.644C551.494 326.308 551.835 326.051 552.236 325.874C552.637 325.697 553.095 325.608 553.608 325.608C554.308 325.608 554.877 325.762 555.316 326.07C555.755 326.378 556.077 326.779 556.282 327.274L555.386 327.75C555.255 327.377 555.036 327.087 554.728 326.882C554.429 326.677 554.056 326.574 553.608 326.574C553.281 326.574 552.987 326.63 552.726 326.742C552.474 326.845 552.259 326.994 552.082 327.19C551.905 327.386 551.769 327.619 551.676 327.89C551.592 328.161 551.55 328.455 551.55 328.772V330.004C551.55 330.321 551.592 330.615 551.676 330.886C551.769 331.157 551.905 331.39 552.082 331.586C552.259 331.782 552.479 331.936 552.74 332.048C553.001 332.151 553.3 332.202 553.636 332.202C554.121 332.202 554.523 332.09 554.84 331.866C555.157 331.642 555.409 331.334 555.596 330.942L556.394 331.488C556.179 331.973 555.843 332.375 555.386 332.692C554.938 333.009 554.35 333.168 553.622 333.168Z" fill="#191C20"/>
<rect x="442.5" y="317.5" width="121" height="21" rx="7.5" stroke="#D6D9DD"/>
<rect x="440" y="355" width="126" height="68" rx="8" fill="#F3F4F5"/>
<path d="M457.796 381L461.198 371.06H459.266L457.138 377.948C456.956 378.536 456.858 378.928 456.802 379.306H456.746C456.676 378.928 456.578 378.536 456.396 377.948L454.268 371.06H452.35L455.738 381H457.796ZM464.894 381.168C466.91 381.168 468.324 379.838 468.324 377.486C468.324 375.148 466.91 373.832 464.894 373.832C462.878 373.832 461.464 375.148 461.464 377.486C461.464 379.838 462.878 381.168 464.894 381.168ZM464.894 379.894C463.816 379.894 463.172 379.082 463.172 377.486C463.172 375.89 463.816 375.106 464.894 375.106C465.972 375.106 466.602 375.89 466.602 377.486C466.602 379.082 465.972 379.894 464.894 379.894ZM470.248 375.218V378.83C470.248 380.244 470.808 381.126 472.488 381.126C472.922 381.126 473.23 381.084 473.636 381V379.586C473.412 379.628 473.23 379.67 472.95 379.67C472.25 379.67 471.928 379.306 471.928 378.564V375.218H473.636V374H471.928V371.564L470.248 372.236V374H468.988V375.218H470.248ZM481.058 377.15C481.058 375.008 479.896 373.832 477.866 373.832C475.78 373.832 474.52 375.26 474.52 377.57C474.52 379.866 475.808 381.168 477.95 381.168C479.378 381.168 480.484 380.496 481.002 379.278L479.714 378.69C479.392 379.446 478.804 379.852 478.006 379.852C476.9 379.852 476.158 379.096 476.144 377.92H481.058V377.15ZM476.144 376.814C476.172 375.652 476.774 374.952 477.838 374.952C478.832 374.952 479.406 375.554 479.406 376.702V376.814H476.144ZM484.346 374H482.778V381H484.458V378.074C484.458 377.29 484.528 376.492 485.088 375.946C485.41 375.638 485.872 375.456 486.544 375.456H486.768V373.846C486.698 373.832 486.642 373.832 486.572 373.832C485.438 373.832 484.696 374.588 484.346 375.694V374ZM490.659 381.168C492.493 381.168 493.529 380.272 493.529 378.956C493.529 377.85 492.955 377.178 491.597 376.94L490.225 376.688C489.609 376.576 489.301 376.366 489.301 375.89C489.301 375.344 489.735 375.05 490.519 375.05C491.443 375.05 492.059 375.442 492.395 376.072L493.571 375.442C493.235 374.434 492.101 373.832 490.617 373.832C488.839 373.832 487.761 374.728 487.761 375.988C487.761 377.108 488.447 377.794 489.763 378.032L491.009 378.256C491.695 378.368 492.003 378.564 492.003 379.068C492.003 379.572 491.555 379.936 490.701 379.936C489.707 379.936 489.007 379.488 488.685 378.704L487.439 379.264C487.873 380.496 489.063 381.168 490.659 381.168ZM494.968 374.42V376.366H496.956V374.42H494.968ZM494.968 379.054V381H496.956V379.054H494.968Z" fill="#191C20"/>
<path d="M456.452 408.21C458.916 408.21 460.204 406.25 460.204 403.142C460.204 400.02 458.916 398.06 456.452 398.06C453.988 398.06 452.7 400.02 452.7 403.142C452.7 406.25 453.988 408.21 456.452 408.21ZM456.452 407.16C454.772 407.16 453.96 405.606 453.96 403.142C453.96 400.664 454.772 399.11 456.452 399.11C458.132 399.11 458.944 400.664 458.944 403.142C458.944 405.606 458.132 407.16 456.452 407.16ZM462.524 408L463.952 405.844C464.204 405.466 464.33 405.228 464.358 405.13H464.372C464.4 405.242 464.54 405.508 464.764 405.844L466.206 408H467.62L465.128 404.472L467.438 401H465.982L464.778 402.974C464.568 403.324 464.442 403.562 464.386 403.702H464.372C464.33 403.576 464.204 403.352 463.966 402.974L462.692 401H461.292L463.644 404.388L461.11 408H462.524ZM470.628 408V407.762C470.628 404.878 471.762 401.826 474.072 399.25V398.27H467.772V399.432H472.644C470.488 402.12 469.242 404.962 469.242 407.86V408H470.628ZM478.891 408.168C480.641 408.168 481.775 406.684 481.775 404.5C481.775 402.358 480.669 400.832 478.961 400.832C477.869 400.832 477.099 401.434 476.735 402.218V397.85H475.545V408H476.455L476.665 406.796C477.029 407.608 477.827 408.168 478.891 408.168ZM478.569 407.118C477.393 407.118 476.707 406.166 476.707 404.71V404.346C476.707 402.82 477.407 401.882 478.583 401.882C479.829 401.882 480.515 402.932 480.515 404.5C480.515 406.096 479.787 407.118 478.569 407.118ZM489.966 398.06H483.806V408H485.136V403.464H489.728V402.344H485.136V399.18H489.966V398.06ZM494.404 398.06C492.43 398.06 491.156 399.418 491.156 401.252C491.156 403.296 492.5 404.374 494.278 404.374C495.3 404.374 496.14 403.968 496.63 403.128C496.602 405.564 496.014 407.16 494.446 407.16C493.242 407.16 492.724 406.446 492.528 405.382L491.268 405.662C491.576 407.3 492.654 408.21 494.432 408.21C496.924 408.21 497.89 405.914 497.89 402.946C497.89 399.74 496.77 398.06 494.404 398.06ZM494.404 403.324C493.242 403.324 492.416 402.54 492.416 401.238C492.416 399.964 493.2 399.11 494.39 399.11C495.944 399.11 496.476 400.328 496.602 401.49C496.378 402.526 495.454 403.324 494.404 403.324ZM499.3 406.348V408H500.938V406.348H499.3ZM502.896 406.348V408H504.534V406.348H502.896ZM506.492 406.348V408H508.13V406.348H506.492Z" fill="#657080"/>
<path d="M605.019 248.492L652.977 275.997V220.979L605 193.502L605.019 248.492Z" fill="#F3F4F5"/>
<path d="M652.977 275.999L701 248.366V193.412L652.977 220.981V275.999Z" fill="#D6D9DD"/>
<path d="M605 193.505L653.135 166L701 193.412L652.977 220.981L605 193.505Z" fill="#191C20"/>
<path d="M633.745 296.06L630.063 306H631.897L632.793 303.382H636.671L637.567 306H639.415L635.719 296.06H633.745ZM634.417 298.65C634.529 298.328 634.627 297.978 634.725 297.586H634.753C634.837 297.978 634.935 298.328 635.047 298.65L636.195 302.01H633.269L634.417 298.65ZM643.427 306.168C645.093 306.168 646.269 305.216 646.521 303.662L644.939 303.34C644.785 304.32 644.267 304.838 643.427 304.838C642.349 304.838 641.719 303.97 641.719 302.458C641.719 301.016 642.363 300.148 643.399 300.148C644.225 300.148 644.771 300.666 644.883 301.618L646.521 301.352C646.311 299.756 645.177 298.832 643.441 298.832C641.313 298.832 639.997 300.218 639.997 302.5C639.997 304.726 641.341 306.168 643.427 306.168ZM648.412 300.218V303.83C648.412 305.244 648.972 306.126 650.652 306.126C651.086 306.126 651.394 306.084 651.8 306V304.586C651.576 304.628 651.394 304.67 651.114 304.67C650.414 304.67 650.092 304.306 650.092 303.564V300.218H651.8V299H650.092V296.564L648.412 297.236V299H647.152V300.218H648.412ZM655.091 297.838V296.088H653.271V297.838H655.091ZM655.021 306V299H653.341V306H655.021ZM660.093 306.168C662.109 306.168 663.523 304.838 663.523 302.486C663.523 300.148 662.109 298.832 660.093 298.832C658.077 298.832 656.663 300.148 656.663 302.486C656.663 304.838 658.077 306.168 660.093 306.168ZM660.093 304.894C659.015 304.894 658.371 304.082 658.371 302.486C658.371 300.89 659.015 300.106 660.093 300.106C661.171 300.106 661.801 300.89 661.801 302.486C661.801 304.082 661.171 304.894 660.093 304.894ZM666.861 306V302.29C666.861 300.96 667.449 300.176 668.429 300.176C669.311 300.176 669.731 300.722 669.731 301.828V306H671.425V301.66C671.425 299.784 670.627 298.832 669.101 298.832C668.023 298.832 667.253 299.336 666.777 300.358V299H665.181V306H666.861ZM673.255 299.42V301.366H675.243V299.42H673.255ZM673.255 304.054V306H675.243V304.054H673.255Z" fill="#191C20"/>
<rect x="592.5" y="317.5" width="121" height="21" rx="7.5" fill="#F8FAFC"/>
<path d="M599.766 325.776H600.886V326.952H600.942C601.408 326.056 602.15 325.608 603.168 325.608C604.054 325.608 604.745 325.939 605.24 326.602C605.744 327.265 605.996 328.193 605.996 329.388C605.996 330.583 605.744 331.511 605.24 332.174C604.745 332.837 604.054 333.168 603.168 333.168C602.15 333.168 601.408 332.72 600.942 331.824H600.886V335.8H599.766V325.776ZM602.734 332.174C603.387 332.174 603.891 331.978 604.246 331.586C604.61 331.185 604.792 330.657 604.792 330.004V328.772C604.792 328.119 604.61 327.596 604.246 327.204C603.891 326.803 603.387 326.602 602.734 326.602C602.482 326.602 602.244 326.635 602.02 326.7C601.796 326.765 601.6 326.863 601.432 326.994C601.264 327.115 601.128 327.269 601.026 327.456C600.932 327.633 600.886 327.843 600.886 328.086V330.69C600.886 330.933 600.932 331.147 601.026 331.334C601.128 331.511 601.264 331.665 601.432 331.796C601.6 331.917 601.796 332.011 602.02 332.076C602.244 332.141 602.482 332.174 602.734 332.174ZM611.03 333.168C610.526 333.168 610.069 333.079 609.658 332.902C609.257 332.725 608.911 332.473 608.622 332.146C608.342 331.81 608.127 331.413 607.978 330.956C607.829 330.489 607.754 329.967 607.754 329.388C607.754 328.819 607.829 328.301 607.978 327.834C608.127 327.367 608.342 326.971 608.622 326.644C608.911 326.308 609.257 326.051 609.658 325.874C610.069 325.697 610.526 325.608 611.03 325.608C611.534 325.608 611.987 325.697 612.388 325.874C612.799 326.051 613.144 326.308 613.424 326.644C613.713 326.971 613.933 327.367 614.082 327.834C614.231 328.301 614.306 328.819 614.306 329.388C614.306 329.967 614.231 330.489 614.082 330.956C613.933 331.413 613.713 331.81 613.424 332.146C613.144 332.473 612.799 332.725 612.388 332.902C611.987 333.079 611.534 333.168 611.03 333.168ZM611.03 332.202C611.655 332.202 612.159 332.015 612.542 331.642C612.925 331.269 613.116 330.69 613.116 329.906V328.87C613.116 328.086 612.925 327.507 612.542 327.134C612.159 326.761 611.655 326.574 611.03 326.574C610.405 326.574 609.901 326.761 609.518 327.134C609.135 327.507 608.944 328.086 608.944 328.87V329.906C608.944 330.69 609.135 331.269 609.518 331.642C609.901 332.015 610.405 332.202 611.03 332.202ZM616.345 332.048H618.865V323.592H616.345V322.64H619.985V332.048H622.505V333H616.345V332.048ZM624.739 332.048H627.259V323.592H624.739V322.64H628.379V332.048H630.899V333H624.739V332.048ZM632.854 335.366V334.33H639.574V335.366H632.854ZM647.926 333H641.402V331.796L644.664 328.856C645.14 328.427 645.532 327.988 645.84 327.54C646.148 327.083 646.302 326.602 646.302 326.098V325.93C646.302 325.342 646.148 324.889 645.84 324.572C645.532 324.245 645.075 324.082 644.468 324.082C643.871 324.082 643.409 324.236 643.082 324.544C642.765 324.843 642.527 325.244 642.368 325.748L641.318 325.356C641.412 325.067 641.538 324.787 641.696 324.516C641.864 324.236 642.074 323.989 642.326 323.774C642.578 323.559 642.882 323.387 643.236 323.256C643.6 323.125 644.02 323.06 644.496 323.06C644.982 323.06 645.411 323.13 645.784 323.27C646.167 323.41 646.484 323.606 646.736 323.858C646.998 324.11 647.194 324.409 647.324 324.754C647.464 325.099 647.534 325.477 647.534 325.888C647.534 326.261 647.478 326.611 647.366 326.938C647.264 327.265 647.114 327.577 646.918 327.876C646.732 328.175 646.503 328.469 646.232 328.758C645.971 329.038 645.677 329.318 645.35 329.598L642.62 331.978H647.926V333ZM649.643 335.366V334.33H656.363V335.366H649.643ZM660.683 333L658.093 325.776H659.227L660.263 328.8L661.383 332.062H661.439L662.559 328.8L663.595 325.776H664.701L662.111 333H660.683ZM669.792 333.168C669.288 333.168 668.83 333.079 668.42 332.902C668.018 332.725 667.673 332.473 667.384 332.146C667.104 331.81 666.889 331.413 666.74 330.956C666.59 330.489 666.516 329.967 666.516 329.388C666.516 328.819 666.59 328.301 666.74 327.834C666.889 327.367 667.104 326.971 667.384 326.644C667.673 326.308 668.018 326.051 668.42 325.874C668.83 325.697 669.288 325.608 669.792 325.608C670.296 325.608 670.748 325.697 671.15 325.874C671.56 326.051 671.906 326.308 672.186 326.644C672.475 326.971 672.694 327.367 672.844 327.834C672.993 328.301 673.068 328.819 673.068 329.388C673.068 329.967 672.993 330.489 672.844 330.956C672.694 331.413 672.475 331.81 672.186 332.146C671.906 332.473 671.56 332.725 671.15 332.902C670.748 333.079 670.296 333.168 669.792 333.168ZM669.792 332.202C670.417 332.202 670.921 332.015 671.304 331.642C671.686 331.269 671.878 330.69 671.878 329.906V328.87C671.878 328.086 671.686 327.507 671.304 327.134C670.921 326.761 670.417 326.574 669.792 326.574C669.166 326.574 668.662 326.761 668.28 327.134C667.897 327.507 667.706 328.086 667.706 328.87V329.906C667.706 330.69 667.897 331.269 668.28 331.642C668.662 332.015 669.166 332.202 669.792 332.202ZM678.536 333C677.986 333 677.58 332.846 677.318 332.538C677.066 332.23 676.94 331.833 676.94 331.348V326.728H674.532V325.776H676.324C676.567 325.776 676.735 325.729 676.828 325.636C676.931 325.533 676.982 325.361 676.982 325.118V323.228H678.06V325.776H681.35V326.728H678.06V332.048H681.35V333H678.536ZM686.707 333.168C686.184 333.168 685.713 333.079 685.293 332.902C684.882 332.725 684.528 332.473 684.229 332.146C683.94 331.81 683.716 331.413 683.557 330.956C683.398 330.489 683.319 329.971 683.319 329.402C683.319 328.823 683.398 328.301 683.557 327.834C683.725 327.367 683.954 326.971 684.243 326.644C684.532 326.308 684.878 326.051 685.279 325.874C685.69 325.697 686.142 325.608 686.637 325.608C687.122 325.608 687.561 325.697 687.953 325.874C688.354 326.051 688.695 326.299 688.975 326.616C689.255 326.924 689.47 327.293 689.619 327.722C689.768 328.151 689.843 328.623 689.843 329.136V329.668H684.495V330.004C684.495 330.321 684.546 330.615 684.649 330.886C684.752 331.157 684.896 331.39 685.083 331.586C685.279 331.782 685.512 331.936 685.783 332.048C686.063 332.151 686.371 332.202 686.707 332.202C687.192 332.202 687.612 332.09 687.967 331.866C688.322 331.642 688.592 331.334 688.779 330.942L689.605 331.502C689.39 331.987 689.031 332.389 688.527 332.706C688.032 333.014 687.426 333.168 686.707 333.168ZM686.637 326.532C686.329 326.532 686.044 326.588 685.783 326.7C685.522 326.812 685.293 326.966 685.097 327.162C684.91 327.358 684.761 327.591 684.649 327.862C684.546 328.123 684.495 328.413 684.495 328.73V328.828H688.639V328.674C688.639 328.357 688.588 328.067 688.485 327.806C688.392 327.545 688.256 327.321 688.079 327.134C687.911 326.938 687.701 326.789 687.449 326.686C687.206 326.583 686.936 326.532 686.637 326.532ZM691.615 335.366V334.33H698.335V335.366H691.615ZM700.5 322.64H701.62V326.952H701.676C702.143 326.056 702.885 325.608 703.902 325.608C704.789 325.608 705.479 325.939 705.974 326.602C706.478 327.265 706.73 328.193 706.73 329.388C706.73 330.583 706.478 331.511 705.974 332.174C705.479 332.837 704.789 333.168 703.902 333.168C702.885 333.168 702.143 332.72 701.676 331.824H701.62V333H700.5V322.64ZM703.468 332.174C704.121 332.174 704.625 331.978 704.98 331.586C705.344 331.185 705.526 330.657 705.526 330.004V328.772C705.526 328.119 705.344 327.596 704.98 327.204C704.625 326.803 704.121 326.602 703.468 326.602C703.216 326.602 702.978 326.635 702.754 326.7C702.53 326.765 702.334 326.863 702.166 326.994C701.998 327.115 701.863 327.269 701.76 327.456C701.667 327.633 701.62 327.843 701.62 328.086V330.69C701.62 330.933 701.667 331.147 701.76 331.334C701.863 331.511 701.998 331.665 702.166 331.796C702.334 331.917 702.53 332.011 702.754 332.076C702.978 332.141 703.216 332.174 703.468 332.174Z" fill="#191C20"/>
<rect x="592.5" y="317.5" width="121" height="21" rx="7.5" stroke="#D6D9DD"/>
<rect x="590" y="355" width="126" height="68" rx="8" fill="#F3F4F5"/>
<path d="M614.296 381L617.698 371.06H615.766L613.638 377.948C613.456 378.536 613.358 378.928 613.302 379.306H613.246C613.176 378.928 613.078 378.536 612.896 377.948L610.768 371.06H608.85L612.238 381H614.296ZM621.394 381.168C623.41 381.168 624.824 379.838 624.824 377.486C624.824 375.148 623.41 373.832 621.394 373.832C619.378 373.832 617.964 375.148 617.964 377.486C617.964 379.838 619.378 381.168 621.394 381.168ZM621.394 379.894C620.316 379.894 619.672 379.082 619.672 377.486C619.672 375.89 620.316 375.106 621.394 375.106C622.472 375.106 623.102 375.89 623.102 377.486C623.102 379.082 622.472 379.894 621.394 379.894ZM626.748 375.218V378.83C626.748 380.244 627.308 381.126 628.988 381.126C629.422 381.126 629.73 381.084 630.136 381V379.586C629.912 379.628 629.73 379.67 629.45 379.67C628.75 379.67 628.428 379.306 628.428 378.564V375.218H630.136V374H628.428V371.564L626.748 372.236V374H625.488V375.218H626.748ZM637.558 377.15C637.558 375.008 636.396 373.832 634.366 373.832C632.28 373.832 631.02 375.26 631.02 377.57C631.02 379.866 632.308 381.168 634.45 381.168C635.878 381.168 636.984 380.496 637.502 379.278L636.214 378.69C635.892 379.446 635.304 379.852 634.506 379.852C633.4 379.852 632.658 379.096 632.644 377.92H637.558V377.15ZM632.644 376.814C632.672 375.652 633.274 374.952 634.338 374.952C635.332 374.952 635.906 375.554 635.906 376.702V376.814H632.644ZM640.846 374H639.278V381H640.958V378.074C640.958 377.29 641.028 376.492 641.588 375.946C641.91 375.638 642.372 375.456 643.044 375.456H643.268V373.846C643.198 373.832 643.142 373.832 643.072 373.832C641.938 373.832 641.196 374.588 640.846 375.694V374ZM647.159 381.168C648.993 381.168 650.029 380.272 650.029 378.956C650.029 377.85 649.455 377.178 648.097 376.94L646.725 376.688C646.109 376.576 645.801 376.366 645.801 375.89C645.801 375.344 646.235 375.05 647.019 375.05C647.943 375.05 648.559 375.442 648.895 376.072L650.071 375.442C649.735 374.434 648.601 373.832 647.117 373.832C645.339 373.832 644.261 374.728 644.261 375.988C644.261 377.108 644.947 377.794 646.263 378.032L647.509 378.256C648.195 378.368 648.503 378.564 648.503 379.068C648.503 379.572 648.055 379.936 647.201 379.936C646.207 379.936 645.507 379.488 645.185 378.704L643.939 379.264C644.373 380.496 645.563 381.168 647.159 381.168ZM651.468 374.42V376.366H653.456V374.42H651.468ZM651.468 379.054V381H653.456V379.054H651.468Z" fill="#191C20"/>
<path d="M612.952 408.21C615.416 408.21 616.704 406.25 616.704 403.142C616.704 400.02 615.416 398.06 612.952 398.06C610.488 398.06 609.2 400.02 609.2 403.142C609.2 406.25 610.488 408.21 612.952 408.21ZM612.952 407.16C611.272 407.16 610.46 405.606 610.46 403.142C610.46 400.664 611.272 399.11 612.952 399.11C614.632 399.11 615.444 400.664 615.444 403.142C615.444 405.606 614.632 407.16 612.952 407.16ZM619.024 408L620.452 405.844C620.704 405.466 620.83 405.228 620.858 405.13H620.872C620.9 405.242 621.04 405.508 621.264 405.844L622.706 408H624.12L621.628 404.472L623.938 401H622.482L621.278 402.974C621.068 403.324 620.942 403.562 620.886 403.702H620.872C620.83 403.576 620.704 403.352 620.466 402.974L619.192 401H617.792L620.144 404.388L617.61 408H619.024ZM629.442 408.238C631.836 408.238 633.04 406.754 633.418 404.878L632.13 404.654C631.85 406.138 630.856 407.076 629.442 407.076C627.412 407.076 626.362 405.312 626.362 402.988C626.362 400.58 627.468 398.956 629.414 398.956C630.954 398.956 631.864 399.95 632.06 401.448L633.418 401.308C633.166 399.25 631.906 397.822 629.484 397.822C626.53 397.822 624.962 399.95 624.962 403.002C624.962 405.886 626.362 408.238 629.442 408.238ZM637.747 408L639.077 402.96C639.133 402.736 639.203 402.386 639.231 402.176H639.259C639.287 402.386 639.357 402.736 639.413 402.96L640.743 408H642.045L644.019 401H642.787L641.527 405.998C641.471 406.25 641.415 406.544 641.373 406.824H641.345C641.303 406.544 641.219 406.25 641.163 405.998L639.889 401H638.601L637.327 405.998C637.271 406.25 637.187 406.544 637.145 406.824H637.117C637.075 406.544 637.019 406.25 636.963 405.998L635.703 401H634.471L636.445 408H637.747ZM648.309 408.21C650.339 408.21 651.613 407.104 651.613 405.242C651.613 403.856 650.871 403.086 649.513 402.848C650.605 402.582 651.277 401.728 651.277 400.608C651.277 399.026 650.171 398.06 648.267 398.06C646.279 398.06 645.047 399.208 645.047 401.084L646.223 401.336C646.223 399.894 646.937 399.11 648.197 399.11C649.345 399.11 650.017 399.712 650.017 400.748C650.017 401.784 649.415 402.428 648.113 402.428H647.623V403.464H648.169C649.625 403.464 650.353 404.108 650.353 405.27C650.353 406.502 649.667 407.16 648.351 407.16C647.007 407.16 646.153 406.39 646.097 405.074L644.865 405.228C644.921 407.048 646.279 408.21 648.309 408.21ZM654.684 401H653.578V408H654.768V405.004C654.768 404.164 654.796 403.226 655.468 402.554C655.804 402.218 656.28 402.008 657.008 402.008H657.064V400.846C656.98 400.832 656.896 400.832 656.812 400.832C655.748 400.832 655.02 401.616 654.684 402.596V401ZM657.605 406.348V408H659.243V406.348H657.605ZM661.201 406.348V408H662.839V406.348H661.201ZM664.796 406.348V408H666.434V406.348H664.796Z" fill="#657080"/>
<path fill-rule="evenodd" clip-rule="evenodd" d="M126.5 101C126.224 101 126 101.224 126 101.5C126 101.776 126.224 102 126.5 102H127.497V101L126.5 101ZM129.491 102L131.486 102V101L129.491 101V102ZM133.48 102L135.474 102V101L133.48 101V102ZM137.469 102L139.463 102V101L137.469 101V102ZM141.457 102L143.452 102V101L141.457 101V102ZM145.446 102L147.44 102V101L145.446 101V102ZM149.435 102L151.429 102V101L149.435 101V102ZM153.423 102L155.418 102V101L153.423 101V102ZM157.412 102L159.406 102V101L157.412 101V102ZM161.401 102L163.395 102V101L161.401 101V102ZM165.389 102L167.384 102V101L165.389 101V102ZM169.378 102L171.372 102V101L169.378 101V102ZM173.367 102L175.361 102V101L173.367 101V102ZM177.355 102L179.35 102V101L177.355 101V102ZM181.344 102L183.338 102V101L181.344 101V102ZM185.333 102L187.327 102V101L185.333 101V102ZM189.321 102L191.316 102V101L189.321 101V102ZM193.31 102L195.304 102V101L193.31 101V102ZM197.298 102L199.293 102V101L197.298 101V102ZM201.287 102L203.281 102V101L201.287 101V102ZM205.276 102L207.27 102V101L205.276 101V102ZM209.264 102L211.259 102V101L209.264 101V102ZM213.253 102L215.247 102V101L213.253 101V102ZM217.242 102L219.236 102V101L217.242 101V102ZM221.23 102L223.225 102V101L221.23 101V102ZM225.219 102L227.213 102V101L225.219 101V102ZM229.208 102L231.202 102V101L229.208 101V102ZM233.196 102L235.191 102V101L233.196 101V102ZM237.185 102L239.179 102V101L237.185 101V102ZM241.174 102L243.168 102V101L241.174 101V102ZM245.162 102L247.157 102V101L245.162 101V102ZM249.151 102L251.145 102V101L249.151 101V102ZM253.14 102L255.134 102V101L253.14 101V102ZM257.128 102L259.123 102V101L257.128 101V102ZM261.117 102L263.111 102V101L261.117 101V102ZM265.105 102L267.1 102V101L265.105 101V102ZM269.094 102L271.088 102V101L269.094 101V102ZM273.083 102L275.077 102V101L273.083 101V102ZM277.071 102L279.066 102V101L277.071 101V102ZM281.06 102L283.054 102V101L281.06 101V102ZM285.049 102L287.043 102V101L285.049 101V102ZM289.037 102L291.032 102V101L289.037 101V102ZM293.026 102L295.02 102V101L293.026 101V102ZM297.015 102L299.009 102V101L297.015 101V102ZM301.003 102L302.998 102V101L301.003 101V102ZM304.992 102L306.986 102V101L304.992 101V102ZM308.981 102L310.975 102V101L308.981 101V102ZM312.969 102L314.964 102V101L312.969 101V102ZM316.958 102L318.952 102V101L316.958 101V102ZM320.947 102L322.941 102V101L320.947 101V102ZM324.935 102L326.93 102V101L324.935 101V102ZM328.924 102L330.918 102V101L328.924 101V102ZM332.912 102L334.907 102V101L332.912 101V102ZM336.901 102L338.895 102V101L336.901 101V102ZM340.89 102L342.884 102V101L340.89 101V102ZM344.878 102L346.873 102V101L344.878 101V102ZM348.867 102L350.861 102V101L348.867 101V102ZM353.5 102L354.85 102V101L352.856 101V101.033C352.65 101.095 352.5 101.286 352.5 101.512V102.522H353.5V102ZM356.844 102L358.839 102V101L356.844 101V102ZM360.833 102L362.827 102V101L360.833 101V102ZM364.822 102L366.816 102V101L364.822 101V102ZM368.81 102L370.805 102V101L368.81 101V102ZM372.799 102L374.793 102V101L372.799 101V102ZM376.788 102L378.782 102V101L376.788 101V102ZM380.776 102L382.771 102V101L380.776 101V102ZM384.765 102L386.759 102V101L384.765 101V102ZM388.754 102L390.748 102V101L388.754 101V102ZM392.742 102L394.737 102V101L392.742 101V102ZM396.731 102L398.725 102V101L396.731 101V102ZM400.719 102L402.714 102V101L400.719 101V102ZM404.708 102L406.702 102V101L404.708 101V102ZM408.697 102L410.691 102V101L408.697 101V102ZM412.685 102L414.68 102V101L412.685 101V102ZM416.674 102L418.668 102V101L416.674 101V102ZM420.663 102L422.657 102V101L420.663 101V102ZM424.651 102L426.646 102V101L424.651 101V102ZM428.64 102L430.634 102V101L428.64 101V102ZM432.629 102L434.623 102V101L432.629 101V102ZM436.617 102L438.612 102V101L436.617 101V102ZM440.606 102L442.6 102V101L440.606 101V102ZM444.595 102L446.589 102V101L444.595 101V102ZM448.583 102L450.578 102V101L448.583 101V102ZM452.572 102L454.566 102V101L452.572 101V102ZM456.561 102L458.555 102V101L456.561 101V102ZM460.549 102L462.544 102V101L460.549 101V102ZM464.538 102L466.532 102V101L464.538 101V102ZM468.527 102L470.521 102V101L468.527 101V102ZM472.515 102L474.509 102V101L472.515 101V102ZM476.504 102L478.498 102V101L476.504 101V102ZM480.492 102L482.487 102V101L480.492 101V102ZM484.481 102L486.475 102V101L484.481 101V102ZM488.47 102L490.464 102V101L488.47 101V102ZM492.458 102L494.453 102V101L492.458 101V102ZM496.447 102L498.441 102V101L496.447 101V102ZM500.436 102L501.5 102V102.591H502.5V101.584C502.5 101.491 502.474 101.403 502.43 101.329V101L500.436 101V102ZM504.424 102L506.419 102V101L504.424 101V102ZM508.413 102L510.407 102V101L508.413 101V102ZM512.402 102L514.396 102V101L512.402 101V102ZM516.39 102L518.385 102V101L516.39 101V102ZM520.379 102L522.373 102V101L520.379 101V102ZM524.368 102L526.362 102V101L524.368 101V102ZM528.356 102L530.351 102V101L528.356 101V102ZM532.345 102L534.339 102V101L532.345 101V102ZM536.333 102L538.328 102V101L536.333 101V102ZM540.322 102L542.316 102V101L540.322 101V102ZM544.311 102L546.305 102V101L544.311 101V102ZM548.299 102L550.294 102V101L548.299 101V102ZM552.288 102L554.282 102V101L552.288 101V102ZM556.277 102L558.271 102V101L556.277 101V102ZM560.265 102L562.26 102V101L560.265 101V102ZM564.254 102L566.248 102V101L564.254 101V102ZM568.243 102L570.237 102V101L568.243 101V102ZM572.231 102L574.226 102V101L572.231 101V102ZM576.22 102L578.214 102V101L576.22 101V102ZM580.209 102L582.203 102V101L580.209 101V102ZM584.197 102L586.192 102V101L584.197 101V102ZM588.186 102L590.18 102V101L588.186 101V102ZM592.175 102L594.169 102V101L592.175 101V102ZM596.163 102L598.158 102V101L596.163 101V102ZM600.152 102L602.146 102V101L600.152 101V102ZM604.141 102L606.135 102V101L604.141 101V102ZM608.129 102L610.124 102V101L608.129 101V102ZM612.118 102L614.112 102V101L612.118 101V102ZM616.106 102L618.101 102V101L616.106 101V102ZM620.095 102L622.089 102V101L620.095 101V102ZM624.084 102L626.078 102V101L624.084 101V102ZM628.072 102L630.067 102V101L628.072 101V102ZM632.061 102L634.055 102V101H632.061V102ZM636.05 102L638.044 102V101H636.05V102ZM640.038 102L642.033 102V101H640.038V102ZM644.027 102L646.021 102V101H644.027V102ZM648.016 102L650.01 102V101H648.016V102ZM652.613 102L652.004 102V101H653.001V101.02C653.037 101.012 653.075 101.008 653.113 101.008C653.39 101.008 653.613 101.232 653.613 101.508V102.517H652.613V102ZM353 150L355.887 145H353.5V144.949H352.5V145H350.113L353 150ZM352.5 104.542V106.563H353.5V104.542H352.5ZM352.5 108.583V110.603H353.5V108.583H352.5ZM352.5 112.624V114.644H353.5V112.624H352.5ZM352.5 116.664V118.685H353.5V116.664H352.5ZM352.5 120.705V122.725H353.5V120.705H352.5ZM352.5 124.746V126.766H353.5V124.746H352.5ZM352.5 128.786V130.807H353.5V128.786H352.5ZM352.5 132.827V134.847H353.5V132.827H352.5ZM352.5 136.868V138.888H353.5V136.868H352.5ZM352.5 140.909V142.929H353.5V140.909H352.5ZM504.887 144.941L502 149.941L499.113 144.941H501.5V144.904H502.5V144.941H504.887ZM501.5 106.621V104.606H502.5V106.621H501.5ZM501.5 110.651V108.636H502.5V110.651H501.5ZM501.5 114.681V112.666H502.5V114.681H501.5ZM501.5 118.71V116.696H502.5V118.71H501.5ZM501.5 122.74V120.725H502.5V122.74H501.5ZM501.5 126.77V124.755H502.5V126.77H501.5ZM501.5 130.8V128.785H502.5V130.8H501.5ZM501.5 134.829V132.815H502.5V134.829H501.5ZM501.5 138.859V136.844H502.5V138.859H501.5ZM501.5 142.889V140.874H502.5V142.889H501.5ZM653.113 149.94L656 144.94H653.613V144.895H652.613V144.94H650.227L653.113 149.94ZM652.613 104.535V106.553H653.613V104.535H652.613ZM652.613 108.571V110.589H653.613V108.571H652.613ZM652.613 112.607V114.625H653.613V112.607H652.613ZM652.613 116.643V118.661H653.613V116.643H652.613ZM652.613 120.679V122.697H653.613V120.679H652.613ZM652.613 124.715V126.733H653.613V124.715H652.613ZM652.613 128.751V130.769H653.613V128.751H652.613ZM652.613 132.787V134.805H653.613V132.787H652.613ZM652.613 136.823V138.841H653.613V136.823H652.613ZM652.613 140.859V142.877H653.613V140.859H652.613Z" fill="#9BA3AE"/>
<path d="M131.244 91L133.176 83.244C133.218 83.076 133.246 82.95 133.26 82.782H133.316C133.33 82.95 133.358 83.076 133.4 83.244L135.332 91H136.956L139.322 81.06H137.964L136.242 89.068C136.186 89.334 136.172 89.46 136.158 89.614H136.116C136.102 89.474 136.074 89.348 136.004 89.068L133.96 81.06H132.616L130.572 89.068C130.502 89.348 130.474 89.474 130.46 89.614H130.418C130.404 89.46 130.39 89.334 130.334 89.068L128.612 81.06H127.254L129.62 91H131.244ZM143.292 91.168C145.266 91.168 146.554 89.782 146.554 87.5C146.554 85.218 145.266 83.832 143.292 83.832C141.318 83.832 140.03 85.218 140.03 87.5C140.03 89.782 141.318 91.168 143.292 91.168ZM143.292 90.132C142.032 90.132 141.29 89.236 141.29 87.5C141.29 85.764 142.032 84.868 143.292 84.868C144.552 84.868 145.294 85.764 145.294 87.5C145.294 89.236 144.552 90.132 143.292 90.132ZM149.546 84H148.44V91H149.63V88.004C149.63 87.164 149.658 86.226 150.33 85.554C150.666 85.218 151.142 85.008 151.87 85.008H151.926V83.846C151.842 83.832 151.758 83.832 151.674 83.832C150.61 83.832 149.882 84.616 149.546 85.596V84ZM153.471 80.85V91H154.661V80.85H153.471ZM159.388 91.168C160.48 91.168 161.236 90.636 161.656 89.698V91H162.776V80.85H161.586V85.036C161.138 84.21 160.452 83.832 159.528 83.832C157.778 83.832 156.546 85.344 156.546 87.5C156.546 89.698 157.694 91.168 159.388 91.168ZM159.71 90.118C158.52 90.118 157.806 89.138 157.806 87.5C157.806 85.848 158.52 84.882 159.71 84.882C160.886 84.882 161.614 85.82 161.614 87.346V87.668C161.614 89.166 160.872 90.118 159.71 90.118ZM170.404 81.06H169.074V91H170.404V81.06ZM176.437 91C179.335 91 181.183 88.914 181.183 86.016C181.183 83.062 179.321 81.06 176.465 81.06H173.203V91H176.437ZM174.533 82.18H176.437C178.579 82.18 179.769 83.804 179.769 86.016C179.769 88.144 178.551 89.88 176.409 89.88H174.533V82.18ZM189.395 91L191.929 84H190.641L189.073 88.718C188.947 89.096 188.849 89.46 188.779 89.782H188.737C188.667 89.46 188.569 89.096 188.443 88.718L186.875 84H185.587L188.121 91H189.395ZM198.786 87.01C198.786 84.91 197.694 83.832 195.804 83.832C193.802 83.832 192.626 85.246 192.626 87.584C192.626 89.894 193.816 91.168 195.818 91.168C197.232 91.168 198.254 90.496 198.744 89.222L197.764 88.788C197.456 89.642 196.798 90.118 195.902 90.118C194.656 90.118 193.83 89.222 193.816 87.85H198.786V87.01ZM193.816 86.884C193.844 85.568 194.544 84.77 195.776 84.77C196.924 84.77 197.582 85.442 197.582 86.73V86.884H193.816ZM201.854 84H200.748V91H201.938V88.004C201.938 87.164 201.966 86.226 202.638 85.554C202.974 85.218 203.45 85.008 204.178 85.008H204.234V83.846C204.15 83.832 204.066 83.832 203.982 83.832C202.918 83.832 202.19 84.616 201.854 85.596V84ZM207.054 82.698V81.2H205.696V82.698H207.054ZM206.97 91V84H205.78V91H206.97ZM210.983 84V83.062C210.983 82.208 211.277 81.816 211.991 81.816C212.215 81.816 212.481 81.844 212.733 81.886V80.864C212.467 80.794 212.173 80.766 211.837 80.766C210.591 80.766 209.793 81.62 209.793 82.894V84H208.505V84.98H209.793V91H210.983V84.98H212.733V84H210.983ZM215.617 82.698V81.2H214.259V82.698H215.617ZM215.533 91V84H214.343V91H215.533ZM220.647 91.168C222.215 91.168 223.265 90.244 223.517 88.648L222.383 88.466C222.201 89.558 221.613 90.132 220.661 90.132C219.415 90.132 218.687 89.166 218.687 87.486C218.687 85.848 219.415 84.868 220.619 84.868C221.571 84.868 222.187 85.456 222.313 86.52L223.531 86.38C223.349 84.77 222.285 83.832 220.647 83.832C218.659 83.832 217.427 85.218 217.427 87.5C217.427 89.74 218.687 91.168 220.647 91.168ZM227.162 91.168C228.31 91.168 229.192 90.622 229.514 89.726C229.528 90.174 229.57 90.636 229.626 91H230.872C230.704 90.454 230.634 89.712 230.634 88.634V86.744C230.634 84.7 229.794 83.832 227.876 83.832C226.238 83.832 225.118 84.77 225.02 86.198H226.294C226.35 85.316 226.938 84.812 227.89 84.812C228.968 84.812 229.43 85.33 229.43 86.618V86.73L228.128 86.884C226.98 87.024 226.308 87.192 225.776 87.458C225.146 87.808 224.796 88.41 224.796 89.11C224.796 90.356 225.734 91.168 227.162 91.168ZM227.428 90.188C226.574 90.188 226.056 89.768 226.056 89.082C226.056 88.396 226.504 88.032 227.54 87.878L229.444 87.598V87.948C229.444 89.306 228.646 90.188 227.428 90.188ZM233.225 84.98V88.9C233.225 90.202 233.617 91.126 235.129 91.126C235.577 91.126 235.857 91.084 236.165 91V89.908C235.927 89.964 235.745 90.006 235.437 90.006C234.723 90.006 234.415 89.656 234.415 88.858V84.98H236.165V84H234.415V81.662L233.225 82.166V84H231.923V84.98H233.225ZM239.182 82.698V81.2H237.824V82.698H239.182ZM239.098 91V84H237.908V91H239.098ZM244.246 91.168C246.22 91.168 247.508 89.782 247.508 87.5C247.508 85.218 246.22 83.832 244.246 83.832C242.272 83.832 240.984 85.218 240.984 87.5C240.984 89.782 242.272 91.168 244.246 91.168ZM244.246 90.132C242.986 90.132 242.244 89.236 242.244 87.5C242.244 85.764 242.986 84.868 244.246 84.868C245.506 84.868 246.248 85.764 246.248 87.5C246.248 89.236 245.506 90.132 244.246 90.132ZM250.583 91V87.346C250.583 85.792 251.297 84.854 252.459 84.854C253.481 84.854 253.999 85.484 253.999 86.716V91H255.189V86.646C255.189 84.784 254.391 83.832 252.851 83.832C251.745 83.832 250.975 84.336 250.513 85.386V84H249.393V91H250.583ZM259.88 91.168C261.588 91.168 262.554 90.286 262.554 89.026C262.554 88.004 261.994 87.36 260.734 87.122L259.376 86.87C258.69 86.744 258.298 86.464 258.298 85.876C258.298 85.19 258.844 84.798 259.74 84.798C260.692 84.798 261.238 85.288 261.392 85.988L262.568 85.722C262.428 84.546 261.364 83.832 259.796 83.832C258.144 83.832 257.136 84.728 257.136 85.932C257.136 86.996 257.808 87.668 258.998 87.892L260.37 88.144C261 88.256 261.378 88.508 261.378 89.124C261.378 89.726 260.86 90.188 259.922 90.188C258.9 90.188 258.242 89.684 258.074 88.802L256.87 89.012C257.108 90.398 258.228 91.168 259.88 91.168Z" fill="#191C20"/>
<path d="M447.379 91C446.941 91 446.628 90.888 446.441 90.664C446.255 90.44 446.138 90.16 446.091 89.824H446.021C445.863 90.244 445.606 90.5753 445.251 90.818C444.906 91.0513 444.439 91.168 443.851 91.168C443.095 91.168 442.493 90.972 442.045 90.58C441.597 90.188 441.373 89.6513 441.373 88.97C441.373 88.298 441.616 87.78 442.101 87.416C442.596 87.052 443.389 86.87 444.481 86.87H446.021V86.156C446.021 85.624 445.872 85.2273 445.573 84.966C445.275 84.6953 444.85 84.56 444.299 84.56C443.814 84.56 443.417 84.658 443.109 84.854C442.801 85.0407 442.554 85.2973 442.367 85.624L441.611 85.064C441.705 84.8773 441.831 84.6953 441.989 84.518C442.148 84.3407 442.344 84.1867 442.577 84.056C442.811 83.916 443.077 83.8087 443.375 83.734C443.674 83.65 444.005 83.608 444.369 83.608C445.219 83.608 445.891 83.8227 446.385 84.252C446.889 84.6813 447.141 85.2787 447.141 86.044V90.02H448.149V91H447.379ZM444.047 90.23C444.337 90.23 444.598 90.1973 444.831 90.132C445.074 90.0573 445.284 89.964 445.461 89.852C445.639 89.7307 445.774 89.5907 445.867 89.432C445.97 89.264 446.021 89.0867 446.021 88.9V87.71H444.481C443.809 87.71 443.319 87.8033 443.011 87.99C442.703 88.1767 442.549 88.4473 442.549 88.802V89.096C442.549 89.4693 442.68 89.754 442.941 89.95C443.212 90.1367 443.581 90.23 444.047 90.23ZM450.174 83.776H451.294V84.952H451.35C451.816 84.056 452.558 83.608 453.576 83.608C454.462 83.608 455.153 83.9393 455.648 84.602C456.152 85.2647 456.404 86.1933 456.404 87.388C456.404 88.5827 456.152 89.5113 455.648 90.174C455.153 90.8367 454.462 91.168 453.576 91.168C452.558 91.168 451.816 90.72 451.35 89.824H451.294V93.8H450.174V83.776ZM453.142 90.174C453.795 90.174 454.299 89.978 454.654 89.586C455.018 89.1847 455.2 88.6573 455.2 88.004V86.772C455.2 86.1187 455.018 85.596 454.654 85.204C454.299 84.8027 453.795 84.602 453.142 84.602C452.89 84.602 452.652 84.6347 452.428 84.7C452.204 84.7653 452.008 84.8633 451.84 84.994C451.672 85.1153 451.536 85.2693 451.434 85.456C451.34 85.6333 451.294 85.8433 451.294 86.086V88.69C451.294 88.9327 451.34 89.1473 451.434 89.334C451.536 89.5113 451.672 89.6653 451.84 89.796C452.008 89.9173 452.204 90.0107 452.428 90.076C452.652 90.1413 452.89 90.174 453.142 90.174ZM458.568 83.776H459.688V84.952H459.744C460.211 84.056 460.953 83.608 461.97 83.608C462.857 83.608 463.548 83.9393 464.042 84.602C464.546 85.2647 464.798 86.1933 464.798 87.388C464.798 88.5827 464.546 89.5113 464.042 90.174C463.548 90.8367 462.857 91.168 461.97 91.168C460.953 91.168 460.211 90.72 459.744 89.824H459.688V93.8H458.568V83.776ZM461.536 90.174C462.19 90.174 462.694 89.978 463.048 89.586C463.412 89.1847 463.594 88.6573 463.594 88.004V86.772C463.594 86.1187 463.412 85.596 463.048 85.204C462.694 84.8027 462.19 84.602 461.536 84.602C461.284 84.602 461.046 84.6347 460.822 84.7C460.598 84.7653 460.402 84.8633 460.234 84.994C460.066 85.1153 459.931 85.2693 459.828 85.456C459.735 85.6333 459.688 85.8433 459.688 86.086V88.69C459.688 88.9327 459.735 89.1473 459.828 89.334C459.931 89.5113 460.066 89.6653 460.234 89.796C460.402 89.9173 460.598 90.0107 460.822 90.076C461.046 90.1413 461.284 90.174 461.536 90.174ZM466.473 93.366V92.33H473.193V93.366H466.473ZM475.497 80.64H476.617V87.178H476.673L477.933 85.988L480.341 83.776H481.713L478.717 86.604L482.063 91H480.677L477.863 87.248L476.617 88.382V91H475.497V80.64ZM485.824 91L482.926 81.228H484.172L485.558 86.114L486.608 89.81H486.678L487.728 86.114L489.114 81.228H490.318L487.42 91H485.824ZM495.016 91.168C494.447 91.168 493.948 91.098 493.518 90.958C493.089 90.8087 492.73 90.608 492.44 90.356C492.16 90.104 491.946 89.8053 491.796 89.46C491.656 89.1147 491.586 88.7413 491.586 88.34C491.586 87.668 491.768 87.136 492.132 86.744C492.496 86.352 492.977 86.0767 493.574 85.918V85.806C493.052 85.6287 492.636 85.344 492.328 84.952C492.03 84.5507 491.88 84.07 491.88 83.51C491.88 82.7633 492.156 82.1707 492.706 81.732C493.257 81.284 494.027 81.06 495.016 81.06C496.006 81.06 496.776 81.284 497.326 81.732C497.877 82.1707 498.152 82.7633 498.152 83.51C498.152 84.07 497.998 84.5507 497.69 84.952C497.392 85.344 496.981 85.6287 496.458 85.806V85.918C497.056 86.0767 497.536 86.352 497.9 86.744C498.264 87.136 498.446 87.668 498.446 88.34C498.446 88.7413 498.372 89.1147 498.222 89.46C498.082 89.8053 497.868 90.104 497.578 90.356C497.289 90.608 496.93 90.8087 496.5 90.958C496.08 91.098 495.586 91.168 495.016 91.168ZM495.016 90.174C495.707 90.174 496.248 90.02 496.64 89.712C497.032 89.404 497.228 88.97 497.228 88.41V88.102C497.228 87.542 497.032 87.108 496.64 86.8C496.258 86.492 495.716 86.338 495.016 86.338C494.316 86.338 493.77 86.492 493.378 86.8C492.996 87.108 492.804 87.542 492.804 88.102V88.41C492.804 88.97 493 89.404 493.392 89.712C493.784 90.02 494.326 90.174 495.016 90.174ZM495.016 85.386C495.651 85.386 496.132 85.2507 496.458 84.98C496.794 84.7093 496.962 84.322 496.962 83.818V83.622C496.962 83.118 496.79 82.7307 496.444 82.46C496.108 82.1893 495.632 82.054 495.016 82.054C494.4 82.054 493.92 82.1893 493.574 82.46C493.238 82.7307 493.07 83.118 493.07 83.622V83.818C493.07 84.322 493.234 84.7093 493.56 84.98C493.896 85.2507 494.382 85.386 495.016 85.386ZM500.681 80.64H501.801V87.178H501.857L503.117 85.988L505.525 83.776H506.897L503.901 86.604L507.247 91H505.861L503.047 87.248L501.801 88.382V91H500.681V80.64ZM508.977 80.64H510.097V84.952H510.153C510.228 84.7747 510.321 84.6067 510.433 84.448C510.545 84.28 510.681 84.1353 510.839 84.014C511.007 83.8927 511.203 83.7947 511.427 83.72C511.651 83.6453 511.913 83.608 512.211 83.608C512.967 83.608 513.574 83.8507 514.031 84.336C514.489 84.812 514.717 85.4887 514.717 86.366V91H513.597V86.562C513.597 85.8993 513.453 85.4093 513.163 85.092C512.874 84.7653 512.449 84.602 511.889 84.602C511.665 84.602 511.446 84.63 511.231 84.686C511.017 84.742 510.825 84.826 510.657 84.938C510.489 85.05 510.354 85.1947 510.251 85.372C510.149 85.5493 510.097 85.7547 510.097 85.988V91H508.977V80.64ZM521.95 89.824H521.894C521.427 90.72 520.685 91.168 519.668 91.168C518.781 91.168 518.086 90.8367 517.582 90.174C517.087 89.5113 516.84 88.5827 516.84 87.388C516.84 86.1933 517.087 85.2647 517.582 84.602C518.086 83.9393 518.781 83.608 519.668 83.608C520.685 83.608 521.427 84.056 521.894 84.952H521.95V83.776H523.07V93.8H521.95V89.824ZM520.102 90.174C520.354 90.174 520.592 90.1413 520.816 90.076C521.04 90.0107 521.236 89.9173 521.404 89.796C521.572 89.6653 521.703 89.5113 521.796 89.334C521.899 89.1473 521.95 88.9327 521.95 88.69V86.086C521.95 85.8433 521.899 85.6333 521.796 85.456C521.703 85.2693 521.572 85.1153 521.404 84.994C521.236 84.8633 521.04 84.7653 520.816 84.7C520.592 84.6347 520.354 84.602 520.102 84.602C519.449 84.602 518.94 84.8027 518.576 85.204C518.221 85.596 518.044 86.1187 518.044 86.772V88.004C518.044 88.6573 518.221 89.1847 518.576 89.586C518.94 89.978 519.449 90.174 520.102 90.174ZM528.007 91V87.164L524.633 81.228H525.977L527.377 83.776L528.567 86.002H528.623L529.841 83.776L531.241 81.228H532.557L529.183 87.164V91H528.007ZM537.311 91.168C536.116 91.168 535.225 90.734 534.637 89.866C534.058 88.998 533.769 87.7473 533.769 86.114C533.769 84.4807 534.058 83.23 534.637 82.362C535.225 81.494 536.116 81.06 537.311 81.06C537.759 81.06 538.146 81.1207 538.473 81.242C538.8 81.3633 539.08 81.5267 539.313 81.732C539.546 81.9373 539.742 82.1707 539.901 82.432C540.06 82.684 540.2 82.9407 540.321 83.202L539.313 83.664C539.229 83.4493 539.131 83.2487 539.019 83.062C538.907 82.866 538.772 82.698 538.613 82.558C538.464 82.4087 538.282 82.292 538.067 82.208C537.862 82.124 537.61 82.082 537.311 82.082C536.536 82.082 535.958 82.376 535.575 82.964C535.202 83.552 535.015 84.336 535.015 85.316V86.912C535.015 87.892 535.202 88.676 535.575 89.264C535.958 89.852 536.536 90.146 537.311 90.146C537.61 90.146 537.862 90.104 538.067 90.02C538.282 89.936 538.464 89.824 538.613 89.684C538.772 89.5347 538.907 89.3667 539.019 89.18C539.131 88.984 539.229 88.7787 539.313 88.564L540.321 89.026C540.2 89.2967 540.06 89.558 539.901 89.81C539.742 90.062 539.546 90.2907 539.313 90.496C539.08 90.7013 538.8 90.8647 538.473 90.986C538.146 91.1073 537.759 91.168 537.311 91.168ZM545.51 91.168C544.987 91.168 544.516 91.0793 544.096 90.902C543.685 90.7247 543.33 90.4727 543.032 90.146C542.742 89.81 542.518 89.4133 542.36 88.956C542.201 88.4893 542.122 87.9713 542.122 87.402C542.122 86.8233 542.201 86.3007 542.36 85.834C542.528 85.3673 542.756 84.9707 543.046 84.644C543.335 84.308 543.68 84.0513 544.082 83.874C544.492 83.6967 544.945 83.608 545.44 83.608C545.925 83.608 546.364 83.6967 546.756 83.874C547.157 84.0513 547.498 84.2987 547.778 84.616C548.058 84.924 548.272 85.2927 548.422 85.722C548.571 86.1513 548.646 86.6227 548.646 87.136V87.668H543.298V88.004C543.298 88.3213 543.349 88.6153 543.452 88.886C543.554 89.1567 543.699 89.39 543.886 89.586C544.082 89.782 544.315 89.936 544.586 90.048C544.866 90.1507 545.174 90.202 545.51 90.202C545.995 90.202 546.415 90.09 546.77 89.866C547.124 89.642 547.395 89.334 547.582 88.942L548.408 89.502C548.193 89.9873 547.834 90.3887 547.33 90.706C546.835 91.014 546.228 91.168 545.51 91.168ZM545.44 84.532C545.132 84.532 544.847 84.588 544.586 84.7C544.324 84.812 544.096 84.966 543.9 85.162C543.713 85.358 543.564 85.5913 543.452 85.862C543.349 86.1233 543.298 86.4127 543.298 86.73V86.828H547.442V86.674C547.442 86.3567 547.39 86.0673 547.288 85.806C547.194 85.5447 547.059 85.3207 546.882 85.134C546.714 84.938 546.504 84.7887 546.252 84.686C546.009 84.5833 545.738 84.532 545.44 84.532ZM553.358 85.372C554.039 85.372 554.548 85.2227 554.884 84.924C555.229 84.616 555.402 84.224 555.402 83.748V83.65C555.402 83.1273 555.234 82.7353 554.898 82.474C554.571 82.2127 554.142 82.082 553.61 82.082C553.087 82.082 552.663 82.1987 552.336 82.432C552.019 82.656 551.757 82.9547 551.552 83.328L550.67 82.656C550.791 82.46 550.941 82.2687 551.118 82.082C551.295 81.886 551.501 81.7133 551.734 81.564C551.977 81.4147 552.252 81.2933 552.56 81.2C552.877 81.1067 553.237 81.06 553.638 81.06C554.058 81.06 554.45 81.116 554.814 81.228C555.178 81.3307 555.495 81.4893 555.766 81.704C556.037 81.9093 556.247 82.166 556.396 82.474C556.555 82.782 556.634 83.132 556.634 83.524C556.634 83.8413 556.583 84.126 556.48 84.378C556.387 84.63 556.251 84.8493 556.074 85.036C555.906 85.2227 555.705 85.3813 555.472 85.512C555.239 85.6427 554.991 85.7407 554.73 85.806V85.862C555.001 85.918 555.262 86.0113 555.514 86.142C555.766 86.2633 555.99 86.4267 556.186 86.632C556.382 86.828 556.536 87.0707 556.648 87.36C556.769 87.64 556.83 87.962 556.83 88.326C556.83 88.746 556.746 89.1333 556.578 89.488C556.419 89.8333 556.191 90.132 555.892 90.384C555.603 90.6267 555.248 90.818 554.828 90.958C554.417 91.098 553.96 91.168 553.456 91.168C553.027 91.168 552.644 91.1213 552.308 91.028C551.981 90.9347 551.687 90.8087 551.426 90.65C551.174 90.4913 550.95 90.314 550.754 90.118C550.567 89.922 550.399 89.7167 550.25 89.502L551.132 88.83C551.263 89.026 551.398 89.2033 551.538 89.362C551.678 89.5207 551.837 89.6607 552.014 89.782C552.201 89.894 552.411 89.9827 552.644 90.048C552.877 90.1133 553.148 90.146 553.456 90.146C554.147 90.146 554.674 89.9873 555.038 89.67C555.411 89.3527 555.598 88.9 555.598 88.312V88.2C555.598 87.6213 555.416 87.1733 555.052 86.856C554.697 86.5387 554.161 86.38 553.442 86.38H552.28V85.372H553.358ZM566.023 91H564.693L563.531 89.054L562.243 86.926H562.187L560.857 89.054L559.625 91H558.337L561.529 86.016L558.519 81.228H559.849L560.983 83.118L562.201 85.092H562.257L563.461 83.118L564.637 81.228H565.925L562.901 86.002L566.023 91ZM568.789 91L572.611 82.236H568.327V84.056H567.277V81.228H573.801V82.264L570.049 91H568.789ZM575.994 81.228H579.312C580.152 81.228 580.81 81.4567 581.286 81.914C581.762 82.3713 582 82.9827 582 83.748C582 84.336 581.855 84.798 581.566 85.134C581.286 85.47 580.922 85.708 580.474 85.848V85.89C581.024 86.0207 581.477 86.268 581.832 86.632C582.186 86.9867 582.364 87.5047 582.364 88.186C582.364 88.578 582.298 88.9467 582.168 89.292C582.037 89.6373 581.85 89.936 581.608 90.188C581.374 90.44 581.094 90.6407 580.768 90.79C580.45 90.93 580.105 91 579.732 91H575.994V81.228ZM579.382 89.978C579.923 89.978 580.348 89.8567 580.656 89.614C580.964 89.3713 581.118 88.998 581.118 88.494V87.92C581.118 87.4253 580.964 87.0567 580.656 86.814C580.348 86.562 579.923 86.436 579.382 86.436H577.17V89.978H579.382ZM579.186 85.47C579.68 85.47 580.068 85.3627 580.348 85.148C580.628 84.924 580.768 84.588 580.768 84.14V83.594C580.768 83.146 580.628 82.81 580.348 82.586C580.068 82.362 579.68 82.25 579.186 82.25H577.17V85.47H579.186ZM586.922 86.212L585.522 87.864V91H584.346V81.228H585.522V86.324H585.564L586.852 84.7L589.736 81.228H591.15L587.72 85.344L591.248 91H589.876L586.922 86.212Z" fill="#191C20"/>
</svg>
