<svg width="716" height="415" viewBox="0 0 716 415" fill="none" xmlns="http://www.w3.org/2000/svg">
<path d="M16.6638 2.64L12.5358 14H15.2398L16.1198 11.344H20.2958L21.1758 14H23.8798L19.7518 2.64H16.6638ZM17.7678 6.272C17.9278 5.776 18.0878 5.248 18.1838 4.672H18.2158C18.3278 5.248 18.4878 5.776 18.6318 6.272L19.6718 9.44H16.7438L17.7678 6.272ZM27.7261 14V9.68C27.7261 8.448 28.2221 7.76 29.1181 7.76C29.9341 7.76 30.3181 8.288 30.3181 9.392V14H32.8781V9.04C32.8781 6.912 31.9981 5.808 30.2701 5.808C29.0541 5.808 28.1741 6.368 27.6141 7.536V6H25.1501V14H27.7261ZM38.4361 14.192C40.8041 14.192 42.5961 12.736 42.5961 9.984C42.5961 7.232 40.8041 5.808 38.4361 5.808C36.0841 5.808 34.2921 7.232 34.2921 9.984C34.2921 12.736 36.0841 14.192 38.4361 14.192ZM38.4361 12.416C37.4441 12.416 36.8521 11.616 36.8521 9.984C36.8521 8.336 37.4441 7.584 38.4361 7.584C39.4441 7.584 40.0361 8.336 40.0361 9.984C40.0361 11.616 39.4441 12.416 38.4361 12.416ZM46.7105 14V9.68C46.7105 8.448 47.2065 7.76 48.1025 7.76C48.9185 7.76 49.3025 8.288 49.3025 9.392V14H51.8625V9.04C51.8625 6.912 50.9825 5.808 49.2545 5.808C48.0385 5.808 47.1585 6.368 46.5985 7.536V6H44.1345V14H46.7105ZM54.2429 17.2C56.3549 17.2 57.5709 16.416 58.2909 14.352L61.1389 6H58.5629L57.2669 10.864C57.1549 11.264 57.1069 11.52 57.0749 11.792H57.0269C57.0109 11.456 56.9469 11.2 56.8509 10.864L55.4589 6H52.6589L55.7149 13.952L55.6029 14.288C55.3789 15.008 54.8829 15.312 53.9549 15.312C53.7629 15.312 53.5709 15.296 53.1869 15.232V17.104C53.5869 17.168 53.9869 17.2 54.2429 17.2ZM62.322 14H64.898V9.424C64.898 8.352 65.33 7.76 66.098 7.76C66.802 7.76 67.154 8.256 67.154 9.296V14H69.714V9.408C69.714 8.336 70.146 7.76 70.914 7.76C71.65 7.76 71.986 8.24 71.986 9.312V14H74.546V8.768C74.546 6.896 73.634 5.808 72.082 5.808C70.93 5.808 70.098 6.336 69.522 7.456C69.122 6.32 68.386 5.808 67.25 5.808C66.066 5.808 65.298 6.336 64.786 7.44V6H62.322V14ZM80.0924 14.192C82.4604 14.192 84.2524 12.736 84.2524 9.984C84.2524 7.232 82.4604 5.808 80.0924 5.808C77.7404 5.808 75.9484 7.232 75.9484 9.984C75.9484 12.736 77.7404 14.192 80.0924 14.192ZM80.0924 12.416C79.1004 12.416 78.5084 11.616 78.5084 9.984C78.5084 8.336 79.1004 7.584 80.0924 7.584C81.1004 7.584 81.6924 8.336 81.6924 9.984C81.6924 11.616 81.1004 12.416 80.0924 12.416ZM88.3508 14.192C89.5188 14.192 90.4628 13.552 90.8468 12.544V14H93.2948V6H90.7188V10.576C90.7188 11.584 90.2068 12.24 89.3748 12.24C88.6228 12.24 88.2228 11.728 88.2228 10.736V6H85.6628V11.184C85.6628 13.056 86.4628 14.192 88.3508 14.192ZM98.6154 14.192C100.871 14.192 102.167 13.152 102.167 11.552C102.167 10.208 101.463 9.392 99.8154 9.12L98.2314 8.848C97.6074 8.736 97.3674 8.576 97.3674 8.192C97.3674 7.744 97.7194 7.52 98.4714 7.52C99.4954 7.52 100.295 7.856 100.903 8.48L102.231 7.296C101.591 6.352 100.231 5.808 98.6154 5.808C96.4234 5.808 95.1114 6.816 95.1114 8.336C95.1114 9.696 95.9274 10.512 97.5754 10.784L98.8234 11.008C99.7034 11.136 99.9594 11.296 99.9594 11.728C99.9594 12.16 99.5434 12.448 98.6634 12.448C97.5594 12.448 96.7114 12.032 96.1514 11.248L94.6634 12.336C95.4314 13.552 96.8714 14.192 98.6154 14.192ZM107.54 10.032C107.54 12.624 109.332 14.272 112.356 14.272C115.38 14.272 117.172 12.624 117.172 10.032V2.64H114.468V9.92C114.468 11.248 113.684 12.08 112.356 12.08C111.012 12.08 110.244 11.248 110.244 9.92V2.64H107.54V10.032ZM122.459 14.192C124.715 14.192 126.011 13.152 126.011 11.552C126.011 10.208 125.307 9.392 123.659 9.12L122.075 8.848C121.451 8.736 121.211 8.576 121.211 8.192C121.211 7.744 121.563 7.52 122.315 7.52C123.339 7.52 124.139 7.856 124.747 8.48L126.075 7.296C125.435 6.352 124.075 5.808 122.459 5.808C120.267 5.808 118.955 6.816 118.955 8.336C118.955 9.696 119.771 10.512 121.419 10.784L122.667 11.008C123.547 11.136 123.803 11.296 123.803 11.728C123.803 12.16 123.387 12.448 122.507 12.448C121.403 12.448 120.555 12.032 119.995 11.248L118.507 12.336C119.275 13.552 120.715 14.192 122.459 14.192ZM134.948 9.808C134.948 7.264 133.54 5.808 131.028 5.808C128.532 5.808 126.964 7.456 126.964 10.08C126.964 12.672 128.564 14.192 131.204 14.192C132.868 14.192 134.228 13.408 134.868 12.096L132.98 11.232C132.612 11.968 132.02 12.352 131.236 12.352C130.148 12.352 129.428 11.664 129.396 10.576H134.948V9.808ZM129.412 9.136C129.428 8 129.988 7.328 130.98 7.328C131.94 7.328 132.468 7.936 132.468 9.072V9.136H129.412ZM138.972 6H136.556V14H139.132V10.736C139.132 9.92 139.26 9.2 139.772 8.72C140.124 8.416 140.636 8.24 141.324 8.24C141.516 8.24 141.644 8.24 141.804 8.256V5.808H141.644C140.268 5.808 139.388 6.624 138.972 8.064V6ZM153.167 14L156.991 2.64H154.111L151.999 9.968C151.791 10.64 151.695 11.088 151.631 11.536H151.567C151.519 11.088 151.407 10.64 151.215 9.968L149.103 2.64H146.223L150.047 14H153.167ZM161.061 14.192C163.429 14.192 165.221 12.736 165.221 9.984C165.221 7.232 163.429 5.808 161.061 5.808C158.709 5.808 156.917 7.232 156.917 9.984C156.917 12.736 158.709 14.192 161.061 14.192ZM161.061 12.416C160.069 12.416 159.477 11.616 159.477 9.984C159.477 8.336 160.069 7.584 161.061 7.584C162.069 7.584 162.661 8.336 162.661 9.984C162.661 11.616 162.069 12.416 161.061 12.416ZM167.113 7.712V11.424C167.113 13.184 167.993 14.144 170.121 14.144C170.585 14.144 170.985 14.096 171.577 13.984V11.952C171.337 12 171.145 12.032 170.841 12.032C170.073 12.032 169.673 11.616 169.673 10.816V7.712H171.577V6H169.673V3.088L167.113 4.08V6H165.721V7.712H167.113ZM175.68 4.848V2.512H173.008V4.848H175.68ZM175.632 14V6H173.056V14H175.632ZM180.351 14V9.68C180.351 8.448 180.847 7.76 181.743 7.76C182.559 7.76 182.943 8.288 182.943 9.392V14H185.503V9.04C185.503 6.912 184.623 5.808 182.895 5.808C181.679 5.808 180.799 6.368 180.239 7.536V6H177.775V14H180.351ZM195.429 4.656C195.317 4.64 195.221 4.64 195.109 4.64C193.845 4.64 193.061 5.184 192.773 6.096C192.261 5.904 191.637 5.808 190.933 5.808C188.677 5.808 187.285 6.864 187.285 8.48C187.285 9.392 187.733 10.144 188.517 10.624C187.605 10.96 187.077 11.584 187.077 12.448C187.077 13.136 187.445 13.664 188.181 13.936C187.269 14.24 186.805 14.752 186.805 15.392C186.805 16.528 188.069 17.312 190.741 17.312C193.749 17.312 195.349 16.208 195.349 14.384C195.349 12.864 194.341 12.048 192.389 12.048H190.149C189.397 12.048 189.061 11.792 189.061 11.392C189.061 11.216 189.141 11.072 189.285 10.976C189.765 11.12 190.325 11.2 190.933 11.2C193.205 11.2 194.597 10.112 194.597 8.48C194.597 7.696 194.261 7.04 193.669 6.576C193.925 6.384 194.277 6.288 194.709 6.288C194.949 6.288 195.173 6.32 195.429 6.368V4.656ZM190.933 9.888C190.197 9.888 189.701 9.296 189.701 8.48C189.701 7.664 190.197 7.12 190.933 7.12C191.685 7.12 192.181 7.664 192.181 8.48C192.181 9.312 191.685 9.888 190.933 9.888ZM192.117 14.192C192.853 14.192 193.205 14.448 193.205 14.96C193.205 15.536 192.501 15.904 190.853 15.904C189.525 15.904 188.709 15.6 188.709 14.896C188.709 14.608 188.805 14.352 189.029 14.144C189.205 14.16 189.397 14.176 189.605 14.176L192.117 14.192Z" fill="#191C20"/>
<path d="M54.9989 154.998C85.374 154.998 109.998 130.374 109.998 99.9989C109.998 69.6238 85.374 45 54.9989 45C24.6238 45 0 69.6238 0 99.9989C0 130.374 24.6238 154.998 54.9989 154.998Z" fill="#F3F4F5"/>
<path d="M20.9649 87.06L17.2829 97H19.1169L20.0129 94.382H23.8909L24.7869 97H26.6349L22.9389 87.06H20.9649ZM21.6369 89.65C21.7489 89.328 21.8469 88.978 21.9449 88.586H21.9729C22.0569 88.978 22.1549 89.328 22.2669 89.65L23.4149 93.01H20.4889L21.6369 89.65ZM29.6213 99.73V95.992C29.9993 96.678 30.6993 97.168 31.6933 97.168C33.4153 97.168 34.5913 95.74 34.5913 93.486C34.5913 91.274 33.4573 89.832 31.7773 89.832C30.7833 89.832 29.9713 90.308 29.5373 91.218V90H27.9413V99.73H29.6213ZM31.2033 95.88C30.2093 95.88 29.5793 95.026 29.5793 93.682V93.332C29.5793 91.918 30.2093 91.12 31.2173 91.12C32.2393 91.12 32.8413 91.988 32.8413 93.486C32.8413 94.984 32.2113 95.88 31.2033 95.88ZM37.9338 99.73V95.992C38.3118 96.678 39.0118 97.168 40.0058 97.168C41.7278 97.168 42.9038 95.74 42.9038 93.486C42.9038 91.274 41.7698 89.832 40.0898 89.832C39.0958 89.832 38.2838 90.308 37.8498 91.218V90H36.2538V99.73H37.9338ZM39.5158 95.88C38.5218 95.88 37.8918 95.026 37.8918 93.682V93.332C37.8918 91.918 38.5218 91.12 39.5298 91.12C40.5518 91.12 41.1538 91.988 41.1538 93.486C41.1538 94.984 40.5238 95.88 39.5158 95.88ZM44.5663 86.85V97H46.2463V86.85H44.5663ZM50.2264 88.838V87.088H48.4064V88.838H50.2264ZM50.1564 97V90H48.4764V97H50.1564ZM55.2286 97.168C56.8946 97.168 58.0706 96.216 58.3226 94.662L56.7406 94.34C56.5866 95.32 56.0686 95.838 55.2286 95.838C54.1506 95.838 53.5206 94.97 53.5206 93.458C53.5206 92.016 54.1646 91.148 55.2006 91.148C56.0266 91.148 56.5726 91.666 56.6846 92.618L58.3226 92.352C58.1126 90.756 56.9786 89.832 55.2426 89.832C53.1146 89.832 51.7986 91.218 51.7986 93.5C51.7986 95.726 53.1426 97.168 55.2286 97.168ZM61.7525 97.168C62.8725 97.168 63.7545 96.65 64.0905 95.796C64.1045 96.23 64.1465 96.65 64.2025 97H65.8825C65.7425 96.51 65.6725 95.782 65.6725 94.83V92.744C65.6725 90.714 64.7485 89.832 62.6765 89.832C60.8705 89.832 59.6945 90.756 59.5825 92.254H61.3045C61.3605 91.456 61.8505 91.022 62.6765 91.022C63.5725 91.022 63.9785 91.47 63.9785 92.52V92.702L62.4945 92.884C61.3885 93.038 60.7165 93.22 60.2125 93.514C59.6525 93.864 59.3585 94.424 59.3585 95.096C59.3585 96.342 60.3105 97.168 61.7525 97.168ZM62.2845 95.978C61.5425 95.978 61.0945 95.6 61.0945 95.012C61.0945 94.41 61.5145 94.074 62.4385 93.92L64.0205 93.682V94.13C64.0205 95.236 63.3205 95.978 62.2845 95.978ZM67.9658 91.218V94.83C67.9658 96.244 68.5258 97.126 70.2058 97.126C70.6398 97.126 70.9478 97.084 71.3538 97V95.586C71.1298 95.628 70.9478 95.67 70.6678 95.67C69.9678 95.67 69.6458 95.306 69.6458 94.564V91.218H71.3538V90H69.6458V87.564L67.9658 88.236V90H66.7058V91.218H67.9658ZM74.6444 88.838V87.088H72.8244V88.838H74.6444ZM74.5744 97V90H72.8944V97H74.5744ZM79.6466 97.168C81.6626 97.168 83.0766 95.838 83.0766 93.486C83.0766 91.148 81.6626 89.832 79.6466 89.832C77.6306 89.832 76.2166 91.148 76.2166 93.486C76.2166 95.838 77.6306 97.168 79.6466 97.168ZM79.6466 95.894C78.5686 95.894 77.9246 95.082 77.9246 93.486C77.9246 91.89 78.5686 91.106 79.6466 91.106C80.7246 91.106 81.3546 91.89 81.3546 93.486C81.3546 95.082 80.7246 95.894 79.6466 95.894ZM86.4143 97V93.29C86.4143 91.96 87.0023 91.176 87.9823 91.176C88.8643 91.176 89.2843 91.722 89.2843 92.828V97H90.9783V92.66C90.9783 90.784 90.1803 89.832 88.6543 89.832C87.5763 89.832 86.8063 90.336 86.3303 91.358V90H84.7343V97H86.4143ZM26.496 114C29.45 114 31.34 111.928 31.34 108.988C31.34 106.048 29.436 104.06 26.524 104.06H22.94V114H26.496ZM24.746 105.474H26.468C28.414 105.474 29.45 106.972 29.45 108.988C29.45 110.962 28.372 112.586 26.44 112.586H24.746V105.474ZM39.0593 110.15C39.0593 108.008 37.8973 106.832 35.8673 106.832C33.7813 106.832 32.5213 108.26 32.5213 110.57C32.5213 112.866 33.8093 114.168 35.9513 114.168C37.3793 114.168 38.4853 113.496 39.0033 112.278L37.7153 111.69C37.3933 112.446 36.8053 112.852 36.0073 112.852C34.9013 112.852 34.1593 112.096 34.1453 110.92H39.0593V110.15ZM34.1453 109.814C34.1733 108.652 34.7753 107.952 35.8393 107.952C36.8333 107.952 37.4073 108.554 37.4073 109.702V109.814H34.1453ZM43.9605 114L46.4525 107H44.6885L43.3165 111.438C43.2045 111.802 43.1205 112.152 43.0645 112.474H43.0225C42.9665 112.152 42.8825 111.802 42.7705 111.438L41.4125 107H39.6485L42.1405 114H43.9605ZM53.4968 110.15C53.4968 108.008 52.3348 106.832 50.3048 106.832C48.2188 106.832 46.9588 108.26 46.9588 110.57C46.9588 112.866 48.2468 114.168 50.3888 114.168C51.8168 114.168 52.9228 113.496 53.4408 112.278L52.1528 111.69C51.8308 112.446 51.2428 112.852 50.4448 112.852C49.3388 112.852 48.5968 112.096 48.5828 110.92H53.4968V110.15ZM48.5828 109.814C48.6108 108.652 49.2128 107.952 50.2768 107.952C51.2708 107.952 51.8448 108.554 51.8448 109.702V109.814H48.5828ZM55.2167 103.85V114H56.8967V103.85H55.2167ZM61.9688 114.168C63.9848 114.168 65.3988 112.838 65.3988 110.486C65.3988 108.148 63.9848 106.832 61.9688 106.832C59.9528 106.832 58.5388 108.148 58.5388 110.486C58.5388 112.838 59.9528 114.168 61.9688 114.168ZM61.9688 112.894C60.8908 112.894 60.2468 112.082 60.2468 110.486C60.2468 108.89 60.8908 108.106 61.9688 108.106C63.0468 108.106 63.6768 108.89 63.6768 110.486C63.6768 112.082 63.0468 112.894 61.9688 112.894ZM68.7365 116.73V112.992C69.1145 113.678 69.8145 114.168 70.8085 114.168C72.5305 114.168 73.7065 112.74 73.7065 110.486C73.7065 108.274 72.5725 106.832 70.8925 106.832C69.8985 106.832 69.0865 107.308 68.6525 108.218V107H67.0565V116.73H68.7365ZM70.3185 112.88C69.3245 112.88 68.6945 112.026 68.6945 110.682V110.332C68.6945 108.918 69.3245 108.12 70.3325 108.12C71.3545 108.12 71.9565 108.988 71.9565 110.486C71.9565 111.984 71.3265 112.88 70.3185 112.88ZM81.319 110.15C81.319 108.008 80.157 106.832 78.127 106.832C76.041 106.832 74.781 108.26 74.781 110.57C74.781 112.866 76.069 114.168 78.211 114.168C79.639 114.168 80.745 113.496 81.263 112.278L79.975 111.69C79.653 112.446 79.065 112.852 78.267 112.852C77.161 112.852 76.419 112.096 76.405 110.92H81.319V110.15ZM76.405 109.814C76.433 108.652 77.035 107.952 78.099 107.952C79.093 107.952 79.667 108.554 79.667 109.702V109.814H76.405ZM84.6069 107H83.0389V114H84.7189V111.074C84.7189 110.29 84.7889 109.492 85.3489 108.946C85.6709 108.638 86.1329 108.456 86.8049 108.456H87.0289V106.846C86.9589 106.832 86.9029 106.832 86.8329 106.832C85.6989 106.832 84.9569 107.588 84.6069 108.694V107Z" fill="#191C20"/>
<path d="M337.519 248.492L385.477 275.997V220.979L337.5 193.502L337.519 248.492Z" fill="#F3F4F5"/>
<path d="M385.477 275.999L433.5 248.366V193.412L385.477 220.981V275.999Z" fill="#D6D9DD"/>
<path d="M337.5 193.505L385.635 166L433.5 193.412L385.477 220.981L337.5 193.505Z" fill="#191C20"/>
<path d="M366.245 296.06L362.563 306H364.397L365.293 303.382H369.171L370.067 306H371.915L368.219 296.06H366.245ZM366.917 298.65C367.029 298.328 367.127 297.978 367.225 297.586H367.253C367.337 297.978 367.435 298.328 367.547 298.65L368.695 302.01H365.769L366.917 298.65ZM375.927 306.168C377.593 306.168 378.769 305.216 379.021 303.662L377.439 303.34C377.285 304.32 376.767 304.838 375.927 304.838C374.849 304.838 374.219 303.97 374.219 302.458C374.219 301.016 374.863 300.148 375.899 300.148C376.725 300.148 377.271 300.666 377.383 301.618L379.021 301.352C378.811 299.756 377.677 298.832 375.941 298.832C373.813 298.832 372.497 300.218 372.497 302.5C372.497 304.726 373.841 306.168 375.927 306.168ZM380.912 300.218V303.83C380.912 305.244 381.472 306.126 383.152 306.126C383.586 306.126 383.894 306.084 384.3 306V304.586C384.076 304.628 383.894 304.67 383.614 304.67C382.914 304.67 382.592 304.306 382.592 303.564V300.218H384.3V299H382.592V296.564L380.912 297.236V299H379.652V300.218H380.912ZM387.591 297.838V296.088H385.771V297.838H387.591ZM387.521 306V299H385.841V306H387.521ZM392.593 306.168C394.609 306.168 396.023 304.838 396.023 302.486C396.023 300.148 394.609 298.832 392.593 298.832C390.577 298.832 389.163 300.148 389.163 302.486C389.163 304.838 390.577 306.168 392.593 306.168ZM392.593 304.894C391.515 304.894 390.871 304.082 390.871 302.486C390.871 300.89 391.515 300.106 392.593 300.106C393.671 300.106 394.301 300.89 394.301 302.486C394.301 304.082 393.671 304.894 392.593 304.894ZM399.361 306V302.29C399.361 300.96 399.949 300.176 400.929 300.176C401.811 300.176 402.231 300.722 402.231 301.828V306H403.925V301.66C403.925 299.784 403.127 298.832 401.601 298.832C400.523 298.832 399.753 299.336 399.277 300.358V299H397.681V306H399.361ZM405.755 299.42V301.366H407.743V299.42H405.755ZM405.755 304.054V306H407.743V304.054H405.755Z" fill="#191C20"/>
<path d="M340.358 322.672C341.324 322.266 341.618 321.734 341.618 320.614V319.06H339.98V320.712H340.876V320.754C340.876 321.44 340.736 321.748 340.036 322.056L340.358 322.672ZM342.654 322.672C343.62 322.266 343.914 321.734 343.914 320.614V319.06H342.276V320.712H343.172V320.754C343.172 321.44 343.032 321.748 342.332 322.056L342.654 322.672ZM346.85 331.73V327.894C347.158 328.58 347.914 329.168 348.992 329.168C350.686 329.168 351.89 327.74 351.89 325.5C351.89 323.288 350.756 321.832 349.062 321.832C348.04 321.832 347.228 322.336 346.78 323.302V322H345.66V331.73H346.85ZM348.712 328.118C347.55 328.118 346.822 327.166 346.822 325.654V325.318C346.822 323.806 347.578 322.882 348.754 322.882C349.93 322.882 350.63 323.848 350.63 325.5C350.63 327.138 349.902 328.118 348.712 328.118ZM356.413 329.168C358.387 329.168 359.675 327.782 359.675 325.5C359.675 323.218 358.387 321.832 356.413 321.832C354.439 321.832 353.151 323.218 353.151 325.5C353.151 327.782 354.439 329.168 356.413 329.168ZM356.413 328.132C355.153 328.132 354.411 327.236 354.411 325.5C354.411 323.764 355.153 322.868 356.413 322.868C357.673 322.868 358.415 323.764 358.415 325.5C358.415 327.236 357.673 328.132 356.413 328.132ZM361.561 318.85V329H362.751V318.85H361.561ZM365.266 318.85V329H366.456V318.85H365.266ZM367.711 331.198H373.689V330.358H367.711V331.198ZM377.592 329V319.27H376.528C376.29 320.292 375.492 320.852 374.554 320.852H374.246V321.986H374.75C375.282 321.986 376.038 321.776 376.332 321.37V329H377.592ZM379.277 331.198H385.255V330.358H379.277V331.198ZM389.2 329L391.734 322H390.446L388.878 326.718C388.752 327.096 388.654 327.46 388.584 327.782H388.542C388.472 327.46 388.374 327.096 388.248 326.718L386.68 322H385.392L387.926 329H389.2ZM395.693 329.168C397.667 329.168 398.955 327.782 398.955 325.5C398.955 323.218 397.667 321.832 395.693 321.832C393.719 321.832 392.431 323.218 392.431 325.5C392.431 327.782 393.719 329.168 395.693 329.168ZM395.693 328.132C394.433 328.132 393.691 327.236 393.691 325.5C393.691 323.764 394.433 322.868 395.693 322.868C396.953 322.868 397.695 323.764 397.695 325.5C397.695 327.236 396.953 328.132 395.693 328.132ZM401.092 322.98V326.9C401.092 328.202 401.484 329.126 402.996 329.126C403.444 329.126 403.724 329.084 404.032 329V327.908C403.794 327.964 403.612 328.006 403.304 328.006C402.59 328.006 402.282 327.656 402.282 326.858V322.98H404.032V322H402.282V319.662L401.092 320.166V322H399.79V322.98H401.092ZM411.237 325.01C411.237 322.91 410.145 321.832 408.255 321.832C406.253 321.832 405.077 323.246 405.077 325.584C405.077 327.894 406.267 329.168 408.269 329.168C409.683 329.168 410.705 328.496 411.195 327.222L410.215 326.788C409.907 327.642 409.249 328.118 408.353 328.118C407.107 328.118 406.281 327.222 406.267 325.85H411.237V325.01ZM406.267 324.884C406.295 323.568 406.995 322.77 408.227 322.77C409.375 322.77 410.033 323.442 410.033 324.73V324.884H406.267ZM411.939 331.198H417.917V330.358H411.939V331.198ZM420.91 329.168C422.058 329.168 422.94 328.622 423.262 327.726C423.276 328.174 423.318 328.636 423.374 329H424.62C424.452 328.454 424.382 327.712 424.382 326.634V324.744C424.382 322.7 423.542 321.832 421.624 321.832C419.986 321.832 418.866 322.77 418.768 324.198H420.042C420.098 323.316 420.686 322.812 421.638 322.812C422.716 322.812 423.178 323.33 423.178 324.618V324.73L421.876 324.884C420.728 325.024 420.056 325.192 419.524 325.458C418.894 325.808 418.544 326.41 418.544 327.11C418.544 328.356 419.482 329.168 420.91 329.168ZM421.176 328.188C420.322 328.188 419.804 327.768 419.804 327.082C419.804 326.396 420.252 326.032 421.288 325.878L423.192 325.598V325.948C423.192 327.306 422.394 328.188 421.176 328.188ZM426.546 322.672C427.512 322.266 427.806 321.734 427.806 320.614V319.06H426.168V320.712H427.064V320.754C427.064 321.44 426.924 321.748 426.224 322.056L426.546 322.672ZM428.842 322.672C429.808 322.266 430.102 321.734 430.102 320.614V319.06H428.464V320.712H429.36V320.754C429.36 321.44 429.22 321.748 428.52 322.056L428.842 322.672Z" fill="#657080"/>
<rect x="329" y="347" width="113" height="68" rx="8" fill="#F3F4F5"/>
<path d="M346.796 373L350.198 363.06H348.266L346.138 369.948C345.956 370.536 345.858 370.928 345.802 371.306H345.746C345.676 370.928 345.578 370.536 345.396 369.948L343.268 363.06H341.35L344.738 373H346.796ZM353.894 373.168C355.91 373.168 357.324 371.838 357.324 369.486C357.324 367.148 355.91 365.832 353.894 365.832C351.878 365.832 350.464 367.148 350.464 369.486C350.464 371.838 351.878 373.168 353.894 373.168ZM353.894 371.894C352.816 371.894 352.172 371.082 352.172 369.486C352.172 367.89 352.816 367.106 353.894 367.106C354.972 367.106 355.602 367.89 355.602 369.486C355.602 371.082 354.972 371.894 353.894 371.894ZM359.248 367.218V370.83C359.248 372.244 359.808 373.126 361.488 373.126C361.922 373.126 362.23 373.084 362.636 373V371.586C362.412 371.628 362.23 371.67 361.95 371.67C361.25 371.67 360.928 371.306 360.928 370.564V367.218H362.636V366H360.928V363.564L359.248 364.236V366H357.988V367.218H359.248ZM370.058 369.15C370.058 367.008 368.896 365.832 366.866 365.832C364.78 365.832 363.52 367.26 363.52 369.57C363.52 371.866 364.808 373.168 366.95 373.168C368.378 373.168 369.484 372.496 370.002 371.278L368.714 370.69C368.392 371.446 367.804 371.852 367.006 371.852C365.9 371.852 365.158 371.096 365.144 369.92H370.058V369.15ZM365.144 368.814C365.172 367.652 365.774 366.952 366.838 366.952C367.832 366.952 368.406 367.554 368.406 368.702V368.814H365.144ZM373.346 366H371.778V373H373.458V370.074C373.458 369.29 373.528 368.492 374.088 367.946C374.41 367.638 374.872 367.456 375.544 367.456H375.768V365.846C375.698 365.832 375.642 365.832 375.572 365.832C374.438 365.832 373.696 366.588 373.346 367.694V366ZM379.659 373.168C381.493 373.168 382.529 372.272 382.529 370.956C382.529 369.85 381.955 369.178 380.597 368.94L379.225 368.688C378.609 368.576 378.301 368.366 378.301 367.89C378.301 367.344 378.735 367.05 379.519 367.05C380.443 367.05 381.059 367.442 381.395 368.072L382.571 367.442C382.235 366.434 381.101 365.832 379.617 365.832C377.839 365.832 376.761 366.728 376.761 367.988C376.761 369.108 377.447 369.794 378.763 370.032L380.009 370.256C380.695 370.368 381.003 370.564 381.003 371.068C381.003 371.572 380.555 371.936 379.701 371.936C378.707 371.936 378.007 371.488 377.685 370.704L376.439 371.264C376.873 372.496 378.063 373.168 379.659 373.168ZM383.968 366.42V368.366H385.956V366.42H383.968ZM383.968 371.054V373H385.956V371.054H383.968Z" fill="#191C20"/>
<path d="M345.452 400.21C347.916 400.21 349.204 398.25 349.204 395.142C349.204 392.02 347.916 390.06 345.452 390.06C342.988 390.06 341.7 392.02 341.7 395.142C341.7 398.25 342.988 400.21 345.452 400.21ZM345.452 399.16C343.772 399.16 342.96 397.606 342.96 395.142C342.96 392.664 343.772 391.11 345.452 391.11C347.132 391.11 347.944 392.664 347.944 395.142C347.944 397.606 347.132 399.16 345.452 399.16ZM351.524 400L352.952 397.844C353.204 397.466 353.33 397.228 353.358 397.13H353.372C353.4 397.242 353.54 397.508 353.764 397.844L355.206 400H356.62L354.128 396.472L356.438 393H354.982L353.778 394.974C353.568 395.324 353.442 395.562 353.386 395.702H353.372C353.33 395.576 353.204 395.352 352.966 394.974L351.692 393H350.292L352.644 396.388L350.11 400H351.524ZM365.753 400L361.987 390.06H360.671L356.905 400H358.277L359.299 397.13H363.359L364.381 400H365.753ZM361.077 392.132C361.161 391.908 361.231 391.67 361.315 391.376H361.343C361.427 391.67 361.497 391.908 361.581 392.132L362.967 396.01H359.691L361.077 392.132ZM372.686 396.01C372.686 393.91 371.594 392.832 369.704 392.832C367.702 392.832 366.526 394.246 366.526 396.584C366.526 398.894 367.716 400.168 369.718 400.168C371.132 400.168 372.154 399.496 372.644 398.222L371.664 397.788C371.356 398.642 370.698 399.118 369.802 399.118C368.556 399.118 367.73 398.222 367.716 396.85H372.686V396.01ZM367.716 395.884C367.744 394.568 368.444 393.77 369.676 393.77C370.824 393.77 371.482 394.442 371.482 395.73V395.884H367.716ZM378.877 394.778C379.969 394.428 380.557 393.658 380.557 392.538C380.557 391.026 379.339 390.06 377.449 390.06C375.573 390.06 374.313 391.068 374.313 392.566C374.313 393.672 374.803 394.386 375.923 394.89C374.635 395.282 373.949 396.15 373.949 397.48C373.949 399.132 375.349 400.21 377.477 400.21C379.563 400.21 380.921 399.09 380.921 397.396C380.921 396.094 380.319 395.31 378.877 394.778ZM377.407 391.012C378.597 391.012 379.297 391.6 379.297 392.594C379.297 393.476 378.891 393.966 377.715 394.414L377.225 394.26C376.063 393.91 375.573 393.406 375.573 392.566C375.573 391.6 376.273 391.012 377.407 391.012ZM377.477 399.202C376.119 399.202 375.223 398.446 375.223 397.298C375.223 396.304 375.727 395.716 377.015 395.268L377.939 395.562C379.143 395.954 379.661 396.5 379.661 397.396C379.661 398.53 378.849 399.202 377.477 399.202ZM385.388 400.21C387.446 400.21 388.762 398.81 388.762 396.766C388.762 394.666 387.642 393.364 385.794 393.364C384.744 393.364 383.96 393.812 383.498 394.666L383.862 391.362H388.286V390.27H382.91L382.336 395.912L383.54 396.038C383.806 395.016 384.45 394.414 385.486 394.414C386.83 394.414 387.502 395.38 387.502 396.836C387.502 398.264 386.746 399.132 385.458 399.132C384.324 399.132 383.68 398.432 383.484 397.466L382.182 397.62C382.434 399.202 383.666 400.21 385.388 400.21ZM390.105 398.348V400H391.743V398.348H390.105ZM393.701 398.348V400H395.339V398.348H393.701ZM397.296 398.348V400H398.934V398.348H397.296Z" fill="#657080"/>
<path d="M474.519 248.492L522.477 275.997V220.979L474.5 193.502L474.519 248.492Z" fill="#F3F4F5"/>
<path d="M522.477 275.999L570.5 248.366V193.412L522.477 220.981V275.999Z" fill="#D6D9DD"/>
<path d="M474.5 193.505L522.635 166L570.5 193.412L522.477 220.981L474.5 193.505Z" fill="#191C20"/>
<path d="M503.245 296.06L499.563 306H501.397L502.293 303.382H506.171L507.067 306H508.915L505.219 296.06H503.245ZM503.917 298.65C504.029 298.328 504.127 297.978 504.225 297.586H504.253C504.337 297.978 504.435 298.328 504.547 298.65L505.695 302.01H502.769L503.917 298.65ZM512.927 306.168C514.593 306.168 515.769 305.216 516.021 303.662L514.439 303.34C514.285 304.32 513.767 304.838 512.927 304.838C511.849 304.838 511.219 303.97 511.219 302.458C511.219 301.016 511.863 300.148 512.899 300.148C513.725 300.148 514.271 300.666 514.383 301.618L516.021 301.352C515.811 299.756 514.677 298.832 512.941 298.832C510.813 298.832 509.497 300.218 509.497 302.5C509.497 304.726 510.841 306.168 512.927 306.168ZM517.912 300.218V303.83C517.912 305.244 518.472 306.126 520.152 306.126C520.586 306.126 520.894 306.084 521.3 306V304.586C521.076 304.628 520.894 304.67 520.614 304.67C519.914 304.67 519.592 304.306 519.592 303.564V300.218H521.3V299H519.592V296.564L517.912 297.236V299H516.652V300.218H517.912ZM524.591 297.838V296.088H522.771V297.838H524.591ZM524.521 306V299H522.841V306H524.521ZM529.593 306.168C531.609 306.168 533.023 304.838 533.023 302.486C533.023 300.148 531.609 298.832 529.593 298.832C527.577 298.832 526.163 300.148 526.163 302.486C526.163 304.838 527.577 306.168 529.593 306.168ZM529.593 304.894C528.515 304.894 527.871 304.082 527.871 302.486C527.871 300.89 528.515 300.106 529.593 300.106C530.671 300.106 531.301 300.89 531.301 302.486C531.301 304.082 530.671 304.894 529.593 304.894ZM536.361 306V302.29C536.361 300.96 536.949 300.176 537.929 300.176C538.811 300.176 539.231 300.722 539.231 301.828V306H540.925V301.66C540.925 299.784 540.127 298.832 538.601 298.832C537.523 298.832 536.753 299.336 536.277 300.358V299H534.681V306H536.361ZM542.755 299.42V301.366H544.743V299.42H542.755ZM542.755 304.054V306H544.743V304.054H542.755Z" fill="#191C20"/>
<path d="M476.858 322.672C477.824 322.266 478.118 321.734 478.118 320.614V319.06H476.48V320.712H477.376V320.754C477.376 321.44 477.236 321.748 476.536 322.056L476.858 322.672ZM479.154 322.672C480.12 322.266 480.414 321.734 480.414 320.614V319.06H478.776V320.712H479.672V320.754C479.672 321.44 479.532 321.748 478.832 322.056L479.154 322.672ZM483.35 331.73V327.894C483.658 328.58 484.414 329.168 485.492 329.168C487.186 329.168 488.39 327.74 488.39 325.5C488.39 323.288 487.256 321.832 485.562 321.832C484.54 321.832 483.728 322.336 483.28 323.302V322H482.16V331.73H483.35ZM485.212 328.118C484.05 328.118 483.322 327.166 483.322 325.654V325.318C483.322 323.806 484.078 322.882 485.254 322.882C486.43 322.882 487.13 323.848 487.13 325.5C487.13 327.138 486.402 328.118 485.212 328.118ZM492.913 329.168C494.887 329.168 496.175 327.782 496.175 325.5C496.175 323.218 494.887 321.832 492.913 321.832C490.939 321.832 489.651 323.218 489.651 325.5C489.651 327.782 490.939 329.168 492.913 329.168ZM492.913 328.132C491.653 328.132 490.911 327.236 490.911 325.5C490.911 323.764 491.653 322.868 492.913 322.868C494.173 322.868 494.915 323.764 494.915 325.5C494.915 327.236 494.173 328.132 492.913 328.132ZM498.061 318.85V329H499.251V318.85H498.061ZM501.766 318.85V329H502.956V318.85H501.766ZM504.211 331.198H510.189V330.358H504.211V331.198ZM517.06 329V327.866H512.37C513.322 327.208 514.008 326.648 514.764 325.948C516.262 324.562 516.948 323.372 516.948 322C516.948 320.11 515.814 319.06 513.924 319.06C511.964 319.06 510.788 320.166 510.788 321.888C510.788 322.14 510.816 322.392 510.886 322.672L512.146 322.798C512.076 322.448 512.034 322.154 512.034 321.902C512.034 320.838 512.72 320.152 513.854 320.152C514.974 320.152 515.632 320.824 515.632 322.014C515.632 323.176 515.212 323.988 513.98 325.178C512.734 326.368 511.474 327.376 510.676 327.964V329H517.06ZM517.76 331.198H523.738V330.358H517.76V331.198ZM527.682 329L530.216 322H528.928L527.36 326.718C527.234 327.096 527.136 327.46 527.066 327.782H527.024C526.954 327.46 526.856 327.096 526.73 326.718L525.162 322H523.874L526.408 329H527.682ZM534.175 329.168C536.149 329.168 537.437 327.782 537.437 325.5C537.437 323.218 536.149 321.832 534.175 321.832C532.201 321.832 530.913 323.218 530.913 325.5C530.913 327.782 532.201 329.168 534.175 329.168ZM534.175 328.132C532.915 328.132 532.173 327.236 532.173 325.5C532.173 323.764 532.915 322.868 534.175 322.868C535.435 322.868 536.177 323.764 536.177 325.5C536.177 327.236 535.435 328.132 534.175 328.132ZM539.575 322.98V326.9C539.575 328.202 539.967 329.126 541.479 329.126C541.927 329.126 542.207 329.084 542.515 329V327.908C542.277 327.964 542.095 328.006 541.787 328.006C541.073 328.006 540.765 327.656 540.765 326.858V322.98H542.515V322H540.765V319.662L539.575 320.166V322H538.273V322.98H539.575ZM549.72 325.01C549.72 322.91 548.628 321.832 546.738 321.832C544.736 321.832 543.56 323.246 543.56 325.584C543.56 327.894 544.75 329.168 546.752 329.168C548.166 329.168 549.188 328.496 549.678 327.222L548.698 326.788C548.39 327.642 547.732 328.118 546.836 328.118C545.59 328.118 544.764 327.222 544.75 325.85H549.72V325.01ZM544.75 324.884C544.778 323.568 545.478 322.77 546.71 322.77C547.858 322.77 548.516 323.442 548.516 324.73V324.884H544.75ZM550.422 331.198H556.4V330.358H550.422V331.198ZM560.246 329.168C561.814 329.168 562.864 328.244 563.116 326.648L561.982 326.466C561.8 327.558 561.212 328.132 560.26 328.132C559.014 328.132 558.286 327.166 558.286 325.486C558.286 323.848 559.014 322.868 560.218 322.868C561.17 322.868 561.786 323.456 561.912 324.52L563.13 324.38C562.948 322.77 561.884 321.832 560.246 321.832C558.258 321.832 557.026 323.218 557.026 325.5C557.026 327.74 558.286 329.168 560.246 329.168ZM564.426 322.672C565.392 322.266 565.686 321.734 565.686 320.614V319.06H564.048V320.712H564.944V320.754C564.944 321.44 564.804 321.748 564.104 322.056L564.426 322.672ZM566.722 322.672C567.688 322.266 567.982 321.734 567.982 320.614V319.06H566.344V320.712H567.24V320.754C567.24 321.44 567.1 321.748 566.4 322.056L566.722 322.672Z" fill="#657080"/>
<rect x="466" y="347" width="113" height="68" rx="8" fill="#F3F4F5"/>
<path d="M483.796 373L487.198 363.06H485.266L483.138 369.948C482.956 370.536 482.858 370.928 482.802 371.306H482.746C482.676 370.928 482.578 370.536 482.396 369.948L480.268 363.06H478.35L481.738 373H483.796ZM490.894 373.168C492.91 373.168 494.324 371.838 494.324 369.486C494.324 367.148 492.91 365.832 490.894 365.832C488.878 365.832 487.464 367.148 487.464 369.486C487.464 371.838 488.878 373.168 490.894 373.168ZM490.894 371.894C489.816 371.894 489.172 371.082 489.172 369.486C489.172 367.89 489.816 367.106 490.894 367.106C491.972 367.106 492.602 367.89 492.602 369.486C492.602 371.082 491.972 371.894 490.894 371.894ZM496.248 367.218V370.83C496.248 372.244 496.808 373.126 498.488 373.126C498.922 373.126 499.23 373.084 499.636 373V371.586C499.412 371.628 499.23 371.67 498.95 371.67C498.25 371.67 497.928 371.306 497.928 370.564V367.218H499.636V366H497.928V363.564L496.248 364.236V366H494.988V367.218H496.248ZM507.058 369.15C507.058 367.008 505.896 365.832 503.866 365.832C501.78 365.832 500.52 367.26 500.52 369.57C500.52 371.866 501.808 373.168 503.95 373.168C505.378 373.168 506.484 372.496 507.002 371.278L505.714 370.69C505.392 371.446 504.804 371.852 504.006 371.852C502.9 371.852 502.158 371.096 502.144 369.92H507.058V369.15ZM502.144 368.814C502.172 367.652 502.774 366.952 503.838 366.952C504.832 366.952 505.406 367.554 505.406 368.702V368.814H502.144ZM510.346 366H508.778V373H510.458V370.074C510.458 369.29 510.528 368.492 511.088 367.946C511.41 367.638 511.872 367.456 512.544 367.456H512.768V365.846C512.698 365.832 512.642 365.832 512.572 365.832C511.438 365.832 510.696 366.588 510.346 367.694V366ZM516.659 373.168C518.493 373.168 519.529 372.272 519.529 370.956C519.529 369.85 518.955 369.178 517.597 368.94L516.225 368.688C515.609 368.576 515.301 368.366 515.301 367.89C515.301 367.344 515.735 367.05 516.519 367.05C517.443 367.05 518.059 367.442 518.395 368.072L519.571 367.442C519.235 366.434 518.101 365.832 516.617 365.832C514.839 365.832 513.761 366.728 513.761 367.988C513.761 369.108 514.447 369.794 515.763 370.032L517.009 370.256C517.695 370.368 518.003 370.564 518.003 371.068C518.003 371.572 517.555 371.936 516.701 371.936C515.707 371.936 515.007 371.488 514.685 370.704L513.439 371.264C513.873 372.496 515.063 373.168 516.659 373.168ZM520.968 366.42V368.366H522.956V366.42H520.968ZM520.968 371.054V373H522.956V371.054H520.968Z" fill="#191C20"/>
<path d="M482.452 400.21C484.916 400.21 486.204 398.25 486.204 395.142C486.204 392.02 484.916 390.06 482.452 390.06C479.988 390.06 478.7 392.02 478.7 395.142C478.7 398.25 479.988 400.21 482.452 400.21ZM482.452 399.16C480.772 399.16 479.96 397.606 479.96 395.142C479.96 392.664 480.772 391.11 482.452 391.11C484.132 391.11 484.944 392.664 484.944 395.142C484.944 397.606 484.132 399.16 482.452 399.16ZM488.524 400L489.952 397.844C490.204 397.466 490.33 397.228 490.358 397.13H490.372C490.4 397.242 490.54 397.508 490.764 397.844L492.206 400H493.62L491.128 396.472L493.438 393H491.982L490.778 394.974C490.568 395.324 490.442 395.562 490.386 395.702H490.372C490.33 395.576 490.204 395.352 489.966 394.974L488.692 393H487.292L489.644 396.388L487.11 400H488.524ZM496.628 400V399.762C496.628 396.878 497.762 393.826 500.072 391.25V390.27H493.772V391.432H498.644C496.488 394.12 495.242 396.962 495.242 399.86V400H496.628ZM504.891 400.168C506.641 400.168 507.775 398.684 507.775 396.5C507.775 394.358 506.669 392.832 504.961 392.832C503.869 392.832 503.099 393.434 502.735 394.218V389.85H501.545V400H502.455L502.665 398.796C503.029 399.608 503.827 400.168 504.891 400.168ZM504.569 399.118C503.393 399.118 502.707 398.166 502.707 396.71V396.346C502.707 394.82 503.407 393.882 504.583 393.882C505.829 393.882 506.515 394.932 506.515 396.5C506.515 398.096 505.787 399.118 504.569 399.118ZM515.966 390.06H509.806V400H511.136V395.464H515.728V394.344H511.136V391.18H515.966V390.06ZM520.404 390.06C518.43 390.06 517.156 391.418 517.156 393.252C517.156 395.296 518.5 396.374 520.278 396.374C521.3 396.374 522.14 395.968 522.63 395.128C522.602 397.564 522.014 399.16 520.446 399.16C519.242 399.16 518.724 398.446 518.528 397.382L517.268 397.662C517.576 399.3 518.654 400.21 520.432 400.21C522.924 400.21 523.89 397.914 523.89 394.946C523.89 391.74 522.77 390.06 520.404 390.06ZM520.404 395.324C519.242 395.324 518.416 394.54 518.416 393.238C518.416 391.964 519.2 391.11 520.39 391.11C521.944 391.11 522.476 392.328 522.602 393.49C522.378 394.526 521.454 395.324 520.404 395.324ZM525.3 398.348V400H526.938V398.348H525.3ZM528.896 398.348V400H530.534V398.348H528.896ZM532.492 398.348V400H534.13V398.348H532.492Z" fill="#657080"/>
<path d="M611.519 248.492L659.477 275.997V220.979L611.5 193.502L611.519 248.492Z" fill="#F3F4F5"/>
<path d="M659.477 275.999L707.5 248.366V193.412L659.477 220.981V275.999Z" fill="#D6D9DD"/>
<path d="M611.5 193.505L659.635 166L707.5 193.412L659.477 220.981L611.5 193.505Z" fill="#191C20"/>
<path d="M640.245 296.06L636.563 306H638.397L639.293 303.382H643.171L644.067 306H645.915L642.219 296.06H640.245ZM640.917 298.65C641.029 298.328 641.127 297.978 641.225 297.586H641.253C641.337 297.978 641.435 298.328 641.547 298.65L642.695 302.01H639.769L640.917 298.65ZM649.927 306.168C651.593 306.168 652.769 305.216 653.021 303.662L651.439 303.34C651.285 304.32 650.767 304.838 649.927 304.838C648.849 304.838 648.219 303.97 648.219 302.458C648.219 301.016 648.863 300.148 649.899 300.148C650.725 300.148 651.271 300.666 651.383 301.618L653.021 301.352C652.811 299.756 651.677 298.832 649.941 298.832C647.813 298.832 646.497 300.218 646.497 302.5C646.497 304.726 647.841 306.168 649.927 306.168ZM654.912 300.218V303.83C654.912 305.244 655.472 306.126 657.152 306.126C657.586 306.126 657.894 306.084 658.3 306V304.586C658.076 304.628 657.894 304.67 657.614 304.67C656.914 304.67 656.592 304.306 656.592 303.564V300.218H658.3V299H656.592V296.564L654.912 297.236V299H653.652V300.218H654.912ZM661.591 297.838V296.088H659.771V297.838H661.591ZM661.521 306V299H659.841V306H661.521ZM666.593 306.168C668.609 306.168 670.023 304.838 670.023 302.486C670.023 300.148 668.609 298.832 666.593 298.832C664.577 298.832 663.163 300.148 663.163 302.486C663.163 304.838 664.577 306.168 666.593 306.168ZM666.593 304.894C665.515 304.894 664.871 304.082 664.871 302.486C664.871 300.89 665.515 300.106 666.593 300.106C667.671 300.106 668.301 300.89 668.301 302.486C668.301 304.082 667.671 304.894 666.593 304.894ZM673.361 306V302.29C673.361 300.96 673.949 300.176 674.929 300.176C675.811 300.176 676.231 300.722 676.231 301.828V306H677.925V301.66C677.925 299.784 677.127 298.832 675.601 298.832C674.523 298.832 673.753 299.336 673.277 300.358V299H671.681V306H673.361ZM679.755 299.42V301.366H681.743V299.42H679.755ZM679.755 304.054V306H681.743V304.054H679.755Z" fill="#191C20"/>
<path d="M613.358 322.672C614.324 322.266 614.618 321.734 614.618 320.614V319.06H612.98V320.712H613.876V320.754C613.876 321.44 613.736 321.748 613.036 322.056L613.358 322.672ZM615.654 322.672C616.62 322.266 616.914 321.734 616.914 320.614V319.06H615.276V320.712H616.172V320.754C616.172 321.44 616.032 321.748 615.332 322.056L615.654 322.672ZM619.85 331.73V327.894C620.158 328.58 620.914 329.168 621.992 329.168C623.686 329.168 624.89 327.74 624.89 325.5C624.89 323.288 623.756 321.832 622.062 321.832C621.04 321.832 620.228 322.336 619.78 323.302V322H618.66V331.73H619.85ZM621.712 328.118C620.55 328.118 619.822 327.166 619.822 325.654V325.318C619.822 323.806 620.578 322.882 621.754 322.882C622.93 322.882 623.63 323.848 623.63 325.5C623.63 327.138 622.902 328.118 621.712 328.118ZM629.413 329.168C631.387 329.168 632.675 327.782 632.675 325.5C632.675 323.218 631.387 321.832 629.413 321.832C627.439 321.832 626.151 323.218 626.151 325.5C626.151 327.782 627.439 329.168 629.413 329.168ZM629.413 328.132C628.153 328.132 627.411 327.236 627.411 325.5C627.411 323.764 628.153 322.868 629.413 322.868C630.673 322.868 631.415 323.764 631.415 325.5C631.415 327.236 630.673 328.132 629.413 328.132ZM634.561 318.85V329H635.751V318.85H634.561ZM638.266 318.85V329H639.456V318.85H638.266ZM640.711 331.198H646.689V330.358H640.711V331.198ZM653.56 329V327.866H648.87C649.822 327.208 650.508 326.648 651.264 325.948C652.762 324.562 653.448 323.372 653.448 322C653.448 320.11 652.314 319.06 650.424 319.06C648.464 319.06 647.288 320.166 647.288 321.888C647.288 322.14 647.316 322.392 647.386 322.672L648.646 322.798C648.576 322.448 648.534 322.154 648.534 321.902C648.534 320.838 649.22 320.152 650.354 320.152C651.474 320.152 652.132 320.824 652.132 322.014C652.132 323.176 651.712 323.988 650.48 325.178C649.234 326.368 647.974 327.376 647.176 327.964V329H653.56ZM654.26 331.198H660.238V330.358H654.26V331.198ZM664.182 329L666.716 322H665.428L663.86 326.718C663.734 327.096 663.636 327.46 663.566 327.782H663.524C663.454 327.46 663.356 327.096 663.23 326.718L661.662 322H660.374L662.908 329H664.182ZM670.675 329.168C672.649 329.168 673.937 327.782 673.937 325.5C673.937 323.218 672.649 321.832 670.675 321.832C668.701 321.832 667.413 323.218 667.413 325.5C667.413 327.782 668.701 329.168 670.675 329.168ZM670.675 328.132C669.415 328.132 668.673 327.236 668.673 325.5C668.673 323.764 669.415 322.868 670.675 322.868C671.935 322.868 672.677 323.764 672.677 325.5C672.677 327.236 671.935 328.132 670.675 328.132ZM676.075 322.98V326.9C676.075 328.202 676.467 329.126 677.979 329.126C678.427 329.126 678.707 329.084 679.015 329V327.908C678.777 327.964 678.595 328.006 678.287 328.006C677.573 328.006 677.265 327.656 677.265 326.858V322.98H679.015V322H677.265V319.662L676.075 320.166V322H674.773V322.98H676.075ZM686.22 325.01C686.22 322.91 685.128 321.832 683.238 321.832C681.236 321.832 680.06 323.246 680.06 325.584C680.06 327.894 681.25 329.168 683.252 329.168C684.666 329.168 685.688 328.496 686.178 327.222L685.198 326.788C684.89 327.642 684.232 328.118 683.336 328.118C682.09 328.118 681.264 327.222 681.25 325.85H686.22V325.01ZM681.25 324.884C681.278 323.568 681.978 322.77 683.21 322.77C684.358 322.77 685.016 323.442 685.016 324.73V324.884H681.25ZM686.922 331.198H692.9V330.358H686.922V331.198ZM697.502 329.168C699.252 329.168 700.386 327.684 700.386 325.5C700.386 323.358 699.28 321.832 697.572 321.832C696.48 321.832 695.71 322.434 695.346 323.218V318.85H694.156V329H695.066L695.276 327.796C695.64 328.608 696.438 329.168 697.502 329.168ZM697.18 328.118C696.004 328.118 695.318 327.166 695.318 325.71V325.346C695.318 323.82 696.018 322.882 697.194 322.882C698.44 322.882 699.126 323.932 699.126 325.5C699.126 327.096 698.398 328.118 697.18 328.118ZM701.678 322.672C702.644 322.266 702.938 321.734 702.938 320.614V319.06H701.3V320.712H702.196V320.754C702.196 321.44 702.056 321.748 701.356 322.056L701.678 322.672ZM703.974 322.672C704.94 322.266 705.234 321.734 705.234 320.614V319.06H703.596V320.712H704.492V320.754C704.492 321.44 704.352 321.748 703.652 322.056L703.974 322.672Z" fill="#657080"/>
<rect x="603" y="347" width="113" height="68" rx="8" fill="#F3F4F5"/>
<path d="M620.796 373L624.198 363.06H622.266L620.138 369.948C619.956 370.536 619.858 370.928 619.802 371.306H619.746C619.676 370.928 619.578 370.536 619.396 369.948L617.268 363.06H615.35L618.738 373H620.796ZM627.894 373.168C629.91 373.168 631.324 371.838 631.324 369.486C631.324 367.148 629.91 365.832 627.894 365.832C625.878 365.832 624.464 367.148 624.464 369.486C624.464 371.838 625.878 373.168 627.894 373.168ZM627.894 371.894C626.816 371.894 626.172 371.082 626.172 369.486C626.172 367.89 626.816 367.106 627.894 367.106C628.972 367.106 629.602 367.89 629.602 369.486C629.602 371.082 628.972 371.894 627.894 371.894ZM633.248 367.218V370.83C633.248 372.244 633.808 373.126 635.488 373.126C635.922 373.126 636.23 373.084 636.636 373V371.586C636.412 371.628 636.23 371.67 635.95 371.67C635.25 371.67 634.928 371.306 634.928 370.564V367.218H636.636V366H634.928V363.564L633.248 364.236V366H631.988V367.218H633.248ZM644.058 369.15C644.058 367.008 642.896 365.832 640.866 365.832C638.78 365.832 637.52 367.26 637.52 369.57C637.52 371.866 638.808 373.168 640.95 373.168C642.378 373.168 643.484 372.496 644.002 371.278L642.714 370.69C642.392 371.446 641.804 371.852 641.006 371.852C639.9 371.852 639.158 371.096 639.144 369.92H644.058V369.15ZM639.144 368.814C639.172 367.652 639.774 366.952 640.838 366.952C641.832 366.952 642.406 367.554 642.406 368.702V368.814H639.144ZM647.346 366H645.778V373H647.458V370.074C647.458 369.29 647.528 368.492 648.088 367.946C648.41 367.638 648.872 367.456 649.544 367.456H649.768V365.846C649.698 365.832 649.642 365.832 649.572 365.832C648.438 365.832 647.696 366.588 647.346 367.694V366ZM653.659 373.168C655.493 373.168 656.529 372.272 656.529 370.956C656.529 369.85 655.955 369.178 654.597 368.94L653.225 368.688C652.609 368.576 652.301 368.366 652.301 367.89C652.301 367.344 652.735 367.05 653.519 367.05C654.443 367.05 655.059 367.442 655.395 368.072L656.571 367.442C656.235 366.434 655.101 365.832 653.617 365.832C651.839 365.832 650.761 366.728 650.761 367.988C650.761 369.108 651.447 369.794 652.763 370.032L654.009 370.256C654.695 370.368 655.003 370.564 655.003 371.068C655.003 371.572 654.555 371.936 653.701 371.936C652.707 371.936 652.007 371.488 651.685 370.704L650.439 371.264C650.873 372.496 652.063 373.168 653.659 373.168ZM657.968 366.42V368.366H659.956V366.42H657.968ZM657.968 371.054V373H659.956V371.054H657.968Z" fill="#191C20"/>
<path d="M619.452 400.21C621.916 400.21 623.204 398.25 623.204 395.142C623.204 392.02 621.916 390.06 619.452 390.06C616.988 390.06 615.7 392.02 615.7 395.142C615.7 398.25 616.988 400.21 619.452 400.21ZM619.452 399.16C617.772 399.16 616.96 397.606 616.96 395.142C616.96 392.664 617.772 391.11 619.452 391.11C621.132 391.11 621.944 392.664 621.944 395.142C621.944 397.606 621.132 399.16 619.452 399.16ZM625.524 400L626.952 397.844C627.204 397.466 627.33 397.228 627.358 397.13H627.372C627.4 397.242 627.54 397.508 627.764 397.844L629.206 400H630.62L628.128 396.472L630.438 393H628.982L627.778 394.974C627.568 395.324 627.442 395.562 627.386 395.702H627.372C627.33 395.576 627.204 395.352 626.966 394.974L625.692 393H624.292L626.644 396.388L624.11 400H625.524ZM635.942 400.238C638.336 400.238 639.54 398.754 639.918 396.878L638.63 396.654C638.35 398.138 637.356 399.076 635.942 399.076C633.912 399.076 632.862 397.312 632.862 394.988C632.862 392.58 633.968 390.956 635.914 390.956C637.454 390.956 638.364 391.95 638.56 393.448L639.918 393.308C639.666 391.25 638.406 389.822 635.984 389.822C633.03 389.822 631.462 391.95 631.462 395.002C631.462 397.886 632.862 400.238 635.942 400.238ZM644.247 400L645.577 394.96C645.633 394.736 645.703 394.386 645.731 394.176H645.759C645.787 394.386 645.857 394.736 645.913 394.96L647.243 400H648.545L650.519 393H649.287L648.027 397.998C647.971 398.25 647.915 398.544 647.873 398.824H647.845C647.803 398.544 647.719 398.25 647.663 397.998L646.389 393H645.101L643.827 397.998C643.771 398.25 643.687 398.544 643.645 398.824H643.617C643.575 398.544 643.519 398.25 643.463 397.998L642.203 393H640.971L642.945 400H644.247ZM654.809 400.21C656.839 400.21 658.113 399.104 658.113 397.242C658.113 395.856 657.371 395.086 656.013 394.848C657.105 394.582 657.777 393.728 657.777 392.608C657.777 391.026 656.671 390.06 654.767 390.06C652.779 390.06 651.547 391.208 651.547 393.084L652.723 393.336C652.723 391.894 653.437 391.11 654.697 391.11C655.845 391.11 656.517 391.712 656.517 392.748C656.517 393.784 655.915 394.428 654.613 394.428H654.123V395.464H654.669C656.125 395.464 656.853 396.108 656.853 397.27C656.853 398.502 656.167 399.16 654.851 399.16C653.507 399.16 652.653 398.39 652.597 397.074L651.365 397.228C651.421 399.048 652.779 400.21 654.809 400.21ZM661.184 393H660.078V400H661.268V397.004C661.268 396.164 661.296 395.226 661.968 394.554C662.304 394.218 662.78 394.008 663.508 394.008H663.564V392.846C663.48 392.832 663.396 392.832 663.312 392.832C662.248 392.832 661.52 393.616 661.184 394.596V393ZM664.105 398.348V400H665.743V398.348H664.105ZM667.701 398.348V400H669.339V398.348H667.701ZM671.296 398.348V400H672.934V398.348H671.296Z" fill="#657080"/>
<path fill-rule="evenodd" clip-rule="evenodd" d="M126 100.5C125.724 100.5 125.5 100.724 125.5 101C125.5 101.276 125.724 101.5 126 101.5H127.002V100.5L126 100.5ZM129.006 101.5L131.009 101.5V100.5L129.006 100.5V101.5ZM133.013 101.5L135.017 101.5V100.5L133.013 100.5V101.5ZM137.021 101.5L139.024 101.5V100.5L137.021 100.5V101.5ZM141.028 101.5L143.032 101.5V100.5L141.028 100.5V101.5ZM145.036 101.5L147.04 101.5V100.5L145.036 100.5V101.5ZM149.043 101.5L151.047 101.5V100.5L149.043 100.5V101.5ZM153.051 101.5L155.055 101.5V100.5L153.051 100.5V101.5ZM157.058 101.5L159.062 101.5V100.5L157.058 100.5V101.5ZM161.066 101.5L163.07 101.5V100.5L161.066 100.5V101.5ZM165.073 101.5L167.077 101.5V100.5L165.073 100.5V101.5ZM169.081 101.5L171.085 101.5V100.5L169.081 100.5V101.5ZM173.088 101.5L175.092 101.5V100.5L173.088 100.5V101.5ZM177.096 101.5L179.1 101.5V100.5L177.096 100.5V101.5ZM181.103 101.5L183.107 101.5V100.5L181.103 100.5V101.5ZM185.111 101.5L187.115 101.5V100.5L185.111 100.5V101.5ZM189.119 101.5L191.122 101.5V100.5L189.119 100.5V101.5ZM193.126 101.5L195.13 101.5V100.5L193.126 100.5V101.5ZM197.134 101.5L199.137 101.5V100.5L197.134 100.5V101.5ZM201.141 101.5L203.145 101.5V100.5L201.141 100.5V101.5ZM205.149 101.5L207.152 101.5V100.5L205.149 100.5V101.5ZM209.156 101.5L211.16 101.5V100.5L209.156 100.5V101.5ZM213.164 101.5L215.167 101.5V100.5L213.164 100.5V101.5ZM217.171 101.5L219.175 101.5V100.5L217.171 100.5V101.5ZM221.179 101.5L223.182 101.5V100.5L221.179 100.5V101.5ZM225.186 101.5L227.19 101.5V100.5L225.186 100.5V101.5ZM229.194 101.5L231.197 101.5V100.5L229.194 100.5V101.5ZM233.201 101.5L235.205 101.5V100.5L233.201 100.5V101.5ZM237.209 101.5L239.213 101.5V100.5L237.209 100.5V101.5ZM241.216 101.5L243.22 101.5V100.5L241.216 100.5V101.5ZM245.224 101.5L247.228 101.5V100.5L245.224 100.5V101.5ZM249.231 101.5L251.235 101.5V100.5L249.231 100.5V101.5ZM253.239 101.5L255.243 101.5V100.5L253.239 100.5V101.5ZM257.246 101.5L259.25 101.5V100.5L257.246 100.5V101.5ZM261.254 101.5L263.258 101.5V100.5L261.254 100.5V101.5ZM265.261 101.5L267.265 101.5V100.5L265.261 100.5V101.5ZM269.269 101.5L271.273 101.5V100.5L269.269 100.5V101.5ZM273.277 101.5L275.28 101.5V100.5L273.277 100.5V101.5ZM277.284 101.5L279.288 101.5V100.5L277.284 100.5V101.5ZM281.292 101.5L283.295 101.5V100.5L281.292 100.5V101.5ZM285.299 101.5L287.303 101.5V100.5L285.299 100.5V101.5ZM289.307 101.5L291.31 101.5V100.5L289.307 100.5V101.5ZM293.314 101.5L295.318 101.5V100.5L293.314 100.5V101.5ZM297.322 101.5L299.326 101.5V100.5L297.322 100.5V101.5ZM301.329 101.5L303.333 101.5V100.5L301.329 100.5V101.5ZM305.337 101.5L307.341 101.5V100.5L305.337 100.5V101.5ZM309.344 101.5L311.348 101.5V100.5L309.344 100.5V101.5ZM313.352 101.5L315.356 101.5V100.5L313.352 100.5V101.5ZM317.359 101.5L319.363 101.5V100.5L317.359 100.5V101.5ZM321.367 101.5L323.371 101.5V100.5L321.367 100.5V101.5ZM325.375 101.5L327.378 101.5V100.5L325.375 100.5V101.5ZM329.382 101.5L331.386 101.5V100.5L329.382 100.5V101.5ZM333.39 101.5L335.393 101.5V100.5L333.39 100.5V101.5ZM337.397 101.5L339.401 101.5V100.5L337.397 100.5V101.5ZM341.405 101.5L343.408 101.5V100.5L341.405 100.5V101.5ZM345.412 101.5L347.416 101.5V100.5L345.412 100.5V101.5ZM349.42 101.5L351.424 101.5V100.5L349.42 100.5V101.5ZM353.427 101.5L355.431 101.5V100.5L353.427 100.5V101.5ZM357.435 101.5L359.439 101.5V100.5L357.435 100.5V101.5ZM361.442 101.5L363.446 101.5V100.5L361.442 100.5V101.5ZM365.45 101.5L367.454 101.5V100.5L365.45 100.5V101.5ZM369.457 101.5L371.461 101.5V100.5L369.457 100.5V101.5ZM373.465 101.5L375.469 101.5V100.5L373.465 100.5V101.5ZM377.473 101.5L379.476 101.5V100.5L377.473 100.5V101.5ZM381.48 101.5L383.484 101.5V100.5L381.48 100.5V101.5ZM385.976 101.5L387.491 101.5V100.5L385.488 100.5V100.512L385.476 100.512C385.199 100.512 384.976 100.736 384.976 101.012V102.034H385.976V101.5ZM389.495 101.5L391.499 101.5V100.5L389.495 100.5V101.5ZM393.503 101.5L395.506 101.5V100.5L393.503 100.5V101.5ZM397.51 101.5L399.514 101.5V100.5L397.51 100.5V101.5ZM401.518 101.5L403.521 101.5V100.5L401.518 100.5V101.5ZM405.525 101.5L407.529 101.5V100.5L405.525 100.5V101.5ZM409.533 101.5L411.536 101.5V100.5L409.533 100.5V101.5ZM413.54 101.5L415.544 101.5V100.5L413.54 100.5V101.5ZM417.548 101.5L419.551 101.5V100.5L417.548 100.5V101.5ZM421.555 101.5L423.559 101.5V100.5L421.555 100.5V101.5ZM425.563 101.5L427.566 101.5V100.5L425.563 100.5V101.5ZM429.57 101.5L431.574 101.5V100.5L429.57 100.5V101.5ZM433.578 101.5L435.581 101.5V100.5L433.578 100.5V101.5ZM437.585 101.5L439.589 101.5V100.5L437.585 100.5V101.5ZM441.593 101.5L443.596 101.5V100.5L441.593 100.5V101.5ZM445.6 101.5L447.604 101.5V100.5L445.6 100.5V101.5ZM449.608 101.5L451.611 101.5V100.5L449.608 100.5V101.5ZM453.615 101.5L455.619 101.5V100.5L453.615 100.5V101.5ZM457.623 101.5L459.626 101.5V100.5L457.623 100.5V101.5ZM461.63 101.5L463.634 101.5V100.5L461.63 100.5V101.5ZM465.638 101.5L467.641 101.5V100.5L465.638 100.5V101.5ZM469.645 101.5L471.649 101.5V100.5L469.645 100.5V101.5ZM473.653 101.5L475.656 101.5V100.5L473.653 100.5V101.5ZM477.66 101.5L479.664 101.5V100.5L477.66 100.5V101.5ZM481.668 101.5L483.672 101.5V100.5L481.668 100.5V101.5ZM485.675 101.5L487.679 101.5V100.5L485.675 100.5V101.5ZM489.683 101.5L491.687 101.5V100.5L489.683 100.5V101.5ZM493.69 101.5L495.694 101.5V100.5L493.69 100.5V101.5ZM497.698 101.5L499.702 101.5V100.5L497.698 100.5V101.5ZM501.705 101.5L503.709 101.5V100.5L501.705 100.5V101.5ZM505.713 101.5L507.717 101.5V100.5L505.713 100.5V101.5ZM509.72 101.5L511.724 101.5V100.5L509.72 100.5V101.5ZM513.728 101.5L515.732 101.5V100.5L513.728 100.5V101.5ZM517.735 101.5L519.739 101.5V100.5L517.735 100.5V101.5ZM521.743 101.5H521.788V102.103H522.788V101.5L523.747 101.5V100.5L521.743 100.5V101.5ZM525.75 101.5L527.754 101.5V100.5L525.75 100.5V101.5ZM529.758 101.5L531.762 101.5V100.5L529.758 100.5V101.5ZM533.765 101.5L535.769 101.5V100.5L533.765 100.5V101.5ZM537.773 101.5L539.777 101.5V100.5L537.773 100.5V101.5ZM541.78 101.5L543.784 101.5V100.5L541.78 100.5V101.5ZM545.788 101.5L547.792 101.5V100.5L545.788 100.5V101.5ZM549.795 101.5L551.799 101.5V100.5L549.795 100.5V101.5ZM553.803 101.5L555.807 101.5V100.5L553.803 100.5V101.5ZM557.81 101.5L559.814 101.5V100.5L557.81 100.5V101.5ZM561.818 101.5L563.822 101.5V100.5L561.818 100.5V101.5ZM565.825 101.5L567.829 101.5V100.5L565.825 100.5V101.5ZM569.833 101.5L571.837 101.5V100.5L569.833 100.5V101.5ZM573.84 101.5L575.844 101.5V100.5L573.84 100.5V101.5ZM577.848 101.5L579.852 101.5V100.5L577.848 100.5V101.5ZM581.855 101.5L583.859 101.5V100.5L581.855 100.5V101.5ZM585.863 101.5L587.867 101.5V100.5L585.863 100.5V101.5ZM589.87 101.5L591.874 101.5V100.5L589.87 100.5V101.5ZM593.878 101.5L595.882 101.5V100.5L593.878 100.5V101.5ZM597.885 101.5L599.889 101.5V100.5L597.885 100.5V101.5ZM601.893 101.5L603.897 101.5V100.5L601.893 100.5V101.5ZM605.9 101.5L607.904 101.5V100.5L605.9 100.5V101.5ZM609.908 101.5L611.912 101.5V100.5L609.908 100.5V101.5ZM613.915 101.5L615.919 101.5V100.5L613.915 100.5V101.5ZM617.923 101.5L619.927 101.5V100.5L617.923 100.5V101.5ZM621.931 101.5L623.934 101.5V100.5L621.931 100.5V101.5ZM625.938 101.5L627.942 101.5V100.5L625.938 100.5V101.5ZM629.946 101.5L631.949 101.5V100.5L629.946 100.5V101.5ZM633.953 101.5L635.957 101.5V100.5L633.953 100.5V101.5ZM637.961 101.5L639.964 101.5V100.5H637.961L637.961 101.5ZM641.968 101.5L643.972 101.5V100.5H641.968V101.5ZM645.976 101.5L647.979 101.5V100.5H645.976V101.5ZM649.983 101.5L651.987 101.5V100.5H649.983V101.5ZM653.991 101.5L655.995 101.5V100.5H653.991V101.5ZM658.614 101.5L657.998 101.5V100.5H659.001V100.521C659.037 100.512 659.075 100.508 659.114 100.508C659.39 100.508 659.614 100.732 659.614 101.008V102.029H658.614V101.5ZM385.476 150.064L388.362 145.064H385.976V144.955H384.976V145.064H382.589L385.476 150.064ZM384.976 104.078V106.121H385.976V104.078H384.976ZM384.976 108.165V110.209H385.976V108.165H384.976ZM384.976 112.253V114.297H385.976V112.253H384.976ZM384.976 116.341V118.385H385.976V116.341H384.976ZM384.976 120.428V122.472H385.976V120.428H384.976ZM384.976 124.516V126.56H385.976V124.516H384.976ZM384.976 128.604V130.648H385.976V128.604H384.976ZM384.976 132.692V134.735H385.976V132.692L384.976 132.692ZM384.976 136.779V138.823H385.976V136.779H384.976ZM384.976 140.867V142.911H385.976V140.867H384.976ZM525.175 145.004L522.288 150.004L519.401 145.004H521.788V144.908H522.788V145.004H525.175ZM521.788 106.18V104.141H522.788V106.18H521.788ZM521.788 110.256V108.218H522.788V110.256H521.788ZM521.788 114.333V112.295H522.788V114.333H521.788ZM521.788 118.41V116.371H522.788V118.41H521.788ZM521.788 122.486V120.448H522.788V122.486H521.788ZM521.788 126.563V124.525H522.788V126.563H521.788ZM521.788 130.64V128.601H522.788V130.64H521.788ZM521.788 134.716V132.678H522.788V134.716H521.788ZM521.788 138.793V136.755H522.788V138.793H521.788ZM521.788 142.87V140.831H522.788V142.87H521.788ZM659.114 150.004L662.001 145.004H659.614V144.9H658.614V145.004H656.227L659.114 150.004ZM658.614 104.07V106.112H659.614V104.07H658.614ZM658.614 108.153V110.195H659.614V108.153H658.614ZM658.614 112.236V114.278H659.614V112.236H658.614ZM658.614 116.319V118.361H659.614V116.319H658.614ZM658.614 120.402V122.444H659.614V120.402H658.614ZM658.614 124.485V126.527H659.614V124.485H658.614ZM658.614 128.568V130.61H659.614V128.568H658.614ZM658.614 132.651V134.693H659.614V132.651L658.614 132.651ZM658.614 136.734V138.776H659.614V136.734H658.614ZM658.614 140.817V142.859H659.614V140.817H658.614Z" fill="#9BA3AE"/>
<path d="M130.658 90L132.59 82.244C132.632 82.076 132.66 81.95 132.674 81.782H132.73C132.744 81.95 132.772 82.076 132.814 82.244L134.746 90H136.37L138.736 80.06H137.378L135.656 88.068C135.6 88.334 135.586 88.46 135.572 88.614H135.53C135.516 88.474 135.488 88.348 135.418 88.068L133.374 80.06H132.03L129.986 88.068C129.916 88.348 129.888 88.474 129.874 88.614H129.832C129.818 88.46 129.804 88.334 129.748 88.068L128.026 80.06H126.668L129.034 90H130.658ZM142.706 90.168C144.68 90.168 145.968 88.782 145.968 86.5C145.968 84.218 144.68 82.832 142.706 82.832C140.732 82.832 139.444 84.218 139.444 86.5C139.444 88.782 140.732 90.168 142.706 90.168ZM142.706 89.132C141.446 89.132 140.704 88.236 140.704 86.5C140.704 84.764 141.446 83.868 142.706 83.868C143.966 83.868 144.708 84.764 144.708 86.5C144.708 88.236 143.966 89.132 142.706 89.132ZM148.96 83H147.854V90H149.044V87.004C149.044 86.164 149.072 85.226 149.744 84.554C150.08 84.218 150.556 84.008 151.284 84.008H151.34V82.846C151.256 82.832 151.172 82.832 151.088 82.832C150.024 82.832 149.296 83.616 148.96 84.596V83ZM152.885 79.85V90H154.075V79.85H152.885ZM158.802 90.168C159.894 90.168 160.65 89.636 161.07 88.698V90H162.19V79.85H161V84.036C160.552 83.21 159.866 82.832 158.942 82.832C157.192 82.832 155.96 84.344 155.96 86.5C155.96 88.698 157.108 90.168 158.802 90.168ZM159.124 89.118C157.934 89.118 157.22 88.138 157.22 86.5C157.22 84.848 157.934 83.882 159.124 83.882C160.3 83.882 161.028 84.82 161.028 86.346V86.668C161.028 88.166 160.286 89.118 159.124 89.118ZM169.818 80.06H168.488V90H169.818V80.06ZM175.851 90C178.749 90 180.597 87.914 180.597 85.016C180.597 82.062 178.735 80.06 175.879 80.06H172.617V90H175.851ZM173.947 81.18H175.851C177.993 81.18 179.183 82.804 179.183 85.016C179.183 87.144 177.965 88.88 175.823 88.88H173.947V81.18ZM188.809 90L191.343 83H190.055L188.487 87.718C188.361 88.096 188.263 88.46 188.193 88.782H188.151C188.081 88.46 187.983 88.096 187.857 87.718L186.289 83H185.001L187.535 90H188.809ZM198.2 86.01C198.2 83.91 197.108 82.832 195.218 82.832C193.216 82.832 192.04 84.246 192.04 86.584C192.04 88.894 193.23 90.168 195.232 90.168C196.646 90.168 197.668 89.496 198.158 88.222L197.178 87.788C196.87 88.642 196.212 89.118 195.316 89.118C194.07 89.118 193.244 88.222 193.23 86.85H198.2V86.01ZM193.23 85.884C193.258 84.568 193.958 83.77 195.19 83.77C196.338 83.77 196.996 84.442 196.996 85.73V85.884H193.23ZM201.268 83H200.162V90H201.352V87.004C201.352 86.164 201.38 85.226 202.052 84.554C202.388 84.218 202.864 84.008 203.592 84.008H203.648V82.846C203.564 82.832 203.48 82.832 203.396 82.832C202.332 82.832 201.604 83.616 201.268 84.596V83ZM206.468 81.698V80.2H205.11V81.698H206.468ZM206.384 90V83H205.194V90H206.384ZM210.397 83V82.062C210.397 81.208 210.691 80.816 211.405 80.816C211.629 80.816 211.895 80.844 212.147 80.886V79.864C211.881 79.794 211.587 79.766 211.251 79.766C210.005 79.766 209.207 80.62 209.207 81.894V83H207.919V83.98H209.207V90H210.397V83.98H212.147V83H210.397ZM215.031 81.698V80.2H213.673V81.698H215.031ZM214.947 90V83H213.757V90H214.947ZM220.061 90.168C221.629 90.168 222.679 89.244 222.931 87.648L221.797 87.466C221.615 88.558 221.027 89.132 220.075 89.132C218.829 89.132 218.101 88.166 218.101 86.486C218.101 84.848 218.829 83.868 220.033 83.868C220.985 83.868 221.601 84.456 221.727 85.52L222.945 85.38C222.763 83.77 221.699 82.832 220.061 82.832C218.073 82.832 216.841 84.218 216.841 86.5C216.841 88.74 218.101 90.168 220.061 90.168ZM226.576 90.168C227.724 90.168 228.606 89.622 228.928 88.726C228.942 89.174 228.984 89.636 229.04 90H230.286C230.118 89.454 230.048 88.712 230.048 87.634V85.744C230.048 83.7 229.208 82.832 227.29 82.832C225.652 82.832 224.532 83.77 224.434 85.198H225.708C225.764 84.316 226.352 83.812 227.304 83.812C228.382 83.812 228.844 84.33 228.844 85.618V85.73L227.542 85.884C226.394 86.024 225.722 86.192 225.19 86.458C224.56 86.808 224.21 87.41 224.21 88.11C224.21 89.356 225.148 90.168 226.576 90.168ZM226.842 89.188C225.988 89.188 225.47 88.768 225.47 88.082C225.47 87.396 225.918 87.032 226.954 86.878L228.858 86.598V86.948C228.858 88.306 228.06 89.188 226.842 89.188ZM232.639 83.98V87.9C232.639 89.202 233.031 90.126 234.543 90.126C234.991 90.126 235.271 90.084 235.579 90V88.908C235.341 88.964 235.159 89.006 234.851 89.006C234.137 89.006 233.829 88.656 233.829 87.858V83.98H235.579V83H233.829V80.662L232.639 81.166V83H231.337V83.98H232.639ZM238.597 81.698V80.2H237.239V81.698H238.597ZM238.513 90V83H237.323V90H238.513ZM243.66 90.168C245.634 90.168 246.922 88.782 246.922 86.5C246.922 84.218 245.634 82.832 243.66 82.832C241.686 82.832 240.398 84.218 240.398 86.5C240.398 88.782 241.686 90.168 243.66 90.168ZM243.66 89.132C242.4 89.132 241.658 88.236 241.658 86.5C241.658 84.764 242.4 83.868 243.66 83.868C244.92 83.868 245.662 84.764 245.662 86.5C245.662 88.236 244.92 89.132 243.66 89.132ZM249.997 90V86.346C249.997 84.792 250.711 83.854 251.873 83.854C252.895 83.854 253.413 84.484 253.413 85.716V90H254.603V85.646C254.603 83.784 253.805 82.832 252.265 82.832C251.159 82.832 250.389 83.336 249.927 84.386V83H248.807V90H249.997ZM259.294 90.168C261.002 90.168 261.968 89.286 261.968 88.026C261.968 87.004 261.408 86.36 260.148 86.122L258.79 85.87C258.104 85.744 257.712 85.464 257.712 84.876C257.712 84.19 258.258 83.798 259.154 83.798C260.106 83.798 260.652 84.288 260.806 84.988L261.982 84.722C261.842 83.546 260.778 82.832 259.21 82.832C257.558 82.832 256.55 83.728 256.55 84.932C256.55 85.996 257.222 86.668 258.412 86.892L259.784 87.144C260.414 87.256 260.792 87.508 260.792 88.124C260.792 88.726 260.274 89.188 259.336 89.188C258.314 89.188 257.656 88.684 257.488 87.802L256.284 88.012C256.522 89.398 257.642 90.168 259.294 90.168Z" fill="#191C20"/>
</svg>
