<svg width="749" height="378" viewBox="0 0 749 378" fill="none" xmlns="http://www.w3.org/2000/svg">
<path d="M78 23.5H748" stroke="#EBECEF" stroke-linecap="round" stroke-dasharray="6 10"/>
<path d="M78 56.5H748" stroke="#EBECEF" stroke-linecap="round" stroke-dasharray="6 10"/>
<path d="M78 89.5H748" stroke="#EBECEF" stroke-linecap="round" stroke-dasharray="6 10"/>
<path d="M78 122.5H748" stroke="#EBECEF" stroke-linecap="round" stroke-dasharray="6 10"/>
<path d="M78 155.5H748" stroke="#EBECEF" stroke-linecap="round" stroke-dasharray="6 10"/>
<path d="M78 188.5H748" stroke="#EBECEF" stroke-linecap="round" stroke-dasharray="6 10"/>
<path d="M78 221.5H748" stroke="#EBECEF" stroke-linecap="round" stroke-dasharray="6 10"/>
<path d="M78 254.5H748" stroke="#EBECEF" stroke-linecap="round" stroke-dasharray="6 10"/>
<path d="M78 287.5H748" stroke="#EBECEF" stroke-linecap="round" stroke-dasharray="6 10"/>
<path d="M78 320.5H748" stroke="#EBECEF" stroke-linecap="round" stroke-dasharray="6 10"/>
<path d="M78.3536 21.6464C78.1583 21.4512 77.8417 21.4512 77.6465 21.6464L74.4645 24.8284C74.2692 25.0237 74.2692 25.3402 74.4645 25.5355C74.6597 25.7308 74.9763 25.7308 75.1716 25.5355L78 22.7071L80.8284 25.5355C81.0237 25.7308 81.3403 25.7308 81.5356 25.5355C81.7308 25.3402 81.7308 25.0237 81.5356 24.8284L78.3536 21.6464ZM78 354L77.5 354L77.5 354.5L78 354.5L78 354ZM748.354 354.354C748.549 354.158 748.549 353.842 748.354 353.646L745.172 350.464C744.976 350.269 744.66 350.269 744.464 350.464C744.269 350.66 744.269 350.976 744.464 351.172L747.293 354L744.464 356.828C744.269 357.024 744.269 357.34 744.464 357.536C744.66 357.731 744.976 357.731 745.172 357.536L748.354 354.354ZM77.5 22L77.5 354L78.5 354L78.5 22L77.5 22ZM78 354.5L748 354.5L748 353.5L78 353.5L78 354.5Z" fill="#D6D9DD"/>
<path d="M660.25 376.17C662.02 376.17 662.84 375.18 662.84 374.08C662.84 372.79 661.98 372.3 660.88 372.07L659.84 371.85C659.05 371.68 658.68 371.32 658.68 370.63C658.68 369.91 659.28 369.48 660.15 369.48C661.2 369.48 661.73 370 661.85 370.95L662.8 370.75C662.66 369.36 661.58 368.73 660.17 368.73C658.66 368.73 657.7 369.53 657.7 370.72C657.7 371.94 658.47 372.47 659.48 372.68L660.51 372.89C661.34 373.06 661.86 373.33 661.86 374.17C661.86 375.07 661.05 375.39 660.28 375.39C659.03 375.39 658.49 374.62 658.36 373.75L657.4 373.89C657.52 375.19 658.44 376.17 660.25 376.17ZM663.136 368.9V369.7H665.366V376H666.316V369.7H668.546V368.9H663.136ZM674.899 376L673.079 372.92C674.269 372.65 674.679 371.78 674.679 370.98C674.679 369.94 674.189 368.9 672.329 368.9H669.699V376H670.649V373.05H672.089L673.829 376H674.899ZM672.219 369.7C673.309 369.7 673.679 370.25 673.679 370.98C673.679 371.69 673.319 372.25 672.219 372.25H670.649V369.7H672.219ZM678.854 376.17C680.814 376.17 682.094 374.75 682.094 372.45C682.094 370.13 680.814 368.73 678.854 368.73C676.884 368.73 675.604 370.13 675.604 372.45C675.604 374.72 676.884 376.17 678.854 376.17ZM678.854 375.37C677.434 375.37 676.604 374.23 676.604 372.45C676.604 370.63 677.434 369.53 678.854 369.53C680.274 369.53 681.094 370.63 681.094 372.45C681.094 374.26 680.274 375.37 678.854 375.37ZM684.397 376V370.86C684.397 370.43 684.387 370.17 684.367 369.92H684.387C684.497 370.24 684.627 370.48 684.827 370.83L687.837 376H688.987V368.9H688.137V374.04C688.137 374.47 688.147 374.73 688.167 374.98H688.147C688.037 374.68 687.907 374.42 687.707 374.07L684.697 368.9H683.547V376H684.397ZM693.548 376.17C694.608 376.17 695.418 375.63 695.728 374.86L695.858 376H696.548V372.29H693.618V373.09H695.698V373.21C695.698 373.89 695.438 375.36 693.688 375.36C692.148 375.36 691.408 374.08 691.408 372.46C691.408 370.73 692.228 369.53 693.678 369.53C694.948 369.53 695.378 370.41 695.478 371.01L696.418 370.88C696.298 370.09 695.668 368.73 693.708 368.73C691.608 368.73 690.438 370.28 690.438 372.45C690.438 374.59 691.608 376.17 693.548 376.17ZM703.092 376.17C704.862 376.17 705.682 375.18 705.682 374.08C705.682 372.79 704.822 372.3 703.722 372.07L702.682 371.85C701.892 371.68 701.522 371.32 701.522 370.63C701.522 369.91 702.122 369.48 702.992 369.48C704.042 369.48 704.572 370 704.692 370.95L705.642 370.75C705.502 369.36 704.422 368.73 703.012 368.73C701.502 368.73 700.542 369.53 700.542 370.72C700.542 371.94 701.312 372.47 702.322 372.68L703.352 372.89C704.182 373.06 704.702 373.33 704.702 374.17C704.702 375.07 703.892 375.39 703.122 375.39C701.872 375.39 701.332 374.62 701.202 373.75L700.242 373.89C700.362 375.19 701.282 376.17 703.092 376.17ZM708.032 372.76H711.312V371.96H708.032V369.7H711.482V368.9H707.082V376H711.552V375.2H708.032V372.76ZM715.757 376.17C717.467 376.17 718.327 375.11 718.597 373.77L717.677 373.61C717.477 374.67 716.767 375.34 715.757 375.34C714.307 375.34 713.557 374.08 713.557 372.42C713.557 370.7 714.347 369.54 715.737 369.54C716.837 369.54 717.487 370.25 717.627 371.32L718.597 371.22C718.417 369.75 717.517 368.73 715.787 368.73C713.677 368.73 712.557 370.25 712.557 372.43C712.557 374.49 713.557 376.17 715.757 376.17ZM719.902 373.52C719.902 375.1 720.872 376.17 722.632 376.17C724.392 376.17 725.362 375.1 725.362 373.52V368.9H724.412V373.46C724.412 374.6 723.782 375.33 722.632 375.33C721.482 375.33 720.852 374.6 720.852 373.46V368.9H719.902V373.52ZM732.458 376L730.638 372.92C731.828 372.65 732.238 371.78 732.238 370.98C732.238 369.94 731.748 368.9 729.888 368.9H727.258V376H728.208V373.05H729.648L731.388 376H732.458ZM729.778 369.7C730.868 369.7 731.238 370.25 731.238 370.98C731.238 371.69 730.878 372.25 729.778 372.25H728.208V369.7H729.778ZM734.858 368.9H733.908V376H734.858V368.9ZM736.007 368.9V369.7H738.237V376H739.187V369.7H741.417V368.9H736.007ZM745.441 376V373.17L747.851 368.9H746.791L745.161 371.91C745.061 372.1 745.001 372.23 744.971 372.32H744.951C744.921 372.23 744.861 372.1 744.761 371.91L743.131 368.9H742.071L744.481 373.17V376H745.441Z" fill="#657080"/>
<path d="M81.1 376L82.48 370.46C82.51 370.34 82.53 370.25 82.54 370.13H82.58C82.59 370.25 82.61 370.34 82.64 370.46L84.02 376H85.18L86.87 368.9H85.9L84.67 374.62C84.63 374.81 84.62 374.9 84.61 375.01H84.58C84.57 374.91 84.55 374.82 84.5 374.62L83.04 368.9H82.08L80.62 374.62C80.57 374.82 80.55 374.91 80.54 375.01H80.51C80.5 374.9 80.49 374.81 80.45 374.62L79.22 368.9H78.25L79.94 376H81.1ZM89.0711 372.76H92.3511V371.96H89.0711V369.7H92.5211V368.9H88.1211V376H92.5911V375.2H89.0711V372.76ZM99.8118 376L97.1218 368.9H96.1818L93.4918 376H94.4718L95.2018 373.95H98.1018L98.8318 376H99.8118ZM96.4718 370.38C96.5318 370.22 96.5818 370.05 96.6418 369.84H96.6618C96.7218 370.05 96.7718 370.22 96.8318 370.38L97.8218 373.15H95.4818L96.4718 370.38ZM106.443 376L103.613 371.74L106.223 368.9H105.033L101.913 372.42V368.9H100.963V376H101.913V373.57L102.963 372.42L105.333 376H106.443ZM112.49 376.17C114.26 376.17 115.08 375.18 115.08 374.08C115.08 372.79 114.22 372.3 113.12 372.07L112.08 371.85C111.29 371.68 110.92 371.32 110.92 370.63C110.92 369.91 111.52 369.48 112.39 369.48C113.44 369.48 113.97 370 114.09 370.95L115.04 370.75C114.9 369.36 113.82 368.73 112.41 368.73C110.9 368.73 109.94 369.53 109.94 370.72C109.94 371.94 110.71 372.47 111.72 372.68L112.75 372.89C113.58 373.06 114.1 373.33 114.1 374.17C114.1 375.07 113.29 375.39 112.52 375.39C111.27 375.39 110.73 374.62 110.6 373.75L109.64 373.89C109.76 375.19 110.68 376.17 112.49 376.17ZM117.43 372.76H120.71V371.96H117.43V369.7H120.88V368.9H116.48V376H120.95V375.2H117.43V372.76ZM125.156 376.17C126.866 376.17 127.726 375.11 127.996 373.77L127.076 373.61C126.876 374.67 126.166 375.34 125.156 375.34C123.706 375.34 122.956 374.08 122.956 372.42C122.956 370.7 123.746 369.54 125.136 369.54C126.236 369.54 126.886 370.25 127.026 371.32L127.996 371.22C127.816 369.75 126.916 368.73 125.186 368.73C123.076 368.73 121.956 370.25 121.956 372.43C121.956 374.49 122.956 376.17 125.156 376.17ZM129.3 373.52C129.3 375.1 130.27 376.17 132.03 376.17C133.79 376.17 134.76 375.1 134.76 373.52V368.9H133.81V373.46C133.81 374.6 133.18 375.33 132.03 375.33C130.88 375.33 130.25 374.6 130.25 373.46V368.9H129.3V373.52ZM141.856 376L140.036 372.92C141.226 372.65 141.636 371.78 141.636 370.98C141.636 369.94 141.146 368.9 139.286 368.9H136.656V376H137.606V373.05H139.046L140.786 376H141.856ZM139.176 369.7C140.266 369.7 140.636 370.25 140.636 370.98C140.636 371.69 140.276 372.25 139.176 372.25H137.606V369.7H139.176ZM144.257 368.9H143.307V376H144.257V368.9ZM145.406 368.9V369.7H147.636V376H148.586V369.7H150.816V368.9H145.406ZM154.839 376V373.17L157.249 368.9H156.189L154.559 371.91C154.459 372.1 154.399 372.23 154.369 372.32H154.349C154.319 372.23 154.259 372.1 154.159 371.91L152.529 368.9H151.469L153.879 373.17V376H154.839Z" fill="#657080"/>
<path d="M5.53 24.9V27.97H1.95V24.9H1V32H1.95V28.77H5.53V32H6.48V24.9H5.53ZM9.43047 24.9H8.48047V32H9.43047V24.9ZM13.9897 32.17C15.0497 32.17 15.8597 31.63 16.1697 30.86L16.2997 32H16.9897V28.29H14.0597V29.09H16.1397V29.21C16.1397 29.89 15.8797 31.36 14.1297 31.36C12.5897 31.36 11.8497 30.08 11.8497 28.46C11.8497 26.73 12.6697 25.53 14.1197 25.53C15.3897 25.53 15.8197 26.41 15.9197 27.01L16.8597 26.88C16.7397 26.09 16.1097 24.73 14.1497 24.73C12.0497 24.73 10.8797 26.28 10.8797 28.45C10.8797 30.59 12.0497 32.17 13.9897 32.17ZM23.2155 24.9V27.97H19.6355V24.9H18.6855V32H19.6355V28.77H23.2155V32H24.1655V24.9H23.2155ZM31.0137 32.17C32.7837 32.17 33.6037 31.18 33.6037 30.08C33.6037 28.79 32.7437 28.3 31.6437 28.07L30.6037 27.85C29.8137 27.68 29.4437 27.32 29.4437 26.63C29.4437 25.91 30.0437 25.48 30.9137 25.48C31.9637 25.48 32.4937 26 32.6137 26.95L33.5637 26.75C33.4237 25.36 32.3437 24.73 30.9337 24.73C29.4237 24.73 28.4637 25.53 28.4637 26.72C28.4637 27.94 29.2337 28.47 30.2437 28.68L31.2737 28.89C32.1037 29.06 32.6237 29.33 32.6237 30.17C32.6237 31.07 31.8137 31.39 31.0437 31.39C29.7937 31.39 29.2537 30.62 29.1237 29.75L28.1637 29.89C28.2837 31.19 29.2037 32.17 31.0137 32.17ZM37.2102 32V29.17L39.6202 24.9H38.5602L36.9302 27.91C36.8302 28.1 36.7702 28.23 36.7402 28.32H36.7202C36.6902 28.23 36.6302 28.1 36.5302 27.91L34.9002 24.9H33.8402L36.2502 29.17V32H37.2102ZM44.3568 28.33C45.1668 28.1 45.5468 27.46 45.5468 26.79C45.5468 25.95 45.0568 24.9 43.1868 24.9H40.7168V32H43.3968C45.1968 32 45.7468 30.96 45.7468 30.05C45.7468 29.1 45.2068 28.48 44.3568 28.33ZM43.1868 25.7C44.3368 25.7 44.6068 26.3 44.6068 26.86C44.6068 27.35 44.4068 27.98 43.1868 27.98H41.6668V25.7H43.1868ZM41.6668 31.2V28.78H43.4468C44.4168 28.78 44.8068 29.3 44.8068 29.96C44.8068 30.6 44.4568 31.2 43.3468 31.2H41.6668ZM48.2488 24.9H47.2988V32H48.2488V24.9ZM54.478 32V31.2H51.198V24.9H50.248V32H54.478ZM6.47 44L3.78 36.9H2.84L0.15 44H1.13L1.86 41.95H4.76L5.49 44H6.47ZM3.13 38.38C3.19 38.22 3.24 38.05 3.3 37.84H3.32C3.38 38.05 3.43 38.22 3.49 38.38L4.48 41.15H2.14L3.13 38.38ZM6.01914 36.9V37.7H8.24914V44H9.19914V37.7H11.4291V36.9H6.01914ZM12.1813 36.9V37.7H14.4113V44H15.3613V37.7H17.5913V36.9H12.1813ZM23.4622 44L20.7722 36.9H19.8322L17.1422 44H18.1222L18.8522 41.95H21.7522L22.4822 44H23.4622ZM20.1222 38.38C20.1822 38.22 20.2322 38.05 20.2922 37.84H20.3122C20.3722 38.05 20.4222 38.22 20.4822 38.38L21.4722 41.15H19.1322L20.1222 38.38ZM27.068 44.17C28.778 44.17 29.638 43.11 29.908 41.77L28.988 41.61C28.788 42.67 28.078 43.34 27.068 43.34C25.618 43.34 24.868 42.08 24.868 40.42C24.868 38.7 25.658 37.54 27.048 37.54C28.148 37.54 28.798 38.25 28.938 39.32L29.908 39.22C29.728 37.75 28.828 36.73 27.098 36.73C24.988 36.73 23.868 38.25 23.868 40.43C23.868 42.49 24.868 44.17 27.068 44.17ZM36.7925 44L33.9625 39.74L36.5725 36.9H35.3825L32.2625 40.42V36.9H31.3125V44H32.2625V41.57L33.3125 40.42L35.6825 44H36.7925ZM43.2398 44.17C44.9498 44.17 45.8098 43.11 46.0798 41.77L45.1598 41.61C44.9598 42.67 44.2498 43.34 43.2398 43.34C41.7898 43.34 41.0398 42.08 41.0398 40.42C41.0398 38.7 41.8298 37.54 43.2198 37.54C44.3198 37.54 44.9698 38.25 45.1098 39.32L46.0798 39.22C45.8998 37.75 44.9998 36.73 43.2698 36.73C41.1598 36.73 40.0398 38.25 40.0398 40.43C40.0398 42.49 41.0398 44.17 43.2398 44.17ZM50.1355 44.17C52.0955 44.17 53.3755 42.75 53.3755 40.45C53.3755 38.13 52.0955 36.73 50.1355 36.73C48.1655 36.73 46.8855 38.13 46.8855 40.45C46.8855 42.72 48.1655 44.17 50.1355 44.17ZM50.1355 43.37C48.7155 43.37 47.8855 42.23 47.8855 40.45C47.8855 38.63 48.7155 37.53 50.1355 37.53C51.5555 37.53 52.3755 38.63 52.3755 40.45C52.3755 42.26 51.5555 43.37 50.1355 43.37ZM57.0293 44.17C58.7993 44.17 59.6193 43.18 59.6193 42.08C59.6193 40.79 58.7593 40.3 57.6593 40.07L56.6193 39.85C55.8293 39.68 55.4593 39.32 55.4593 38.63C55.4593 37.91 56.0593 37.48 56.9293 37.48C57.9793 37.48 58.5093 38 58.6293 38.95L59.5793 38.75C59.4393 37.36 58.3593 36.73 56.9493 36.73C55.4393 36.73 54.4793 37.53 54.4793 38.72C54.4793 39.94 55.2493 40.47 56.2593 40.68L57.2893 40.89C58.1193 41.06 58.6393 41.33 58.6393 42.17C58.6393 43.07 57.8293 43.39 57.0593 43.39C55.8093 43.39 55.2693 42.62 55.1393 41.75L54.1793 41.89C54.2993 43.19 55.2193 44.17 57.0293 44.17ZM59.9156 36.9V37.7H62.1456V44H63.0956V37.7H65.3256V36.9H59.9156Z" fill="#657080"/>
<path d="M5.23 340V339.2H1.95V332.9H1V340H5.23ZM8.82695 340.17C10.787 340.17 12.067 338.75 12.067 336.45C12.067 334.13 10.787 332.73 8.82695 332.73C6.85695 332.73 5.57695 334.13 5.57695 336.45C5.57695 338.72 6.85695 340.17 8.82695 340.17ZM8.82695 339.37C7.40695 339.37 6.57695 338.23 6.57695 336.45C6.57695 334.63 7.40695 333.53 8.82695 333.53C10.247 333.53 11.067 334.63 11.067 336.45C11.067 338.26 10.247 339.37 8.82695 339.37ZM15.3656 340L16.7456 334.46C16.7756 334.34 16.7956 334.25 16.8056 334.13H16.8456C16.8556 334.25 16.8756 334.34 16.9056 334.46L18.2856 340H19.4456L21.1356 332.9H20.1656L18.9356 338.62C18.8956 338.81 18.8856 338.9 18.8756 339.01H18.8456C18.8356 338.91 18.8156 338.82 18.7656 338.62L17.3056 332.9H16.3456L14.8856 338.62C14.8356 338.82 14.8156 338.91 14.8056 339.01H14.7756C14.7656 338.9 14.7556 338.81 14.7156 338.62L13.4856 332.9H12.5156L14.2056 340H15.3656ZM27.2344 340.17C29.0044 340.17 29.8244 339.18 29.8244 338.08C29.8244 336.79 28.9644 336.3 27.8644 336.07L26.8244 335.85C26.0344 335.68 25.6644 335.32 25.6644 334.63C25.6644 333.91 26.2644 333.48 27.1344 333.48C28.1844 333.48 28.7144 334 28.8344 334.95L29.7844 334.75C29.6444 333.36 28.5644 332.73 27.1544 332.73C25.6444 332.73 24.6844 333.53 24.6844 334.72C24.6844 335.94 25.4544 336.47 26.4644 336.68L27.4944 336.89C28.3244 337.06 28.8444 337.33 28.8444 338.17C28.8444 339.07 28.0344 339.39 27.2644 339.39C26.0144 339.39 25.4744 338.62 25.3444 337.75L24.3844 337.89C24.5044 339.19 25.4244 340.17 27.2344 340.17ZM33.4309 340V337.17L35.8409 332.9H34.7809L33.1509 335.91C33.0509 336.1 32.9909 336.23 32.9609 336.32H32.9409C32.9109 336.23 32.8509 336.1 32.7509 335.91L31.1209 332.9H30.0609L32.4709 337.17V340H33.4309ZM40.5775 336.33C41.3875 336.1 41.7675 335.46 41.7675 334.79C41.7675 333.95 41.2775 332.9 39.4075 332.9H36.9375V340H39.6175C41.4175 340 41.9675 338.96 41.9675 338.05C41.9675 337.1 41.4275 336.48 40.5775 336.33ZM39.4075 333.7C40.5575 333.7 40.8275 334.3 40.8275 334.86C40.8275 335.35 40.6275 335.98 39.4075 335.98H37.8875V333.7H39.4075ZM37.8875 339.2V336.78H39.6675C40.6375 336.78 41.0275 337.3 41.0275 337.96C41.0275 338.6 40.6775 339.2 39.5675 339.2H37.8875ZM44.4695 332.9H43.5195V340H44.4695V332.9ZM50.6988 340V339.2H47.4188V332.9H46.4688V340H50.6988ZM6.47 352L3.78 344.9H2.84L0.15 352H1.13L1.86 349.95H4.76L5.49 352H6.47ZM3.13 346.38C3.19 346.22 3.24 346.05 3.3 345.84H3.32C3.38 346.05 3.43 346.22 3.49 346.38L4.48 349.15H2.14L3.13 346.38ZM6.01914 344.9V345.7H8.24914V352H9.19914V345.7H11.4291V344.9H6.01914ZM12.1813 344.9V345.7H14.4113V352H15.3613V345.7H17.5913V344.9H12.1813ZM23.4622 352L20.7722 344.9H19.8322L17.1422 352H18.1222L18.8522 349.95H21.7522L22.4822 352H23.4622ZM20.1222 346.38C20.1822 346.22 20.2322 346.05 20.2922 345.84H20.3122C20.3722 346.05 20.4222 346.22 20.4822 346.38L21.4722 349.15H19.1322L20.1222 346.38ZM27.068 352.17C28.778 352.17 29.638 351.11 29.908 349.77L28.988 349.61C28.788 350.67 28.078 351.34 27.068 351.34C25.618 351.34 24.868 350.08 24.868 348.42C24.868 346.7 25.658 345.54 27.048 345.54C28.148 345.54 28.798 346.25 28.938 347.32L29.908 347.22C29.728 345.75 28.828 344.73 27.098 344.73C24.988 344.73 23.868 346.25 23.868 348.43C23.868 350.49 24.868 352.17 27.068 352.17ZM36.7925 352L33.9625 347.74L36.5725 344.9H35.3825L32.2625 348.42V344.9H31.3125V352H32.2625V349.57L33.3125 348.42L35.6825 352H36.7925ZM43.2398 352.17C44.9498 352.17 45.8098 351.11 46.0798 349.77L45.1598 349.61C44.9598 350.67 44.2498 351.34 43.2398 351.34C41.7898 351.34 41.0398 350.08 41.0398 348.42C41.0398 346.7 41.8298 345.54 43.2198 345.54C44.3198 345.54 44.9698 346.25 45.1098 347.32L46.0798 347.22C45.8998 345.75 44.9998 344.73 43.2698 344.73C41.1598 344.73 40.0398 346.25 40.0398 348.43C40.0398 350.49 41.0398 352.17 43.2398 352.17ZM50.1355 352.17C52.0955 352.17 53.3755 350.75 53.3755 348.45C53.3755 346.13 52.0955 344.73 50.1355 344.73C48.1655 344.73 46.8855 346.13 46.8855 348.45C46.8855 350.72 48.1655 352.17 50.1355 352.17ZM50.1355 351.37C48.7155 351.37 47.8855 350.23 47.8855 348.45C47.8855 346.63 48.7155 345.53 50.1355 345.53C51.5555 345.53 52.3755 346.63 52.3755 348.45C52.3755 350.26 51.5555 351.37 50.1355 351.37ZM57.0293 352.17C58.7993 352.17 59.6193 351.18 59.6193 350.08C59.6193 348.79 58.7593 348.3 57.6593 348.07L56.6193 347.85C55.8293 347.68 55.4593 347.32 55.4593 346.63C55.4593 345.91 56.0593 345.48 56.9293 345.48C57.9793 345.48 58.5093 346 58.6293 346.95L59.5793 346.75C59.4393 345.36 58.3593 344.73 56.9493 344.73C55.4393 344.73 54.4793 345.53 54.4793 346.72C54.4793 347.94 55.2493 348.47 56.2593 348.68L57.2893 348.89C58.1193 349.06 58.6393 349.33 58.6393 350.17C58.6393 351.07 57.8293 351.39 57.0593 351.39C55.8093 351.39 55.2693 350.62 55.1393 349.75L54.1793 349.89C54.2993 351.19 55.2193 352.17 57.0293 352.17ZM59.9156 344.9V345.7H62.1456V352H63.0956V345.7H65.3256V344.9H59.9156Z" fill="#657080"/>
<path d="M93.502 341.5C624.501 265.5 423.637 56.4998 743 56.4999" stroke="#191C20"/>
<circle cx="93" cy="342" r="2" fill="#191C20"/>
<circle cx="153" cy="332" r="2" fill="#191C20"/>
<circle cx="264" cy="306" r="2" fill="#191C20"/>
<circle cx="402" cy="250" r="2" fill="#191C20"/>
<circle cx="713" cy="57" r="2" fill="#191C20"/>
<circle cx="743" cy="56" r="2" fill="#191C20"/>
<mask id="path-23-inside-1_13_585" fill="white">
<path fill-rule="evenodd" clip-rule="evenodd" d="M230 249C224.477 249 220 253.477 220 259V278.764C220 284.287 224.477 288.764 230 288.764H258.026L261.899 294.649C263.084 296.45 265.726 296.45 266.911 294.649L270.783 288.764H298C303.523 288.764 308 284.287 308 278.764V259C308 253.477 303.523 249 298 249H230Z"/>
</mask>
<path fill-rule="evenodd" clip-rule="evenodd" d="M230 249C224.477 249 220 253.477 220 259V278.764C220 284.287 224.477 288.764 230 288.764H258.026L261.899 294.649C263.084 296.45 265.726 296.45 266.911 294.649L270.783 288.764H298C303.523 288.764 308 284.287 308 278.764V259C308 253.477 303.523 249 298 249H230Z" fill="white"/>
<path d="M258.026 288.764L258.981 288.136L258.642 287.621H258.026V288.764ZM261.899 294.649L262.853 294.02L262.853 294.02L261.899 294.649ZM266.911 294.649L267.866 295.277L267.866 295.277L266.911 294.649ZM270.783 288.764V287.621H270.167L269.829 288.136L270.783 288.764ZM221.143 259C221.143 254.108 225.108 250.143 230 250.143V247.857C223.846 247.857 218.857 252.846 218.857 259H221.143ZM221.143 278.764V259H218.857V278.764H221.143ZM230 287.621C225.108 287.621 221.143 283.656 221.143 278.764H218.857C218.857 284.918 223.846 289.907 230 289.907V287.621ZM258.026 287.621H230V289.907H258.026V287.621ZM257.072 289.392L260.944 295.277L262.853 294.02L258.981 288.136L257.072 289.392ZM260.944 295.277C262.581 297.764 266.229 297.764 267.866 295.277L265.956 294.02C265.222 295.135 263.587 295.135 262.853 294.02L260.944 295.277ZM267.866 295.277L271.738 289.392L269.829 288.136L265.956 294.02L267.866 295.277ZM298 287.621H270.783V289.907H298V287.621ZM306.857 278.764C306.857 283.656 302.892 287.621 298 287.621V289.907C304.154 289.907 309.143 284.918 309.143 278.764H306.857ZM306.857 259V278.764H309.143V259H306.857ZM298 250.143C302.892 250.143 306.857 254.108 306.857 259H309.143C309.143 252.846 304.154 247.857 298 247.857V250.143ZM230 250.143H298V247.857H230V250.143Z" fill="#F3F4F5" mask="url(#path-23-inside-1_13_585)"/>
<rect x="228" y="257" width="24" height="24" rx="8" fill="#9D50FF"/>
<rect opacity="0.5" x="228" y="257" width="24" height="24" rx="8" fill="url(#paint0_radial_13_585)"/>
<path fill-rule="evenodd" clip-rule="evenodd" d="M236 266C236 265.448 236.448 265 237 265H238C238.552 265 239 265.448 239 266V267C239 267.552 238.552 268 238 268H237C236.448 268 236 267.552 236 267V266ZM242 265C241.448 265 241 265.448 241 266V267C241 267.552 241.448 268 242 268H243C243.552 268 244 267.552 244 267V266C244 265.448 243.552 265 243 265H242ZM242.5 273C243.328 273 244 272.328 244 271.5C244 270.672 243.328 270 242.5 270C241.672 270 241 270.672 241 271.5C241 272.328 241.672 273 242.5 273ZM237 270C236.448 270 236 270.448 236 271V272C236 272.552 236.448 273 237 273H238C238.552 273 239 272.552 239 272V271C239 270.448 238.552 270 238 270H237Z" fill="white"/>
<path d="M264.488 273.204C266.936 273.204 268.52 271.488 268.52 268.74C268.52 265.968 266.936 264.276 264.488 264.276C262.04 264.276 260.456 265.968 260.456 268.74C260.456 271.464 262.04 273.204 264.488 273.204ZM264.488 271.956C262.964 271.956 262.064 270.708 262.064 268.74C262.064 266.736 262.964 265.524 264.488 265.524C266.024 265.524 266.912 266.736 266.912 268.74C266.912 270.744 266.024 271.956 264.488 271.956ZM270.224 268.044V271.14C270.224 272.352 270.704 273.108 272.144 273.108C272.516 273.108 272.78 273.072 273.128 273V271.788C272.936 271.824 272.78 271.86 272.54 271.86C271.94 271.86 271.664 271.548 271.664 270.912V268.044H273.128V267H271.664V264.912L270.224 265.488V267H269.144V268.044H270.224ZM275.888 273V269.82C275.888 268.668 276.38 268.008 277.244 268.008C277.976 268.008 278.348 268.476 278.348 269.388V273H279.8V269.268C279.8 267.684 279.116 266.856 277.82 266.856C276.908 266.856 276.248 267.276 275.888 268.104V264.3H274.448V273H275.888ZM286.662 269.7C286.662 267.864 285.666 266.856 283.926 266.856C282.138 266.856 281.058 268.08 281.058 270.06C281.058 272.028 282.162 273.144 283.998 273.144C285.222 273.144 286.17 272.568 286.614 271.524L285.51 271.02C285.234 271.668 284.73 272.016 284.046 272.016C283.098 272.016 282.462 271.368 282.45 270.36H286.662V269.7ZM282.45 269.412C282.474 268.416 282.99 267.816 283.902 267.816C284.754 267.816 285.246 268.332 285.246 269.316V269.412H282.45ZM289.48 267H288.136V273H289.576V270.492C289.576 269.82 289.636 269.136 290.116 268.668C290.392 268.404 290.788 268.248 291.364 268.248H291.556V266.868C291.496 266.856 291.448 266.856 291.388 266.856C290.416 266.856 289.78 267.504 289.48 268.452V267ZM294.89 273.144C296.462 273.144 297.35 272.376 297.35 271.248C297.35 270.3 296.858 269.724 295.694 269.52L294.518 269.304C293.99 269.208 293.726 269.028 293.726 268.62C293.726 268.152 294.098 267.9 294.77 267.9C295.562 267.9 296.09 268.236 296.378 268.776L297.386 268.236C297.098 267.372 296.126 266.856 294.854 266.856C293.33 266.856 292.406 267.624 292.406 268.704C292.406 269.664 292.994 270.252 294.122 270.456L295.19 270.648C295.778 270.744 296.042 270.912 296.042 271.344C296.042 271.776 295.658 272.088 294.926 272.088C294.074 272.088 293.474 271.704 293.198 271.032L292.13 271.512C292.502 272.568 293.522 273.144 294.89 273.144Z" fill="#9D50FF"/>
<mask id="path-29-inside-2_13_585" fill="white">
<path fill-rule="evenodd" clip-rule="evenodd" d="M342 174C336.477 174 332 178.477 332 184V222.736C332 228.259 336.477 232.736 342 232.736H397.121L400.851 238.609C402.029 240.465 404.737 240.465 405.916 238.609L409.645 232.736H465C470.523 232.736 475 228.259 475 222.736V184C475 178.477 470.523 174 465 174H342Z"/>
</mask>
<path fill-rule="evenodd" clip-rule="evenodd" d="M342 174C336.477 174 332 178.477 332 184V222.736C332 228.259 336.477 232.736 342 232.736H397.121L400.851 238.609C402.029 240.465 404.737 240.465 405.916 238.609L409.645 232.736H465C470.523 232.736 475 228.259 475 222.736V184C475 178.477 470.523 174 465 174H342Z" fill="white"/>
<path d="M397.121 232.736L398.086 232.124L397.749 231.593H397.121V232.736ZM400.851 238.609L401.815 237.997L401.815 237.997L400.851 238.609ZM405.916 238.609L404.951 237.997L404.951 237.997L405.916 238.609ZM409.645 232.736V231.593H409.017L408.68 232.124L409.645 232.736ZM333.143 184C333.143 179.108 337.108 175.143 342 175.143V172.857C335.846 172.857 330.857 177.846 330.857 184H333.143ZM333.143 222.736V184H330.857V222.736H333.143ZM342 231.593C337.108 231.593 333.143 227.628 333.143 222.736H330.857C330.857 228.89 335.846 233.879 342 233.879V231.593ZM397.121 231.593H342V233.879H397.121V231.593ZM396.156 233.349L399.886 239.222L401.815 237.997L398.086 232.124L396.156 233.349ZM399.886 239.222C401.513 241.785 405.253 241.785 406.88 239.222L404.951 237.997C404.221 239.146 402.545 239.146 401.815 237.997L399.886 239.222ZM406.88 239.222L410.61 233.349L408.68 232.124L404.951 237.997L406.88 239.222ZM465 231.593H409.645V233.879H465V231.593ZM473.857 222.736C473.857 227.628 469.892 231.593 465 231.593V233.879C471.154 233.879 476.143 228.89 476.143 222.736H473.857ZM473.857 184V222.736H476.143V184H473.857ZM465 175.143C469.892 175.143 473.857 179.108 473.857 184H476.143C476.143 177.846 471.154 172.857 465 172.857V175.143ZM342 175.143H465V172.857H342V175.143Z" fill="#F3F4F5" mask="url(#path-29-inside-2_13_585)"/>
<rect x="340" y="190" width="24" height="24" rx="12" fill="#9BA3AE"/>
<rect opacity="0.5" x="340" y="190" width="24" height="24" rx="12" fill="url(#paint1_radial_13_585)"/>
<g clip-path="url(#clip0_13_585)">
<path d="M347 200V199C347 197.895 347.895 197 349 197H350M353.999 197H354.999C356.103 197 356.998 197.895 356.998 199V200M356.998 203.971V204.999C356.998 206.103 356.103 206.998 354.999 206.998H353.999M350 206.998H349C347.895 206.998 347 206.103 347 204.999V203.971" stroke="#EBECEF" stroke-width="0.749878" stroke-linecap="round" stroke-linejoin="round"/>
<path d="M349.369 201.91L354.632 201.91" stroke="#EBECEF" stroke-width="0.749878" stroke-linecap="round" stroke-linejoin="round"/>
<path fill-rule="evenodd" clip-rule="evenodd" d="M350.993 201.21L353.001 201.21C353.206 200.976 353.33 200.669 353.33 200.333C353.33 199.597 352.733 199 351.997 199C351.261 199 350.664 199.597 350.664 200.333C350.664 200.669 350.788 200.976 350.993 201.21ZM350.577 202.61C350.023 202.854 349.666 203.237 349.666 203.667C349.666 204.403 350.711 205 351.999 205C353.287 205 354.332 204.403 354.332 203.667C354.332 203.237 353.975 202.854 353.421 202.61H350.577Z" fill="#EBECEF"/>
</g>
<rect x="340" y="190" width="24" height="24" rx="8" fill="#9BA3AE"/>
<rect opacity="0.5" x="340" y="190" width="24" height="24" rx="8" fill="url(#paint2_radial_13_585)"/>
<g clip-path="url(#clip1_13_585)">
<path d="M347 200V199C347 197.895 347.895 197 349 197H350M353.999 197H354.999C356.103 197 356.998 197.895 356.998 199V200M356.998 203.971V204.999C356.998 206.103 356.103 206.998 354.999 206.998H353.999M350 206.998H349C347.895 206.998 347 206.103 347 204.999V203.971" stroke="#EBECEF" stroke-width="0.749878" stroke-linecap="round" stroke-linejoin="round"/>
<path d="M349.369 201.91L354.632 201.91" stroke="#EBECEF" stroke-width="0.749878" stroke-linecap="round" stroke-linejoin="round"/>
<path fill-rule="evenodd" clip-rule="evenodd" d="M350.993 201.21L353.001 201.21C353.206 200.976 353.33 200.669 353.33 200.333C353.33 199.597 352.733 199 351.997 199C351.261 199 350.664 199.597 350.664 200.333C350.664 200.669 350.788 200.976 350.993 201.21ZM350.577 202.61C350.023 202.854 349.666 203.237 349.666 203.667C349.666 204.403 350.711 205 351.999 205C353.287 205 354.332 204.403 354.332 203.667C354.332 203.237 353.975 202.854 353.421 202.61H350.577Z" fill="#EBECEF"/>
</g>
<path d="M378.588 189.48H373.056V198H374.604V194.292H378.384V193.068H374.604V190.704H378.588V189.48ZM381.41 198.144C382.37 198.144 383.126 197.7 383.414 196.968C383.426 197.34 383.462 197.7 383.51 198H384.95C384.83 197.58 384.77 196.956 384.77 196.14V194.352C384.77 192.612 383.978 191.856 382.202 191.856C380.654 191.856 379.646 192.648 379.55 193.932H381.026C381.074 193.248 381.494 192.876 382.202 192.876C382.97 192.876 383.318 193.26 383.318 194.16V194.316L382.046 194.472C381.098 194.604 380.522 194.76 380.09 195.012C379.61 195.312 379.358 195.792 379.358 196.368C379.358 197.436 380.174 198.144 381.41 198.144ZM381.866 197.124C381.23 197.124 380.846 196.8 380.846 196.296C380.846 195.78 381.206 195.492 381.998 195.36L383.354 195.156V195.54C383.354 196.488 382.754 197.124 381.866 197.124ZM388.931 198.144C390.359 198.144 391.367 197.328 391.583 195.996L390.227 195.72C390.095 196.56 389.651 197.004 388.931 197.004C388.007 197.004 387.467 196.26 387.467 194.964C387.467 193.728 388.019 192.984 388.907 192.984C389.615 192.984 390.083 193.428 390.179 194.244L391.583 194.016C391.403 192.648 390.431 191.856 388.943 191.856C387.119 191.856 385.991 193.044 385.991 195C385.991 196.908 387.143 198.144 388.931 198.144ZM398.076 194.7C398.076 192.864 397.08 191.856 395.34 191.856C393.552 191.856 392.472 193.08 392.472 195.06C392.472 197.028 393.576 198.144 395.412 198.144C396.636 198.144 397.584 197.568 398.028 196.524L396.924 196.02C396.648 196.668 396.144 197.016 395.46 197.016C394.512 197.016 393.876 196.368 393.864 195.36H398.076V194.7ZM393.864 194.412C393.888 193.416 394.404 192.816 395.316 192.816C396.168 192.816 396.66 193.332 396.66 194.316V194.412H393.864ZM405.441 198L407.577 192H406.065L404.889 195.804C404.793 196.116 404.721 196.416 404.673 196.692H404.637C404.589 196.416 404.517 196.116 404.421 195.804L403.257 192H401.745L403.881 198H405.441ZM413.615 194.7C413.615 192.864 412.619 191.856 410.879 191.856C409.091 191.856 408.011 193.08 408.011 195.06C408.011 197.028 409.115 198.144 410.951 198.144C412.175 198.144 413.123 197.568 413.567 196.524L412.463 196.02C412.187 196.668 411.683 197.016 410.999 197.016C410.051 197.016 409.415 196.368 409.403 195.36H413.615V194.7ZM409.403 194.412C409.427 193.416 409.943 192.816 410.855 192.816C411.707 192.816 412.199 193.332 412.199 194.316V194.412H409.403ZM416.433 192H415.089V198H416.529V195.492C416.529 194.82 416.589 194.136 417.069 193.668C417.345 193.404 417.741 193.248 418.317 193.248H418.509V191.868C418.449 191.856 418.401 191.856 418.341 191.856C417.369 191.856 416.733 192.504 416.433 193.452V192ZM421.194 191.004V189.504H419.634V191.004H421.194ZM421.134 198V192H419.694V198H421.134ZM424.786 192V191.328C424.786 190.692 425.05 190.38 425.626 190.38C425.806 190.38 426.022 190.404 426.238 190.44V189.324C425.974 189.264 425.686 189.228 425.386 189.228C424.102 189.228 423.346 189.984 423.346 191.232V192H422.314V193.044H423.346V198H424.786V193.044H426.238V192H424.786ZM428.962 191.004V189.504H427.402V191.004H428.962ZM428.902 198V192H427.462V198H428.902ZM433.251 198.144C434.679 198.144 435.687 197.328 435.903 195.996L434.547 195.72C434.415 196.56 433.971 197.004 433.251 197.004C432.327 197.004 431.787 196.26 431.787 194.964C431.787 193.728 432.339 192.984 433.227 192.984C433.935 192.984 434.403 193.428 434.499 194.244L435.903 194.016C435.723 192.648 434.751 191.856 433.263 191.856C431.439 191.856 430.311 193.044 430.311 195C430.311 196.908 431.463 198.144 433.251 198.144ZM438.843 198.144C439.803 198.144 440.559 197.7 440.847 196.968C440.859 197.34 440.895 197.7 440.943 198H442.383C442.263 197.58 442.203 196.956 442.203 196.14V194.352C442.203 192.612 441.411 191.856 439.635 191.856C438.087 191.856 437.079 192.648 436.983 193.932H438.459C438.507 193.248 438.927 192.876 439.635 192.876C440.403 192.876 440.751 193.26 440.751 194.16V194.316L439.479 194.472C438.531 194.604 437.955 194.76 437.523 195.012C437.043 195.312 436.791 195.792 436.791 196.368C436.791 197.436 437.607 198.144 438.843 198.144ZM439.299 197.124C438.663 197.124 438.279 196.8 438.279 196.296C438.279 195.78 438.639 195.492 439.431 195.36L440.787 195.156V195.54C440.787 196.488 440.187 197.124 439.299 197.124ZM444.169 193.044V196.14C444.169 197.352 444.649 198.108 446.089 198.108C446.461 198.108 446.725 198.072 447.073 198V196.788C446.881 196.824 446.725 196.86 446.485 196.86C445.885 196.86 445.609 196.548 445.609 195.912V193.044H447.073V192H445.609V189.912L444.169 190.488V192H443.089V193.044H444.169ZM449.894 191.004V189.504H448.334V191.004H449.894ZM449.834 198V192H448.394V198H449.834ZM454.181 198.144C455.909 198.144 457.121 197.004 457.121 194.988C457.121 192.984 455.909 191.856 454.181 191.856C452.453 191.856 451.241 192.984 451.241 194.988C451.241 197.004 452.453 198.144 454.181 198.144ZM454.181 197.052C453.257 197.052 452.705 196.356 452.705 194.988C452.705 193.62 453.257 192.948 454.181 192.948C455.105 192.948 455.645 193.62 455.645 194.988C455.645 196.356 455.105 197.052 454.181 197.052ZM459.982 198V194.82C459.982 193.68 460.486 193.008 461.326 193.008C462.082 193.008 462.442 193.476 462.442 194.424V198H463.894V194.28C463.894 192.672 463.21 191.856 461.902 191.856C460.978 191.856 460.318 192.288 459.91 193.164V192H458.542V198H459.982Z" fill="#9BA3AE"/>
<rect x="372" y="206" width="74" height="17" rx="4" fill="#9BA3AE"/>
<path d="M383.951 218.17C385.661 218.17 386.521 217.11 386.791 215.77L385.871 215.61C385.671 216.67 384.961 217.34 383.951 217.34C382.501 217.34 381.751 216.08 381.751 214.42C381.751 212.7 382.541 211.54 383.931 211.54C385.031 211.54 385.681 212.25 385.821 213.32L386.791 213.22C386.611 211.75 385.711 210.73 383.981 210.73C381.871 210.73 380.751 212.25 380.751 214.43C380.751 216.49 381.751 218.17 383.951 218.17ZM390.073 218.12C391.483 218.12 392.403 217.13 392.403 215.5C392.403 213.87 391.483 212.88 390.073 212.88C388.663 212.88 387.743 213.87 387.743 215.5C387.743 217.13 388.663 218.12 390.073 218.12ZM390.073 217.38C389.173 217.38 388.643 216.74 388.643 215.5C388.643 214.26 389.173 213.62 390.073 213.62C390.973 213.62 391.503 214.26 391.503 215.5C391.503 216.74 390.973 217.38 390.073 217.38ZM393.75 218H394.6V215.08C394.6 214.17 395.03 213.61 395.73 213.61C396.33 213.61 396.67 214.02 396.67 214.75V218H397.52V215.04C397.52 214.13 397.93 213.61 398.64 213.61C399.27 213.61 399.59 214.01 399.59 214.79V218H400.44V214.72C400.44 213.56 399.88 212.88 398.92 212.88C398.24 212.88 397.73 213.21 397.4 213.88C397.17 213.23 396.67 212.88 395.98 212.88C395.31 212.88 394.83 213.21 394.55 213.87V213H393.75V218ZM402.999 212.07V211H402.029V212.07H402.999ZM402.939 218V213H402.089V218H402.939ZM405.586 218V215.39C405.586 214.28 406.096 213.61 406.926 213.61C407.656 213.61 408.026 214.06 408.026 214.94V218H408.876V214.89C408.876 213.56 408.306 212.88 407.206 212.88C406.416 212.88 405.866 213.24 405.536 213.99V213H404.736V218H405.586ZM414.417 212.92C414.557 212.92 414.677 212.94 414.777 212.96V212.22C414.667 212.19 414.557 212.18 414.447 212.18C413.777 212.18 413.407 212.58 413.257 213.09C412.977 212.96 412.657 212.88 412.277 212.88C411.117 212.88 410.427 213.6 410.427 214.57C410.427 215.06 410.597 215.48 410.917 215.79C410.497 215.95 410.207 216.29 410.207 216.79C410.207 217.15 410.367 217.47 410.787 217.66C410.257 217.83 409.977 218.23 409.977 218.7C409.977 219.41 410.467 220.07 412.227 220.07C413.967 220.07 414.707 219.42 414.707 218.48C414.707 217.58 414.137 217.07 413.007 217.07H411.787C411.167 217.07 410.957 216.84 410.957 216.56C410.957 216.33 411.107 216.16 411.317 216.07C411.587 216.2 411.907 216.28 412.277 216.28C413.437 216.28 414.127 215.54 414.127 214.57C414.127 214.1 413.967 213.69 413.667 213.39C413.787 213.07 414.037 212.92 414.417 212.92ZM412.277 215.63C411.637 215.63 411.227 215.18 411.227 214.57C411.227 213.96 411.637 213.53 412.277 213.53C412.917 213.53 413.327 213.97 413.327 214.58C413.327 215.19 412.917 215.63 412.277 215.63ZM412.817 217.82C413.507 217.82 413.857 218.07 413.857 218.54C413.857 218.99 413.547 219.37 412.327 219.37C411.427 219.37 410.807 219.17 410.807 218.55C410.807 218.25 410.977 217.96 411.337 217.8C411.467 217.81 411.607 217.82 411.757 217.82H412.817ZM420.176 218.12C421.396 218.12 422.086 217.49 422.086 216.59C422.086 215.86 421.686 215.4 420.786 215.23L419.816 215.05C419.326 214.96 419.046 214.76 419.046 214.34C419.046 213.85 419.436 213.57 420.076 213.57C420.756 213.57 421.146 213.92 421.256 214.42L422.096 214.23C421.996 213.39 421.236 212.88 420.116 212.88C418.936 212.88 418.216 213.52 418.216 214.38C418.216 215.14 418.696 215.62 419.546 215.78L420.526 215.96C420.976 216.04 421.246 216.22 421.246 216.66C421.246 217.09 420.876 217.42 420.206 217.42C419.476 217.42 419.006 217.06 418.886 216.43L418.026 216.58C418.196 217.57 418.996 218.12 420.176 218.12ZM425.376 218.12C426.786 218.12 427.706 217.13 427.706 215.5C427.706 213.87 426.786 212.88 425.376 212.88C423.966 212.88 423.046 213.87 423.046 215.5C423.046 217.13 423.966 218.12 425.376 218.12ZM425.376 217.38C424.476 217.38 423.946 216.74 423.946 215.5C423.946 214.26 424.476 213.62 425.376 213.62C426.276 213.62 426.806 214.26 426.806 215.5C426.806 216.74 426.276 217.38 425.376 217.38ZM430.932 218.12C432.342 218.12 433.262 217.13 433.262 215.5C433.262 213.87 432.342 212.88 430.932 212.88C429.522 212.88 428.602 213.87 428.602 215.5C428.602 217.13 429.522 218.12 430.932 218.12ZM430.932 217.38C430.032 217.38 429.502 216.74 429.502 215.5C429.502 214.26 430.032 213.62 430.932 213.62C431.832 213.62 432.362 214.26 432.362 215.5C432.362 216.74 431.832 217.38 430.932 217.38ZM435.459 218V215.39C435.459 214.28 435.969 213.61 436.799 213.61C437.529 213.61 437.899 214.06 437.899 214.94V218H438.749V214.89C438.749 213.56 438.179 212.88 437.079 212.88C436.289 212.88 435.739 213.24 435.409 213.99V213H434.609V218H435.459Z" fill="white"/>
<mask id="path-47-inside-3_13_585" fill="white">
<path fill-rule="evenodd" clip-rule="evenodd" d="M597 0C591.477 0 587 4.47714 587 9.99999V29.8801C587 35.4029 591.477 39.8801 597 39.8801H708.839L712.472 45.6078C713.65 47.4652 716.361 47.4652 717.539 45.6078L721.172 39.8801H735C740.523 39.8801 745 35.403 745 29.8801V10C745 4.47715 740.523 0 735 0H597Z"/>
</mask>
<path fill-rule="evenodd" clip-rule="evenodd" d="M597 0C591.477 0 587 4.47714 587 9.99999V29.8801C587 35.4029 591.477 39.8801 597 39.8801H708.839L712.472 45.6078C713.65 47.4652 716.361 47.4652 717.539 45.6078L721.172 39.8801H735C740.523 39.8801 745 35.403 745 29.8801V10C745 4.47715 740.523 0 735 0H597Z" fill="white"/>
<path d="M708.839 39.8801L709.804 39.2679L709.467 38.7372H708.839V39.8801ZM712.472 45.6078L711.507 46.22L711.507 46.22L712.472 45.6078ZM717.539 45.6078L718.504 46.22L718.504 46.22L717.539 45.6078ZM721.172 39.8801V38.7372H720.544L720.207 39.2679L721.172 39.8801ZM588.143 9.99999C588.143 5.10833 592.108 1.14286 597 1.14286V-1.14286C590.846 -1.14286 585.857 3.84596 585.857 9.99999H588.143ZM588.143 29.8801V9.99999H585.857V29.8801H588.143ZM597 38.7372C592.108 38.7372 588.143 34.7718 588.143 29.8801H585.857C585.857 36.0341 590.846 41.023 597 41.023V38.7372ZM708.839 38.7372H597V41.023H708.839V38.7372ZM707.874 40.4923L711.507 46.22L713.437 44.9957L709.804 39.2679L707.874 40.4923ZM711.507 46.22C713.134 48.785 716.877 48.785 718.504 46.22L716.574 44.9957C715.844 46.1455 714.167 46.1455 713.437 44.9957L711.507 46.22ZM718.504 46.22L722.137 40.4923L720.207 39.2679L716.574 44.9957L718.504 46.22ZM735 38.7372H721.172V41.023H735V38.7372ZM743.857 29.8801C743.857 34.7718 739.892 38.7372 735 38.7372V41.023C741.154 41.023 746.143 36.0341 746.143 29.8801H743.857ZM743.857 10V29.8801H746.143V10H743.857ZM735 1.14286C739.892 1.14286 743.857 5.10834 743.857 10H746.143C746.143 3.84597 741.154 -1.14286 735 -1.14286V1.14286ZM597 1.14286H735V-1.14286H597V1.14286Z" fill="#F3F4F5" mask="url(#path-47-inside-3_13_585)"/>
<rect x="595" y="7.979" width="24" height="24" rx="8" fill="#39B8A8"/>
<rect opacity="0.5" x="595" y="7.979" width="24" height="24" rx="8" fill="url(#paint3_radial_13_585)"/>
<path fill-rule="evenodd" clip-rule="evenodd" d="M612 19.9575C612 22.7189 609.761 24.9575 607 24.9575C604.239 24.9575 602 22.7189 602 19.9575C602 17.1961 604.239 14.9575 607 14.9575C609.761 14.9575 612 17.1961 612 19.9575ZM609.502 19.1243C609.502 20.505 608.382 21.6243 607.002 21.6243C605.621 21.6243 604.502 20.505 604.502 19.1243C604.502 17.7436 605.621 16.6243 607.002 16.6243C608.382 16.6243 609.502 17.7436 609.502 19.1243ZM607.137 19.541C607.597 19.541 607.97 19.1679 607.97 18.7077C607.97 18.2474 607.597 17.8743 607.137 17.8743C606.677 17.8743 606.303 18.2474 606.303 18.7077C606.303 19.1679 606.677 19.541 607.137 19.541Z" fill="white"/>
<path d="M632.784 19.551C633.768 19.287 634.26 18.543 634.26 17.691C634.26 16.575 633.528 15.459 631.428 15.459H628.056V23.979H631.632C633.696 23.979 634.488 22.815 634.488 21.615C634.488 20.475 633.84 19.731 632.784 19.551ZM631.176 16.635C632.316 16.635 632.664 17.223 632.664 17.859C632.664 18.447 632.376 19.059 631.176 19.059H629.604V16.635H631.176ZM629.604 22.803V20.199H631.428C632.448 20.199 632.904 20.739 632.904 21.471C632.904 22.191 632.484 22.803 631.344 22.803H629.604ZM637.487 16.983V15.483H635.927V16.983H637.487ZM637.427 23.979V17.979H635.987V23.979H637.427ZM641.775 24.123C643.503 24.123 644.715 22.983 644.715 20.967C644.715 18.963 643.503 17.835 641.775 17.835C640.047 17.835 638.835 18.963 638.835 20.967C638.835 22.983 640.047 24.123 641.775 24.123ZM641.775 23.031C640.851 23.031 640.299 22.335 640.299 20.967C640.299 19.599 640.851 18.927 641.775 18.927C642.699 18.927 643.239 19.599 643.239 20.967C643.239 22.335 642.699 23.031 641.775 23.031ZM646.136 23.979H647.576V20.511C647.576 19.551 647.996 18.987 648.716 18.987C649.352 18.987 649.688 19.419 649.688 20.247V23.979H651.128V20.475C651.128 19.515 651.536 18.987 652.268 18.987C652.928 18.987 653.252 19.407 653.252 20.283V23.979H654.692V20.055C654.692 18.651 654.008 17.835 652.856 17.835C652.016 17.835 651.392 18.231 650.984 19.047C650.696 18.243 650.12 17.835 649.28 17.835C648.44 17.835 647.864 18.231 647.504 19.047V17.979H646.136V23.979ZM661.56 20.679C661.56 18.843 660.564 17.835 658.824 17.835C657.036 17.835 655.956 19.059 655.956 21.039C655.956 23.007 657.06 24.123 658.896 24.123C660.12 24.123 661.068 23.547 661.512 22.503L660.408 21.999C660.132 22.647 659.628 22.995 658.944 22.995C657.996 22.995 657.36 22.347 657.348 21.339H661.56V20.679ZM657.348 20.391C657.372 19.395 657.888 18.795 658.8 18.795C659.652 18.795 660.144 19.311 660.144 20.295V20.391H657.348ZM663.263 19.023V22.119C663.263 23.331 663.743 24.087 665.183 24.087C665.555 24.087 665.819 24.051 666.167 23.979V22.767C665.975 22.803 665.819 22.839 665.579 22.839C664.979 22.839 664.703 22.527 664.703 21.891V19.023H666.167V17.979H664.703V15.891L663.263 16.467V17.979H662.183V19.023H663.263ZM668.831 17.979H667.487V23.979H668.927V21.471C668.927 20.799 668.987 20.115 669.467 19.647C669.743 19.383 670.139 19.227 670.715 19.227H670.907V17.847C670.847 17.835 670.799 17.835 670.739 17.835C669.767 17.835 669.131 18.483 668.831 19.431V17.979ZM673.593 16.983V15.483H672.033V16.983H673.593ZM673.533 23.979V17.979H672.093V23.979H673.533ZM677.88 24.123C679.308 24.123 680.316 23.307 680.532 21.975L679.176 21.699C679.044 22.539 678.6 22.983 677.88 22.983C676.956 22.983 676.416 22.239 676.416 20.943C676.416 19.707 676.968 18.963 677.856 18.963C678.564 18.963 679.032 19.407 679.128 20.223L680.532 19.995C680.352 18.627 679.38 17.835 677.892 17.835C676.068 17.835 674.94 19.023 674.94 20.979C674.94 22.887 676.092 24.123 677.88 24.123ZM687.876 25.155C686.64 23.523 686.088 21.939 686.088 20.067C686.088 18.195 686.64 16.683 687.876 15.087L686.82 14.595C685.524 16.023 684.696 17.907 684.696 20.043C684.696 22.155 685.512 24.147 686.808 25.659L687.876 25.155ZM693.576 20.679C693.576 18.843 692.58 17.835 690.84 17.835C689.052 17.835 687.972 19.059 687.972 21.039C687.972 23.007 689.076 24.123 690.912 24.123C692.136 24.123 693.084 23.547 693.528 22.503L692.424 21.999C692.148 22.647 691.644 22.995 690.96 22.995C690.012 22.995 689.376 22.347 689.364 21.339H693.576V20.679ZM689.364 20.391C689.388 19.395 689.904 18.795 690.816 18.795C691.668 18.795 692.16 19.311 692.16 20.295V20.391H689.364ZM694.717 22.311V23.979H696.421V22.311H694.717ZM703.323 18.027C703.503 18.027 703.659 18.051 703.815 18.087V17.007C703.695 16.983 703.599 16.971 703.479 16.971C702.615 16.971 702.099 17.427 701.907 18.075C701.547 17.919 701.127 17.835 700.635 17.835C699.111 17.835 698.175 18.663 698.175 19.851C698.175 20.487 698.439 21.015 698.907 21.387C698.331 21.615 697.959 22.047 697.959 22.659C697.959 23.127 698.187 23.523 698.715 23.739C698.067 23.943 697.719 24.387 697.719 24.915C697.719 25.767 698.475 26.463 700.539 26.463C702.699 26.463 703.743 25.659 703.743 24.423C703.743 23.307 703.023 22.695 701.619 22.695H700.047C699.387 22.695 699.135 22.467 699.135 22.143C699.135 21.939 699.255 21.783 699.435 21.687C699.771 21.819 700.179 21.903 700.635 21.903C702.171 21.903 703.107 21.039 703.107 19.851C703.107 19.263 702.879 18.771 702.471 18.411C702.651 18.147 702.927 18.027 703.323 18.027ZM700.635 21.027C699.963 21.027 699.531 20.535 699.531 19.851C699.531 19.179 699.963 18.711 700.635 18.711C701.307 18.711 701.739 19.179 701.739 19.863C701.739 20.535 701.307 21.027 700.635 21.027ZM701.403 23.931C702.087 23.931 702.435 24.183 702.435 24.663C702.435 25.155 702.003 25.527 700.635 25.527C699.603 25.527 698.919 25.287 698.919 24.651C698.919 24.363 699.051 24.087 699.351 23.895C699.495 23.919 699.663 23.919 699.843 23.919L701.403 23.931ZM704.784 22.311V23.979H706.488V22.311H704.784ZM714.785 24.183C717.233 24.183 718.817 22.467 718.817 19.719C718.817 16.947 717.233 15.255 714.785 15.255C712.337 15.255 710.753 16.947 710.753 19.719C710.753 22.443 712.337 24.183 714.785 24.183ZM714.785 22.935C713.261 22.935 712.361 21.687 712.361 19.719C712.361 17.715 713.261 16.503 714.785 16.503C716.321 16.503 717.209 17.715 717.209 19.719C717.209 21.723 716.321 22.935 714.785 22.935ZM721.577 17.979H720.233V23.979H721.673V21.471C721.673 20.799 721.733 20.115 722.213 19.647C722.489 19.383 722.885 19.227 723.461 19.227H723.653V17.847C723.593 17.835 723.545 17.835 723.485 17.835C722.513 17.835 721.877 18.483 721.577 19.431V17.979ZM728.067 24.123C729.567 24.123 730.539 22.863 730.539 20.979C730.539 19.119 729.591 17.835 728.127 17.835C727.239 17.835 726.591 18.291 726.279 18.915V15.279H724.839V23.979H726.051L726.195 23.007C726.507 23.679 727.179 24.123 728.067 24.123ZM727.611 23.019C726.747 23.019 726.243 22.311 726.243 21.195V20.787C726.243 19.647 726.759 18.939 727.611 18.939C728.535 18.939 729.039 19.731 729.039 20.979C729.039 22.251 728.511 23.019 727.611 23.019ZM731.781 25.659C733.077 24.147 733.893 22.155 733.893 20.043C733.893 17.907 733.065 16.023 731.769 14.595L730.713 15.087C731.949 16.683 732.501 18.195 732.501 20.067C732.501 21.939 731.949 23.523 730.713 25.155L731.781 25.659Z" fill="#39B8A8"/>
<mask id="path-53-inside-4_13_585" fill="white">
<path fill-rule="evenodd" clip-rule="evenodd" d="M120 275C114.477 275 110 279.477 110 285V304.844C110 310.367 114.477 314.844 120 314.844H147.161L150.87 320.623C152.051 322.462 154.739 322.462 155.919 320.623L159.628 314.844H186C191.523 314.844 196 310.367 196 304.844V285C196 279.477 191.523 275 186 275H120Z"/>
</mask>
<path fill-rule="evenodd" clip-rule="evenodd" d="M120 275C114.477 275 110 279.477 110 285V304.844C110 310.367 114.477 314.844 120 314.844H147.161L150.87 320.623C152.051 322.462 154.739 322.462 155.919 320.623L159.628 314.844H186C191.523 314.844 196 310.367 196 304.844V285C196 279.477 191.523 275 186 275H120Z" fill="white"/>
<path d="M147.161 314.844L148.123 314.227L147.786 313.701H147.161V314.844ZM150.87 320.623L149.908 321.24L149.908 321.24L150.87 320.623ZM155.919 320.623L156.881 321.24L156.881 321.24L155.919 320.623ZM159.628 314.844V313.701H159.004L158.667 314.227L159.628 314.844ZM111.143 285C111.143 280.108 115.108 276.143 120 276.143V273.857C113.846 273.857 108.857 278.846 108.857 285H111.143ZM111.143 304.844V285H108.857V304.844H111.143ZM120 313.701C115.108 313.701 111.143 309.735 111.143 304.844H108.857C108.857 310.998 113.846 315.987 120 315.987V313.701ZM147.161 313.701H120V315.987H147.161V313.701ZM146.199 315.461L149.908 321.24L151.832 320.005L148.123 314.227L146.199 315.461ZM149.908 321.24C151.538 323.78 155.251 323.78 156.881 321.24L154.958 320.005C154.227 321.144 152.563 321.144 151.832 320.005L149.908 321.24ZM156.881 321.24L160.59 315.461L158.667 314.227L154.958 320.005L156.881 321.24ZM186 313.701H159.628V315.987H186V313.701ZM194.857 304.844C194.857 309.735 190.892 313.701 186 313.701V315.987C192.154 315.987 197.143 310.998 197.143 304.844H194.857ZM194.857 285V304.844H197.143V285H194.857ZM186 276.143C190.892 276.143 194.857 280.108 194.857 285H197.143C197.143 278.846 192.154 273.857 186 273.857V276.143ZM120 276.143H186V273.857H120V276.143Z" fill="#F3F4F5" mask="url(#path-53-inside-4_13_585)"/>
<rect x="118" y="283" width="24" height="24" rx="8" fill="#506DFF"/>
<rect opacity="0.5" x="118" y="283" width="24" height="24" rx="8" fill="url(#paint4_radial_13_585)"/>
<path fill-rule="evenodd" clip-rule="evenodd" d="M128 290C127.172 290 126.5 290.672 126.5 291.5V298.5C126.5 299.328 127.172 300 128 300H132C132.828 300 133.5 299.328 133.5 298.5V291.5C133.5 290.672 132.828 290 132 290H128ZM129.5 298.125C129.293 298.125 129.125 298.293 129.125 298.5C129.125 298.707 129.293 298.875 129.5 298.875H130.5C130.707 298.875 130.875 298.707 130.875 298.5C130.875 298.293 130.707 298.125 130.5 298.125H129.5Z" fill="white"/>
<path d="M151.056 290.48V299H152.604V295.7H154.416C156.252 295.7 157.404 294.68 157.404 293.072C157.404 291.5 156.24 290.48 154.428 290.48H151.056ZM152.604 294.524V291.668H154.14C155.148 291.668 155.772 292.22 155.772 293.096C155.772 293.984 155.148 294.524 154.14 294.524H152.604ZM160.088 299V295.82C160.088 294.668 160.58 294.008 161.444 294.008C162.176 294.008 162.548 294.476 162.548 295.388V299H164V295.268C164 293.684 163.316 292.856 162.02 292.856C161.108 292.856 160.448 293.276 160.088 294.104V290.3H158.648V299H160.088ZM168.197 299.144C169.925 299.144 171.137 298.004 171.137 295.988C171.137 293.984 169.925 292.856 168.197 292.856C166.469 292.856 165.257 293.984 165.257 295.988C165.257 298.004 166.469 299.144 168.197 299.144ZM168.197 298.052C167.273 298.052 166.721 297.356 166.721 295.988C166.721 294.62 167.273 293.948 168.197 293.948C169.121 293.948 169.661 294.62 169.661 295.988C169.661 297.356 169.121 298.052 168.197 298.052ZM173.998 299V295.82C173.998 294.68 174.502 294.008 175.342 294.008C176.098 294.008 176.458 294.476 176.458 295.424V299H177.91V295.28C177.91 293.672 177.226 292.856 175.918 292.856C174.994 292.856 174.334 293.288 173.926 294.164V293H172.558V299H173.998ZM184.771 295.7C184.771 293.864 183.775 292.856 182.035 292.856C180.247 292.856 179.167 294.08 179.167 296.06C179.167 298.028 180.271 299.144 182.107 299.144C183.331 299.144 184.279 298.568 184.723 297.524L183.619 297.02C183.343 297.668 182.839 298.016 182.155 298.016C181.207 298.016 180.571 297.368 180.559 296.36H184.771V295.7ZM180.559 295.412C180.583 294.416 181.099 293.816 182.011 293.816C182.863 293.816 183.355 294.332 183.355 295.316V295.412H180.559Z" fill="#506DFF"/>
<defs>
<radialGradient id="paint0_radial_13_585" cx="0" cy="0" r="1" gradientUnits="userSpaceOnUse" gradientTransform="translate(228.874 252.237) rotate(55.0103) scale(35.1089 34.9575)">
<stop stop-color="white"/>
<stop offset="1" stop-color="white" stop-opacity="0"/>
</radialGradient>
<radialGradient id="paint1_radial_13_585" cx="0" cy="0" r="1" gradientUnits="userSpaceOnUse" gradientTransform="translate(340.874 185.237) rotate(55.0103) scale(35.1089 34.9575)">
<stop stop-color="white"/>
<stop offset="1" stop-color="white" stop-opacity="0"/>
</radialGradient>
<radialGradient id="paint2_radial_13_585" cx="0" cy="0" r="1" gradientUnits="userSpaceOnUse" gradientTransform="translate(340.874 185.237) rotate(55.0103) scale(35.1089 34.9575)">
<stop stop-color="white"/>
<stop offset="1" stop-color="white" stop-opacity="0"/>
</radialGradient>
<radialGradient id="paint3_radial_13_585" cx="0" cy="0" r="1" gradientUnits="userSpaceOnUse" gradientTransform="translate(595.874 3.21585) rotate(55.0103) scale(35.1089 34.9575)">
<stop stop-color="white"/>
<stop offset="1" stop-color="white" stop-opacity="0"/>
</radialGradient>
<radialGradient id="paint4_radial_13_585" cx="0" cy="0" r="1" gradientUnits="userSpaceOnUse" gradientTransform="translate(118.874 278.237) rotate(55.0103) scale(35.1089 34.9575)">
<stop stop-color="white"/>
<stop offset="1" stop-color="white" stop-opacity="0"/>
</radialGradient>
<clipPath id="clip0_13_585">
<rect x="346.002" y="196" width="11.998" height="11.998" fill="white"/>
</clipPath>
<clipPath id="clip1_13_585">
<rect x="346.002" y="196" width="11.998" height="11.998" fill="white"/>
</clipPath>
</defs>
</svg>
