<svg fill="none" height="378" viewBox="0 0 749 378" width="749" xmlns="http://www.w3.org/2000/svg" xmlns:xlink="http://www.w3.org/1999/xlink"><linearGradient id="a"><stop offset="0" stop-color="#fff"/><stop offset="1" stop-color="#fff" stop-opacity="0"/></linearGradient><radialGradient id="b" cx="0" cy="0" gradientTransform="matrix(20.13246735 28.76314686 -28.63911164 20.04565018 228.874 252.237)" gradientUnits="userSpaceOnUse" r="1" xlink:href="#a"/><radialGradient id="c" cx="0" cy="0" gradientTransform="matrix(20.13246735 28.76314686 -28.63911164 20.04565018 340.874 185.237)" gradientUnits="userSpaceOnUse" r="1" xlink:href="#a"/><radialGradient id="d" cx="0" cy="0" gradientTransform="matrix(20.13246735 28.76314686 -28.63911164 20.04565018 595.874 3.21536)" gradientUnits="userSpaceOnUse" r="1" xlink:href="#a"/><radialGradient id="e" cx="0" cy="0" gradientTransform="matrix(20.13246735 28.76314686 -28.63911164 20.04565018 118.874 278.237)" gradientUnits="userSpaceOnUse" r="1" xlink:href="#a"/><clipPath id="f"><path d="m346.002 196h11.998v11.998h-11.998z"/></clipPath><mask id="g" fill="#fff"><path clip-rule="evenodd" d="m230 249c-5.523 0-10 4.477-10 10v19.764c0 5.523 4.477 10 10 10h28.026l3.873 5.885c1.185 1.801 3.827 1.801 5.012 0l3.872-5.885h27.217c5.523 0 10-4.477 10-10v-19.764c0-5.523-4.477-10-10-10z" fill="#fff" fill-rule="evenodd"/></mask><mask id="h" fill="#fff"><path clip-rule="evenodd" d="m342 174c-5.523 0-10 4.477-10 10v38.736c0 5.523 4.477 10 10 10h55.121l3.73 5.873c1.178 1.856 3.886 1.856 5.065 0l3.729-5.873h55.355c5.523 0 10-4.477 10-10v-38.736c0-5.523-4.477-10-10-10z" fill="#fff" fill-rule="evenodd"/></mask><mask id="i" fill="#fff"><path clip-rule="evenodd" d="m597 0c-5.523 0-10 4.47714-10 9.99999v19.88011c0 5.5228 4.477 10 10 10h111.839l3.633 5.7277c1.178 1.8574 3.889 1.8574 5.067 0l3.633-5.7277h13.828c5.523 0 10-4.4771 10-10v-19.8801c0-5.52285-4.477-10-10-10z" fill="#fff" fill-rule="evenodd"/></mask><mask id="j" fill="#fff"><path clip-rule="evenodd" d="m120 275c-5.523 0-10 4.477-10 10v19.844c0 5.523 4.477 10 10 10h27.161l3.709 5.779c1.181 1.839 3.869 1.839 5.049 0l3.709-5.779h26.372c5.523 0 10-4.477 10-10v-19.844c0-5.523-4.477-10-10-10z" fill="#fff" fill-rule="evenodd"/></mask><g stroke="#ebecef" stroke-dasharray="6 10" stroke-linecap="round"><path d="m78 23.5h670"/><path d="m78 56.5h670"/><path d="m78 89.5h670"/><path d="m78 122.5h670"/><path d="m78 155.5h670"/><path d="m78 188.5h670"/><path d="m78 221.5h670"/><path d="m78 254.5h670"/><path d="m78 287.5h670"/><path d="m78 320.5h670"/></g><path d="m78.3536 21.6464c-.1953-.1952-.5119-.1952-.7071 0l-3.182 3.182c-.1953.1953-.1953.5118 0 .7071.1952.1953.5118.1953.7071 0l2.8284-2.8284 2.8284 2.8284c.1953.1953.5119.1953.7072 0 .1952-.1953.1952-.5118 0-.7071zm-.3536 332.3536h-.5v.5h.5zm670.354.354c.195-.196.195-.512 0-.708l-3.182-3.182c-.196-.195-.512-.195-.708 0-.195.196-.195.512 0 .708l2.829 2.828-2.829 2.828c-.195.196-.195.512 0 .708.196.195.512.195.708 0zm-670.854-332.354v332h1v-332zm.5 332.5h670v-1h-670z" fill="#d6d9dd"/><path d="m660.25 376.17c1.77 0 2.59-.99 2.59-2.09 0-1.29-.86-1.78-1.96-2.01l-1.04-.22c-.79-.17-1.16-.53-1.16-1.22 0-.72.6-1.15 1.47-1.15 1.05 0 1.58.52 1.7 1.47l.95-.2c-.14-1.39-1.22-2.02-2.63-2.02-1.51 0-2.47.8-2.47 1.99 0 1.22.77 1.75 1.78 1.96l1.03.21c.83.17 1.35.44 1.35 1.28 0 .9-.81 1.22-1.58 1.22-1.25 0-1.79-.77-1.92-1.64l-.96.14c.12 1.3 1.04 2.28 2.85 2.28zm2.886-7.27v.8h2.23v6.3h.95v-6.3h2.23v-.8zm11.763 7.1-1.82-3.08c1.19-.27 1.6-1.14 1.6-1.94 0-1.04-.49-2.08-2.35-2.08h-2.63v7.1h.95v-2.95h1.44l1.74 2.95zm-2.68-6.3c1.09 0 1.46.55 1.46 1.28 0 .71-.36 1.27-1.46 1.27h-1.57v-2.55zm6.635 6.47c1.96 0 3.24-1.42 3.24-3.72 0-2.32-1.28-3.72-3.24-3.72-1.97 0-3.25 1.4-3.25 3.72 0 2.27 1.28 3.72 3.25 3.72zm0-.8c-1.42 0-2.25-1.14-2.25-2.92 0-1.82.83-2.92 2.25-2.92s2.24 1.1 2.24 2.92c0 1.81-.82 2.92-2.24 2.92zm5.543.63v-5.14c0-.43-.01-.69-.03-.94h.02c.11.32.24.56.44.91l3.01 5.17h1.15v-7.1h-.85v5.14c0 .43.01.69.03.94h-.02c-.11-.3-.24-.56-.44-.91l-3.01-5.17h-1.15v7.1zm9.151.17c1.06 0 1.87-.54 2.18-1.31l.13 1.14h.69v-3.71h-2.93v.8h2.08v.12c0 .68-.26 2.15-2.01 2.15-1.54 0-2.28-1.28-2.28-2.9 0-1.73.82-2.93 2.27-2.93 1.27 0 1.7.88 1.8 1.48l.94-.13c-.12-.79-.75-2.15-2.71-2.15-2.1 0-3.27 1.55-3.27 3.72 0 2.14 1.17 3.72 3.11 3.72zm9.544 0c1.77 0 2.59-.99 2.59-2.09 0-1.29-.86-1.78-1.96-2.01l-1.04-.22c-.79-.17-1.16-.53-1.16-1.22 0-.72.6-1.15 1.47-1.15 1.05 0 1.58.52 1.7 1.47l.95-.2c-.14-1.39-1.22-2.02-2.63-2.02-1.51 0-2.47.8-2.47 1.99 0 1.22.77 1.75 1.78 1.96l1.03.21c.83.17 1.35.44 1.35 1.28 0 .9-.81 1.22-1.58 1.22-1.25 0-1.79-.77-1.92-1.64l-.96.14c.12 1.3 1.04 2.28 2.85 2.28zm4.94-3.41h3.28v-.8h-3.28v-2.26h3.45v-.8h-4.4v7.1h4.47v-.8h-3.52zm7.725 3.41c1.71 0 2.57-1.06 2.84-2.4l-.92-.16c-.2 1.06-.91 1.73-1.92 1.73-1.45 0-2.2-1.26-2.2-2.92 0-1.72.79-2.88 2.18-2.88 1.1 0 1.75.71 1.89 1.78l.97-.1c-.18-1.47-1.08-2.49-2.81-2.49-2.11 0-3.23 1.52-3.23 3.7 0 2.06 1 3.74 3.2 3.74zm4.145-2.65c0 1.58.97 2.65 2.73 2.65s2.73-1.07 2.73-2.65v-4.62h-.95v4.56c0 1.14-.63 1.87-1.78 1.87s-1.78-.73-1.78-1.87v-4.56h-.95zm12.556 2.48-1.82-3.08c1.19-.27 1.6-1.14 1.6-1.94 0-1.04-.49-2.08-2.35-2.08h-2.63v7.1h.95v-2.95h1.44l1.74 2.95zm-2.68-6.3c1.09 0 1.46.55 1.46 1.28 0 .71-.36 1.27-1.46 1.27h-1.57v-2.55zm5.08-.8h-.95v7.1h.95zm1.149 0v.8h2.23v6.3h.95v-6.3h2.23v-.8zm9.434 7.1v-2.83l2.41-4.27h-1.06l-1.63 3.01c-.1.19-.16.32-.19.41h-.02c-.03-.09-.09-.22-.19-.41l-1.63-3.01h-1.06l2.41 4.27v2.83z" fill="#657080"/><path d="m81.1 376 1.38-5.54c.03-.12.05-.21.06-.33h.04c.01.12.03.21.06.33l1.38 5.54h1.16l1.69-7.1h-.97l-1.23 5.72c-.04.19-.05.28-.06.39h-.03c-.01-.1-.03-.19-.08-.39l-1.46-5.72h-.96l-1.46 5.72c-.05.2-.07.29-.08.39h-.03c-.01-.11-.02-.2-.06-.39l-1.23-5.72h-.97l1.69 7.1zm7.9711-3.24h3.28v-.8h-3.28v-2.26h3.45v-.8h-4.4v7.1h4.47v-.8h-3.52zm10.7407 3.24-2.69-7.1h-.94l-2.69 7.1h.98l.73-2.05h2.9l.73 2.05zm-3.34-5.62c.06-.16.11-.33.17-.54h.02c.06.21.11.38.17.54l.99 2.77h-2.34zm9.9712 5.62-2.83-4.26 2.61-2.84h-1.19l-3.12 3.52v-3.52h-.95v7.1h.95v-2.43l1.05-1.15 2.37 3.58zm6.047.17c1.77 0 2.59-.99 2.59-2.09 0-1.29-.86-1.78-1.96-2.01l-1.04-.22c-.79-.17-1.16-.53-1.16-1.22 0-.72.6-1.15 1.47-1.15 1.05 0 1.58.52 1.7 1.47l.95-.2c-.14-1.39-1.22-2.02-2.63-2.02-1.51 0-2.47.8-2.47 1.99 0 1.22.77 1.75 1.78 1.96l1.03.21c.83.17 1.35.44 1.35 1.28 0 .9-.81 1.22-1.58 1.22-1.25 0-1.79-.77-1.92-1.64l-.96.14c.12 1.3 1.04 2.28 2.85 2.28zm4.94-3.41h3.28v-.8h-3.28v-2.26h3.45v-.8h-4.4v7.1h4.47v-.8h-3.52zm7.726 3.41c1.71 0 2.57-1.06 2.84-2.4l-.92-.16c-.2 1.06-.91 1.73-1.92 1.73-1.45 0-2.2-1.26-2.2-2.92 0-1.72.79-2.88 2.18-2.88 1.1 0 1.75.71 1.89 1.78l.97-.1c-.18-1.47-1.08-2.49-2.81-2.49-2.11 0-3.23 1.52-3.23 3.7 0 2.06 1 3.74 3.2 3.74zm4.144-2.65c0 1.58.97 2.65 2.73 2.65s2.73-1.07 2.73-2.65v-4.62h-.95v4.56c0 1.14-.63 1.87-1.78 1.87s-1.78-.73-1.78-1.87v-4.56h-.95zm12.556 2.48-1.82-3.08c1.19-.27 1.6-1.14 1.6-1.94 0-1.04-.49-2.08-2.35-2.08h-2.63v7.1h.95v-2.95h1.44l1.74 2.95zm-2.68-6.3c1.09 0 1.46.55 1.46 1.28 0 .71-.36 1.27-1.46 1.27h-1.57v-2.55zm5.081-.8h-.95v7.1h.95zm1.149 0v.8h2.23v6.3h.95v-6.3h2.23v-.8zm9.433 7.1v-2.83l2.41-4.27h-1.06l-1.63 3.01c-.1.19-.16.32-.19.41h-.02c-.03-.09-.09-.22-.19-.41l-1.63-3.01h-1.06l2.41 4.27v2.83z" fill="#657080"/><path d="m5.53 24.9v3.07h-3.58v-3.07h-.95v7.1h.95v-3.23h3.58v3.23h.95v-7.1zm3.90047 0h-.95v7.1h.95zm4.55923 7.27c1.06 0 1.87-.54 2.18-1.31l.13 1.14h.69v-3.71h-2.93v.8h2.08v.12c0 .68-.26 2.15-2.01 2.15-1.54 0-2.28-1.28-2.28-2.9 0-1.73.82-2.93 2.27-2.93 1.27 0 1.7.88 1.8 1.48l.94-.13c-.12-.79-.75-2.15-2.71-2.15-2.1 0-3.27 1.55-3.27 3.72 0 2.14 1.17 3.72 3.11 3.72zm9.2258-7.27v3.07h-3.58v-3.07h-.95v7.1h.95v-3.23h3.58v3.23h.95v-7.1zm7.7982 7.27c1.77 0 2.59-.99 2.59-2.09 0-1.29-.86-1.78-1.96-2.01l-1.04-.22c-.79-.17-1.16-.53-1.16-1.22 0-.72.6-1.15 1.47-1.15 1.05 0 1.58.52 1.7 1.47l.95-.2c-.14-1.39-1.22-2.02-2.63-2.02-1.51 0-2.47.8-2.47 1.99 0 1.22.77 1.75 1.78 1.96l1.03.21c.83.17 1.35.44 1.35 1.28 0 .9-.81 1.22-1.58 1.22-1.25 0-1.79-.77-1.92-1.64l-.96.14c.12 1.3 1.04 2.28 2.85 2.28zm6.1965-.17v-2.83l2.41-4.27h-1.06l-1.63 3.01c-.1.19-.16.32-.19.41h-.02c-.03-.09-.09-.22-.19-.41l-1.63-3.01h-1.06l2.41 4.27v2.83zm7.1466-3.67c.81-.23 1.19-.87 1.19-1.54 0-.84-.49-1.89-2.36-1.89h-2.47v7.1h2.68c1.8 0 2.35-1.04 2.35-1.95 0-.95-.54-1.57-1.39-1.72zm-1.17-2.63c1.15 0 1.42.6 1.42 1.16 0 .49-.2 1.12-1.42 1.12h-1.52v-2.28zm-1.52 5.5v-2.42h1.78c.97 0 1.36.52 1.36 1.18 0 .64-.35 1.24-1.46 1.24zm6.582-6.3h-.95v7.1h.95zm6.2292 7.1v-.8h-3.28v-6.3h-.95v7.1zm-48.008 12-2.69-7.1h-.94l-2.69 7.1h.98l.73-2.05h2.9l.73 2.05zm-3.34-5.62c.06-.16.11-.33.17-.54h.02c.06.21.11.38.17.54l.99 2.77h-2.34zm2.88914-1.48v.8h2.23v6.3h.95v-6.3h2.22996v-.8zm6.16216 0v.8h2.23v6.3h.95v-6.3h2.23v-.8zm11.2809 7.1-2.69-7.1h-.94l-2.69 7.1h.98l.73-2.05h2.9l.73 2.05zm-3.34-5.62c.06-.16.11-.33.17-.54h.02c.06.21.11.38.17.54l.99 2.77h-2.34zm6.9458 5.79c1.71 0 2.57-1.06 2.84-2.4l-.92-.16c-.2 1.06-.91 1.73-1.92 1.73-1.45 0-2.2-1.26-2.2-2.92 0-1.72.79-2.88 2.18-2.88 1.1 0 1.75.71 1.89 1.78l.97-.1c-.18-1.47-1.08-2.49-2.81-2.49-2.11 0-3.23 1.52-3.23 3.7 0 2.06 1 3.74 3.2 3.74zm9.7245-.17-2.83-4.26 2.61-2.84h-1.19l-3.12 3.52v-3.52h-.95v7.1h.95v-2.43l1.05-1.15 2.37 3.58zm6.4473.17c1.71 0 2.57-1.06 2.84-2.4l-.92-.16c-.2 1.06-.91 1.73-1.92 1.73-1.45 0-2.2-1.26-2.2-2.92 0-1.72.79-2.88 2.18-2.88 1.1 0 1.75.71 1.89 1.78l.97-.1c-.18-1.47-1.08-2.49-2.81-2.49-2.11 0-3.23 1.52-3.23 3.7 0 2.06 1 3.74 3.2 3.74zm6.8957 0c1.96 0 3.24-1.42 3.24-3.72 0-2.32-1.28-3.72-3.24-3.72-1.97 0-3.25 1.4-3.25 3.72 0 2.27 1.28 3.72 3.25 3.72zm0-.8c-1.42 0-2.25-1.14-2.25-2.92 0-1.82.83-2.92 2.25-2.92s2.24 1.1 2.24 2.92c0 1.81-.82 2.92-2.24 2.92zm6.8938.8c1.77 0 2.59-.99 2.59-2.09 0-1.29-.86-1.78-1.96-2.01l-1.04-.22c-.79-.17-1.16-.53-1.16-1.22 0-.72.6-1.15 1.47-1.15 1.05 0 1.58.52 1.7 1.47l.95-.2c-.14-1.39-1.22-2.02-2.63-2.02-1.51 0-2.47.8-2.47 1.99 0 1.22.77 1.75 1.78 1.96l1.03.21c.83.17 1.35.44 1.35 1.28 0 .9-.81 1.22-1.58 1.22-1.25 0-1.79-.77-1.92-1.64l-.96.14c.12 1.3 1.04 2.28 2.85 2.28zm2.8863-7.27v.8h2.23v6.3h.95v-6.3h2.23v-.8z" fill="#657080"/><path d="m5.23 340v-.8h-3.28v-6.3h-.95v7.1zm3.59695.17c1.96005 0 3.24005-1.42 3.24005-3.72 0-2.32-1.28-3.72-3.24005-3.72-1.97 0-3.25 1.4-3.25 3.72 0 2.27 1.28 3.72 3.25 3.72zm0-.8c-1.42 0-2.25-1.14-2.25-2.92 0-1.82.83-2.92 2.25-2.92 1.42005 0 2.24005 1.1 2.24005 2.92 0 1.81-.82 2.92-2.24005 2.92zm6.53865.63 1.38-5.54c.03-.12.05-.21.06-.33h.04c.01.12.03.21.06.33l1.38 5.54h1.16l1.69-7.1h-.97l-1.23 5.72c-.04.19-.05.28-.06.39h-.03c-.01-.1-.03-.19-.08-.39l-1.46-5.72h-.96l-1.46 5.72c-.05.2-.07.29-.08.39h-.03c-.01-.11-.02-.2-.06-.39l-1.23-5.72h-.97l1.69 7.1zm11.8688.17c1.77 0 2.59-.99 2.59-2.09 0-1.29-.86-1.78-1.96-2.01l-1.04-.22c-.79-.17-1.16-.53-1.16-1.22 0-.72.6-1.15 1.47-1.15 1.05 0 1.58.52 1.7 1.47l.95-.2c-.14-1.39-1.22-2.02-2.63-2.02-1.51 0-2.47.8-2.47 1.99 0 1.22.77 1.75 1.78 1.96l1.03.21c.83.17 1.35.44 1.35 1.28 0 .9-.81 1.22-1.58 1.22-1.25 0-1.79-.77-1.92-1.64l-.96.14c.12 1.3 1.04 2.28 2.85 2.28zm6.1965-.17v-2.83l2.41-4.27h-1.06l-1.63 3.01c-.1.19-.16.32-.19.41h-.02c-.03-.09-.09-.22-.19-.41l-1.63-3.01h-1.06l2.41 4.27v2.83zm7.1466-3.67c.81-.23 1.19-.87 1.19-1.54 0-.84-.49-1.89-2.36-1.89h-2.47v7.1h2.68c1.8 0 2.35-1.04 2.35-1.95 0-.95-.54-1.57-1.39-1.72zm-1.17-2.63c1.15 0 1.42.6 1.42 1.16 0 .49-.2 1.12-1.42 1.12h-1.52v-2.28zm-1.52 5.5v-2.42h1.78c.97 0 1.36.52 1.36 1.18 0 .64-.35 1.24-1.46 1.24zm6.582-6.3h-.95v7.1h.95zm6.2293 7.1v-.8h-3.28v-6.3h-.95v7.1zm-44.2288 12-2.69-7.1h-.94l-2.69 7.1h.98l.73-2.05h2.9l.73 2.05zm-3.34-5.62c.06-.16.11-.33.17-.54h.02c.06.21.11.38.17.54l.99 2.77h-2.34zm2.88914-1.48v.8h2.23v6.3h.95v-6.3h2.22996v-.8zm6.16216 0v.8h2.23v6.3h.95v-6.3h2.23v-.8zm11.2809 7.1-2.69-7.1h-.94l-2.69 7.1h.98l.73-2.05h2.9l.73 2.05zm-3.34-5.62c.06-.16.11-.33.17-.54h.02c.06.21.11.38.17.54l.99 2.77h-2.34zm6.9458 5.79c1.71 0 2.57-1.06 2.84-2.4l-.92-.16c-.2 1.06-.91 1.73-1.92 1.73-1.45 0-2.2-1.26-2.2-2.92 0-1.72.79-2.88 2.18-2.88 1.1 0 1.75.71 1.89 1.78l.97-.1c-.18-1.47-1.08-2.49-2.81-2.49-2.11 0-3.23 1.52-3.23 3.7 0 2.06 1 3.74 3.2 3.74zm9.7245-.17-2.83-4.26 2.61-2.84h-1.19l-3.12 3.52v-3.52h-.95v7.1h.95v-2.43l1.05-1.15 2.37 3.58zm6.4473.17c1.71 0 2.57-1.06 2.84-2.4l-.92-.16c-.2 1.06-.91 1.73-1.92 1.73-1.45 0-2.2-1.26-2.2-2.92 0-1.72.79-2.88 2.18-2.88 1.1 0 1.75.71 1.89 1.78l.97-.1c-.18-1.47-1.08-2.49-2.81-2.49-2.11 0-3.23 1.52-3.23 3.7 0 2.06 1 3.74 3.2 3.74zm6.8957 0c1.96 0 3.24-1.42 3.24-3.72 0-2.32-1.28-3.72-3.24-3.72-1.97 0-3.25 1.4-3.25 3.72 0 2.27 1.28 3.72 3.25 3.72zm0-.8c-1.42 0-2.25-1.14-2.25-2.92 0-1.82.83-2.92 2.25-2.92s2.24 1.1 2.24 2.92c0 1.81-.82 2.92-2.24 2.92zm6.8938.8c1.77 0 2.59-.99 2.59-2.09 0-1.29-.86-1.78-1.96-2.01l-1.04-.22c-.79-.17-1.16-.53-1.16-1.22 0-.72.6-1.15 1.47-1.15 1.05 0 1.58.52 1.7 1.47l.95-.2c-.14-1.39-1.22-2.02-2.63-2.02-1.51 0-2.47.8-2.47 1.99 0 1.22.77 1.75 1.78 1.96l1.03.21c.83.17 1.35.44 1.35 1.28 0 .9-.81 1.22-1.58 1.22-1.25 0-1.79-.77-1.92-1.64l-.96.14c.12 1.3 1.04 2.28 2.85 2.28zm2.8863-7.27v.8h2.23v6.3h.95v-6.3h2.23v-.8z" fill="#657080"/><path d="m93.502 341.5c530.999-76 330.135-285.0002 649.498-285.0001" stroke="#191c20"/><circle cx="93" cy="342" fill="#191c20" r="2"/><circle cx="153" cy="332" fill="#191c20" r="2"/><circle cx="264" cy="306" fill="#191c20" r="2"/><circle cx="402" cy="250" fill="#191c20" r="2"/><circle cx="713" cy="57" fill="#191c20" r="2"/><circle cx="743" cy="56" fill="#191c20" r="2"/><path clip-rule="evenodd" d="m230 249c-5.523 0-10 4.477-10 10v19.764c0 5.523 4.477 10 10 10h28.026l3.873 5.885c1.185 1.801 3.827 1.801 5.012 0l3.872-5.885h27.217c5.523 0 10-4.477 10-10v-19.764c0-5.523-4.477-10-10-10z" fill="#fff" fill-rule="evenodd"/><path d="m258.026 288.764.955-.628-.339-.515h-.616zm3.873 5.885.954-.629zm5.012 0 .955.628zm3.872-5.885v-1.143h-.616l-.338.515zm-49.64-29.764c0-4.892 3.965-8.857 8.857-8.857v-2.286c-6.154 0-11.143 4.989-11.143 11.143zm0 19.764v-19.764h-2.286v19.764zm8.857 8.857c-4.892 0-8.857-3.965-8.857-8.857h-2.286c0 6.154 4.989 11.143 11.143 11.143zm28.026 0h-28.026v2.286h28.026zm-.954 1.771 3.872 5.885 1.909-1.257-3.872-5.884zm3.872 5.885c1.637 2.487 5.285 2.487 6.922 0l-1.91-1.257c-.734 1.115-2.369 1.115-3.103 0zm6.922 0 3.872-5.885-1.909-1.256-3.873 5.884zm30.134-7.656h-27.217v2.286h27.217zm8.857-8.857c0 4.892-3.965 8.857-8.857 8.857v2.286c6.154 0 11.143-4.989 11.143-11.143zm0-19.764v19.764h2.286v-19.764zm-8.857-8.857c4.892 0 8.857 3.965 8.857 8.857h2.286c0-6.154-4.989-11.143-11.143-11.143zm-68 0h68v-2.286h-68z" fill="#f3f4f5" mask="url(#g)"/><rect fill="#9d50ff" height="24" rx="12" width="24" x="228" y="257"/><rect fill="url(#b)" height="24" opacity=".5" rx="12" width="24" x="228" y="257"/><path clip-rule="evenodd" d="m236 266c0-.552.448-1 1-1h1c.552 0 1 .448 1 1v1c0 .552-.448 1-1 1h-1c-.552 0-1-.448-1-1zm6-1c-.552 0-1 .448-1 1v1c0 .552.448 1 1 1h1c.552 0 1-.448 1-1v-1c0-.552-.448-1-1-1zm.5 8c.828 0 1.5-.672 1.5-1.5s-.672-1.5-1.5-1.5-1.5.672-1.5 1.5.672 1.5 1.5 1.5zm-5.5-3c-.552 0-1 .448-1 1v1c0 .552.448 1 1 1h1c.552 0 1-.448 1-1v-1c0-.552-.448-1-1-1z" fill="#fff" fill-rule="evenodd"/><path d="m264.488 273.204c2.448 0 4.032-1.716 4.032-4.464 0-2.772-1.584-4.464-4.032-4.464s-4.032 1.692-4.032 4.464c0 2.724 1.584 4.464 4.032 4.464zm0-1.248c-1.524 0-2.424-1.248-2.424-3.216 0-2.004.9-3.216 2.424-3.216 1.536 0 2.424 1.212 2.424 3.216s-.888 3.216-2.424 3.216zm5.736-3.912v3.096c0 1.212.48 1.968 1.92 1.968.372 0 .636-.036.984-.108v-1.212c-.192.036-.348.072-.588.072-.6 0-.876-.312-.876-.948v-2.868h1.464v-1.044h-1.464v-2.088l-1.44.576v1.512h-1.08v1.044zm5.664 4.956v-3.18c0-1.152.492-1.812 1.356-1.812.732 0 1.104.468 1.104 1.38v3.612h1.452v-3.732c0-1.584-.684-2.412-1.98-2.412-.912 0-1.572.42-1.932 1.248v-3.804h-1.44v8.7zm10.774-3.3c0-1.836-.996-2.844-2.736-2.844-1.788 0-2.868 1.224-2.868 3.204 0 1.968 1.104 3.084 2.94 3.084 1.224 0 2.172-.576 2.616-1.62l-1.104-.504c-.276.648-.78.996-1.464.996-.948 0-1.584-.648-1.596-1.656h4.212zm-4.212-.288c.024-.996.54-1.596 1.452-1.596.852 0 1.344.516 1.344 1.5v.096zm7.03-2.412h-1.344v6h1.44v-2.508c0-.672.06-1.356.54-1.824.276-.264.672-.42 1.248-.42h.192v-1.38c-.06-.012-.108-.012-.168-.012-.972 0-1.608.648-1.908 1.596zm5.41 6.144c1.572 0 2.46-.768 2.46-1.896 0-.948-.492-1.524-1.656-1.728l-1.176-.216c-.528-.096-.792-.276-.792-.684 0-.468.372-.72 1.044-.72.792 0 1.32.336 1.608.876l1.008-.54c-.288-.864-1.26-1.38-2.532-1.38-1.524 0-2.448.768-2.448 1.848 0 .96.588 1.548 1.716 1.752l1.068.192c.588.096.852.264.852.696s-.384.744-1.116.744c-.852 0-1.452-.384-1.728-1.056l-1.068.48c.372 1.056 1.392 1.632 2.76 1.632z" fill="#9d50ff"/><path clip-rule="evenodd" d="m342 174c-5.523 0-10 4.477-10 10v38.736c0 5.523 4.477 10 10 10h55.121l3.73 5.873c1.178 1.856 3.886 1.856 5.065 0l3.729-5.873h55.355c5.523 0 10-4.477 10-10v-38.736c0-5.523-4.477-10-10-10z" fill="#fff" fill-rule="evenodd"/><path d="m397.121 232.736.965-.612-.337-.531h-.628zm3.73 5.873.964-.612zm5.065 0-.965-.612zm3.729-5.873v-1.143h-.628l-.337.531zm-76.502-48.736c0-4.892 3.965-8.857 8.857-8.857v-2.286c-6.154 0-11.143 4.989-11.143 11.143zm0 38.736v-38.736h-2.286v38.736zm8.857 8.857c-4.892 0-8.857-3.965-8.857-8.857h-2.286c0 6.154 4.989 11.143 11.143 11.143zm55.121 0h-55.121v2.286h55.121zm-.965 1.756 3.73 5.873 1.929-1.225-3.729-5.873zm3.73 5.873c1.627 2.563 5.367 2.563 6.994 0l-1.929-1.225c-.73 1.149-2.406 1.149-3.136 0zm6.994 0 3.73-5.873-1.93-1.225-3.729 5.873zm58.12-7.629h-55.355v2.286h55.355zm8.857-8.857c0 4.892-3.965 8.857-8.857 8.857v2.286c6.154 0 11.143-4.989 11.143-11.143zm0-38.736v38.736h2.286v-38.736zm-8.857-8.857c4.892 0 8.857 3.965 8.857 8.857h2.286c0-6.154-4.989-11.143-11.143-11.143zm-123 0h123v-2.286h-123z" fill="#f3f4f5" mask="url(#h)"/><rect fill="#9ba3ae" height="24" rx="12" width="24" x="340" y="190"/><rect fill="url(#c)" height="24" opacity=".5" rx="12" width="24" x="340" y="190"/><g clip-path="url(#f)"><path d="m347 200v-1c0-1.105.895-2 2-2h1m3.999 0h1c1.104 0 1.999.895 1.999 2v1m0 3.971v1.028c0 1.104-.895 1.999-1.999 1.999h-1m-3.999 0h-1c-1.105 0-2-.895-2-1.999v-1.028" stroke="#ebecef" stroke-linecap="round" stroke-linejoin="round" stroke-width=".749878"/><path d="m349.369 201.91h5.263" stroke="#ebecef" stroke-linecap="round" stroke-linejoin="round" stroke-width=".749878"/><path clip-rule="evenodd" d="m350.993 201.21h2.008c.205-.234.329-.541.329-.877 0-.736-.597-1.333-1.333-1.333s-1.333.597-1.333 1.333c0 .336.124.643.329.877zm-.416 1.4c-.554.244-.911.627-.911 1.057 0 .736 1.045 1.333 2.333 1.333s2.333-.597 2.333-1.333c0-.43-.357-.813-.911-1.057z" fill="#ebecef" fill-rule="evenodd"/></g><path d="m378.588 189.48h-5.532v8.52h1.548v-3.708h3.78v-1.224h-3.78v-2.364h3.984zm2.822 8.664c.96 0 1.716-.444 2.004-1.176.012.372.048.732.096 1.032h1.44c-.12-.42-.18-1.044-.18-1.86v-1.788c0-1.74-.792-2.496-2.568-2.496-1.548 0-2.556.792-2.652 2.076h1.476c.048-.684.468-1.056 1.176-1.056.768 0 1.116.384 1.116 1.284v.156l-1.272.156c-.948.132-1.524.288-1.956.54-.48.3-.732.78-.732 1.356 0 1.068.816 1.776 2.052 1.776zm.456-1.02c-.636 0-1.02-.324-1.02-.828 0-.516.36-.804 1.152-.936l1.356-.204v.384c0 .948-.6 1.584-1.488 1.584zm7.065 1.02c1.428 0 2.436-.816 2.652-2.148l-1.356-.276c-.132.84-.576 1.284-1.296 1.284-.924 0-1.464-.744-1.464-2.04 0-1.236.552-1.98 1.44-1.98.708 0 1.176.444 1.272 1.26l1.404-.228c-.18-1.368-1.152-2.16-2.64-2.16-1.824 0-2.952 1.188-2.952 3.144 0 1.908 1.152 3.144 2.94 3.144zm9.145-3.444c0-1.836-.996-2.844-2.736-2.844-1.788 0-2.868 1.224-2.868 3.204 0 1.968 1.104 3.084 2.94 3.084 1.224 0 2.172-.576 2.616-1.62l-1.104-.504c-.276.648-.78.996-1.464.996-.948 0-1.584-.648-1.596-1.656h4.212zm-4.212-.288c.024-.996.54-1.596 1.452-1.596.852 0 1.344.516 1.344 1.5v.096zm11.577 3.588 2.136-6h-1.512l-1.176 3.804c-.096.312-.168.612-.216.888h-.036c-.048-.276-.12-.576-.216-.888l-1.164-3.804h-1.512l2.136 6zm8.174-3.3c0-1.836-.996-2.844-2.736-2.844-1.788 0-2.868 1.224-2.868 3.204 0 1.968 1.104 3.084 2.94 3.084 1.224 0 2.172-.576 2.616-1.62l-1.104-.504c-.276.648-.78.996-1.464.996-.948 0-1.584-.648-1.596-1.656h4.212zm-4.212-.288c.024-.996.54-1.596 1.452-1.596.852 0 1.344.516 1.344 1.5v.096zm7.03-2.412h-1.344v6h1.44v-2.508c0-.672.06-1.356.54-1.824.276-.264.672-.42 1.248-.42h.192v-1.38c-.06-.012-.108-.012-.168-.012-.972 0-1.608.648-1.908 1.596zm4.761-.996v-1.5h-1.56v1.5zm-.06 6.996v-6h-1.44v6zm3.652-6v-.672c0-.636.264-.948.84-.948.18 0 .396.024.612.06v-1.116c-.264-.06-.552-.096-.852-.096-1.284 0-2.04.756-2.04 2.004v.768h-1.032v1.044h1.032v4.956h1.44v-4.956h1.452v-1.044zm4.176-.996v-1.5h-1.56v1.5zm-.06 6.996v-6h-1.44v6zm4.349.144c1.428 0 2.436-.816 2.652-2.148l-1.356-.276c-.132.84-.576 1.284-1.296 1.284-.924 0-1.464-.744-1.464-2.04 0-1.236.552-1.98 1.44-1.98.708 0 1.176.444 1.272 1.26l1.404-.228c-.18-1.368-1.152-2.16-2.64-2.16-1.824 0-2.952 1.188-2.952 3.144 0 1.908 1.152 3.144 2.94 3.144zm5.592 0c.96 0 1.716-.444 2.004-1.176.012.372.048.732.096 1.032h1.44c-.12-.42-.18-1.044-.18-1.86v-1.788c0-1.74-.792-2.496-2.568-2.496-1.548 0-2.556.792-2.652 2.076h1.476c.048-.684.468-1.056 1.176-1.056.768 0 1.116.384 1.116 1.284v.156l-1.272.156c-.948.132-1.524.288-1.956.54-.48.3-.732.78-.732 1.356 0 1.068.816 1.776 2.052 1.776zm.456-1.02c-.636 0-1.02-.324-1.02-.828 0-.516.36-.804 1.152-.936l1.356-.204v.384c0 .948-.6 1.584-1.488 1.584zm4.87-4.08v3.096c0 1.212.48 1.968 1.92 1.968.372 0 .636-.036.984-.108v-1.212c-.192.036-.348.072-.588.072-.6 0-.876-.312-.876-.948v-2.868h1.464v-1.044h-1.464v-2.088l-1.44.576v1.512h-1.08v1.044zm5.725-2.04v-1.5h-1.56v1.5zm-.06 6.996v-6h-1.44v6zm4.347.144c1.728 0 2.94-1.14 2.94-3.156 0-2.004-1.212-3.132-2.94-3.132s-2.94 1.128-2.94 3.132c0 2.016 1.212 3.156 2.94 3.156zm0-1.092c-.924 0-1.476-.696-1.476-2.064s.552-2.04 1.476-2.04 1.464.672 1.464 2.04-.54 2.064-1.464 2.064zm5.801.948v-3.18c0-1.14.504-1.812 1.344-1.812.756 0 1.116.468 1.116 1.416v3.576h1.452v-3.72c0-1.608-.684-2.424-1.992-2.424-.924 0-1.584.432-1.992 1.308v-1.164h-1.368v6z" fill="#9ba3ae"/><rect fill="#9ba3ae" height="17" rx="4" width="74" x="372" y="206"/><path d="m383.951 218.17c1.71 0 2.57-1.06 2.84-2.4l-.92-.16c-.2 1.06-.91 1.73-1.92 1.73-1.45 0-2.2-1.26-2.2-2.92 0-1.72.79-2.88 2.18-2.88 1.1 0 1.75.71 1.89 1.78l.97-.1c-.18-1.47-1.08-2.49-2.81-2.49-2.11 0-3.23 1.52-3.23 3.7 0 2.06 1 3.74 3.2 3.74zm6.122-.05c1.41 0 2.33-.99 2.33-2.62s-.92-2.62-2.33-2.62-2.33.99-2.33 2.62.92 2.62 2.33 2.62zm0-.74c-.9 0-1.43-.64-1.43-1.88s.53-1.88 1.43-1.88 1.43.64 1.43 1.88-.53 1.88-1.43 1.88zm3.677.62h.85v-2.92c0-.91.43-1.47 1.13-1.47.6 0 .94.41.94 1.14v3.25h.85v-2.96c0-.91.41-1.43 1.12-1.43.63 0 .95.4.95 1.18v3.21h.85v-3.28c0-1.16-.56-1.84-1.52-1.84-.68 0-1.19.33-1.52 1-.23-.65-.73-1-1.42-1-.67 0-1.15.33-1.43.99v-.87h-.8zm9.249-5.93v-1.07h-.97v1.07zm-.06 5.93v-5h-.85v5zm2.647 0v-2.61c0-1.11.51-1.78 1.34-1.78.73 0 1.1.45 1.1 1.33v3.06h.85v-3.11c0-1.33-.57-2.01-1.67-2.01-.79 0-1.34.36-1.67 1.11v-.99h-.8v5zm8.831-5.08c.14 0 .26.02.36.04v-.74c-.11-.03-.22-.04-.33-.04-.67 0-1.04.4-1.19.91-.28-.13-.6-.21-.98-.21-1.16 0-1.85.72-1.85 1.69 0 .49.17.91.49 1.22-.42.16-.71.5-.71 1 0 .36.16.68.58.87-.53.17-.81.57-.81 1.04 0 .71.49 1.37 2.25 1.37 1.74 0 2.48-.65 2.48-1.59 0-.9-.57-1.41-1.7-1.41h-1.22c-.62 0-.83-.23-.83-.51 0-.23.15-.4.36-.49.27.13.59.21.96.21 1.16 0 1.85-.74 1.85-1.71 0-.47-.16-.88-.46-1.18.12-.32.37-.47.75-.47zm-2.14 2.71c-.64 0-1.05-.45-1.05-1.06s.41-1.04 1.05-1.04 1.05.44 1.05 1.05-.41 1.05-1.05 1.05zm.54 2.19c.69 0 1.04.25 1.04.72 0 .45-.31.83-1.53.83-.9 0-1.52-.2-1.52-.82 0-.3.17-.59.53-.75.13.01.27.02.42.02zm7.359.3c1.22 0 1.91-.63 1.91-1.53 0-.73-.4-1.19-1.3-1.36l-.97-.18c-.49-.09-.77-.29-.77-.71 0-.49.39-.77 1.03-.77.68 0 1.07.35 1.18.85l.84-.19c-.1-.84-.86-1.35-1.98-1.35-1.18 0-1.9.64-1.9 1.5 0 .76.48 1.24 1.33 1.4l.98.18c.45.08.72.26.72.7 0 .43-.37.76-1.04.76-.73 0-1.2-.36-1.32-.99l-.86.15c.17.99.97 1.54 2.15 1.54zm5.2 0c1.41 0 2.33-.99 2.33-2.62s-.92-2.62-2.33-2.62-2.33.99-2.33 2.62.92 2.62 2.33 2.62zm0-.74c-.9 0-1.43-.64-1.43-1.88s.53-1.88 1.43-1.88 1.43.64 1.43 1.88-.53 1.88-1.43 1.88zm5.556.74c1.41 0 2.33-.99 2.33-2.62s-.92-2.62-2.33-2.62-2.33.99-2.33 2.62.92 2.62 2.33 2.62zm0-.74c-.9 0-1.43-.64-1.43-1.88s.53-1.88 1.43-1.88 1.43.64 1.43 1.88-.53 1.88-1.43 1.88zm4.527.62v-2.61c0-1.11.51-1.78 1.34-1.78.73 0 1.1.45 1.1 1.33v3.06h.85v-3.11c0-1.33-.57-2.01-1.67-2.01-.79 0-1.34.36-1.67 1.11v-.99h-.8v5z" fill="#fff"/><path clip-rule="evenodd" d="m597 0c-5.523 0-10 4.47714-10 9.99999v19.88011c0 5.5228 4.477 10 10 10h111.839l3.633 5.7277c1.178 1.8574 3.889 1.8574 5.067 0l3.633-5.7277h13.828c5.523 0 10-4.4771 10-10v-19.8801c0-5.52285-4.477-10-10-10z" fill="#fff" fill-rule="evenodd"/><path d="m708.839 39.8801.965-.6122-.337-.5307h-.628zm3.633 5.7277-.965.6122zm5.067 0-.965-.6121zm3.633-5.7277v-1.1429h-.628l-.337.5307zm-133.029-29.88011c0-4.89166 3.965-8.85713 8.857-8.85713v-2.28572c-6.154 0-11.143 4.98882-11.143 11.14285zm0 19.88011v-19.88011h-2.286v19.88011zm8.857 8.8571c-4.892 0-8.857-3.9654-8.857-8.8571h-2.286c0 6.154 4.989 11.1429 11.143 11.1429zm111.839 0h-111.839v2.2858h111.839zm-.965 1.7551 3.633 5.7277 1.93-1.2243-3.633-5.7278zm3.633 5.7277c1.627 2.565 5.37 2.565 6.997 0l-1.93-1.2243c-.73 1.1498-2.407 1.1498-3.137 0zm6.997 0 3.633-5.7277-1.93-1.2244-3.633 5.7278zm16.496-7.4828h-13.828v2.2858h13.828zm8.857-8.8571c0 4.8917-3.965 8.8571-8.857 8.8571v2.2858c6.154 0 11.143-4.9889 11.143-11.1429zm0-19.8801v19.8801h2.286v-19.8801zm-8.857-8.85714c4.892 0 8.857 3.96548 8.857 8.85714h2.286c0-6.15403-4.989-11.14286-11.143-11.14286zm-138 0h138v-2.28572h-138z" fill="#f3f4f5" mask="url(#i)"/><rect fill="#39b8a8" height="24" rx="12" width="24" x="595" y="7.97852"/><rect fill="url(#d)" height="24" opacity=".5" rx="12" width="24" x="595" y="7.97852"/><path clip-rule="evenodd" d="m612.002 19.9805c0 2.7614-2.239 5-5 5s-5-2.2386-5-5c0-2.7615 2.239-5 5-5s5 2.2385 5 5zm-2.498-.833c0 1.3807-1.119 2.5-2.5 2.5s-2.5-1.1193-2.5-2.5c0-1.3808 1.119-2.5 2.5-2.5s2.5 1.1192 2.5 2.5zm-2.365.4157c.46 0 .833-.3731.833-.8334 0-.4602-.373-.8333-.833-.8333-.461 0-.834.3731-.834.8333 0 .4603.373.8334.834.8334z" fill="#fff" fill-rule="evenodd"/><path d="m632.784 19.5505c.984-.264 1.476-1.008 1.476-1.86 0-1.116-.732-2.232-2.832-2.232h-3.372v8.52h3.576c2.064 0 2.856-1.164 2.856-2.364 0-1.14-.648-1.884-1.704-2.064zm-1.608-2.916c1.14 0 1.488.588 1.488 1.224 0 .588-.288 1.2-1.488 1.2h-1.572v-2.424zm-1.572 6.168v-2.604h1.824c1.02 0 1.476.54 1.476 1.272 0 .72-.42 1.332-1.56 1.332zm7.883-5.82v-1.5h-1.56v1.5zm-.06 6.996v-6h-1.44v6zm4.348.144c1.728 0 2.94-1.14 2.94-3.156 0-2.004-1.212-3.132-2.94-3.132s-2.94 1.128-2.94 3.132c0 2.016 1.212 3.156 2.94 3.156zm0-1.092c-.924 0-1.476-.696-1.476-2.064s.552-2.04 1.476-2.04 1.464.672 1.464 2.04-.54 2.064-1.464 2.064zm4.361.948h1.44v-3.468c0-.96.42-1.524 1.14-1.524.636 0 .972.432.972 1.26v3.732h1.44v-3.504c0-.96.408-1.488 1.14-1.488.66 0 .984.42.984 1.296v3.696h1.44v-3.924c0-1.404-.684-2.22-1.836-2.22-.84 0-1.464.396-1.872 1.212-.288-.804-.864-1.212-1.704-1.212s-1.416.396-1.776 1.212v-1.068h-1.368zm15.424-3.3c0-1.836-.996-2.844-2.736-2.844-1.788 0-2.868 1.224-2.868 3.204 0 1.968 1.104 3.084 2.94 3.084 1.224 0 2.172-.576 2.616-1.62l-1.104-.504c-.276.648-.78.996-1.464.996-.948 0-1.584-.648-1.596-1.656h4.212zm-4.212-.288c.024-.996.54-1.596 1.452-1.596.852 0 1.344.516 1.344 1.5v.096zm5.915-1.368v3.096c0 1.212.48 1.968 1.92 1.968.372 0 .636-.036.984-.108v-1.212c-.192.036-.348.072-.588.072-.6 0-.876-.312-.876-.948v-2.868h1.464v-1.044h-1.464v-2.088l-1.44.576v1.512h-1.08v1.044zm5.568-1.044h-1.344v6h1.44v-2.508c0-.672.06-1.356.54-1.824.276-.264.672-.42 1.248-.42h.192v-1.38c-.06-.012-.108-.012-.168-.012-.972 0-1.608.648-1.908 1.596zm4.762-.996v-1.5h-1.56v1.5zm-.06 6.996v-6h-1.44v6zm4.347.144c1.428 0 2.436-.816 2.652-2.148l-1.356-.276c-.132.84-.576 1.284-1.296 1.284-.924 0-1.464-.744-1.464-2.04 0-1.236.552-1.98 1.44-1.98.708 0 1.176.444 1.272 1.26l1.404-.228c-.18-1.368-1.152-2.16-2.64-2.16-1.824 0-2.952 1.188-2.952 3.144 0 1.908 1.152 3.144 2.94 3.144zm9.996 1.032c-1.236-1.632-1.788-3.216-1.788-5.088s.552-3.384 1.788-4.98l-1.056-.492c-1.296 1.428-2.124 3.312-2.124 5.448 0 2.112.816 4.104 2.112 5.616zm5.7-4.476c0-1.836-.996-2.844-2.736-2.844-1.788 0-2.868 1.224-2.868 3.204 0 1.968 1.104 3.084 2.94 3.084 1.224 0 2.172-.576 2.616-1.62l-1.104-.504c-.276.648-.78.996-1.464.996-.948 0-1.584-.648-1.596-1.656h4.212zm-4.212-.288c.024-.996.54-1.596 1.452-1.596.852 0 1.344.516 1.344 1.5v.096zm5.353 1.92v1.668h1.704v-1.668zm8.606-4.284c.18 0 .336.024.492.06v-1.08c-.12-.024-.216-.036-.336-.036-.864 0-1.38.456-1.572 1.104-.36-.156-.78-.24-1.272-.24-1.524 0-2.46.828-2.46 2.016 0 .636.264 1.164.732 1.536-.576.228-.948.66-.948 1.272 0 .468.228.864.756 1.08-.648.204-.996.648-.996 1.176 0 .852.756 1.548 2.82 1.548 2.16 0 3.204-.804 3.204-2.04 0-1.116-.72-1.728-2.124-1.728h-1.572c-.66 0-.912-.228-.912-.552 0-.204.12-.36.3-.456.336.132.744.216 1.2.216 1.536 0 2.472-.864 2.472-2.052 0-.588-.228-1.08-.636-1.44.18-.264.456-.384.852-.384zm-2.688 3c-.672 0-1.104-.492-1.104-1.176 0-.672.432-1.14 1.104-1.14s1.104.468 1.104 1.152c0 .672-.432 1.164-1.104 1.164zm.768 2.904c.684 0 1.032.252 1.032.732 0 .492-.432.864-1.8.864-1.032 0-1.716-.24-1.716-.876 0-.288.132-.564.432-.756.144.024.312.024.492.024zm3.381-1.62v1.668h1.704v-1.668zm10.001 1.872c2.448 0 4.032-1.716 4.032-4.464 0-2.772-1.584-4.464-4.032-4.464s-4.032 1.692-4.032 4.464c0 2.724 1.584 4.464 4.032 4.464zm0-1.248c-1.524 0-2.424-1.248-2.424-3.216 0-2.004.9-3.216 2.424-3.216 1.536 0 2.424 1.212 2.424 3.216s-.888 3.216-2.424 3.216zm6.792-4.956h-1.344v6h1.44v-2.508c0-.672.06-1.356.54-1.824.276-.264.672-.42 1.248-.42h.192v-1.38c-.06-.012-.108-.012-.168-.012-.972 0-1.608.648-1.908 1.596zm6.49 6.144c1.5 0 2.472-1.26 2.472-3.144 0-1.86-.948-3.144-2.412-3.144-.888 0-1.536.456-1.848 1.08v-3.636h-1.44v8.7h1.212l.144-.972c.312.672.984 1.116 1.872 1.116zm-.456-1.104c-.864 0-1.368-.708-1.368-1.824v-.408c0-1.14.516-1.848 1.368-1.848.924 0 1.428.792 1.428 2.04 0 1.272-.528 2.04-1.428 2.04zm4.17 2.64c1.296-1.512 2.112-3.504 2.112-5.616 0-2.136-.828-4.02-2.124-5.448l-1.056.492c1.236 1.596 1.788 3.108 1.788 4.98s-.552 3.456-1.788 5.088z" fill="#39b8a8"/><path clip-rule="evenodd" d="m120 275c-5.523 0-10 4.477-10 10v19.844c0 5.523 4.477 10 10 10h27.161l3.709 5.779c1.181 1.839 3.869 1.839 5.049 0l3.709-5.779h26.372c5.523 0 10-4.477 10-10v-19.844c0-5.523-4.477-10-10-10z" fill="#fff" fill-rule="evenodd"/><path d="m147.161 314.844.962-.617-.337-.526h-.625zm3.709 5.779-.962.617zm5.049 0 .962.617zm3.709-5.779v-1.143h-.624l-.337.526zm-48.485-29.844c0-4.892 3.965-8.857 8.857-8.857v-2.286c-6.154 0-11.143 4.989-11.143 11.143zm0 19.844v-19.844h-2.286v19.844zm8.857 8.857c-4.892 0-8.857-3.966-8.857-8.857h-2.286c0 6.154 4.989 11.143 11.143 11.143zm27.161 0h-27.161v2.286h27.161zm-.962 1.76 3.709 5.779 1.924-1.235-3.709-5.778zm3.709 5.779c1.63 2.54 5.343 2.54 6.973 0l-1.923-1.235c-.731 1.139-2.395 1.139-3.126 0zm6.973 0 3.709-5.779-1.923-1.234-3.709 5.778zm29.119-7.539h-26.372v2.286h26.372zm8.857-8.857c0 4.891-3.965 8.857-8.857 8.857v2.286c6.154 0 11.143-4.989 11.143-11.143zm0-19.844v19.844h2.286v-19.844zm-8.857-8.857c4.892 0 8.857 3.965 8.857 8.857h2.286c0-6.154-4.989-11.143-11.143-11.143zm-66 0h66v-2.286h-66z" fill="#f3f4f5" mask="url(#j)"/><rect fill="#506dff" height="24" rx="12" width="24" x="118" y="283"/><rect fill="url(#e)" height="24" opacity=".5" rx="12" width="24" x="118" y="283"/><path clip-rule="evenodd" d="m128 290c-.828 0-1.5.672-1.5 1.5v7c0 .828.672 1.5 1.5 1.5h4c.828 0 1.5-.672 1.5-1.5v-7c0-.828-.672-1.5-1.5-1.5zm1.5 8.125c-.207 0-.375.168-.375.375s.168.375.375.375h1c.207 0 .375-.168.375-.375s-.168-.375-.375-.375z" fill="#fff" fill-rule="evenodd"/><path d="m151.056 290.48v8.52h1.548v-3.3h1.812c1.836 0 2.988-1.02 2.988-2.628 0-1.572-1.164-2.592-2.976-2.592zm1.548 4.044v-2.856h1.536c1.008 0 1.632.552 1.632 1.428 0 .888-.624 1.428-1.632 1.428zm7.484 4.476v-3.18c0-1.152.492-1.812 1.356-1.812.732 0 1.104.468 1.104 1.38v3.612h1.452v-3.732c0-1.584-.684-2.412-1.98-2.412-.912 0-1.572.42-1.932 1.248v-3.804h-1.44v8.7zm8.109.144c1.728 0 2.94-1.14 2.94-3.156 0-2.004-1.212-3.132-2.94-3.132s-2.94 1.128-2.94 3.132c0 2.016 1.212 3.156 2.94 3.156zm0-1.092c-.924 0-1.476-.696-1.476-2.064s.552-2.04 1.476-2.04 1.464.672 1.464 2.04-.54 2.064-1.464 2.064zm5.801.948v-3.18c0-1.14.504-1.812 1.344-1.812.756 0 1.116.468 1.116 1.416v3.576h1.452v-3.72c0-1.608-.684-2.424-1.992-2.424-.924 0-1.584.432-1.992 1.308v-1.164h-1.368v6zm10.773-3.3c0-1.836-.996-2.844-2.736-2.844-1.788 0-2.868 1.224-2.868 3.204 0 1.968 1.104 3.084 2.94 3.084 1.224 0 2.172-.576 2.616-1.62l-1.104-.504c-.276.648-.78.996-1.464.996-.948 0-1.584-.648-1.596-1.656h4.212zm-4.212-.288c.024-.996.54-1.596 1.452-1.596.852 0 1.344.516 1.344 1.5v.096z" fill="#506dff"/></svg>