<svg width="812" height="420" viewBox="0 0 812 420" fill="none" xmlns="http://www.w3.org/2000/svg">
<rect x="0.5" y="0.5" width="811" height="419" rx="15.5" fill="#F9FAFB"/>
<path d="M110 33.5H780" stroke="#EBECEF" stroke-linecap="round" stroke-dasharray="6 10"/>
<path d="M110 66.5H780" stroke="#EBECEF" stroke-linecap="round" stroke-dasharray="6 10"/>
<path d="M110 99.5H780" stroke="#EBECEF" stroke-linecap="round" stroke-dasharray="6 10"/>
<path d="M110 132.5H780" stroke="#EBECEF" stroke-linecap="round" stroke-dasharray="6 10"/>
<path d="M110 165.5H780" stroke="#EBECEF" stroke-linecap="round" stroke-dasharray="6 10"/>
<path d="M110 198.5H780" stroke="#EBECEF" stroke-linecap="round" stroke-dasharray="6 10"/>
<path d="M110 231.5H780" stroke="#EBECEF" stroke-linecap="round" stroke-dasharray="6 10"/>
<path d="M110 264.5H780" stroke="#EBECEF" stroke-linecap="round" stroke-dasharray="6 10"/>
<path d="M110 297.5H780" stroke="#EBECEF" stroke-linecap="round" stroke-dasharray="6 10"/>
<path d="M110 330.5H780" stroke="#EBECEF" stroke-linecap="round" stroke-dasharray="6 10"/>
<path d="M110.354 31.6464C110.158 31.4512 109.842 31.4512 109.646 31.6464L106.464 34.8284C106.269 35.0237 106.269 35.3402 106.464 35.5355C106.66 35.7308 106.976 35.7308 107.172 35.5355L110 32.7071L112.828 35.5355C113.024 35.7308 113.34 35.7308 113.536 35.5355C113.731 35.3402 113.731 35.0237 113.536 34.8284L110.354 31.6464ZM110 364L109.5 364L109.5 364.5L110 364.5L110 364ZM780.354 364.354C780.549 364.158 780.549 363.842 780.354 363.646L777.172 360.464C776.976 360.269 776.66 360.269 776.464 360.464C776.269 360.66 776.269 360.976 776.464 361.172L779.293 364L776.464 366.828C776.269 367.024 776.269 367.34 776.464 367.536C776.66 367.731 776.976 367.731 777.172 367.536L780.354 364.354ZM109.5 32L109.5 364L110.5 364L110.5 32L109.5 32ZM110 364.5L780 364.5L780 363.5L110 363.5L110 364.5Z" fill="#D6D9DD"/>
<path d="M692.25 386.17C694.02 386.17 694.84 385.18 694.84 384.08C694.84 382.79 693.98 382.3 692.88 382.07L691.84 381.85C691.05 381.68 690.68 381.32 690.68 380.63C690.68 379.91 691.28 379.48 692.15 379.48C693.2 379.48 693.73 380 693.85 380.95L694.8 380.75C694.66 379.36 693.58 378.73 692.17 378.73C690.66 378.73 689.7 379.53 689.7 380.72C689.7 381.94 690.47 382.47 691.48 382.68L692.51 382.89C693.34 383.06 693.86 383.33 693.86 384.17C693.86 385.07 693.05 385.39 692.28 385.39C691.03 385.39 690.49 384.62 690.36 383.75L689.4 383.89C689.52 385.19 690.44 386.17 692.25 386.17ZM695.136 378.9V379.7H697.366V386H698.316V379.7H700.546V378.9H695.136ZM706.899 386L705.079 382.92C706.269 382.65 706.679 381.78 706.679 380.98C706.679 379.94 706.189 378.9 704.329 378.9H701.699V386H702.649V383.05H704.089L705.829 386H706.899ZM704.219 379.7C705.309 379.7 705.679 380.25 705.679 380.98C705.679 381.69 705.319 382.25 704.219 382.25H702.649V379.7H704.219ZM710.854 386.17C712.814 386.17 714.094 384.75 714.094 382.45C714.094 380.13 712.814 378.73 710.854 378.73C708.884 378.73 707.604 380.13 707.604 382.45C707.604 384.72 708.884 386.17 710.854 386.17ZM710.854 385.37C709.434 385.37 708.604 384.23 708.604 382.45C708.604 380.63 709.434 379.53 710.854 379.53C712.274 379.53 713.094 380.63 713.094 382.45C713.094 384.26 712.274 385.37 710.854 385.37ZM716.397 386V380.86C716.397 380.43 716.387 380.17 716.367 379.92H716.387C716.497 380.24 716.627 380.48 716.827 380.83L719.837 386H720.987V378.9H720.137V384.04C720.137 384.47 720.147 384.73 720.167 384.98H720.147C720.037 384.68 719.907 384.42 719.707 384.07L716.697 378.9H715.547V386H716.397ZM725.548 386.17C726.608 386.17 727.418 385.63 727.728 384.86L727.858 386H728.548V382.29H725.618V383.09H727.698V383.21C727.698 383.89 727.438 385.36 725.688 385.36C724.148 385.36 723.408 384.08 723.408 382.46C723.408 380.73 724.228 379.53 725.678 379.53C726.948 379.53 727.378 380.41 727.478 381.01L728.418 380.88C728.298 380.09 727.668 378.73 725.708 378.73C723.608 378.73 722.438 380.28 722.438 382.45C722.438 384.59 723.608 386.17 725.548 386.17ZM735.092 386.17C736.862 386.17 737.682 385.18 737.682 384.08C737.682 382.79 736.822 382.3 735.722 382.07L734.682 381.85C733.892 381.68 733.522 381.32 733.522 380.63C733.522 379.91 734.122 379.48 734.992 379.48C736.042 379.48 736.572 380 736.692 380.95L737.642 380.75C737.502 379.36 736.422 378.73 735.012 378.73C733.502 378.73 732.542 379.53 732.542 380.72C732.542 381.94 733.312 382.47 734.322 382.68L735.352 382.89C736.182 383.06 736.702 383.33 736.702 384.17C736.702 385.07 735.892 385.39 735.122 385.39C733.872 385.39 733.332 384.62 733.202 383.75L732.242 383.89C732.362 385.19 733.282 386.17 735.092 386.17ZM740.032 382.76H743.312V381.96H740.032V379.7H743.482V378.9H739.082V386H743.552V385.2H740.032V382.76ZM747.757 386.17C749.467 386.17 750.327 385.11 750.597 383.77L749.677 383.61C749.477 384.67 748.767 385.34 747.757 385.34C746.307 385.34 745.557 384.08 745.557 382.42C745.557 380.7 746.347 379.54 747.737 379.54C748.837 379.54 749.487 380.25 749.627 381.32L750.597 381.22C750.417 379.75 749.517 378.73 747.787 378.73C745.677 378.73 744.557 380.25 744.557 382.43C744.557 384.49 745.557 386.17 747.757 386.17ZM751.902 383.52C751.902 385.1 752.872 386.17 754.632 386.17C756.392 386.17 757.362 385.1 757.362 383.52V378.9H756.412V383.46C756.412 384.6 755.782 385.33 754.632 385.33C753.482 385.33 752.852 384.6 752.852 383.46V378.9H751.902V383.52ZM764.458 386L762.638 382.92C763.828 382.65 764.238 381.78 764.238 380.98C764.238 379.94 763.748 378.9 761.888 378.9H759.258V386H760.208V383.05H761.648L763.388 386H764.458ZM761.778 379.7C762.868 379.7 763.238 380.25 763.238 380.98C763.238 381.69 762.878 382.25 761.778 382.25H760.208V379.7H761.778ZM766.858 378.9H765.908V386H766.858V378.9ZM768.007 378.9V379.7H770.237V386H771.187V379.7H773.417V378.9H768.007ZM777.441 386V383.17L779.851 378.9H778.791L777.161 381.91C777.061 382.1 777.001 382.23 776.971 382.32H776.951C776.921 382.23 776.861 382.1 776.761 381.91L775.131 378.9H774.071L776.481 383.17V386H777.441Z" fill="#657080"/>
<path d="M113.1 386L114.48 380.46C114.51 380.34 114.53 380.25 114.54 380.13H114.58C114.59 380.25 114.61 380.34 114.64 380.46L116.02 386H117.18L118.87 378.9H117.9L116.67 384.62C116.63 384.81 116.62 384.9 116.61 385.01H116.58C116.57 384.91 116.55 384.82 116.5 384.62L115.04 378.9H114.08L112.62 384.62C112.57 384.82 112.55 384.91 112.54 385.01H112.51C112.5 384.9 112.49 384.81 112.45 384.62L111.22 378.9H110.25L111.94 386H113.1ZM121.071 382.76H124.351V381.96H121.071V379.7H124.521V378.9H120.121V386H124.591V385.2H121.071V382.76ZM131.812 386L129.122 378.9H128.182L125.492 386H126.472L127.202 383.95H130.102L130.832 386H131.812ZM128.472 380.38C128.532 380.22 128.582 380.05 128.642 379.84H128.662C128.722 380.05 128.772 380.22 128.832 380.38L129.822 383.15H127.482L128.472 380.38ZM138.443 386L135.613 381.74L138.223 378.9H137.033L133.913 382.42V378.9H132.963V386H133.913V383.57L134.963 382.42L137.333 386H138.443ZM144.49 386.17C146.26 386.17 147.08 385.18 147.08 384.08C147.08 382.79 146.22 382.3 145.12 382.07L144.08 381.85C143.29 381.68 142.92 381.32 142.92 380.63C142.92 379.91 143.52 379.48 144.39 379.48C145.44 379.48 145.97 380 146.09 380.95L147.04 380.75C146.9 379.36 145.82 378.73 144.41 378.73C142.9 378.73 141.94 379.53 141.94 380.72C141.94 381.94 142.71 382.47 143.72 382.68L144.75 382.89C145.58 383.06 146.1 383.33 146.1 384.17C146.1 385.07 145.29 385.39 144.52 385.39C143.27 385.39 142.73 384.62 142.6 383.75L141.64 383.89C141.76 385.19 142.68 386.17 144.49 386.17ZM149.43 382.76H152.71V381.96H149.43V379.7H152.88V378.9H148.48V386H152.95V385.2H149.43V382.76ZM157.156 386.17C158.866 386.17 159.726 385.11 159.996 383.77L159.076 383.61C158.876 384.67 158.166 385.34 157.156 385.34C155.706 385.34 154.956 384.08 154.956 382.42C154.956 380.7 155.746 379.54 157.136 379.54C158.236 379.54 158.886 380.25 159.026 381.32L159.996 381.22C159.816 379.75 158.916 378.73 157.186 378.73C155.076 378.73 153.956 380.25 153.956 382.43C153.956 384.49 154.956 386.17 157.156 386.17ZM161.3 383.52C161.3 385.1 162.27 386.17 164.03 386.17C165.79 386.17 166.76 385.1 166.76 383.52V378.9H165.81V383.46C165.81 384.6 165.18 385.33 164.03 385.33C162.88 385.33 162.25 384.6 162.25 383.46V378.9H161.3V383.52ZM173.856 386L172.036 382.92C173.226 382.65 173.636 381.78 173.636 380.98C173.636 379.94 173.146 378.9 171.286 378.9H168.656V386H169.606V383.05H171.046L172.786 386H173.856ZM171.176 379.7C172.266 379.7 172.636 380.25 172.636 380.98C172.636 381.69 172.276 382.25 171.176 382.25H169.606V379.7H171.176ZM176.257 378.9H175.307V386H176.257V378.9ZM177.406 378.9V379.7H179.636V386H180.586V379.7H182.816V378.9H177.406ZM186.839 386V383.17L189.249 378.9H188.189L186.559 381.91C186.459 382.1 186.399 382.23 186.369 382.32H186.349C186.319 382.23 186.259 382.1 186.159 381.91L184.529 378.9H183.469L185.879 383.17V386H186.839Z" fill="#657080"/>
<path d="M37.53 34.9V37.97H33.95V34.9H33V42H33.95V38.77H37.53V42H38.48V34.9H37.53ZM41.4305 34.9H40.4805V42H41.4305V34.9ZM45.9897 42.17C47.0497 42.17 47.8597 41.63 48.1697 40.86L48.2997 42H48.9897V38.29H46.0597V39.09H48.1397V39.21C48.1397 39.89 47.8797 41.36 46.1297 41.36C44.5897 41.36 43.8497 40.08 43.8497 38.46C43.8497 36.73 44.6697 35.53 46.1197 35.53C47.3897 35.53 47.8197 36.41 47.9197 37.01L48.8597 36.88C48.7397 36.09 48.1097 34.73 46.1497 34.73C44.0497 34.73 42.8797 36.28 42.8797 38.45C42.8797 40.59 44.0497 42.17 45.9897 42.17ZM55.2155 34.9V37.97H51.6355V34.9H50.6855V42H51.6355V38.77H55.2155V42H56.1655V34.9H55.2155ZM63.0137 42.17C64.7837 42.17 65.6037 41.18 65.6037 40.08C65.6037 38.79 64.7437 38.3 63.6437 38.07L62.6037 37.85C61.8137 37.68 61.4437 37.32 61.4437 36.63C61.4437 35.91 62.0437 35.48 62.9137 35.48C63.9637 35.48 64.4937 36 64.6137 36.95L65.5637 36.75C65.4237 35.36 64.3437 34.73 62.9337 34.73C61.4237 34.73 60.4637 35.53 60.4637 36.72C60.4637 37.94 61.2337 38.47 62.2437 38.68L63.2737 38.89C64.1037 39.06 64.6237 39.33 64.6237 40.17C64.6237 41.07 63.8137 41.39 63.0437 41.39C61.7937 41.39 61.2537 40.62 61.1237 39.75L60.1637 39.89C60.2837 41.19 61.2037 42.17 63.0137 42.17ZM69.2102 42V39.17L71.6202 34.9H70.5602L68.9302 37.91C68.8302 38.1 68.7702 38.23 68.7402 38.32H68.7202C68.6902 38.23 68.6302 38.1 68.5302 37.91L66.9002 34.9H65.8402L68.2502 39.17V42H69.2102ZM76.3568 38.33C77.1668 38.1 77.5468 37.46 77.5468 36.79C77.5468 35.95 77.0568 34.9 75.1868 34.9H72.7168V42H75.3968C77.1968 42 77.7468 40.96 77.7468 40.05C77.7468 39.1 77.2068 38.48 76.3568 38.33ZM75.1868 35.7C76.3368 35.7 76.6068 36.3 76.6068 36.86C76.6068 37.35 76.4068 37.98 75.1868 37.98H73.6668V35.7H75.1868ZM73.6668 41.2V38.78H75.4468C76.4168 38.78 76.8068 39.3 76.8068 39.96C76.8068 40.6 76.4568 41.2 75.3468 41.2H73.6668ZM80.2488 34.9H79.2988V42H80.2488V34.9ZM86.478 42V41.2H83.198V34.9H82.248V42H86.478ZM38.47 54L35.78 46.9H34.84L32.15 54H33.13L33.86 51.95H36.76L37.49 54H38.47ZM35.13 48.38C35.19 48.22 35.24 48.05 35.3 47.84H35.32C35.38 48.05 35.43 48.22 35.49 48.38L36.48 51.15H34.14L35.13 48.38ZM38.0191 46.9V47.7H40.2491V54H41.1991V47.7H43.4291V46.9H38.0191ZM44.1813 46.9V47.7H46.4113V54H47.3613V47.7H49.5913V46.9H44.1813ZM55.4622 54L52.7722 46.9H51.8322L49.1422 54H50.1222L50.8522 51.95H53.7522L54.4822 54H55.4622ZM52.1222 48.38C52.1822 48.22 52.2322 48.05 52.2922 47.84H52.3122C52.3722 48.05 52.4222 48.22 52.4822 48.38L53.4722 51.15H51.1322L52.1222 48.38ZM59.068 54.17C60.778 54.17 61.638 53.11 61.908 51.77L60.988 51.61C60.788 52.67 60.078 53.34 59.068 53.34C57.618 53.34 56.868 52.08 56.868 50.42C56.868 48.7 57.658 47.54 59.048 47.54C60.148 47.54 60.798 48.25 60.938 49.32L61.908 49.22C61.728 47.75 60.828 46.73 59.098 46.73C56.988 46.73 55.868 48.25 55.868 50.43C55.868 52.49 56.868 54.17 59.068 54.17ZM68.7925 54L65.9625 49.74L68.5725 46.9H67.3825L64.2625 50.42V46.9H63.3125V54H64.2625V51.57L65.3125 50.42L67.6825 54H68.7925ZM75.2398 54.17C76.9498 54.17 77.8098 53.11 78.0798 51.77L77.1598 51.61C76.9598 52.67 76.2498 53.34 75.2398 53.34C73.7898 53.34 73.0398 52.08 73.0398 50.42C73.0398 48.7 73.8298 47.54 75.2198 47.54C76.3198 47.54 76.9698 48.25 77.1098 49.32L78.0798 49.22C77.8998 47.75 76.9998 46.73 75.2698 46.73C73.1598 46.73 72.0398 48.25 72.0398 50.43C72.0398 52.49 73.0398 54.17 75.2398 54.17ZM82.1355 54.17C84.0955 54.17 85.3755 52.75 85.3755 50.45C85.3755 48.13 84.0955 46.73 82.1355 46.73C80.1655 46.73 78.8855 48.13 78.8855 50.45C78.8855 52.72 80.1655 54.17 82.1355 54.17ZM82.1355 53.37C80.7155 53.37 79.8855 52.23 79.8855 50.45C79.8855 48.63 80.7155 47.53 82.1355 47.53C83.5555 47.53 84.3755 48.63 84.3755 50.45C84.3755 52.26 83.5555 53.37 82.1355 53.37ZM89.0293 54.17C90.7993 54.17 91.6193 53.18 91.6193 52.08C91.6193 50.79 90.7593 50.3 89.6593 50.07L88.6193 49.85C87.8293 49.68 87.4593 49.32 87.4593 48.63C87.4593 47.91 88.0593 47.48 88.9293 47.48C89.9793 47.48 90.5093 48 90.6293 48.95L91.5793 48.75C91.4393 47.36 90.3593 46.73 88.9493 46.73C87.4393 46.73 86.4793 47.53 86.4793 48.72C86.4793 49.94 87.2493 50.47 88.2593 50.68L89.2893 50.89C90.1193 51.06 90.6393 51.33 90.6393 52.17C90.6393 53.07 89.8293 53.39 89.0593 53.39C87.8093 53.39 87.2693 52.62 87.1393 51.75L86.1793 51.89C86.2993 53.19 87.2193 54.17 89.0293 54.17ZM91.9156 46.9V47.7H94.1456V54H95.0956V47.7H97.3256V46.9H91.9156Z" fill="#657080"/>
<path d="M37.23 350V349.2H33.95V342.9H33V350H37.23ZM40.827 350.17C42.787 350.17 44.067 348.75 44.067 346.45C44.067 344.13 42.787 342.73 40.827 342.73C38.857 342.73 37.577 344.13 37.577 346.45C37.577 348.72 38.857 350.17 40.827 350.17ZM40.827 349.37C39.407 349.37 38.577 348.23 38.577 346.45C38.577 344.63 39.407 343.53 40.827 343.53C42.247 343.53 43.067 344.63 43.067 346.45C43.067 348.26 42.247 349.37 40.827 349.37ZM47.3656 350L48.7456 344.46C48.7756 344.34 48.7956 344.25 48.8056 344.13H48.8456C48.8556 344.25 48.8756 344.34 48.9056 344.46L50.2856 350H51.4456L53.1356 342.9H52.1656L50.9356 348.62C50.8956 348.81 50.8856 348.9 50.8756 349.01H50.8456C50.8356 348.91 50.8156 348.82 50.7656 348.62L49.3056 342.9H48.3456L46.8856 348.62C46.8356 348.82 46.8156 348.91 46.8056 349.01H46.7756C46.7656 348.9 46.7556 348.81 46.7156 348.62L45.4856 342.9H44.5156L46.2056 350H47.3656ZM59.2344 350.17C61.0044 350.17 61.8244 349.18 61.8244 348.08C61.8244 346.79 60.9644 346.3 59.8644 346.07L58.8244 345.85C58.0344 345.68 57.6644 345.32 57.6644 344.63C57.6644 343.91 58.2644 343.48 59.1344 343.48C60.1844 343.48 60.7144 344 60.8344 344.95L61.7844 344.75C61.6444 343.36 60.5644 342.73 59.1544 342.73C57.6444 342.73 56.6844 343.53 56.6844 344.72C56.6844 345.94 57.4544 346.47 58.4644 346.68L59.4944 346.89C60.3244 347.06 60.8444 347.33 60.8444 348.17C60.8444 349.07 60.0344 349.39 59.2644 349.39C58.0144 349.39 57.4744 348.62 57.3444 347.75L56.3844 347.89C56.5044 349.19 57.4244 350.17 59.2344 350.17ZM65.4309 350V347.17L67.8409 342.9H66.7809L65.1509 345.91C65.0509 346.1 64.9909 346.23 64.9609 346.32H64.9409C64.9109 346.23 64.8509 346.1 64.7509 345.91L63.1209 342.9H62.0609L64.4709 347.17V350H65.4309ZM72.5775 346.33C73.3875 346.1 73.7675 345.46 73.7675 344.79C73.7675 343.95 73.2775 342.9 71.4075 342.9H68.9375V350H71.6175C73.4175 350 73.9675 348.96 73.9675 348.05C73.9675 347.1 73.4275 346.48 72.5775 346.33ZM71.4075 343.7C72.5575 343.7 72.8275 344.3 72.8275 344.86C72.8275 345.35 72.6275 345.98 71.4075 345.98H69.8875V343.7H71.4075ZM69.8875 349.2V346.78H71.6675C72.6375 346.78 73.0275 347.3 73.0275 347.96C73.0275 348.6 72.6775 349.2 71.5675 349.2H69.8875ZM76.4695 342.9H75.5195V350H76.4695V342.9ZM82.6988 350V349.2H79.4188V342.9H78.4688V350H82.6988ZM38.47 362L35.78 354.9H34.84L32.15 362H33.13L33.86 359.95H36.76L37.49 362H38.47ZM35.13 356.38C35.19 356.22 35.24 356.05 35.3 355.84H35.32C35.38 356.05 35.43 356.22 35.49 356.38L36.48 359.15H34.14L35.13 356.38ZM38.0191 354.9V355.7H40.2491V362H41.1991V355.7H43.4291V354.9H38.0191ZM44.1813 354.9V355.7H46.4113V362H47.3613V355.7H49.5913V354.9H44.1813ZM55.4622 362L52.7722 354.9H51.8322L49.1422 362H50.1222L50.8522 359.95H53.7522L54.4822 362H55.4622ZM52.1222 356.38C52.1822 356.22 52.2322 356.05 52.2922 355.84H52.3122C52.3722 356.05 52.4222 356.22 52.4822 356.38L53.4722 359.15H51.1322L52.1222 356.38ZM59.068 362.17C60.778 362.17 61.638 361.11 61.908 359.77L60.988 359.61C60.788 360.67 60.078 361.34 59.068 361.34C57.618 361.34 56.868 360.08 56.868 358.42C56.868 356.7 57.658 355.54 59.048 355.54C60.148 355.54 60.798 356.25 60.938 357.32L61.908 357.22C61.728 355.75 60.828 354.73 59.098 354.73C56.988 354.73 55.868 356.25 55.868 358.43C55.868 360.49 56.868 362.17 59.068 362.17ZM68.7925 362L65.9625 357.74L68.5725 354.9H67.3825L64.2625 358.42V354.9H63.3125V362H64.2625V359.57L65.3125 358.42L67.6825 362H68.7925ZM75.2398 362.17C76.9498 362.17 77.8098 361.11 78.0798 359.77L77.1598 359.61C76.9598 360.67 76.2498 361.34 75.2398 361.34C73.7898 361.34 73.0398 360.08 73.0398 358.42C73.0398 356.7 73.8298 355.54 75.2198 355.54C76.3198 355.54 76.9698 356.25 77.1098 357.32L78.0798 357.22C77.8998 355.75 76.9998 354.73 75.2698 354.73C73.1598 354.73 72.0398 356.25 72.0398 358.43C72.0398 360.49 73.0398 362.17 75.2398 362.17ZM82.1355 362.17C84.0955 362.17 85.3755 360.75 85.3755 358.45C85.3755 356.13 84.0955 354.73 82.1355 354.73C80.1655 354.73 78.8855 356.13 78.8855 358.45C78.8855 360.72 80.1655 362.17 82.1355 362.17ZM82.1355 361.37C80.7155 361.37 79.8855 360.23 79.8855 358.45C79.8855 356.63 80.7155 355.53 82.1355 355.53C83.5555 355.53 84.3755 356.63 84.3755 358.45C84.3755 360.26 83.5555 361.37 82.1355 361.37ZM89.0293 362.17C90.7993 362.17 91.6193 361.18 91.6193 360.08C91.6193 358.79 90.7593 358.3 89.6593 358.07L88.6193 357.85C87.8293 357.68 87.4593 357.32 87.4593 356.63C87.4593 355.91 88.0593 355.48 88.9293 355.48C89.9793 355.48 90.5093 356 90.6293 356.95L91.5793 356.75C91.4393 355.36 90.3593 354.73 88.9493 354.73C87.4393 354.73 86.4793 355.53 86.4793 356.72C86.4793 357.94 87.2493 358.47 88.2593 358.68L89.2893 358.89C90.1193 359.06 90.6393 359.33 90.6393 360.17C90.6393 361.07 89.8293 361.39 89.0593 361.39C87.8093 361.39 87.2693 360.62 87.1393 359.75L86.1793 359.89C86.2993 361.19 87.2193 362.17 89.0293 362.17ZM91.9156 354.9V355.7H94.1456V362H95.0956V355.7H97.3256V354.9H91.9156Z" fill="#657080"/>
<path d="M125.502 351.5C656.501 275.5 455.637 66.4998 775 66.4999" stroke="#191C20"/>
<circle cx="125" cy="352" r="2" fill="#191C20"/>
<circle cx="185" cy="342" r="2" fill="#191C20"/>
<circle cx="296" cy="316" r="2" fill="#191C20"/>
<circle cx="434" cy="260" r="2" fill="#191C20"/>
<circle cx="745" cy="67" r="2" fill="#191C20"/>
<circle cx="775" cy="66" r="2" fill="#191C20"/>
<mask id="path-24-inside-1_20449_66017" fill="white">
<path fill-rule="evenodd" clip-rule="evenodd" d="M262 259C256.477 259 252 263.477 252 269V288.764C252 294.287 256.477 298.764 262 298.764H290.026L293.899 304.649C295.084 306.45 297.726 306.45 298.911 304.649L302.783 298.764H330C335.523 298.764 340 294.287 340 288.764V269C340 263.477 335.523 259 330 259H262Z"/>
</mask>
<path fill-rule="evenodd" clip-rule="evenodd" d="M262 259C256.477 259 252 263.477 252 269V288.764C252 294.287 256.477 298.764 262 298.764H290.026L293.899 304.649C295.084 306.45 297.726 306.45 298.911 304.649L302.783 298.764H330C335.523 298.764 340 294.287 340 288.764V269C340 263.477 335.523 259 330 259H262Z" fill="white"/>
<path d="M290.026 298.764L290.981 298.136L290.642 297.621H290.026V298.764ZM293.899 304.649L294.853 304.02L293.899 304.649ZM298.911 304.649L299.866 305.277V305.277L298.911 304.649ZM302.783 298.764V297.621H302.167L301.829 298.136L302.783 298.764ZM253.143 269C253.143 264.108 257.108 260.143 262 260.143V257.857C255.846 257.857 250.857 262.846 250.857 269H253.143ZM253.143 288.764V269H250.857V288.764H253.143ZM262 297.621C257.108 297.621 253.143 293.656 253.143 288.764H250.857C250.857 294.918 255.846 299.907 262 299.907V297.621ZM290.026 297.621H262V299.907H290.026V297.621ZM289.072 299.392L292.944 305.277L294.853 304.02L290.981 298.136L289.072 299.392ZM292.944 305.277C294.581 307.764 298.229 307.764 299.866 305.277L297.956 304.02C297.222 305.135 295.587 305.135 294.853 304.02L292.944 305.277ZM299.866 305.277L303.738 299.392L301.829 298.136L297.956 304.02L299.866 305.277ZM330 297.621H302.783V299.907H330V297.621ZM338.857 288.764C338.857 293.656 334.892 297.621 330 297.621V299.907C336.154 299.907 341.143 294.918 341.143 288.764H338.857ZM338.857 269V288.764H341.143V269H338.857ZM330 260.143C334.892 260.143 338.857 264.108 338.857 269H341.143C341.143 262.846 336.154 257.857 330 257.857V260.143ZM262 260.143H330V257.857H262V260.143Z" fill="#F3F4F5" mask="url(#path-24-inside-1_20449_66017)"/>
<rect x="260" y="267" width="24" height="24" rx="12" fill="#9D50FF"/>
<rect opacity="0.5" x="260" y="267" width="24" height="24" rx="12" fill="url(#paint0_radial_20449_66017)"/>
<path d="M296.488 283.204C298.936 283.204 300.52 281.488 300.52 278.74C300.52 275.968 298.936 274.276 296.488 274.276C294.04 274.276 292.456 275.968 292.456 278.74C292.456 281.464 294.04 283.204 296.488 283.204ZM296.488 281.956C294.964 281.956 294.064 280.708 294.064 278.74C294.064 276.736 294.964 275.524 296.488 275.524C298.024 275.524 298.912 276.736 298.912 278.74C298.912 280.744 298.024 281.956 296.488 281.956ZM302.224 278.044V281.14C302.224 282.352 302.704 283.108 304.144 283.108C304.516 283.108 304.78 283.072 305.128 283V281.788C304.936 281.824 304.78 281.86 304.54 281.86C303.94 281.86 303.664 281.548 303.664 280.912V278.044H305.128V277H303.664V274.912L302.224 275.488V277H301.144V278.044H302.224ZM307.888 283V279.82C307.888 278.668 308.38 278.008 309.244 278.008C309.976 278.008 310.348 278.476 310.348 279.388V283H311.8V279.268C311.8 277.684 311.116 276.856 309.82 276.856C308.908 276.856 308.248 277.276 307.888 278.104V274.3H306.448V283H307.888ZM318.662 279.7C318.662 277.864 317.666 276.856 315.926 276.856C314.138 276.856 313.058 278.08 313.058 280.06C313.058 282.028 314.162 283.144 315.998 283.144C317.222 283.144 318.17 282.568 318.614 281.524L317.51 281.02C317.234 281.668 316.73 282.016 316.046 282.016C315.098 282.016 314.462 281.368 314.45 280.36H318.662V279.7ZM314.45 279.412C314.474 278.416 314.99 277.816 315.902 277.816C316.754 277.816 317.246 278.332 317.246 279.316V279.412H314.45ZM321.48 277H320.136V283H321.576V280.492C321.576 279.82 321.636 279.136 322.116 278.668C322.392 278.404 322.788 278.248 323.364 278.248H323.556V276.868C323.496 276.856 323.448 276.856 323.388 276.856C322.416 276.856 321.78 277.504 321.48 278.452V277ZM326.89 283.144C328.462 283.144 329.35 282.376 329.35 281.248C329.35 280.3 328.858 279.724 327.694 279.52L326.518 279.304C325.99 279.208 325.726 279.028 325.726 278.62C325.726 278.152 326.098 277.9 326.77 277.9C327.562 277.9 328.09 278.236 328.378 278.776L329.386 278.236C329.098 277.372 328.126 276.856 326.854 276.856C325.33 276.856 324.406 277.624 324.406 278.704C324.406 279.664 324.994 280.252 326.122 280.456L327.19 280.648C327.778 280.744 328.042 280.912 328.042 281.344C328.042 281.776 327.658 282.088 326.926 282.088C326.074 282.088 325.474 281.704 325.198 281.032L324.13 281.512C324.502 282.568 325.522 283.144 326.89 283.144Z" fill="#9D50FF"/>
<mask id="path-29-inside-2_20449_66017" fill="white">
<path fill-rule="evenodd" clip-rule="evenodd" d="M374 184C368.477 184 364 188.477 364 194V232.736C364 238.259 368.477 242.736 374 242.736H429.121L432.851 248.609C434.029 250.465 436.737 250.465 437.916 248.609L441.645 242.736H497C502.523 242.736 507 238.259 507 232.736V194C507 188.477 502.523 184 497 184H374Z"/>
</mask>
<path fill-rule="evenodd" clip-rule="evenodd" d="M374 184C368.477 184 364 188.477 364 194V232.736C364 238.259 368.477 242.736 374 242.736H429.121L432.851 248.609C434.029 250.465 436.737 250.465 437.916 248.609L441.645 242.736H497C502.523 242.736 507 238.259 507 232.736V194C507 188.477 502.523 184 497 184H374Z" fill="white"/>
<path d="M429.121 242.736L430.086 242.124L429.749 241.593H429.121V242.736ZM432.851 248.609L433.815 247.997L432.851 248.609ZM437.916 248.609L436.951 247.997V247.997L437.916 248.609ZM441.645 242.736V241.593H441.017L440.68 242.124L441.645 242.736ZM365.143 194C365.143 189.108 369.108 185.143 374 185.143V182.857C367.846 182.857 362.857 187.846 362.857 194H365.143ZM365.143 232.736V194H362.857V232.736H365.143ZM374 241.593C369.108 241.593 365.143 237.628 365.143 232.736H362.857C362.857 238.89 367.846 243.879 374 243.879V241.593ZM429.121 241.593H374V243.879H429.121V241.593ZM428.156 243.349L431.886 249.222L433.815 247.997L430.086 242.124L428.156 243.349ZM431.886 249.222C433.513 251.785 437.253 251.785 438.88 249.222L436.951 247.997C436.221 249.146 434.545 249.146 433.815 247.997L431.886 249.222ZM438.88 249.222L442.61 243.349L440.68 242.124L436.951 247.997L438.88 249.222ZM497 241.593H441.645V243.879H497V241.593ZM505.857 232.736C505.857 237.628 501.892 241.593 497 241.593V243.879C503.154 243.879 508.143 238.89 508.143 232.736H505.857ZM505.857 194V232.736H508.143V194H505.857ZM497 185.143C501.892 185.143 505.857 189.108 505.857 194H508.143C508.143 187.846 503.154 182.857 497 182.857V185.143ZM374 185.143H497V182.857H374V185.143Z" fill="#F3F4F5" mask="url(#path-29-inside-2_20449_66017)"/>
<rect x="372" y="200" width="24" height="24" rx="12" fill="#9BA3AE"/>
<rect opacity="0.5" x="372" y="200" width="24" height="24" rx="12" fill="url(#paint1_radial_20449_66017)"/>
<g clip-path="url(#clip0_20449_66017)">
<path d="M379 210V209C379 207.895 379.895 207 381 207H382M385.999 207H386.999C388.103 207 388.998 207.895 388.998 209V210M388.998 213.971V214.999C388.998 216.103 388.103 216.998 386.999 216.998H385.999M382 216.998H381C379.895 216.998 379 216.103 379 214.999V213.971" stroke="#EBECEF" stroke-width="0.749878" stroke-linecap="round" stroke-linejoin="round"/>
<path d="M381.369 211.91L386.632 211.91" stroke="#EBECEF" stroke-width="0.749878" stroke-linecap="round" stroke-linejoin="round"/>
<path fill-rule="evenodd" clip-rule="evenodd" d="M382.993 211.21L385.001 211.21C385.206 210.976 385.33 210.669 385.33 210.333C385.33 209.597 384.733 209 383.997 209C383.261 209 382.664 209.597 382.664 210.333C382.664 210.669 382.788 210.976 382.993 211.21ZM382.577 212.61C382.023 212.854 381.666 213.237 381.666 213.667C381.666 214.403 382.711 215 383.999 215C385.287 215 386.332 214.403 386.332 213.667C386.332 213.237 385.975 212.854 385.421 212.61H382.577Z" fill="#EBECEF"/>
</g>
<path d="M410.588 199.48H405.056V208H406.604V204.292H410.384V203.068H406.604V200.704H410.588V199.48ZM413.41 208.144C414.37 208.144 415.126 207.7 415.414 206.968C415.426 207.34 415.462 207.7 415.51 208H416.95C416.83 207.58 416.77 206.956 416.77 206.14V204.352C416.77 202.612 415.978 201.856 414.202 201.856C412.654 201.856 411.646 202.648 411.55 203.932H413.026C413.074 203.248 413.494 202.876 414.202 202.876C414.97 202.876 415.318 203.26 415.318 204.16V204.316L414.046 204.472C413.098 204.604 412.522 204.76 412.09 205.012C411.61 205.312 411.358 205.792 411.358 206.368C411.358 207.436 412.174 208.144 413.41 208.144ZM413.866 207.124C413.23 207.124 412.846 206.8 412.846 206.296C412.846 205.78 413.206 205.492 413.998 205.36L415.354 205.156V205.54C415.354 206.488 414.754 207.124 413.866 207.124ZM420.931 208.144C422.359 208.144 423.367 207.328 423.583 205.996L422.227 205.72C422.095 206.56 421.651 207.004 420.931 207.004C420.007 207.004 419.467 206.26 419.467 204.964C419.467 203.728 420.019 202.984 420.907 202.984C421.615 202.984 422.083 203.428 422.179 204.244L423.583 204.016C423.403 202.648 422.431 201.856 420.943 201.856C419.119 201.856 417.991 203.044 417.991 205C417.991 206.908 419.143 208.144 420.931 208.144ZM430.076 204.7C430.076 202.864 429.08 201.856 427.34 201.856C425.552 201.856 424.472 203.08 424.472 205.06C424.472 207.028 425.576 208.144 427.412 208.144C428.636 208.144 429.584 207.568 430.028 206.524L428.924 206.02C428.648 206.668 428.144 207.016 427.46 207.016C426.512 207.016 425.876 206.368 425.864 205.36H430.076V204.7ZM425.864 204.412C425.888 203.416 426.404 202.816 427.316 202.816C428.168 202.816 428.66 203.332 428.66 204.316V204.412H425.864ZM437.441 208L439.577 202H438.065L436.889 205.804C436.793 206.116 436.721 206.416 436.673 206.692H436.637C436.589 206.416 436.517 206.116 436.421 205.804L435.257 202H433.745L435.881 208H437.441ZM445.615 204.7C445.615 202.864 444.619 201.856 442.879 201.856C441.091 201.856 440.011 203.08 440.011 205.06C440.011 207.028 441.115 208.144 442.951 208.144C444.175 208.144 445.123 207.568 445.567 206.524L444.463 206.02C444.187 206.668 443.683 207.016 442.999 207.016C442.051 207.016 441.415 206.368 441.403 205.36H445.615V204.7ZM441.403 204.412C441.427 203.416 441.943 202.816 442.855 202.816C443.707 202.816 444.199 203.332 444.199 204.316V204.412H441.403ZM448.433 202H447.089V208H448.529V205.492C448.529 204.82 448.589 204.136 449.069 203.668C449.345 203.404 449.741 203.248 450.317 203.248H450.509V201.868C450.449 201.856 450.401 201.856 450.341 201.856C449.369 201.856 448.733 202.504 448.433 203.452V202ZM453.194 201.004V199.504H451.634V201.004H453.194ZM453.134 208V202H451.694V208H453.134ZM456.786 202V201.328C456.786 200.692 457.05 200.38 457.626 200.38C457.806 200.38 458.022 200.404 458.238 200.44V199.324C457.974 199.264 457.686 199.228 457.386 199.228C456.102 199.228 455.346 199.984 455.346 201.232V202H454.314V203.044H455.346V208H456.786V203.044H458.238V202H456.786ZM460.962 201.004V199.504H459.402V201.004H460.962ZM460.902 208V202H459.462V208H460.902ZM465.251 208.144C466.679 208.144 467.687 207.328 467.903 205.996L466.547 205.72C466.415 206.56 465.971 207.004 465.251 207.004C464.327 207.004 463.787 206.26 463.787 204.964C463.787 203.728 464.339 202.984 465.227 202.984C465.935 202.984 466.403 203.428 466.499 204.244L467.903 204.016C467.723 202.648 466.751 201.856 465.263 201.856C463.439 201.856 462.311 203.044 462.311 205C462.311 206.908 463.463 208.144 465.251 208.144ZM470.843 208.144C471.803 208.144 472.559 207.7 472.847 206.968C472.859 207.34 472.895 207.7 472.943 208H474.383C474.263 207.58 474.203 206.956 474.203 206.14V204.352C474.203 202.612 473.411 201.856 471.635 201.856C470.087 201.856 469.079 202.648 468.983 203.932H470.459C470.507 203.248 470.927 202.876 471.635 202.876C472.403 202.876 472.751 203.26 472.751 204.16V204.316L471.479 204.472C470.531 204.604 469.955 204.76 469.523 205.012C469.043 205.312 468.791 205.792 468.791 206.368C468.791 207.436 469.607 208.144 470.843 208.144ZM471.299 207.124C470.663 207.124 470.279 206.8 470.279 206.296C470.279 205.78 470.639 205.492 471.431 205.36L472.787 205.156V205.54C472.787 206.488 472.187 207.124 471.299 207.124ZM476.169 203.044V206.14C476.169 207.352 476.649 208.108 478.089 208.108C478.461 208.108 478.725 208.072 479.073 208V206.788C478.881 206.824 478.725 206.86 478.485 206.86C477.885 206.86 477.609 206.548 477.609 205.912V203.044H479.073V202H477.609V199.912L476.169 200.488V202H475.089V203.044H476.169ZM481.894 201.004V199.504H480.334V201.004H481.894ZM481.834 208V202H480.394V208H481.834ZM486.181 208.144C487.909 208.144 489.121 207.004 489.121 204.988C489.121 202.984 487.909 201.856 486.181 201.856C484.453 201.856 483.241 202.984 483.241 204.988C483.241 207.004 484.453 208.144 486.181 208.144ZM486.181 207.052C485.257 207.052 484.705 206.356 484.705 204.988C484.705 203.62 485.257 202.948 486.181 202.948C487.105 202.948 487.645 203.62 487.645 204.988C487.645 206.356 487.105 207.052 486.181 207.052ZM491.982 208V204.82C491.982 203.68 492.486 203.008 493.326 203.008C494.082 203.008 494.442 203.476 494.442 204.424V208H495.894V204.28C495.894 202.672 495.21 201.856 493.902 201.856C492.978 201.856 492.318 202.288 491.91 203.164V202H490.542V208H491.982Z" fill="#9BA3AE"/>
<rect x="404" y="216" width="74" height="17" rx="4" fill="#9BA3AE"/>
<path d="M415.951 228.17C417.661 228.17 418.521 227.11 418.791 225.77L417.871 225.61C417.671 226.67 416.961 227.34 415.951 227.34C414.501 227.34 413.751 226.08 413.751 224.42C413.751 222.7 414.541 221.54 415.931 221.54C417.031 221.54 417.681 222.25 417.821 223.32L418.791 223.22C418.611 221.75 417.711 220.73 415.981 220.73C413.871 220.73 412.751 222.25 412.751 224.43C412.751 226.49 413.751 228.17 415.951 228.17ZM422.073 228.12C423.483 228.12 424.403 227.13 424.403 225.5C424.403 223.87 423.483 222.88 422.073 222.88C420.663 222.88 419.743 223.87 419.743 225.5C419.743 227.13 420.663 228.12 422.073 228.12ZM422.073 227.38C421.173 227.38 420.643 226.74 420.643 225.5C420.643 224.26 421.173 223.62 422.073 223.62C422.973 223.62 423.503 224.26 423.503 225.5C423.503 226.74 422.973 227.38 422.073 227.38ZM425.75 228H426.6V225.08C426.6 224.17 427.03 223.61 427.73 223.61C428.33 223.61 428.67 224.02 428.67 224.75V228H429.52V225.04C429.52 224.13 429.93 223.61 430.64 223.61C431.27 223.61 431.59 224.01 431.59 224.79V228H432.44V224.72C432.44 223.56 431.88 222.88 430.92 222.88C430.24 222.88 429.73 223.21 429.4 223.88C429.17 223.23 428.67 222.88 427.98 222.88C427.31 222.88 426.83 223.21 426.55 223.87V223H425.75V228ZM434.999 222.07V221H434.029V222.07H434.999ZM434.939 228V223H434.089V228H434.939ZM437.586 228V225.39C437.586 224.28 438.096 223.61 438.926 223.61C439.656 223.61 440.026 224.06 440.026 224.94V228H440.876V224.89C440.876 223.56 440.306 222.88 439.206 222.88C438.416 222.88 437.866 223.24 437.536 223.99V223H436.736V228H437.586ZM446.417 222.92C446.557 222.92 446.677 222.94 446.777 222.96V222.22C446.667 222.19 446.557 222.18 446.447 222.18C445.777 222.18 445.407 222.58 445.257 223.09C444.977 222.96 444.657 222.88 444.277 222.88C443.117 222.88 442.427 223.6 442.427 224.57C442.427 225.06 442.597 225.48 442.917 225.79C442.497 225.95 442.207 226.29 442.207 226.79C442.207 227.15 442.367 227.47 442.787 227.66C442.257 227.83 441.977 228.23 441.977 228.7C441.977 229.41 442.467 230.07 444.227 230.07C445.967 230.07 446.707 229.42 446.707 228.48C446.707 227.58 446.137 227.07 445.007 227.07H443.787C443.167 227.07 442.957 226.84 442.957 226.56C442.957 226.33 443.107 226.16 443.317 226.07C443.587 226.2 443.907 226.28 444.277 226.28C445.437 226.28 446.127 225.54 446.127 224.57C446.127 224.1 445.967 223.69 445.667 223.39C445.787 223.07 446.037 222.92 446.417 222.92ZM444.277 225.63C443.637 225.63 443.227 225.18 443.227 224.57C443.227 223.96 443.637 223.53 444.277 223.53C444.917 223.53 445.327 223.97 445.327 224.58C445.327 225.19 444.917 225.63 444.277 225.63ZM444.817 227.82C445.507 227.82 445.857 228.07 445.857 228.54C445.857 228.99 445.547 229.37 444.327 229.37C443.427 229.37 442.807 229.17 442.807 228.55C442.807 228.25 442.977 227.96 443.337 227.8C443.467 227.81 443.607 227.82 443.757 227.82H444.817ZM452.176 228.12C453.396 228.12 454.086 227.49 454.086 226.59C454.086 225.86 453.686 225.4 452.786 225.23L451.816 225.05C451.326 224.96 451.046 224.76 451.046 224.34C451.046 223.85 451.436 223.57 452.076 223.57C452.756 223.57 453.146 223.92 453.256 224.42L454.096 224.23C453.996 223.39 453.236 222.88 452.116 222.88C450.936 222.88 450.216 223.52 450.216 224.38C450.216 225.14 450.696 225.62 451.546 225.78L452.526 225.96C452.976 226.04 453.246 226.22 453.246 226.66C453.246 227.09 452.876 227.42 452.206 227.42C451.476 227.42 451.006 227.06 450.886 226.43L450.026 226.58C450.196 227.57 450.996 228.12 452.176 228.12ZM457.376 228.12C458.786 228.12 459.706 227.13 459.706 225.5C459.706 223.87 458.786 222.88 457.376 222.88C455.966 222.88 455.046 223.87 455.046 225.5C455.046 227.13 455.966 228.12 457.376 228.12ZM457.376 227.38C456.476 227.38 455.946 226.74 455.946 225.5C455.946 224.26 456.476 223.62 457.376 223.62C458.276 223.62 458.806 224.26 458.806 225.5C458.806 226.74 458.276 227.38 457.376 227.38ZM462.932 228.12C464.342 228.12 465.262 227.13 465.262 225.5C465.262 223.87 464.342 222.88 462.932 222.88C461.522 222.88 460.602 223.87 460.602 225.5C460.602 227.13 461.522 228.12 462.932 228.12ZM462.932 227.38C462.032 227.38 461.502 226.74 461.502 225.5C461.502 224.26 462.032 223.62 462.932 223.62C463.832 223.62 464.362 224.26 464.362 225.5C464.362 226.74 463.832 227.38 462.932 227.38ZM467.459 228V225.39C467.459 224.28 467.969 223.61 468.799 223.61C469.529 223.61 469.899 224.06 469.899 224.94V228H470.749V224.89C470.749 223.56 470.179 222.88 469.079 222.88C468.289 222.88 467.739 223.24 467.409 223.99V223H466.609V228H467.459Z" fill="white"/>
<mask id="path-39-inside-3_20449_66017" fill="white">
<path fill-rule="evenodd" clip-rule="evenodd" d="M629 10C623.477 10 619 14.4771 619 20V39.8801C619 45.4029 623.477 49.8801 629 49.8801H740.839L744.472 55.6078C745.65 57.4652 748.361 57.4652 749.539 55.6078L753.172 49.8801H767C772.523 49.8801 777 45.403 777 39.8801V20C777 14.4772 772.523 10 767 10H629Z"/>
</mask>
<path fill-rule="evenodd" clip-rule="evenodd" d="M629 10C623.477 10 619 14.4771 619 20V39.8801C619 45.4029 623.477 49.8801 629 49.8801H740.839L744.472 55.6078C745.65 57.4652 748.361 57.4652 749.539 55.6078L753.172 49.8801H767C772.523 49.8801 777 45.403 777 39.8801V20C777 14.4772 772.523 10 767 10H629Z" fill="white"/>
<path d="M740.839 49.8801L741.804 49.2679L741.467 48.7372H740.839V49.8801ZM744.472 55.6078L743.507 56.22L744.472 55.6078ZM749.539 55.6078L748.574 54.9957L749.539 55.6078ZM753.172 49.8801V48.7372H752.544L752.207 49.2679L753.172 49.8801ZM620.143 20C620.143 15.1083 624.108 11.1429 629 11.1429V8.85714C622.846 8.85714 617.857 13.846 617.857 20H620.143ZM620.143 39.8801V20H617.857V39.8801H620.143ZM629 48.7372C624.108 48.7372 620.143 44.7718 620.143 39.8801H617.857C617.857 46.0341 622.846 51.023 629 51.023V48.7372ZM740.839 48.7372H629V51.023H740.839V48.7372ZM739.874 50.4923L743.507 56.22L745.437 54.9957L741.804 49.2679L739.874 50.4923ZM743.507 56.22C745.134 58.785 748.877 58.785 750.504 56.22L748.574 54.9957C747.844 56.1455 746.167 56.1455 745.437 54.9957L743.507 56.22ZM750.504 56.22L754.137 50.4923L752.207 49.2679L748.574 54.9957L750.504 56.22ZM767 48.7372H753.172V51.023H767V48.7372ZM775.857 39.8801C775.857 44.7718 771.892 48.7372 767 48.7372V51.023C773.154 51.023 778.143 46.0341 778.143 39.8801H775.857ZM775.857 20V39.8801H778.143V20H775.857ZM767 11.1429C771.892 11.1429 775.857 15.1083 775.857 20H778.143C778.143 13.846 773.154 8.85714 767 8.85714V11.1429ZM629 11.1429H767V8.85714H629V11.1429Z" fill="#F3F4F5" mask="url(#path-39-inside-3_20449_66017)"/>
<rect x="627" y="17.9785" width="24" height="24" rx="12" fill="#39B8A8"/>
<rect opacity="0.5" x="627" y="17.9785" width="24" height="24" rx="12" fill="url(#paint2_radial_20449_66017)"/>
<path d="M664.784 29.5505C665.768 29.2865 666.26 28.5425 666.26 27.6905C666.26 26.5745 665.528 25.4585 663.428 25.4585H660.056V33.9785H663.632C665.696 33.9785 666.488 32.8145 666.488 31.6145C666.488 30.4745 665.84 29.7305 664.784 29.5505ZM663.176 26.6345C664.316 26.6345 664.664 27.2225 664.664 27.8585C664.664 28.4465 664.376 29.0585 663.176 29.0585H661.604V26.6345H663.176ZM661.604 32.8025V30.1985H663.428C664.448 30.1985 664.904 30.7385 664.904 31.4705C664.904 32.1905 664.484 32.8025 663.344 32.8025H661.604ZM669.487 26.9825V25.4825H667.927V26.9825H669.487ZM669.427 33.9785V27.9785H667.987V33.9785H669.427ZM673.775 34.1225C675.503 34.1225 676.715 32.9825 676.715 30.9665C676.715 28.9625 675.503 27.8345 673.775 27.8345C672.047 27.8345 670.835 28.9625 670.835 30.9665C670.835 32.9825 672.047 34.1225 673.775 34.1225ZM673.775 33.0305C672.851 33.0305 672.299 32.3345 672.299 30.9665C672.299 29.5985 672.851 28.9265 673.775 28.9265C674.699 28.9265 675.239 29.5985 675.239 30.9665C675.239 32.3345 674.699 33.0305 673.775 33.0305ZM678.136 33.9785H679.576V30.5105C679.576 29.5505 679.996 28.9865 680.716 28.9865C681.352 28.9865 681.688 29.4185 681.688 30.2465V33.9785H683.128V30.4745C683.128 29.5145 683.536 28.9865 684.268 28.9865C684.928 28.9865 685.252 29.4065 685.252 30.2825V33.9785H686.692V30.0545C686.692 28.6505 686.008 27.8345 684.856 27.8345C684.016 27.8345 683.392 28.2305 682.984 29.0465C682.696 28.2425 682.12 27.8345 681.28 27.8345C680.44 27.8345 679.864 28.2305 679.504 29.0465V27.9785H678.136V33.9785ZM693.56 30.6785C693.56 28.8425 692.564 27.8345 690.824 27.8345C689.036 27.8345 687.956 29.0585 687.956 31.0385C687.956 33.0065 689.06 34.1225 690.896 34.1225C692.12 34.1225 693.068 33.5465 693.512 32.5025L692.408 31.9985C692.132 32.6465 691.628 32.9945 690.944 32.9945C689.996 32.9945 689.36 32.3465 689.348 31.3385H693.56V30.6785ZM689.348 30.3905C689.372 29.3945 689.888 28.7945 690.8 28.7945C691.652 28.7945 692.144 29.3105 692.144 30.2945V30.3905H689.348ZM695.263 29.0225V32.1185C695.263 33.3305 695.743 34.0865 697.183 34.0865C697.555 34.0865 697.819 34.0505 698.167 33.9785V32.7665C697.975 32.8025 697.819 32.8385 697.579 32.8385C696.979 32.8385 696.703 32.5265 696.703 31.8905V29.0225H698.167V27.9785H696.703V25.8905L695.263 26.4665V27.9785H694.183V29.0225H695.263ZM700.831 27.9785H699.487V33.9785H700.927V31.4705C700.927 30.7985 700.987 30.1145 701.467 29.6465C701.743 29.3825 702.139 29.2265 702.715 29.2265H702.907V27.8465C702.847 27.8345 702.799 27.8345 702.739 27.8345C701.767 27.8345 701.131 28.4825 700.831 29.4305V27.9785ZM705.593 26.9825V25.4825H704.033V26.9825H705.593ZM705.533 33.9785V27.9785H704.093V33.9785H705.533ZM709.88 34.1225C711.308 34.1225 712.316 33.3065 712.532 31.9745L711.176 31.6985C711.044 32.5385 710.6 32.9825 709.88 32.9825C708.956 32.9825 708.416 32.2385 708.416 30.9425C708.416 29.7065 708.968 28.9625 709.856 28.9625C710.564 28.9625 711.032 29.4065 711.128 30.2225L712.532 29.9945C712.352 28.6265 711.38 27.8345 709.892 27.8345C708.068 27.8345 706.94 29.0225 706.94 30.9785C706.94 32.8865 708.092 34.1225 709.88 34.1225ZM719.876 35.1545C718.64 33.5225 718.088 31.9385 718.088 30.0665C718.088 28.1945 718.64 26.6825 719.876 25.0865L718.82 24.5945C717.524 26.0225 716.696 27.9065 716.696 30.0425C716.696 32.1545 717.512 34.1465 718.808 35.6585L719.876 35.1545ZM725.576 30.6785C725.576 28.8425 724.58 27.8345 722.84 27.8345C721.052 27.8345 719.972 29.0585 719.972 31.0385C719.972 33.0065 721.076 34.1225 722.912 34.1225C724.136 34.1225 725.084 33.5465 725.528 32.5025L724.424 31.9985C724.148 32.6465 723.644 32.9945 722.96 32.9945C722.012 32.9945 721.376 32.3465 721.364 31.3385H725.576V30.6785ZM721.364 30.3905C721.388 29.3945 721.904 28.7945 722.816 28.7945C723.668 28.7945 724.16 29.3105 724.16 30.2945V30.3905H721.364ZM726.717 32.3105V33.9785H728.421V32.3105H726.717ZM735.323 28.0265C735.503 28.0265 735.659 28.0505 735.815 28.0865V27.0065C735.695 26.9825 735.599 26.9705 735.479 26.9705C734.615 26.9705 734.099 27.4265 733.907 28.0745C733.547 27.9185 733.127 27.8345 732.635 27.8345C731.111 27.8345 730.175 28.6625 730.175 29.8505C730.175 30.4865 730.439 31.0145 730.907 31.3865C730.331 31.6145 729.959 32.0465 729.959 32.6585C729.959 33.1265 730.187 33.5225 730.715 33.7385C730.067 33.9425 729.719 34.3865 729.719 34.9145C729.719 35.7665 730.475 36.4625 732.539 36.4625C734.699 36.4625 735.743 35.6585 735.743 34.4225C735.743 33.3065 735.023 32.6945 733.619 32.6945H732.047C731.387 32.6945 731.135 32.4665 731.135 32.1425C731.135 31.9385 731.255 31.7825 731.435 31.6865C731.771 31.8185 732.179 31.9025 732.635 31.9025C734.171 31.9025 735.107 31.0385 735.107 29.8505C735.107 29.2625 734.879 28.7705 734.471 28.4105C734.651 28.1465 734.927 28.0265 735.323 28.0265ZM732.635 31.0265C731.963 31.0265 731.531 30.5345 731.531 29.8505C731.531 29.1785 731.963 28.7105 732.635 28.7105C733.307 28.7105 733.739 29.1785 733.739 29.8625C733.739 30.5345 733.307 31.0265 732.635 31.0265ZM733.403 33.9305C734.087 33.9305 734.435 34.1825 734.435 34.6625C734.435 35.1545 734.003 35.5265 732.635 35.5265C731.603 35.5265 730.919 35.2865 730.919 34.6505C730.919 34.3625 731.051 34.0865 731.351 33.8945C731.495 33.9185 731.663 33.9185 731.843 33.9185L733.403 33.9305ZM736.784 32.3105V33.9785H738.488V32.3105H736.784ZM746.785 34.1825C749.233 34.1825 750.817 32.4665 750.817 29.7185C750.817 26.9465 749.233 25.2545 746.785 25.2545C744.337 25.2545 742.753 26.9465 742.753 29.7185C742.753 32.4425 744.337 34.1825 746.785 34.1825ZM746.785 32.9345C745.261 32.9345 744.361 31.6865 744.361 29.7185C744.361 27.7145 745.261 26.5025 746.785 26.5025C748.321 26.5025 749.209 27.7145 749.209 29.7185C749.209 31.7225 748.321 32.9345 746.785 32.9345ZM753.577 27.9785H752.233V33.9785H753.673V31.4705C753.673 30.7985 753.733 30.1145 754.213 29.6465C754.489 29.3825 754.885 29.2265 755.461 29.2265H755.653V27.8465C755.593 27.8345 755.545 27.8345 755.485 27.8345C754.513 27.8345 753.877 28.4825 753.577 29.4305V27.9785ZM760.067 34.1225C761.567 34.1225 762.539 32.8625 762.539 30.9785C762.539 29.1185 761.591 27.8345 760.127 27.8345C759.239 27.8345 758.591 28.2905 758.279 28.9145V25.2785H756.839V33.9785H758.051L758.195 33.0065C758.507 33.6785 759.179 34.1225 760.067 34.1225ZM759.611 33.0185C758.747 33.0185 758.243 32.3105 758.243 31.1945V30.7865C758.243 29.6465 758.759 28.9385 759.611 28.9385C760.535 28.9385 761.039 29.7305 761.039 30.9785C761.039 32.2505 760.511 33.0185 759.611 33.0185ZM763.781 35.6585C765.077 34.1465 765.893 32.1545 765.893 30.0425C765.893 27.9065 765.065 26.0225 763.769 24.5945L762.713 25.0865C763.949 26.6825 764.501 28.1945 764.501 30.0665C764.501 31.9385 763.949 33.5225 762.713 35.1545L763.781 35.6585Z" fill="#39B8A8"/>
<mask id="path-44-inside-4_20449_66017" fill="white">
<path fill-rule="evenodd" clip-rule="evenodd" d="M152 285C146.477 285 142 289.477 142 295V314.844C142 320.367 146.477 324.844 152 324.844H179.161L182.87 330.623C184.051 332.462 186.739 332.462 187.919 330.623L191.628 324.844H218C223.523 324.844 228 320.367 228 314.844V295C228 289.477 223.523 285 218 285H152Z"/>
</mask>
<path fill-rule="evenodd" clip-rule="evenodd" d="M152 285C146.477 285 142 289.477 142 295V314.844C142 320.367 146.477 324.844 152 324.844H179.161L182.87 330.623C184.051 332.462 186.739 332.462 187.919 330.623L191.628 324.844H218C223.523 324.844 228 320.367 228 314.844V295C228 289.477 223.523 285 218 285H152Z" fill="white"/>
<path d="M179.161 324.844L180.123 324.227L179.786 323.701H179.161V324.844ZM182.87 330.623L181.908 331.24L182.87 330.623ZM187.919 330.623L188.881 331.24L187.919 330.623ZM191.628 324.844V323.701H191.004L190.667 324.227L191.628 324.844ZM143.143 295C143.143 290.108 147.108 286.143 152 286.143V283.857C145.846 283.857 140.857 288.846 140.857 295H143.143ZM143.143 314.844V295H140.857V314.844H143.143ZM152 323.701C147.108 323.701 143.143 319.735 143.143 314.844H140.857C140.857 320.998 145.846 325.987 152 325.987V323.701ZM179.161 323.701H152V325.987H179.161V323.701ZM178.199 325.461L181.908 331.24L183.832 330.005L180.123 324.227L178.199 325.461ZM181.908 331.24C183.538 333.78 187.251 333.78 188.881 331.24L186.958 330.005C186.227 331.144 184.563 331.144 183.832 330.005L181.908 331.24ZM188.881 331.24L192.59 325.461L190.667 324.227L186.958 330.005L188.881 331.24ZM218 323.701H191.628V325.987H218V323.701ZM226.857 314.844C226.857 319.735 222.892 323.701 218 323.701V325.987C224.154 325.987 229.143 320.998 229.143 314.844H226.857ZM226.857 295V314.844H229.143V295H226.857ZM218 286.143C222.892 286.143 226.857 290.108 226.857 295H229.143C229.143 288.846 224.154 283.857 218 283.857V286.143ZM152 286.143H218V283.857H152V286.143Z" fill="#F3F4F5" mask="url(#path-44-inside-4_20449_66017)"/>
<rect x="150" y="293" width="24" height="24" rx="12" fill="#506DFF"/>
<rect opacity="0.5" x="150" y="293" width="24" height="24" rx="12" fill="url(#paint3_radial_20449_66017)"/>
<path d="M183.056 300.48V309H184.604V305.7H186.416C188.252 305.7 189.404 304.68 189.404 303.072C189.404 301.5 188.24 300.48 186.428 300.48H183.056ZM184.604 304.524V301.668H186.14C187.148 301.668 187.772 302.22 187.772 303.096C187.772 303.984 187.148 304.524 186.14 304.524H184.604ZM192.088 309V305.82C192.088 304.668 192.58 304.008 193.444 304.008C194.176 304.008 194.548 304.476 194.548 305.388V309H196V305.268C196 303.684 195.316 302.856 194.02 302.856C193.108 302.856 192.448 303.276 192.088 304.104V300.3H190.648V309H192.088ZM200.197 309.144C201.925 309.144 203.137 308.004 203.137 305.988C203.137 303.984 201.925 302.856 200.197 302.856C198.469 302.856 197.257 303.984 197.257 305.988C197.257 308.004 198.469 309.144 200.197 309.144ZM200.197 308.052C199.273 308.052 198.721 307.356 198.721 305.988C198.721 304.62 199.273 303.948 200.197 303.948C201.121 303.948 201.661 304.62 201.661 305.988C201.661 307.356 201.121 308.052 200.197 308.052ZM205.998 309V305.82C205.998 304.68 206.502 304.008 207.342 304.008C208.098 304.008 208.458 304.476 208.458 305.424V309H209.91V305.28C209.91 303.672 209.226 302.856 207.918 302.856C206.994 302.856 206.334 303.288 205.926 304.164V303H204.558V309H205.998ZM216.771 305.7C216.771 303.864 215.775 302.856 214.035 302.856C212.247 302.856 211.167 304.08 211.167 306.06C211.167 308.028 212.271 309.144 214.107 309.144C215.331 309.144 216.279 308.568 216.723 307.524L215.619 307.02C215.343 307.668 214.839 308.016 214.155 308.016C213.207 308.016 212.571 307.368 212.559 306.36H216.771V305.7ZM212.559 305.412C212.583 304.416 213.099 303.816 214.011 303.816C214.863 303.816 215.355 304.332 215.355 305.316V305.412H212.559Z" fill="#506DFF"/>
<rect x="0.5" y="0.5" width="811" height="419" rx="15.5" stroke="#EBECEF"/>
<defs>
<radialGradient id="paint0_radial_20449_66017" cx="0" cy="0" r="1" gradientUnits="userSpaceOnUse" gradientTransform="translate(260.874 262.237) rotate(55.0103) scale(35.1089 34.9575)">
<stop stop-color="white"/>
<stop offset="1" stop-color="white" stop-opacity="0"/>
</radialGradient>
<radialGradient id="paint1_radial_20449_66017" cx="0" cy="0" r="1" gradientUnits="userSpaceOnUse" gradientTransform="translate(372.874 195.237) rotate(55.0103) scale(35.1089 34.9575)">
<stop stop-color="white"/>
<stop offset="1" stop-color="white" stop-opacity="0"/>
</radialGradient>
<radialGradient id="paint2_radial_20449_66017" cx="0" cy="0" r="1" gradientUnits="userSpaceOnUse" gradientTransform="translate(627.874 13.2154) rotate(55.0103) scale(35.1089 34.9575)">
<stop stop-color="white"/>
<stop offset="1" stop-color="white" stop-opacity="0"/>
</radialGradient>
<radialGradient id="paint3_radial_20449_66017" cx="0" cy="0" r="1" gradientUnits="userSpaceOnUse" gradientTransform="translate(150.874 288.237) rotate(55.0103) scale(35.1089 34.9575)">
<stop stop-color="white"/>
<stop offset="1" stop-color="white" stop-opacity="0"/>
</radialGradient>
<clipPath id="clip0_20449_66017">
<rect width="11.998" height="11.998" fill="white" transform="translate(378.002 206)"/>
</clipPath>
</defs>
</svg>
