<svg width="141" height="24" viewBox="0 0 141 24" fill="none" xmlns="http://www.w3.org/2000/svg">
<g clip-path="url(#clip0_1747_462)">
<path d="M51.5758 7.43479C54.0907 7.43479 56.1445 9.48715 56.1445 12.0002C56.1445 14.5133 54.0907 16.5657 51.5758 16.5657C49.061 16.5657 47.0071 14.5133 47.0071 12.0002C47.0071 9.48715 49.04 7.43479 51.5758 7.43479ZM51.5758 5.23584C47.8454 5.23584 44.8066 8.27249 44.8066 12.0002C44.8066 15.728 47.8454 18.7646 51.5758 18.7646C55.3062 18.7646 58.345 15.728 58.345 12.0002C58.345 8.25155 55.3062 5.23584 51.5758 5.23584Z" fill="black"/>
<path d="M117.151 7.43479C119.666 7.43479 121.72 9.48715 121.72 12.0002C121.72 14.5133 119.666 16.5657 117.151 16.5657C114.636 16.5657 112.582 14.5133 112.582 12.0002C112.582 9.48715 114.636 7.43479 117.151 7.43479ZM117.151 5.23584C113.421 5.23584 110.382 8.27249 110.382 12.0002C110.382 15.728 113.421 18.7646 117.151 18.7646C120.881 18.7646 123.92 15.728 123.92 12.0002C123.92 8.25155 120.902 5.23584 117.151 5.23584Z" fill="black"/>
<path d="M106.944 13.5709C106.295 15.3301 104.618 16.5657 102.648 16.5657C100.133 16.5657 98.0794 14.5133 98.0794 12.0002C98.0794 9.48715 100.133 7.43479 102.648 7.43479C104.618 7.43479 106.295 8.69134 106.944 10.4296H109.229C108.537 7.45574 105.855 5.23584 102.648 5.23584C98.9177 5.23584 95.8789 8.27249 95.8789 12.0002C95.8789 15.728 98.9177 18.7646 102.648 18.7646C105.855 18.7646 108.537 16.5447 109.229 13.5709H106.944Z" fill="black"/>
<path d="M87.9576 7.64378C90.4095 7.64378 92.4005 9.69613 92.3166 12.1673C92.2328 14.5338 90.2209 16.3558 87.8528 16.3558H85.4427V7.64378H87.9576ZM87.9576 5.44482H83.2422V18.5548H87.9576C91.5832 18.5548 94.5172 15.6228 94.5172 11.9998C94.5172 8.37676 91.5832 5.44482 87.9576 5.44482Z" fill="black"/>
<path d="M127.734 5.46582H125.533V18.5339H127.734V5.46582Z" fill="black"/>
<path d="M33.0706 18.597L35.5645 8.98447L38.0584 18.597H41.0762L44.4922 5.40332H42.2289L39.5673 15.6442L36.9057 5.40332H34.2232L31.5617 15.6442L28.9001 5.40332H26.6367L30.0527 18.597H33.0706Z" fill="black"/>
<path d="M132.135 9.2354L138.799 18.5338H139.051H141V5.46577H138.799V14.7642L132.135 5.44482H131.967L131.946 5.46577H129.935V18.5338H132.135V9.2354Z" fill="black"/>
<path d="M74.6497 5.46582H72.4492V18.5339H81.6285V16.3349H74.6497V5.46582Z" fill="black"/>
<path d="M68.2157 13.1517C69.557 12.4816 70.4791 11.1203 70.4791 9.5287C70.4791 7.28786 68.6558 5.48682 66.4344 5.48682H62.2849H60.0215V13.5915V18.5549H62.2849V13.5706H63.5423C66.2248 13.6544 68.3625 15.8324 68.3625 18.5339H70.6258C70.6468 16.3978 69.7037 14.4711 68.2157 13.1517ZM62.2849 11.3088V7.72765H66.4344C67.4194 7.72765 68.2157 8.52347 68.2157 9.50776C68.2157 10.4921 67.4194 11.3088 66.4344 11.3088H62.2849Z" fill="black"/>
<path d="M23.0529 7.32984C22.4452 5.90576 21.5859 4.62827 20.4752 3.51832C19.3644 2.40838 18.107 1.54974 16.6819 0.942408C15.194 0.314136 13.6222 0 12.0085 0C10.3738 0 8.80202 0.314136 7.33502 0.942408C5.90993 1.54974 4.63154 2.40838 3.52081 3.51832C2.41008 4.62827 1.55083 5.90576 0.943074 7.32984C0.314358 8.79581 0 10.3665 0 12C0 13.6126 0.314358 15.1832 0.943074 16.6702C1.55083 18.0942 2.41008 19.3717 3.52081 20.4817C4.63154 21.5916 5.90993 22.4503 7.33502 23.0366C8.82298 23.6649 10.3948 23.9791 12.0085 23.9791C13.6222 23.9791 15.194 23.6649 16.6819 23.0366C18.107 22.4293 19.3854 21.5707 20.4961 20.4607C21.6069 19.3508 22.4661 18.0733 23.0739 16.6492C23.7026 15.1623 24.0169 13.5916 24.0169 11.9791C24.0169 10.3665 23.6816 8.79581 23.0529 7.32984ZM8.02661 10.8691C8.50862 8.94241 10.269 7.53927 12.3438 7.53927H20.6848C21.2296 8.56545 21.565 9.69634 21.6907 10.8691H8.02661ZM21.6907 13.1309C21.565 14.3037 21.2087 15.4346 20.6848 16.4607H12.3438C10.269 16.4607 8.52958 15.0367 8.02661 13.1309H21.6907ZM5.11356 5.10995C6.95779 3.26702 9.40978 2.26178 12.0085 2.26178C14.6072 2.26178 17.0592 3.26702 18.9034 5.10995C18.9663 5.17277 19.0082 5.21466 19.071 5.27749H12.3438C10.5415 5.27749 8.86489 5.96859 7.5865 7.24607C6.58056 8.25131 5.93089 9.50785 5.72131 10.8691H2.32625C2.57774 8.6911 3.54177 6.68063 5.11356 5.10995ZM12.0085 21.7382C9.40978 21.7382 6.95779 20.733 5.11356 18.8901C3.54177 17.3194 2.57774 15.288 2.32625 13.1309H5.72131C5.95184 14.4921 6.60152 15.7487 7.5865 16.7539C8.86489 18.0314 10.5415 18.7225 12.3438 18.7225H19.071C19.0082 18.7853 18.9663 18.8272 18.9034 18.8901C17.0592 20.733 14.6072 21.7382 12.0085 21.7382Z" fill="black"/>
</g>
<defs>
<clipPath id="clip0_1747_462">
<rect width="141" height="24" fill="white"/>
</clipPath>
</defs>
</svg>
