<svg width="96" height="24" viewBox="0 0 96 24" fill="none" xmlns="http://www.w3.org/2000/svg">
<path d="M18.1167 1.60446C16.2783 0.53482 14.2727 0 12.1 0C9.92731 0 7.92173 0.53482 6.08329 1.60446C4.24485 2.6741 2.7741 4.14485 1.70446 5.98329C0.634826 7.82173 0.100006 9.8273 0.100006 12C0.100006 14.1727 0.634826 16.1783 1.70446 18.0167C2.7741 19.8552 4.24485 21.3259 6.08329 22.3955C7.92173 23.4652 9.92731 24 12.1 24C14.2727 24 16.2783 23.4652 18.1167 22.3955C19.9552 21.3259 21.4259 19.8552 22.4956 18.0167C23.5652 16.1783 24.1 14.1727 24.1 12C24.1 9.8273 23.5652 7.82173 22.4956 5.98329C21.4259 4.14485 19.9552 2.6741 18.1167 1.60446ZM12.8354 16.3454C11.4649 16.3454 10.3953 15.9443 9.55962 15.1755C8.99137 14.6407 8.62369 14.0056 8.45656 13.2368H21.4259C21.2922 14.3398 20.958 15.376 20.49 16.3454H12.8688H12.8354ZM8.45656 10.7967C8.62369 10.0613 8.99137 9.39276 9.55962 8.85794C10.3953 8.08914 11.4649 7.68802 12.8354 7.68802H20.49C20.9914 8.65738 21.2922 9.6936 21.4259 10.7967H8.45656ZM3.97744 7.22006C4.8131 5.78273 5.94959 4.61282 7.38691 3.77716C8.82424 2.94151 10.3953 2.50696 12.1334 2.50696C13.8716 2.50696 15.4426 2.94151 16.88 3.77716C17.6153 4.2117 18.2504 4.71309 18.8521 5.31476H12.802C11.4315 5.31476 10.1947 5.6156 9.12508 6.18385C8.05544 6.75209 7.21978 7.55432 6.65154 8.55711C6.25042 9.25906 5.98302 10.0279 5.84931 10.8301H2.87438C3.00809 9.55989 3.4092 8.35655 4.0443 7.25348L3.97744 7.22006ZM16.8465 20.2228C15.4092 21.0585 13.8382 21.493 12.1 21.493C10.3618 21.493 8.79082 21.0585 7.35349 20.2228C5.91616 19.3872 4.77967 18.2173 3.94402 16.78C3.30892 15.6769 2.90781 14.507 2.7741 13.2368H5.74903C5.88274 14.039 6.15014 14.8078 6.55126 15.5097C7.15293 16.5125 7.98859 17.2813 9.0248 17.883C10.0944 18.4513 11.3312 18.7521 12.7017 18.7521H18.7184C18.1501 19.3203 17.5151 19.8217 16.8131 20.2228H16.8465Z" fill="#13110C"/>
<path d="M43.5206 15.8774L41.2142 7.08635C41.0471 6.48468 40.7462 5.98329 40.3117 5.64902C39.8772 5.28134 39.3424 5.11421 38.7073 5.11421C38.0722 5.11421 37.5708 5.28134 37.1362 5.64902C36.7017 6.01671 36.4008 6.48468 36.2337 7.08635L33.9607 15.844L31.1529 5.31476H27.8772L31.2866 16.8802C31.6878 18.3176 32.5568 19.0195 33.8605 19.0195C35.1641 19.0195 35.0972 18.8189 35.5318 18.4513C35.9329 18.0836 36.2337 17.5487 36.4008 16.8802L38.7073 7.98886L40.9802 16.8802C41.3479 18.3176 42.217 19.0195 43.5541 19.0195C44.8911 19.0195 45.7268 18.3176 46.1279 16.8802L49.5039 5.31476H46.2616L43.4872 15.8774H43.5206Z" fill="#13110C"/>
<path d="M60.9022 5.88301C59.7992 5.24791 58.5624 4.94708 57.1919 4.94708C55.8214 4.94708 54.6181 5.24791 53.515 5.88301C52.412 6.51811 51.5429 7.38719 50.9078 8.45683C50.2727 9.52646 49.9719 10.7298 49.9719 12.0334C49.9719 13.337 50.2727 14.5404 50.9078 15.61C51.5429 16.6797 52.412 17.5487 53.515 18.1838C54.6181 18.8189 55.8549 19.1198 57.1919 19.1198C58.529 19.1198 59.7992 18.8189 60.9022 18.1838C62.0053 17.5487 62.8744 16.6797 63.5095 15.61C64.1446 14.5404 64.4454 13.337 64.4454 12.0334C64.4454 10.7298 64.1446 9.52646 63.5095 8.45683C62.8744 7.38719 62.0053 6.51811 60.9022 5.88301ZM60.802 14.2061C60.4677 14.8747 59.9663 15.376 59.3646 15.7772C58.763 16.1448 58.0276 16.3454 57.2253 16.3454C56.4231 16.3454 55.7212 16.1448 55.0861 15.7772C54.4844 15.4095 53.983 14.8747 53.6487 14.2396C53.3145 13.6045 53.1139 12.8691 53.1139 12.0334C53.1139 11.1978 53.2811 10.4958 53.6487 9.8273C53.983 9.15877 54.4844 8.65738 55.0861 8.25627C55.6877 7.88858 56.4231 7.68802 57.2253 7.68802C58.0276 7.68802 58.7295 7.88858 59.3646 8.25627C59.9663 8.62396 60.4677 9.15878 60.802 9.79387C61.1362 10.429 61.3368 11.1643 61.3368 12C61.3368 12.8357 61.1696 13.5376 60.802 14.2061Z" fill="#13110C"/>
<path d="M70.6293 6.05014C69.9942 6.51811 69.5596 7.1532 69.2588 7.92201V5.28134H66.1836V18.7187H69.2922V12.7354C69.2922 11.1309 69.6599 9.99443 70.4287 9.29248C71.1975 8.59053 72.2671 8.22284 73.671 8.22284H73.7379V5.11421H73.6376C72.4677 5.11421 71.4649 5.41504 70.6293 6.05014Z" fill="#13110C"/>
<path d="M79.1864 15.6435C78.8855 15.3092 78.7518 14.7744 78.7518 14.0724V0.133702H75.6432V14.4735C75.6432 15.9777 76.0443 17.0808 76.8131 17.7827C77.5819 18.4847 78.7853 18.8524 80.3563 18.8524H80.6571V16.2117C79.9552 16.2117 79.4538 16.0111 79.1529 15.6769L79.1864 15.6435Z" fill="#13110C"/>
<path d="M92.3229 0.133702V6.98607C92.022 6.58496 91.6543 6.21727 91.1864 5.88301C90.2504 5.24791 89.1474 4.94708 87.8772 4.94708C86.607 4.94708 85.3368 5.24791 84.334 5.84958C83.2978 6.45125 82.4956 7.32034 81.9273 8.38998C81.3591 9.49304 81.0582 10.6964 81.0582 12.0334C81.0582 13.3705 81.3256 14.6072 81.8939 15.6769C82.4621 16.7465 83.2644 17.5822 84.3006 18.2173C85.3368 18.8189 86.5401 19.1198 87.8772 19.1198C89.2142 19.1198 89.4816 18.9861 90.1836 18.6852C90.8855 18.3844 91.4872 17.9833 91.9552 17.4485C92.0889 17.3148 92.1892 17.1476 92.2894 17.0139V18.7521H95.3981V0.133702H92.2894H92.3229ZM91.8883 14.2396C91.5541 14.9081 91.0527 15.4429 90.4176 15.8106C89.7825 16.1783 89.0805 16.3788 88.2449 16.3788C87.4092 16.3788 86.7073 16.1783 86.1056 15.8106C85.5039 15.4429 85.036 14.9081 84.7017 14.2396C84.3674 13.571 84.2003 12.8357 84.2003 12C84.2003 11.1643 84.3674 10.429 84.7017 9.76045C85.036 9.09192 85.5039 8.5571 86.1056 8.18942C86.7073 7.82173 87.4426 7.62117 88.2449 7.62117C89.0471 7.62117 89.7825 7.82173 90.4176 8.18942C91.0527 8.5571 91.5206 9.09192 91.8883 9.76045C92.2226 10.429 92.4231 11.1643 92.4231 12C92.4231 12.8357 92.256 13.571 91.8883 14.2396Z" fill="#13110C"/>
</svg>
