<svg width="468" height="474" viewBox="0 0 468 474" fill="none" xmlns="http://www.w3.org/2000/svg">
<g clip-path="url(#clip0_22743_56452)">
<path d="M275.193 331.445C246.572 340.379 214.109 332.144 193.357 307.937C165.545 275.494 169.299 226.649 201.741 198.837C234.183 171.025 283.029 174.779 310.841 207.221C317.034 214.446 321.662 222.484 324.757 230.922M153.918 309.563C130.687 265.411 140.111 209.527 179.592 175.68C225.451 136.367 294.495 141.674 333.808 187.532C373.121 233.39 367.815 302.435 321.957 341.748C303.553 357.525 281.414 366.116 258.962 367.783M99.2633 246.123C96.27 285.156 108.164 325.332 135.656 357.401C190.652 421.554 287.242 428.977 351.395 373.981C415.548 318.985 422.971 222.395 367.975 158.242C324.523 107.556 255.107 92.2825 196.239 115.228" stroke="url(#paint0_linear_22743_56452)"/>
<circle cx="148.816" cy="219.105" r="4" transform="rotate(-40.6054 148.816 219.105)" fill="#4940E0"/>
<circle cx="219.093" cy="107.489" r="4" transform="rotate(-40.6054 219.093 107.489)" fill="#4940E0"/>
<circle cx="322.357" cy="175.706" r="4" transform="rotate(-40.6054 322.357 175.706)" fill="#00C313"/>
<circle cx="322.357" cy="175.706" r="4" transform="rotate(-40.6054 322.357 175.706)" fill="url(#paint1_radial_22743_56452)"/>
<circle cx="322.357" cy="175.706" r="4" transform="rotate(-40.6054 322.357 175.706)" fill="#4940E0"/>
<circle cx="232.102" cy="2.81927" r="2" transform="rotate(-40.6054 232.102 2.81927)" fill="#00C313"/>
<circle cx="232.102" cy="2.81927" r="2" transform="rotate(-40.6054 232.102 2.81927)" fill="url(#paint2_radial_22743_56452)"/>
<circle cx="232.102" cy="2.81927" r="2" transform="rotate(-40.6054 232.102 2.81927)" fill="url(#paint3_radial_22743_56452)"/>
</g>
<rect x="252" y="92" width="24" height="24" rx="12" fill="black"/>
<g clip-path="url(#clip1_22743_56452)">
<path d="M268.565 110.091L266.86 104.9L271.324 101.692H265.807L264.101 96.5H269.622L271.33 101.692C272.319 104.703 271.299 108.129 268.566 110.09L268.565 110.091ZM259.634 110.091L264.099 113.3L268.566 110.09L264.101 106.883L259.634 110.091ZM256.874 101.691C255.83 104.867 257.042 108.231 259.63 110.093V110.091L261.339 104.9L256.874 101.691L262.393 101.693L264.099 96.5H258.58L256.874 101.691Z" fill="white"/>
</g>
<rect x="87" y="259" width="24" height="24" rx="12" fill="black"/>
<g clip-path="url(#clip2_22743_56452)">
<mask id="mask0_22743_56452" style="mask-type:luminance" maskUnits="userSpaceOnUse" x="90" y="262" width="18" height="18">
<path d="M107.1 262.9H90.8999V279.1H107.1V262.9Z" fill="white"/>
</mask>
<g mask="url(#mask0_22743_56452)">
<path d="M106.462 267.848C106.054 266.882 105.47 266.017 104.726 265.274C103.983 264.53 103.116 263.946 102.153 263.538C101.153 263.114 100.093 262.9 98.999 262.9C97.9066 262.9 96.8451 263.114 95.8452 263.538C94.8801 263.946 94.0151 264.53 93.2714 265.274C92.5278 266.017 91.9441 266.884 91.5357 267.848C91.1137 268.846 90.8999 269.907 90.8999 270.999C90.8999 272.092 91.1137 273.153 91.5376 274.153C91.946 275.118 92.5297 275.983 93.2734 276.727C94.017 277.471 94.8839 278.054 95.8472 278.463C96.847 278.885 97.9066 279.1 99.0009 279.1C100.093 279.1 101.155 278.887 102.155 278.463C103.12 278.054 103.985 277.471 104.728 276.727C105.472 275.983 106.056 275.116 106.464 274.153C106.886 273.153 107.102 272.094 107.102 270.999C107.1 269.907 106.884 268.846 106.462 267.848ZM96.3095 270.238C96.6467 268.944 97.8257 267.986 99.2263 267.986H104.85C105.212 268.686 105.443 269.447 105.534 270.238H96.3095ZM105.534 271.76C105.443 272.552 105.21 273.313 104.85 274.012H99.2263C97.8276 274.012 96.6486 273.055 96.3095 271.76H105.534ZM94.3484 266.349C95.5909 265.106 97.2419 264.422 98.999 264.422C100.756 264.422 102.407 265.106 103.65 266.349C103.688 266.387 103.725 266.426 103.761 266.464H99.2263C98.0145 266.464 96.8759 266.936 96.0186 267.794C95.3444 268.468 94.909 269.318 94.7529 270.24H92.4662C92.6338 268.77 93.2868 267.41 94.3484 266.349ZM98.999 277.578C97.2419 277.578 95.5909 276.895 94.3484 275.652C93.2868 274.59 92.6338 273.23 92.4662 271.762H94.7529C94.907 272.685 95.3444 273.535 96.0186 274.209C96.8759 275.066 98.0145 275.538 99.2263 275.538H103.763C103.727 275.577 103.688 275.615 103.651 275.654C102.409 276.893 100.756 277.578 98.999 277.578Z" fill="white"/>
</g>
</g>
<g clip-path="url(#clip3_22743_56452)">
<mask id="mask1_22743_56452" style="mask-type:luminance" maskUnits="userSpaceOnUse" x="201" y="181" width="24" height="24">
<path d="M222 181H204C202.343 181 201 182.343 201 184V202C201 203.657 202.343 205 204 205H222C223.657 205 225 203.657 225 202V184C225 182.343 223.657 181 222 181Z" fill="white"/>
</mask>
<g mask="url(#mask1_22743_56452)">
<path d="M222 181H204C202.343 181 201 182.343 201 184V202C201 203.657 202.343 205 204 205H222C223.657 205 225 203.657 225 202V184C225 182.343 223.657 181 222 181Z" fill="#ABFE2C"/>
<path d="M213.021 195.245C212.865 195.245 209.173 195.212 206.35 192.388C206.29 192.329 206.232 192.269 206.175 192.208C205.584 191.584 205.303 190.842 205.362 190.062C205.415 189.375 205.731 188.708 206.254 188.186C206.777 187.663 207.443 187.346 208.131 187.294C208.851 187.239 209.539 187.475 210.132 187.978C210.197 187.203 210.517 186.55 211.064 186.079C211.588 185.63 212.283 185.383 213.022 185.383C213.76 185.383 214.456 185.63 214.979 186.079C215.527 186.55 215.847 187.203 215.911 187.978C216.504 187.475 217.193 187.239 217.913 187.294C218.6 187.346 219.267 187.663 219.789 188.186C220.312 188.708 220.628 189.375 220.681 190.062C220.74 190.842 220.459 191.584 219.868 192.208C219.811 192.268 219.753 192.329 219.693 192.388C216.869 195.212 213.177 195.245 213.021 195.245ZM208.334 187.873C207.694 187.873 207.093 188.171 206.665 188.598C205.896 189.367 205.548 190.699 206.597 191.809C206.651 191.866 206.705 191.922 206.761 191.978C209.417 194.633 212.986 194.664 213.022 194.664C213.057 194.664 216.633 194.626 219.282 191.978C219.338 191.922 219.392 191.866 219.446 191.809C220.495 190.7 220.146 189.367 219.377 188.599C218.609 187.83 217.276 187.481 216.167 188.531C216.111 188.584 216.054 188.639 215.998 188.695C215.955 188.738 215.914 188.782 215.872 188.826L215.318 189.411L215.34 188.607C215.341 188.546 215.343 188.485 215.343 188.423C215.343 188.344 215.342 188.266 215.34 188.188C215.298 186.661 214.109 185.965 213.022 185.965C211.935 185.965 210.746 186.661 210.704 188.188C210.702 188.266 210.701 188.344 210.701 188.423C210.701 188.484 210.702 188.543 210.704 188.603L210.725 189.411L210.173 188.827C210.131 188.783 210.089 188.739 210.045 188.695C209.989 188.639 209.933 188.584 209.876 188.531C209.383 188.063 208.846 187.873 208.334 187.873Z" fill="#00501E"/>
<path d="M220.583 199.529C219.542 200.008 218.353 200.133 217.229 199.88C216.137 199.634 215.181 199.066 214.446 198.231C214.518 198.281 214.592 198.329 214.668 198.375C215.297 198.754 215.995 198.945 216.694 198.945C217.314 198.945 217.935 198.794 218.508 198.492C218.549 198.471 218.589 198.448 218.629 198.426L218.341 197.92C218.306 197.94 218.271 197.959 218.236 197.977C217.202 198.524 215.98 198.487 214.969 197.877C213.933 197.254 213.315 196.162 213.315 194.958V194.733H213.309H212.733H212.727V194.958C212.727 196.162 212.109 197.254 211.073 197.877C210.061 198.487 208.84 198.525 207.806 197.977C207.77 197.959 207.735 197.94 207.701 197.92L207.413 198.426C207.453 198.448 207.493 198.471 207.534 198.492C208.106 198.794 208.727 198.945 209.348 198.945C210.047 198.945 210.745 198.754 211.374 198.375C211.45 198.33 211.524 198.282 211.596 198.231C210.861 199.066 209.904 199.634 208.813 199.88C207.688 200.133 206.499 200.008 205.459 199.529L205.166 200.036C205.944 200.402 206.798 200.59 207.656 200.59C208.086 200.59 208.518 200.543 208.941 200.447C210.246 200.154 211.378 199.445 212.216 198.398C212.411 198.154 212.582 197.891 212.727 197.617V200.59H213.309V197.607C213.455 197.885 213.627 198.151 213.825 198.398C214.663 199.445 215.795 200.153 217.1 200.447C217.523 200.543 217.955 200.59 218.385 200.59C219.243 200.59 220.097 200.402 220.875 200.036L220.583 199.529Z" fill="#00501E"/>
<path d="M212.643 192.161H212.219C212.219 191.531 211.606 191.018 210.852 191.018C210.098 191.018 209.485 191.531 209.485 192.161H209.062C209.062 191.298 209.865 190.595 210.852 190.595C211.839 190.595 212.643 191.297 212.643 192.161Z" fill="#00501E"/>
<path d="M211.339 192.17C211.675 192.17 211.948 191.898 211.948 191.561C211.948 191.225 211.675 190.952 211.339 190.952C211.003 190.952 210.73 191.225 210.73 191.561C210.73 191.898 211.003 192.17 211.339 192.17Z" fill="#00501E"/>
<path d="M216.985 192.161H216.562C216.562 191.531 215.948 191.018 215.194 191.018C214.44 191.018 213.827 191.531 213.827 192.161H213.404C213.404 191.298 214.207 190.595 215.194 190.595C216.182 190.595 216.985 191.297 216.985 192.161Z" fill="#00501E"/>
<path d="M215.682 192.17C216.018 192.17 216.291 191.898 216.291 191.561C216.291 191.225 216.018 190.952 215.682 190.952C215.345 190.952 215.073 191.225 215.073 191.561C215.073 191.898 215.345 192.17 215.682 192.17Z" fill="#00501E"/>
<path d="M213.014 193.718C212.515 193.718 212.053 193.461 211.837 193.065L212.209 192.862C212.352 193.125 212.668 193.295 213.015 193.295C213.361 193.295 213.677 193.125 213.821 192.862L214.192 193.065C213.976 193.461 213.513 193.718 213.014 193.718Z" fill="#00501E"/>
</g>
</g>
<defs>
<linearGradient id="paint0_linear_22743_56452" x1="157.813" y1="148.169" x2="351.395" y2="373.981" gradientUnits="userSpaceOnUse">
<stop stop-color="#DBE3E8"/>
<stop offset="0.812301" stop-color="#DBE3E8" stop-opacity="0"/>
</linearGradient>
<radialGradient id="paint1_radial_22743_56452" cx="0" cy="0" r="1" gradientUnits="userSpaceOnUse" gradientTransform="translate(325.99 178.085) rotate(170.361) scale(5.68268 5.23352)">
<stop stop-color="#8FD106"/>
<stop offset="1" stop-color="#8FD106" stop-opacity="0"/>
</radialGradient>
<radialGradient id="paint2_radial_22743_56452" cx="0" cy="0" r="1" gradientUnits="userSpaceOnUse" gradientTransform="translate(233.918 4.00869) rotate(170.361) scale(2.84134 2.61676)">
<stop stop-color="#8FD106"/>
<stop offset="1" stop-color="#8FD106" stop-opacity="0"/>
</radialGradient>
<radialGradient id="paint3_radial_22743_56452" cx="0" cy="0" r="1" gradientUnits="userSpaceOnUse" gradientTransform="translate(230.395 1.19812) rotate(71.0626) scale(2.43115 2.3721)">
<stop stop-color="#00D815"/>
<stop offset="1" stop-color="#00D815" stop-opacity="0"/>
</radialGradient>
<clipPath id="clip0_22743_56452">
<rect width="306" height="361" fill="white" transform="translate(0 199.158) rotate(-40.6054)"/>
</clipPath>
<clipPath id="clip1_22743_56452">
<rect width="16.8" height="16.8" fill="white" transform="translate(255.6 96.5)"/>
</clipPath>
<clipPath id="clip2_22743_56452">
<rect width="16.2" height="16.2" fill="white" transform="translate(90.8999 262.9)"/>
</clipPath>
<clipPath id="clip3_22743_56452">
<rect x="201" y="181" width="24" height="24" rx="12" fill="white"/>
</clipPath>
</defs>
</svg>
