<svg width="468" height="474" viewBox="0 0 468 474" fill="none" xmlns="http://www.w3.org/2000/svg">
    <g clip-path="url(#clip0_20199_60702)">
        <path d="M275.193 331.445C246.572 340.379 214.109 332.144 193.357 307.937C165.545 275.494 169.299 226.649 201.741 198.837C234.183 171.025 283.029 174.779 310.841 207.221C317.034 214.446 321.662 222.484 324.757 230.922M153.918 309.563C130.687 265.411 140.111 209.527 179.592 175.68C225.451 136.367 294.495 141.674 333.808 187.532C373.121 233.39 367.815 302.435 321.957 341.748C303.553 357.525 281.414 366.116 258.962 367.783M99.2633 246.123C96.27 285.156 108.164 325.332 135.656 357.401C190.652 421.554 287.242 428.977 351.395 373.981C415.548 318.985 422.971 222.395 367.975 158.242C324.523 107.556 255.107 92.2825 196.239 115.228" stroke="url(#paint0_linear_20199_60702)"/>
        <circle cx="148.816" cy="219.105" r="4" transform="rotate(-40.6054 148.816 219.105)" fill="#4940E0"/>
        <circle cx="219.093" cy="107.49" r="4" transform="rotate(-40.6054 219.093 107.49)" fill="#4940E0"/>
        <circle cx="322.357" cy="175.707" r="4" transform="rotate(-40.6054 322.357 175.707)" fill="#00C313"/>
        <circle cx="322.357" cy="175.707" r="4" transform="rotate(-40.6054 322.357 175.707)" fill="url(#paint1_radial_20199_60702)"/>
        <circle cx="322.357" cy="175.707" r="4" transform="rotate(-40.6054 322.357 175.707)" fill="#4940E0"/>
        <circle cx="232.102" cy="2.82024" r="2" transform="rotate(-40.6054 232.102 2.82024)" fill="#00C313"/>
        <circle cx="232.102" cy="2.82024" r="2" transform="rotate(-40.6054 232.102 2.82024)" fill="url(#paint2_radial_20199_60702)"/>
        <circle cx="232.102" cy="2.82024" r="2" transform="rotate(-40.6054 232.102 2.82024)" fill="url(#paint3_radial_20199_60702)"/>
    </g>
    <rect x="252" y="91.998" width="24" height="24" rx="12" fill="#183C4A"/>
    <path d="M258.444 103.364C258.461 103.384 258.485 103.397 258.511 103.401C258.538 103.404 258.564 103.397 258.585 103.382C258.785 103.238 259.126 102.999 259.496 102.763C259.771 103.078 259.952 103.466 260.016 103.882C260.307 103.457 261.13 102.362 260.422 101.815C259.817 101.357 258.547 102.724 258.421 103.268C258.417 103.285 258.417 103.303 258.421 103.319C258.425 103.336 258.433 103.351 258.444 103.364Z" fill="white"/>
    <path d="M258.938 104.091C258.919 104.101 258.903 104.116 258.893 104.135C258.882 104.154 258.877 104.176 258.879 104.198C258.881 104.219 258.888 104.24 258.902 104.257C258.915 104.275 258.932 104.288 258.953 104.294C259.188 104.366 259.584 104.489 259.996 104.636C259.926 105.051 259.739 105.438 259.458 105.748C259.967 105.712 261.321 105.686 261.304 104.782C261.277 104.016 259.438 103.855 258.938 104.091Z" fill="white"/>
    <path d="M258.626 105.018C258.611 105.011 258.595 105.007 258.578 105.007C258.561 105.007 258.545 105.011 258.53 105.018C258.506 105.031 258.488 105.052 258.479 105.078C258.47 105.103 258.47 105.131 258.48 105.156C258.574 105.386 258.726 105.781 258.867 106.2C258.253 106.538 257.68 106.463 257.68 106.463C258.021 106.846 258.885 107.908 259.57 107.334C260.14 106.834 259.12 105.267 258.626 105.018Z" fill="white"/>
    <path d="M257.721 105.344C257.718 105.328 257.71 105.312 257.7 105.299C257.689 105.286 257.675 105.276 257.66 105.27C257.635 105.259 257.608 105.258 257.583 105.267C257.558 105.276 257.537 105.294 257.525 105.318C257.404 105.533 257.198 105.898 256.963 106.275C256.581 106.112 256.254 105.839 256.02 105.491C255.938 106.003 255.661 107.352 256.528 107.537C257.269 107.684 257.836 105.895 257.721 105.344Z" fill="white"/>
    <path d="M256.907 104.83C256.917 104.816 256.924 104.801 256.927 104.784C256.93 104.768 256.929 104.75 256.925 104.734C256.919 104.708 256.903 104.685 256.88 104.67C256.858 104.655 256.831 104.649 256.805 104.653C256.564 104.692 256.155 104.755 255.72 104.803C255.609 104.397 255.614 103.967 255.735 103.565C255.291 103.816 254.08 104.435 254.48 105.243C254.827 105.922 256.558 105.264 256.907 104.83Z" fill="white"/>
    <path d="M256.796 103.858C256.812 103.858 256.829 103.854 256.844 103.846C256.859 103.839 256.872 103.827 256.881 103.813C256.897 103.792 256.905 103.765 256.903 103.739C256.901 103.712 256.889 103.687 256.869 103.669C256.687 103.502 256.384 103.215 256.079 102.897C256.321 102.555 256.654 102.291 257.04 102.138C256.569 101.943 255.338 101.363 254.965 102.182C254.659 102.882 256.246 103.849 256.796 103.858Z" fill="white"/>
    <path d="M257.56 103.206C257.587 103.205 257.612 103.194 257.632 103.175C257.651 103.157 257.663 103.131 257.666 103.104C257.68 102.859 257.713 102.437 257.765 101.997C258.178 101.976 258.589 102.077 258.947 102.287C258.806 101.791 258.485 100.45 257.624 100.666C256.896 100.857 257.137 102.721 257.475 103.167C257.484 103.18 257.497 103.19 257.512 103.197C257.527 103.204 257.544 103.207 257.56 103.206Z" fill="white"/>
    <path d="M264.88 103.166L263.036 105.022" stroke="white" stroke-width="0.262622"/>
    <path d="M264.886 105.016L263.03 103.172" stroke="white" stroke-width="0.262622"/>
    <g clip-path="url(#clip1_20199_60702)">
        <path d="M270.027 105.257C269.96 105.257 268.357 105.242 267.132 103.985C267.106 103.958 267.081 103.932 267.056 103.905C266.799 103.627 266.677 103.297 266.703 102.95C266.726 102.644 266.864 102.347 267.09 102.115C267.316 101.882 267.606 101.741 267.905 101.718C268.217 101.694 268.516 101.798 268.773 102.022C268.801 101.677 268.94 101.386 269.178 101.177C269.405 100.977 269.706 100.867 270.027 100.867C270.349 100.867 270.65 100.977 270.877 101.177C271.115 101.387 271.254 101.677 271.281 102.022C271.539 101.798 271.837 101.692 272.15 101.718C272.449 101.741 272.738 101.883 272.964 102.115C273.191 102.347 273.329 102.644 273.351 102.95C273.377 103.297 273.255 103.627 272.999 103.905C272.974 103.932 272.949 103.959 272.923 103.985C271.697 105.242 270.095 105.257 270.027 105.257ZM267.993 101.975C267.715 101.975 267.454 102.108 267.269 102.298C266.935 102.64 266.784 103.233 267.24 103.727C267.263 103.752 267.287 103.777 267.311 103.802C268.463 104.984 270.012 104.997 270.027 104.997C270.043 104.997 271.595 104.981 272.744 103.802C272.768 103.777 272.792 103.752 272.815 103.727C273.271 103.233 273.119 102.64 272.786 102.298C272.452 101.956 271.874 101.8 271.392 102.268C271.367 102.292 271.343 102.316 271.319 102.341C271.3 102.36 271.282 102.379 271.264 102.399L271.024 102.659L271.034 102.302C271.034 102.275 271.035 102.248 271.035 102.22C271.035 102.185 271.035 102.149 271.034 102.115C271.016 101.436 270.5 101.126 270.028 101.126C269.556 101.126 269.04 101.435 269.022 102.115C269.022 102.15 269.02 102.186 269.02 102.22C269.02 102.247 269.02 102.273 269.022 102.3L269.031 102.659L268.791 102.4C268.773 102.381 268.755 102.361 268.736 102.341C268.712 102.316 268.687 102.292 268.663 102.268C268.448 102.059 268.215 101.975 267.993 101.975Z" fill="white"/>
        <path d="M269.864 103.885H269.68C269.68 103.604 269.414 103.376 269.087 103.376C268.76 103.376 268.493 103.604 268.493 103.885H268.31C268.31 103.5 268.658 103.188 269.087 103.188C269.515 103.188 269.864 103.5 269.864 103.885Z" fill="white"/>
        <path d="M271.733 103.877H271.549C271.549 103.596 271.283 103.368 270.956 103.368C270.629 103.368 270.362 103.596 270.362 103.877H270.179C270.179 103.492 270.527 103.18 270.956 103.18C271.384 103.18 271.733 103.492 271.733 103.877Z" fill="white"/>
        <path d="M269.299 103.888C269.445 103.888 269.563 103.767 269.563 103.617C269.563 103.467 269.445 103.346 269.299 103.346C269.153 103.346 269.035 103.467 269.035 103.617C269.035 103.767 269.153 103.888 269.299 103.888Z" fill="white"/>
        <path d="M271.155 103.888C271.301 103.888 271.419 103.767 271.419 103.617C271.419 103.467 271.301 103.346 271.155 103.346C271.009 103.346 270.891 103.467 270.891 103.617C270.891 103.767 271.009 103.888 271.155 103.888Z" fill="white"/>
        <path d="M270.026 104.578C269.809 104.578 269.608 104.464 269.515 104.287L269.675 104.197C269.738 104.315 269.875 104.39 270.025 104.39C270.176 104.39 270.313 104.314 270.375 104.197L270.536 104.287C270.443 104.464 270.243 104.578 270.026 104.578Z" fill="white"/>
        <path d="M273.319 107.189C272.858 107.41 272.339 107.468 271.843 107.354C271.433 107.26 271.056 107.051 270.755 106.749C270.946 106.83 271.15 106.871 271.356 106.871C271.712 106.871 272.059 106.757 272.35 106.545L272.203 106.335C271.805 106.628 271.258 106.699 270.827 106.499C270.401 106.302 270.161 105.882 270.145 105.311V105.127H269.893V105.159V105.309C269.878 105.881 269.637 106.302 269.211 106.499C268.78 106.699 268.232 106.629 267.836 106.334L267.688 106.545C267.979 106.756 268.326 106.87 268.682 106.87C268.888 106.871 269.092 106.83 269.282 106.749C268.982 107.051 268.605 107.26 268.195 107.353C267.699 107.468 267.18 107.41 266.72 107.188L266.612 107.423C266.95 107.586 267.319 107.67 267.692 107.669C267.88 107.669 268.067 107.648 268.25 107.606C268.812 107.478 269.314 107.156 269.671 106.694L269.673 106.692C269.757 106.579 269.831 106.458 269.893 106.331V107.665H270.146V106.333C270.208 106.459 270.282 106.579 270.365 106.692L270.367 106.694C270.725 107.156 271.227 107.478 271.788 107.606C271.971 107.648 272.158 107.67 272.346 107.67C272.72 107.67 273.089 107.586 273.427 107.423L273.319 107.189Z" fill="white"/>
    </g>
    <rect x="87" y="258.998" width="24" height="24" rx="12" fill="#B9F84E"/>
    <path d="M99.0773 262.598L90.6006 271.06L99.0773 279.523L107.554 271.06L99.0773 262.598ZM93.9695 271.06L99.0773 265.961L104.185 271.06L99.0773 276.16L93.9695 271.06Z" fill="#080808"/>
    <path d="M100.147 266.586L97.394 269.335C97.231 269.497 97.4303 269.877 97.7201 269.922L99.5947 270.23L99.9026 272.101C99.9479 272.39 100.328 272.589 100.491 272.427L103.244 269.678L100.156 266.595L100.147 266.586Z" fill="#080808"/>
    <rect x="201" y="180.998" width="24" height="24" rx="12" fill="#6860EF"/>
    <path d="M206.1 201.398C206.928 201.398 207.6 200.727 207.6 199.898C207.6 199.07 206.928 198.398 206.1 198.398C205.271 198.398 204.6 199.07 204.6 199.898C204.6 200.727 205.271 201.398 206.1 201.398Z" fill="#7E76F2"/>
    <path d="M220.993 187.161C220.575 187.347 220.249 187.674 220.062 188.092C220.017 188.232 219.785 188.232 219.736 188.092C219.55 187.674 219.223 187.347 218.805 187.161C218.665 187.115 218.665 186.883 218.805 186.835C219.223 186.649 219.55 186.322 219.736 185.904C219.782 185.764 220.014 185.764 220.062 185.904C220.249 186.322 220.575 186.649 220.993 186.835C221.133 186.88 221.133 187.112 220.993 187.161Z" fill="#E87C8A"/>
    <path d="M217.56 191.797C216.57 188.547 213.414 186.629 210.511 187.513C207.609 188.397 206.058 191.749 207.048 195C208.039 198.25 211.194 200.168 214.097 199.284C217 198.399 218.55 195.048 217.56 191.797Z" fill="#7E76F2"/>
    <path d="M216.688 197.876C216.26 198.378 215.033 198.957 214.261 199.214C213.96 199.315 213.662 199.134 213.561 198.833L213.446 198.512C213.343 198.206 213.464 197.875 213.732 197.699L215.656 196.479C215.875 196.339 216.165 196.328 216.363 196.502C216.748 196.843 217.097 197.374 216.68 197.872L216.688 197.876Z" fill="#7E76F2"/>
    <path d="M208.481 188.709C208.921 188.19 210.459 187.28 211.336 186.905C211.629 186.782 211.921 186.947 212.022 187.248L212.137 187.569C212.24 187.875 212.121 188.212 211.846 188.384L209.877 189.614C209.657 189.754 209.378 189.762 209.133 189.659C208.635 189.451 208.048 189.213 208.475 188.711L208.481 188.709Z" fill="#141414"/>
    <path d="M206.941 194.648C206.922 194.593 208.362 194.061 208.362 194.061L208.582 194.405L208.869 194.829L209.103 195.346L209.445 195.911L209.746 196.306L210.131 196.665L210.982 197.519L209.412 198.392C209.412 198.392 207.606 197.266 206.941 194.648Z" fill="#483EDB"/>
    <path d="M206.915 191.516L208.23 190.942L208.409 190.81L208.933 190.286C208.933 190.286 209.415 189.182 209.425 189.124C209.435 189.065 209.966 188.134 209.966 188.134L210.621 187.256C210.621 187.256 207.494 188.52 206.915 191.516Z" fill="#483EDB"/>
    <path d="M218.917 190.988C217.924 187.728 214.766 185.803 211.863 186.687C208.96 187.571 207.412 190.931 208.405 194.19C209.398 197.449 212.556 199.375 215.459 198.491C218.362 197.606 219.91 194.247 218.917 190.988Z" fill="#F0EDF9"/>
    <path d="M218.247 191.192C217.399 188.408 214.657 186.777 212.124 187.549C209.59 188.321 208.223 191.203 209.071 193.987C209.919 196.771 212.661 198.402 215.195 197.63C217.729 196.858 219.095 193.975 218.247 191.192Z" fill="#7E76F2"/>
    <path d="M209.647 193.796C209.335 192.768 209.365 191.636 209.74 190.625" stroke="white" stroke-width="0.150981" stroke-linecap="round" stroke-linejoin="round"/>
    <path d="M217.943 192.816C217.93 194.426 217.081 196.065 215.609 196.8" stroke="white" stroke-width="0.150981" stroke-linecap="round" stroke-linejoin="round"/>
    <defs>
        <linearGradient id="paint0_linear_20199_60702" x1="157.813" y1="148.169" x2="351.395" y2="373.981" gradientUnits="userSpaceOnUse">
            <stop stop-color="#DBE3E8"/>
            <stop offset="0.812301" stop-color="#DBE3E8" stop-opacity="0"/>
        </linearGradient>
        <radialGradient id="paint1_radial_20199_60702" cx="0" cy="0" r="1" gradientUnits="userSpaceOnUse" gradientTransform="translate(325.99 178.086) rotate(170.361) scale(5.68268 5.23352)">
            <stop stop-color="#8FD106"/>
            <stop offset="1" stop-color="#8FD106" stop-opacity="0"/>
        </radialGradient>
        <radialGradient id="paint2_radial_20199_60702" cx="0" cy="0" r="1" gradientUnits="userSpaceOnUse" gradientTransform="translate(233.918 4.00967) rotate(170.361) scale(2.84134 2.61676)">
            <stop stop-color="#8FD106"/>
            <stop offset="1" stop-color="#8FD106" stop-opacity="0"/>
        </radialGradient>
        <radialGradient id="paint3_radial_20199_60702" cx="0" cy="0" r="1" gradientUnits="userSpaceOnUse" gradientTransform="translate(230.395 1.1991) rotate(71.0626) scale(2.43115 2.3721)">
            <stop stop-color="#00D815"/>
            <stop offset="1" stop-color="#00D815" stop-opacity="0"/>
        </radialGradient>
        <clipPath id="clip0_20199_60702">
            <rect width="306" height="361" fill="white" transform="translate(0 199.158) rotate(-40.6054)"/>
        </clipPath>
        <clipPath id="clip1_20199_60702">
            <rect width="6.90337" height="6.90317" fill="white" transform="translate(266.611 100.643)"/>
        </clipPath>
    </defs>
</svg>
