<?xml version="1.0" standalone="no"?>
<!DOCTYPE svg PUBLIC "-//W3C//DTD SVG 20010904//EN"
 "http://www.w3.org/TR/2001/REC-SVG-20010904/DTD/svg10.dtd">
<svg version="1.0" xmlns="http://www.w3.org/2000/svg"
 width="700.000000pt" height="700.000000pt" viewBox="0 0 700.000000 700.000000"
 preserveAspectRatio="xMidYMid meet">
<metadata>
Created by potrace 1.14, written by Peter Selinger 2001-2017
</metadata>
<g transform="translate(0.000000,700.000000) scale(0.100000,-0.100000)"
fill="#000000" stroke="none">
<path d="M3302 6984 c-206 -44 -348 -202 -436 -484 -29 -95 -51 -202 -61 -300
-3 -36 -8 -83 -10 -105 -6 -49 -6 -370 0 -445 18 -261 52 -471 114 -710 34
-131 69 -232 118 -340 84 -184 145 -232 231 -180 41 25 50 48 57 152 3 46 7
108 10 138 2 30 7 89 10 130 3 41 8 98 11 125 2 28 6 75 9 105 9 100 16 185
20 215 2 17 6 59 10 95 10 106 13 132 20 193 l7 58 162 -5 c172 -5 254 -14
399 -46 187 -41 382 -111 543 -197 46 -23 85 -43 87 -43 5 0 -59 235 -67 248
-3 5 -7 19 -10 33 -2 13 -20 74 -39 134 -218 699 -492 1097 -833 1211 -94 32
-250 40 -352 18z"/>
<path d="M5778 5905 c-2 -1 -29 -5 -61 -9 -124 -13 -328 -98 -503 -212 -444
-285 -947 -853 -1105 -1249 -58 -144 -36 -217 69 -230 34 -4 44 2 282 170 58
41 240 164 405 275 l300 201 29 -33 c95 -107 236 -326 306 -473 84 -179 160
-416 186 -580 3 -22 7 -41 9 -43 3 -4 181 255 262 383 124 194 209 351 296
545 37 83 95 264 113 355 22 111 27 295 10 368 -7 32 -14 61 -15 65 -16 93
-98 227 -193 317 -80 76 -151 117 -232 135 -46 10 -152 20 -158 15z"/>
<path d="M1115 5854 c-173 -34 -280 -89 -390 -199 -235 -236 -252 -500 -51
-810 205 -315 623 -654 1097 -891 305 -152 610 -241 700 -204 54 23 81 96 54
150 -7 14 -55 64 -107 111 -165 153 -410 393 -631 616 l-87 89 71 89 c154 195
384 397 592 522 97 59 243 133 261 133 6 0 19 7 29 14 19 15 20 15 -298 142
-281 113 -596 207 -770 230 -27 3 -54 9 -59 12 -21 12 -343 9 -411 -4z"/>
<path d="M1160 3928 c-96 -55 -212 -124 -258 -154 -45 -30 -85 -54 -87 -54
-14 0 -286 -203 -355 -265 -262 -234 -405 -447 -448 -665 -16 -78 -7 -242 17
-320 75 -244 201 -352 486 -416 46 -10 353 -13 415 -4 189 28 186 27 262 45
35 8 74 16 88 19 41 8 237 66 272 81 18 7 35 13 38 13 9 1 43 14 170 64 380
150 753 392 795 514 11 33 11 44 -1 74 -28 68 -75 85 -179 64 -39 -8 -280 -45
-330 -50 -27 -3 -52 -7 -55 -9 -3 -2 -33 -6 -65 -10 -33 -3 -69 -8 -81 -10
-11 -3 -43 -7 -70 -10 -27 -3 -60 -7 -74 -10 -14 -2 -50 -7 -80 -10 -30 -3
-66 -8 -80 -10 -14 -3 -52 -7 -85 -10 -33 -3 -72 -8 -87 -11 -25 -5 -28 -2
-42 48 -24 85 -48 225 -62 368 -6 66 -6 297 0 360 13 138 18 167 52 340 3 14
12 47 20 74 7 27 14 51 14 53 0 9 -30 -6 -190 -99z"/>
<path d="M5117 3603 c-1 -1 -38 -4 -82 -7 -44 -4 -93 -8 -110 -11 -16 -3 -43
-7 -59 -10 -139 -22 -261 -63 -294 -98 -11 -12 -24 -34 -27 -49 -9 -36 11 -95
38 -113 12 -8 96 -37 187 -65 225 -71 596 -192 760 -249 l135 -47 -3 -45 c-9
-143 -135 -492 -250 -694 -50 -88 -178 -275 -201 -295 -3 -3 -23 -26 -43 -52
l-38 -46 43 3 c23 2 85 6 137 10 121 8 202 14 265 21 93 10 290 35 305 39 8 2
32 6 52 9 83 13 235 49 341 83 348 110 575 282 671 510 26 62 29 74 47 178 24
135 -13 312 -78 383 -7 7 -13 17 -13 21 0 23 -217 211 -243 211 -4 0 -22 11
-42 24 -97 66 -459 191 -640 222 -16 2 -55 9 -85 14 -224 38 -390 53 -623 54
-82 1 -149 0 -150 -1z"/>
<path d="M4174 2552 c-27 -22 -44 -54 -44 -85 0 -13 40 -127 89 -253 49 -126
117 -305 151 -399 33 -93 64 -177 67 -185 32 -88 92 -265 90 -266 -11 -11
-203 -99 -277 -127 -92 -35 -247 -82 -302 -91 -15 -3 -31 -7 -35 -9 -5 -3 -28
-8 -53 -11 -25 -3 -55 -8 -67 -10 -69 -14 -176 -21 -310 -21 -133 0 -150 -2
-140 -15 81 -105 441 -483 563 -592 250 -222 510 -373 728 -423 230 -53 461
10 621 169 110 110 151 216 154 402 6 318 -159 761 -446 1203 -189 290 -432
562 -607 679 -86 58 -141 68 -182 34z"/>
<path d="M3224 2305 c-16 -6 -34 -18 -40 -26 -6 -8 -73 -122 -149 -254 -140
-245 -285 -491 -382 -647 l-54 -88 -32 14 c-45 20 -119 55 -137 65 -237 140
-349 223 -497 369 -116 114 -162 167 -241 275 l-50 68 -11 -63 c-6 -35 -13
-81 -16 -103 -3 -22 -10 -62 -15 -90 -10 -52 -19 -122 -45 -335 -25 -208 -25
-626 0 -720 2 -8 6 -33 10 -55 28 -195 126 -406 241 -519 157 -155 393 -229
569 -177 104 30 238 122 340 234 120 130 273 379 378 614 34 75 55 130 113
298 77 224 143 500 160 670 3 33 8 71 10 85 6 40 5 221 -2 270 -15 103 -73
148 -150 115z"/>
</g>
</svg>
