<svg width="206" height="52" viewBox="0 0 206 52" fill="none" xmlns="http://www.w3.org/2000/svg">
<rect width="206" height="52" fill="white"/>
<g clip-path="url(#clip0_9484_25675)">
<path d="M8.95055 24.8501L2.8312 37.714C2.66594 38.0614 2.78413 38.4786 3.10636 38.6853L12.8169 44.9162L17.7994 48.1209L18.4986 48.5681L19.0781 48.9395C19.3253 49.0979 19.6411 49.0975 19.8879 48.9385L20.4631 48.5681L21.1474 48.1309L26.135 44.9262L35.8256 38.6957C36.1541 38.4845 36.2691 38.0555 36.091 37.7059L29.3746 24.5273" stroke="#0177E5" stroke-width="2.01712"/>
<path d="M15.4305 23.6667L13.9761 36.5312M24.6169 36.7728L23.575 23.3164L24.6169 36.7728Z" stroke="#0177E5" stroke-width="2.01712"/>
<path d="M21.7434 38.6402L21.424 34.9836C21.326 33.8632 20.3962 33.0039 19.2816 33.0039C18.167 33.0039 17.2371 33.8632 17.1392 34.9836L16.8198 38.6402" stroke="#0177E5" stroke-width="2.01712"/>
<path d="M16.5734 16.3572L9.03174 10.6521L9.80205 4.375L19.2815 13.6245" stroke="#0177E5" stroke-width="2.01712"/>
<path d="M19.1528 13.3671L25.2774 6.20703L31.4977 6.98437L22.2356 16.1112" stroke="#0177E5" stroke-width="2.01712"/>
<path d="M22.2356 15.8633L29.7247 22.2443L28.9544 28.5215L19.2815 18.8444" stroke="#0177E5" stroke-width="2.01712"/>
<path d="M19.2815 18.8444L13.4631 25.9745L7.24292 25.1972L16.8197 15.8633" stroke="#0177E5" stroke-width="2.01712"/>
<path d="M18.602 18.676C20.0065 19.1012 21.4866 18.2968 21.9079 16.8794C22.3292 15.462 21.5321 13.9684 20.1276 13.5432C18.7231 13.1181 17.2429 13.9225 16.8217 15.3398C16.4004 16.7572 17.1974 18.2509 18.602 18.676Z" stroke="#0177E5" stroke-width="2.01712"/>
<path d="M2.9209 38.1661C4.80016 36.6608 7.17777 35.7617 9.76346 35.7617C13.8405 35.7617 17.4002 37.9971 19.3047 41.3196" stroke="#0177E5" stroke-width="2.01544"/>
<path d="M5.09033 39.9003C6.4236 38.9892 8.03184 38.457 9.7633 38.457C13.7412 38.457 17.0689 41.2659 17.9053 45.0254" stroke="#0177E5" stroke-width="2.01544"/>
<path d="M15.4378 46.8747C15.4378 43.7121 12.8973 41.1484 9.76341 41.1484C9.05847 41.1484 8.38348 41.2782 7.76074 41.5153" stroke="#0177E5" stroke-width="2.01544"/>
<path d="M17.8184 48.0563C17.7891 47.7234 17.7742 47.3864 17.7742 47.0458C17.7742 40.8138 22.7804 35.7617 28.9559 35.7617C31.6875 35.7617 34.1903 36.7501 36.1323 38.3919" stroke="#0177E5" stroke-width="2.01544"/>
<path d="M20.5487 48.3938C20.4802 47.9548 20.4446 47.5048 20.4446 47.0464C20.4446 42.3026 24.2553 38.457 28.9561 38.457C30.7496 38.457 32.4136 39.0169 33.7858 39.9728" stroke="#0177E5" stroke-width="2.01544"/>
<path d="M23.1147 47.0431C23.1147 43.7875 25.73 41.1484 28.956 41.1484C29.7996 41.1484 30.6014 41.3289 31.3257 41.6537" stroke="#0177E5" stroke-width="2.01544"/>
<path d="M49.4028 34.0702V18.6367H52.8038V34.0702H49.4028ZM52.0023 34.0702V31.0972H60.3857V34.0702H52.0023ZM52.0023 27.6214V24.7576H59.6275V27.6214H52.0023ZM52.0023 21.5879V18.6367H60.2774V21.5879H52.0023Z" fill="#0177E5"/>
<path d="M66.0124 34.0702V18.8553H69.4134V34.0702H66.0124ZM61.2251 21.6316V18.6367H74.2008V21.6316H61.2251Z" fill="#0177E5"/>
<path d="M76.0999 34.0702V18.6367H79.5008V34.0702H76.0999ZM85.5662 34.0702V18.6367H88.9889V34.0702H85.5662ZM78.1361 27.6214V24.6483H86.6927V27.6214H78.1361Z" fill="#0177E5"/>
<path d="M91.1216 34.0696L97.2736 18.8984H98.7467L104.877 34.0696H102.668L97.6202 21.2375H98.3784L93.2878 34.0696H91.1216ZM94.046 30.6375V28.8449H101.953V30.6375H94.046Z" fill="#0177E5"/>
<path d="M106.963 34.0672V23.6834H108.913V34.0672H106.963ZM113.917 34.0672V27.7932C113.917 27.0208 113.678 26.416 113.202 25.9788C112.74 25.527 112.155 25.3011 111.447 25.3011C110.971 25.3011 110.544 25.4031 110.169 25.6072C109.794 25.8112 109.491 26.0954 109.259 26.4597C109.028 26.824 108.913 27.2612 108.913 27.7714L108.111 27.3779C108.111 26.5909 108.277 25.9059 108.609 25.323C108.956 24.74 109.426 24.2882 110.018 23.9676C110.609 23.6324 111.274 23.4648 112.01 23.4648C112.732 23.4648 113.382 23.6251 113.96 23.9458C114.552 24.2664 115.014 24.7182 115.346 25.3011C115.693 25.884 115.866 26.5763 115.866 27.3779V34.0672H113.917ZM120.87 34.0672V27.7932C120.87 27.0208 120.632 26.416 120.155 25.9788C119.693 25.527 119.116 25.3011 118.422 25.3011C117.946 25.3011 117.513 25.4031 117.123 25.6072C116.747 25.8112 116.444 26.0954 116.213 26.4597C115.982 26.824 115.866 27.2612 115.866 27.7714L114.762 27.3779C114.805 26.5763 115.014 25.8914 115.39 25.323C115.78 24.74 116.278 24.2882 116.884 23.9676C117.491 23.6324 118.155 23.4648 118.877 23.4648C119.628 23.4648 120.3 23.6251 120.892 23.9458C121.484 24.2664 121.953 24.7182 122.3 25.3011C122.661 25.884 122.842 26.5836 122.842 27.3997V34.0672H120.87Z" fill="#0177E5"/>
<path d="M128.766 34.2858C128.188 34.2858 127.639 34.2129 127.119 34.0672C126.613 33.9068 126.144 33.6882 125.711 33.4114C125.278 33.1198 124.902 32.7774 124.585 32.3839L125.841 31.116C126.216 31.5823 126.65 31.9321 127.141 32.1653C127.632 32.3839 128.181 32.4932 128.787 32.4932C129.394 32.4932 129.863 32.3912 130.195 32.1872C130.527 31.9686 130.693 31.6698 130.693 31.2909C130.693 30.9119 130.556 30.6205 130.282 30.4165C130.022 30.1979 129.682 30.023 129.264 29.8918C128.845 29.7461 128.397 29.6076 127.921 29.4765C127.458 29.3307 127.018 29.1486 126.599 28.93C126.18 28.7114 125.834 28.4126 125.56 28.0337C125.3 27.6547 125.17 27.1519 125.17 26.5253C125.17 25.8986 125.321 25.3594 125.625 24.9076C125.928 24.4412 126.346 24.0842 126.881 23.8365C127.43 23.5887 128.086 23.4648 128.852 23.4648C129.661 23.4648 130.376 23.6105 130.997 23.9021C131.632 24.1789 132.152 24.6016 132.556 25.17L131.3 26.4379C131.011 26.0589 130.65 25.7675 130.217 25.5634C129.798 25.3594 129.321 25.2574 128.787 25.2574C128.224 25.2574 127.791 25.3594 127.487 25.5634C127.198 25.7529 127.054 26.0225 127.054 26.3723C127.054 26.7221 127.184 26.9916 127.444 27.1811C127.704 27.3705 128.043 27.5309 128.462 27.6621C128.895 27.7932 129.343 27.9316 129.805 28.0774C130.267 28.2086 130.708 28.3907 131.127 28.6239C131.545 28.8571 131.885 29.1704 132.145 29.5639C132.419 29.9574 132.556 30.4747 132.556 31.116C132.556 32.0924 132.21 32.8648 131.517 33.4332C130.838 34.0016 129.921 34.2858 128.766 34.2858Z" fill="#0177E5"/>
<path d="M136.32 34.0699V19.3359H138.27V34.0699H136.32ZM133.786 25.4787V23.6862H140.804V25.4787H133.786Z" fill="#0177E5"/>
<path d="M147.163 34.2858C146.137 34.2858 145.213 34.0526 144.39 33.5862C143.567 33.1053 142.917 32.4568 142.44 31.6407C141.964 30.8245 141.726 29.8991 141.726 28.8644C141.726 27.8442 141.956 26.9261 142.419 26.11C142.895 25.2938 143.531 24.6526 144.325 24.1862C145.134 23.7053 146.036 23.4648 147.033 23.4648C147.986 23.4648 148.823 23.6834 149.546 24.1207C150.282 24.5579 150.852 25.1626 151.257 25.9351C151.676 26.7075 151.885 27.5819 151.885 28.5583C151.885 28.704 151.878 28.8644 151.863 29.0393C151.849 29.1996 151.82 29.389 151.777 29.6076H143.09V27.9681H150.737L150.022 28.6021C150.022 27.9025 149.899 27.3123 149.654 26.8314C149.408 26.3358 149.061 25.9569 148.614 25.6946C148.166 25.4177 147.625 25.2793 146.99 25.2793C146.325 25.2793 145.74 25.425 145.235 25.7165C144.729 26.0079 144.339 26.416 144.065 26.9407C143.791 27.4653 143.654 28.0847 143.654 28.7988C143.654 29.5275 143.798 30.1687 144.087 30.7225C144.375 31.2617 144.787 31.6844 145.322 31.9904C145.855 32.2819 146.47 32.4276 147.163 32.4276C147.74 32.4276 148.268 32.3256 148.744 32.1216C149.235 31.9175 149.654 31.6115 150.001 31.2034L151.257 32.4932C150.766 33.0761 150.159 33.5207 149.437 33.8267C148.73 34.1327 147.971 34.2858 147.163 34.2858Z" fill="#0177E5"/>
<path d="M154.011 34.0672V23.6834H155.96V34.0672H154.011ZM155.96 28.143L155.224 27.8151C155.224 26.4889 155.527 25.4323 156.134 24.6453C156.74 23.8583 157.614 23.4648 158.755 23.4648C159.275 23.4648 159.744 23.5596 160.163 23.749C160.581 23.9239 160.971 24.2226 161.333 24.6453L160.054 25.9788C159.838 25.7456 159.6 25.578 159.34 25.476C159.08 25.374 158.776 25.323 158.43 25.323C157.708 25.323 157.115 25.5561 156.654 26.0225C156.192 26.4889 155.96 27.1957 155.96 28.143Z" fill="#0177E5"/>
<path d="M166.721 34.2879C165.768 34.2879 164.915 34.0547 164.165 33.5884C163.414 33.1074 162.814 32.4589 162.367 31.6428C161.934 30.8266 161.717 29.9085 161.717 28.8884C161.717 27.8682 161.934 26.9501 162.367 26.134C162.814 25.3178 163.414 24.6693 164.165 24.1884C164.915 23.7074 165.768 23.467 166.721 23.467C167.486 23.467 168.179 23.6345 168.801 23.9698C169.421 24.2904 169.919 24.7422 170.295 25.3251C170.685 25.8935 170.902 26.5566 170.945 27.3144V30.4405C170.902 31.1837 170.692 31.8468 170.317 32.4298C169.941 33.0127 169.443 33.4718 168.822 33.807C168.201 34.1276 167.501 34.2879 166.721 34.2879ZM167.046 32.4298C167.696 32.4298 168.259 32.2768 168.736 31.9707C169.226 31.6647 169.609 31.2493 169.884 30.7247C170.158 30.1854 170.295 29.5733 170.295 28.8884C170.295 28.1743 170.151 27.5549 169.862 27.0302C169.587 26.5056 169.205 26.0902 168.714 25.7842C168.237 25.4781 167.674 25.3251 167.024 25.3251C166.374 25.3251 165.804 25.4781 165.313 25.7842C164.822 26.0902 164.432 26.5129 164.143 27.0521C163.869 27.5768 163.732 28.1815 163.732 28.8665C163.732 29.5661 163.869 30.1854 164.143 30.7247C164.432 31.2493 164.822 31.6647 165.313 31.9707C165.818 32.2768 166.396 32.4298 167.046 32.4298ZM172.137 34.0693H170.165V31.2712L170.534 28.7354L170.165 26.2214V18.4609H172.137V34.0693Z" fill="#0177E5"/>
<path d="M179.351 34.2858C178.412 34.2858 177.56 34.0526 176.794 33.5862C176.029 33.1053 175.423 32.4568 174.975 31.6407C174.542 30.8245 174.325 29.9064 174.325 28.8862C174.325 27.8661 174.542 26.9479 174.975 26.1318C175.423 25.3157 176.022 24.6672 176.773 24.1862C177.538 23.7053 178.397 23.4648 179.351 23.4648C180.13 23.4648 180.824 23.6324 181.43 23.9676C182.051 24.2882 182.55 24.74 182.925 25.323C183.3 25.8914 183.51 26.5544 183.553 27.3123V30.4383C183.51 31.1816 183.3 31.8447 182.925 32.4276C182.564 33.0105 182.073 33.4696 181.452 33.8048C180.845 34.1254 180.145 34.2858 179.351 34.2858ZM179.676 32.4276C180.643 32.4276 181.423 32.0997 182.015 31.4439C182.607 30.7735 182.903 29.9209 182.903 28.8862C182.903 28.1721 182.766 27.5528 182.492 27.0281C182.232 26.4889 181.856 26.0735 181.365 25.7821C180.874 25.476 180.304 25.323 179.654 25.323C179.004 25.323 178.426 25.476 177.921 25.7821C177.43 26.0881 177.04 26.5107 176.751 27.05C176.477 27.5746 176.34 28.1794 176.34 28.8644C176.34 29.5639 176.477 30.1833 176.751 30.7225C177.04 31.2472 177.437 31.6625 177.943 31.9686C178.448 32.2746 179.026 32.4276 179.676 32.4276ZM182.773 34.0672V31.269L183.141 28.7332L182.773 26.2193V23.6834H184.744V34.0672H182.773Z" fill="#0177E5"/>
<path d="M187.583 34.0672V23.6834H189.532V34.0672H187.583ZM194.536 34.0672V27.7932C194.536 27.0208 194.298 26.416 193.821 25.9788C193.36 25.527 192.775 25.3011 192.067 25.3011C191.59 25.3011 191.165 25.4031 190.789 25.6072C190.413 25.8112 190.11 26.0954 189.879 26.4597C189.648 26.824 189.532 27.2612 189.532 27.7714L188.731 27.3779C188.731 26.5909 188.897 25.9059 189.229 25.323C189.576 24.74 190.045 24.2882 190.637 23.9676C191.23 23.6324 191.894 23.4648 192.63 23.4648C193.352 23.4648 194.002 23.6251 194.58 23.9458C195.172 24.2664 195.634 24.7182 195.966 25.3011C196.313 25.884 196.486 26.5763 196.486 27.3779V34.0672H194.536ZM201.49 34.0672V27.7932C201.49 27.0208 201.252 26.416 200.775 25.9788C200.313 25.527 199.735 25.3011 199.042 25.3011C198.566 25.3011 198.132 25.4031 197.742 25.6072C197.367 25.8112 197.064 26.0954 196.833 26.4597C196.602 26.824 196.486 27.2612 196.486 27.7714L195.381 27.3779C195.424 26.5763 195.634 25.8914 196.009 25.323C196.399 24.74 196.898 24.2882 197.504 23.9676C198.111 23.6324 198.775 23.4648 199.497 23.4648C200.248 23.4648 200.92 23.6251 201.512 23.9458C202.104 24.2664 202.573 24.7182 202.92 25.3011C203.281 25.884 203.461 26.5836 203.461 27.3997V34.0672H201.49Z" fill="#0177E5"/>
</g>
<defs>
<clipPath id="clip0_9484_25675">
<rect width="202" height="47" fill="white" transform="translate(2 3)"/>
</clipPath>
</defs>
</svg>
