<svg width="324" height="180" viewBox="0 0 324 180" fill="none" xmlns="http://www.w3.org/2000/svg">
<g clip-path="url(#clip0_2_603)">
<g filter="url(#filter0_d_2_603)">
<path d="M0 0H324V180H0V0Z" fill="url(#paint0_linear_2_603)"/>
</g>
<rect x="41" y="65" width="50" height="50" rx="25" fill="white"/>
<g filter="url(#filter1_d_2_603)">
<path fill-rule="evenodd" clip-rule="evenodd" d="M62.3252 82.0613C62.2382 82.3716 62.5168 82.6489 62.8331 82.5867C63.8561 82.3855 64.8341 82.1932 65.4596 82.0701C65.9165 81.9802 66.3852 81.9802 66.8411 82.0701L69.3305 82.5596C69.6312 82.6187 69.8959 82.3547 69.8137 82.0595V82.0595C69.5815 81.2257 69.208 80.4776 68.6419 79.9442C68.0992 79.433 67.3065 79.0485 66.0732 79.0485C64.8399 79.0485 64.0458 79.4331 63.5016 79.9448C62.934 80.4787 62.559 81.2273 62.3252 82.0613V82.0613ZM58.6195 83.4151C59.3914 83.2633 60.0462 82.6077 60.2298 81.8427C60.2572 81.7286 60.287 81.6139 60.3192 81.499C60.6143 80.4463 61.1374 79.3083 62.0744 78.4272C63.0348 77.524 64.3518 76.9652 66.0732 76.9652C67.7945 76.9652 69.1111 77.524 70.0704 78.4278C71.0063 79.3094 71.5275 80.4479 71.8206 81.5007C71.8252 81.5172 71.8298 81.5338 71.8343 81.5503C72.0831 82.4636 72.7603 83.234 73.6891 83.4166V83.4166C74.145 83.5574 74.4559 83.9785 74.4559 84.4544V85.5821C74.4559 85.7435 74.5867 85.8743 74.748 85.8743V85.8743C75.2246 85.8743 75.6119 86.2593 75.6119 86.7352V86.7352C75.6119 87.1696 75.9687 87.5218 76.4032 87.5218V87.5218C76.7012 87.5218 76.9434 87.7632 76.9434 88.0603V92.4782C76.9434 92.7752 76.7012 93.0166 76.4032 93.0166V93.0166C75.9687 93.0166 75.6109 93.3688 75.6109 93.8032V93.8032C75.6109 94.2781 75.2246 94.6641 74.7471 94.6641V94.6641C74.578 94.6641 74.4393 94.7983 74.4244 94.9668C74.0039 99.7385 69.2328 102.238 67.1323 103.114C66.5029 103.376 65.7969 103.376 65.1674 103.114C63.0261 102.222 58.1093 99.6407 57.8557 94.6859C57.8551 94.6739 57.8452 94.6641 57.8331 94.6641V94.6641C57.4878 94.6641 57.1894 94.462 57.0512 94.1696C56.9618 93.9807 56.7998 93.8032 56.5908 93.8032V93.8032C56.0632 93.8032 55.6357 93.3772 55.6357 92.8514V87.687C55.6357 87.1612 56.0632 86.7352 56.5908 86.7352V86.7352C56.7998 86.7352 56.9619 86.5578 57.0512 86.3688C57.1893 86.0767 57.4873 85.8743 57.8331 85.8743V85.8743C57.8396 85.8743 57.8449 85.869 57.8449 85.8625V84.4544C57.8449 84.011 58.1147 83.6159 58.5204 83.4495C58.5801 83.4249 58.5561 83.4276 58.6195 83.4151V83.4151ZM62.1621 94.7687C62.7416 94.7687 63.2112 94.3006 63.2112 93.7231V92.3111C63.2112 91.7335 62.7416 91.2655 62.1621 91.2655H61.8846C61.3051 91.2655 60.8354 91.7335 60.8354 92.3111V93.7231C60.8354 94.3006 61.3051 94.7687 61.8846 94.7687H62.1621ZM70.1367 94.7687H70.4141C70.9936 94.7687 71.4633 94.3006 71.4633 93.7231V92.3111C71.4633 91.7335 70.9936 91.2655 70.4141 91.2655H70.1367C69.5572 91.2655 69.0875 91.7335 69.0875 92.3111V93.7231C69.0875 94.3006 69.5572 94.7687 70.1367 94.7687Z" fill="#4940E0"/>
</g>
<path d="M112.843 99C112.576 99 112.359 98.925 112.193 98.775C112.043 98.625 111.951 98.4417 111.918 98.225L109.068 82.2C109.051 82.1667 109.043 82.1333 109.043 82.1C109.043 82.0667 109.043 82.0417 109.043 82.025C109.043 81.8917 109.093 81.775 109.193 81.675C109.293 81.5583 109.418 81.5 109.568 81.5H112.193C112.626 81.5 112.868 81.675 112.918 82.025L114.793 92.6L116.818 86.025C116.868 85.8917 116.951 85.75 117.068 85.6C117.184 85.45 117.376 85.375 117.643 85.375H119.218C119.484 85.375 119.676 85.45 119.793 85.6C119.909 85.75 119.984 85.8917 120.018 86.025L122.068 92.575L123.918 82.025C123.968 81.675 124.218 81.5 124.668 81.5H127.293C127.443 81.5 127.568 81.5583 127.668 81.675C127.768 81.775 127.818 81.8917 127.818 82.025C127.818 82.0417 127.818 82.0667 127.818 82.1C127.818 82.1333 127.809 82.1667 127.793 82.2L124.943 98.225C124.909 98.4417 124.809 98.625 124.643 98.775C124.493 98.925 124.284 99 124.018 99H121.993C121.726 99 121.518 98.9333 121.368 98.8C121.234 98.65 121.143 98.5 121.093 98.35L118.418 90.6L115.768 98.35C115.718 98.5 115.618 98.65 115.468 98.8C115.334 98.9333 115.126 99 114.843 99H112.843ZM137.329 99.25C135.812 99.25 134.504 99 133.404 98.5C132.304 98 131.445 97.25 130.829 96.25C130.212 95.2333 129.879 93.9583 129.829 92.425C129.812 91.7083 129.804 91 129.804 90.3C129.804 89.5833 129.812 88.8583 129.829 88.125C129.879 86.625 130.212 85.3667 130.829 84.35C131.462 83.3167 132.329 82.5417 133.429 82.025C134.545 81.5083 135.845 81.25 137.329 81.25C138.795 81.25 140.079 81.5083 141.179 82.025C142.295 82.5417 143.17 83.3167 143.804 84.35C144.437 85.3667 144.77 86.625 144.804 88.125C144.837 88.8583 144.854 89.5833 144.854 90.3C144.854 91 144.837 91.7083 144.804 92.425C144.754 93.9583 144.42 95.2333 143.804 96.25C143.187 97.25 142.329 98 141.229 98.5C140.129 99 138.829 99.25 137.329 99.25ZM137.329 96.025C138.295 96.025 139.087 95.7333 139.704 95.15C140.337 94.55 140.67 93.6 140.704 92.3C140.737 91.5667 140.754 90.8833 140.754 90.25C140.754 89.6 140.737 88.9167 140.704 88.2C140.687 87.3333 140.529 86.625 140.229 86.075C139.929 85.525 139.529 85.125 139.029 84.875C138.545 84.6083 137.979 84.475 137.329 84.475C136.679 84.475 136.104 84.6083 135.604 84.875C135.104 85.125 134.704 85.525 134.404 86.075C134.12 86.625 133.962 87.3333 133.929 88.2C133.912 88.9167 133.904 89.6 133.904 90.25C133.904 90.8833 133.912 91.5667 133.929 92.3C133.979 93.6 134.312 94.55 134.929 95.15C135.545 95.7333 136.345 96.025 137.329 96.025ZM148.582 99C148.398 99 148.248 98.9417 148.132 98.825C148.015 98.7083 147.957 98.5583 147.957 98.375V82.125C147.957 81.9417 148.015 81.7917 148.132 81.675C148.248 81.5583 148.398 81.5 148.582 81.5H155.207C157.29 81.5 158.932 81.9833 160.132 82.95C161.332 83.9 161.932 85.275 161.932 87.075C161.932 88.2917 161.64 89.3083 161.057 90.125C160.473 90.9417 159.69 91.55 158.707 91.95L162.232 98.2C162.282 98.3 162.307 98.3917 162.307 98.475C162.307 98.6083 162.257 98.7333 162.157 98.85C162.057 98.95 161.932 99 161.782 99H159.007C158.707 99 158.482 98.925 158.332 98.775C158.182 98.6083 158.073 98.4583 158.007 98.325L154.957 92.6H151.932V98.375C151.932 98.5583 151.873 98.7083 151.757 98.825C151.64 98.9417 151.49 99 151.307 99H148.582ZM151.932 89.425H155.132C156.048 89.425 156.723 89.2167 157.157 88.8C157.607 88.3833 157.832 87.8 157.832 87.05C157.832 86.3 157.615 85.7083 157.182 85.275C156.748 84.8417 156.065 84.625 155.132 84.625H151.932V89.425ZM165.623 99C165.439 99 165.289 98.9417 165.173 98.825C165.056 98.7083 164.998 98.5583 164.998 98.375V82.125C164.998 81.9417 165.056 81.7917 165.173 81.675C165.289 81.5583 165.439 81.5 165.623 81.5H168.398C168.581 81.5 168.731 81.5583 168.848 81.675C168.964 81.7917 169.023 81.9417 169.023 82.125V95.65H176.773C176.956 95.65 177.106 95.7083 177.223 95.825C177.339 95.9417 177.398 96.0917 177.398 96.275V98.375C177.398 98.5583 177.339 98.7083 177.223 98.825C177.106 98.9417 176.956 99 176.773 99H165.623ZM180.32 99C180.137 99 179.987 98.9417 179.87 98.825C179.753 98.7083 179.695 98.5583 179.695 98.375V82.125C179.695 81.9417 179.753 81.7917 179.87 81.675C179.987 81.5583 180.137 81.5 180.32 81.5H186.595C188.262 81.5 189.653 81.7667 190.77 82.3C191.887 82.8167 192.737 83.5833 193.32 84.6C193.92 85.6 194.237 86.8417 194.27 88.325C194.287 89.0583 194.295 89.7 194.295 90.25C194.295 90.8 194.287 91.4333 194.27 92.15C194.22 93.7 193.912 94.9833 193.345 96C192.778 97.0167 191.945 97.775 190.845 98.275C189.745 98.7583 188.37 99 186.72 99H180.32ZM183.67 95.775H186.595C187.428 95.775 188.112 95.65 188.645 95.4C189.178 95.15 189.57 94.7583 189.82 94.225C190.087 93.675 190.228 92.9667 190.245 92.1C190.262 91.6167 190.27 91.1833 190.27 90.8C190.287 90.4167 190.287 90.0333 190.27 89.65C190.27 89.2667 190.262 88.8417 190.245 88.375C190.212 87.125 189.887 86.2083 189.27 85.625C188.67 85.025 187.737 84.725 186.47 84.725H183.67V95.775ZM203.562 99C203.379 99 203.229 98.9417 203.112 98.825C202.995 98.7083 202.937 98.5583 202.937 98.375V82.125C202.937 81.9417 202.995 81.7917 203.112 81.675C203.229 81.5583 203.379 81.5 203.562 81.5H206.387C206.57 81.5 206.72 81.5583 206.837 81.675C206.954 81.7917 207.012 81.9417 207.012 82.125V98.375C207.012 98.5583 206.954 98.7083 206.837 98.825C206.72 98.9417 206.57 99 206.387 99H203.562ZM211.326 99C211.142 99 210.992 98.9417 210.876 98.825C210.759 98.7083 210.701 98.5583 210.701 98.375V82.125C210.701 81.9417 210.759 81.7917 210.876 81.675C210.992 81.5583 211.142 81.5 211.326 81.5H217.601C219.267 81.5 220.659 81.7667 221.776 82.3C222.892 82.8167 223.742 83.5833 224.326 84.6C224.926 85.6 225.242 86.8417 225.276 88.325C225.292 89.0583 225.301 89.7 225.301 90.25C225.301 90.8 225.292 91.4333 225.276 92.15C225.226 93.7 224.917 94.9833 224.351 96C223.784 97.0167 222.951 97.775 221.851 98.275C220.751 98.7583 219.376 99 217.726 99H211.326ZM214.676 95.775H217.601C218.434 95.775 219.117 95.65 219.651 95.4C220.184 95.15 220.576 94.7583 220.826 94.225C221.092 93.675 221.234 92.9667 221.251 92.1C221.267 91.6167 221.276 91.1833 221.276 90.8C221.292 90.4167 221.292 90.0333 221.276 89.65C221.276 89.2667 221.267 88.8417 221.251 88.375C221.217 87.125 220.892 86.2083 220.276 85.625C219.676 85.025 218.742 84.725 217.476 84.725H214.676V95.775ZM234.568 99C234.385 99 234.235 98.9417 234.118 98.825C234.001 98.7083 233.943 98.5583 233.943 98.375V82.125C233.943 81.9417 234.001 81.7917 234.118 81.675C234.235 81.5583 234.385 81.5 234.568 81.5H241.993C243.376 81.5 244.51 81.7 245.393 82.1C246.276 82.5 246.926 83.0667 247.343 83.8C247.776 84.5333 247.993 85.3917 247.993 86.375C247.993 86.9917 247.876 87.5333 247.643 88C247.426 88.4667 247.151 88.85 246.818 89.15C246.501 89.45 246.193 89.675 245.893 89.825C246.543 90.125 247.11 90.625 247.593 91.325C248.093 92.0083 248.343 92.825 248.343 93.775C248.343 94.825 248.11 95.7417 247.643 96.525C247.176 97.3083 246.485 97.9167 245.568 98.35C244.651 98.7833 243.535 99 242.218 99H234.568ZM237.918 96.075H241.743C242.56 96.075 243.176 95.85 243.593 95.4C244.01 94.9333 244.218 94.3833 244.218 93.75C244.218 93.1 244.001 92.5583 243.568 92.125C243.151 91.675 242.543 91.45 241.743 91.45H237.918V96.075ZM237.918 88.575H241.518C242.301 88.575 242.885 88.3833 243.268 88C243.668 87.6 243.868 87.0917 243.868 86.475C243.868 85.8583 243.668 85.3667 243.268 85C242.885 84.6167 242.301 84.425 241.518 84.425H237.918V88.575ZM258.276 99.25C256.759 99.25 255.451 99 254.351 98.5C253.251 98 252.392 97.25 251.776 96.25C251.159 95.2333 250.826 93.9583 250.776 92.425C250.759 91.7083 250.751 91 250.751 90.3C250.751 89.5833 250.759 88.8583 250.776 88.125C250.826 86.625 251.159 85.3667 251.776 84.35C252.409 83.3167 253.276 82.5417 254.376 82.025C255.492 81.5083 256.792 81.25 258.276 81.25C259.742 81.25 261.026 81.5083 262.126 82.025C263.242 82.5417 264.117 83.3167 264.751 84.35C265.384 85.3667 265.717 86.625 265.751 88.125C265.784 88.8583 265.801 89.5833 265.801 90.3C265.801 91 265.784 91.7083 265.751 92.425C265.701 93.9583 265.367 95.2333 264.751 96.25C264.134 97.25 263.276 98 262.176 98.5C261.076 99 259.776 99.25 258.276 99.25ZM258.276 96.025C259.242 96.025 260.034 95.7333 260.651 95.15C261.284 94.55 261.617 93.6 261.651 92.3C261.684 91.5667 261.701 90.8833 261.701 90.25C261.701 89.6 261.684 88.9167 261.651 88.2C261.634 87.3333 261.476 86.625 261.176 86.075C260.876 85.525 260.476 85.125 259.976 84.875C259.492 84.6083 258.926 84.475 258.276 84.475C257.626 84.475 257.051 84.6083 256.551 84.875C256.051 85.125 255.651 85.525 255.351 86.075C255.067 86.625 254.909 87.3333 254.876 88.2C254.859 88.9167 254.851 89.6 254.851 90.25C254.851 90.8833 254.859 91.5667 254.876 92.3C254.926 93.6 255.259 94.55 255.876 95.15C256.492 95.7333 257.292 96.025 258.276 96.025ZM273.086 99C272.903 99 272.753 98.9417 272.636 98.825C272.519 98.7083 272.461 98.5583 272.461 98.375V84.975H267.911C267.744 84.975 267.603 84.9167 267.486 84.8C267.369 84.6833 267.311 84.5417 267.311 84.375V82.125C267.311 81.9417 267.369 81.7917 267.486 81.675C267.603 81.5583 267.744 81.5 267.911 81.5H281.011C281.194 81.5 281.344 81.5583 281.461 81.675C281.578 81.7917 281.636 81.9417 281.636 82.125V84.375C281.636 84.5417 281.578 84.6833 281.461 84.8C281.344 84.9167 281.194 84.975 281.011 84.975H276.486V98.375C276.486 98.5583 276.428 98.7083 276.311 98.825C276.194 98.9417 276.044 99 275.861 99H273.086Z" fill="white"/>
</g>
<defs>
<filter id="filter0_d_2_603" x="-12" y="-8" width="348" height="204" filterUnits="userSpaceOnUse" color-interpolation-filters="sRGB">
<feFlood flood-opacity="0" result="BackgroundImageFix"/>
<feColorMatrix in="SourceAlpha" type="matrix" values="0 0 0 0 0 0 0 0 0 0 0 0 0 0 0 0 0 0 127 0" result="hardAlpha"/>
<feOffset dy="4"/>
<feGaussianBlur stdDeviation="6"/>
<feComposite in2="hardAlpha" operator="out"/>
<feColorMatrix type="matrix" values="0 0 0 0 0.419608 0 0 0 0 0.388235 0 0 0 0 0.94902 0 0 0 0.12 0"/>
<feBlend mode="normal" in2="BackgroundImageFix" result="effect1_dropShadow_2_603"/>
<feBlend mode="normal" in="SourceGraphic" in2="effect1_dropShadow_2_603" result="shape"/>
</filter>
<filter id="filter1_d_2_603" x="54.5941" y="75.9235" width="27.5576" height="32.5951" filterUnits="userSpaceOnUse" color-interpolation-filters="sRGB">
<feFlood flood-opacity="0" result="BackgroundImageFix"/>
<feColorMatrix in="SourceAlpha" type="matrix" values="0 0 0 0 0 0 0 0 0 0 0 0 0 0 0 0 0 0 127 0" result="hardAlpha"/>
<feOffset dx="2.08333" dy="2.08333"/>
<feGaussianBlur stdDeviation="1.5625"/>
<feComposite in2="hardAlpha" operator="out"/>
<feColorMatrix type="matrix" values="0 0 0 0 0.5 0 0 0 0 0.5 0 0 0 0 0.5 0 0 0 0.23 0"/>
<feBlend mode="normal" in2="BackgroundImageFix" result="effect1_dropShadow_2_603"/>
<feBlend mode="normal" in="SourceGraphic" in2="effect1_dropShadow_2_603" result="shape"/>
</filter>
<linearGradient id="paint0_linear_2_603" x1="162" y1="0" x2="162" y2="180" gradientUnits="userSpaceOnUse">
<stop stop-color="#4940E0"/>
<stop offset="1" stop-color="#7C74FB"/>
</linearGradient>
<clipPath id="clip0_2_603">
<rect width="324" height="180" fill="white"/>
</clipPath>
</defs>
</svg>
