<svg width="324" height="180" viewBox="0 0 324 180" fill="none" xmlns="http://www.w3.org/2000/svg">
<g clip-path="url(#clip0_2_604)">
<path d="M0 0H324V180H0V0Z" fill="#B9F84E"/>
<mask id="mask0_2_604" style="mask-type:alpha" maskUnits="userSpaceOnUse" x="0" y="0" width="324" height="180">
<path d="M0 0H324V180H0V0Z" fill="#B9F84E"/>
</mask>
<g mask="url(#mask0_2_604)">
<path d="M29.6957 11.8682C34.8736 11.8682 39.1707 15.4064 40.2322 20.224C39.6636 19.6968 38.9047 19.3775 38.0775 19.3775C36.8697 19.3775 35.818 20.0571 35.2836 21.056C34.7516 20.0595 33.6975 19.3775 32.4896 19.3775C31.2818 19.3775 30.2301 20.0571 29.6957 21.056C29.1637 20.0595 28.1096 19.3775 26.9017 19.3775C25.6939 19.3775 24.6422 20.0571 24.1078 21.056C23.5758 20.0595 22.5217 19.3775 21.3138 19.3775C20.4866 19.3775 19.7277 19.6968 19.1592 20.224C20.2206 15.4064 24.5177 11.8682 29.6957 11.8682" fill="#080808"/>
<path d="M29.6957 11.8682C34.8736 11.8682 39.1707 15.4064 40.2322 20.224C39.6636 19.6968 38.9047 19.3775 38.0775 19.3775C36.8697 19.3775 35.818 20.0571 35.2836 21.056C34.7516 20.0595 33.6975 19.3775 32.4896 19.3775C31.2818 19.3775 30.2301 20.0571 29.6957 21.056C29.1637 20.0595 28.1096 19.3775 26.9017 19.3775C25.6939 19.3775 24.6422 20.0571 24.1078 21.056C23.5758 20.0595 22.5217 19.3775 21.3138 19.3775C20.4866 19.3775 19.7277 19.6968 19.1592 20.224C20.2206 15.4064 24.5177 11.8682 29.6957 11.8682" stroke="#080808" stroke-miterlimit="10"/>
<path d="M29.6943 21.0552V34.5817" stroke="#080808" stroke-miterlimit="10"/>
<path d="M24.1094 21.0552L27.2083 34.572H32.1106L35.2827 21.0552" stroke="#080808" stroke-linecap="round" stroke-linejoin="round"/>
<path d="M40.2302 20.2245C40.2302 20.2245 40.2595 20.3357 40.2912 20.5316C40.5523 22.0698 40.218 23.6515 39.3688 24.9671L33.1709 34.583" stroke="#080808" stroke-miterlimit="10"/>
<path d="M19.1477 20.2245C19.1477 20.2245 19.1185 20.3357 19.0867 20.5316C18.8256 22.0698 19.16 23.6515 20.0091 24.9671L26.207 34.583" stroke="#080808" stroke-miterlimit="10"/>
<path d="M37.4274 30.6361H21.9521C21.382 30.6361 20.9199 31.0941 20.9199 31.6591V43.4806C20.9199 44.0456 21.382 44.5037 21.9521 44.5037H37.4274C37.9975 44.5037 38.4596 44.0456 38.4596 43.4806V31.6591C38.4596 31.0941 37.9975 30.6361 37.4274 30.6361Z" fill="#B9F84E" stroke="#080808" stroke-width="1.18" stroke-linecap="round" stroke-linejoin="round"/>
<path d="M26.3096 30.6245V36.5111C26.3096 36.869 26.9391 37.0528 27.2978 36.7989L29.6501 35.1253L32.0024 36.7989C32.3684 37.0601 32.9906 36.8618 32.9906 36.5111V30.6245H26.312H26.3096Z" fill="#080808" stroke="#080808" stroke-miterlimit="10"/>
<path d="M293.536 123.626C298.714 123.626 303.012 127.165 304.073 131.982C303.504 131.455 302.746 131.136 301.918 131.136C300.71 131.136 299.659 131.815 299.124 132.814C298.592 131.818 297.538 131.136 296.33 131.136C295.123 131.136 294.071 131.815 293.536 132.814C293.005 131.818 291.95 131.136 290.743 131.136C289.535 131.136 288.483 131.815 287.949 132.814C287.417 131.818 286.363 131.136 285.155 131.136C284.327 131.136 283.569 131.455 283 131.982C284.061 127.165 288.359 123.626 293.536 123.626" fill="#080808"/>
<path d="M293.536 123.626C298.714 123.626 303.012 127.165 304.073 131.982C303.504 131.455 302.746 131.136 301.918 131.136C300.71 131.136 299.659 131.815 299.124 132.814C298.592 131.818 297.538 131.136 296.33 131.136C295.123 131.136 294.071 131.815 293.536 132.814C293.005 131.818 291.95 131.136 290.743 131.136C289.535 131.136 288.483 131.815 287.949 132.814C287.417 131.818 286.363 131.136 285.155 131.136C284.327 131.136 283.569 131.455 283 131.982C284.061 127.165 288.359 123.626 293.536 123.626" stroke="#080808" stroke-miterlimit="10"/>
<path d="M293.694 130.835V144.362" stroke="#080808" stroke-miterlimit="10"/>
<path d="M288.109 130.835L291.208 144.352H296.111L299.283 130.835" stroke="#080808" stroke-linecap="round" stroke-linejoin="round"/>
<path d="M304.231 130.005C304.231 130.005 304.26 130.116 304.292 130.312C304.553 131.85 304.218 133.432 303.369 134.747L297.171 144.363" stroke="#080808" stroke-miterlimit="10"/>
<path d="M283.148 130.005C283.148 130.005 283.118 130.116 283.087 130.312C282.826 131.85 283.16 133.432 284.009 134.747L290.207 144.363" stroke="#080808" stroke-miterlimit="10"/>
<path d="M301.427 140.416H285.952C285.382 140.416 284.92 140.874 284.92 141.439V153.261C284.92 153.826 285.382 154.284 285.952 154.284H301.427C301.997 154.284 302.46 153.826 302.46 153.261V141.439C302.46 140.874 301.997 140.416 301.427 140.416Z" fill="#B9F84E" stroke="#080808" stroke-width="1.18" stroke-linecap="round" stroke-linejoin="round"/>
<path d="M290.31 140.405V146.291C290.31 146.649 290.939 146.833 291.298 146.579L293.65 144.906L296.002 146.579C296.368 146.84 296.991 146.642 296.991 146.291V140.405H290.312H290.31Z" fill="#080808" stroke="#080808" stroke-miterlimit="10"/>
<path d="M178 0.417236C227.342 7.73044 337.447 46.9201 383.138 145.173" stroke="#080808" stroke-dasharray="4 4"/>
<path d="M-77 137.021C-29.284 122.605 87.1531 111.077 171.173 180.291" stroke="#080808" stroke-dasharray="4 4"/>
</g>
<g clip-path="url(#clip1_2_604)">
<path fill-rule="evenodd" clip-rule="evenodd" d="M55.1669 75.9961H50V102.574H55.1669V91.5183H66.43V102.574H71.5968V75.9961H66.43V87.1148H55.1669V75.9961ZM74.0703 75.9961L83.5376 91.707H83.5534V102.558H88.7202V91.707L98.1876 75.9961H92.5166L86.1683 86.8947H86.0896L79.7413 75.9961H74.0703ZM100.656 75.9961H117.354L121.418 80.1007V89.3952L117.307 93.5313H105.823V102.574H100.656V75.9961ZM114.991 89.2065L116.314 87.8854V81.6577L114.991 80.3209H105.823V89.2065H114.991ZM144.468 75.9961H125.219V102.59H144.468V98.2178H130.401V91.3767H143.366V87.0834H130.401V80.3681H144.468V75.9961ZM169.181 93.7672V102.574H164.014V94.9467L161.73 92.399H153.444V102.574H148.277V75.9961H164.975L169.039 80.1007V88.1371L166.456 90.7634L169.197 93.7672H169.181ZM153.444 88.1528H162.612L163.935 86.8317V81.6577L162.612 80.3209H153.444V88.1371V88.1528ZM190.99 75.9961H173.945V102.574H190.99L195.558 98.0134V80.5568L190.99 75.9961ZM190.375 96.2363L188.438 98.1707H179.128V80.3996H188.438L190.375 82.3339V96.2363ZM221.009 102.574H215.842V94.9467L213.558 92.399H205.272V102.574H200.105V75.9961H216.803L220.883 80.1007V88.1371L218.3 90.7634L221.041 93.7672H221.009V102.574ZM205.272 88.1528H214.44L215.764 86.8317V81.6577L214.44 80.3209H205.272V88.1371V88.1528ZM269.088 75.9961H252.391V102.574H257.557V93.5313H269.041L273.153 89.3952V80.1007L269.088 75.9961ZM268.049 87.8854L266.726 89.2065H257.557V80.3209H266.726L268.049 81.6577V87.8854ZM236.182 75.9961L221.438 90.7162L236.182 105.436L250.926 90.7162L236.182 75.9961ZM227.297 90.7162L236.182 81.8464L237.655 83.3171L233.254 87.7106C232.971 87.9937 233.317 88.6542 233.821 88.7328L237.082 89.2675L237.618 92.5229C237.696 93.0262 238.358 93.3722 238.642 93.0891L243.042 88.6956L245.066 90.7162L236.182 99.5861L227.297 90.7162Z" fill="#17191D"/>
</g>
</g>
<defs>
<clipPath id="clip0_2_604">
<rect width="324" height="180" fill="white"/>
</clipPath>
<clipPath id="clip1_2_604">
<rect width="223.152" height="29.456" fill="white" transform="translate(50 76)"/>
</clipPath>
</defs>
</svg>
