<svg width="324" height="180" viewBox="0 0 324 180" fill="none" xmlns="http://www.w3.org/2000/svg">
<g clip-path="url(#clip0_2_602)">
<g filter="url(#filter0_d_2_602)">
<path d="M0 0H324V180H0V0Z" fill="#EBF1F2"/>
</g>
<path d="M110.49 83.2317C110.649 83.4198 110.871 83.5411 111.113 83.5718C111.355 83.6026 111.599 83.5406 111.798 83.3981C113.651 82.0669 116.811 79.8481 120.244 77.6571C122.791 80.575 124.464 84.1744 125.066 88.0297C127.763 84.0915 135.391 73.9407 128.825 68.8654C123.213 64.622 111.444 77.2966 110.273 82.3442C110.234 82.499 110.234 82.6609 110.272 82.8157C110.31 82.9705 110.385 83.1134 110.49 83.2317Z" fill="#183C4A"/>
<path d="M115.067 89.9714C114.891 90.0632 114.745 90.206 114.648 90.3819C114.55 90.5578 114.506 90.759 114.521 90.9603C114.535 91.1616 114.608 91.3541 114.729 91.5136C114.851 91.6732 115.016 91.7927 115.204 91.8573C117.383 92.5229 121.061 93.66 124.875 95.019C124.225 98.8753 122.493 102.458 119.889 105.336C124.603 105.003 137.162 104.754 136.998 96.3779C136.753 89.278 119.699 87.7803 115.067 89.9714Z" fill="#183C4A"/>
<path d="M112.18 98.5688C112.039 98.5 111.886 98.4643 111.73 98.4643C111.574 98.4643 111.421 98.5 111.28 98.5688C111.064 98.6873 110.897 98.8824 110.811 99.1174C110.726 99.3524 110.728 99.6111 110.817 99.8446C111.689 101.98 113.106 105.641 114.413 109.524C108.72 112.658 103.407 111.964 103.407 111.964C106.567 115.514 114.577 125.36 120.925 120.035C126.21 115.404 116.756 100.871 112.18 98.5688Z" fill="#183C4A"/>
<path d="M103.789 101.592C103.756 101.438 103.687 101.294 103.587 101.173C103.487 101.052 103.36 100.958 103.216 100.899C102.991 100.799 102.737 100.79 102.505 100.872C102.273 100.954 102.08 101.122 101.963 101.342C100.846 103.339 98.9393 106.723 96.7598 110.217C93.2181 108.703 90.1814 106.18 88.0146 102.951C87.2518 107.693 84.6909 120.202 92.7277 121.921C99.5931 123.28 104.851 106.695 103.789 101.592Z" fill="#183C4A"/>
<path d="M96.2421 96.8215C96.334 96.696 96.3965 96.5508 96.4248 96.397C96.4532 96.2432 96.4466 96.0848 96.4055 95.934C96.347 95.6884 96.1991 95.4746 95.9919 95.3357C95.7846 95.1967 95.5332 95.1429 95.2885 95.1851C93.0546 95.5457 89.2677 96.1281 85.2357 96.5718C84.2039 92.8097 84.2512 88.8256 85.3719 85.0899C81.2581 87.4196 70.0338 93.1605 73.7389 100.649C76.9536 106.944 93.0001 100.843 96.2421 96.8215Z" fill="#183C4A"/>
<path d="M95.2068 87.8079C95.3622 87.8116 95.516 87.7754 95.6541 87.7027C95.7921 87.63 95.91 87.5231 95.9968 87.3919C96.1495 87.198 96.2233 86.9518 96.2031 86.7041C96.1828 86.4565 96.07 86.2261 95.8879 86.0606C94.1988 84.5075 91.3927 81.845 88.5593 78.9052C90.801 75.7332 93.8944 73.2871 97.468 71.8607C93.109 70.058 81.694 64.6776 78.234 72.2767C75.4007 78.7665 90.1122 87.7247 95.2068 87.8079Z" fill="#183C4A"/>
<path d="M102.29 81.7618C102.539 81.7557 102.777 81.656 102.958 81.4819C103.139 81.3078 103.251 81.0716 103.271 80.8188C103.407 78.5446 103.707 74.6341 104.197 70.5571C108.026 70.3621 111.829 71.2962 115.149 73.2474C113.841 68.6435 110.872 56.2185 102.889 58.2154C96.1331 59.9904 98.3671 77.2688 101.5 81.4012C101.591 81.5242 101.712 81.6217 101.85 81.6847C101.988 81.7477 102.139 81.7742 102.29 81.7618Z" fill="#183C4A"/>
<path d="M170.152 81.3969L153.055 98.6031" stroke="#183C4A" stroke-width="2.43476"/>
<path d="M170.206 98.5477L153 81.4514" stroke="#183C4A" stroke-width="2.43476"/>
<g clip-path="url(#clip1_2_602)">
<path d="M217.874 99.1569C217.248 99.1569 202.395 99.0237 191.033 87.366C190.792 87.1214 190.558 86.8725 190.328 86.6237C187.948 84.0515 186.819 80.9901 187.058 77.7739C187.271 74.9353 188.548 72.1862 190.645 70.029C192.742 67.8716 195.431 66.5659 198.196 66.3498C201.094 66.1314 203.863 67.0965 206.25 69.1709C206.508 65.9742 207.793 63.2754 209.999 61.3364C212.104 59.4826 214.895 58.4629 217.876 58.4629C220.856 58.4629 223.647 59.4826 225.753 61.3364C227.956 63.2775 229.244 65.9742 229.502 69.1709C231.888 67.0965 234.658 66.1139 237.555 66.3498C240.323 66.5681 243.003 67.8782 245.105 70.029C247.206 72.1797 248.483 74.9375 248.692 77.7739C248.932 80.9901 247.802 84.0515 245.424 86.628C245.194 86.8769 244.96 87.1259 244.719 87.3704C233.355 99.0237 218.502 99.1569 217.874 99.1569ZM199.018 68.7363C196.442 68.7363 194.024 69.9656 192.304 71.7277C189.212 74.9004 187.807 80.3984 192.031 84.9773C192.247 85.2116 192.467 85.4438 192.691 85.6737C203.374 96.6284 217.733 96.7551 217.876 96.7551C218.019 96.7551 232.408 96.6023 243.063 85.6737C243.289 85.4424 243.509 85.2102 243.723 84.9773C247.947 80.3919 246.542 74.9004 243.45 71.7277C240.359 68.555 234.997 67.1139 230.526 71.4482C230.297 71.6681 230.071 71.8937 229.847 72.1251C229.674 72.302 229.506 72.4832 229.34 72.6644L227.12 75.0794L227.207 71.7648C227.207 71.5116 227.222 71.2604 227.222 71.0049C227.222 70.6775 227.222 70.35 227.209 70.0333C227.039 63.7339 222.255 60.8626 217.88 60.8626C213.505 60.8626 208.726 63.7317 208.553 70.0333C208.553 70.3543 208.541 70.6884 208.541 71.0049C208.541 71.2539 208.541 71.4985 208.553 71.7452L208.641 75.0794L206.418 72.6775C206.25 72.4941 206.08 72.3107 205.905 72.1295C205.679 71.898 205.453 71.6724 205.226 71.4525C203.235 69.5159 201.075 68.7363 199.018 68.7363Z" fill="#183C4A"/>
<path d="M216.361 86.4341H214.658C214.658 83.8335 212.188 81.7155 209.157 81.7155C206.125 81.7155 203.656 83.8335 203.656 86.4341H201.952C201.952 82.8684 205.184 79.9688 209.157 79.9688C213.129 79.9688 216.361 82.8684 216.361 86.4341Z" fill="#183C4A"/>
<path d="M233.685 86.3636H231.982C231.982 83.7631 229.514 81.6472 226.481 81.6472C223.447 81.6472 220.98 83.7631 220.98 86.3636H219.277C219.277 82.8002 222.508 79.9004 226.481 79.9004C230.453 79.9004 233.685 82.8002 233.685 86.3636Z" fill="#183C4A"/>
<path d="M211.125 86.4727C212.479 86.4727 213.576 85.3476 213.576 83.9596C213.576 82.5715 212.479 81.4463 211.125 81.4463C209.772 81.4463 208.675 82.5715 208.675 83.9596C208.675 85.3476 209.772 86.4727 211.125 86.4727Z" fill="#183C4A"/>
<path d="M228.325 86.4727C229.678 86.4727 230.775 85.3476 230.775 83.9596C230.775 82.5715 229.678 81.4463 228.325 81.4463C226.971 81.4463 225.874 82.5715 225.874 83.9596C225.874 85.3476 226.971 86.4727 228.325 86.4727Z" fill="#183C4A"/>
<path d="M217.865 92.8569C215.858 92.8569 213.997 91.7979 213.128 90.1603L214.619 89.3262C215.195 90.4179 216.466 91.1101 217.861 91.1101C219.255 91.1101 220.528 90.4092 221.103 89.3262L222.593 90.1603C221.733 91.7979 219.879 92.8569 217.865 92.8569Z" fill="#183C4A"/>
<path d="M248.387 117.071C244.119 119.12 239.309 119.658 234.711 118.599C230.905 117.734 227.411 115.794 224.624 112.998C226.389 113.748 228.281 114.13 230.191 114.121C233.494 114.122 236.714 113.068 239.407 111.107L238.041 109.155C234.355 111.876 229.286 112.531 225.286 110.677C221.339 108.854 219.112 104.952 218.97 99.6615V97.9562H216.628V98.2575V99.6484C216.492 104.946 214.261 108.852 210.309 110.677C206.309 112.527 201.232 111.88 197.555 109.149L196.191 111.101C198.882 113.063 202.101 114.117 205.402 114.119C207.312 114.128 209.205 113.747 210.969 112.996C208.183 115.791 204.69 117.731 200.885 118.597C196.287 119.656 191.476 119.118 187.209 117.068L186.21 119.241C189.344 120.75 192.765 121.531 196.227 121.527C197.966 121.528 199.701 121.331 201.398 120.94C206.606 119.754 211.258 116.768 214.576 112.483L214.591 112.463C215.369 111.416 216.052 110.298 216.632 109.123V121.484H218.974V109.14C219.553 110.309 220.234 111.423 221.009 112.466L221.024 112.485C224.341 116.77 228.993 119.756 234.2 120.942C235.897 121.333 237.632 121.53 239.371 121.529C242.834 121.533 246.255 120.752 249.39 119.243L248.387 117.071Z" fill="#183C4A"/>
</g>
</g>
<defs>
<filter id="filter0_d_2_602" x="-12" y="-8" width="348" height="204" filterUnits="userSpaceOnUse" color-interpolation-filters="sRGB">
<feFlood flood-opacity="0" result="BackgroundImageFix"/>
<feColorMatrix in="SourceAlpha" type="matrix" values="0 0 0 0 0 0 0 0 0 0 0 0 0 0 0 0 0 0 127 0" result="hardAlpha"/>
<feOffset dy="4"/>
<feGaussianBlur stdDeviation="6"/>
<feComposite in2="hardAlpha" operator="out"/>
<feColorMatrix type="matrix" values="0 0 0 0 0.419608 0 0 0 0 0.388235 0 0 0 0 0.94902 0 0 0 0.12 0"/>
<feBlend mode="normal" in2="BackgroundImageFix" result="effect1_dropShadow_2_602"/>
<feBlend mode="normal" in="SourceGraphic" in2="effect1_dropShadow_2_602" result="shape"/>
</filter>
<clipPath id="clip0_2_602">
<rect width="324" height="180" fill="white"/>
</clipPath>
<clipPath id="clip1_2_602">
<rect width="64" height="64" fill="white" transform="translate(186.206 58)"/>
</clipPath>
</defs>
</svg>
