<svg width="324" height="180" viewBox="0 0 324 180" fill="none" xmlns="http://www.w3.org/2000/svg">
<g clip-path="url(#clip0_2_606)">
<path d="M0 0H324V180H0V0Z" fill="url(#paint0_radial_2_606)"/>
<mask id="mask0_2_606" style="mask-type:alpha" maskUnits="userSpaceOnUse" x="0" y="0" width="324" height="180">
<path d="M0 0H324V180H0V0Z" fill="url(#paint1_linear_2_606)"/>
</mask>
<g mask="url(#mask0_2_606)">
<g opacity="0.3" filter="url(#filter0_diii_2_606)">
<path d="M245.133 29.7627C242.977 31.5562 241.621 34.1328 241.365 36.9258C241.108 39.7189 241.972 42.4994 243.765 44.6558C245.559 46.8122 248.135 48.1678 250.928 48.4244C253.721 48.6811 256.502 47.8176 258.658 46.0241" stroke="url(#paint2_linear_2_606)" stroke-width="6" stroke-linecap="round" stroke-linejoin="round"/>
</g>
<g opacity="0.7" filter="url(#filter1_diii_2_606)">
<path d="M335.694 100.685C331.353 94.6681 324.749 90.6587 317.336 89.5387C309.922 88.4186 302.306 90.2795 296.162 94.7122C290.019 99.1448 285.851 105.786 284.577 113.175C283.302 120.563 285.025 128.094 289.366 134.111" stroke="url(#paint3_linear_2_606)" stroke-width="10" stroke-linecap="round" stroke-linejoin="round"/>
</g>
<g filter="url(#filter2_diii_2_606)">
<path d="M200 212.5C200 196.454 193.626 181.066 182.28 169.72C170.934 158.374 155.546 152 139.5 152C123.454 152 108.066 158.374 96.72 169.72C85.3741 181.066 79 196.454 79 212.5" stroke="url(#paint4_linear_2_606)" stroke-width="10" stroke-linecap="round" stroke-linejoin="round"/>
</g>
<g opacity="0.7" filter="url(#filter3_diii_2_606)">
<path d="M-8.96412 118.721C-6.56763 109.777 -0.716379 102.152 7.30243 97.522C15.3212 92.8923 24.8507 91.6378 33.7946 94.0342C42.7384 96.4307 50.3639 102.282 54.9935 110.301C59.6232 118.32 60.8778 127.849 58.4813 136.793" stroke="url(#paint5_linear_2_606)" stroke-width="10" stroke-linecap="round" stroke-linejoin="round"/>
</g>
<g opacity="0.5" filter="url(#filter4_diii_2_606)">
<path d="M78.1223 -16.4597C81.5819 -12.0733 83.1572 -6.49223 82.5018 -0.944285C81.8465 4.60366 79.014 9.66402 74.6276 13.1236C70.2412 16.5831 64.6601 18.1585 59.1122 17.5031C53.5642 16.8477 48.5038 14.0153 45.0443 9.62886" stroke="url(#paint6_linear_2_606)" stroke-width="6" stroke-linecap="round" stroke-linejoin="round"/>
</g>
</g>
<path d="M133.118 101V84.84H132.958L127.262 101H122.078L116.382 84.84H116.222V101H111.742V79.048H119.71L124.83 93.544H124.958L130.078 79.048H138.046V101H133.118ZM157.655 94.888C157.655 96.3173 157.314 97.5227 156.631 98.504C155.948 99.464 155.042 100.179 153.911 100.648C152.802 101.096 151.586 101.32 150.263 101.32H149.751C148.236 101.32 146.871 101 145.655 100.36C144.439 99.72 143.479 98.8027 142.775 97.608C142.092 96.392 141.751 94.952 141.751 93.288V92.36C141.751 90.7173 142.103 89.288 142.807 88.072C143.511 86.856 144.46 85.928 145.655 85.288C146.871 84.648 148.236 84.328 149.751 84.328H150.263C151.586 84.328 152.812 84.6053 153.943 85.16C155.074 85.6933 155.98 86.4827 156.663 87.528C157.346 88.552 157.687 89.768 157.687 91.176V93.608H146.487V94.376C146.487 95.4427 146.796 96.3387 147.415 97.064C148.055 97.768 148.919 98.12 150.007 98.12C150.988 98.12 151.756 97.8533 152.311 97.32C152.887 96.7653 153.175 95.9547 153.175 94.888H157.655ZM149.783 87.528C148.844 87.528 148.076 87.8587 147.479 88.52C146.903 89.1813 146.572 90.024 146.487 91.048H152.951C152.951 89.96 152.695 89.1067 152.183 88.488C151.692 87.848 150.892 87.528 149.783 87.528ZM164.119 96.008C164.119 96.7547 164.449 97.2987 165.111 97.64C165.772 97.96 166.593 98.12 167.575 98.12C168.428 98.12 169.185 97.992 169.847 97.736C170.529 97.48 170.871 97.0747 170.871 96.52C170.871 95.9227 170.561 95.496 169.943 95.24C169.324 94.984 168.364 94.76 167.062 94.568C165.697 94.3333 164.577 94.0773 163.703 93.8C162.828 93.5227 162.071 93.0427 161.431 92.36C160.812 91.6773 160.503 90.728 160.503 89.512C160.503 88.4027 160.823 87.464 161.463 86.696C162.124 85.9067 162.988 85.32 164.055 84.936C165.143 84.5307 166.327 84.328 167.607 84.328H168.247C169.377 84.328 170.444 84.52 171.447 84.904C172.471 85.2667 173.292 85.7893 173.911 86.472C174.529 87.1333 174.839 87.8907 174.839 88.744C174.839 88.9147 174.828 89.0747 174.807 89.224C174.785 89.352 174.775 89.4267 174.775 89.448H170.679C170.679 88.168 169.697 87.528 167.735 87.528C166.839 87.528 166.113 87.656 165.559 87.912C165.025 88.168 164.759 88.52 164.759 88.968C164.759 89.5013 165.047 89.8747 165.623 90.088C166.22 90.3013 167.148 90.504 168.407 90.696C169.836 90.9307 170.988 91.1867 171.863 91.464C172.759 91.72 173.537 92.2 174.199 92.904C174.86 93.5867 175.191 94.5573 175.191 95.816C175.191 97.7573 174.508 99.1653 173.143 100.04C171.777 100.893 170.039 101.32 167.927 101.32H166.871C165.548 101.32 164.364 101.117 163.319 100.712C162.273 100.307 161.452 99.7307 160.855 98.984C160.279 98.2373 159.991 97.384 159.991 96.424L160.023 95.784H164.119V96.008ZM183.097 86.248C184.334 84.968 185.849 84.328 187.641 84.328C189.305 84.328 190.67 84.776 191.737 85.672C192.825 86.568 193.369 87.8693 193.369 89.576V101H188.697V90.6C188.697 89.768 188.451 89.0853 187.961 88.552C187.491 87.9973 186.883 87.72 186.137 87.72C185.305 87.72 184.59 88.04 183.993 88.68C183.395 89.2987 183.097 90.056 183.097 90.952V101H178.424V77.96H183.097V86.248ZM207.566 89.96C207.566 89.2347 207.331 88.648 206.862 88.2C206.414 87.752 205.678 87.528 204.654 87.528C204.056 87.528 203.544 87.6347 203.118 87.848C202.691 88.04 202.36 88.2853 202.126 88.584C201.912 88.8827 201.806 89.16 201.806 89.416V89.672H197.294C197.251 89.416 197.23 89.224 197.23 89.096C197.23 88.1787 197.528 87.3573 198.126 86.632C198.744 85.9067 199.598 85.3413 200.686 84.936C201.774 84.5307 203.022 84.328 204.43 84.328H205.102C207.406 84.328 209.155 84.7867 210.35 85.704C211.544 86.6 212.142 87.8373 212.142 89.416V96.968C212.142 97.352 212.227 97.64 212.398 97.832C212.59 98.024 212.814 98.12 213.069 98.12C213.283 98.12 213.518 98.0773 213.774 97.992C214.03 97.9067 214.232 97.832 214.382 97.768V100.648C213.592 101.096 212.654 101.32 211.566 101.32C210.392 101.32 209.496 101.085 208.878 100.616C208.259 100.125 207.896 99.4427 207.79 98.568C206.296 100.403 204.462 101.32 202.286 101.32C200.664 101.32 199.331 100.989 198.286 100.328C197.24 99.6667 196.718 98.408 196.718 96.552C196.718 95.0373 197.144 93.8853 197.998 93.096C198.872 92.2853 200.078 91.7413 201.614 91.464C203.15 91.1867 205.134 91.048 207.566 91.048V89.96ZM207.566 93.672C205.539 93.672 204.024 93.8747 203.022 94.28C202.04 94.664 201.55 95.304 201.55 96.2C201.55 96.904 201.742 97.4053 202.126 97.704C202.531 97.9813 203.139 98.12 203.95 98.12C204.504 98.12 205.059 97.9707 205.614 97.672C206.168 97.3733 206.627 96.9467 206.99 96.392C207.374 95.8373 207.566 95.2187 207.566 94.536V93.672Z" fill="white"/>
</g>
<defs>
<filter id="filter0_diii_2_606" x="230.32" y="8.76257" width="41.3379" height="46.7062" filterUnits="userSpaceOnUse" color-interpolation-filters="sRGB">
<feFlood flood-opacity="0" result="BackgroundImageFix"/>
<feColorMatrix in="SourceAlpha" type="matrix" values="0 0 0 0 0 0 0 0 0 0 0 0 0 0 0 0 0 0 127 0" result="hardAlpha"/>
<feMorphology radius="2" operator="erode" in="SourceAlpha" result="effect1_dropShadow_2_606"/>
<feOffset dx="1" dy="-9"/>
<feGaussianBlur stdDeviation="5.5"/>
<feComposite in2="hardAlpha" operator="out"/>
<feColorMatrix type="matrix" values="0 0 0 0 0 0 0 0 0 0 0 0 0 0 0 0 0 0 0.25 0"/>
<feBlend mode="normal" in2="BackgroundImageFix" result="effect1_dropShadow_2_606"/>
<feBlend mode="normal" in="SourceGraphic" in2="effect1_dropShadow_2_606" result="shape"/>
<feColorMatrix in="SourceAlpha" type="matrix" values="0 0 0 0 0 0 0 0 0 0 0 0 0 0 0 0 0 0 127 0" result="hardAlpha"/>
<feOffset dy="4"/>
<feGaussianBlur stdDeviation="3.5"/>
<feComposite in2="hardAlpha" operator="arithmetic" k2="-1" k3="1"/>
<feColorMatrix type="matrix" values="0 0 0 0 0.916667 0 0 0 0 0.843333 0 0 0 0 0.458333 0 0 0 1 0"/>
<feBlend mode="normal" in2="shape" result="effect2_innerShadow_2_606"/>
<feColorMatrix in="SourceAlpha" type="matrix" values="0 0 0 0 0 0 0 0 0 0 0 0 0 0 0 0 0 0 127 0" result="hardAlpha"/>
<feOffset dy="4"/>
<feGaussianBlur stdDeviation="2"/>
<feComposite in2="hardAlpha" operator="arithmetic" k2="-1" k3="1"/>
<feColorMatrix type="matrix" values="0 0 0 0 0.517647 0 0 0 0 0.657255 0 0 0 0 0.866667 0 0 0 1 0"/>
<feBlend mode="normal" in2="effect2_innerShadow_2_606" result="effect3_innerShadow_2_606"/>
<feColorMatrix in="SourceAlpha" type="matrix" values="0 0 0 0 0 0 0 0 0 0 0 0 0 0 0 0 0 0 127 0" result="hardAlpha"/>
<feMorphology radius="2" operator="erode" in="SourceAlpha" result="effect4_innerShadow_2_606"/>
<feOffset dy="1"/>
<feGaussianBlur stdDeviation="4.5"/>
<feComposite in2="hardAlpha" operator="arithmetic" k2="-1" k3="1"/>
<feColorMatrix type="matrix" values="0 0 0 0 0.670588 0 0 0 0 0.560784 0 0 0 0 0.972549 0 0 0 1 0"/>
<feBlend mode="normal" in2="effect3_innerShadow_2_606" result="effect4_innerShadow_2_606"/>
</filter>
<filter id="filter1_diii_2_606" x="271.167" y="66.2202" width="79.5283" height="76.8914" filterUnits="userSpaceOnUse" color-interpolation-filters="sRGB">
<feFlood flood-opacity="0" result="BackgroundImageFix"/>
<feColorMatrix in="SourceAlpha" type="matrix" values="0 0 0 0 0 0 0 0 0 0 0 0 0 0 0 0 0 0 127 0" result="hardAlpha"/>
<feMorphology radius="2" operator="erode" in="SourceAlpha" result="effect1_dropShadow_2_606"/>
<feOffset dx="1" dy="-9"/>
<feGaussianBlur stdDeviation="5.5"/>
<feComposite in2="hardAlpha" operator="out"/>
<feColorMatrix type="matrix" values="0 0 0 0 0 0 0 0 0 0 0 0 0 0 0 0 0 0 0.25 0"/>
<feBlend mode="normal" in2="BackgroundImageFix" result="effect1_dropShadow_2_606"/>
<feBlend mode="normal" in="SourceGraphic" in2="effect1_dropShadow_2_606" result="shape"/>
<feColorMatrix in="SourceAlpha" type="matrix" values="0 0 0 0 0 0 0 0 0 0 0 0 0 0 0 0 0 0 127 0" result="hardAlpha"/>
<feOffset dy="4"/>
<feGaussianBlur stdDeviation="3.5"/>
<feComposite in2="hardAlpha" operator="arithmetic" k2="-1" k3="1"/>
<feColorMatrix type="matrix" values="0 0 0 0 0.916667 0 0 0 0 0.843333 0 0 0 0 0.458333 0 0 0 1 0"/>
<feBlend mode="normal" in2="shape" result="effect2_innerShadow_2_606"/>
<feColorMatrix in="SourceAlpha" type="matrix" values="0 0 0 0 0 0 0 0 0 0 0 0 0 0 0 0 0 0 127 0" result="hardAlpha"/>
<feOffset dy="4"/>
<feGaussianBlur stdDeviation="2"/>
<feComposite in2="hardAlpha" operator="arithmetic" k2="-1" k3="1"/>
<feColorMatrix type="matrix" values="0 0 0 0 0.517647 0 0 0 0 0.657255 0 0 0 0 0.866667 0 0 0 1 0"/>
<feBlend mode="normal" in2="effect2_innerShadow_2_606" result="effect3_innerShadow_2_606"/>
<feColorMatrix in="SourceAlpha" type="matrix" values="0 0 0 0 0 0 0 0 0 0 0 0 0 0 0 0 0 0 127 0" result="hardAlpha"/>
<feMorphology radius="2" operator="erode" in="SourceAlpha" result="effect4_innerShadow_2_606"/>
<feOffset dy="1"/>
<feGaussianBlur stdDeviation="4.5"/>
<feComposite in2="hardAlpha" operator="arithmetic" k2="-1" k3="1"/>
<feColorMatrix type="matrix" values="0 0 0 0 0.670588 0 0 0 0 0.560784 0 0 0 0 0.972549 0 0 0 1 0"/>
<feBlend mode="normal" in2="effect3_innerShadow_2_606" result="effect4_innerShadow_2_606"/>
</filter>
<filter id="filter2_diii_2_606" x="66" y="129" width="149" height="92.5" filterUnits="userSpaceOnUse" color-interpolation-filters="sRGB">
<feFlood flood-opacity="0" result="BackgroundImageFix"/>
<feColorMatrix in="SourceAlpha" type="matrix" values="0 0 0 0 0 0 0 0 0 0 0 0 0 0 0 0 0 0 127 0" result="hardAlpha"/>
<feMorphology radius="2" operator="erode" in="SourceAlpha" result="effect1_dropShadow_2_606"/>
<feOffset dx="1" dy="-9"/>
<feGaussianBlur stdDeviation="5.5"/>
<feComposite in2="hardAlpha" operator="out"/>
<feColorMatrix type="matrix" values="0 0 0 0 0 0 0 0 0 0 0 0 0 0 0 0 0 0 0.25 0"/>
<feBlend mode="normal" in2="BackgroundImageFix" result="effect1_dropShadow_2_606"/>
<feBlend mode="normal" in="SourceGraphic" in2="effect1_dropShadow_2_606" result="shape"/>
<feColorMatrix in="SourceAlpha" type="matrix" values="0 0 0 0 0 0 0 0 0 0 0 0 0 0 0 0 0 0 127 0" result="hardAlpha"/>
<feOffset dy="4"/>
<feGaussianBlur stdDeviation="3.5"/>
<feComposite in2="hardAlpha" operator="arithmetic" k2="-1" k3="1"/>
<feColorMatrix type="matrix" values="0 0 0 0 0.916667 0 0 0 0 0.843333 0 0 0 0 0.458333 0 0 0 1 0"/>
<feBlend mode="normal" in2="shape" result="effect2_innerShadow_2_606"/>
<feColorMatrix in="SourceAlpha" type="matrix" values="0 0 0 0 0 0 0 0 0 0 0 0 0 0 0 0 0 0 127 0" result="hardAlpha"/>
<feOffset dy="4"/>
<feGaussianBlur stdDeviation="2"/>
<feComposite in2="hardAlpha" operator="arithmetic" k2="-1" k3="1"/>
<feColorMatrix type="matrix" values="0 0 0 0 0.517647 0 0 0 0 0.657255 0 0 0 0 0.866667 0 0 0 1 0"/>
<feBlend mode="normal" in2="effect2_innerShadow_2_606" result="effect3_innerShadow_2_606"/>
<feColorMatrix in="SourceAlpha" type="matrix" values="0 0 0 0 0 0 0 0 0 0 0 0 0 0 0 0 0 0 127 0" result="hardAlpha"/>
<feMorphology radius="2" operator="erode" in="SourceAlpha" result="effect4_innerShadow_2_606"/>
<feOffset dy="1"/>
<feGaussianBlur stdDeviation="4.5"/>
<feComposite in2="hardAlpha" operator="arithmetic" k2="-1" k3="1"/>
<feColorMatrix type="matrix" values="0 0 0 0 0.670588 0 0 0 0 0.560784 0 0 0 0 0.972549 0 0 0 1 0"/>
<feBlend mode="normal" in2="effect3_innerShadow_2_606" result="effect4_innerShadow_2_606"/>
</filter>
<filter id="filter3_diii_2_606" x="-21.9653" y="69.8445" width="96.6362" height="75.9496" filterUnits="userSpaceOnUse" color-interpolation-filters="sRGB">
<feFlood flood-opacity="0" result="BackgroundImageFix"/>
<feColorMatrix in="SourceAlpha" type="matrix" values="0 0 0 0 0 0 0 0 0 0 0 0 0 0 0 0 0 0 127 0" result="hardAlpha"/>
<feMorphology radius="2" operator="erode" in="SourceAlpha" result="effect1_dropShadow_2_606"/>
<feOffset dx="1" dy="-9"/>
<feGaussianBlur stdDeviation="5.5"/>
<feComposite in2="hardAlpha" operator="out"/>
<feColorMatrix type="matrix" values="0 0 0 0 0 0 0 0 0 0 0 0 0 0 0 0 0 0 0.25 0"/>
<feBlend mode="normal" in2="BackgroundImageFix" result="effect1_dropShadow_2_606"/>
<feBlend mode="normal" in="SourceGraphic" in2="effect1_dropShadow_2_606" result="shape"/>
<feColorMatrix in="SourceAlpha" type="matrix" values="0 0 0 0 0 0 0 0 0 0 0 0 0 0 0 0 0 0 127 0" result="hardAlpha"/>
<feOffset dy="4"/>
<feGaussianBlur stdDeviation="3.5"/>
<feComposite in2="hardAlpha" operator="arithmetic" k2="-1" k3="1"/>
<feColorMatrix type="matrix" values="0 0 0 0 0.916667 0 0 0 0 0.843333 0 0 0 0 0.458333 0 0 0 1 0"/>
<feBlend mode="normal" in2="shape" result="effect2_innerShadow_2_606"/>
<feColorMatrix in="SourceAlpha" type="matrix" values="0 0 0 0 0 0 0 0 0 0 0 0 0 0 0 0 0 0 127 0" result="hardAlpha"/>
<feOffset dy="4"/>
<feGaussianBlur stdDeviation="2"/>
<feComposite in2="hardAlpha" operator="arithmetic" k2="-1" k3="1"/>
<feColorMatrix type="matrix" values="0 0 0 0 0.517647 0 0 0 0 0.657255 0 0 0 0 0.866667 0 0 0 1 0"/>
<feBlend mode="normal" in2="effect2_innerShadow_2_606" result="effect3_innerShadow_2_606"/>
<feColorMatrix in="SourceAlpha" type="matrix" values="0 0 0 0 0 0 0 0 0 0 0 0 0 0 0 0 0 0 127 0" result="hardAlpha"/>
<feMorphology radius="2" operator="erode" in="SourceAlpha" result="effect4_innerShadow_2_606"/>
<feOffset dy="1"/>
<feGaussianBlur stdDeviation="4.5"/>
<feComposite in2="hardAlpha" operator="arithmetic" k2="-1" k3="1"/>
<feColorMatrix type="matrix" values="0 0 0 0 0.670588 0 0 0 0 0.560784 0 0 0 0 0.972549 0 0 0 1 0"/>
<feBlend mode="normal" in2="effect3_innerShadow_2_606" result="effect4_innerShadow_2_606"/>
</filter>
<filter id="filter4_diii_2_606" x="34.0442" y="-37.4598" width="61.6033" height="62.1085" filterUnits="userSpaceOnUse" color-interpolation-filters="sRGB">
<feFlood flood-opacity="0" result="BackgroundImageFix"/>
<feColorMatrix in="SourceAlpha" type="matrix" values="0 0 0 0 0 0 0 0 0 0 0 0 0 0 0 0 0 0 127 0" result="hardAlpha"/>
<feMorphology radius="2" operator="erode" in="SourceAlpha" result="effect1_dropShadow_2_606"/>
<feOffset dx="1" dy="-9"/>
<feGaussianBlur stdDeviation="5.5"/>
<feComposite in2="hardAlpha" operator="out"/>
<feColorMatrix type="matrix" values="0 0 0 0 0 0 0 0 0 0 0 0 0 0 0 0 0 0 0.25 0"/>
<feBlend mode="normal" in2="BackgroundImageFix" result="effect1_dropShadow_2_606"/>
<feBlend mode="normal" in="SourceGraphic" in2="effect1_dropShadow_2_606" result="shape"/>
<feColorMatrix in="SourceAlpha" type="matrix" values="0 0 0 0 0 0 0 0 0 0 0 0 0 0 0 0 0 0 127 0" result="hardAlpha"/>
<feOffset dy="4"/>
<feGaussianBlur stdDeviation="3.5"/>
<feComposite in2="hardAlpha" operator="arithmetic" k2="-1" k3="1"/>
<feColorMatrix type="matrix" values="0 0 0 0 0.916667 0 0 0 0 0.843333 0 0 0 0 0.458333 0 0 0 1 0"/>
<feBlend mode="normal" in2="shape" result="effect2_innerShadow_2_606"/>
<feColorMatrix in="SourceAlpha" type="matrix" values="0 0 0 0 0 0 0 0 0 0 0 0 0 0 0 0 0 0 127 0" result="hardAlpha"/>
<feOffset dy="4"/>
<feGaussianBlur stdDeviation="2"/>
<feComposite in2="hardAlpha" operator="arithmetic" k2="-1" k3="1"/>
<feColorMatrix type="matrix" values="0 0 0 0 0.517647 0 0 0 0 0.657255 0 0 0 0 0.866667 0 0 0 1 0"/>
<feBlend mode="normal" in2="effect2_innerShadow_2_606" result="effect3_innerShadow_2_606"/>
<feColorMatrix in="SourceAlpha" type="matrix" values="0 0 0 0 0 0 0 0 0 0 0 0 0 0 0 0 0 0 127 0" result="hardAlpha"/>
<feMorphology radius="2" operator="erode" in="SourceAlpha" result="effect4_innerShadow_2_606"/>
<feOffset dy="1"/>
<feGaussianBlur stdDeviation="4.5"/>
<feComposite in2="hardAlpha" operator="arithmetic" k2="-1" k3="1"/>
<feColorMatrix type="matrix" values="0 0 0 0 0.670588 0 0 0 0 0.560784 0 0 0 0 0.972549 0 0 0 1 0"/>
<feBlend mode="normal" in2="effect3_innerShadow_2_606" result="effect4_innerShadow_2_606"/>
</filter>
<radialGradient id="paint0_radial_2_606" cx="0" cy="0" r="1" gradientUnits="userSpaceOnUse" gradientTransform="translate(103.595 179.093) rotate(-89.7887) scale(180.001 323.227)">
<stop stop-color="#373737"/>
<stop offset="1"/>
</radialGradient>
<linearGradient id="paint1_linear_2_606" x1="162" y1="0" x2="162" y2="180" gradientUnits="userSpaceOnUse">
<stop stop-color="#4940E0"/>
<stop offset="1" stop-color="#7C74FB"/>
</linearGradient>
<linearGradient id="paint2_linear_2_606" x1="258.011" y1="41.5249" x2="239.783" y2="19.4954" gradientUnits="userSpaceOnUse">
<stop stop-color="#3A2FFF"/>
<stop offset="0.53125" stop-color="#DF57BC"/>
</linearGradient>
<linearGradient id="paint3_linear_2_606" x1="301.532" y1="133.093" x2="364.278" y2="88.068" gradientUnits="userSpaceOnUse">
<stop stop-color="#3A2FFF"/>
<stop offset="0.53125" stop-color="#DF57BC"/>
</linearGradient>
<linearGradient id="paint4_linear_2_606" x1="101.158" y1="226.11" x2="264.733" y2="226.525" gradientUnits="userSpaceOnUse">
<stop stop-color="#3A2FFF"/>
<stop offset="0.53125" stop-color="#DF57BC"/>
</linearGradient>
<linearGradient id="paint5_linear_2_606" x1="44.0974" y1="141.07" x2="-47.1408" y2="116.871" gradientUnits="userSpaceOnUse">
<stop stop-color="#3A2FFF"/>
<stop offset="0.53125" stop-color="#DF57BC"/>
</linearGradient>
<linearGradient id="paint6_linear_2_606" x1="48.1673" y1="1.13061" x2="92.7944" y2="-34.2507" gradientUnits="userSpaceOnUse">
<stop stop-color="#3A2FFF"/>
<stop offset="0.53125" stop-color="#DF57BC"/>
</linearGradient>
<clipPath id="clip0_2_606">
<rect width="324" height="180" fill="white"/>
</clipPath>
</defs>
</svg>
