<svg width="394" height="226" viewBox="0 0 394 226" fill="none" xmlns="http://www.w3.org/2000/svg">
    <path d="M0 8C0 3.58173 3.58172 0 8 0H386C390.418 0 394 3.58172 394 8V226H0V8Z" fill="#EA3431"/>
    <path d="M170.048 137.878L170.048 137.878L170.054 137.885C177.484 145.117 186.667 148.728 197.536 148.728C204.125 148.728 210.191 147.167 215.716 144.039L221.996 152.087L222.296 152.472H222.784H233.056H235.116L233.842 150.853L223.734 138.014C231.179 130.409 234.92 121.343 234.92 110.864C234.92 103.974 233.244 97.5939 229.892 91.7428C226.539 85.8921 221.93 81.315 216.077 78.0262C210.227 74.6748 203.849 73 196.96 73C186.023 73 176.927 76.6783 169.749 84.053C162.58 91.3546 159 100.41 159 111.152C159 121.654 162.687 130.583 170.048 137.878ZM209.339 135.777C205.501 137.637 201.378 138.568 196.96 138.568C189.476 138.568 183.035 135.981 177.589 130.783C172.228 125.606 169.544 119.119 169.544 111.248C169.544 103.307 172.201 96.6496 177.513 91.213C182.896 85.7693 189.328 83.064 196.864 83.064C204.405 83.064 210.873 85.7412 216.321 91.1271C221.757 96.5018 224.472 103.091 224.472 110.96C224.472 118.44 222.076 124.762 217.286 129.982L205.904 115.619L205.603 115.24H205.12H195.136H193.068L194.352 116.861L209.339 135.777Z" fill="white" stroke="white" stroke-width="2"/>
</svg>
