<svg width="394" height="226" viewBox="0 0 394 226" fill="none" xmlns="http://www.w3.org/2000/svg">
<path d="M0 8C0 3.58173 3.58172 0 8 0H386C390.418 0 394 3.58172 394 8V226H0V8Z" fill="url(#paint0_linear_20594_69541)"/>
<path d="M318.391 40.7287C321.784 41.6758 325.289 39.7158 328.008 37.4783C329.679 36.104 331.441 34.5087 333.604 34.458C333.865 34.4518 334.141 34.474 334.359 34.618C334.929 34.9941 334.748 35.8771 334.415 36.4728C332.919 39.1528 329.688 40.8398 329.075 43.8482C328.182 48.222 333.375 51.6904 333.63 56.1471C333.645 56.4112 333.632 56.7037 333.454 56.8991C333.196 57.1809 332.74 57.1182 332.374 57.0087C329.754 56.2259 327.633 54.2665 325.066 53.32C324.341 53.0527 323.551 52.8681 322.799 53.0407C322.252 53.1663 321.766 53.4697 321.291 53.7687C319.023 55.1979 316.754 56.6264 314.485 58.0561C313.922 58.4104 313.143 58.7521 312.654 58.3015C312.143 57.8304 312.473 56.9878 312.831 56.3913C313.626 55.064 314.422 53.7367 315.219 52.4097C315.893 51.2845 316.585 50.1089 316.7 48.8019C316.989 45.5045 313.928 43.6551 312.852 40.8861C311.338 36.9915 316.842 40.2961 318.392 40.7289L318.391 40.7287Z" fill="#FFE600"/>
<path d="M321.459 183.416C324.18 180.984 324.426 176.831 323.992 173.209C323.726 170.983 323.317 168.555 324.481 166.639C324.621 166.408 324.795 166.179 325.042 166.07C325.688 165.783 326.358 166.433 326.692 167.056C328.195 169.859 327.863 173.62 330.146 175.834C333.465 179.055 339.391 176.461 343.422 178.726C343.661 178.861 343.909 179.035 343.98 179.3C344.082 179.682 343.773 180.045 343.473 180.303C341.327 182.152 338.433 182.91 336.174 184.621C335.536 185.104 334.934 185.691 334.664 186.444C334.469 186.991 334.462 187.585 334.458 188.166C334.439 190.943 334.419 193.721 334.399 196.499C334.394 197.188 334.258 198.059 333.591 198.234C332.895 198.417 332.344 197.659 332.023 197.013C331.309 195.578 330.595 194.142 329.882 192.706C329.276 191.489 328.637 190.229 327.56 189.399C324.844 187.307 321.521 188.945 318.504 188.338C314.26 187.484 320.217 184.527 321.46 183.415L321.459 183.416Z" fill="#FFE600"/>
<path d="M84.2063 191.587C83.5859 193.705 84.7707 195.996 86.1353 197.798C86.9734 198.905 87.948 200.077 87.9591 201.45C87.9606 201.616 87.9442 201.791 87.8526 201.924C87.6136 202.272 87.0667 202.127 86.6997 201.895C85.0487 200.853 84.0309 198.746 82.1676 198.253C79.4585 197.535 77.2547 200.707 74.4833 200.715C74.3191 200.715 74.1375 200.697 74.0178 200.577C73.8451 200.403 73.8883 200.117 73.9598 199.889C74.4708 198.254 75.7082 196.977 76.3204 195.383C76.4933 194.932 76.6154 194.438 76.5153 193.955C76.4423 193.604 76.2584 193.285 76.0771 192.974C75.2105 191.486 74.3443 189.998 73.4774 188.509C73.2625 188.14 73.0575 187.634 73.3421 187.34C73.6396 187.032 74.16 187.27 74.5273 187.518C75.3444 188.069 76.1616 188.619 76.9786 189.17C77.6713 189.637 78.3953 190.117 79.2062 190.235C81.2522 190.532 82.43 188.655 84.1605 188.069C86.5945 187.245 84.4896 190.62 84.2061 191.588L84.2063 191.587Z" fill="#FFE600"/>
<path d="M46.6347 41.0641C44.779 40.932 42.5825 42.1762 43.0685 44.2911C43.1957 44.8423 43.499 45.3331 43.8919 45.7375C44.991 46.8643 46.5075 47.2589 47.8332 48.0008C51.5804 50.1027 53.2551 55.2507 51.4614 59.1544C50.9086 60.3579 50.0786 61.4373 49.6856 62.7011C49.2111 64.2274 49.5894 66.2461 51.4174 66.5934C52.0908 66.7206 52.7871 66.5592 53.3692 66.1972C54.9412 65.2172 55.5135 63.4985 56.3745 61.9918C58.964 57.4667 64.6028 54.9131 69.7116 55.9502C71.4205 56.2976 73.5371 56.8715 74.6394 55.5197C75.727 54.1842 74.6769 52.0921 73.2028 51.2034C71.7287 50.3147 69.9285 50.0929 68.4429 49.2238C65.8388 47.7008 64.6859 44.4216 64.8571 41.4098C64.9713 39.391 65.573 37.4554 66.3313 35.5688C67.0243 33.8419 65.0284 32.2749 63.5151 33.356C60.911 35.2182 58.92 39.5133 57.0252 41.1179C53.1018 44.4379 51.0537 41.3739 46.6363 41.0608L46.6347 41.0641Z" fill="#FFE600"/>
<path fill-rule="evenodd" clip-rule="evenodd" d="M247.304 108.191V139.706H247.307C247.307 146.776 243.659 153.327 237.693 157.05V137.758L237.689 137.761L237.689 137.758H223.566V165.23L209.854 173.158C203.544 176.81 195.766 176.81 189.453 173.158L175.744 165.232V141.673V138.233V137.736H161.618V138.233V143.053V157.052C155.65 153.33 152 146.778 152 139.706V108.191C152 100.891 155.889 94.1458 162.202 90.4944L189.453 74.7386C195.763 71.0871 203.541 71.0871 209.854 74.7386L237.102 90.4944C243.415 94.1458 247.304 100.891 247.304 108.191ZM178.216 123.949C178.216 129.222 173.947 133.497 168.682 133.497C163.417 133.497 159.148 129.222 159.148 123.949C159.148 118.675 163.417 114.4 168.682 114.4C173.947 114.4 178.216 118.675 178.216 123.949ZM230.624 133.497C235.89 133.497 240.158 129.222 240.158 123.949C240.158 118.675 235.89 114.4 230.624 114.4C225.359 114.4 221.091 118.675 221.091 123.949C221.091 129.222 225.359 133.497 230.624 133.497ZM199.655 148.164C192.551 148.164 187.522 143.114 187.522 137.736H180.216C180.216 147.912 189.323 155.47 199.655 155.47C209.987 155.47 219.094 147.912 219.094 137.736H211.788C211.788 143.114 206.76 148.164 199.655 148.164Z" fill="white"/>
<defs>
<linearGradient id="paint0_linear_20594_69541" x1="197" y1="0" x2="197" y2="226" gradientUnits="userSpaceOnUse">
<stop stop-color="#4940E0"/>
<stop offset="1" stop-color="#7C74FB"/>
</linearGradient>
</defs>
</svg>
