<svg width="80" height="80" viewBox="0 0 80 80" fill="none" xmlns="http://www.w3.org/2000/svg">
<rect width="80" height="80" rx="12" fill="#5865F2"/>
<g clip-path="url(#clip0_22743_57330)">
<path d="M58.7432 22.9637C55.1954 21.3394 51.4499 20.1871 47.6026 19.5361C47.0761 20.4773 46.5998 21.4456 46.1755 22.437C42.0774 21.8195 37.9098 21.8195 33.8117 22.437C33.3872 21.4457 32.9108 20.4774 32.3846 19.5361C28.5348 20.1926 24.7869 21.3476 21.2354 22.9722C14.185 33.4035 12.2737 43.5758 13.2293 53.6036C17.3583 56.6543 21.9797 58.9743 26.8928 60.463C27.9991 58.9751 28.978 57.3966 29.8192 55.7443C28.2215 55.1475 26.6795 54.4113 25.2109 53.5442C25.5974 53.2638 25.9754 52.975 26.3407 52.6947C30.6139 54.7043 35.2778 55.7462 40 55.7462C44.7221 55.7462 49.3861 54.7043 53.6592 52.6947C54.0288 52.9963 54.4068 53.2851 54.789 53.5442C53.3176 54.4127 51.7727 55.1504 50.1722 55.7485C51.0124 57.4001 51.9913 58.9772 53.0986 60.463C58.0159 58.9803 62.6409 56.6613 66.7706 53.6079C67.8919 41.9788 64.8551 31.9 58.7432 22.9637ZM31.0297 47.4366C28.3666 47.4366 26.1665 45.0199 26.1665 42.0468C26.1665 39.0737 28.2902 36.6357 31.0212 36.6357C33.7522 36.6357 35.9353 39.0737 35.8886 42.0468C35.8419 45.0199 33.7437 47.4366 31.0297 47.4366ZM48.9702 47.4366C46.3029 47.4366 44.1113 45.0199 44.1113 42.0468C44.1113 39.0737 46.235 36.6357 48.9702 36.6357C51.7055 36.6357 53.8716 39.0737 53.8249 42.0468C53.7782 45.0199 51.6842 47.4366 48.9702 47.4366Z" fill="white"/>
</g>
<defs>
<clipPath id="clip0_22743_57330">
<rect width="54" height="54" fill="white" transform="translate(13 13)"/>
</clipPath>
</defs>
</svg>
