<svg width="80" height="80" viewBox="0 0 80 80" fill="none" xmlns="http://www.w3.org/2000/svg">
<g clip-path="url(#clip0_20499_66007)">
<rect width="80" height="80" fill="white"/>
<path d="M0 0H80V80H0V0Z" fill="url(#paint0_linear_20499_66007)"/>
<path fill-rule="evenodd" clip-rule="evenodd" d="M62.03 32.7202V47.2798H62.0315C62.0315 50.5464 60.3458 53.5728 57.5895 55.2927V46.3819L57.5878 46.3833L57.588 46.3819H51.0633V59.0721L44.7283 62.7348C41.8131 64.4217 38.2198 64.4217 35.3032 62.7348L28.9699 59.0731V48.1867V46.5981V46.3681H22.4437V46.5981V48.8245V55.2937C19.6864 53.5741 18 50.5471 18 47.2798V32.7202C18 29.3477 19.7967 26.2313 22.7133 24.5443L35.3032 17.2652C38.2183 15.5783 41.8117 15.5783 44.7283 17.2652L57.3167 24.5443C60.2333 26.2313 62.03 29.3477 62.03 32.7202ZM30.111 40.0007C30.111 42.437 28.139 44.412 25.7065 44.412C23.274 44.412 21.302 42.437 21.302 40.0007C21.302 37.5645 23.274 35.5895 25.7065 35.5895C28.139 35.5895 30.111 37.5645 30.111 40.0007ZM54.3237 44.412C56.7562 44.412 58.7282 42.437 58.7282 40.0007C58.7282 37.5645 56.7562 35.5895 54.3237 35.5895C51.8912 35.5895 49.9192 37.5645 49.9192 40.0007C49.9192 42.437 51.8912 44.412 54.3237 44.412ZM40.0166 51.4695C36.6101 51.4695 34.13 49.04 34.13 46.3707H31.3171C31.3171 50.8873 35.3677 54.2823 40.0166 54.2823C44.6655 54.2823 48.716 50.8873 48.716 46.3707H45.9032C45.9032 49.04 43.4231 51.4695 40.0166 51.4695Z" fill="white"/>
</g>
<defs>
<linearGradient id="paint0_linear_20499_66007" x1="40" y1="0" x2="40" y2="80" gradientUnits="userSpaceOnUse">
<stop stop-color="#4940E0"/>
<stop offset="1" stop-color="#7C74FB"/>
</linearGradient>
<clipPath id="clip0_20499_66007">
<rect width="80" height="80" fill="white"/>
</clipPath>
</defs>
</svg>
