<svg width="394" height="226" viewBox="0 0 394 226" fill="none" xmlns="http://www.w3.org/2000/svg">
<rect width="394" height="226" fill="#5865F2"/>
<g clip-path="url(#clip0_22745_57363)">
<path d="M150.763 96.9131H166.863C170.744 96.9131 174.027 97.5186 176.713 98.7296C179.185 99.769 181.285 101.533 182.734 103.79C184.091 106.019 184.787 108.588 184.74 111.197C184.769 113.819 184.047 116.394 182.658 118.617C181.108 120.965 178.892 122.797 176.294 123.878C173.447 125.175 169.919 125.822 165.708 125.818H150.763V96.9131ZM165.542 118.463C168.157 118.463 170.166 117.811 171.57 116.505C172.282 115.815 172.838 114.981 173.201 114.058C173.564 113.136 173.726 112.146 173.675 111.156C173.719 110.237 173.575 109.319 173.253 108.457C172.931 107.595 172.436 106.808 171.8 106.143C170.542 104.893 168.649 104.266 166.12 104.262H161.084V118.463H165.542Z" fill="white"/>
<path d="M208.85 125.771C206.725 125.239 204.693 124.39 202.822 123.253V116.4C204.456 117.588 206.295 118.464 208.248 118.983C210.384 119.635 212.603 119.974 214.836 119.991C215.606 120.033 216.376 119.899 217.089 119.602C217.596 119.343 217.849 119.012 217.849 118.67C217.855 118.479 217.821 118.289 217.75 118.111C217.679 117.934 217.572 117.773 217.437 117.638C216.966 117.276 216.413 117.035 215.827 116.936L210.872 115.822C208.034 115.161 206.019 114.247 204.827 113.079C204.229 112.476 203.763 111.755 203.458 110.962C203.154 110.169 203.017 109.322 203.058 108.473C203.038 106.935 203.598 105.447 204.627 104.303C205.846 103.013 207.384 102.068 209.085 101.561C211.275 100.873 213.561 100.544 215.856 100.588C217.998 100.568 220.134 100.817 222.214 101.331C223.894 101.729 225.507 102.369 227.003 103.23V109.718C225.6 108.904 224.092 108.286 222.52 107.883C220.818 107.427 219.063 107.197 217.301 107.199C214.714 107.199 213.42 107.64 213.42 108.52C213.416 108.716 213.47 108.909 213.575 109.075C213.679 109.241 213.831 109.372 214.01 109.452C214.717 109.753 215.458 109.967 216.216 110.089L220.344 110.832C223.026 111.304 225.025 112.13 226.342 113.309C227.659 114.489 228.32 116.215 228.324 118.487C228.345 119.682 228.053 120.862 227.476 121.909C226.9 122.956 226.06 123.834 225.039 124.456C222.864 125.915 219.76 126.642 215.726 126.638C213.407 126.642 211.096 126.35 208.85 125.771Z" fill="white"/>
<path d="M238.079 124.904C235.872 123.89 234.011 122.249 232.73 120.186C231.534 118.163 230.921 115.848 230.96 113.498C230.925 111.149 231.57 108.841 232.818 106.851C234.148 104.82 236.042 103.222 238.268 102.251C240.973 101.072 243.904 100.5 246.855 100.576C250.983 100.576 254.41 101.443 257.134 103.177V110.744C256.098 110.047 254.965 109.504 253.773 109.134C252.437 108.712 251.044 108.503 249.644 108.514C247.085 108.514 245.081 108.982 243.634 109.918C242.984 110.281 242.441 110.81 242.062 111.451C241.682 112.091 241.479 112.821 241.473 113.566C241.467 114.311 241.658 115.044 242.028 115.691C242.397 116.338 242.931 116.875 243.575 117.249C244.979 118.196 247.016 118.67 249.686 118.67C251.064 118.674 252.435 118.475 253.755 118.08C254.959 117.735 256.116 117.242 257.199 116.612V123.925C254.008 125.786 250.365 126.729 246.672 126.65C243.712 126.731 240.773 126.134 238.079 124.904Z" fill="white"/>
<path d="M267.414 124.904C265.182 123.885 263.289 122.248 261.959 120.186C260.705 118.167 260.054 115.833 260.083 113.457C260.043 111.109 260.695 108.801 261.959 106.822C263.296 104.812 265.181 103.228 267.39 102.257C272.818 100.055 278.889 100.055 284.317 102.257C286.518 103.221 288.395 104.797 289.725 106.798C290.98 108.785 291.626 111.096 291.583 113.445C291.612 115.819 290.968 118.152 289.725 120.174C288.409 122.237 286.525 123.876 284.299 124.892C281.631 126.036 278.759 126.626 275.857 126.626C272.954 126.626 270.082 126.036 267.414 124.892V124.904ZM279.958 117.579C280.468 117.053 280.866 116.427 281.125 115.742C281.385 115.056 281.502 114.325 281.468 113.592C281.504 112.867 281.388 112.142 281.128 111.464C280.868 110.785 280.47 110.169 279.958 109.653C279.404 109.144 278.752 108.752 278.043 108.5C277.334 108.247 276.581 108.14 275.83 108.184C275.079 108.145 274.328 108.254 273.619 108.506C272.911 108.758 272.259 109.148 271.702 109.653C271.192 110.17 270.795 110.787 270.537 111.465C270.278 112.143 270.162 112.867 270.198 113.592C270.165 114.324 270.281 115.055 270.539 115.741C270.798 116.426 271.193 117.052 271.702 117.579C272.253 118.094 272.903 118.493 273.613 118.751C274.322 119.01 275.076 119.123 275.83 119.083C276.584 119.127 277.34 119.016 278.05 118.758C278.759 118.499 279.409 118.098 279.958 117.579Z" fill="white"/>
<path d="M316.395 102.103V111.032C315.162 110.297 313.741 109.938 312.308 110C310.108 110 308.409 110.672 307.23 112.005C306.05 113.338 305.46 115.408 305.46 118.216V125.812H295.346V101.661H305.254V109.328C305.804 106.52 306.693 104.45 307.92 103.117C308.514 102.462 309.244 101.943 310.059 101.597C310.873 101.251 311.753 101.085 312.638 101.112C313.959 101.076 315.263 101.42 316.395 102.103Z" fill="white"/>
<path d="M350 96.0879V125.812H339.885V120.387C339.123 122.318 337.752 123.949 335.981 125.034C334.026 126.148 331.802 126.703 329.553 126.638C327.436 126.687 325.352 126.106 323.566 124.969C321.837 123.846 320.459 122.257 319.591 120.387C318.644 118.321 318.173 116.07 318.211 113.799C318.145 111.444 318.646 109.107 319.674 106.987C320.618 105.045 322.092 103.409 323.926 102.269C325.811 101.127 327.98 100.54 330.184 100.576C334.996 100.576 338.23 102.668 339.885 106.851V96.0879H350ZM338.399 117.438C338.915 116.93 339.319 116.321 339.586 115.649C339.853 114.977 339.977 114.256 339.95 113.533C339.972 112.832 339.845 112.134 339.578 111.486C339.311 110.837 338.909 110.253 338.399 109.771C337.242 108.829 335.795 108.314 334.303 108.314C332.811 108.314 331.364 108.829 330.207 109.771C329.699 110.264 329.3 110.858 329.037 111.516C328.774 112.173 328.652 112.879 328.68 113.586C328.654 114.301 328.778 115.013 329.044 115.676C329.31 116.339 329.712 116.939 330.225 117.438C330.767 117.941 331.404 118.332 332.098 118.586C332.793 118.84 333.532 118.953 334.271 118.918C335.023 118.96 335.776 118.85 336.485 118.596C337.194 118.341 337.845 117.948 338.399 117.438Z" fill="white"/>
<path d="M113.519 89.7595C108.592 87.504 103.391 85.9039 98.0488 85C97.3177 86.3069 96.6563 87.6515 96.0671 89.0282C90.3765 88.1706 84.5895 88.1706 78.8988 89.0282C78.3094 87.6516 77.6479 86.307 76.9172 85C71.5714 85.9115 66.3671 87.5154 61.4356 89.7713C51.6454 104.256 48.9914 118.381 50.3184 132.306C56.0518 136.542 62.4691 139.763 69.2914 141.831C70.8276 139.764 72.1869 137.573 73.355 135.278C71.1364 134.45 68.9952 133.427 66.9559 132.223C67.4926 131.834 68.0175 131.433 68.5247 131.044C74.4584 133.834 80.9347 135.281 87.4918 135.281C94.0489 135.281 100.525 133.834 106.459 131.044C106.972 131.462 107.497 131.863 108.028 132.223C105.985 133.429 103.839 134.453 101.617 135.284C102.784 137.577 104.143 139.767 105.68 141.831C112.509 139.772 118.931 136.552 124.665 132.312C126.222 116.164 122.005 102.168 113.519 89.7595ZM75.0358 123.742C71.3379 123.742 68.2829 120.386 68.2829 116.258C68.2829 112.13 71.2318 108.744 75.024 108.744C78.8163 108.744 81.8477 112.13 81.7828 116.258C81.718 120.386 78.8045 123.742 75.0358 123.742ZM99.9478 123.742C96.2441 123.742 93.2008 120.386 93.2008 116.258C93.2008 112.13 96.1497 108.744 99.9478 108.744C103.746 108.744 106.754 112.13 106.689 116.258C106.624 120.386 103.716 123.742 99.9478 123.742Z" fill="white"/>
<path d="M193.268 104.233C196.053 104.233 198.31 102.205 198.31 99.7033C198.31 97.2017 196.053 95.1738 193.268 95.1738C190.483 95.1738 188.225 97.2017 188.225 99.7033C188.225 102.205 190.483 104.233 193.268 104.233Z" fill="white"/>
<path d="M188.219 107.353C189.817 108.024 191.532 108.37 193.265 108.37C194.998 108.37 196.713 108.024 198.31 107.353V125.942H188.219V107.353Z" fill="white"/>
</g>
<defs>
<clipPath id="clip0_22745_57363">
<rect width="300" height="56.8306" fill="white" transform="translate(50 85)"/>
</clipPath>
</defs>
</svg>
