<svg width="394" height="226" viewBox="0 0 394 226" fill="none" xmlns="http://www.w3.org/2000/svg">
<g clip-path="url(#clip0_20499_66059)">
<path d="M0 8C0 3.58173 3.58172 0 8 0H386C390.418 0 394 3.58172 394 8V226H0V8Z" fill="white"/>
<path d="M0 0H394V226H0V0Z" fill="url(#paint0_linear_20499_66059)"/>
<path fill-rule="evenodd" clip-rule="evenodd" d="M86.8394 105.417V120.583H86.8409C86.8409 123.986 85.086 127.138 82.2164 128.93V119.646L82.2146 119.647L82.2148 119.646H75.422V132.867L68.8267 136.682C65.7917 138.439 62.0507 138.439 59.0143 136.682L52.4211 132.868V119.877L52.4209 119.871V119.637H45.6266L45.6267 128.931C42.7558 127.14 41 123.987 41 120.583V105.417C41 101.904 42.8705 98.6576 45.907 96.9003L59.0143 89.3179C62.0492 87.5607 65.7902 87.5607 68.8267 89.3179L81.9324 96.9003C84.9689 98.6576 86.8394 101.904 86.8394 105.417ZM53.609 112.999C53.609 115.537 51.556 117.594 49.0235 117.594C46.491 117.594 44.4381 115.537 44.4381 112.999C44.4381 110.461 46.491 108.404 49.0235 108.404C51.556 108.404 53.609 110.461 53.609 112.999ZM78.8168 117.594C81.3493 117.594 83.4023 115.537 83.4023 112.999C83.4023 110.461 81.3493 108.404 78.8168 108.404C76.2843 108.404 74.2313 110.461 74.2313 112.999C74.2313 115.537 76.2843 117.594 78.8168 117.594ZM63.9212 124.655C60.5041 124.655 58.0855 122.225 58.0855 119.637H54.5714C54.5714 124.534 58.9519 128.171 63.9212 128.171C68.8905 128.171 73.271 124.534 73.271 119.637H69.7569C69.7569 122.225 67.3384 124.655 63.9212 124.655Z" fill="white"/>
<path d="M104.587 112.746C104.418 112.746 104.279 112.693 104.172 112.585C104.064 112.477 104.01 112.338 104.01 112.169V97.1417C104.01 96.9721 104.064 96.8334 104.172 96.7255C104.279 96.6176 104.418 96.5637 104.587 96.5637H110.387C111.927 96.5637 113.214 96.8103 114.246 97.3035C115.278 97.7813 116.063 98.4902 116.602 99.4304C117.157 100.355 117.45 101.503 117.48 102.875C117.496 103.553 117.503 104.146 117.503 104.655C117.503 105.164 117.496 105.749 117.48 106.412C117.434 107.845 117.149 109.032 116.625 109.972C116.102 110.912 115.332 111.614 114.315 112.076C113.298 112.523 112.027 112.746 110.502 112.746H104.587ZM107.684 109.764H110.387C111.157 109.764 111.789 109.649 112.282 109.417C112.775 109.186 113.137 108.824 113.368 108.331C113.614 107.822 113.745 107.167 113.76 106.366C113.776 105.919 113.783 105.518 113.783 105.164C113.799 104.809 113.799 104.455 113.783 104.1C113.783 103.746 113.776 103.353 113.76 102.921C113.73 101.765 113.429 100.918 112.859 100.378C112.305 99.8234 111.442 99.546 110.271 99.546H107.684V109.764Z" fill="white"/>
<path d="M123.279 112.746C123.11 112.746 122.971 112.693 122.864 112.585C122.756 112.477 122.702 112.338 122.702 112.169V97.1417C122.702 96.9721 122.756 96.8334 122.864 96.7255C122.971 96.6176 123.11 96.5637 123.279 96.5637H125.89C126.06 96.5637 126.198 96.6176 126.306 96.7255C126.414 96.8334 126.468 96.9721 126.468 97.1417V112.169C126.468 112.338 126.414 112.477 126.306 112.585C126.198 112.693 126.06 112.746 125.89 112.746H123.279Z" fill="white"/>
<path d="M138.01 112.978C136.532 112.978 135.292 112.762 134.29 112.33C133.305 111.899 132.557 111.336 132.049 110.643C131.541 109.949 131.271 109.209 131.24 108.423C131.24 108.3 131.287 108.192 131.379 108.1C131.471 107.992 131.587 107.938 131.726 107.938H134.198C134.398 107.938 134.552 107.984 134.66 108.077C134.768 108.154 134.868 108.254 134.96 108.377C135.068 108.639 135.238 108.893 135.469 109.14C135.715 109.387 136.046 109.595 136.462 109.764C136.878 109.918 137.394 109.995 138.01 109.995C139.012 109.995 139.759 109.834 140.252 109.51C140.76 109.186 141.014 108.747 141.014 108.192C141.014 107.791 140.875 107.468 140.598 107.221C140.336 106.975 139.913 106.751 139.327 106.551C138.757 106.35 137.995 106.135 137.04 105.903C135.885 105.657 134.899 105.341 134.082 104.956C133.281 104.555 132.673 104.046 132.257 103.43C131.857 102.798 131.656 102.02 131.656 101.095C131.656 100.17 131.91 99.3533 132.419 98.6443C132.927 97.92 133.643 97.3574 134.568 96.9567C135.492 96.5406 136.593 96.3325 137.872 96.3325C138.904 96.3325 139.813 96.4712 140.598 96.7486C141.399 97.0261 142.062 97.3883 142.585 97.8352C143.124 98.2822 143.533 98.7599 143.81 99.2685C144.087 99.7771 144.233 100.27 144.249 100.748C144.249 100.871 144.203 100.987 144.11 101.095C144.018 101.187 143.902 101.234 143.764 101.234H141.176C141.022 101.234 140.883 101.203 140.76 101.141C140.637 101.079 140.537 100.972 140.46 100.817C140.367 100.417 140.09 100.07 139.628 99.7771C139.181 99.4689 138.596 99.3148 137.872 99.3148C137.117 99.3148 136.516 99.4535 136.07 99.7309C135.638 100.008 135.423 100.432 135.423 101.002C135.423 101.372 135.53 101.688 135.746 101.95C135.977 102.197 136.354 102.42 136.878 102.621C137.417 102.806 138.126 103.014 139.004 103.245C140.359 103.522 141.461 103.854 142.308 104.239C143.155 104.624 143.779 105.125 144.18 105.742C144.58 106.343 144.78 107.106 144.78 108.03C144.78 109.063 144.488 109.949 143.902 110.689C143.332 111.429 142.539 111.999 141.522 112.4C140.521 112.785 139.35 112.978 138.01 112.978Z" fill="white"/>
<path d="M155.994 112.978C154.546 112.978 153.314 112.739 152.298 112.261C151.296 111.768 150.518 111.059 149.964 110.134C149.409 109.194 149.101 108.053 149.04 106.713C149.024 106.081 149.017 105.403 149.017 104.678C149.017 103.954 149.024 103.26 149.04 102.598C149.101 101.272 149.409 100.147 149.964 99.2223C150.534 98.2822 151.327 97.5655 152.344 97.0723C153.36 96.5791 154.577 96.3325 155.994 96.3325C157.026 96.3325 157.966 96.4635 158.813 96.7255C159.661 96.9875 160.392 97.3651 161.008 97.8583C161.625 98.3515 162.102 98.9295 162.441 99.5922C162.78 100.255 162.965 100.995 162.995 101.812C162.995 101.95 162.942 102.066 162.834 102.158C162.741 102.251 162.626 102.297 162.487 102.297H159.853C159.668 102.297 159.522 102.251 159.414 102.158C159.306 102.066 159.222 101.912 159.16 101.696C158.929 100.787 158.544 100.162 158.005 99.8234C157.466 99.4843 156.795 99.3148 155.994 99.3148C155.039 99.3148 154.285 99.5768 153.73 100.101C153.176 100.625 152.875 101.496 152.829 102.713C152.783 103.977 152.783 105.272 152.829 106.597C152.875 107.815 153.176 108.685 153.73 109.209C154.285 109.733 155.039 109.995 155.994 109.995C156.795 109.995 157.466 109.826 158.005 109.487C158.559 109.132 158.944 108.508 159.16 107.614C159.222 107.383 159.306 107.229 159.414 107.152C159.522 107.059 159.668 107.013 159.853 107.013H162.487C162.626 107.013 162.741 107.059 162.834 107.152C162.942 107.244 162.995 107.36 162.995 107.499C162.965 108.315 162.78 109.055 162.441 109.718C162.102 110.381 161.625 110.959 161.008 111.452C160.392 111.945 159.661 112.323 158.813 112.585C157.966 112.847 157.026 112.978 155.994 112.978Z" fill="white"/>
<path d="M174.325 112.978C172.924 112.978 171.715 112.746 170.698 112.284C169.681 111.822 168.888 111.128 168.318 110.203C167.748 109.263 167.44 108.084 167.394 106.666C167.378 106.004 167.371 105.349 167.371 104.701C167.371 104.039 167.378 103.368 167.394 102.69C167.44 101.303 167.748 100.139 168.318 99.1992C168.903 98.2436 169.704 97.527 170.721 97.0492C171.753 96.5714 172.955 96.3325 174.325 96.3325C175.681 96.3325 176.867 96.5714 177.884 97.0492C178.916 97.527 179.724 98.2436 180.31 99.1992C180.895 100.139 181.203 101.303 181.234 102.69C181.265 103.368 181.28 104.039 181.28 104.701C181.28 105.349 181.265 106.004 181.234 106.666C181.188 108.084 180.88 109.263 180.31 110.203C179.74 111.128 178.947 111.822 177.93 112.284C176.913 112.746 175.712 112.978 174.325 112.978ZM174.325 109.995C175.219 109.995 175.951 109.726 176.52 109.186C177.106 108.631 177.414 107.753 177.445 106.551C177.476 105.873 177.491 105.241 177.491 104.655C177.491 104.054 177.476 103.422 177.445 102.759C177.429 101.958 177.283 101.303 177.006 100.794C176.728 100.286 176.359 99.9159 175.897 99.6847C175.45 99.4381 174.926 99.3148 174.325 99.3148C173.725 99.3148 173.193 99.4381 172.731 99.6847C172.269 99.9159 171.899 100.286 171.622 100.794C171.36 101.303 171.214 101.958 171.183 102.759C171.168 103.422 171.16 104.054 171.16 104.655C171.16 105.241 171.168 105.873 171.183 106.551C171.229 107.753 171.537 108.631 172.107 109.186C172.677 109.726 173.417 109.995 174.325 109.995Z" fill="white"/>
<path d="M187.036 112.746C186.867 112.746 186.728 112.693 186.621 112.585C186.513 112.477 186.459 112.338 186.459 112.169V97.1417C186.459 96.9721 186.513 96.8334 186.621 96.7255C186.728 96.6176 186.867 96.5637 187.036 96.5637H193.159C195.085 96.5637 196.602 97.0107 197.711 97.9046C198.82 98.7831 199.375 100.055 199.375 101.719C199.375 102.844 199.105 103.784 198.566 104.54C198.027 105.295 197.303 105.857 196.394 106.227L199.652 112.007C199.698 112.099 199.721 112.184 199.721 112.261C199.721 112.384 199.675 112.5 199.583 112.608C199.49 112.7 199.375 112.746 199.236 112.746H196.671C196.394 112.746 196.186 112.677 196.048 112.538C195.909 112.384 195.809 112.246 195.747 112.122L192.928 106.828H190.133V112.169C190.133 112.338 190.079 112.477 189.971 112.585C189.863 112.693 189.724 112.746 189.555 112.746H187.036ZM190.133 103.892H193.09C193.937 103.892 194.561 103.7 194.962 103.314C195.378 102.929 195.585 102.39 195.585 101.696C195.585 101.002 195.385 100.455 194.985 100.055C194.584 99.6538 193.953 99.4535 193.09 99.4535H190.133V103.892Z" fill="white"/>
<path d="M205.097 112.746C204.927 112.746 204.789 112.693 204.681 112.585C204.573 112.477 204.519 112.338 204.519 112.169V97.1417C204.519 96.9721 204.573 96.8334 204.681 96.7255C204.789 96.6176 204.927 96.5637 205.097 96.5637H210.896C212.437 96.5637 213.723 96.8103 214.755 97.3035C215.787 97.7813 216.572 98.4902 217.112 99.4304C217.666 100.355 217.959 101.503 217.99 102.875C218.005 103.553 218.013 104.146 218.013 104.655C218.013 105.164 218.005 105.749 217.99 106.412C217.943 107.845 217.658 109.032 217.135 109.972C216.611 110.912 215.841 111.614 214.824 112.076C213.807 112.523 212.537 112.746 211.012 112.746H205.097ZM208.193 109.764H210.896C211.666 109.764 212.298 109.649 212.791 109.417C213.284 109.186 213.646 108.824 213.877 108.331C214.123 107.822 214.254 107.167 214.27 106.366C214.285 105.919 214.293 105.518 214.293 105.164C214.308 104.809 214.308 104.455 214.293 104.1C214.293 103.746 214.285 103.353 214.27 102.921C214.239 101.765 213.938 100.918 213.368 100.378C212.814 99.8234 211.951 99.546 210.781 99.546H208.193V109.764Z" fill="white"/>
<path d="M231.199 112.746C231.029 112.746 230.891 112.693 230.783 112.585C230.675 112.477 230.621 112.338 230.621 112.169V97.1417C230.621 96.9721 230.675 96.8334 230.783 96.7255C230.891 96.6176 231.029 96.5637 231.199 96.5637H238.061C239.34 96.5637 240.387 96.7486 241.203 97.1185C242.02 97.4884 242.621 98.0124 243.006 98.6906C243.406 99.3687 243.606 100.162 243.606 101.072C243.606 101.642 243.499 102.143 243.283 102.574C243.083 103.006 242.829 103.36 242.52 103.638C242.228 103.915 241.943 104.123 241.666 104.262C242.266 104.54 242.79 105.002 243.237 105.649C243.699 106.281 243.93 107.036 243.93 107.915C243.93 108.886 243.714 109.733 243.283 110.458C242.852 111.182 242.212 111.745 241.365 112.145C240.518 112.546 239.486 112.746 238.269 112.746H231.199ZM234.295 110.042H237.83C238.585 110.042 239.155 109.834 239.54 109.417C239.925 108.986 240.117 108.477 240.117 107.892C240.117 107.291 239.917 106.79 239.517 106.389C239.132 105.973 238.569 105.765 237.83 105.765H234.295V110.042ZM234.295 103.106H237.622C238.346 103.106 238.885 102.929 239.239 102.574C239.609 102.205 239.794 101.734 239.794 101.164C239.794 100.594 239.609 100.139 239.239 99.8003C238.885 99.4458 238.346 99.2685 237.622 99.2685H234.295V103.106Z" fill="white"/>
<path d="M255.421 112.978C254.019 112.978 252.81 112.746 251.793 112.284C250.776 111.822 249.983 111.128 249.413 110.203C248.843 109.263 248.535 108.084 248.489 106.666C248.474 106.004 248.466 105.349 248.466 104.701C248.466 104.039 248.474 103.368 248.489 102.69C248.535 101.303 248.843 100.139 249.413 99.1992C249.998 98.2436 250.799 97.527 251.816 97.0492C252.848 96.5714 254.05 96.3325 255.421 96.3325C256.776 96.3325 257.962 96.5714 258.979 97.0492C260.011 97.527 260.82 98.2436 261.405 99.1992C261.99 100.139 262.298 101.303 262.329 102.69C262.36 103.368 262.375 104.039 262.375 104.701C262.375 105.349 262.36 106.004 262.329 106.666C262.283 108.084 261.975 109.263 261.405 110.203C260.835 111.128 260.042 111.822 259.025 112.284C258.008 112.746 256.807 112.978 255.421 112.978ZM255.421 109.995C256.314 109.995 257.046 109.726 257.616 109.186C258.201 108.631 258.509 107.753 258.54 106.551C258.571 105.873 258.586 105.241 258.586 104.655C258.586 104.054 258.571 103.422 258.54 102.759C258.524 101.958 258.378 101.303 258.101 100.794C257.824 100.286 257.454 99.9159 256.992 99.6847C256.545 99.4381 256.021 99.3148 255.421 99.3148C254.82 99.3148 254.288 99.4381 253.826 99.6847C253.364 99.9159 252.995 100.286 252.717 100.794C252.455 101.303 252.309 101.958 252.278 102.759C252.263 103.422 252.255 104.054 252.255 104.655C252.255 105.241 252.263 105.873 252.278 106.551C252.324 107.753 252.633 108.631 253.202 109.186C253.772 109.726 254.512 109.995 255.421 109.995Z" fill="white"/>
<path d="M274.162 112.978C272.807 112.978 271.62 112.754 270.604 112.307C269.587 111.845 268.802 111.144 268.247 110.203C267.693 109.248 267.415 108.038 267.415 106.574V97.1417C267.415 96.9721 267.469 96.8334 267.577 96.7255C267.685 96.6176 267.823 96.5637 267.993 96.5637H270.511C270.681 96.5637 270.819 96.6176 270.927 96.7255C271.035 96.8334 271.089 96.9721 271.089 97.1417V106.551C271.089 107.691 271.359 108.539 271.898 109.094C272.437 109.649 273.192 109.926 274.162 109.926C275.117 109.926 275.864 109.649 276.403 109.094C276.942 108.539 277.212 107.691 277.212 106.551V97.1417C277.212 96.9721 277.266 96.8334 277.374 96.7255C277.497 96.6176 277.636 96.5637 277.79 96.5637H280.331C280.485 96.5637 280.616 96.6176 280.724 96.7255C280.832 96.8334 280.886 96.9721 280.886 97.1417V106.574C280.886 108.038 280.609 109.248 280.054 110.203C279.499 111.144 278.722 111.845 277.72 112.307C276.719 112.754 275.533 112.978 274.162 112.978Z" fill="white"/>
<path d="M287.049 112.746C286.88 112.746 286.741 112.693 286.633 112.585C286.525 112.477 286.472 112.338 286.472 112.169V97.1417C286.472 96.9721 286.525 96.8334 286.633 96.7255C286.741 96.6176 286.88 96.5637 287.049 96.5637H289.152C289.383 96.5637 289.552 96.6176 289.66 96.7255C289.768 96.8334 289.837 96.9182 289.868 96.9798L296.037 106.62V97.1417C296.037 96.9721 296.091 96.8334 296.199 96.7255C296.307 96.6176 296.438 96.5637 296.592 96.5637H298.949C299.118 96.5637 299.257 96.6176 299.364 96.7255C299.472 96.8334 299.526 96.9721 299.526 97.1417V112.169C299.526 112.323 299.472 112.461 299.364 112.585C299.257 112.693 299.118 112.746 298.949 112.746H296.823C296.592 112.746 296.422 112.693 296.315 112.585C296.222 112.461 296.153 112.377 296.107 112.33L289.961 102.991V112.169C289.961 112.338 289.907 112.477 289.799 112.585C289.691 112.693 289.552 112.746 289.383 112.746H287.049Z" fill="white"/>
<path d="M311.677 112.978C310.229 112.978 308.997 112.739 307.98 112.261C306.979 111.768 306.201 111.059 305.647 110.134C305.092 109.194 304.784 108.053 304.722 106.713C304.707 106.081 304.699 105.403 304.699 104.678C304.699 103.954 304.707 103.26 304.722 102.598C304.784 101.272 305.092 100.147 305.647 99.2223C306.217 98.2822 307.01 97.5655 308.027 97.0723C309.043 96.5791 310.26 96.3325 311.677 96.3325C312.709 96.3325 313.649 96.4635 314.496 96.7255C315.343 96.9875 316.075 97.3651 316.691 97.8583C317.307 98.3515 317.785 98.9295 318.124 99.5922C318.463 100.255 318.647 100.995 318.678 101.812C318.678 101.95 318.624 102.066 318.516 102.158C318.424 102.251 318.309 102.297 318.17 102.297H315.536C315.351 102.297 315.205 102.251 315.097 102.158C314.989 102.066 314.904 101.912 314.843 101.696C314.612 100.787 314.227 100.162 313.687 99.8234C313.148 99.4843 312.478 99.3148 311.677 99.3148C310.722 99.3148 309.967 99.5768 309.413 100.101C308.858 100.625 308.558 101.496 308.512 102.713C308.466 103.977 308.466 105.272 308.512 106.597C308.558 107.815 308.858 108.685 309.413 109.209C309.967 109.733 310.722 109.995 311.677 109.995C312.478 109.995 313.148 109.826 313.687 109.487C314.242 109.132 314.627 108.508 314.843 107.614C314.904 107.383 314.989 107.229 315.097 107.152C315.205 107.059 315.351 107.013 315.536 107.013H318.17C318.309 107.013 318.424 107.059 318.516 107.152C318.624 107.244 318.678 107.36 318.678 107.499C318.647 108.315 318.463 109.055 318.124 109.718C317.785 110.381 317.307 110.959 316.691 111.452C316.075 111.945 315.343 112.323 314.496 112.585C313.649 112.847 312.709 112.978 311.677 112.978Z" fill="white"/>
<path d="M324.163 112.746C323.993 112.746 323.854 112.693 323.747 112.585C323.639 112.477 323.585 112.338 323.585 112.169V97.1417C323.585 96.9721 323.639 96.8334 323.747 96.7255C323.854 96.6176 323.993 96.5637 324.163 96.5637H334.629C334.799 96.5637 334.937 96.6176 335.045 96.7255C335.153 96.8334 335.207 96.9721 335.207 97.1417V98.9911C335.207 99.1452 335.153 99.2762 335.045 99.3841C334.937 99.492 334.799 99.546 334.629 99.546H327.143V103.176H334.121C334.29 103.176 334.429 103.229 334.537 103.337C334.645 103.445 334.699 103.584 334.699 103.753V105.464C334.699 105.618 334.645 105.749 334.537 105.857C334.429 105.965 334.29 106.019 334.121 106.019H327.143V109.764H334.814C334.984 109.764 335.122 109.818 335.23 109.926C335.338 110.034 335.392 110.173 335.392 110.342V112.169C335.392 112.338 335.338 112.477 335.23 112.585C335.122 112.693 334.984 112.746 334.814 112.746H324.163Z" fill="white"/>
<path d="M341.027 112.746C340.857 112.746 340.719 112.693 340.611 112.585C340.503 112.477 340.449 112.338 340.449 112.169V97.1417C340.449 96.9721 340.503 96.8334 340.611 96.7255C340.719 96.6176 340.857 96.5637 341.027 96.5637H347.15C349.075 96.5637 350.593 97.0107 351.702 97.9046C352.811 98.7831 353.365 100.055 353.365 101.719C353.365 102.844 353.096 103.784 352.557 104.54C352.017 105.295 351.293 105.857 350.385 106.227L353.643 112.007C353.689 112.099 353.712 112.184 353.712 112.261C353.712 112.384 353.666 112.5 353.573 112.608C353.481 112.7 353.365 112.746 353.227 112.746H350.662C350.385 112.746 350.177 112.677 350.038 112.538C349.899 112.384 349.799 112.246 349.738 112.122L346.919 106.828H344.123V112.169C344.123 112.338 344.069 112.477 343.961 112.585C343.853 112.693 343.715 112.746 343.545 112.746H341.027ZM344.123 103.892H347.081C347.928 103.892 348.552 103.7 348.952 103.314C349.368 102.929 349.576 102.39 349.576 101.696C349.576 101.002 349.376 100.455 348.975 100.055C348.575 99.6538 347.943 99.4535 347.081 99.4535H344.123V103.892Z" fill="white"/>
<path d="M104.328 130.293C104.226 130.293 104.148 130.266 104.093 130.21C104.037 130.146 104.01 130.068 104.01 129.975V120.948C104.01 120.846 104.037 120.768 104.093 120.713C104.148 120.648 104.226 120.616 104.328 120.616H107.837C108.519 120.616 109.108 120.727 109.606 120.948C110.112 121.169 110.504 121.501 110.78 121.943C111.057 122.376 111.195 122.92 111.195 123.574C111.195 124.229 111.057 124.773 110.78 125.206C110.504 125.639 110.112 125.966 109.606 126.187C109.108 126.409 108.519 126.519 107.837 126.519H105.392V129.975C105.392 130.068 105.359 130.146 105.295 130.21C105.24 130.266 105.161 130.293 105.06 130.293H104.328ZM105.378 125.358H107.768C108.45 125.358 108.961 125.206 109.302 124.902C109.643 124.598 109.813 124.155 109.813 123.574C109.813 123.003 109.647 122.561 109.316 122.247C108.984 121.934 108.468 121.777 107.768 121.777H105.378V125.358Z" fill="white"/>
<path d="M116.235 130.432C115.535 130.432 114.95 130.298 114.48 130.031C114.01 129.763 113.651 129.395 113.402 128.925C113.154 128.445 113.015 127.902 112.988 127.293C112.979 127.137 112.974 126.939 112.974 126.699C112.974 126.45 112.979 126.252 112.988 126.104C113.015 125.487 113.154 124.943 113.402 124.473C113.66 124.003 114.024 123.634 114.494 123.367C114.964 123.1 115.544 122.966 116.235 122.966C116.926 122.966 117.506 123.1 117.976 123.367C118.446 123.634 118.805 124.003 119.054 124.473C119.312 124.943 119.454 125.487 119.482 126.104C119.491 126.252 119.496 126.45 119.496 126.699C119.496 126.939 119.491 127.137 119.482 127.293C119.454 127.902 119.316 128.445 119.067 128.925C118.819 129.395 118.459 129.763 117.99 130.031C117.52 130.298 116.935 130.432 116.235 130.432ZM116.235 129.367C116.806 129.367 117.262 129.187 117.603 128.828C117.944 128.459 118.128 127.925 118.155 127.224C118.165 127.086 118.169 126.911 118.169 126.699C118.169 126.487 118.165 126.312 118.155 126.174C118.128 125.473 117.944 124.943 117.603 124.584C117.262 124.215 116.806 124.031 116.235 124.031C115.664 124.031 115.203 124.215 114.853 124.584C114.512 124.943 114.333 125.473 114.314 126.174C114.305 126.312 114.3 126.487 114.3 126.699C114.3 126.911 114.305 127.086 114.314 127.224C114.333 127.925 114.512 128.459 114.853 128.828C115.203 129.187 115.664 129.367 116.235 129.367Z" fill="white"/>
<path d="M123.635 130.293C123.515 130.293 123.423 130.266 123.358 130.21C123.294 130.146 123.239 130.058 123.193 129.948L121.23 123.533C121.212 123.487 121.203 123.441 121.203 123.395C121.203 123.312 121.23 123.243 121.286 123.187C121.35 123.132 121.419 123.104 121.493 123.104H122.101C122.202 123.104 122.281 123.132 122.336 123.187C122.391 123.243 122.428 123.293 122.446 123.339L123.98 128.551L125.624 123.395C125.643 123.33 125.68 123.266 125.735 123.201C125.799 123.137 125.891 123.104 126.011 123.104H126.481C126.601 123.104 126.693 123.137 126.757 123.201C126.822 123.266 126.859 123.33 126.868 123.395L128.512 128.551L130.046 123.339C130.055 123.293 130.087 123.243 130.143 123.187C130.198 123.132 130.276 123.104 130.377 123.104H130.985C131.068 123.104 131.137 123.132 131.193 123.187C131.248 123.243 131.276 123.312 131.276 123.395C131.276 123.441 131.266 123.487 131.248 123.533L129.286 129.948C129.258 130.058 129.208 130.146 129.134 130.21C129.069 130.266 128.973 130.293 128.844 130.293H128.305C128.185 130.293 128.084 130.266 128.001 130.21C127.927 130.146 127.877 130.058 127.849 129.948L126.246 124.998L124.643 129.948C124.606 130.058 124.551 130.146 124.478 130.21C124.404 130.266 124.302 130.293 124.174 130.293H123.635Z" fill="white"/>
<path d="M136.168 130.432C135.219 130.432 134.464 130.141 133.902 129.561C133.34 128.971 133.032 128.169 132.976 127.155C132.967 127.035 132.963 126.883 132.963 126.699C132.963 126.505 132.967 126.349 132.976 126.229C133.013 125.574 133.165 125.003 133.432 124.515C133.699 124.017 134.063 123.634 134.524 123.367C134.994 123.1 135.542 122.966 136.168 122.966C136.868 122.966 137.453 123.114 137.923 123.409C138.402 123.703 138.766 124.123 139.014 124.667C139.263 125.21 139.388 125.846 139.388 126.574V126.809C139.388 126.911 139.355 126.989 139.291 127.045C139.236 127.1 139.162 127.127 139.07 127.127H134.289C134.289 127.137 134.289 127.155 134.289 127.183C134.289 127.21 134.289 127.233 134.289 127.252C134.307 127.63 134.39 127.985 134.538 128.316C134.685 128.639 134.897 128.902 135.173 129.104C135.45 129.307 135.781 129.409 136.168 129.409C136.5 129.409 136.776 129.358 136.997 129.256C137.218 129.155 137.398 129.045 137.536 128.925C137.674 128.796 137.766 128.699 137.812 128.634C137.895 128.515 137.96 128.445 138.006 128.427C138.052 128.399 138.126 128.386 138.227 128.386H138.89C138.982 128.386 139.056 128.413 139.111 128.468C139.176 128.515 139.203 128.584 139.194 128.676C139.185 128.814 139.111 128.985 138.973 129.187C138.835 129.381 138.637 129.574 138.379 129.768C138.121 129.962 137.808 130.123 137.439 130.252C137.071 130.372 136.647 130.432 136.168 130.432ZM134.289 126.174H138.075V126.132C138.075 125.717 137.997 125.349 137.84 125.026C137.693 124.703 137.476 124.45 137.191 124.266C136.905 124.072 136.564 123.975 136.168 123.975C135.772 123.975 135.431 124.072 135.146 124.266C134.869 124.45 134.657 124.703 134.51 125.026C134.363 125.349 134.289 125.717 134.289 126.132V126.174Z" fill="white"/>
<path d="M142.048 130.293C141.956 130.293 141.878 130.266 141.813 130.21C141.758 130.146 141.731 130.068 141.731 129.975V123.436C141.731 123.344 141.758 123.266 141.813 123.201C141.878 123.137 141.956 123.104 142.048 123.104H142.684C142.776 123.104 142.854 123.137 142.919 123.201C142.983 123.266 143.016 123.344 143.016 123.436V124.045C143.2 123.731 143.453 123.496 143.776 123.339C144.098 123.183 144.485 123.104 144.936 123.104H145.489C145.581 123.104 145.655 123.137 145.71 123.201C145.765 123.256 145.793 123.33 145.793 123.422V123.989C145.793 124.081 145.765 124.155 145.71 124.21C145.655 124.266 145.581 124.293 145.489 124.293H144.66C144.162 124.293 143.771 124.441 143.485 124.736C143.2 125.021 143.057 125.413 143.057 125.911V129.975C143.057 130.068 143.025 130.146 142.96 130.21C142.896 130.266 142.818 130.293 142.725 130.293H142.048Z" fill="white"/>
<path d="M150.396 130.432C149.447 130.432 148.691 130.141 148.13 129.561C147.568 128.971 147.259 128.169 147.204 127.155C147.195 127.035 147.19 126.883 147.19 126.699C147.19 126.505 147.195 126.349 147.204 126.229C147.241 125.574 147.393 125.003 147.66 124.515C147.927 124.017 148.291 123.634 148.751 123.367C149.221 123.1 149.769 122.966 150.396 122.966C151.096 122.966 151.681 123.114 152.15 123.409C152.629 123.703 152.993 124.123 153.242 124.667C153.491 125.21 153.615 125.846 153.615 126.574V126.809C153.615 126.911 153.583 126.989 153.518 127.045C153.463 127.1 153.389 127.127 153.297 127.127H148.516C148.516 127.137 148.516 127.155 148.516 127.183C148.516 127.21 148.516 127.233 148.516 127.252C148.535 127.63 148.618 127.985 148.765 128.316C148.913 128.639 149.124 128.902 149.401 129.104C149.677 129.307 150.009 129.409 150.396 129.409C150.727 129.409 151.004 129.358 151.225 129.256C151.446 129.155 151.625 129.045 151.764 128.925C151.902 128.796 151.994 128.699 152.04 128.634C152.123 128.515 152.187 128.445 152.233 128.427C152.279 128.399 152.353 128.386 152.454 128.386H153.118C153.21 128.386 153.283 128.413 153.339 128.468C153.403 128.515 153.431 128.584 153.422 128.676C153.412 128.814 153.339 128.985 153.201 129.187C153.062 129.381 152.864 129.574 152.606 129.768C152.348 129.962 152.035 130.123 151.667 130.252C151.298 130.372 150.875 130.432 150.396 130.432ZM148.516 126.174H152.302V126.132C152.302 125.717 152.224 125.349 152.067 125.026C151.92 124.703 151.704 124.45 151.418 124.266C151.133 124.072 150.792 123.975 150.396 123.975C150 123.975 149.659 124.072 149.373 124.266C149.097 124.45 148.885 124.703 148.738 125.026C148.59 125.349 148.516 125.717 148.516 126.132V126.174Z" fill="white"/>
<path d="M158.583 130.432C158.077 130.432 157.639 130.344 157.271 130.169C156.902 129.985 156.598 129.74 156.359 129.436C156.128 129.123 155.953 128.768 155.834 128.372C155.723 127.975 155.659 127.556 155.64 127.114C155.631 126.966 155.626 126.828 155.626 126.699C155.626 126.57 155.631 126.432 155.64 126.284C155.659 125.851 155.723 125.436 155.834 125.04C155.953 124.644 156.128 124.289 156.359 123.975C156.598 123.662 156.902 123.418 157.271 123.243C157.639 123.058 158.077 122.966 158.583 122.966C159.127 122.966 159.578 123.063 159.937 123.256C160.297 123.45 160.591 123.69 160.822 123.975V120.796C160.822 120.703 160.849 120.63 160.905 120.574C160.969 120.51 161.047 120.478 161.14 120.478H161.803C161.895 120.478 161.969 120.51 162.024 120.574C162.088 120.63 162.121 120.703 162.121 120.796V129.975C162.121 130.068 162.088 130.146 162.024 130.21C161.969 130.266 161.895 130.293 161.803 130.293H161.181C161.08 130.293 161.001 130.266 160.946 130.21C160.891 130.146 160.863 130.068 160.863 129.975V129.395C160.633 129.69 160.334 129.939 159.965 130.141C159.597 130.335 159.136 130.432 158.583 130.432ZM158.873 129.312C159.334 129.312 159.703 129.206 159.979 128.994C160.255 128.782 160.462 128.515 160.601 128.192C160.739 127.86 160.813 127.524 160.822 127.183C160.831 127.035 160.836 126.86 160.836 126.657C160.836 126.445 160.831 126.266 160.822 126.118C160.813 125.796 160.734 125.478 160.587 125.164C160.449 124.851 160.237 124.593 159.951 124.39C159.675 124.187 159.316 124.086 158.873 124.086C158.404 124.086 158.031 124.192 157.754 124.404C157.478 124.607 157.28 124.879 157.16 125.22C157.04 125.551 156.971 125.911 156.953 126.298C156.944 126.565 156.944 126.833 156.953 127.1C156.971 127.487 157.04 127.851 157.16 128.192C157.28 128.524 157.478 128.796 157.754 129.008C158.031 129.21 158.404 129.312 158.873 129.312Z" fill="white"/>
<path d="M172.495 130.432C171.942 130.432 171.482 130.335 171.113 130.141C170.745 129.939 170.45 129.69 170.229 129.395V129.975C170.229 130.068 170.197 130.146 170.132 130.21C170.077 130.266 170.003 130.293 169.911 130.293H169.276C169.184 130.293 169.105 130.266 169.041 130.21C168.986 130.146 168.958 130.068 168.958 129.975V120.796C168.958 120.703 168.986 120.63 169.041 120.574C169.105 120.51 169.184 120.478 169.276 120.478H169.939C170.04 120.478 170.119 120.51 170.174 120.574C170.229 120.63 170.257 120.703 170.257 120.796V123.975C170.487 123.69 170.782 123.45 171.141 123.256C171.51 123.063 171.961 122.966 172.495 122.966C173.011 122.966 173.449 123.058 173.808 123.243C174.176 123.418 174.476 123.662 174.706 123.975C174.945 124.289 175.125 124.644 175.245 125.04C175.365 125.436 175.429 125.851 175.438 126.284C175.447 126.432 175.452 126.57 175.452 126.699C175.452 126.828 175.447 126.966 175.438 127.114C175.429 127.556 175.365 127.975 175.245 128.372C175.125 128.768 174.945 129.123 174.706 129.436C174.476 129.74 174.176 129.985 173.808 130.169C173.449 130.344 173.011 130.432 172.495 130.432ZM172.205 129.312C172.684 129.312 173.057 129.21 173.324 129.008C173.601 128.796 173.799 128.524 173.918 128.192C174.038 127.851 174.107 127.487 174.126 127.1C174.135 126.833 174.135 126.565 174.126 126.298C174.107 125.911 174.038 125.551 173.918 125.22C173.799 124.879 173.601 124.607 173.324 124.404C173.057 124.192 172.684 124.086 172.205 124.086C171.772 124.086 171.413 124.187 171.127 124.39C170.842 124.593 170.625 124.851 170.478 125.164C170.34 125.478 170.266 125.796 170.257 126.118C170.248 126.266 170.243 126.445 170.243 126.657C170.243 126.86 170.248 127.035 170.257 127.183C170.275 127.524 170.349 127.86 170.478 128.192C170.616 128.515 170.823 128.782 171.1 128.994C171.385 129.206 171.754 129.312 172.205 129.312Z" fill="white"/>
<path d="M178.84 132.92C178.766 132.92 178.702 132.892 178.647 132.837C178.591 132.782 178.564 132.717 178.564 132.644C178.564 132.607 178.568 132.57 178.577 132.533C178.587 132.496 178.605 132.45 178.633 132.395L179.697 129.865L177.058 123.63C177.012 123.519 176.988 123.441 176.988 123.395C176.988 123.312 177.016 123.243 177.071 123.187C177.127 123.132 177.196 123.104 177.279 123.104H177.956C178.048 123.104 178.122 123.127 178.177 123.174C178.232 123.22 178.269 123.275 178.287 123.339L180.388 128.372L182.543 123.339C182.571 123.275 182.608 123.22 182.654 123.174C182.709 123.127 182.787 123.104 182.888 123.104H183.538C183.621 123.104 183.69 123.132 183.745 123.187C183.8 123.243 183.828 123.307 183.828 123.381C183.828 123.427 183.805 123.51 183.759 123.63L179.835 132.685C179.807 132.75 179.766 132.805 179.71 132.851C179.664 132.897 179.591 132.92 179.489 132.92H178.84Z" fill="white"/>
<path d="M191.191 130.293C191.072 130.293 190.975 130.261 190.901 130.197C190.837 130.132 190.791 130.04 190.763 129.92L188.981 121.045C188.971 121.008 188.967 120.975 188.967 120.948C188.967 120.92 188.967 120.902 188.967 120.892C188.967 120.819 188.994 120.754 189.05 120.699C189.105 120.644 189.169 120.616 189.243 120.616H189.962C190.155 120.616 190.266 120.694 190.293 120.851L191.703 127.985L193.195 123.091C193.222 123.008 193.269 122.934 193.333 122.869C193.407 122.796 193.508 122.759 193.637 122.759H194.148C194.286 122.759 194.388 122.796 194.452 122.869C194.517 122.934 194.558 123.008 194.577 123.091L196.083 127.985L197.478 120.851C197.506 120.694 197.621 120.616 197.824 120.616H198.542C198.616 120.616 198.68 120.644 198.736 120.699C198.791 120.754 198.818 120.819 198.818 120.892C198.818 120.902 198.814 120.92 198.805 120.948C198.805 120.975 198.805 121.008 198.805 121.045L197.022 129.92C196.995 130.04 196.944 130.132 196.87 130.197C196.806 130.261 196.714 130.293 196.594 130.293H196.055C195.926 130.293 195.825 130.261 195.751 130.197C195.677 130.132 195.627 130.049 195.599 129.948L193.886 124.68L192.186 129.948C192.149 130.049 192.094 130.132 192.02 130.197C191.956 130.261 191.859 130.293 191.73 130.293H191.191Z" fill="white"/>
<path d="M203.783 130.432C203.083 130.432 202.498 130.298 202.028 130.031C201.558 129.763 201.199 129.395 200.95 128.925C200.702 128.445 200.564 127.902 200.536 127.293C200.527 127.137 200.522 126.939 200.522 126.699C200.522 126.45 200.527 126.252 200.536 126.104C200.564 125.487 200.702 124.943 200.95 124.473C201.208 124.003 201.572 123.634 202.042 123.367C202.512 123.1 203.092 122.966 203.783 122.966C204.474 122.966 205.054 123.1 205.524 123.367C205.994 123.634 206.353 124.003 206.602 124.473C206.86 124.943 207.002 125.487 207.03 126.104C207.039 126.252 207.044 126.45 207.044 126.699C207.044 126.939 207.039 127.137 207.03 127.293C207.002 127.902 206.864 128.445 206.616 128.925C206.367 129.395 206.008 129.763 205.538 130.031C205.068 130.298 204.483 130.432 203.783 130.432ZM203.783 129.367C204.354 129.367 204.81 129.187 205.151 128.828C205.492 128.459 205.676 127.925 205.704 127.224C205.713 127.086 205.717 126.911 205.717 126.699C205.717 126.487 205.713 126.312 205.704 126.174C205.676 125.473 205.492 124.943 205.151 124.584C204.81 124.215 204.354 124.031 203.783 124.031C203.212 124.031 202.751 124.215 202.401 124.584C202.06 124.943 201.881 125.473 201.862 126.174C201.853 126.312 201.849 126.487 201.849 126.699C201.849 126.911 201.853 127.086 201.862 127.224C201.881 127.925 202.06 128.459 202.401 128.828C202.751 129.187 203.212 129.367 203.783 129.367Z" fill="white"/>
<path d="M209.783 130.293C209.691 130.293 209.612 130.266 209.548 130.21C209.493 130.146 209.465 130.068 209.465 129.975V123.436C209.465 123.344 209.493 123.266 209.548 123.201C209.612 123.137 209.691 123.104 209.783 123.104H210.418C210.51 123.104 210.589 123.137 210.653 123.201C210.718 123.266 210.75 123.344 210.75 123.436V124.045C210.934 123.731 211.187 123.496 211.51 123.339C211.832 123.183 212.219 123.104 212.671 123.104H213.223C213.315 123.104 213.389 123.137 213.444 123.201C213.5 123.256 213.527 123.33 213.527 123.422V123.989C213.527 124.081 213.5 124.155 213.444 124.21C213.389 124.266 213.315 124.293 213.223 124.293H212.394C211.897 124.293 211.505 124.441 211.22 124.736C210.934 125.021 210.791 125.413 210.791 125.911V129.975C210.791 130.068 210.759 130.146 210.695 130.21C210.63 130.266 210.552 130.293 210.46 130.293H209.783Z" fill="white"/>
<path d="M215.736 130.293C215.644 130.293 215.566 130.266 215.501 130.21C215.446 130.146 215.419 130.068 215.419 129.975V120.796C215.419 120.703 215.446 120.63 215.501 120.574C215.566 120.51 215.644 120.478 215.736 120.478H216.386C216.487 120.478 216.565 120.51 216.621 120.574C216.676 120.63 216.704 120.703 216.704 120.796V129.975C216.704 130.068 216.676 130.146 216.621 130.21C216.565 130.266 216.487 130.293 216.386 130.293H215.736Z" fill="white"/>
<path d="M222.081 130.432C221.574 130.432 221.137 130.344 220.768 130.169C220.4 129.985 220.096 129.74 219.856 129.436C219.626 129.123 219.451 128.768 219.331 128.372C219.221 127.975 219.156 127.556 219.138 127.114C219.128 126.966 219.124 126.828 219.124 126.699C219.124 126.57 219.128 126.432 219.138 126.284C219.156 125.851 219.221 125.436 219.331 125.04C219.451 124.644 219.626 124.289 219.856 123.975C220.096 123.662 220.4 123.418 220.768 123.243C221.137 123.058 221.574 122.966 222.081 122.966C222.624 122.966 223.076 123.063 223.435 123.256C223.794 123.45 224.089 123.69 224.319 123.975V120.796C224.319 120.703 224.347 120.63 224.402 120.574C224.467 120.51 224.545 120.478 224.637 120.478H225.3C225.392 120.478 225.466 120.51 225.521 120.574C225.586 120.63 225.618 120.703 225.618 120.796V129.975C225.618 130.068 225.586 130.146 225.521 130.21C225.466 130.266 225.392 130.293 225.3 130.293H224.678C224.577 130.293 224.499 130.266 224.444 130.21C224.388 130.146 224.361 130.068 224.361 129.975V129.395C224.13 129.69 223.831 129.939 223.462 130.141C223.094 130.335 222.633 130.432 222.081 130.432ZM222.371 129.312C222.831 129.312 223.2 129.206 223.476 128.994C223.753 128.782 223.96 128.515 224.098 128.192C224.236 127.86 224.31 127.524 224.319 127.183C224.328 127.035 224.333 126.86 224.333 126.657C224.333 126.445 224.328 126.266 224.319 126.118C224.31 125.796 224.232 125.478 224.084 125.164C223.946 124.851 223.734 124.593 223.449 124.39C223.172 124.187 222.813 124.086 222.371 124.086C221.901 124.086 221.528 124.192 221.252 124.404C220.975 124.607 220.777 124.879 220.658 125.22C220.538 125.551 220.469 125.911 220.45 126.298C220.441 126.565 220.441 126.833 220.45 127.1C220.469 127.487 220.538 127.851 220.658 128.192C220.777 128.524 220.975 128.796 221.252 129.008C221.528 129.21 221.901 129.312 222.371 129.312Z" fill="white"/>
<path d="M232.939 130.293C232.838 130.293 232.759 130.266 232.704 130.21C232.649 130.146 232.621 130.068 232.621 129.975V120.934C232.621 120.842 232.649 120.768 232.704 120.713C232.759 120.648 232.838 120.616 232.939 120.616H233.671C233.763 120.616 233.837 120.648 233.892 120.713C233.957 120.768 233.989 120.842 233.989 120.934V129.975C233.989 130.068 233.957 130.146 233.892 130.21C233.837 130.266 233.763 130.293 233.671 130.293H232.939Z" fill="white"/>
<path d="M237.408 130.293C237.307 130.293 237.228 130.266 237.173 130.21C237.118 130.146 237.09 130.068 237.09 129.975V120.948C237.09 120.846 237.118 120.768 237.173 120.713C237.228 120.648 237.307 120.616 237.408 120.616H240.545C241.493 120.616 242.258 120.759 242.838 121.045C243.419 121.33 243.842 121.754 244.109 122.316C244.377 122.869 244.515 123.551 244.524 124.362C244.533 124.777 244.538 125.141 244.538 125.455C244.538 125.768 244.533 126.127 244.524 126.533C244.505 127.381 244.363 128.086 244.096 128.648C243.838 129.201 243.423 129.616 242.852 129.892C242.29 130.16 241.544 130.293 240.614 130.293H237.408ZM238.444 129.118H240.545C241.18 129.118 241.687 129.031 242.064 128.856C242.442 128.68 242.714 128.399 242.88 128.012C243.055 127.625 243.147 127.114 243.156 126.478C243.174 126.201 243.184 125.962 243.184 125.759C243.184 125.547 243.184 125.339 243.184 125.137C243.184 124.925 243.174 124.685 243.156 124.418C243.138 123.524 242.926 122.865 242.52 122.441C242.115 122.008 241.433 121.791 240.475 121.791H238.444V129.118Z" fill="white"/>
</g>
<defs>
<linearGradient id="paint0_linear_20499_66059" x1="197" y1="0" x2="197" y2="226" gradientUnits="userSpaceOnUse">
<stop stop-color="#4940E0"/>
<stop offset="1" stop-color="#7C74FB"/>
</linearGradient>
<clipPath id="clip0_20499_66059">
<path d="M0 8C0 3.58173 3.58172 0 8 0H386C390.418 0 394 3.58172 394 8V226H0V8Z" fill="white"/>
</clipPath>
</defs>
</svg>
