<?xml version="1.0" encoding="UTF-8"?><svg id="Layer_1" xmlns="http://www.w3.org/2000/svg" xmlns:xlink="http://www.w3.org/1999/xlink" viewBox="0 0 600 338"><defs><style>.cls-1{fill:none;}.cls-2{clip-path:url(#clippath);}.cls-3,.cls-4{fill:#fff;}.cls-5{fill:#c44ad0;}.cls-6{fill:#d970d6;}.cls-7{fill:#1d0c40;}.cls-8{fill:#a524c5;}.cls-9{fill:#350e61;}.cls-10{fill:#7a11ac;}.cls-11{fill:#531085;}.cls-12{opacity:.38;}.cls-4{fill-rule:evenodd;}</style><clipPath id="clippath"><path class="cls-1" d="m420,225.77c-31.31,0-56.77-25.47-56.77-56.77s25.47-56.77,56.77-56.77,56.77,25.47,56.77,56.77-25.47,56.77-56.77,56.77Z"/></clipPath></defs><polyline class="cls-7" points="-11.34 -11.34 611.34 -11.34 611.34 349.34 -11.34 349.34"/><path class="cls-9" d="m-11.34,16.84s98.67-4.41,161.14,0c67.18,4.74,100.53,20.87,167.83,25.01,115.28,7.09,293.7-25.01,293.7-25.01v332.5H-11.34"/><path class="cls-11" d="m-11.34,44.31s26.76,61.29,152.63,34.17c125.87-27.12,350.86-65.87,470.05,0v270.86H-11.34"/><path class="cls-10" d="m-11.34,110.53s52.14-19.43,130.13-15.5c85.23,4.3,193.98,57.41,275.46,31.7s180.6-31.7,217.09-16.2v238.81H-11.34"/><path class="cls-8" d="m-11.34,176.75s74.84-14.02,125.87-9.86c70.95,5.78,108.97,33.72,180.6,32.76,67.16-.9,108.31-26.17,174.52-32.76,60.15-5.98,141.68,9.86,141.68,9.86v172.59H-11.34"/><path class="cls-5" d="m-11.34,245.78s113.68,14.04,186.68,10.57c70.95-3.38,105.17-25.83,176.34-26.77,61.52-.81,93.68,13.67,155.06,16.2,40.74,1.68,104.59,0,104.59,0v103.55H-11.34"/><path class="cls-6" d="m-11.34,290.87s66.73-15.56,119.79-20.08c75.93-6.46,113.29,16.05,189.72,20.08,66.6,3.51,103.4-11.35,170.26-10.57,56.25.66,142.9,10.57,142.9,10.57v58.47H-11.34"/><g class="cls-12"><rect x="-11.34" y="-11.34" width="622.68" height="360.68"/></g><path class="cls-4" d="m175.22,114.01c-12.66.74-24.47,5.65-33.77,14.04-1.21,1.09-3.42,3.31-4.44,4.47-6.15,6.94-10.57,15.64-12.5,24.58-3.49,16.22.22,32.65,10.33,45.71,1.93,2.49,5.13,5.85,7.57,7.93,12.15,10.4,28.01,14.97,43.89,12.67,9.52-1.38,18.75-5.4,26.29-11.46,11.44-9.18,18.7-22.34,20.31-36.83.38-3.42.44-7.97.14-11.16-.85-9.09-3.83-17.6-8.8-25.17-8.73-13.28-22.77-22.17-38.43-24.33-2.55-.35-3.78-.43-6.94-.46-1.7-.01-3.34-.01-3.64,0m.65,10.41c-6.49.32-13.26,2.22-18.82,5.27-4.02,2.2-7.07,4.5-10.34,7.76-1.76,1.76-2.81,2.96-4.15,4.73-3.98,5.28-6.71,11.32-8.02,17.73-.23,1.14-.62,3.49-.62,3.82,0,.03,3.48.06,7.73.06h7.73l.04-.19c.02-.1.12-.58.22-1.07.8-4,2.65-8.2,5.08-11.53,2.01-2.77,4.66-5.39,7.31-7.25,3.85-2.71,8.1-4.44,12.73-5.21,2.29-.38,1.93-.37,19.18-.42l16.5-.05-1.25-1.21c-7.05-6.85-16.28-11.19-26.03-12.25-2.49-.27-4.74-.33-7.29-.21m1.61,24.25c-8.16.93-14.96,6.7-17.34,14.7l-.13.43h62.54l-.06-.56c-.12-1.14-.56-3.45-.96-5.09-.69-2.81-1.63-5.44-2.93-8.25l-.61-1.32h-19.94c-10.97.02-20.23.05-20.57.09m-43.51,25.89c.7,5.2,2.01,9.59,4.18,14.03,2.46,5.03,5.87,9.56,10.03,13.36,10.11,9.24,23.71,13.26,37.38,11.05,8.95-1.44,17.41-5.75,23.94-12.18l.96-.95-16.51-.04c-18.1-.05-16.99-.02-19.9-.55-3.13-.57-6.39-1.73-9.13-3.26-5.84-3.24-10.66-8.51-13.32-14.53-.89-2.02-1.7-4.62-2.13-6.85l-.09-.48h-15.46l.05.4m26.04-.35c0,.16.67,2.07.98,2.8,1.9,4.45,5.58,8.28,10.01,10.41,1.68.8,3.32,1.33,5.39,1.73l.96.19,20.3.03,20.3.03.61-1.28c1.47-3.06,2.75-6.88,3.43-10.27.22-1.11.55-3.17.55-3.49v-.19s-31.27,0-31.27,0c-17.2,0-31.27.02-31.27.04"/><g class="cls-2"><polyline class="cls-7" points="-11.34 -11.34 611.34 -11.34 611.34 349.34 -11.34 349.34"/><path class="cls-9" d="m-11.34,16.84s98.67-4.41,161.14,0c67.18,4.74,100.53,20.87,167.83,25.01,115.28,7.09,293.7-25.01,293.7-25.01v332.5H-11.34"/><path class="cls-11" d="m-11.34,44.31s26.76,61.29,152.63,34.17c125.87-27.12,350.86-65.87,470.05,0v270.86H-11.34"/><path class="cls-10" d="m-11.34,110.53s52.14-19.43,130.13-15.5c85.23,4.3,193.98,57.41,275.46,31.7,81.48-25.71,180.6-31.7,217.09-16.2v238.81H-11.34"/><path class="cls-8" d="m-11.34,176.75s74.84-14.02,125.87-9.86c70.95,5.78,108.97,33.72,180.6,32.76,67.16-.9,108.31-26.17,174.52-32.76,60.15-5.98,141.68,9.86,141.68,9.86v172.59H-11.34"/><path class="cls-5" d="m-11.34,245.78s113.68,14.04,186.68,10.57c70.95-3.38,105.17-25.83,176.34-26.77,61.52-.81,93.68,13.67,155.06,16.2,40.74,1.68,104.59,0,104.59,0v103.55H-11.34"/><path class="cls-6" d="m-11.34,290.87s66.73-15.56,119.79-20.08c75.93-6.46,113.29,16.05,189.72,20.08,66.6,3.51,103.4-11.35,170.26-10.57,56.25.66,142.9,10.57,142.9,10.57v58.47H-11.34"/></g><path class="cls-3" d="m420,225.77c-31.31,0-56.77-25.47-56.77-56.77s25.47-56.77,56.77-56.77,56.77,25.47,56.77,56.77-25.47,56.77-56.77,56.77Zm0-110c-29.35,0-53.23,23.88-53.23,53.23s23.88,53.23,53.23,53.23,53.23-23.88,53.23-53.23-23.88-53.23-53.23-53.23Z"/><path class="cls-3" d="m434.66,168.56h4.72v23.29h-4.32v-3.93c-1.77,1.42-3.86,2.51-6.25,3.26-2.35.71-4.88,1.06-7.58,1.06-4.17,0-8.05-.93-11.64-2.79-3.55-1.86-6.41-4.57-8.58-8.12s-3.26-7.76-3.26-12.64c0-4.52,1.06-8.58,3.19-12.18,2.13-3.64,5.06-6.48,8.78-8.52,3.73-2.08,7.94-3.13,12.64-3.13,3.55,0,6.81.58,9.78,1.73,2.97,1.11,5.48,2.77,7.52,4.99l-3.06,3.13c-3.68-3.64-8.36-5.46-14.04-5.46-3.77,0-7.19.84-10.25,2.53-3.02,1.64-5.39,3.95-7.12,6.92-1.73,2.97-2.59,6.3-2.59,9.98,0,3.95.87,7.39,2.59,10.31,1.77,2.88,4.1,5.1,6.99,6.65,2.93,1.51,6.05,2.26,9.38,2.26,2.44,0,4.79-.4,7.05-1.2,2.31-.84,4.32-2.11,6.05-3.79v-14.37Z"/><rect class="cls-3" x="296.89" y="149.12" width="2.67" height="39.76" transform="translate(-32.15 260.38) rotate(-45)"/><rect class="cls-3" x="296.89" y="149.12" width="2.67" height="39.76" transform="translate(206.85 -161.38) rotate(45)"/></svg>