<svg width="200" height="200" viewBox="0 0 200 200" fill="none" xmlns="http://www.w3.org/2000/svg">
<g clip-path="url(#clip0_126_5025)">
<g opacity="0.8">
<path d="M0 0H200V200H0V0Z" fill="#1D0C40"/>
<path d="M0 15.625C0 15.625 31.6936 13.1793 51.7578 15.625C73.3352 18.2551 84.0486 27.1959 105.664 29.4922C142.692 33.4257 200 15.625 200 15.625V200H0V15.625Z" fill="#350E61"/>
<path d="M0 30.8594C0 30.8594 8.59375 64.8438 49.0234 49.8047C89.4531 34.7656 161.719 13.2812 200 49.8047V200H0V30.8594Z" fill="#531085"/>
<path d="M0 67.5781C0 67.5781 16.7471 56.8014 41.7969 58.9844C69.1736 61.3701 104.102 90.8203 130.273 76.5625C156.445 62.3047 188.281 58.9844 200 67.5781V200H0V67.5781Z" fill="#7A11AC"/>
<path d="M0 104.297C0 104.297 24.0392 96.5248 40.4297 98.8281C63.2181 102.031 75.4313 117.526 98.4375 116.992C120.009 116.492 133.226 102.481 154.492 98.8281C173.812 95.5098 200 104.297 200 104.297V200H0V104.297Z" fill="#A524C5"/>
<path d="M0 142.578C0 142.578 36.5122 150.364 59.9609 148.437C82.7506 146.565 93.741 134.116 116.602 133.594C136.36 133.142 146.692 141.173 166.406 142.578C179.492 143.511 200 142.578 200 142.578V200H0V142.578Z" fill="#C44AD0"/>
<path d="M0 167.578C0 167.578 21.4334 158.948 38.4766 156.445C62.8659 152.864 74.8646 165.345 99.4141 167.578C120.805 169.524 132.627 161.284 154.102 161.719C172.168 162.084 200 167.578 200 167.578V200H0V167.578Z" fill="#D970D6"/>
</g>
<rect x="-6" y="-16" width="214" height="224" fill="#292929"/>
<g clip-path="url(#clip1_126_5025)">
<rect x="40" y="40" width="120" height="120" rx="60" fill="white"/>
<path d="M30 30H230V230H30V30Z" fill="#1D0C40"/>
<path d="M30 45.625C30 45.625 61.6936 43.1793 81.7578 45.625C103.335 48.2551 114.049 57.1959 135.664 59.4922C172.692 63.4257 230 45.625 230 45.625V230H30V45.625Z" fill="#350E61"/>
<path d="M30 60.8594C30 60.8594 38.5938 94.8438 79.0234 79.8047C119.453 64.7656 191.719 43.2812 230 79.8047V230H30V60.8594Z" fill="#531085"/>
<path d="M30 97.5781C30 97.5781 46.7471 86.8014 71.7969 88.9844C99.1736 91.3701 134.102 120.82 160.273 106.563C186.445 92.3047 218.281 88.9844 230 97.5781V230H30V97.5781Z" fill="#7A11AC"/>
<path d="M30 134.297C30 134.297 54.0392 126.525 70.4297 128.828C93.2181 132.031 105.431 147.526 128.438 146.992C150.009 146.492 163.226 132.481 184.492 128.828C203.812 125.51 230 134.297 230 134.297V230H30V134.297Z" fill="#A524C5"/>
<path d="M30 172.578C30 172.578 66.5122 180.364 89.9609 178.437C112.751 176.565 123.741 164.116 146.602 163.594C166.36 163.142 176.692 171.173 196.406 172.578C209.492 173.511 230 172.578 230 172.578V230H30V172.578Z" fill="#C44AD0"/>
<path d="M30 197.578C30 197.578 51.4334 188.948 68.4766 186.445C92.8659 182.864 104.865 195.345 129.414 197.578C150.805 199.524 162.627 191.284 184.102 191.719C202.168 192.084 230 197.578 230 197.578V230H30V197.578Z" fill="#D970D6"/>
<path d="M115.489 99.5313H120.481V124.141H115.91V119.992C114.035 121.492 111.832 122.641 109.301 123.438C106.817 124.188 104.145 124.563 101.285 124.563C96.8792 124.563 92.7776 123.578 88.9807 121.609C85.2307 119.641 82.2073 116.781 79.9104 113.031C77.6135 109.281 76.4651 104.828 76.4651 99.6719C76.4651 94.8906 77.5901 90.6016 79.8401 86.8047C82.0901 82.9609 85.1838 79.9609 89.1213 77.8047C93.0588 75.6016 97.512 74.5 102.481 74.5C106.231 74.5 109.676 75.1094 112.817 76.3281C115.957 77.5 118.606 79.2578 120.762 81.6016L117.528 84.9063C113.637 81.0625 108.692 79.1406 102.692 79.1406C98.7073 79.1406 95.0979 80.0313 91.8635 81.8125C88.676 83.5469 86.1682 85.9844 84.3401 89.125C82.512 92.2656 81.5979 95.7813 81.5979 99.6719C81.5979 103.844 82.512 107.477 84.3401 110.57C86.2151 113.617 88.676 115.961 91.7229 117.602C94.8167 119.195 98.1213 119.992 101.637 119.992C104.215 119.992 106.699 119.57 109.09 118.727C111.528 117.836 113.66 116.5 115.489 114.719V99.5313Z" fill="white"/>
</g>
<rect x="42" y="42" width="116" height="116" rx="58" stroke="white" stroke-width="4"/>
</g>
<defs>
<clipPath id="clip0_126_5025">
<rect width="200" height="200" rx="15" fill="white"/>
</clipPath>
<clipPath id="clip1_126_5025">
<rect x="40" y="40" width="120" height="120" rx="60" fill="white"/>
</clipPath>
</defs>
</svg>
