<svg width="394" height="226" viewBox="0 0 394 226" fill="none" xmlns="http://www.w3.org/2000/svg">
    <path d="M0 8C0 3.58173 3.58172 0 8 0H386C390.418 0 394 3.58172 394 8V226H0V8Z" fill="#B9F84E"/>
    <path d="M196.744 57L141 112.653L196.744 168.305L252.489 112.653L196.744 57ZM163.155 112.653L196.744 79.1183L230.334 112.653L196.744 146.187L163.155 112.653Z" fill="#080808"/>
    <path d="M203.78 83.2285L185.675 101.304C184.603 102.374 185.914 104.871 187.819 105.168L200.147 107.19L202.172 119.498C202.47 121.4 204.971 122.709 206.043 121.638L224.149 103.563L203.84 83.288L203.78 83.2285Z" fill="#080808"/>
</svg>
