<svg width="394" height="226" viewBox="0 0 394 226" fill="none" xmlns="http://www.w3.org/2000/svg">
<g clip-path="url(#clip0_20499_66065)">
<path d="M0 8C0 3.58173 3.58172 0 8 0H386C390.418 0 394 3.58172 394 8V226H0V8Z" fill="white"/>
<rect y="-0.285156" width="394" height="226.285" fill="#183C4A"/>
<mask id="mask0_20499_66065" style="mask-type:luminance" maskUnits="userSpaceOnUse" x="150" y="54" width="94" height="128">
<path d="M244 54.4258H150V181.599H244V54.4258Z" fill="white"/>
</mask>
<g mask="url(#mask0_20499_66065)">
<path d="M151.119 181.011V151.713H154.641V177.83H169.965V181.011H151.119Z" fill="white"/>
<path d="M173.542 181.011V151.713H191.616V154.893H177.065V164.694H188.857V167.875H177.065V177.837H191.825V181.017L173.542 181.011Z" fill="white"/>
<path d="M195.263 181.011V151.713H202.731L212.962 178.795H214.141V151.713H217.625V181.011H210.153L199.963 153.894H198.744V181.014L195.263 181.011Z" fill="white"/>
<path d="M232.524 181.596C230.565 181.629 228.621 181.244 226.823 180.467C225.19 179.751 223.81 178.563 222.861 177.056C221.898 175.534 221.415 173.63 221.413 171.343V170.464H224.897V171.343C224.897 173.771 225.61 175.577 227.035 176.762C228.461 177.946 230.29 178.544 232.524 178.554C234.816 178.554 236.562 178.038 237.763 177.005C238.339 176.535 238.801 175.94 239.114 175.266C239.426 174.592 239.582 173.856 239.569 173.113C239.619 172.178 239.328 171.255 238.748 170.518C238.125 169.816 237.342 169.274 236.465 168.937C235.354 168.49 234.209 168.132 233.041 167.868L230.862 167.325C229.302 166.931 227.784 166.385 226.332 165.693C225.106 165.125 224.046 164.255 223.25 163.164C222.509 162.11 222.138 160.763 222.138 159.124C222.1 157.607 222.533 156.117 223.377 154.855C224.247 153.619 225.457 152.659 226.861 152.092C228.505 151.427 230.267 151.105 232.04 151.144C233.874 151.115 235.694 151.463 237.386 152.168C238.883 152.794 240.171 153.831 241.099 155.159C242.009 156.487 242.463 158.154 242.461 160.161V161.918H238.976V160.161C238.976 158.738 238.677 157.594 238.077 156.73C237.465 155.855 236.603 155.184 235.603 154.805C234.46 154.367 233.242 154.152 232.018 154.173C230.09 154.173 228.538 154.594 227.362 155.437C226.185 156.28 225.598 157.487 225.6 159.057C225.559 159.955 225.825 160.84 226.354 161.567C226.924 162.265 227.66 162.809 228.495 163.148C229.564 163.602 230.672 163.959 231.805 164.214L233.988 164.761C235.569 165.082 237.109 165.58 238.577 166.247C239.857 166.813 240.974 167.69 241.827 168.798C242.638 169.873 243.044 171.276 243.044 173.006C243.08 174.608 242.627 176.184 241.745 177.524C240.829 178.847 239.558 179.885 238.077 180.518C236.324 181.267 234.431 181.635 232.524 181.596Z" fill="white"/>
<path d="M197.112 113.347C196.181 113.347 174.082 113.154 157.177 96.275C156.819 95.9209 156.471 95.5606 156.129 95.2002C152.588 91.4759 150.909 87.0434 151.264 82.3865C151.581 78.2764 153.481 74.296 156.601 71.1725C159.721 68.0488 163.721 66.1583 167.836 65.8453C172.147 65.5291 176.268 66.9266 179.818 69.93C180.201 65.3015 182.115 61.3939 185.396 58.5864C188.529 55.9022 192.681 54.4258 197.116 54.4258C201.55 54.4258 205.703 55.9022 208.835 58.5864C212.113 61.397 214.03 65.3015 214.413 69.93C217.964 66.9266 222.085 65.5037 226.395 65.8453C230.513 66.1614 234.501 68.0584 237.627 71.1725C240.753 74.2866 242.654 78.2796 242.964 82.3865C243.322 87.0434 241.64 91.4759 238.102 95.2065C237.76 95.5668 237.412 95.9274 237.054 96.2815C220.146 113.154 198.047 113.347 197.112 113.347ZM169.058 69.3009C165.226 69.3009 161.628 71.0808 159.068 73.6321C154.469 78.2259 152.379 86.1866 158.663 92.8164C158.984 93.1557 159.311 93.4919 159.645 93.8248C175.539 109.686 196.903 109.87 197.116 109.87C197.328 109.87 218.737 109.648 234.59 93.8248C234.925 93.4898 235.253 93.1536 235.571 92.8164C241.856 86.1772 239.765 78.2259 235.166 73.6321C230.567 69.0383 222.588 66.9518 215.937 73.2274C215.597 73.5458 215.26 73.8724 214.926 74.2076C214.67 74.4637 214.419 74.726 214.172 74.9884L210.869 78.4851L210.998 73.6858C210.998 73.3192 211.021 72.9555 211.021 72.5856C211.021 72.1114 211.021 71.6373 211.002 71.1788C210.748 62.0578 203.631 57.9003 197.122 57.9003C190.613 57.9003 183.502 62.0546 183.245 71.1788C183.245 71.6435 183.226 72.1273 183.226 72.5856C183.226 72.9461 183.226 73.3002 183.245 73.6575L183.375 78.4851L180.068 75.0073C179.818 74.7418 179.565 74.4762 179.305 74.2138C178.969 73.8787 178.633 73.552 178.295 73.2337C175.333 70.4295 172.118 69.3009 169.058 69.3009Z" fill="white"/>
<path d="M194.88 94.9277H192.346C192.346 91.1622 188.671 88.0955 184.161 88.0955C179.651 88.0955 175.976 91.1622 175.976 94.9277H173.442C173.442 89.7649 178.25 85.5664 184.161 85.5664C190.071 85.5664 194.88 89.7649 194.88 94.9277Z" fill="white"/>
<path d="M220.644 94.823H218.11C218.11 91.0577 214.439 87.9941 209.925 87.9941C205.412 87.9941 201.741 91.0577 201.741 94.823H199.207C199.207 89.6635 204.015 85.4648 209.925 85.4648C215.835 85.4648 220.644 89.6635 220.644 94.823Z" fill="white"/>
<path d="M187.079 94.981C189.092 94.981 190.725 93.3519 190.725 91.3421C190.725 89.3324 189.092 87.7031 187.079 87.7031C185.065 87.7031 183.433 89.3324 183.433 91.3421C183.433 93.3519 185.065 94.981 187.079 94.981Z" fill="white"/>
<path d="M212.671 94.981C214.685 94.981 216.317 93.3519 216.317 91.3421C216.317 89.3324 214.685 87.7031 212.671 87.7031C210.658 87.7031 209.025 89.3324 209.025 91.3421C209.025 93.3519 210.658 94.981 212.671 94.981Z" fill="white"/>
<path d="M197.103 104.226C194.116 104.226 191.348 102.692 190.056 100.321L192.273 99.1133C193.131 100.694 195.022 101.696 197.097 101.696C199.172 101.696 201.066 100.681 201.921 99.1133L204.138 100.321C202.858 102.692 200.1 104.226 197.103 104.226Z" fill="white"/>
<path d="M242.515 139.285C236.165 142.253 229.008 143.032 222.167 141.499C216.505 140.245 211.307 137.437 207.16 133.389C209.785 134.475 212.601 135.028 215.443 135.014C220.356 135.015 225.148 133.491 229.155 130.651L227.121 127.825C221.638 131.764 214.097 132.713 208.145 130.029C202.273 127.389 198.96 121.739 198.747 114.079V111.609H195.263V112.046V114.06C195.06 121.729 191.741 127.386 185.862 130.029C179.911 132.706 172.356 131.771 166.886 127.816L164.856 130.642C168.86 133.482 173.649 135.009 178.561 135.011C181.403 135.025 184.219 134.473 186.844 133.386C182.698 137.433 177.501 140.242 171.84 141.495C164.999 143.029 157.842 142.25 151.492 139.282L150.007 142.428C154.67 144.613 159.759 145.743 164.91 145.738C167.498 145.739 170.078 145.454 172.603 144.888C180.352 143.171 187.274 138.848 192.21 132.643L192.232 132.615C193.39 131.098 194.407 129.479 195.27 127.778V145.675H198.754V127.803C199.615 129.496 200.629 131.108 201.782 132.618L201.804 132.646C206.739 138.85 213.66 143.173 221.407 144.891C223.932 145.457 226.513 145.742 229.101 145.741C234.253 145.746 239.343 144.616 244.007 142.431L242.515 139.285Z" fill="white"/>
</g>
</g>
<defs>
<clipPath id="clip0_20499_66065">
<path d="M0 8C0 3.58173 3.58172 0 8 0H386C390.418 0 394 3.58172 394 8V226H0V8Z" fill="white"/>
</clipPath>
</defs>
</svg>
