<svg width="394" height="226" viewBox="0 0 394 226" fill="none" xmlns="http://www.w3.org/2000/svg">
<rect width="394" height="226" fill="#EBF1F2"/>
<g clip-path="url(#clip0_22745_57334)">
<mask id="mask0_22745_57334" style="mask-type:luminance" maskUnits="userSpaceOnUse" x="86" y="74" width="80" height="80">
<path d="M166 74H86V154H166V74Z" fill="white"/>
</mask>
<g mask="url(#mask0_22745_57334)">
<path d="M162.851 98.4309C160.834 93.6647 157.951 89.393 154.279 85.7208C150.607 82.0485 146.326 79.1659 141.569 77.149C136.631 75.056 131.399 74 125.995 74C120.601 74 115.359 75.056 110.421 77.149C105.655 79.1659 101.384 82.0485 97.7113 85.7208C94.039 89.393 91.1564 93.6742 89.1395 98.4309C87.056 103.359 86 108.601 86 113.995C86 119.39 87.056 124.631 89.149 129.569C91.1659 134.335 94.0485 138.607 97.7208 142.279C101.393 145.951 105.674 148.834 110.431 150.851C115.369 152.935 120.601 154 126.005 154C131.399 154 136.641 152.944 141.579 150.851C146.345 148.834 150.616 145.951 154.289 142.279C157.961 138.607 160.844 134.326 162.86 129.569C164.944 124.631 166.01 119.399 166.01 113.995C166 108.601 164.935 103.359 162.851 98.4309ZM112.714 110.237C114.379 103.844 120.201 99.1159 127.118 99.1159H154.888C156.677 102.569 157.818 106.327 158.265 110.237H112.714ZM158.265 117.753C157.818 121.663 156.667 125.421 154.888 128.875H127.118C120.211 128.875 114.389 124.146 112.714 117.753H158.265ZM103.029 91.0294C109.166 84.8931 117.319 81.5157 125.995 81.5157C134.672 81.5157 142.825 84.8931 148.961 91.0294C149.151 91.2197 149.332 91.4098 149.513 91.6002H127.118C121.134 91.6002 115.511 93.9311 111.278 98.1645C107.948 101.494 105.798 105.69 105.027 110.247H93.7346C94.5623 102.988 97.7874 96.2714 103.029 91.0294ZM125.995 146.484C117.319 146.484 109.166 143.107 103.029 136.971C97.7874 131.729 94.5623 125.012 93.7346 117.763H105.027C105.788 122.32 107.948 126.515 111.278 129.845C115.511 134.078 121.134 136.409 127.118 136.409H149.522C149.342 136.6 149.151 136.79 148.971 136.98C142.834 143.097 134.672 146.484 125.995 146.484Z" fill="#183C4A"/>
</g>
</g>
<path d="M207.251 103.296L185.978 124.705" stroke="#183C4A" stroke-width="3.02951"/>
<path d="M207.318 124.635L185.908 103.363" stroke="#183C4A" stroke-width="3.02951"/>
<path d="M266.628 125.4C265.849 125.4 247.367 125.234 233.229 110.729C232.93 110.425 232.638 110.115 232.352 109.805C229.391 106.605 227.987 102.796 228.283 98.7941C228.548 95.2622 230.138 91.8417 232.747 89.1576C235.356 86.4733 238.702 84.8487 242.143 84.5798C245.748 84.308 249.195 85.5089 252.164 88.0899C252.485 84.1124 254.085 80.7545 256.829 78.3419C259.449 76.0353 262.922 74.7666 266.631 74.7666C270.339 74.7666 273.812 76.0353 276.432 78.3419C279.174 80.7572 280.776 84.1124 281.097 88.0899C284.066 85.5089 287.513 84.2862 291.118 84.5798C294.562 84.8514 297.897 86.4815 300.511 89.1576C303.126 91.8336 304.715 95.2649 304.975 98.7941C305.274 102.796 303.868 106.605 300.909 109.811C300.623 110.12 300.331 110.43 300.032 110.734C285.891 125.234 267.409 125.4 266.628 125.4ZM243.165 87.5492C239.96 87.5492 236.951 89.0787 234.81 91.2712C230.964 95.2187 229.216 102.06 234.471 107.757C234.74 108.048 235.014 108.337 235.293 108.623C248.585 122.254 266.453 122.411 266.631 122.411C266.808 122.411 284.713 122.221 297.971 108.623C298.252 108.336 298.525 108.047 298.792 107.757C304.048 102.052 302.299 95.2187 298.453 91.2712C294.607 87.3236 287.934 85.5306 282.371 90.9234C282.087 91.197 281.805 91.4777 281.526 91.7657C281.311 91.9858 281.102 92.2112 280.895 92.4367L278.132 95.4415L278.241 91.3173C278.241 91.0023 278.26 90.6898 278.26 90.3719C278.26 89.9644 278.26 89.557 278.244 89.1629C278.032 81.325 272.079 77.7524 266.636 77.7524C261.192 77.7524 255.245 81.3223 255.03 89.1629C255.03 89.5623 255.014 89.978 255.014 90.3719C255.014 90.6817 255.014 90.986 255.03 91.293L255.139 95.4415L252.373 92.453C252.164 92.2248 251.952 91.9965 251.735 91.7711C251.454 91.483 251.173 91.2023 250.89 90.9288C248.413 88.5191 245.724 87.5492 243.165 87.5492Z" fill="#183C4A"/>
<path d="M264.743 109.571H262.624C262.624 106.335 259.551 103.7 255.779 103.7C252.007 103.7 248.934 106.335 248.934 109.571H246.815C246.815 105.134 250.836 101.526 255.779 101.526C260.722 101.526 264.743 105.134 264.743 109.571Z" fill="#183C4A"/>
<path d="M286.299 109.486H284.179C284.179 106.25 281.109 103.618 277.334 103.618C273.56 103.618 270.489 106.25 270.489 109.486H268.37C268.37 105.052 272.391 101.444 277.334 101.444C282.277 101.444 286.299 105.052 286.299 109.486Z" fill="#183C4A"/>
<path d="M258.229 109.616C259.913 109.616 261.278 108.216 261.278 106.489C261.278 104.762 259.913 103.362 258.229 103.362C256.545 103.362 255.18 104.762 255.18 106.489C255.18 108.216 256.545 109.616 258.229 109.616Z" fill="#183C4A"/>
<path d="M279.632 109.618C281.316 109.618 282.681 108.218 282.681 106.491C282.681 104.764 281.316 103.364 279.632 103.364C277.948 103.364 276.583 104.764 276.583 106.491C276.583 108.218 277.948 109.618 279.632 109.618Z" fill="#183C4A"/>
<path d="M266.613 117.572C264.115 117.572 261.8 116.254 260.719 114.217L262.573 113.179C263.291 114.537 264.873 115.398 266.608 115.398C268.343 115.398 269.927 114.526 270.642 113.179L272.497 114.217C271.426 116.254 269.119 117.572 266.613 117.572Z" fill="#183C4A"/>
<path d="M304.594 147.686C299.284 150.236 293.298 150.905 287.577 149.588C282.841 148.511 278.494 146.097 275.026 142.619C277.221 143.553 279.576 144.027 281.953 144.016C286.062 144.017 290.07 142.707 293.42 140.267L291.72 137.838C287.134 141.223 280.827 142.038 275.849 139.732C270.938 137.463 268.167 132.608 267.99 126.025V123.903H265.076V124.278V126.009C264.906 132.6 262.13 137.46 257.214 139.732C252.236 142.033 245.918 141.228 241.343 137.83L239.645 140.259C242.994 142.699 247 144.011 251.108 144.013C253.484 144.025 255.839 143.55 258.035 142.617C254.568 146.095 250.221 148.508 245.486 149.585C239.765 150.903 233.779 150.234 228.469 147.684L227.227 150.387C231.127 152.264 235.382 153.235 239.69 153.231C241.855 153.232 244.013 152.987 246.125 152.5C252.605 151.025 258.395 147.31 262.522 141.978L262.541 141.954C263.509 140.651 264.36 139.259 265.081 137.797V153.177H267.995V137.819C268.715 139.274 269.563 140.659 270.528 141.957L270.546 141.981C274.673 147.312 280.462 151.027 286.941 152.503C289.053 152.99 291.211 153.235 293.375 153.234C297.684 153.238 301.941 152.267 305.842 150.389L304.594 147.686Z" fill="#183C4A"/>
<mask id="mask1_22745_57334" style="mask-type:alpha" maskUnits="userSpaceOnUse" x="0" y="0" width="394" height="226">
<rect width="394" height="226" fill="#EBF1F2"/>
</mask>
<g mask="url(#mask1_22745_57334)">
<path d="M303.523 -6.31471C292.758 3.55701 283.584 16.2699 282.134 30.8035C281.575 36.406 282.659 42.9189 287.415 45.9334C290.102 47.6364 293.455 47.8705 296.632 47.7299C311.285 47.0831 325.901 39.6032 340.059 43.4334C352.536 46.809 361.044 58.0383 371.807 65.1938C388.871 76.5386 412.638 76.7738 429.923 65.7702C433.979 63.1884 437.923 59.6637 438.823 54.941C439.249 52.6993 438.942 50.3821 438.447 48.1551C435.997 37.1484 429.089 27.6452 421.333 19.4597C413.578 11.2742 404.821 4.05153 397.455 -4.48674C392.234 -10.5398 387.752 -17.208 382.42 -23.1645C377.088 -29.1209 370.708 -34.4547 363.08 -36.8475C353.317 -39.9113 342.591 -36.5347 334.599 -30.6307C324.083 -22.8621 313.166 -15.1585 303.522 -6.31576L303.523 -6.31471Z" fill="#183C4A" fill-opacity="0.05"/>
<path d="M-62.4771 182.685C-73.2423 192.557 -82.4158 205.27 -83.8658 219.803C-84.4255 225.406 -83.3409 231.919 -78.5845 234.933C-75.8977 236.636 -72.5452 236.871 -69.368 236.73C-54.7148 236.083 -40.0993 228.603 -25.9406 232.433C-13.4639 235.809 -4.95613 247.038 5.80701 254.194C22.871 265.539 46.6378 265.774 63.9233 254.77C67.9793 252.188 71.923 248.664 72.8228 243.941C73.2491 241.699 72.9425 239.382 72.4469 237.155C69.9973 226.148 63.0886 216.645 55.3325 208.46C47.5775 200.274 38.8209 193.052 31.4554 184.513C26.234 178.46 21.7517 171.792 16.42 165.836C11.0883 159.879 4.7077 154.545 -2.92025 152.152C-12.6828 149.089 -23.4092 152.465 -31.4015 158.369C-41.9168 166.138 -52.8343 173.841 -62.4782 182.684L-62.4771 182.685Z" fill="#183C4A" fill-opacity="0.05"/>
<path d="M386.796 142.329C380.663 142.226 373.661 143.268 370.238 148.357C367.309 152.712 368.065 158.46 368.754 163.662C369.444 168.866 369.742 174.782 366.236 178.687C364.202 180.951 361.224 182.101 358.305 182.961C343.584 187.298 327.448 186.264 313.345 192.319C305.422 195.72 297.985 202.093 296.652 210.611C295.712 216.622 298.021 222.822 301.83 227.566C305.64 232.309 310.827 235.759 316.206 238.601C340.315 251.336 369.579 252.801 395.705 244.996C404.194 242.459 412.495 238.941 419.552 233.584C433.546 222.962 441.449 206.044 445.718 189.002C446.998 183.894 447.997 178.502 446.688 173.401C440.921 150.934 406.344 142.656 386.795 142.329L386.796 142.329Z" fill="#183C4A" fill-opacity="0.05"/>
<path d="M-15.2018 61.9917C-16.7641 72.4031 -6.25718 81.6521 4.25921 82.1372C14.7767 82.6213 24.5507 76.7331 32.5262 69.86C46.0854 58.1761 56.586 43.127 70.919 32.4059C79.6169 25.8993 90.4756 20.996 101.14 23.0539C109.428 24.653 116.39 30.2199 122.256 36.2897C128.122 42.3595 133.318 49.1527 139.993 54.3206C150.926 62.7833 165.326 66.2398 179.084 64.8738C192.841 63.5078 205.929 57.5482 216.819 49.0299C223.327 43.9407 229.565 36.7748 228.809 28.5473C228.317 23.1998 224.897 18.5538 220.986 14.8737C212.045 6.46454 200.26 1.73972 190.649 -5.89244C187.528 -8.37034 184.507 -11.3837 183.606 -15.2665C182.667 -19.3099 184.26 -23.6063 186.842 -26.857C189.424 -30.1077 192.904 -32.5005 196.33 -34.844L111.011 -60L-37 -16.6472L-15.2018 61.9917Z" fill="#183C4A" fill-opacity="0.05"/>
</g>
<defs>
<clipPath id="clip0_22745_57334">
<rect width="80" height="80" fill="white" transform="translate(86 74)"/>
</clipPath>
</defs>
</svg>
