<svg width="394" height="226" viewBox="0 0 394 226" fill="none" xmlns="http://www.w3.org/2000/svg">
<path d="M0 8C0 3.58173 3.58172 0 8 0H386C390.418 0 394 3.58172 394 8V226H0V8Z" fill="#EBF1F2"/>
<path d="M132.65 104.772C132.847 105.006 133.123 105.157 133.424 105.195C133.725 105.234 134.029 105.157 134.277 104.979C136.582 103.323 140.514 100.562 144.786 97.8361C147.955 101.467 150.038 105.945 150.786 110.742C154.142 105.842 163.634 93.212 155.464 86.897C148.481 81.6173 133.836 97.3875 132.379 103.668C132.331 103.86 132.331 104.062 132.378 104.255C132.426 104.447 132.519 104.625 132.65 104.772Z" fill="#183C4A"/>
<path d="M138.345 113.158C138.125 113.272 137.943 113.45 137.823 113.669C137.702 113.888 137.647 114.138 137.665 114.388C137.683 114.639 137.773 114.878 137.924 115.077C138.075 115.275 138.281 115.424 138.514 115.504C141.226 116.333 145.803 117.747 150.549 119.438C149.739 124.236 147.585 128.694 144.345 132.275C150.21 131.861 165.837 131.551 165.634 121.129C165.329 112.295 144.108 110.432 138.345 113.158Z" fill="#183C4A"/>
<path d="M134.751 123.855C134.577 123.77 134.386 123.725 134.192 123.725C133.998 123.725 133.807 123.77 133.633 123.855C133.363 124.003 133.155 124.245 133.049 124.538C132.943 124.83 132.946 125.152 133.056 125.443C134.141 128.1 135.904 132.655 137.531 137.486C130.446 141.385 123.836 140.523 123.836 140.523C127.768 144.94 137.735 157.19 145.633 150.564C152.21 144.802 140.447 126.719 134.751 123.855Z" fill="#183C4A"/>
<path d="M124.311 127.617C124.27 127.425 124.184 127.246 124.059 127.096C123.935 126.945 123.777 126.828 123.599 126.754C123.318 126.63 123.002 126.619 122.713 126.721C122.425 126.823 122.184 127.032 122.039 127.306C120.649 129.791 118.276 134.001 115.565 138.349C111.158 136.465 107.379 133.325 104.683 129.308C103.734 135.208 100.547 150.772 110.547 152.911C119.09 154.602 125.633 133.966 124.311 127.617Z" fill="#183C4A"/>
<path d="M114.92 121.681C115.035 121.525 115.112 121.344 115.148 121.153C115.183 120.962 115.175 120.764 115.124 120.577C115.051 120.271 114.867 120.005 114.609 119.832C114.351 119.659 114.038 119.593 113.734 119.645C110.954 120.094 106.242 120.818 101.225 121.37C99.9412 116.689 100 111.732 101.394 107.084C96.2756 109.983 82.3091 117.126 86.9194 126.443C90.9195 134.276 110.886 126.685 114.92 121.681Z" fill="#183C4A"/>
<path d="M113.632 110.466C113.825 110.471 114.017 110.426 114.189 110.335C114.36 110.245 114.507 110.112 114.615 109.948C114.805 109.707 114.897 109.401 114.872 109.093C114.847 108.785 114.706 108.498 114.48 108.292C112.378 106.36 108.886 103.047 105.361 99.389C108.15 95.4422 111.999 92.3988 116.446 90.624C111.022 88.3809 96.818 81.6864 92.5128 91.1416C88.9872 99.2164 107.293 110.363 113.632 110.466Z" fill="#183C4A"/>
<path d="M122.446 102.943C122.756 102.936 123.052 102.812 123.277 102.595C123.503 102.378 123.641 102.084 123.666 101.77C123.836 98.9403 124.209 94.0747 124.819 89.002C129.583 88.7593 134.315 89.9216 138.447 92.3493C136.819 86.621 133.124 71.1614 123.192 73.646C114.785 75.8545 117.564 97.3529 121.463 102.495C121.576 102.648 121.726 102.769 121.898 102.847C122.07 102.926 122.258 102.959 122.446 102.943Z" fill="#183C4A"/>
<path d="M206.887 102.489L185.614 123.898" stroke="#183C4A" stroke-width="3.02951"/>
<path d="M206.954 123.828L185.544 102.556" stroke="#183C4A" stroke-width="3.02951"/>
<path d="M266.401 124.633C265.622 124.633 247.14 124.467 233.002 109.962C232.703 109.658 232.411 109.348 232.125 109.039C229.164 105.838 227.76 102.029 228.056 98.0275C228.321 94.4956 229.911 91.0751 232.52 88.391C235.129 85.7067 238.475 84.0821 241.916 83.8132C245.521 83.5414 248.968 84.7423 251.937 87.3233C252.258 83.3458 253.858 79.9879 256.602 77.5753C259.222 75.2687 262.695 74 266.404 74C270.112 74 273.585 75.2687 276.205 77.5753C278.947 79.9906 280.549 83.3458 280.87 87.3233C283.839 84.7423 287.286 83.5196 290.891 83.8132C294.335 84.0848 297.67 85.7149 300.285 88.391C302.899 91.067 304.489 94.4983 304.748 98.0275C305.047 102.029 303.641 105.838 300.682 109.044C300.396 109.354 300.104 109.664 299.805 109.968C285.665 124.467 267.182 124.633 266.401 124.633ZM242.939 86.7826C239.733 86.7826 236.724 88.3121 234.584 90.5046C230.737 94.4521 228.989 101.293 234.245 106.99C234.513 107.282 234.787 107.571 235.066 107.857C248.359 121.487 266.226 121.645 266.404 121.645C266.581 121.645 284.486 121.454 297.744 107.857C298.025 107.569 298.299 107.28 298.565 106.99C303.821 101.285 302.073 94.4521 298.226 90.5046C294.38 86.557 287.707 84.764 282.144 90.1568C281.86 90.4304 281.578 90.7111 281.299 90.9991C281.084 91.2192 280.875 91.4446 280.669 91.6701L277.906 94.6749L278.014 90.5507C278.014 90.2357 278.033 89.9232 278.033 89.6053C278.033 89.1978 278.033 88.7904 278.017 88.3963C277.805 80.5584 271.853 76.9858 266.409 76.9858C260.965 76.9858 255.018 80.5557 254.804 88.3963C254.804 88.7957 254.788 89.2114 254.788 89.6053C254.788 89.9151 254.788 90.2194 254.804 90.5264L254.912 94.6749L252.147 91.6864C251.937 91.4582 251.725 91.2299 251.508 91.0045C251.227 90.7164 250.946 90.4357 250.663 90.1622C248.186 87.7525 245.498 86.7826 242.939 86.7826Z" fill="#183C4A"/>
<path d="M264.516 108.804H262.397C262.397 105.568 259.324 102.933 255.552 102.933C251.78 102.933 248.707 105.568 248.707 108.804H246.588C246.588 104.368 250.609 100.76 255.552 100.76C260.495 100.76 264.516 104.368 264.516 108.804Z" fill="#183C4A"/>
<path d="M286.072 108.72H283.953C283.953 105.484 280.882 102.851 277.108 102.851C273.333 102.851 270.263 105.484 270.263 108.72H268.143C268.143 104.286 272.164 100.678 277.108 100.678C282.051 100.678 286.072 104.286 286.072 108.72Z" fill="#183C4A"/>
<path d="M258.002 108.85C259.686 108.85 261.051 107.45 261.051 105.723C261.051 103.996 259.686 102.596 258.002 102.596C256.318 102.596 254.953 103.996 254.953 105.723C254.953 107.45 256.318 108.85 258.002 108.85Z" fill="#183C4A"/>
<path d="M279.406 108.852C281.089 108.852 282.454 107.452 282.454 105.725C282.454 103.998 281.089 102.598 279.406 102.598C277.722 102.598 276.356 103.998 276.356 105.725C276.356 107.452 277.722 108.852 279.406 108.852Z" fill="#183C4A"/>
<path d="M266.386 116.805C263.888 116.805 261.573 115.488 260.492 113.45L262.347 112.412C263.064 113.771 264.646 114.632 266.381 114.632C268.116 114.632 269.7 113.76 270.415 112.412L272.27 113.45C271.2 115.488 268.892 116.805 266.386 116.805Z" fill="#183C4A"/>
<path d="M304.367 146.92C299.057 149.47 293.071 150.139 287.35 148.821C282.614 147.745 278.267 145.331 274.799 141.853C276.994 142.786 279.349 143.261 281.726 143.249C285.835 143.25 289.843 141.94 293.194 139.5L291.493 137.071C286.908 140.456 280.6 141.271 275.623 138.965C270.711 136.696 267.941 131.841 267.763 125.259V123.137H264.849V123.512V125.242C264.68 131.833 261.903 136.694 256.987 138.965C252.009 141.266 245.691 140.462 241.117 137.063L239.419 139.492C242.767 141.933 246.773 143.245 250.881 143.247C253.257 143.258 255.613 142.784 257.808 141.85C254.341 145.328 249.994 147.742 245.26 148.819C239.538 150.136 233.553 149.467 228.242 146.917L227 149.62C230.9 151.498 235.156 152.469 239.464 152.465C241.628 152.465 243.786 152.22 245.898 151.734C252.379 150.258 258.168 146.544 262.295 141.212L262.314 141.187C263.283 139.884 264.133 138.493 264.854 137.03V152.41H267.768V137.052C268.489 138.507 269.336 139.892 270.301 141.19L270.319 141.214C274.447 146.545 280.235 150.26 286.714 151.737C288.826 152.223 290.984 152.468 293.149 152.467C297.458 152.472 301.714 151.5 305.615 149.623L304.367 146.92Z" fill="#183C4A"/>
<mask id="mask0_3_15" style="mask-type:alpha" maskUnits="userSpaceOnUse" x="0" y="0" width="394" height="226">
<path d="M0 8C0 3.58173 3.58172 0 8 0H386C390.418 0 394 3.58172 394 8V226H0V8Z" fill="#EBF1F2"/>
</mask>
<g mask="url(#mask0_3_15)">
<path d="M303.523 -6.31471C292.758 3.55701 283.584 16.2699 282.134 30.8035C281.575 36.406 282.659 42.9189 287.415 45.9334C290.102 47.6364 293.455 47.8705 296.632 47.7299C311.285 47.0831 325.901 39.6032 340.059 43.4334C352.536 46.809 361.044 58.0383 371.807 65.1938C388.871 76.5386 412.638 76.7738 429.923 65.7702C433.979 63.1884 437.923 59.6637 438.823 54.941C439.249 52.6993 438.942 50.3821 438.447 48.1551C435.997 37.1484 429.089 27.6452 421.333 19.4597C413.578 11.2742 404.821 4.05153 397.455 -4.48674C392.234 -10.5398 387.752 -17.208 382.42 -23.1645C377.088 -29.1209 370.708 -34.4547 363.08 -36.8475C353.317 -39.9113 342.591 -36.5347 334.599 -30.6307C324.083 -22.8621 313.166 -15.1585 303.522 -6.31576L303.523 -6.31471Z" fill="#183C4A" fill-opacity="0.05"/>
<path d="M-62.4771 182.685C-73.2423 192.557 -82.4158 205.27 -83.8658 219.803C-84.4255 225.406 -83.3409 231.919 -78.5845 234.933C-75.8977 236.636 -72.5452 236.871 -69.368 236.73C-54.7148 236.083 -40.0993 228.603 -25.9406 232.433C-13.4639 235.809 -4.95613 247.038 5.80701 254.194C22.871 265.539 46.6378 265.774 63.9233 254.77C67.9793 252.188 71.923 248.664 72.8228 243.941C73.2491 241.699 72.9425 239.382 72.4469 237.155C69.9973 226.148 63.0886 216.645 55.3325 208.46C47.5775 200.274 38.8209 193.052 31.4554 184.513C26.234 178.46 21.7517 171.792 16.42 165.836C11.0883 159.879 4.7077 154.545 -2.92025 152.152C-12.6828 149.089 -23.4092 152.465 -31.4015 158.369C-41.9168 166.138 -52.8343 173.841 -62.4782 182.684L-62.4771 182.685Z" fill="#183C4A" fill-opacity="0.05"/>
<path d="M386.796 142.329C380.663 142.226 373.661 143.268 370.238 148.357C367.309 152.712 368.065 158.46 368.754 163.662C369.444 168.866 369.742 174.782 366.236 178.687C364.202 180.951 361.224 182.101 358.305 182.961C343.584 187.298 327.448 186.264 313.345 192.319C305.422 195.72 297.985 202.093 296.652 210.611C295.712 216.622 298.021 222.822 301.83 227.566C305.64 232.309 310.827 235.759 316.206 238.601C340.315 251.336 369.579 252.801 395.705 244.996C404.194 242.459 412.495 238.941 419.552 233.584C433.546 222.962 441.449 206.044 445.718 189.002C446.998 183.894 447.997 178.502 446.688 173.401C440.921 150.934 406.344 142.656 386.795 142.329L386.796 142.329Z" fill="#183C4A" fill-opacity="0.05"/>
<path d="M-15.2018 61.9917C-16.7641 72.4031 -6.25718 81.6521 4.25921 82.1372C14.7767 82.6213 24.5507 76.7331 32.5262 69.86C46.0854 58.1761 56.586 43.127 70.919 32.4059C79.6169 25.8993 90.4756 20.996 101.14 23.0539C109.428 24.653 116.39 30.2199 122.256 36.2897C128.122 42.3595 133.318 49.1527 139.993 54.3206C150.926 62.7833 165.326 66.2398 179.084 64.8738C192.841 63.5078 205.929 57.5482 216.819 49.0299C223.327 43.9407 229.565 36.7748 228.809 28.5473C228.317 23.1998 224.897 18.5538 220.986 14.8737C212.045 6.46454 200.26 1.73972 190.649 -5.89244C187.528 -8.37034 184.507 -11.3837 183.606 -15.2665C182.667 -19.3099 184.26 -23.6063 186.842 -26.857C189.424 -30.1077 192.904 -32.5005 196.33 -34.844L111.011 -60L-37 -16.6472L-15.2018 61.9917Z" fill="#183C4A" fill-opacity="0.05"/>
</g>
</svg>
