<svg width="80" height="80" viewBox="0 0 80 80" fill="none" xmlns="http://www.w3.org/2000/svg">
    <rect width="80" height="80" rx="12" fill="#183C4A"/>
    <path d="M21.4797 37.8921C21.5368 37.9598 21.6166 38.0034 21.7035 38.0144C21.7904 38.0255 21.8782 38.0032 21.9499 37.952C22.616 37.4733 23.7523 36.6756 24.9865 35.8878C25.9024 36.9369 26.504 38.2311 26.7203 39.6172C27.69 38.2012 30.4328 34.5517 28.0721 32.7269C26.0542 31.2012 21.8226 35.7582 21.4014 37.573C21.3877 37.6287 21.3876 37.6869 21.4013 37.7426C21.415 37.7982 21.4419 37.8496 21.4797 37.8921Z" fill="white"/>
    <path d="M23.1253 40.3153C23.0619 40.3483 23.0094 40.3997 22.9744 40.4629C22.9395 40.5262 22.9236 40.5985 22.9288 40.6709C22.9341 40.7432 22.9602 40.8124 23.0038 40.8698C23.0475 40.9272 23.1068 40.9701 23.1743 40.9934C23.958 41.2327 25.2803 41.6415 26.6517 42.1301C26.4178 43.5166 25.7953 44.8048 24.8591 45.8396C26.5537 45.7199 31.0694 45.6301 31.0107 42.6187C30.9225 40.066 24.7906 39.5275 23.1253 40.3153Z" fill="white"/>
    <path d="M22.087 43.4065C22.0366 43.3817 21.9814 43.3689 21.9254 43.3689C21.8694 43.3689 21.8142 43.3817 21.7638 43.4065C21.6858 43.449 21.6258 43.5192 21.5951 43.6037C21.5645 43.6882 21.5652 43.7812 21.5972 43.8651C21.9107 44.633 22.4201 45.9492 22.8902 47.3452C20.843 48.472 18.9329 48.2227 18.9329 48.2227C20.0692 49.4991 22.949 53.039 25.2313 51.1244C27.1317 49.4592 23.7326 44.2341 22.087 43.4065Z" fill="white"/>
    <path d="M19.0701 44.4934C19.0583 44.4379 19.0334 44.3863 18.9975 44.3428C18.9617 44.2994 18.916 44.2655 18.8644 44.2441C18.7833 44.2084 18.692 44.205 18.6085 44.2345C18.5251 44.2641 18.4556 44.3244 18.4138 44.4036C18.0122 45.1216 17.3265 46.3381 16.5428 47.5945C15.2694 47.0501 14.1776 46.1429 13.3985 44.982C13.1242 46.6871 12.2035 51.1843 15.0931 51.8025C17.5616 52.2911 19.4521 46.3281 19.0701 44.4934Z" fill="white"/>
    <path d="M16.3567 42.7782C16.3897 42.7331 16.4122 42.6809 16.4224 42.6256C16.4326 42.5703 16.4302 42.5133 16.4155 42.4591C16.3944 42.3708 16.3413 42.294 16.2667 42.244C16.1922 42.194 16.1018 42.1747 16.0139 42.1899C15.2106 42.3195 13.8491 42.5289 12.3993 42.6884C12.0284 41.3358 12.0454 39.9033 12.4483 38.5602C10.9692 39.3978 6.93349 41.4619 8.26567 44.1543C9.42153 46.4178 15.191 44.2241 16.3567 42.7782Z" fill="white"/>
    <path d="M15.9845 39.5374C16.0403 39.5388 16.0956 39.5258 16.1453 39.4996C16.1949 39.4735 16.2373 39.4351 16.2685 39.3879C16.3234 39.3182 16.35 39.2297 16.3427 39.1406C16.3354 39.0516 16.2948 38.9687 16.2293 38.9092C15.622 38.3508 14.6131 37.3936 13.5944 36.3366C14.4004 35.1961 15.5126 34.3167 16.7975 33.8038C15.2302 33.1556 11.1259 31.2212 9.8819 33.9534C8.86318 36.2867 14.1527 39.5075 15.9845 39.5374Z" fill="white"/>
    <path d="M18.5313 37.3636C18.6208 37.3615 18.7064 37.3256 18.7715 37.263C18.8366 37.2004 18.8767 37.1155 18.8839 37.0246C18.9329 36.2069 19.0406 34.8009 19.217 33.3351C20.5936 33.265 21.961 33.6008 23.1547 34.3024C22.6845 32.6471 21.6168 28.1798 18.7468 28.8978C16.3175 29.5359 17.1207 35.7482 18.2472 37.234C18.28 37.2782 18.3233 37.3133 18.3729 37.3359C18.4226 37.3586 18.477 37.3681 18.5313 37.3636Z" fill="white"/>
    <path d="M42.9305 37.2324L36.7836 43.4188" stroke="white" stroke-width="0.875407"/>
    <path d="M42.9505 43.3984L36.764 37.2516" stroke="white" stroke-width="0.875407"/>
    <g clip-path="url(#clip0_20268_58422)">
        <path d="M60.0903 44.1956C59.8653 44.1956 54.5248 44.1477 50.4396 39.9563C50.3531 39.8683 50.2689 39.7789 50.1862 39.6894C49.3304 38.7646 48.9248 37.6639 49.0105 36.5075C49.087 35.4869 49.5463 34.4985 50.3003 33.7229C51.0542 32.9473 52.021 32.4778 53.0153 32.4001C54.0571 32.3216 55.0529 32.6686 55.911 33.4144C56.0036 32.2651 56.466 31.2947 57.259 30.5976C58.016 29.9311 59.0195 29.5645 60.0911 29.5645C61.1628 29.5645 62.1663 29.9311 62.9233 30.5976C63.7155 31.2955 64.1786 32.2651 64.2712 33.4144C65.1293 32.6686 66.1252 32.3153 67.1669 32.4001C68.162 32.4786 69.1257 32.9496 69.8812 33.7229C70.6367 34.4962 71.096 35.4877 71.171 36.5075C71.2575 37.6639 70.851 38.7646 69.996 39.6909C69.9133 39.7804 69.8292 39.8699 69.7427 39.9579C65.6567 44.1477 60.3162 44.1956 60.0903 44.1956ZM53.3108 33.2582C52.3846 33.2582 51.515 33.7001 50.8965 34.3337C49.7851 35.4744 49.2799 37.4512 50.7986 39.0974C50.8761 39.1817 50.9552 39.2652 51.0359 39.3478C54.8769 43.2865 60.0398 43.3321 60.0911 43.3321C60.1424 43.3321 65.3161 43.2771 69.1471 39.3478C69.2283 39.2647 69.3074 39.1812 69.3844 39.0974C70.9031 37.4488 70.3979 35.4744 69.2865 34.3337C68.175 33.193 66.2469 32.6749 64.6394 34.2332C64.5573 34.3122 64.4759 34.3934 64.3952 34.4766C64.3332 34.5402 64.2728 34.6053 64.213 34.6705L63.4147 35.5388L63.4461 34.347C63.4461 34.256 63.4515 34.1657 63.4515 34.0738C63.4515 33.9561 63.4515 33.8383 63.4468 33.7245C63.3856 31.4596 61.6656 30.4272 60.0927 30.4272C58.5196 30.4272 56.8012 31.4588 56.7392 33.7245C56.7392 33.8399 56.7346 33.96 56.7346 34.0738C56.7346 34.1633 56.7346 34.2513 56.7392 34.34L56.7706 35.5388L55.9715 34.6752C55.911 34.6093 55.8498 34.5433 55.787 34.4781C55.7059 34.3949 55.6245 34.3138 55.5428 34.2348C54.8271 33.5384 54.0502 33.2582 53.3108 33.2582Z" fill="white"/>
        <path d="M59.546 39.6214H58.9336C58.9336 38.6864 58.0457 37.9249 56.9557 37.9249C55.8657 37.9249 54.9778 38.6864 54.9778 39.6214H54.3654C54.3654 38.3394 55.5274 37.2969 56.9557 37.2969C58.384 37.2969 59.546 38.3394 59.546 39.6214Z" fill="white"/>
        <path d="M65.7745 39.5972H65.1622C65.1622 38.6622 64.275 37.9015 63.1842 37.9015C62.0935 37.9015 61.2063 38.6622 61.2063 39.5972H60.594C60.594 38.316 61.7559 37.2734 63.1842 37.2734C64.6125 37.2734 65.7745 38.316 65.7745 39.5972Z" fill="white"/>
        <path d="M57.6635 39.6353C58.1501 39.6353 58.5446 39.2308 58.5446 38.7318C58.5446 38.2327 58.1501 37.8281 57.6635 37.8281C57.177 37.8281 56.7825 38.2327 56.7825 38.7318C56.7825 39.2308 57.177 39.6353 57.6635 39.6353Z" fill="white"/>
        <path d="M63.8481 39.6353C64.3346 39.6353 64.7291 39.2308 64.7291 38.7318C64.7291 38.2327 64.3346 37.8281 63.8481 37.8281C63.3615 37.8281 62.967 38.2327 62.967 38.7318C62.967 39.2308 63.3615 39.6353 63.8481 39.6353Z" fill="white"/>
        <path d="M60.0862 41.9335C59.3644 41.9335 58.6953 41.5528 58.383 40.964L58.9189 40.6641C59.1263 41.0566 59.5833 41.3055 60.0846 41.3055C60.586 41.3055 61.0437 41.0534 61.2504 40.6641L61.7862 40.964C61.477 41.5528 60.8103 41.9335 60.0862 41.9335Z" fill="white"/>
        <path d="M71.0611 50.6361C69.5266 51.373 67.797 51.5663 66.1438 51.1856C64.7754 50.8745 63.5192 50.177 62.5171 49.172C63.1515 49.4416 63.832 49.5788 64.5187 49.5755C65.7061 49.5758 66.8642 49.1971 67.8324 48.4921L67.341 47.7903C66.016 48.7684 64.1934 49.004 62.7552 48.3375C61.336 47.6819 60.5354 46.279 60.4841 44.3768V43.7637H59.6421V43.872V44.3721C59.5931 46.2766 58.7909 47.6811 57.3702 48.3375C55.932 49.0024 54.1063 48.77 52.7844 47.7879L52.2938 48.4898C53.2613 49.195 54.4188 49.5742 55.6059 49.5747C56.2926 49.5781 56.9731 49.441 57.6075 49.1712C56.6057 50.1762 55.3497 50.8737 53.9816 51.1848C52.3284 51.5656 50.5988 51.3723 49.0643 50.6353L48.7054 51.4164C49.8322 51.959 51.062 52.2396 52.3068 52.2384C52.9323 52.2386 53.5558 52.1678 54.1661 52.0272C56.0387 51.6008 57.7114 50.5274 58.9042 48.9867L58.9096 48.9796C59.1894 48.6031 59.4351 48.201 59.6436 47.7785V52.2227H60.4856V47.7848C60.6938 48.2052 60.9387 48.6054 61.2174 48.9804L61.2227 48.9875C62.4153 50.528 64.0878 51.6014 65.9601 52.028C66.5704 52.1686 67.1939 52.2394 67.8194 52.2392C69.0645 52.2404 70.2944 51.9597 71.4216 51.4172L71.0611 50.6361Z" fill="white"/>
    </g>
    <defs>
        <clipPath id="clip0_20268_58422">
            <rect width="23.0112" height="23.0106" fill="white" transform="translate(48.7034 28.8203)"/>
        </clipPath>
    </defs>
</svg>
