<svg width="512" height="512" viewBox="0 0 512 512" fill="none" xmlns="http://www.w3.org/2000/svg">
<g clip-path="url(#clip0_1_2)">
<rect width="512" height="512" rx="64" fill="#ABFE2C"/>
<path d="M256.451 303.877C253.133 303.877 174.365 303.189 114.131 242.944C112.856 241.669 111.614 240.393 110.395 239.095C97.7863 225.775 91.7924 209.949 93.0679 193.322C94.1854 178.659 100.936 164.436 112.088 153.283C123.241 142.131 137.453 135.381 152.127 134.263C167.49 133.089 182.176 138.124 194.83 148.847C196.196 132.321 203.025 118.381 214.708 108.346C225.872 98.7621 240.704 93.4905 256.463 93.4905C272.221 93.4905 287.065 98.7621 298.217 108.346C309.912 118.381 316.73 132.321 318.107 148.847C330.761 138.124 345.446 133.089 360.809 134.263C375.473 135.381 389.696 142.131 400.837 153.283C411.989 164.436 418.74 178.648 419.857 193.322C421.122 209.949 415.128 225.775 402.53 239.095C401.311 240.382 400.058 241.669 398.794 242.944C338.538 303.189 259.781 303.877 256.451 303.877ZM156.462 146.623C142.803 146.623 129.98 152.967 120.859 162.088C104.458 178.49 97.0187 206.913 119.414 230.584C120.554 231.792 121.717 232.988 122.914 234.185C179.557 290.828 255.695 291.483 256.463 291.483C257.219 291.483 333.504 290.682 390.012 234.185C391.208 232.988 392.371 231.792 393.511 230.584C415.906 206.924 408.456 178.49 392.055 162.099C375.653 145.698 347.23 138.259 323.57 160.643C322.362 161.783 321.166 162.946 319.969 164.143C319.044 165.068 318.163 166.005 317.283 166.942L305.453 179.415L305.916 162.28C305.949 160.982 305.995 159.672 305.995 158.352C305.995 156.67 305.972 154.999 305.927 153.329C305.024 120.762 279.66 105.919 256.474 105.919C233.288 105.919 207.913 120.751 207.021 153.329C206.976 154.988 206.953 156.659 206.953 158.352C206.953 159.639 206.987 160.914 207.021 162.178L207.472 179.415L195.688 166.976C194.796 166.028 193.893 165.079 192.967 164.143C191.771 162.946 190.574 161.783 189.366 160.643C178.835 150.676 167.377 146.623 156.462 146.623Z" fill="#00501E"/>
<path d="M417.78 395.288C395.577 405.493 370.212 408.157 346.214 402.761C322.938 397.523 302.529 385.4 286.85 367.599C288.385 368.66 289.966 369.687 291.591 370.669C305.001 378.751 319.902 382.815 334.802 382.815C348.043 382.815 361.295 379.609 373.508 373.152C374.378 372.701 375.236 372.227 376.093 371.741L369.953 360.95C369.208 361.379 368.463 361.785 367.706 362.18C345.638 373.841 319.585 373.051 298.003 360.047C275.912 346.738 262.716 323.451 262.716 297.759V292.973H262.603H250.299H250.186V297.759C250.186 323.451 236.991 346.738 214.9 360.047C193.317 373.051 167.264 373.852 145.196 362.18C144.44 361.785 143.695 361.379 142.95 360.95L136.809 371.741C137.667 372.227 138.525 372.701 139.394 373.152C151.608 379.609 164.849 382.815 178.101 382.815C193.001 382.815 207.89 378.751 221.312 370.669C222.937 369.698 224.517 368.671 226.053 367.599C210.373 385.4 189.965 397.523 166.689 402.761C142.69 408.168 117.326 405.504 95.1223 395.288L88.88 406.102C105.473 413.913 123.692 417.909 141.99 417.909C151.179 417.909 160.379 416.905 169.409 414.873C197.245 408.608 221.413 393.482 239.271 371.154C243.447 365.939 247.082 360.34 250.175 354.482V417.909H262.592V354.267C265.719 360.205 269.387 365.883 273.609 371.154C291.478 393.482 315.635 408.597 343.471 414.873C352.501 416.905 361.701 417.909 370.89 417.909C389.188 417.909 407.407 413.913 424 406.102L417.78 395.288Z" fill="#00501E"/>
<path d="M248.38 238.113H239.35C239.35 224.669 226.267 213.72 210.182 213.72C194.096 213.72 181.013 224.658 181.013 238.113H171.983C171.983 219.691 189.118 204.689 210.182 204.689C231.245 204.689 248.38 219.68 248.38 238.113Z" fill="#00501E"/>
<path d="M220.567 238.305C227.742 238.305 233.559 232.488 233.559 225.313C233.559 218.137 227.742 212.32 220.567 212.32C213.391 212.32 207.574 218.137 207.574 225.313C207.574 232.488 213.391 238.305 220.567 238.305Z" fill="#00501E"/>
<path d="M341.01 238.113H331.98C331.98 224.669 318.897 213.72 302.811 213.72C286.726 213.72 273.643 224.658 273.643 238.113H264.613C264.613 219.691 281.748 204.689 302.811 204.689C323.875 204.689 341.01 219.68 341.01 238.113Z" fill="#00501E"/>
<path d="M313.208 238.305C320.383 238.305 326.2 232.488 326.2 225.313C326.2 218.137 320.383 212.32 313.208 212.32C306.032 212.32 300.215 218.137 300.215 225.313C300.215 232.488 306.032 238.305 313.208 238.305Z" fill="#00501E"/>
<path d="M256.305 271.311C245.66 271.311 235.794 265.837 231.189 257.382L239.124 253.059C242.183 258.657 248.922 262.281 256.316 262.281C263.71 262.281 270.448 258.657 273.508 253.059L281.432 257.382C276.815 265.837 266.949 271.311 256.305 271.311Z" fill="#00501E"/>
</g>
<defs>
<clipPath id="clip0_1_2">
<rect width="512" height="512" rx="64" fill="white"/>
</clipPath>
</defs>
</svg>
