<svg width="80" height="80" viewBox="0 0 80 80" fill="none" xmlns="http://www.w3.org/2000/svg">
<mask id="mask0_20609_67799" style="mask-type:alpha" maskUnits="userSpaceOnUse" x="0" y="0" width="80" height="80">
<rect width="80" height="80" rx="12" fill="#D9D9D9"/>
</mask>
<g mask="url(#mask0_20609_67799)">
<mask id="mask1_20609_67799" style="mask-type:alpha" maskUnits="userSpaceOnUse" x="0" y="0" width="80" height="80">
<path d="M0 2.83185C0 1.26786 1.26787 0 2.83186 0H77.1681C78.7321 0 80 1.26787 80 2.83186V80H0V2.83185Z" fill="url(#paint0_linear_20609_67799)"/>
</mask>
<g mask="url(#mask1_20609_67799)">
<g filter="url(#filter0_f_20609_67799)">
<circle cx="47.3097" cy="-16.6903" r="45.3097" fill="#FF9B7B"/>
</g>
<g filter="url(#filter1_f_20609_67799)">
<circle cx="-13.6903" cy="74.3097" r="45.3097" fill="#A64EFF"/>
</g>
<g filter="url(#filter2_f_20609_67799)">
<circle cx="96.3097" cy="58.3097" r="45.3097" fill="#4EEAFF"/>
</g>
<g filter="url(#filter3_f_20609_67799)">
<ellipse cx="74.5929" cy="94.2743" rx="61.5929" ry="33.2743" fill="#F8F8F8"/>
</g>
</g>
<path d="M19.3102 48.9995C18.9973 49.0089 18.6892 48.8952 18.4569 48.6866C18.2199 48.478 18.0777 48.1841 18.0492 47.8712L17.907 46.7572C16.556 46.3732 15.7643 45.3682 15.5558 43.7754L14.3375 34.3845C14.0768 34.3418 13.8113 34.3228 13.5458 34.3276C13.1524 34.3276 12.7637 34.375 12.3844 34.4793V48.7245H10V37.2762C10 35.7213 10.6968 34.6262 11.9673 34.1712V33.4316C11.9673 32.5783 12.484 32 13.2519 32C14.0199 32 14.5034 32.4788 14.6314 33.3558L14.7262 34.0384C16.1151 34.4271 16.9258 35.5459 17.1675 37.3568L18.291 46.4111C18.9641 46.5391 19.6562 46.5391 20.3294 46.4111L21.4529 37.3615C21.6899 35.5459 22.51 34.4271 23.8942 34.0384L23.989 33.3558C24.1122 32.4835 24.6052 32 25.3684 32C26.1316 32 26.6578 32.5736 26.6578 33.4269V34.1664C27.9283 34.6215 28.6251 35.7213 28.6251 37.2714V48.7198H26.2312V34.4793C25.852 34.375 25.4632 34.3276 25.0698 34.3276C24.8043 34.3276 24.5389 34.3418 24.2781 34.3845L23.0599 43.7754C22.856 45.3398 22.0454 46.3637 20.7086 46.7572L20.5759 47.8712C20.5569 48.1888 20.41 48.4827 20.1729 48.6961C19.9359 48.9046 19.6231 49.0137 19.3054 48.9947L19.3102 48.9995ZM18.3479 46.8662L18.4711 47.8285C18.4854 48.0371 18.5802 48.2362 18.7366 48.3784C18.893 48.5207 19.1016 48.5918 19.3102 48.5823C19.4145 48.5918 19.5188 48.5775 19.6183 48.5444C19.7179 48.5112 19.8079 48.459 19.8885 48.3879C19.9691 48.3168 20.0307 48.2315 20.0734 48.1367C20.1161 48.0419 20.1445 47.9376 20.1492 47.8333L20.2725 46.871C19.6373 46.9753 18.9831 46.9753 18.3479 46.871V46.8662ZM26.6578 48.3026H28.1985V37.2762C28.1985 35.9583 27.6675 35.0529 26.6578 34.6262V48.3026ZM10.4219 48.3026H11.9673V34.6262C10.9576 35.0481 10.4361 35.9583 10.4361 37.2762L10.4266 48.3073L10.4219 48.3026ZM14.7878 34.503L15.9824 43.7233C16.1531 45.0554 16.7835 45.9181 17.8501 46.2974L16.7456 37.4137C16.5418 35.8493 15.9018 34.8917 14.7878 34.503ZM23.8373 34.503C22.7233 34.8917 22.0786 35.8493 21.8795 37.4137L20.775 46.2879C21.8463 45.9134 22.472 45.0506 22.6427 43.7138L23.8373 34.4982V34.503ZM12.3892 34.0337C12.7684 33.9436 13.1571 33.8962 13.5506 33.8962C13.7971 33.8962 14.0388 33.9104 14.2806 33.9389L14.2095 33.4079C14.1147 32.7537 13.7923 32.4266 13.2519 32.4266C12.7115 32.4266 12.3892 32.8106 12.3892 33.4269V34.0337ZM25.0698 33.8962C25.4585 33.8962 25.852 33.9389 26.2312 34.0337V33.4316C26.2312 32.8154 25.8994 32.4314 25.3684 32.4314C24.8375 32.4314 24.5057 32.7632 24.4109 33.4127L24.3398 33.9436C24.5815 33.9104 24.828 33.8962 25.0698 33.9009V33.8962Z" fill="black"/>
<path d="M35.2235 48.7241H32.877V32.2793H35.2235V48.7241ZM33.3036 48.2975H34.7968V32.7059H33.3036V48.2975Z" fill="black"/>
<path d="M50.454 48.9986C49.4348 48.9986 49.2025 48.0695 49.1267 47.7613L48.9513 46.9792C47.4249 46.709 46.4957 45.7229 46.1118 43.9784L43.9027 34.3742C43.6515 34.341 43.3955 34.3268 43.1395 34.3268C42.7176 34.322 42.2957 34.3789 41.8881 34.4974V48.7189H39.4941V37.209C39.4941 35.7205 40.172 34.6823 41.4614 34.1988V33.4308C41.4614 32.5775 41.9781 32.0039 42.7461 32.0039C43.4097 32.0039 43.898 32.4258 44.0544 33.1321L44.2488 33.9997C45.7373 34.2699 46.6285 35.2275 47.0456 37.0004L49.2973 46.6094C49.5533 46.6426 49.8046 46.6568 50.0605 46.6568C50.4824 46.6568 50.8996 46.6094 51.3073 46.5051V32.2789H53.7012V44.1586C53.7012 45.3769 52.9901 46.3345 51.7339 46.8038V47.5433C51.7339 48.444 51.2409 48.9986 50.4493 48.9986H50.454ZM49.4064 47.0503L49.5438 47.6618C49.705 48.3065 49.9705 48.572 50.4587 48.572C50.9991 48.572 51.3215 48.1975 51.3215 47.548V46.9365C50.9138 47.0313 50.4919 47.074 50.0748 47.074C49.852 47.074 49.6339 47.0645 49.4158 47.0408V47.0503H49.4064ZM39.9255 48.297H41.4662V34.6538C40.4422 35.0947 39.9255 35.9527 39.9255 37.2042V48.297ZM44.3578 34.4547L46.5242 43.8836C46.8608 45.3958 47.605 46.2396 48.847 46.5241L46.638 37.0952C46.2777 35.564 45.5714 34.7344 44.3578 34.4547ZM51.7434 32.7055V46.3487C52.7389 45.9268 53.284 45.1588 53.284 44.1633V32.7055H51.7434ZM41.8881 34.0471C42.2957 33.9428 42.7176 33.8906 43.1395 33.8954C43.3623 33.8954 43.5804 33.9048 43.7984 33.9286L43.6373 33.2175C43.5709 32.9188 43.3671 32.4211 42.7461 32.4211C42.1251 32.4211 41.8833 32.9378 41.8833 33.4213V34.0471H41.8881Z" fill="black"/>
<path d="M70.1331 48.7248H67.6302L66.3977 43.8278H59.4577L58.2442 48.7248H55.7412L58.9694 36.8309C59.3439 35.4703 60.1972 34.5412 61.4439 34.1383L61.6667 33.2044C61.8042 32.6877 62.0744 32.0098 62.9277 32.0098C63.781 32.0098 64.0559 32.6877 64.1839 33.1996L64.402 34.1383C65.6487 34.5459 66.502 35.4798 66.8765 36.8356L70.1284 48.7295L70.1331 48.7248ZM67.962 48.2981H69.5738L66.4688 36.9446C66.1607 35.8306 65.497 35.0389 64.5347 34.6407L66.4546 42.2256H59.434L61.3302 34.6313C60.3631 35.0389 59.6995 35.8259 59.3913 36.9352L56.3101 48.2981H57.9218L59.1306 43.4012H66.7248L67.962 48.2981ZM59.9791 41.7989H65.9047L64.0606 34.4701C63.3211 34.2805 62.5485 34.2805 61.8089 34.4701L59.9839 41.7989H59.9791ZM61.9227 33.9913V34.0055C62.5911 33.868 63.2785 33.868 63.9421 34.0055V33.9866L63.7762 33.2897C63.615 32.6687 63.378 32.4222 62.9324 32.4222C62.4868 32.4222 62.2498 32.664 62.0886 33.2897L61.9227 33.9818V33.9913Z" fill="black"/>
</g>
<defs>
<filter id="filter0_f_20609_67799" x="-33.3982" y="-97.3982" width="161.416" height="161.416" filterUnits="userSpaceOnUse" color-interpolation-filters="sRGB">
<feFlood flood-opacity="0" result="BackgroundImageFix"/>
<feBlend mode="normal" in="SourceGraphic" in2="BackgroundImageFix" result="shape"/>
<feGaussianBlur stdDeviation="17.6991" result="effect1_foregroundBlur_20609_67799"/>
</filter>
<filter id="filter1_f_20609_67799" x="-94.3982" y="-6.39823" width="161.416" height="161.416" filterUnits="userSpaceOnUse" color-interpolation-filters="sRGB">
<feFlood flood-opacity="0" result="BackgroundImageFix"/>
<feBlend mode="normal" in="SourceGraphic" in2="BackgroundImageFix" result="shape"/>
<feGaussianBlur stdDeviation="17.6991" result="effect1_foregroundBlur_20609_67799"/>
</filter>
<filter id="filter2_f_20609_67799" x="15.6018" y="-22.3982" width="161.416" height="161.416" filterUnits="userSpaceOnUse" color-interpolation-filters="sRGB">
<feFlood flood-opacity="0" result="BackgroundImageFix"/>
<feBlend mode="normal" in="SourceGraphic" in2="BackgroundImageFix" result="shape"/>
<feGaussianBlur stdDeviation="17.6991" result="effect1_foregroundBlur_20609_67799"/>
</filter>
<filter id="filter3_f_20609_67799" x="-22.3982" y="25.6018" width="193.982" height="137.345" filterUnits="userSpaceOnUse" color-interpolation-filters="sRGB">
<feFlood flood-opacity="0" result="BackgroundImageFix"/>
<feBlend mode="normal" in="SourceGraphic" in2="BackgroundImageFix" result="shape"/>
<feGaussianBlur stdDeviation="17.6991" result="effect1_foregroundBlur_20609_67799"/>
</filter>
<linearGradient id="paint0_linear_20609_67799" x1="40" y1="0" x2="40" y2="80" gradientUnits="userSpaceOnUse">
<stop stop-color="#E6EFFE"/>
<stop offset="1" stop-color="#FAEBF2"/>
</linearGradient>
</defs>
</svg>
