<svg width="394" height="226" viewBox="0 0 394 226" fill="none" xmlns="http://www.w3.org/2000/svg">
<mask id="mask0_4_124" style="mask-type:alpha" maskUnits="userSpaceOnUse" x="0" y="0" width="394" height="226">
<path d="M0 8C0 3.58173 3.58172 0 8 0H386C390.418 0 394 3.58172 394 8V226H0V8Z" fill="url(#paint0_linear_4_124)"/>
</mask>
<g mask="url(#mask0_4_124)">
<g filter="url(#filter0_f_4_124)">
<circle cx="203" cy="-38" r="128" fill="#FF9B7B"/>
</g>
<g filter="url(#filter1_f_4_124)">
<circle cx="19" cy="153" r="128" fill="#A64EFF"/>
</g>
<g filter="url(#filter2_f_4_124)">
<circle cx="370" cy="192" r="128" fill="#4EEAFF"/>
</g>
<g filter="url(#filter3_f_4_124)">
<ellipse cx="211" cy="255" rx="174" ry="94" fill="#F8F8F8"/>
</g>
</g>
<path d="M116.146 145.998C114.931 146.035 113.735 145.593 112.833 144.783C111.913 143.973 111.361 142.832 111.25 141.618L110.698 137.293C105.453 135.802 102.379 131.9 101.57 125.716L96.8398 89.2574C95.8275 89.0917 94.7969 89.0181 93.7663 89.0365C92.2387 89.0365 90.7296 89.2206 89.2573 89.6255V144.93H80V100.484C80 94.4474 82.7054 90.196 87.6377 88.4292V85.5581C87.6377 82.2453 89.6437 80 92.6252 80C95.6067 80 97.4839 81.8588 97.9808 85.2636L98.3489 87.9139C103.741 89.423 106.888 93.7664 107.827 100.797L112.189 135.949C114.802 136.446 117.489 136.446 120.103 135.949L124.464 100.815C125.385 93.7664 128.568 89.423 133.942 87.9139L134.311 85.2636C134.789 81.8772 136.703 80 139.666 80C142.629 80 144.672 82.2269 144.672 85.5397V88.4108C149.604 90.1776 152.31 94.4474 152.31 100.466V144.912H143.016V89.6255C141.543 89.2206 140.034 89.0365 138.507 89.0365C137.476 89.0365 136.445 89.0917 135.433 89.2574L130.703 125.716C129.912 131.79 126.765 135.765 121.575 137.293L121.06 141.618C120.986 142.851 120.415 143.992 119.495 144.82C118.575 145.63 117.36 146.053 116.127 145.979L116.146 145.998ZM112.41 137.716L112.888 141.452C112.943 142.262 113.311 143.035 113.919 143.587C114.526 144.139 115.336 144.415 116.146 144.378C116.551 144.415 116.955 144.36 117.342 144.231C117.728 144.102 118.078 143.9 118.391 143.624C118.704 143.348 118.943 143.016 119.109 142.648C119.274 142.28 119.385 141.875 119.403 141.47L119.882 137.734C117.416 138.139 114.876 138.139 112.41 137.734V137.716ZM144.672 143.292H150.653V100.484C150.653 95.3676 148.592 91.8524 144.672 90.196V143.292ZM81.638 143.292H87.6377V90.196C83.7176 91.834 81.6932 95.3676 81.6932 100.484L81.6564 143.311L81.638 143.292ZM98.5881 89.7175L103.226 125.514C103.889 130.685 106.336 134.035 110.477 135.507L106.189 101.018C105.398 94.9443 102.913 91.2266 98.5881 89.7175ZM133.722 89.7175C129.397 91.2266 126.894 94.9443 126.121 101.018L121.833 135.471C125.992 134.017 128.421 130.667 129.084 125.477L133.722 89.6991V89.7175ZM89.2757 87.8955C90.748 87.5458 92.2571 87.3617 93.7847 87.3617C94.7417 87.3617 95.6803 87.4169 96.6189 87.5274L96.3428 85.4661C95.9748 82.9263 94.7233 81.6564 92.6252 81.6564C90.5271 81.6564 89.2757 83.1471 89.2757 85.5397V87.8955ZM138.507 87.3617C140.016 87.3617 141.543 87.5274 143.016 87.8955V85.5581C143.016 83.1655 141.727 81.6748 139.666 81.6748C137.605 81.6748 136.317 82.9631 135.948 85.4845L135.672 87.5458C136.611 87.4169 137.568 87.3617 138.507 87.3801V87.3617Z" fill="black"/>
<path d="M177.928 144.929H168.818V81.0845H177.928V144.929ZM170.474 143.273H176.272V82.7409H170.474V143.273Z" fill="black"/>
<path d="M237.059 145.997C233.102 145.997 232.2 142.39 231.906 141.194L231.225 138.157C225.299 137.108 221.692 133.28 220.201 126.507L211.625 89.2199C210.649 89.091 209.655 89.0358 208.662 89.0358C207.024 89.0174 205.386 89.2383 203.803 89.6984V144.911H194.509V100.226C194.509 94.4467 197.141 90.4161 202.146 88.5389V85.5574C202.146 82.2446 204.153 80.0177 207.134 80.0177C209.711 80.0177 211.606 81.6557 212.214 84.3979L212.968 87.7659C218.747 88.815 222.207 92.5326 223.827 99.4158L232.568 136.721C233.562 136.85 234.538 136.905 235.532 136.905C237.169 136.905 238.789 136.721 240.372 136.317V81.0852H249.666V127.206C249.666 131.936 246.905 135.654 242.028 137.476V140.347C242.028 143.844 240.114 145.997 237.041 145.997H237.059ZM232.992 138.433L233.525 140.807C234.151 143.31 235.182 144.341 237.077 144.341C239.176 144.341 240.427 142.887 240.427 140.365V137.991C238.844 138.359 237.206 138.525 235.587 138.525C234.722 138.525 233.875 138.488 233.029 138.396V138.433H232.992ZM196.184 143.273H202.165V90.3057C198.19 92.0173 196.184 95.3485 196.184 100.207V143.273ZM213.391 89.5327L221.802 126.139C223.109 132.01 225.998 135.286 230.82 136.39L222.244 99.7839C220.845 93.8393 218.103 90.6186 213.391 89.5327ZM242.065 82.7415V135.709C245.93 134.071 248.046 131.09 248.046 127.225V82.7415H242.065ZM203.803 87.95C205.386 87.5451 207.024 87.3426 208.662 87.361C209.527 87.361 210.373 87.3978 211.22 87.4899L210.594 84.7292C210.336 83.5697 209.545 81.6373 207.134 81.6373C204.723 81.6373 203.784 83.6434 203.784 85.5206V87.95H203.803Z" fill="black"/>
<path d="M313.457 144.931H303.739L298.954 125.919H272.011L267.299 144.931H257.582L270.115 98.7543C271.569 93.4723 274.882 89.865 279.722 88.3006L280.587 84.675C281.121 82.6689 282.17 80.0371 285.482 80.0371C288.795 80.0371 289.863 82.6689 290.359 84.6566L291.206 88.3006C296.046 89.8834 299.359 93.5091 300.813 98.7727L313.438 144.949L313.457 144.931ZM305.028 143.274H311.285L299.23 99.196C298.034 94.871 295.457 91.7975 291.721 90.2515L299.175 119.698H271.919L279.28 90.2147C275.526 91.7975 272.949 94.8526 271.753 99.1592L259.79 143.274H266.048L270.741 124.263H300.224L305.028 143.274ZM274.035 118.042H297.04L289.881 89.5889C287.01 88.8528 284.01 88.8528 281.139 89.5889L274.053 118.042H274.035ZM281.581 87.7301V87.7853C284.176 87.2516 286.844 87.2516 289.421 87.7853V87.7117L288.777 85.0063C288.151 82.5953 287.231 81.6383 285.501 81.6383C283.771 81.6383 282.851 82.5769 282.225 85.0063L281.581 87.6933V87.7301Z" fill="black"/>
<defs>
<filter id="filter0_f_4_124" x="-25" y="-266" width="456" height="456" filterUnits="userSpaceOnUse" color-interpolation-filters="sRGB">
<feFlood flood-opacity="0" result="BackgroundImageFix"/>
<feBlend mode="normal" in="SourceGraphic" in2="BackgroundImageFix" result="shape"/>
<feGaussianBlur stdDeviation="50" result="effect1_foregroundBlur_4_124"/>
</filter>
<filter id="filter1_f_4_124" x="-209" y="-75" width="456" height="456" filterUnits="userSpaceOnUse" color-interpolation-filters="sRGB">
<feFlood flood-opacity="0" result="BackgroundImageFix"/>
<feBlend mode="normal" in="SourceGraphic" in2="BackgroundImageFix" result="shape"/>
<feGaussianBlur stdDeviation="50" result="effect1_foregroundBlur_4_124"/>
</filter>
<filter id="filter2_f_4_124" x="142" y="-36" width="456" height="456" filterUnits="userSpaceOnUse" color-interpolation-filters="sRGB">
<feFlood flood-opacity="0" result="BackgroundImageFix"/>
<feBlend mode="normal" in="SourceGraphic" in2="BackgroundImageFix" result="shape"/>
<feGaussianBlur stdDeviation="50" result="effect1_foregroundBlur_4_124"/>
</filter>
<filter id="filter3_f_4_124" x="-63" y="61" width="548" height="388" filterUnits="userSpaceOnUse" color-interpolation-filters="sRGB">
<feFlood flood-opacity="0" result="BackgroundImageFix"/>
<feBlend mode="normal" in="SourceGraphic" in2="BackgroundImageFix" result="shape"/>
<feGaussianBlur stdDeviation="50" result="effect1_foregroundBlur_4_124"/>
</filter>
<linearGradient id="paint0_linear_4_124" x1="197" y1="0" x2="197" y2="226" gradientUnits="userSpaceOnUse">
<stop stop-color="#E6EFFE"/>
<stop offset="1" stop-color="#FAEBF2"/>
</linearGradient>
</defs>
</svg>
