<svg width="80" height="80" viewBox="0 0 80 80" fill="none" xmlns="http://www.w3.org/2000/svg">
    <rect width="80" height="80" rx="12" fill="url(#paint0_linear_20268_58572)"/>
    <path d="M17.9314 38.6411C17.9314 39.9745 17.5614 41.0406 16.8213 41.8409C16.0574 42.663 14.9995 43.0755 13.6477 43.0755C13.315 43.0755 12.8122 43.0624 12.1393 43.0377C11.4664 43.013 10.9606 42.9999 10.6219 42.9999C10.4353 42.9999 10.3414 43.1161 10.3414 43.3485C10.3414 43.6492 10.3607 44.1009 10.398 44.7022C10.4353 45.3035 10.4547 45.7552 10.4547 46.0559C10.4547 46.1518 10.3995 46.2012 10.2891 46.2012C10.1668 46.2012 9.98177 46.1881 9.73409 46.1634C9.48641 46.1372 9.30139 46.1256 9.17904 46.1256C9.0746 46.1256 8.91943 46.1343 8.71502 46.1518C8.51061 46.1692 8.35991 46.1779 8.25994 46.1779C8.11372 46.1779 8.0421 46.0908 8.0421 45.9136C8.0421 45.2948 8.07045 44.3623 8.12566 43.1132C8.18086 41.8656 8.20921 40.9287 8.20921 40.3042C8.2107 38.5307 8.14356 36.6295 8.00928 34.5989L8.00033 34.4711C7.99436 34.3462 8.07045 34.2838 8.22712 34.2838C8.54194 34.2838 9.01492 34.2867 9.64755 34.2925C10.2802 34.2983 10.7561 34.3012 11.0769 34.3012C11.3515 34.3012 11.7618 34.2896 12.3094 34.2678C12.8569 34.2445 13.2687 34.2344 13.5418 34.2344C14.8294 34.2344 15.8873 34.6599 16.7154 35.5111C17.5256 36.3448 17.9299 37.3891 17.9299 38.6426L17.9314 38.6411ZM15.7276 38.7689C15.7276 37.9178 15.4919 37.2366 15.0189 36.7268C14.5295 36.1937 13.8536 35.9265 12.9912 35.9265C12.7227 35.9265 12.2452 35.9497 11.5574 35.9948C10.7711 36.0398 10.3652 36.0863 10.3428 36.1313C10.3026 36.1995 10.2817 37.1756 10.2817 39.0594C10.2817 39.2976 10.2891 39.6549 10.304 40.1313C10.319 40.6077 10.3264 40.9651 10.3264 41.2033C10.3264 41.2541 10.3906 41.2948 10.5189 41.3224C10.8397 41.3848 11.7275 41.4153 13.1852 41.4153C14.0013 41.4153 14.637 41.1684 15.0905 40.6746C15.5158 40.204 15.7291 39.5678 15.7291 38.7689H15.7276Z" fill="white"/>
    <path d="M26.1392 41.5996C26.1392 42.0194 25.9527 42.2997 25.5797 42.442C25.329 42.5335 23.5251 42.7006 20.168 42.9446C20.2441 43.4442 20.5261 43.8698 21.0155 44.2213C21.481 44.5568 21.9824 44.7238 22.5195 44.7238C23.4401 44.7238 24.2861 44.4348 25.0545 43.8553C25.147 43.7812 25.241 43.7071 25.335 43.6345C25.3812 43.6345 25.4126 43.6403 25.4275 43.6519C25.4424 43.6636 25.5513 43.8611 25.7557 44.2431C25.9602 44.6265 26.0616 44.8313 26.0616 44.8604C26.0616 44.8938 26.0154 44.9591 25.9214 45.0565C25.0649 45.941 23.9653 46.384 22.6254 46.384C21.2856 46.384 20.1949 45.9918 19.3907 45.2046C18.5864 44.4188 18.1836 43.3702 18.1836 42.06C18.1836 40.8908 18.5685 39.8726 19.3369 39.0041C20.1471 38.1021 21.1408 37.6504 22.3181 37.6504C23.4132 37.6504 24.3293 38.0426 25.0634 38.8254C25.7796 39.5851 26.1392 40.5103 26.1392 41.5996ZM24.0578 41.0811C24.0578 40.6105 23.8668 40.1936 23.4848 39.8305C23.1029 39.4674 22.6732 39.2859 22.1957 39.2859C21.6601 39.2859 21.1826 39.4965 20.7663 39.9162C20.35 40.336 20.1412 40.8066 20.1412 41.3295C20.1412 41.4486 20.2456 41.5081 20.456 41.5081C21.3184 41.5081 22.3494 41.4224 23.5505 41.2525C23.8892 41.2075 24.0578 41.1508 24.0578 41.0825V41.0811Z" fill="white"/>
    <path d="M32.3806 44.6035C32.3806 44.7284 32.3687 44.8983 32.3463 45.1147C32.3165 45.382 32.3001 45.5548 32.2941 45.6333C32.2881 45.7349 32.2792 45.7974 32.2672 45.8206C32.2434 45.8598 32.1882 45.9005 32.1016 45.9397C31.6242 46.1605 30.8722 46.2723 29.8457 46.2723C28.4819 46.2723 27.8001 45.671 27.8001 44.4684C27.8001 43.9862 27.812 43.2614 27.8344 42.2941C27.8582 41.3267 27.8687 40.6019 27.8687 40.1197C27.8687 39.8873 27.7493 39.7624 27.5106 39.745C27.2942 39.745 27.0824 39.7421 26.872 39.7363C26.7496 39.7087 26.6885 39.4748 26.6885 39.0391C26.6885 38.875 26.7004 38.7021 26.7228 38.5206C26.7407 38.3841 26.8332 38.3027 27.0033 38.2737C27.1495 38.2737 27.2913 38.2708 27.4315 38.265C27.7001 38.2533 27.8344 38.1371 27.8344 37.9164C27.8344 37.6956 27.8269 37.3441 27.812 36.8779C27.7971 36.4131 27.7896 36.0645 27.7896 35.8306C27.7896 35.4167 27.8717 35.209 28.0343 35.209C28.0865 35.209 28.6341 35.2976 29.6785 35.4733C29.8128 35.4908 29.88 35.5532 29.88 35.6607C29.88 35.9105 29.8606 36.2853 29.8233 36.7834C29.786 37.2831 29.7666 37.6578 29.7666 37.9062C29.7666 38.0703 29.8457 38.1531 30.0023 38.1531H32.1001C32.1986 38.1531 32.2493 38.1865 32.2493 38.2548C32.2493 38.323 32.2389 38.432 32.218 38.583C32.1971 38.7341 32.1867 38.8459 32.1867 38.9186C32.1867 39.0042 32.1897 39.1335 32.1956 39.3107C32.2016 39.4865 32.2046 39.6172 32.2046 39.7029C32.2046 39.8104 32.1225 39.8641 31.9599 39.8641C31.7271 39.8641 31.3735 39.8481 30.902 39.8176C30.4305 39.7871 30.0769 39.7711 29.8442 39.7711C29.7979 39.7711 29.7621 39.9324 29.7397 40.2563C29.7099 40.6586 29.6964 41.2236 29.6964 41.9498V43.2178C29.6964 43.7058 29.7427 44.0457 29.8367 44.2389C29.977 44.5337 30.2649 44.6819 30.7021 44.6819C30.8826 44.6819 31.1482 44.6441 31.4974 44.5672C31.8465 44.4902 32.1061 44.4524 32.2747 44.4524C32.3448 44.4524 32.3792 44.5032 32.3792 44.6049L32.3806 44.6035Z" fill="white"/>
    <path d="M47.9227 37.7952C47.6631 37.3057 47.3259 36.8468 46.9111 36.4197C46.4426 35.9332 45.9278 35.5454 45.3668 35.2578C45.3236 35.2345 45.2803 35.2142 45.237 35.1924C45.234 35.191 45.2296 35.1895 45.2266 35.1866C45.0341 35.0951 44.8386 35.0138 44.6357 34.9455C44.0135 34.7305 43.3406 34.623 42.6185 34.623C41.8963 34.623 41.1861 34.7378 40.549 34.9658C40.37 35.0283 40.1954 35.1009 40.0268 35.1822C40.0268 35.1822 40.0253 35.1837 40.0238 35.1837C39.9716 35.2084 39.9194 35.2345 39.8686 35.2607C39.8477 35.2708 39.8283 35.2825 39.8089 35.2926C39.2748 35.5773 38.7839 35.952 38.3348 36.4197C37.923 36.8439 37.5873 37.2985 37.3262 37.7821C37.3113 37.8097 37.2978 37.8359 37.2844 37.8635C36.8651 38.6725 36.6562 39.5614 36.6562 40.5345C36.6562 42.1395 37.2098 43.5135 38.3169 44.6566C39.4658 45.8418 40.8981 46.4359 42.6185 46.4359C44.3388 46.4359 45.7652 45.8389 46.9201 44.6479C48.0272 43.499 48.5807 42.1279 48.5807 40.5345C48.5807 39.5338 48.3614 38.6202 47.9227 37.7952ZM45.4161 43.2797C44.67 44.1163 43.7315 44.5361 42.6006 44.5361C41.4696 44.5361 40.5609 44.1163 39.8209 43.2797C39.1211 42.4968 38.772 41.5803 38.772 40.5345C38.772 39.4888 39.1002 38.6188 39.7612 37.8504C39.7806 37.8272 39.8 37.8039 39.8209 37.7807C40.2789 37.2622 40.8086 36.9034 41.4099 36.7073C41.7799 36.5839 42.1768 36.5243 42.6006 36.5243C43.7256 36.5243 44.6611 36.9383 45.4071 37.7633C46.1188 38.5432 46.4739 39.4583 46.4739 40.5084C46.4739 41.5585 46.1203 42.4968 45.4161 43.2797Z" fill="white"/>
    <path d="M54.0155 38.0001C53.6589 38.0001 53.3679 38.035 53.1411 38.1032C52.8666 38.1759 52.5995 38.2891 52.3369 38.4431C52.0982 38.5913 51.858 38.738 51.6192 38.8861C51.6028 38.8963 51.5879 38.9021 51.576 38.9021C51.4999 38.9021 51.4476 38.7351 51.4178 38.401C51.3895 38.0655 51.3283 37.8984 51.2343 37.8984C51.282 37.8984 50.9896 37.9551 50.3614 38.0684C49.9705 38.1134 49.6676 38.1483 49.4513 38.17C49.3752 38.1991 49.3379 38.247 49.3379 38.3153C49.3379 38.3385 49.3439 38.3719 49.3558 38.417C49.6229 39.2681 49.7572 40.3952 49.7572 41.7968C49.7572 42.2616 49.7497 42.9559 49.7363 43.8811C49.7213 44.8063 49.7139 45.4977 49.7139 45.9581C49.7139 46.099 49.781 46.1702 49.9153 46.1702C50.0959 46.1702 50.3689 46.1731 50.7359 46.1789C51.1045 46.1847 51.3775 46.1876 51.5581 46.1876C51.6923 46.1876 51.7595 46.1106 51.7595 45.9581C51.7595 45.64 51.7461 45.1578 51.7207 44.5115C51.6938 43.8637 51.6804 43.3815 51.6804 43.0648V42.128C51.6804 41.3567 51.7416 40.8484 51.8639 40.6044C52.0683 40.202 52.5368 40.0001 53.2724 40.0001C53.4007 40.0001 53.5887 40.0132 53.8364 40.0394C54.0841 40.064 54.2691 40.0771 54.3915 40.0771C54.4899 40.0771 54.5481 40.0118 54.566 39.881C54.6526 39.3712 54.6973 38.8033 54.6973 38.1788C54.6973 38.0597 54.469 38.0001 54.0155 38.0001Z" fill="white"/>
    <path d="M71.4213 44.4765C70.3545 44.4765 68.8505 44.5027 66.9094 44.5535C68.1448 43.2202 69.0684 42.2165 69.6816 41.5411C70.6306 40.5026 71.1349 39.9434 71.1931 39.8635C71.2632 39.7561 71.299 39.2738 71.299 38.4169C71.299 38.3152 71.2259 38.2557 71.0797 38.2382C70.8753 38.2165 69.9756 38.2048 68.3791 38.2048C68.0523 38.2048 67.5659 38.1903 66.9183 38.1627C66.2708 38.1337 65.7844 38.1191 65.4576 38.1191C65.295 38.1191 65.2129 38.154 65.2129 38.2223C65.2129 38.3806 65.1771 38.6231 65.104 38.9499C65.0309 39.2753 64.9951 39.5208 64.9951 39.6849C64.9951 39.804 65.0413 39.8635 65.1353 39.8635H68.9908C67.9523 41.056 67.1511 41.9376 66.5856 42.5114C65.4666 43.6849 64.8444 44.3284 64.7191 44.4388C64.5937 44.5492 64.5311 44.645 64.5311 44.7235C64.5311 44.7685 64.5281 44.8382 64.5236 44.9326C64.5176 45.0256 64.5146 45.0982 64.5146 45.149C64.5146 45.5121 64.5549 45.8302 64.637 46.1018C64.6698 46.1991 64.7414 46.2485 64.8504 46.2543C64.8504 46.2485 65.2278 46.2195 65.9828 46.1701C66.6707 46.1251 67.2973 46.1018 67.8628 46.1018C68.5909 46.1018 69.1504 46.1076 69.5414 46.1193C69.6921 46.1251 69.9636 46.1425 70.3545 46.1701C70.6977 46.1933 70.9722 46.205 71.1767 46.205C71.2572 46.205 71.3094 46.1047 71.3333 45.9072C71.3453 45.8099 71.3975 45.5601 71.49 45.1577C71.578 44.783 71.6213 44.5826 71.6213 44.5535C71.6213 44.5027 71.5541 44.4765 71.4213 44.4765Z" fill="white"/>
    <path d="M41.0846 36.7255C40.5206 36.9201 40.0222 37.276 39.5925 37.7901C39.5731 37.8134 39.5552 37.8366 39.5358 37.8598C39.1733 38.0094 38.8017 38.1736 38.4272 38.3522C38.0542 38.5294 37.9065 38.6108 37.6394 38.7458C37.6439 38.711 37.6499 38.6761 37.6544 38.6413C37.6812 38.4742 37.5857 38.3798 37.5141 38.2651C37.4276 38.1315 37.3515 37.9964 37.2828 37.8598C37.2724 37.8381 37.2605 37.8148 37.25 37.793C36.8009 36.8577 36.7472 35.8758 37.1038 34.8489C37.1515 34.7124 37.2067 34.663 37.3694 34.6732C38.1408 34.7196 38.8734 34.9085 39.5597 35.257C39.5866 35.2716 39.6119 35.2817 39.6373 35.2905C39.6985 35.3093 39.7522 35.3079 39.8074 35.2905C39.8447 35.2817 39.882 35.2643 39.9223 35.2396C39.9551 35.2193 39.9894 35.2004 40.0222 35.1815C40.0237 35.1815 40.0252 35.1801 40.0252 35.1801C40.1938 35.0987 40.3684 35.0261 40.5474 34.9637L41.0846 36.7269V36.7255Z" fill="white"/>
    <path d="M47.937 37.7638C47.9325 37.7739 47.9265 37.7841 47.9221 37.7943C47.849 37.9424 47.7669 38.0906 47.6729 38.2358C47.5998 38.3491 47.5058 38.445 47.5311 38.612C47.5371 38.6469 47.5431 38.6817 47.5476 38.7166C47.279 38.5815 47.1328 38.5002 46.7598 38.323C46.3838 38.1443 46.0137 37.9802 45.6497 37.8306C45.6318 37.8073 45.6139 37.7841 45.5945 37.7609C45.1648 37.2467 44.6664 36.8908 44.1024 36.6948L44.6351 34.9446C44.838 35.0128 45.0335 35.0942 45.2259 35.1857C45.2289 35.1886 45.2334 35.19 45.2364 35.1915C45.2453 35.1973 45.2558 35.2031 45.2647 35.2089C45.3005 35.2292 45.3334 35.2467 45.3662 35.2568C45.4259 35.2786 45.4826 35.2815 45.5497 35.2612C45.5751 35.2525 45.6004 35.2409 45.6273 35.2278C46.3136 34.8792 47.0462 34.6904 47.8176 34.6439C47.9802 34.6337 48.0355 34.6817 48.0817 34.8196C48.4398 35.8465 48.3861 36.8284 47.937 37.7638Z" fill="white"/>
    <path d="M42.6253 40.8535C42.8908 40.8782 43.1609 40.8709 43.4175 40.961C43.4727 40.9799 43.5309 41.0031 43.5787 41.0365C43.7025 41.1237 43.701 41.2733 43.5802 41.3662C43.5026 41.4258 43.4086 41.4563 43.3176 41.4839C43.1266 41.5449 42.9878 41.6538 42.9043 41.8339C42.8505 41.9516 42.7685 42.0358 42.6238 42.0358C42.4775 42.0358 42.3955 41.9545 42.3403 41.8368C42.2552 41.6538 42.112 41.5391 41.9165 41.481C41.8419 41.4592 41.7703 41.4272 41.7017 41.3909C41.5256 41.2951 41.5286 41.1077 41.7061 41.0089C41.8449 40.9319 42.0016 40.9087 42.1567 40.8884C42.3119 40.868 42.4686 40.8637 42.6253 40.8535Z" fill="white"/>
    <path fill-rule="evenodd" clip-rule="evenodd" d="M63.1331 39.0211C62.3871 38.1424 61.4098 37.7023 60.2042 37.7023C59.1494 37.7023 58.3004 38.0916 57.6603 38.8686C57.6126 38.9311 57.5693 38.9616 57.529 38.9616C57.4469 38.9616 57.4067 38.8541 57.4067 38.6391C57.4067 38.3443 57.4201 37.8998 57.4454 37.3072C57.4723 36.7146 57.4857 36.2702 57.4857 35.9753C57.4857 35.7764 57.4992 35.4786 57.529 35.0806C57.5573 34.6841 57.5723 34.3893 57.5723 34.1961C57.5723 34.0654 57.526 34 57.432 34C57.3037 34 57.1351 34.0174 56.9262 34.0523C56.6741 34.0857 56.5084 34.106 56.4279 34.1118C56.0131 34.1278 55.7012 34.1394 55.4924 34.1452C55.3491 34.1612 55.273 34.2338 55.2656 34.366C55.2715 34.366 55.2999 34.9412 55.3521 36.0944C55.4446 38.125 55.4924 39.666 55.4924 40.7147C55.4924 43.2797 55.4446 45.0154 55.3521 45.9232L55.3342 46.0772C55.3342 46.1512 55.37 46.1876 55.4386 46.1876H57.2843C57.3589 46.1876 57.4081 46.0263 57.4275 45.7024C57.4484 45.3785 57.4902 45.2086 57.5544 45.1912C57.7886 45.3785 58.0214 45.5688 58.2541 45.762C58.8316 46.1367 59.4985 46.3241 60.2565 46.3241C61.3934 46.3241 62.3424 45.8811 63.1063 44.9965C63.824 44.1614 64.182 43.1839 64.182 42.0597C64.182 40.8629 63.8314 39.8505 63.1331 39.0211ZM60.665 41.9353C60.4938 41.6991 60.2544 41.5597 59.8372 41.5567C59.7042 41.5537 59.4931 41.6385 59.3351 41.8096C59.0924 42.0746 58.8547 42.3472 58.6403 42.6335C58.4657 42.8682 58.4491 43.1363 58.6053 43.3937C58.7516 43.636 58.9844 43.7405 59.267 43.7284C59.3966 43.7223 59.5263 43.6905 59.6527 43.6572C59.8438 43.6072 60.03 43.6012 60.2229 43.6572C60.3409 43.6905 60.4639 43.7148 60.5869 43.7284C60.9726 43.7693 61.3317 43.4982 61.3716 43.1378C61.3982 42.9045 61.3267 42.6986 61.1638 42.5259C60.9876 42.3382 60.818 42.1443 60.665 41.9353ZM60.1709 40.5778C60.1742 40.2326 60.4352 39.9418 60.7328 39.9494C61.0021 39.9569 61.2066 40.2023 61.2016 40.5112C61.1949 40.8565 60.9339 41.1473 60.6364 41.1397C60.367 41.1336 60.1676 40.8928 60.1709 40.5778ZM59.3303 41.1288C59.563 41.0834 59.721 40.8608 59.7176 40.5337C59.7043 40.3171 59.6029 40.1006 59.3403 39.987C59.1557 39.9067 58.9895 39.9521 58.8499 40.0869C58.6803 40.2505 58.6421 40.5367 58.7501 40.7805C58.8648 41.0395 59.0926 41.1758 59.3303 41.1288ZM57.6357 41.5647C57.6357 41.2876 57.8202 41.0831 58.0746 41.0801C58.3838 41.0771 58.6614 41.3815 58.6547 41.7177C58.6497 41.9948 58.4569 42.1977 58.2042 42.1947C57.9017 42.1902 57.6357 41.8964 57.6357 41.5647ZM61.6639 42.1895C61.9698 42.1986 62.2458 41.9093 62.2491 41.5746L62.2474 41.5731C62.2508 41.2884 62.0762 41.084 61.8185 41.0764C61.516 41.0673 61.2384 41.3581 61.2334 41.6927C61.2301 41.9759 61.4079 42.1819 61.6639 42.1895Z" fill="white"/>
    <defs>
        <linearGradient id="paint0_linear_20268_58572" x1="74.5" y1="3.5" x2="7.5" y2="106.5" gradientUnits="userSpaceOnUse">
            <stop stop-color="#CE0EE7"/>
            <stop offset="1" stop-color="#4D00CA"/>
        </linearGradient>
    </defs>
</svg>
