<svg xmlns="http://www.w3.org/2000/svg" width="192" height="192" viewBox="0 0 192 192">
  <g id="Group_109" data-name="Group 109" transform="translate(-1513 -1186)">
    <g id="app-Mobile" transform="translate(1540.837 1193.023)">
      <g id="m-05" transform="translate(0 0.221)">
        <g id="Header" transform="translate(0 0)">
          <g id="Logo" transform="translate(0 0)">
            <path id="Fill-1" d="M100.588,90.554q3.387,7.995,6.772,15.99c2.561,6.063,5.086,12.141,7.684,18.188.9,2.084,1.059,4.083-.532,5.823-1.549,1.693-3.517,1.764-5.609,1.025-4.99-1.762-10.009-3.443-14.986-5.242-1.221-.441-1.722-.122-2.235,1-2.289,5-4.649,9.962-7.02,14.922a4.426,4.426,0,0,1-4.756,2.561,4.24,4.24,0,0,1-3.785-2.883q-5.55-13.208-11.077-26.425c-.17-.406-.384-.794-.688-1.416-1.271,3-2.47,5.792-3.644,8.6-2.673,6.391-5.324,12.791-8.005,19.178a4.716,4.716,0,0,1-8.736.047c-2.339-4.975-4.735-9.923-7.063-14.9-.43-.921-.869-1.061-1.834-.719-5.267,1.87-10.56,3.666-15.854,5.458a4.366,4.366,0,0,1-4.913-1.142,4.549,4.549,0,0,1-.857-5.11q6.485-15.39,12.917-30.8c.21-.5.5-.967.749-1.449a3.655,3.655,0,0,1,1.7,1.22c-2.13,5.166-4.246,10.338-6.395,15.5-2.208,5.3-4.455,10.583-6.67,15.879a2.8,2.8,0,0,0,.334,3.325c.905.91,1.95.637,3.03.259,5.508-1.93,11.042-3.788,16.535-5.759,1.4-.5,2.088-.241,2.721,1.149,2.444,5.363,5.013,10.668,7.529,16a2.652,2.652,0,0,0,2.448,1.855,2.535,2.535,0,0,0,2.327-1.8c3.936-9.4,7.829-18.826,11.831-28.2a3.491,3.491,0,0,0-.353-3.8,1.52,1.52,0,0,0-.6.9q-5.841,13.891-11.689,27.781c-.259.615-.339,1.488-1.215,1.506-.93.019-1.1-.884-1.418-1.524-2.673-5.314-5.359-10.622-7.973-15.966-.468-.956-.912-1.18-1.92-.828-2.893,1.012-5.821,1.927-8.739,2.867-2.965.955-5.937,1.89-8.9,2.849-.495.16-.973.3-1.371-.144a1.1,1.1,0,0,1-.061-1.256c.152-.366.278-.742.431-1.107q6-14.309,12-28.616a31.78,31.78,0,0,0,10.147.581A18.734,18.734,0,0,1,52.763,99.5c2.946,1.972,5.979,3.875,9.72,3.953q7.73,18.488,15.449,36.98c.485,1.166,1.051,2.2,2.449,2.241s2.062-.963,2.595-2.1c2.378-5.065,4.74-10.138,7.174-15.177,1.136-2.352.576-2.5,3.614-1.455,5.33,1.838,10.664,3.665,15.982,5.536,1.169.411,2.216.5,3.118-.487s.653-2.04.181-3.162q-7.029-16.69-14.013-33.4a7.2,7.2,0,0,1,1.556-1.879" transform="translate(4.527 31.189)" fill="#fccdd3" fill-rule="evenodd"/>
            <g id="Group-5">
              <path id="Fill-3" d="M45.112,10.327c-2.407,0-4.046-.066-5.677.014a8.79,8.79,0,0,0-7.214,3.787,50.558,50.558,0,0,0-3.575,6.166,18.857,18.857,0,0,1-8.575,8.562c-1.68.845-3.3,1.815-4.933,2.743a9.363,9.363,0,0,0-5,8.825c.022,2.53,0,5.06.04,7.59A14.577,14.577,0,0,1,8.089,55.8c-1.135,1.919-2.267,3.84-3.443,5.734C2.215,65.45,2.092,69.35,4.61,73.275c.588.917,1.064,1.911,1.7,2.792a20.06,20.06,0,0,1,3.884,13.859c-.135,1.577-.059,3.173-.046,4.76.029,3.384,1.2,6.2,4.14,8.088a26.841,26.841,0,0,0,3.451,2.035,22.392,22.392,0,0,1,11.923,11.675,34.693,34.693,0,0,0,1.8,3.248,9.394,9.394,0,0,0,8.731,4.91c2.627,0,5.255-.007,7.882-.033a14.788,14.788,0,0,1,7.762,2.184c1.921,1.131,3.839,2.268,5.731,3.446a9.975,9.975,0,0,0,11.329.031c1.431-.888,2.906-1.707,4.315-2.627a17.3,17.3,0,0,1,10.659-3.05c2.126.117,4.262.044,6.394.051a9.415,9.415,0,0,0,8.837-4.984c.927-1.638,1.9-3.255,2.744-4.936a18.608,18.608,0,0,1,8.541-8.589c1.727-.86,3.4-1.835,5.059-2.825a8.954,8.954,0,0,0,4.805-7.081c.286-3.023.088-6.046.079-9.067a15.88,15.88,0,0,1,2.339-8.478c1.157-1.906,2.288-3.827,3.439-5.737a9.83,9.83,0,0,0,.149-10.695c-.922-1.584-1.85-3.167-2.845-4.706a17.583,17.583,0,0,1-3.083-10.808c.126-2.176.076-4.365.046-6.547a9.071,9.071,0,0,0-4.065-7.984,61.051,61.051,0,0,0-6.059-3.461,18.591,18.591,0,0,1-8.271-8.262c-.929-1.8-1.939-3.57-2.967-5.322a8.912,8.912,0,0,0-7.118-4.756c-1.23-.113-2.474-.071-3.712-.093a68.165,68.165,0,0,1-8.02-.142,19.155,19.155,0,0,1-8.686-4.016C69.958,2.081,64.63,2.024,59.113,6.136c-4.356,3.246-9.22,5.013-14,4.19m-11.767,115.5a3.653,3.653,0,0,0-1.7-1.22c-2.845-3.348-4.578-7.387-6.869-11.078-1.438-2.317-3.647-3.724-5.975-4.994a52.05,52.05,0,0,1-6.654-3.914,11.26,11.26,0,0,1-4.666-9.048A42.8,42.8,0,0,1,7.5,90.22,18.489,18.489,0,0,0,3.965,77.481,34.925,34.925,0,0,1,1.3,72.85a11.911,11.911,0,0,1,.04-10.883A57.5,57.5,0,0,1,4.8,56.073a15.758,15.758,0,0,0,2.715-9.549c-.122-2.127-.029-4.265-.055-6.4a11.718,11.718,0,0,1,6.146-10.8c1.571-.942,3.158-1.869,4.8-2.673a17.059,17.059,0,0,0,8.046-8.027,32.564,32.564,0,0,1,4.332-7.08,11.128,11.128,0,0,1,8.511-3.892,39.669,39.669,0,0,1,5.2.019,18.656,18.656,0,0,0,12.989-3.68,36.868,36.868,0,0,1,4.111-2.38A11.927,11.927,0,0,1,73,1.62,58.281,58.281,0,0,1,78.62,4.95a16.163,16.163,0,0,0,9.694,2.737c2.128-.093,4.262-.031,6.393-.05a11.659,11.659,0,0,1,10.736,6.241c.981,1.664,1.96,3.335,2.816,5.064a16.259,16.259,0,0,0,7.535,7.522,50.051,50.051,0,0,1,6.053,3.47,11.438,11.438,0,0,1,5.213,9.817,46,46,0,0,1-.034,4.909,18.506,18.506,0,0,0,3.583,12.874,37.276,37.276,0,0,1,2.269,3.836,12.375,12.375,0,0,1-.349,12.871c-1.224,2.1-2.47,4.18-3.711,6.267a12.752,12.752,0,0,0-1.79,6.8c.029,2.48,0,4.961.042,7.441a11.743,11.743,0,0,1-6.091,10.838c-1.734,1.055-3.517,2.034-5.318,2.97a15.362,15.362,0,0,0-6.889,6.543c-1.187,2.284-2.433,4.537-3.654,6.8a7.173,7.173,0,0,0-1.557,1.879,5.972,5.972,0,0,0-1.568,1.417,14.231,14.231,0,0,1-8.744,2.14c-2.224-.077-4.452-.017-6.679-.022a10.883,10.883,0,0,0-4.458.9c-4.4,1.936-8.1,5.239-12.79,6.626a8.061,8.061,0,0,0-2.308-.045c-3.742-.078-6.774-1.981-9.72-3.953a18.736,18.736,0,0,0-11.918-3.578,31.781,31.781,0,0,1-10.147-.58,4.089,4.089,0,0,0-1.881-.868" transform="translate(0 -0.164)" fill="#6534ff" fill-rule="evenodd"/>
            </g>
            <path id="Fill-10" d="M85.557,80.8a1.636,1.636,0,0,0,1.664-2.2q-3.215-11.265-6.486-22.514a1.639,1.639,0,0,0-2.226-1.149c-.826.2-1.044.976-1.258,1.7q-2.085,7.037-4.176,14.073c-.76,2.558-1.556,5.107-2.274,7.676-.3,1.059-.071,2.044,1.156,2.35a1.561,1.561,0,0,0,2.091-1.314c.275-1.1.69-2.168.967-3.27a1.166,1.166,0,0,1,1.361-1.011q2.6.067,5.2,0c.816-.02,1.265.2,1.438,1.079a28.889,28.889,0,0,0,.906,3.132c.253.8.655,1.461,1.64,1.443m-38.93-12.9a6.371,6.371,0,0,0,.814,3.522c1.1,2.161,2.2,4.326,3.249,6.514a4.488,4.488,0,0,0,4.129,2.877A4.332,4.332,0,0,0,59.1,77.983c1.141-2.363,2.328-4.7,3.439-7.081a6.865,6.865,0,0,0-.044-6.166c-1.235-2.538-2.455-5.085-3.751-7.591a4.317,4.317,0,0,0-7.554-.276c-1.571,2.744-2.852,5.656-4.218,8.514a4.8,4.8,0,0,0-.348,2.524m48.18-.509c0,3.768.015,7.537-.009,11.305-.007,1.228.428,2.069,1.741,2.085,1.5.018,1.727-1.122,1.752-2.263.046-2.131.051-4.265,0-6.4-.023-.911.283-1.206,1.19-1.186q3.492.077,6.986,0a4.972,4.972,0,0,0,4.96-4.917c.063-2.08.068-4.166,0-6.247a4.987,4.987,0,0,0-5.106-4.9c-3.369-.01-6.739.04-10.108-.027-1.084-.022-1.454.238-1.431,1.387.075,3.717.028,7.437.028,11.156m-72.294.046q0,5.5,0,11.008a3.519,3.519,0,0,0,.078,1.177A1.658,1.658,0,0,0,24.44,80.8c1.146-.105,1.5-.952,1.531-1.874.076-2.179.09-4.364.018-6.543-.036-1.082.236-1.492,1.392-1.447,2.276.089,4.558.067,6.836.012a4.96,4.96,0,0,0,4.909-4.812c.082-2.129.079-4.266,0-6.4a4.983,4.983,0,0,0-5.15-4.858c-3.369-.007-6.74.049-10.107-.03-1.156-.027-1.4.36-1.382,1.437.062,3.718.024,7.437.024,11.156M44.4,9.633c4.781.823,9.645-.944,14-4.19,5.517-4.112,10.845-4.055,16.361.019a19.159,19.159,0,0,0,8.686,4.016,68.165,68.165,0,0,0,8.02.141c1.238.022,2.482-.019,3.712.093a8.912,8.912,0,0,1,7.118,4.756c1.027,1.752,2.037,3.517,2.966,5.322a18.591,18.591,0,0,0,8.271,8.262,61.171,61.171,0,0,1,6.059,3.461,9.07,9.07,0,0,1,4.065,7.984c.031,2.182.081,4.371-.045,6.547a17.586,17.586,0,0,0,3.083,10.808c.995,1.539,1.923,3.122,2.845,4.706a9.831,9.831,0,0,1-.149,10.694c-1.15,1.91-2.281,3.831-3.439,5.737a15.882,15.882,0,0,0-2.339,8.478c.009,3.021.206,6.044-.079,9.067a8.954,8.954,0,0,1-4.805,7.081c-1.658.989-3.331,1.965-5.059,2.824a18.61,18.61,0,0,0-8.541,8.589c-.843,1.681-1.816,3.3-2.744,4.936a9.415,9.415,0,0,1-8.837,4.984c-2.132-.006-4.268.067-6.394-.051a17.3,17.3,0,0,0-10.659,3.05c-1.409.921-2.885,1.739-4.315,2.627a9.975,9.975,0,0,1-11.329-.031c-1.892-1.178-3.81-2.314-5.731-3.446a14.786,14.786,0,0,0-7.762-2.184c-2.627.026-5.255.032-7.882.033a9.394,9.394,0,0,1-8.731-4.91,34.653,34.653,0,0,1-1.8-3.248,22.394,22.394,0,0,0-11.923-11.675,26.785,26.785,0,0,1-3.451-2.035c-2.944-1.885-4.112-4.7-4.14-8.088-.014-1.587-.09-3.183.046-4.76A20.06,20.06,0,0,0,5.593,75.373c-.635-.882-1.11-1.876-1.7-2.793-2.518-3.925-2.4-7.824.036-11.738,1.176-1.893,2.308-3.815,3.443-5.734a14.579,14.579,0,0,0,2.091-7.789c-.039-2.529-.018-5.06-.04-7.59a9.363,9.363,0,0,1,5-8.825c1.637-.928,3.254-1.9,4.933-2.743A18.858,18.858,0,0,0,27.93,19.6a50.561,50.561,0,0,1,3.575-6.166,8.788,8.788,0,0,1,7.214-3.787c1.632-.081,3.271-.014,5.678-.014" transform="translate(0.715 0.531)" fill="#fefefe" fill-rule="evenodd"/>
            <path id="Fill-12" d="M84.106,93l10.985,26.287c.63,1.506,1.277,3,1.881,4.521.212.531.581,1.116.08,1.671s-1.1.216-1.651.037c-5.74-1.847-11.492-3.662-17.212-5.57-1.139-.38-1.605-.136-2.12.921-2.6,5.345-5.294,10.646-7.961,15.961-.282.562-.466,1.224-1.313,1.219-.881-.006-.993-.734-1.227-1.289q-6.928-16.483-13.819-32.982a9.068,9.068,0,0,1-.313-1.127c4.688-1.386,8.386-4.69,12.79-6.626a10.891,10.891,0,0,1,4.458-.9c2.227.006,4.455-.054,6.678.022A14.229,14.229,0,0,0,84.106,93" transform="translate(17.885 32.039)" fill="#fccdd3" fill-rule="evenodd"/>
            <path id="Fill-14" d="M20.6,49.331c0,1.237.023,2.475-.009,3.711-.018.715.152,1.1.981,1.083,2.324-.041,4.648-.008,6.972-.018a1.811,1.811,0,0,0,1.983-1.931c.065-1.829.075-3.663,0-5.492a1.849,1.849,0,0,0-2.075-1.993c-2.225.026-4.451.037-6.676-.007-.919-.018-1.228.35-1.192,1.232.047,1.136.011,2.276.011,3.414m-3.354,4.577c0-3.719.038-7.439-.024-11.156-.018-1.077.226-1.464,1.382-1.437,3.367.079,6.738.022,10.107.03A4.982,4.982,0,0,1,33.856,46.2c.078,2.129.081,4.266,0,6.4a4.96,4.96,0,0,1-4.909,4.812c-2.278.056-4.56.077-6.836-.012-1.156-.045-1.427.365-1.391,1.447.072,2.179.058,4.364-.018,6.543-.032.922-.385,1.768-1.531,1.874a1.659,1.659,0,0,1-1.847-1.169,3.518,3.518,0,0,1-.078-1.177q-.007-5.5,0-11.008" transform="translate(5.986 14.067)" fill="#6534ff" fill-rule="evenodd"/>
            <path id="Fill-16" d="M74.24,49.39c0,1.237.032,2.476-.012,3.711-.028.785.286,1.032,1.045,1.021,2.274-.034,4.549-.016,6.824-.012a1.857,1.857,0,0,0,2.077-2c.056-1.829.075-3.664-.008-5.491a1.853,1.853,0,0,0-2.13-1.935c-2.175.037-4.353.045-6.527-.006-.973-.023-1.333.33-1.283,1.295.059,1.135.014,2.276.014,3.414m-3.354,4.47c0-3.719.047-7.439-.028-11.156-.023-1.149.348-1.409,1.431-1.387,3.368.067,6.739.017,10.108.027a4.987,4.987,0,0,1,5.106,4.9c.069,2.08.065,4.166,0,6.247a4.972,4.972,0,0,1-4.96,4.917q-3.492.076-6.986,0c-.906-.02-1.212.275-1.19,1.186.053,2.131.048,4.264,0,6.4-.025,1.141-.252,2.281-1.752,2.263-1.314-.015-1.748-.858-1.741-2.085.023-3.768.009-7.537.009-11.305" transform="translate(24.637 14.068)" fill="#6534ff" fill-rule="evenodd"/>
            <path id="Fill-18" d="M48.3,54.35a6.142,6.142,0,0,0-.3-1.436c-1.2-2.5-2.4-5-3.685-7.455-.558-1.07-1.437-1.06-2,.033-1.223,2.376-2.369,4.792-3.507,7.21a4.131,4.131,0,0,0,.166,3.724c1.073,2.176,2.167,4.342,3.248,6.514.248.5.5,1.027,1.153,1,.562-.025.815-.484,1.044-.943,1.13-2.258,2.272-4.51,3.4-6.768A4.445,4.445,0,0,0,48.3,54.35m-13.163.039a4.8,4.8,0,0,1,.349-2.524c1.366-2.858,2.647-5.77,4.218-8.514a4.317,4.317,0,0,1,7.554.276c1.3,2.507,2.516,5.054,3.751,7.591a6.864,6.864,0,0,1,.044,6.166c-1.111,2.376-2.3,4.718-3.439,7.081A4.332,4.332,0,0,1,43.328,67.3,4.488,4.488,0,0,1,39.2,64.427c-1.047-2.189-2.146-4.354-3.249-6.515a6.373,6.373,0,0,1-.814-3.522" transform="translate(12.207 14.047)" fill="#6534ff" fill-rule="evenodd"/>
            <path id="Fill-20" d="M61.543,49.756l-.383.009c-.455,1.545-.949,3.08-1.355,4.637-.332,1.272-1.579,2.978-.714,3.706.844.71,2.729.173,4.156.2.621.014.739-.194.557-.8-.78-2.579-1.511-5.173-2.261-7.761m6.309,17.506c-.985.019-1.388-.645-1.641-1.442a28.851,28.851,0,0,1-.906-3.132c-.173-.882-.622-1.1-1.438-1.079q-2.6.065-5.2,0A1.166,1.166,0,0,0,57.31,62.62c-.277,1.1-.692,2.168-.967,3.27A1.561,1.561,0,0,1,54.251,67.2c-1.226-.306-1.451-1.29-1.156-2.35.718-2.57,1.513-5.118,2.274-7.676Q57.46,50.142,59.545,43.1c.214-.724.432-1.5,1.258-1.7a1.639,1.639,0,0,1,2.226,1.149q3.252,11.254,6.486,22.514a1.635,1.635,0,0,1-1.663,2.2" transform="translate(18.421 14.069)" fill="#6534ff" fill-rule="evenodd"/>
            <path id="Fill-22" d="M19.728,48.461c0-1.138.036-2.278-.011-3.414-.037-.882.273-1.25,1.192-1.232,2.224.043,4.45.033,6.675.007a1.85,1.85,0,0,1,2.076,1.993c.071,1.828.061,3.663,0,5.492a1.811,1.811,0,0,1-1.983,1.931c-2.324.01-4.649-.023-6.972.018-.83.015-1-.368-.982-1.083.032-1.236.009-2.474.009-3.711" transform="translate(6.855 14.937)" fill="#fefefe" fill-rule="evenodd"/>
            <path id="Fill-24" d="M73.371,48.522c0-1.138.045-2.279-.014-3.414-.05-.965.309-1.318,1.283-1.295,2.174.052,4.352.043,6.527.006a1.853,1.853,0,0,1,2.13,1.935c.083,1.827.064,3.662.008,5.491a1.857,1.857,0,0,1-2.077,2c-2.275,0-4.55-.022-6.824.012-.759.011-1.073-.236-1.045-1.021.044-1.236.012-2.474.011-3.711" transform="translate(25.506 14.936)" fill="#fefefe" fill-rule="evenodd"/>
            <path id="Fill-26" d="M47.44,53.471a4.446,4.446,0,0,1-.483,1.877c-1.13,2.258-2.272,4.51-3.4,6.768-.229.458-.482.918-1.044.943-.654.029-.905-.5-1.153-1-1.082-2.172-2.176-4.338-3.249-6.514a4.131,4.131,0,0,1-.166-3.724c1.138-2.418,2.284-4.834,3.507-7.21.562-1.093,1.441-1.1,2-.033,1.28,2.458,2.489,4.954,3.685,7.455a6.143,6.143,0,0,1,.3,1.436" transform="translate(13.065 14.927)" fill="#fefefe" fill-rule="evenodd"/>
            <path id="Fill-28" d="M60.044,47.579c.749,2.588,1.481,5.182,2.261,7.761.182.6.063.809-.557.8-1.427-.031-3.312.506-4.156-.2-.865-.728.382-2.434.714-3.706.407-1.557.9-3.092,1.355-4.637l.383-.009" transform="translate(19.921 16.246)" fill="#fefefe" fill-rule="evenodd"/>
          </g>
        </g>
      </g>
    </g>
    <rect id="Rectangle_497" data-name="Rectangle 497" width="192" height="192" transform="translate(1513 1186)" fill="none"/>
  </g>
</svg>
