<svg width="80" height="80" viewBox="0 0 80 80" fill="none" xmlns="http://www.w3.org/2000/svg">
    <rect width="80" height="80" rx="12" fill="#6860EF"/>
    <path d="M14 70C16.7614 70 19 67.7614 19 65C19 62.2386 16.7614 60 14 60C11.2386 60 9 62.2386 9 65C9 67.7614 11.2386 70 14 70Z" fill="#7E76F2"/>
    <path d="M73.6427 13.5408C72.2494 14.1612 71.1612 15.2494 70.5408 16.6427C70.3883 17.1105 69.6154 17.1105 69.4527 16.6427C68.8323 15.2494 67.7441 14.1612 66.3509 13.5408C65.883 13.3883 65.883 12.6154 66.3509 12.4527C67.7441 11.8323 68.8323 10.7441 69.4527 9.35086C69.6052 8.88305 70.3781 8.88305 70.5408 9.35086C71.1612 10.7441 72.2494 11.8323 73.6427 12.4527C74.1105 12.6052 74.1105 13.3781 73.6427 13.5408Z" fill="#E87C8A"/>
    <path d="M55.1941 35.9739C51.8935 25.1395 41.3741 18.7461 31.6984 21.6937C22.0226 24.6413 16.8546 35.8139 20.1552 46.6483C23.4558 57.4826 33.9752 63.8761 43.651 60.9284C53.3267 57.9808 58.4947 46.8083 55.1941 35.9739Z" fill="#7E76F2"/>
    <path d="M52.2861 56.231C50.8613 57.9042 46.7707 59.8349 44.1968 60.6928C43.1938 61.0306 42.2013 60.4249 41.8636 59.422L41.4818 58.3531C41.1376 57.3321 41.5401 56.2282 42.4343 55.6433L48.8465 51.5761C49.5789 51.1103 50.5456 51.0715 51.203 51.6538C52.4867 52.7887 53.6501 54.5591 52.2615 56.2193L52.2861 56.231Z" fill="#7E76F2"/>
    <path d="M24.9378 25.706C26.404 23.9771 31.5298 20.9413 34.4545 19.6926C35.4315 19.2823 36.4046 19.8336 36.7424 20.8365L37.1241 21.9055C37.4683 22.9265 37.0723 24.0484 36.1535 24.6217L29.5899 28.7225C28.8575 29.1884 27.927 29.2143 27.1105 28.8726C25.4528 28.1777 23.4948 27.3857 24.9196 25.7124L24.9378 25.706Z" fill="#141414"/>
    <path d="M19.8077 45.4961C19.743 45.3149 24.5428 43.5395 24.5428 43.5395L25.2791 44.6861L26.2341 46.1018L27.0131 47.8255L28.1545 49.7058L29.1561 51.0232L30.4411 52.2189L33.2763 55.0672L28.0443 57.9775C28.0443 57.9775 22.0257 54.2233 19.8077 45.4961Z" fill="#483EDB"/>
    <path d="M19.7205 35.0629L24.1035 33.1503L24.7027 32.7116L26.4484 30.9646C26.4484 30.9646 28.0557 27.2856 28.0881 27.0902C28.1204 26.8948 29.8921 23.7903 29.8921 23.7903L32.0752 20.8658C32.0752 20.8658 21.6501 25.0791 19.7205 35.0629Z" fill="#483EDB"/>
    <path d="M59.7253 33.3035C56.4154 22.4386 45.8884 16.0204 36.2127 18.9681C26.537 21.9157 21.3765 33.113 24.6864 43.9778C27.9963 54.8427 38.5232 61.2609 48.1989 58.3132C57.8747 55.3656 63.0352 44.1683 59.7253 33.3035Z" fill="#F0EDF9"/>
    <path d="M57.4924 33.9783C54.6655 24.6989 45.5271 19.2624 37.0811 21.8354C28.6352 24.4084 24.0801 34.0166 26.9069 43.2959C29.7338 52.5753 38.8723 58.0118 47.3182 55.4388C55.7641 52.8658 60.3193 43.2576 57.4924 33.9783Z" fill="#7E76F2"/>
    <path d="M28.8251 42.6646C27.7847 39.2366 27.887 35.4618 29.1358 32.0946" stroke="white" stroke-width="0.503269" stroke-linecap="round" stroke-linejoin="round"/>
    <path d="M56.4796 39.3932C56.4356 44.761 53.6066 50.2246 48.6995 52.6716" stroke="white" stroke-width="0.503269" stroke-linecap="round" stroke-linejoin="round"/>
</svg>
