<svg width="80" height="80" viewBox="0 0 80 80" fill="none" xmlns="http://www.w3.org/2000/svg">
<mask id="mask0_20594_69634" style="mask-type:alpha" maskUnits="userSpaceOnUse" x="0" y="0" width="80" height="80">
<rect width="80" height="80" rx="12" fill="#D9D9D9"/>
</mask>
<g mask="url(#mask0_20594_69634)">
<rect x="-12" y="-12" width="107" height="104" fill="url(#paint0_linear_20594_69634)"/>
<path d="M18.9102 40.0002C18.9102 51.649 28.3511 61.0902 39.9997 61.0902C51.6482 61.0902 61.0892 51.649 61.0892 40.0002C61.0892 28.3514 51.6482 18.9102 39.9997 18.9102C28.3511 18.9102 18.9102 28.3514 18.9102 40.0002Z" fill="#0C0C4F" stroke="url(#paint1_linear_20594_69634)" stroke-width="1.09557"/>
<path fill-rule="evenodd" clip-rule="evenodd" d="M30.455 34.9025L30.9891 33.2536C31.0986 32.9167 31.3616 32.6565 31.6985 32.5552L33.3555 32.0457C33.5856 31.9745 33.5856 31.6513 33.3582 31.5774L31.7067 31.0433C31.3725 30.9337 31.1096 30.6708 31.0083 30.3339L30.4988 28.6768C30.4276 28.4467 30.1044 28.4467 30.0305 28.6741L29.4964 30.3229C29.3868 30.6571 29.1239 30.92 28.787 31.0214L27.13 31.5308C26.8999 31.602 26.8972 31.9252 27.1272 31.9992L28.7788 32.5333C29.1129 32.6428 29.3759 32.9085 29.4772 33.2454L29.9867 34.9025C30.0579 35.1325 30.3811 35.1353 30.455 34.9052V34.9025Z" fill="#FAFAFA"/>
<path fill-rule="evenodd" clip-rule="evenodd" d="M56.6661 33.9414C55.9813 33.1772 54.9159 32.7472 53.8779 32.5692C52.8316 32.3994 51.736 32.4158 50.7035 32.5993C48.6164 32.9526 46.7184 33.8181 45.0641 34.8836C44.2041 35.4067 43.4728 36.0121 42.7114 36.6311C42.3444 36.9433 42.013 37.2747 41.6651 37.6034L40.7147 38.5483C39.6821 39.6275 38.666 40.608 37.6828 41.4215C36.694 42.2322 35.771 42.8458 34.8617 43.2758C33.9524 43.7085 32.9801 43.9605 31.712 44.0016C30.4548 44.0454 28.9676 43.8181 27.3763 43.4456C25.7768 43.0731 24.0978 42.5417 22.2217 42.0843C22.8763 43.9003 23.8623 45.5053 25.1276 46.9734C26.4095 48.4141 28.009 49.7288 30.0631 50.5943C32.0872 51.479 34.6316 51.7939 37.0117 51.3174C39.3973 50.8572 41.4898 49.7534 43.1825 48.4771C44.8778 47.187 46.2528 45.7189 47.4086 44.1906C47.729 43.7688 47.8961 43.5332 48.1289 43.2018L48.7671 42.2541C49.2108 41.668 49.6161 41.0024 50.0544 40.4218C50.9171 39.2057 51.7662 37.9923 52.7522 36.8748C53.2479 36.3079 53.7738 35.7655 54.3928 35.2451C54.7023 34.9904 55.0337 34.7412 55.4034 34.5166C55.7787 34.2756 56.173 34.0866 56.6606 33.9387L56.6661 33.9414Z" fill="url(#paint2_linear_20594_69634)"/>
<path fill-rule="evenodd" clip-rule="evenodd" d="M56.6662 33.9402C55.9322 32.0859 54.5655 30.5274 52.7332 29.3771C50.9118 28.2377 48.3811 27.657 45.875 28.1528C44.637 28.3911 43.4374 28.8539 42.3829 29.4675C41.3339 30.0783 40.3945 30.815 39.5837 31.6066C39.1784 32.0037 38.8086 32.4173 38.4444 32.8309L37.4967 34.0415L36.0314 35.9889C34.1635 38.4951 32.1531 41.4312 28.85 42.2995C25.6099 43.1541 24.2048 42.3981 22.2246 42.0859C22.5861 43.0198 23.0353 43.9264 23.6406 44.7235C24.2377 45.537 24.9416 46.3011 25.8153 46.9585C26.2563 47.2735 26.7246 47.583 27.2423 47.8459C27.7599 48.1006 28.3159 48.3252 28.9103 48.4923C30.0935 48.8155 31.4246 48.9305 32.7118 48.7552C34.0019 48.5827 35.2344 48.1746 36.3108 47.6323C37.3954 47.0954 38.3403 46.4408 39.1839 45.7506C40.8628 44.3565 42.1665 42.8172 43.2676 41.2614C43.8208 40.4836 44.3248 39.692 44.7904 38.8977L45.3382 37.9528C45.5052 37.6761 45.675 37.3995 45.8476 37.1393C46.5433 36.1012 47.2198 35.2686 48.0469 34.6414C48.8604 34.0004 49.9916 33.5266 51.5062 33.417C53.0126 33.3048 54.7518 33.5102 56.6635 33.9402H56.6662Z" fill="#FAFAFA"/>
<path fill-rule="evenodd" clip-rule="evenodd" d="M48.5127 49.3401C48.5127 50.7013 49.6165 51.8051 50.9777 51.8051C52.3389 51.8051 53.4427 50.7013 53.4427 49.3401C53.4427 47.9788 52.3389 46.875 50.9777 46.875C49.6165 46.875 48.5127 47.9788 48.5127 49.3401Z" fill="url(#paint3_linear_20594_69634)"/>
</g>
<defs>
<linearGradient id="paint0_linear_20594_69634" x1="41.5" y1="-12" x2="41.5" y2="92" gradientUnits="userSpaceOnUse">
<stop stop-color="#E6EFFE"/>
<stop offset="1" stop-color="#FAEBF2"/>
</linearGradient>
<linearGradient id="paint1_linear_20594_69634" x1="60.5578" y1="36.1875" x2="21.2847" y2="43.4728" gradientUnits="userSpaceOnUse">
<stop stop-color="#EC796B"/>
<stop offset="1" stop-color="#E175B1"/>
</linearGradient>
<linearGradient id="paint2_linear_20594_69634" x1="56.0032" y1="32.4322" x2="25.6888" y2="49.2735" gradientUnits="userSpaceOnUse">
<stop stop-color="#EC796B"/>
<stop offset="1" stop-color="#E175B1"/>
</linearGradient>
<linearGradient id="paint3_linear_20594_69634" x1="53.5934" y1="49.0634" x2="48.6633" y2="49.5865" gradientUnits="userSpaceOnUse">
<stop stop-color="#EC796B"/>
<stop offset="1" stop-color="#E175B1"/>
</linearGradient>
</defs>
</svg>
