<svg width="394" height="226" viewBox="0 0 394 226" fill="none" xmlns="http://www.w3.org/2000/svg">
<path d="M0 8C0 3.58173 3.58172 0 8 0H386C390.418 0 394 3.58172 394 8V226H0V8Z" fill="url(#paint0_linear_4_91)"/>
<mask id="mask0_4_91" style="mask-type:alpha" maskUnits="userSpaceOnUse" x="0" y="0" width="394" height="226">
<path d="M0 8C0 3.58173 3.58172 0 8 0H386C390.418 0 394 3.58172 394 8V226H0V8Z" fill="url(#paint1_linear_4_91)"/>
</mask>
<g mask="url(#mask0_4_91)">
<path d="M196.547 343.962C286.835 343.962 360.028 270.769 360.028 180.481C360.028 90.1929 286.835 17 196.547 17C106.259 17 33.0664 90.1929 33.0664 180.481C33.0664 270.769 106.259 343.962 196.547 343.962Z" stroke="white" stroke-width="0.43298"/>
<path d="M-100.95 180.489C-100.95 194.171 -92.6782 207.243 -77.6352 219.16C-62.5964 231.078 -40.8237 241.82 -13.8965 250.846C39.9539 268.895 114.36 280.062 196.557 280.062C278.753 280.062 353.159 268.895 407.01 250.846C433.937 241.82 455.714 231.078 470.748 219.16C485.791 207.243 494.063 194.171 494.063 180.489C494.063 166.807 485.791 153.735 470.748 141.818C455.714 129.9 433.937 119.158 407.01 110.132C353.159 92.0828 278.753 80.916 196.557 80.916C114.36 80.916 39.9498 92.0828 -13.8965 110.132C-40.8237 119.158 -62.5964 129.9 -77.6352 141.818C-92.6782 153.735 -100.95 166.807 -100.95 180.489Z" stroke="white" stroke-width="0.43298"/>
<path d="M-160.743 180.49C-160.743 196.964 -150.797 212.691 -132.731 227.029C-114.666 241.363 -88.5139 254.282 -56.1805 265.135C8.49018 286.842 97.8449 300.273 196.552 300.273C295.259 300.273 384.614 286.842 449.285 265.135C481.622 254.282 507.774 241.363 525.84 227.029C543.905 212.691 553.851 196.964 553.851 180.49C553.851 164.016 543.905 148.288 525.84 133.951C507.774 119.617 481.622 106.698 449.285 95.8442C384.614 74.1374 295.259 60.7109 196.552 60.7109C97.8449 60.7109 8.48606 74.1416 -56.1805 95.8442C-88.518 106.698 -114.67 119.617 -132.731 133.951C-150.797 148.288 -160.743 164.016 -160.743 180.49Z" stroke="white" stroke-width="0.43298"/>
<path d="M-280.134 313.016H19.8224C48.5558 313.016 71.846 289.725 71.846 260.992V178.507C71.846 109.552 127.746 53.6523 196.701 53.6523C265.656 53.6523 321.556 109.552 321.556 178.507V281.862C321.556 310.595 344.846 333.885 373.58 333.885H1065.14" stroke="white" stroke-width="0.412362"/>
<path d="M-249.414 331.18H19.8212C58.1296 331.18 89.1846 300.125 89.1846 261.817V178.507C89.1846 119.127 137.32 70.9922 196.7 70.9922C256.08 70.9922 304.215 119.127 304.215 178.507V281.862C304.215 320.17 335.27 351.225 373.578 351.225H1064.45" stroke="white" stroke-width="0.412362"/>
<path d="M-247.352 349.343H19.8219C67.7095 349.343 106.529 310.523 106.529 262.636V178.501C106.529 128.701 146.904 88.3262 196.705 88.3262C246.506 88.3262 286.876 128.696 286.876 178.501V281.856C286.876 329.743 325.696 368.563 373.583 368.563H1077.98" stroke="white" stroke-width="0.412362"/>
<path d="M-289 367.513H19.822C77.2846 367.513 123.869 320.929 123.869 263.466V178.507C123.869 138.281 156.479 105.676 196.701 105.676C236.922 105.676 269.532 138.285 269.532 178.507V281.862C269.532 339.324 316.116 385.909 373.579 385.909H1066.88" stroke="white" stroke-width="0.412362"/>
<path d="M-268.176 387.325H23.2899C88.4142 387.325 141.209 334.531 141.209 269.406V178.505C141.209 147.858 166.054 123.014 196.7 123.014C227.347 123.014 252.192 147.858 252.192 178.505V281.86C252.192 348.901 306.537 403.247 373.579 403.247H1071.04" stroke="white" stroke-width="0.412362"/>
</g>
<path d="M138.519 113.001C138.519 145.302 164.698 171.482 197 171.482C229.301 171.482 255.481 145.302 255.481 113.001C255.481 80.6993 229.301 54.5195 197 54.5195C164.698 54.5195 138.519 80.6993 138.519 113.001Z" fill="#0C0C4F" stroke="url(#paint2_linear_4_91)" stroke-width="3.03797"/>
<path fill-rule="evenodd" clip-rule="evenodd" d="M170.532 98.8658L172.013 94.2936C172.316 93.3594 173.046 92.6379 173.98 92.3569L178.575 90.9443C179.213 90.7468 179.213 89.8506 178.582 89.6455L174.003 88.1645C173.076 87.8607 172.347 87.1316 172.066 86.1974L170.653 81.6025C170.456 80.9645 169.559 80.9645 169.354 81.5949L167.873 86.167C167.57 87.0936 166.841 87.8227 165.906 88.1037L161.311 89.5164C160.673 89.7139 160.666 90.6101 161.304 90.8151L165.884 92.2962C166.81 92.6 167.539 93.3367 167.82 94.2708L169.233 98.8658C169.43 99.5037 170.327 99.5113 170.532 98.8734V98.8658Z" fill="#FAFAFA"/>
<path fill-rule="evenodd" clip-rule="evenodd" d="M243.215 96.2007C241.316 94.0817 238.362 92.8893 235.483 92.3956C232.582 91.9247 229.544 91.9703 226.681 92.4791C220.894 93.4589 215.63 95.8589 211.043 98.8133C208.658 100.264 206.63 101.942 204.519 103.659C203.501 104.525 202.582 105.444 201.618 106.355L198.982 108.975C196.119 111.968 193.301 114.687 190.575 116.942C187.833 119.191 185.273 120.892 182.752 122.084C180.23 123.284 177.534 123.983 174.018 124.097C170.532 124.218 166.408 123.588 161.995 122.555C157.559 121.522 152.904 120.049 147.701 118.78C149.516 123.816 152.251 128.266 155.759 132.337C159.314 136.332 163.749 139.978 169.445 142.378C175.058 144.831 182.114 145.704 188.714 144.383C195.329 143.107 201.132 140.046 205.825 136.507C210.526 132.93 214.339 128.859 217.544 124.621C218.433 123.451 218.896 122.798 219.542 121.879L221.311 119.251C222.542 117.626 223.666 115.78 224.881 114.17C227.273 110.798 229.628 107.434 232.362 104.335C233.737 102.763 235.195 101.259 236.911 99.8158C237.77 99.1095 238.689 98.4184 239.714 97.7956C240.754 97.1272 241.848 96.6032 243.2 96.1931L243.215 96.2007Z" fill="url(#paint3_linear_4_91)"/>
<path fill-rule="evenodd" clip-rule="evenodd" d="M243.215 96.2003C241.18 91.0585 237.39 86.737 232.309 83.5472C227.258 80.3877 220.241 78.7775 213.291 80.1522C209.858 80.813 206.532 82.0965 203.608 83.7978C200.699 85.4915 198.094 87.5345 195.846 89.7294C194.722 90.8307 193.696 91.9775 192.686 93.1244L190.058 96.4813L185.995 101.881C180.815 108.831 175.241 116.972 166.081 119.38C157.096 121.75 153.2 119.653 147.709 118.788C148.712 121.378 149.957 123.891 151.636 126.102C153.291 128.357 155.243 130.476 157.666 132.299C158.889 133.172 160.187 134.031 161.623 134.76C163.058 135.466 164.6 136.089 166.248 136.552C169.529 137.448 173.22 137.767 176.79 137.281C180.367 136.803 183.785 135.671 186.77 134.167C189.777 132.679 192.398 130.864 194.737 128.95C199.393 125.084 203.008 120.816 206.061 116.502C207.595 114.345 208.993 112.15 210.284 109.947L211.803 107.327C212.266 106.56 212.737 105.793 213.215 105.071C215.144 102.193 217.02 99.8839 219.314 98.1446C221.57 96.3674 224.706 95.0535 228.906 94.7497C233.084 94.4383 237.906 95.0079 243.208 96.2003H243.215Z" fill="#FAFAFA"/>
<path fill-rule="evenodd" clip-rule="evenodd" d="M220.605 138.898C220.605 142.673 223.666 145.733 227.441 145.733C231.216 145.733 234.276 142.673 234.276 138.898C234.276 135.123 231.216 132.062 227.441 132.062C223.666 132.062 220.605 135.123 220.605 138.898Z" fill="url(#paint4_linear_4_91)"/>
<defs>
<linearGradient id="paint0_linear_4_91" x1="197" y1="0" x2="197" y2="226" gradientUnits="userSpaceOnUse">
<stop stop-color="#E6EFFE"/>
<stop offset="1" stop-color="#FAEBF2"/>
</linearGradient>
<linearGradient id="paint1_linear_4_91" x1="197" y1="0" x2="197" y2="226" gradientUnits="userSpaceOnUse">
<stop stop-color="#E6EFFE"/>
<stop offset="1" stop-color="#FAEBF2"/>
</linearGradient>
<linearGradient id="paint2_linear_4_91" x1="254.007" y1="102.428" x2="145.103" y2="122.631" gradientUnits="userSpaceOnUse">
<stop stop-color="#EC796B"/>
<stop offset="1" stop-color="#E175B1"/>
</linearGradient>
<linearGradient id="paint3_linear_4_91" x1="241.377" y1="92.0158" x2="157.316" y2="138.717" gradientUnits="userSpaceOnUse">
<stop stop-color="#EC796B"/>
<stop offset="1" stop-color="#E175B1"/>
</linearGradient>
<linearGradient id="paint4_linear_4_91" x1="234.694" y1="138.131" x2="221.023" y2="139.581" gradientUnits="userSpaceOnUse">
<stop stop-color="#EC796B"/>
<stop offset="1" stop-color="#E175B1"/>
</linearGradient>
</defs>
</svg>
