<svg width="80" height="80" viewBox="0 0 80 80" fill="none" xmlns="http://www.w3.org/2000/svg">
<rect width="80" height="80" rx="12" fill="white"/>
<g clip-path="url(#clip0_22743_57302)">
<mask id="mask0_22743_57302" style="mask-type:luminance" maskUnits="userSpaceOnUse" x="13" y="13" width="54" height="54">
<path d="M67 13H13V67H67V13Z" fill="white"/>
</mask>
<g mask="url(#mask0_22743_57302)">
<path d="M64.8744 29.4909C63.513 26.2737 61.5672 23.3903 59.0885 20.9115C56.6097 18.4327 53.7199 16.487 50.5091 15.1256C47.1762 13.7128 43.6443 13 39.9968 13C36.3557 13 32.8174 13.7128 29.4844 15.1256C26.2672 16.487 23.3839 18.4327 20.9051 20.9115C18.4263 23.3903 16.4806 26.2801 15.1192 29.4909C13.7128 32.8174 13 36.3557 13 39.9968C13 43.6379 13.7128 47.1762 15.1256 50.5091C16.487 53.7263 18.4327 56.6097 20.9115 59.0885C23.3903 61.5672 26.2801 63.513 29.4909 64.8744C32.8238 66.2808 36.3557 67 40.0032 67C43.6443 67 47.1826 66.2872 50.5155 64.8744C53.7328 63.513 56.6161 61.5672 59.0949 59.0885C61.5736 56.6097 63.5194 53.7199 64.8808 50.5091C66.2872 47.1762 67.0064 43.6443 67.0064 39.9968C67 36.3557 66.2808 32.8174 64.8744 29.4909ZM31.0321 37.4602C32.1559 33.1448 36.0859 29.9533 40.7545 29.9533H59.4995C60.7068 32.2843 61.4773 34.821 61.7792 37.4602H31.0321ZM61.7792 42.5334C61.4773 45.1727 60.7003 47.7092 59.4995 50.0403H40.7545C36.0924 50.0403 32.1623 46.8487 31.0321 42.5334H61.7792ZM24.4948 24.4948C28.6368 20.3528 34.1402 18.0731 39.9968 18.0731C45.8534 18.0731 51.3568 20.3528 55.4987 24.4948C55.6272 24.6233 55.7492 24.7516 55.8713 24.8801H40.7545C36.7153 24.8801 32.9201 26.4535 30.0624 29.3111C27.8149 31.5587 26.3635 34.3906 25.8434 37.4666H18.2208C18.7795 32.5669 20.9565 28.0332 24.4948 24.4948ZM39.9968 61.9268C34.1402 61.9268 28.6368 59.6471 24.4948 55.5052C20.9565 51.9668 18.7795 47.4331 18.2208 42.5398H25.8434C26.3571 45.6158 27.8149 48.4477 30.0624 50.6954C32.9201 53.5529 36.7153 55.1263 40.7545 55.1263H55.8776C55.7557 55.2547 55.6272 55.3831 55.5052 55.5116C51.3632 59.6407 45.8534 61.9268 39.9968 61.9268Z" fill="black"/>
</g>
</g>
<defs>
<clipPath id="clip0_22743_57302">
<rect width="54" height="54" fill="white" transform="translate(13 13)"/>
</clipPath>
</defs>
</svg>
